G04*
G04 #@! TF.GenerationSoftware,Altium Limited,Altium Designer,21.0.9 (235)*
G04*
G04 Layer_Color=255*
%FSLAX44Y44*%
%MOMM*%
G71*
G04*
G04 #@! TF.SameCoordinates,CD1E4018-1162-47FE-B72E-61F81A971E37*
G04*
G04*
G04 #@! TF.FilePolarity,Positive*
G04*
G01*
G75*
%ADD16R,3.5000X1.2000*%
G04:AMPARAMS|DCode=17|XSize=1.2mm|YSize=3.5mm|CornerRadius=0.3mm|HoleSize=0mm|Usage=FLASHONLY|Rotation=90.000|XOffset=0mm|YOffset=0mm|HoleType=Round|Shape=RoundedRectangle|*
%AMROUNDEDRECTD17*
21,1,1.2000,2.9000,0,0,90.0*
21,1,0.6000,3.5000,0,0,90.0*
1,1,0.6000,1.4500,0.3000*
1,1,0.6000,1.4500,-0.3000*
1,1,0.6000,-1.4500,-0.3000*
1,1,0.6000,-1.4500,0.3000*
%
%ADD17ROUNDEDRECTD17*%
%ADD18R,0.8000X1.0000*%
%ADD19R,1.0000X1.5000*%
G04:AMPARAMS|DCode=20|XSize=1.5mm|YSize=1mm|CornerRadius=0.25mm|HoleSize=0mm|Usage=FLASHONLY|Rotation=90.000|XOffset=0mm|YOffset=0mm|HoleType=Round|Shape=RoundedRectangle|*
%AMROUNDEDRECTD20*
21,1,1.5000,0.5000,0,0,90.0*
21,1,1.0000,1.0000,0,0,90.0*
1,1,0.5000,0.2500,0.5000*
1,1,0.5000,0.2500,-0.5000*
1,1,0.5000,-0.2500,-0.5000*
1,1,0.5000,-0.2500,0.5000*
%
%ADD20ROUNDEDRECTD20*%
%ADD28C,4.0000*%
D16*
X953984Y500402D02*
D03*
Y525802D02*
D03*
X46016Y499598D02*
D03*
Y474198D02*
D03*
D17*
X953984Y475002D02*
D03*
X46016Y524998D02*
D03*
D18*
X980500Y837000D02*
D03*
X963500D02*
D03*
X980500Y878333D02*
D03*
X963500D02*
D03*
X980500Y919667D02*
D03*
X963500D02*
D03*
X980500Y961000D02*
D03*
X963500D02*
D03*
X980500Y164000D02*
D03*
X963500D02*
D03*
X980500Y122500D02*
D03*
X963500D02*
D03*
X980500Y81000D02*
D03*
X963500D02*
D03*
X980500Y39500D02*
D03*
X963500D02*
D03*
X31000Y80667D02*
D03*
X14000D02*
D03*
X31000Y122333D02*
D03*
X14000D02*
D03*
X31000Y836500D02*
D03*
X14000D02*
D03*
X31000Y960563D02*
D03*
X14000D02*
D03*
X31000Y919209D02*
D03*
X14000D02*
D03*
X31000Y877854D02*
D03*
X14000D02*
D03*
X31000Y164000D02*
D03*
X14000D02*
D03*
X31000Y39000D02*
D03*
X14000D02*
D03*
D19*
X943000Y839500D02*
D03*
Y888500D02*
D03*
X911000D02*
D03*
X943000Y42000D02*
D03*
Y91000D02*
D03*
X911000D02*
D03*
X88000Y112500D02*
D03*
Y161500D02*
D03*
X56000D02*
D03*
X88000Y839000D02*
D03*
Y888000D02*
D03*
X56000D02*
D03*
X147000Y41500D02*
D03*
Y90500D02*
D03*
X115000D02*
D03*
X88000Y41500D02*
D03*
Y90500D02*
D03*
X56000D02*
D03*
X146530Y839000D02*
D03*
Y888000D02*
D03*
X114530D02*
D03*
X146530Y909063D02*
D03*
Y958063D02*
D03*
X114530D02*
D03*
X886000Y839500D02*
D03*
Y888500D02*
D03*
X854000D02*
D03*
X886000Y112500D02*
D03*
Y161500D02*
D03*
X854000D02*
D03*
X88000Y909063D02*
D03*
Y958063D02*
D03*
X56000D02*
D03*
X943000Y112500D02*
D03*
Y161500D02*
D03*
X911000D02*
D03*
X886000Y42000D02*
D03*
Y91000D02*
D03*
X854000D02*
D03*
X886000Y909500D02*
D03*
Y958500D02*
D03*
X854000D02*
D03*
X943000Y909500D02*
D03*
Y958500D02*
D03*
X911000D02*
D03*
X147000Y112500D02*
D03*
Y161500D02*
D03*
X115000D02*
D03*
D20*
X911000Y839500D02*
D03*
Y42000D02*
D03*
X56000Y112500D02*
D03*
Y839000D02*
D03*
X115000Y41500D02*
D03*
X56000D02*
D03*
X114530Y839000D02*
D03*
Y909063D02*
D03*
X854000Y839500D02*
D03*
Y112500D02*
D03*
X56000Y909063D02*
D03*
X911000Y112500D02*
D03*
X854000Y42000D02*
D03*
Y909500D02*
D03*
X911000D02*
D03*
X115000Y112500D02*
D03*
D28*
X498000Y501000D02*
D03*
X500000Y900000D02*
D03*
Y100000D02*
D03*
X900000Y500000D02*
D03*
X100000D02*
D03*
M02*
