G04*
G04 #@! TF.GenerationSoftware,Altium Limited,Altium Designer,21.0.9 (235)*
G04*
G04 Layer_Color=32896*
%FSLAX44Y44*%
%MOMM*%
G71*
G04*
G04 #@! TF.SameCoordinates,CD1E4018-1162-47FE-B72E-61F81A971E37*
G04*
G04*
G04 #@! TF.FilePolarity,Positive*
G04*
G01*
G75*
%ADD30C,0.1016*%
G36*
X19191Y34199D02*
X14197D01*
Y43709D01*
X19191D01*
Y34199D01*
D02*
G37*
G36*
X30886D02*
X25881D01*
Y43701D01*
X30886D01*
Y34199D01*
D02*
G37*
G36*
X19191Y75866D02*
X14197D01*
Y85375D01*
X19191D01*
Y75866D01*
D02*
G37*
G36*
X30886D02*
X25881D01*
Y85368D01*
X30886D01*
Y75866D01*
D02*
G37*
G36*
X19191Y117532D02*
X14197D01*
Y127042D01*
X19191D01*
Y117532D01*
D02*
G37*
G36*
X30886D02*
X25881D01*
Y127035D01*
X30886D01*
Y117532D01*
D02*
G37*
G36*
X19191Y159199D02*
X14197D01*
Y168709D01*
X19191D01*
Y159199D01*
D02*
G37*
G36*
X30886D02*
X25881D01*
Y168701D01*
X30886D01*
Y159199D01*
D02*
G37*
G36*
X19191Y831699D02*
X14197D01*
Y841209D01*
X19191D01*
Y831699D01*
D02*
G37*
G36*
X30886D02*
X25881D01*
Y841201D01*
X30886D01*
Y831699D01*
D02*
G37*
G36*
X19191Y873053D02*
X14197D01*
Y882563D01*
X19191D01*
Y873053D01*
D02*
G37*
G36*
X30886D02*
X25881D01*
Y882555D01*
X30886D01*
Y873053D01*
D02*
G37*
G36*
X19191Y914408D02*
X14197D01*
Y923917D01*
X19191D01*
Y914408D01*
D02*
G37*
G36*
X30886D02*
X25881D01*
Y923910D01*
X30886D01*
Y914408D01*
D02*
G37*
G36*
X19191Y955762D02*
X14197D01*
Y965271D01*
X19191D01*
Y955762D01*
D02*
G37*
G36*
X30886D02*
X25881D01*
Y965264D01*
X30886D01*
Y955762D01*
D02*
G37*
G36*
X968691Y34699D02*
X963697D01*
Y44209D01*
X968691D01*
Y34699D01*
D02*
G37*
G36*
X980386D02*
X975381D01*
Y44201D01*
X980386D01*
Y34699D01*
D02*
G37*
G36*
X968691Y76199D02*
X963697D01*
Y85709D01*
X968691D01*
Y76199D01*
D02*
G37*
G36*
X980386D02*
X975381D01*
Y85701D01*
X980386D01*
Y76199D01*
D02*
G37*
G36*
X968691Y117699D02*
X963697D01*
Y127209D01*
X968691D01*
Y117699D01*
D02*
G37*
G36*
X980386D02*
X975381D01*
Y127201D01*
X980386D01*
Y117699D01*
D02*
G37*
G36*
X968691Y159199D02*
X963697D01*
Y168709D01*
X968691D01*
Y159199D01*
D02*
G37*
G36*
X980386D02*
X975381D01*
Y168701D01*
X980386D01*
Y159199D01*
D02*
G37*
G36*
X968691Y832199D02*
X963697D01*
Y841709D01*
X968691D01*
Y832199D01*
D02*
G37*
G36*
X980386D02*
X975381D01*
Y841701D01*
X980386D01*
Y832199D01*
D02*
G37*
G36*
X968691Y873532D02*
X963697D01*
Y883042D01*
X968691D01*
Y873532D01*
D02*
G37*
G36*
X980386D02*
X975381D01*
Y883035D01*
X980386D01*
Y873532D01*
D02*
G37*
G36*
X968691Y914866D02*
X963697D01*
Y924375D01*
X968691D01*
Y914866D01*
D02*
G37*
G36*
X980386D02*
X975381D01*
Y924368D01*
X980386D01*
Y914866D01*
D02*
G37*
G36*
X968691Y956199D02*
X963697D01*
Y965709D01*
X968691D01*
Y956199D01*
D02*
G37*
G36*
X980386D02*
X975381D01*
Y965701D01*
X980386D01*
Y956199D01*
D02*
G37*
D30*
X968440Y832680D02*
X975560D01*
X968440Y841190D02*
X975560D01*
X968440Y832680D02*
X975560D01*
X968440Y841190D02*
X975560D01*
X968440Y874013D02*
X975560D01*
X968440Y882523D02*
X975560D01*
X968440Y874013D02*
X975560D01*
X968440Y882523D02*
X975560D01*
X968440Y915347D02*
X975560D01*
X968440Y923857D02*
X975560D01*
X968440Y915347D02*
X975560D01*
X968440Y923857D02*
X975560D01*
X968440Y956680D02*
X975560D01*
X968440Y965190D02*
X975560D01*
X968440Y956680D02*
X975560D01*
X968440Y965190D02*
X975560D01*
X968440Y159680D02*
X975560D01*
X968440Y168190D02*
X975560D01*
X968440Y159680D02*
X975560D01*
X968440Y168190D02*
X975560D01*
X968440Y118180D02*
X975560D01*
X968440Y126690D02*
X975560D01*
X968440Y118180D02*
X975560D01*
X968440Y126690D02*
X975560D01*
X968440Y76680D02*
X975560D01*
X968440Y85190D02*
X975560D01*
X968440Y76680D02*
X975560D01*
X968440Y85190D02*
X975560D01*
X968440Y35180D02*
X975560D01*
X968440Y43690D02*
X975560D01*
X968440Y35180D02*
X975560D01*
X968440Y43690D02*
X975560D01*
X18940Y76347D02*
X26060D01*
X18940Y84857D02*
X26060D01*
X18940Y76347D02*
X26060D01*
X18940Y84857D02*
X26060D01*
X18940Y118013D02*
X26060D01*
X18940Y126523D02*
X26060D01*
X18940Y118013D02*
X26060D01*
X18940Y126523D02*
X26060D01*
X18940Y832180D02*
X26060D01*
X18940Y840690D02*
X26060D01*
X18940Y832180D02*
X26060D01*
X18940Y840690D02*
X26060D01*
X18940Y956243D02*
X26060D01*
X18940Y964753D02*
X26060D01*
X18940Y956243D02*
X26060D01*
X18940Y964753D02*
X26060D01*
X18940Y914889D02*
X26060D01*
X18940Y923399D02*
X26060D01*
X18940Y914889D02*
X26060D01*
X18940Y923399D02*
X26060D01*
X18940Y873534D02*
X26060D01*
X18940Y882044D02*
X26060D01*
X18940Y873534D02*
X26060D01*
X18940Y882044D02*
X26060D01*
X18940Y159680D02*
X26060D01*
X18940Y168190D02*
X26060D01*
X18940Y159680D02*
X26060D01*
X18940Y168190D02*
X26060D01*
X18940Y34680D02*
X26060D01*
X18940Y43190D02*
X26060D01*
X18940Y34680D02*
X26060D01*
X18940Y43190D02*
X26060D01*
M02*
