G04*
G04 #@! TF.GenerationSoftware,Altium Limited,Altium Designer,21.0.9 (235)*
G04*
G04 Layer_Color=255*
%FSLAX44Y44*%
%MOMM*%
G71*
G04*
G04 #@! TF.SameCoordinates,FCB3D206-118C-4BCE-AE63-394E7735AD57*
G04*
G04*
G04 #@! TF.FilePolarity,Positive*
G04*
G01*
G75*
%ADD20R,0.8000X1.0000*%
%ADD21C,2.0000*%
%ADD22R,0.7000X0.9000*%
%ADD23R,0.8000X0.8000*%
%ADD24R,1.3800X1.8200*%
%ADD25R,1.3208X0.5588*%
%ADD26R,0.2600X1.0800*%
%ADD27R,3.0000X3.0000*%
%ADD28R,1.0800X0.2600*%
%ADD29R,2.0000X0.4000*%
%ADD30R,3.5000X1.2000*%
G04:AMPARAMS|DCode=31|XSize=1.2mm|YSize=3.5mm|CornerRadius=0.3mm|HoleSize=0mm|Usage=FLASHONLY|Rotation=90.000|XOffset=0mm|YOffset=0mm|HoleType=Round|Shape=RoundedRectangle|*
%AMROUNDEDRECTD31*
21,1,1.2000,2.9000,0,0,90.0*
21,1,0.6000,3.5000,0,0,90.0*
1,1,0.6000,1.4500,0.3000*
1,1,0.6000,1.4500,-0.3000*
1,1,0.6000,-1.4500,-0.3000*
1,1,0.6000,-1.4500,0.3000*
%
%ADD31ROUNDEDRECTD31*%
%ADD32R,1.0000X1.5000*%
G04:AMPARAMS|DCode=33|XSize=1.5mm|YSize=1mm|CornerRadius=0.25mm|HoleSize=0mm|Usage=FLASHONLY|Rotation=90.000|XOffset=0mm|YOffset=0mm|HoleType=Round|Shape=RoundedRectangle|*
%AMROUNDEDRECTD33*
21,1,1.5000,0.5000,0,0,90.0*
21,1,1.0000,1.0000,0,0,90.0*
1,1,0.5000,0.2500,0.5000*
1,1,0.5000,0.2500,-0.5000*
1,1,0.5000,-0.2500,-0.5000*
1,1,0.5000,-0.2500,0.5000*
%
%ADD33ROUNDEDRECTD33*%
%ADD51R,1.7000X0.7000*%
%ADD52C,4.0000*%
D20*
X494500Y234000D02*
D03*
X477500D02*
D03*
X494500Y258000D02*
D03*
X477500D02*
D03*
X204190Y311900D02*
D03*
X187190D02*
D03*
X287288D02*
D03*
X270288D02*
D03*
X494500Y374000D02*
D03*
X477500D02*
D03*
X494500Y397000D02*
D03*
X477500D02*
D03*
X980500Y837000D02*
D03*
X963500D02*
D03*
X980500Y878333D02*
D03*
X963500D02*
D03*
X980500Y919667D02*
D03*
X963500D02*
D03*
X980500Y961000D02*
D03*
X963500D02*
D03*
X980500Y164000D02*
D03*
X963500D02*
D03*
X980500Y122500D02*
D03*
X963500D02*
D03*
X980500Y81000D02*
D03*
X963500D02*
D03*
X980500Y39500D02*
D03*
X963500D02*
D03*
X31000Y80667D02*
D03*
X14000D02*
D03*
X31000Y122333D02*
D03*
X14000D02*
D03*
X31000Y836500D02*
D03*
X14000D02*
D03*
X31000Y960563D02*
D03*
X14000D02*
D03*
X31000Y919209D02*
D03*
X14000D02*
D03*
X31000Y877854D02*
D03*
X14000D02*
D03*
X31000Y164000D02*
D03*
X14000D02*
D03*
X31000Y39000D02*
D03*
X14000D02*
D03*
D21*
X248990Y400000D02*
D03*
X298000D02*
D03*
X347100D02*
D03*
X199980D02*
D03*
D22*
X381500Y340400D02*
D03*
X396500D02*
D03*
X340500Y258000D02*
D03*
X355500D02*
D03*
X188190Y282400D02*
D03*
X203190D02*
D03*
X188190Y340400D02*
D03*
X203190D02*
D03*
X287788D02*
D03*
X272788D02*
D03*
X287788Y374000D02*
D03*
X272788D02*
D03*
X340500Y311900D02*
D03*
X355500D02*
D03*
X340500Y282400D02*
D03*
X355500D02*
D03*
X340500Y340400D02*
D03*
X355500D02*
D03*
X340500Y374000D02*
D03*
X355500D02*
D03*
D23*
X381500Y258242D02*
D03*
X396500D02*
D03*
D24*
X209380Y374000D02*
D03*
X182000D02*
D03*
X209380Y258000D02*
D03*
X182000D02*
D03*
D25*
X284684Y280398D02*
D03*
Y261602D02*
D03*
X261316D02*
D03*
Y271000D02*
D03*
Y280398D02*
D03*
D26*
X453000Y340050D02*
D03*
Y283750D02*
D03*
X458000Y340050D02*
D03*
X463000D02*
D03*
X468000D02*
D03*
X473000D02*
D03*
X478000D02*
D03*
X483000D02*
D03*
X488000D02*
D03*
X493000D02*
D03*
Y283750D02*
D03*
X488000D02*
D03*
X483000D02*
D03*
X478000D02*
D03*
X473000D02*
D03*
X468000D02*
D03*
X463000D02*
D03*
X458000D02*
D03*
D27*
X473000Y311900D02*
D03*
D28*
X501150Y331900D02*
D03*
Y326900D02*
D03*
Y321900D02*
D03*
Y316900D02*
D03*
Y311900D02*
D03*
Y306900D02*
D03*
Y301900D02*
D03*
Y296900D02*
D03*
Y291900D02*
D03*
X444850D02*
D03*
Y296900D02*
D03*
Y301900D02*
D03*
Y306900D02*
D03*
Y311900D02*
D03*
Y316900D02*
D03*
Y321900D02*
D03*
Y326900D02*
D03*
Y331900D02*
D03*
D29*
X413000Y322766D02*
D03*
Y310766D02*
D03*
Y298766D02*
D03*
D30*
X953984Y500402D02*
D03*
Y525802D02*
D03*
X46016Y499598D02*
D03*
Y474198D02*
D03*
D31*
X953984Y475002D02*
D03*
X46016Y524998D02*
D03*
D32*
X943000Y839500D02*
D03*
Y888500D02*
D03*
X911000D02*
D03*
X943000Y42000D02*
D03*
Y91000D02*
D03*
X911000D02*
D03*
X88000Y112500D02*
D03*
Y161500D02*
D03*
X56000D02*
D03*
X88000Y839000D02*
D03*
Y888000D02*
D03*
X56000D02*
D03*
X147000Y41500D02*
D03*
Y90500D02*
D03*
X115000D02*
D03*
X88000Y41500D02*
D03*
Y90500D02*
D03*
X56000D02*
D03*
X146530Y839000D02*
D03*
Y888000D02*
D03*
X114530D02*
D03*
X146530Y909063D02*
D03*
Y958063D02*
D03*
X114530D02*
D03*
X886000Y839500D02*
D03*
Y888500D02*
D03*
X854000D02*
D03*
X886000Y112500D02*
D03*
Y161500D02*
D03*
X854000D02*
D03*
X88000Y909063D02*
D03*
Y958063D02*
D03*
X56000D02*
D03*
X943000Y112500D02*
D03*
Y161500D02*
D03*
X911000D02*
D03*
X886000Y42000D02*
D03*
Y91000D02*
D03*
X854000D02*
D03*
X886000Y909500D02*
D03*
Y958500D02*
D03*
X854000D02*
D03*
X943000Y909500D02*
D03*
Y958500D02*
D03*
X911000D02*
D03*
X147000Y112500D02*
D03*
Y161500D02*
D03*
X115000D02*
D03*
D33*
X911000Y839500D02*
D03*
Y42000D02*
D03*
X56000Y112500D02*
D03*
Y839000D02*
D03*
X115000Y41500D02*
D03*
X56000D02*
D03*
X114530Y839000D02*
D03*
Y909063D02*
D03*
X854000Y839500D02*
D03*
Y112500D02*
D03*
X56000Y909063D02*
D03*
X911000Y112500D02*
D03*
X854000Y42000D02*
D03*
Y909500D02*
D03*
X911000D02*
D03*
X115000Y112500D02*
D03*
D51*
X551500Y293150D02*
D03*
Y305650D02*
D03*
Y318150D02*
D03*
Y330650D02*
D03*
D52*
X498000Y501000D02*
D03*
X500000Y900000D02*
D03*
Y100000D02*
D03*
X900000Y500000D02*
D03*
X100000D02*
D03*
M02*
