G04*
G04 #@! TF.GenerationSoftware,Altium Limited,Altium Designer,21.0.9 (235)*
G04*
G04 Layer_Color=32896*
%FSLAX44Y44*%
%MOMM*%
G71*
G04*
G04 #@! TF.SameCoordinates,FCB3D206-118C-4BCE-AE63-394E7735AD57*
G04*
G04*
G04 #@! TF.FilePolarity,Positive*
G04*
G01*
G75*
%ADD10C,0.1270*%
%ADD12C,0.2000*%
%ADD15C,0.0000*%
%ADD56C,0.0508*%
%ADD57C,0.1016*%
G36*
X980386Y956199D02*
X975381D01*
Y965701D01*
X980386D01*
Y956199D01*
D02*
G37*
G36*
X968691D02*
X963697D01*
Y965709D01*
X968691D01*
Y956199D01*
D02*
G37*
G36*
X30886Y955762D02*
X25881D01*
Y965264D01*
X30886D01*
Y955762D01*
D02*
G37*
G36*
X19191D02*
X14197D01*
Y965271D01*
X19191D01*
Y955762D01*
D02*
G37*
G36*
X980386Y914866D02*
X975381D01*
Y924368D01*
X980386D01*
Y914866D01*
D02*
G37*
G36*
X968691D02*
X963697D01*
Y924375D01*
X968691D01*
Y914866D01*
D02*
G37*
G36*
X30886Y914408D02*
X25881D01*
Y923910D01*
X30886D01*
Y914408D01*
D02*
G37*
G36*
X19191D02*
X14197D01*
Y923917D01*
X19191D01*
Y914408D01*
D02*
G37*
G36*
X980386Y873532D02*
X975381D01*
Y883035D01*
X980386D01*
Y873532D01*
D02*
G37*
G36*
X968691D02*
X963697D01*
Y883042D01*
X968691D01*
Y873532D01*
D02*
G37*
G36*
X30886Y873053D02*
X25881D01*
Y882555D01*
X30886D01*
Y873053D01*
D02*
G37*
G36*
X19191D02*
X14197D01*
Y882563D01*
X19191D01*
Y873053D01*
D02*
G37*
G36*
X980386Y832199D02*
X975381D01*
Y841701D01*
X980386D01*
Y832199D01*
D02*
G37*
G36*
X968691D02*
X963697D01*
Y841709D01*
X968691D01*
Y832199D01*
D02*
G37*
G36*
X30886Y831699D02*
X25881D01*
Y841201D01*
X30886D01*
Y831699D01*
D02*
G37*
G36*
X19191D02*
X14197D01*
Y841209D01*
X19191D01*
Y831699D01*
D02*
G37*
G36*
X482619Y392299D02*
X477614D01*
Y401801D01*
X482619D01*
Y392299D01*
D02*
G37*
G36*
X494303Y392291D02*
X489309D01*
Y401801D01*
X494303D01*
Y392291D01*
D02*
G37*
G36*
X482619Y369299D02*
X477614D01*
Y378801D01*
X482619D01*
Y369299D01*
D02*
G37*
G36*
X494303Y369291D02*
X489309D01*
Y378801D01*
X494303D01*
Y369291D01*
D02*
G37*
G36*
X287174Y307099D02*
X282169D01*
Y316601D01*
X287174D01*
Y307099D01*
D02*
G37*
G36*
X275479D02*
X270485D01*
Y316609D01*
X275479D01*
Y307099D01*
D02*
G37*
G36*
X204076D02*
X199071D01*
Y316601D01*
X204076D01*
Y307099D01*
D02*
G37*
G36*
X192381D02*
X187387D01*
Y316609D01*
X192381D01*
Y307099D01*
D02*
G37*
G36*
X397750Y260992D02*
X395750D01*
Y262492D01*
X397750D01*
Y260992D01*
D02*
G37*
G36*
X394625D02*
X395000D01*
Y260492D01*
X394500D01*
Y260617D01*
X394125D01*
Y264367D01*
X394625D01*
Y260992D01*
D02*
G37*
G36*
X398125Y257117D02*
X389125D01*
Y259367D01*
X398125D01*
Y257117D01*
D02*
G37*
G36*
X397000Y253242D02*
X395000D01*
Y256242D01*
X397000D01*
Y253242D01*
D02*
G37*
G36*
X494386Y253199D02*
X489381D01*
Y262701D01*
X494386D01*
Y253199D01*
D02*
G37*
G36*
X482691D02*
X477697D01*
Y262709D01*
X482691D01*
Y253199D01*
D02*
G37*
G36*
X384000Y259367D02*
X387125D01*
Y257117D01*
X384000D01*
Y252242D01*
X382000D01*
Y257117D01*
X381625D01*
Y259367D01*
X382000D01*
Y264242D01*
X384000D01*
Y259367D01*
D02*
G37*
G36*
X494386Y229199D02*
X489381D01*
Y238701D01*
X494386D01*
Y229199D01*
D02*
G37*
G36*
X482691D02*
X477697D01*
Y238709D01*
X482691D01*
Y229199D01*
D02*
G37*
G36*
X30886Y159199D02*
X25881D01*
Y168701D01*
X30886D01*
Y159199D01*
D02*
G37*
G36*
X19191D02*
X14197D01*
Y168709D01*
X19191D01*
Y159199D01*
D02*
G37*
G36*
X980386Y159199D02*
X975381D01*
Y168701D01*
X980386D01*
Y159199D01*
D02*
G37*
G36*
X968691D02*
X963697D01*
Y168709D01*
X968691D01*
Y159199D01*
D02*
G37*
G36*
X980386Y117699D02*
X975381D01*
Y127201D01*
X980386D01*
Y117699D01*
D02*
G37*
G36*
X968691D02*
X963697D01*
Y127209D01*
X968691D01*
Y117699D01*
D02*
G37*
G36*
X30886Y117532D02*
X25881D01*
Y127035D01*
X30886D01*
Y117532D01*
D02*
G37*
G36*
X19191D02*
X14197D01*
Y127042D01*
X19191D01*
Y117532D01*
D02*
G37*
G36*
X980386Y76199D02*
X975381D01*
Y85701D01*
X980386D01*
Y76199D01*
D02*
G37*
G36*
X968691D02*
X963697D01*
Y85709D01*
X968691D01*
Y76199D01*
D02*
G37*
G36*
X30886Y75866D02*
X25881D01*
Y85368D01*
X30886D01*
Y75866D01*
D02*
G37*
G36*
X19191D02*
X14197D01*
Y85375D01*
X19191D01*
Y75866D01*
D02*
G37*
G36*
X980386Y34699D02*
X975381D01*
Y44201D01*
X980386D01*
Y34699D01*
D02*
G37*
G36*
X968691D02*
X963697D01*
Y44209D01*
X968691D01*
Y34699D01*
D02*
G37*
G36*
X30886Y34199D02*
X25881D01*
Y43701D01*
X30886D01*
Y34199D01*
D02*
G37*
G36*
X19191D02*
X14197D01*
Y43709D01*
X19191D01*
Y34199D01*
D02*
G37*
D10*
X596000Y270650D02*
Y353150D01*
X553500D02*
X596000D01*
X553500Y270650D02*
Y353150D01*
Y270650D02*
X596000D01*
Y353150D01*
X553500D02*
X596000D01*
X553500Y270650D02*
Y353150D01*
Y270650D02*
X596000D01*
X178690Y365000D02*
Y383000D01*
X212690Y365000D02*
Y383000D01*
X178690D02*
X212690D01*
X178690Y365000D02*
X212690D01*
X178690D02*
Y383000D01*
X212690Y365000D02*
Y383000D01*
X178690D02*
X212690D01*
X178690Y365000D02*
X212690D01*
X178690Y249000D02*
Y267000D01*
X212690Y249000D02*
Y267000D01*
X178690D02*
X212690D01*
X178690Y249000D02*
X212690D01*
X178690D02*
Y267000D01*
X212690Y249000D02*
Y267000D01*
X178690D02*
X212690D01*
X178690Y249000D02*
X212690D01*
X443000Y281900D02*
Y341900D01*
Y281900D02*
Y341900D01*
X419500Y294766D02*
Y326766D01*
X406500Y294766D02*
Y326766D01*
X419500Y294766D02*
Y326766D01*
X406500Y294766D02*
Y326766D01*
D12*
X538000Y330650D02*
G03*
X538000Y330650I-1000J0D01*
G01*
D02*
G03*
X538000Y330650I-1000J0D01*
G01*
X443000Y341900D02*
X503000D01*
X443000Y281900D02*
Y341900D01*
Y281900D02*
X503000D01*
Y341900D01*
X443000D02*
X503000D01*
X443000Y281900D02*
Y341900D01*
Y281900D02*
X503000D01*
Y341900D01*
D15*
X269952Y285478D02*
G03*
X276048Y285478I3048J0D01*
G01*
X269952D02*
G03*
X276048Y285478I3048J0D01*
G01*
X269952D02*
G03*
X276048Y285478I3048J0D01*
G01*
X269952D02*
G03*
X276048Y285478I3048J0D01*
G01*
X280874Y282938D02*
X286970D01*
Y278112D02*
Y282938D01*
X280874Y278112D02*
X286970D01*
X280874D02*
Y282938D01*
Y263888D02*
X286970D01*
Y259062D02*
Y263888D01*
X280874Y259062D02*
X286970D01*
X280874D02*
Y263888D01*
X259030Y259062D02*
X265126D01*
X259030D02*
Y263888D01*
X265126D01*
Y259062D02*
Y263888D01*
X259030Y268460D02*
X265126D01*
X259030D02*
Y273540D01*
X265126D01*
Y268460D02*
Y273540D01*
X259030Y278112D02*
X265126D01*
X259030D02*
Y282938D01*
X265126D01*
Y278112D02*
Y282938D01*
Y285478D02*
X269952D01*
X276048D01*
X280874D01*
Y263888D02*
Y278112D01*
X265126Y256522D02*
X280874D01*
Y282938D02*
Y285478D01*
X265126Y256522D02*
Y259062D01*
Y263888D02*
Y268460D01*
Y273540D02*
Y278112D01*
Y282938D02*
Y285478D01*
X280874Y256522D02*
Y259062D01*
Y282938D02*
X286970D01*
Y278112D02*
Y282938D01*
X280874Y278112D02*
X286970D01*
X280874D02*
Y282938D01*
Y263888D02*
X286970D01*
Y259062D02*
Y263888D01*
X280874Y259062D02*
X286970D01*
X280874D02*
Y263888D01*
X259030Y259062D02*
X265126D01*
X259030D02*
Y263888D01*
X265126D01*
Y259062D02*
Y263888D01*
X259030Y268460D02*
X265126D01*
X259030D02*
Y273540D01*
X265126D01*
Y268460D02*
Y273540D01*
X259030Y278112D02*
X265126D01*
X259030D02*
Y282938D01*
X265126D01*
Y278112D02*
Y282938D01*
Y285478D02*
X269952D01*
X276048D01*
X280874D01*
Y263888D02*
Y278112D01*
X265126Y256522D02*
X280874D01*
Y282938D02*
Y285478D01*
X265126Y256522D02*
Y259062D01*
Y263888D02*
Y268460D01*
Y273540D02*
Y278112D01*
Y282938D02*
Y285478D01*
X280874Y256522D02*
Y259062D01*
D56*
X396000Y261742D02*
G03*
X396000Y261742I-750J0D01*
G01*
X380750Y255492D02*
G03*
X380750Y260992I0J2750D01*
G01*
X396000Y261742D02*
G03*
X396000Y261742I-750J0D01*
G01*
X380750Y255492D02*
G03*
X380750Y260992I0J2750D01*
G01*
D57*
X396998Y261242D02*
G03*
X396998Y255242I262J-3000D01*
G01*
Y261242D02*
G03*
X396998Y255242I262J-3000D01*
G01*
X482440Y229680D02*
X489560D01*
X482440Y238190D02*
X489560D01*
X482440Y229680D02*
X489560D01*
X482440Y238190D02*
X489560D01*
X482440Y253680D02*
X489560D01*
X482440Y262190D02*
X489560D01*
X482440Y253680D02*
X489560D01*
X482440Y262190D02*
X489560D01*
X385500Y254242D02*
X392500D01*
X385500Y262242D02*
X392750D01*
X385500Y254242D02*
X392500D01*
X385500Y262242D02*
X392750D01*
X192130Y307580D02*
X199250D01*
X192130Y316090D02*
X199250D01*
X192130Y307580D02*
X199250D01*
X192130Y316090D02*
X199250D01*
X275228Y307580D02*
X282348D01*
X275228Y316090D02*
X282348D01*
X275228Y307580D02*
X282348D01*
X275228Y316090D02*
X282348D01*
X482440Y369810D02*
X489560D01*
X482440Y378320D02*
X489560D01*
X482440Y369810D02*
X489560D01*
X482440Y378320D02*
X489560D01*
X482440Y392810D02*
X489560D01*
X482440Y401320D02*
X489560D01*
X482440Y392810D02*
X489560D01*
X482440Y401320D02*
X489560D01*
X968440Y832680D02*
X975560D01*
X968440Y841190D02*
X975560D01*
X968440Y832680D02*
X975560D01*
X968440Y841190D02*
X975560D01*
X968440Y874013D02*
X975560D01*
X968440Y882523D02*
X975560D01*
X968440Y874013D02*
X975560D01*
X968440Y882523D02*
X975560D01*
X968440Y915347D02*
X975560D01*
X968440Y923857D02*
X975560D01*
X968440Y915347D02*
X975560D01*
X968440Y923857D02*
X975560D01*
X968440Y956680D02*
X975560D01*
X968440Y965190D02*
X975560D01*
X968440Y956680D02*
X975560D01*
X968440Y965190D02*
X975560D01*
X968440Y159680D02*
X975560D01*
X968440Y168190D02*
X975560D01*
X968440Y159680D02*
X975560D01*
X968440Y168190D02*
X975560D01*
X968440Y118180D02*
X975560D01*
X968440Y126690D02*
X975560D01*
X968440Y118180D02*
X975560D01*
X968440Y126690D02*
X975560D01*
X968440Y76680D02*
X975560D01*
X968440Y85190D02*
X975560D01*
X968440Y76680D02*
X975560D01*
X968440Y85190D02*
X975560D01*
X968440Y35180D02*
X975560D01*
X968440Y43690D02*
X975560D01*
X968440Y35180D02*
X975560D01*
X968440Y43690D02*
X975560D01*
X18940Y76347D02*
X26060D01*
X18940Y84857D02*
X26060D01*
X18940Y76347D02*
X26060D01*
X18940Y84857D02*
X26060D01*
X18940Y118013D02*
X26060D01*
X18940Y126523D02*
X26060D01*
X18940Y118013D02*
X26060D01*
X18940Y126523D02*
X26060D01*
X18940Y832180D02*
X26060D01*
X18940Y840690D02*
X26060D01*
X18940Y832180D02*
X26060D01*
X18940Y840690D02*
X26060D01*
X18940Y956243D02*
X26060D01*
X18940Y964753D02*
X26060D01*
X18940Y956243D02*
X26060D01*
X18940Y964753D02*
X26060D01*
X18940Y914889D02*
X26060D01*
X18940Y923399D02*
X26060D01*
X18940Y914889D02*
X26060D01*
X18940Y923399D02*
X26060D01*
X18940Y873534D02*
X26060D01*
X18940Y882044D02*
X26060D01*
X18940Y873534D02*
X26060D01*
X18940Y882044D02*
X26060D01*
X18940Y159680D02*
X26060D01*
X18940Y168190D02*
X26060D01*
X18940Y159680D02*
X26060D01*
X18940Y168190D02*
X26060D01*
X18940Y34680D02*
X26060D01*
X18940Y43190D02*
X26060D01*
X18940Y34680D02*
X26060D01*
X18940Y43190D02*
X26060D01*
M02*
