G04*
G04 #@! TF.GenerationSoftware,Altium Limited,Altium Designer,21.0.9 (235)*
G04*
G04 Layer_Color=32768*
%FSLAX44Y44*%
%MOMM*%
G71*
G04*
G04 #@! TF.SameCoordinates,FCB3D206-118C-4BCE-AE63-394E7735AD57*
G04*
G04*
G04 #@! TF.FilePolarity,Positive*
G04*
G01*
G75*
%ADD58C,0.1000*%
%ADD59C,0.0500*%
D58*
X377000Y334900D02*
Y345900D01*
X401000Y334900D02*
Y345900D01*
X377000D02*
X401000D01*
X377000Y334900D02*
X401000D01*
X384250Y340400D02*
X393750D01*
X389000Y335650D02*
Y345150D01*
X336000Y252500D02*
Y263500D01*
X360000Y252500D02*
Y263500D01*
X336000D02*
X360000D01*
X336000Y252500D02*
X360000D01*
X343250Y258000D02*
X352750D01*
X348000Y253250D02*
Y262750D01*
X183690Y276900D02*
Y287900D01*
X207690Y276900D02*
Y287900D01*
X183690D02*
X207690D01*
X183690Y276900D02*
X207690D01*
X190940Y282400D02*
X200440D01*
X195690Y277650D02*
Y287150D01*
X183690Y334900D02*
Y345900D01*
X207690Y334900D02*
Y345900D01*
X183690D02*
X207690D01*
X183690Y334900D02*
X207690D01*
X190940Y340400D02*
X200440D01*
X195690Y335650D02*
Y345150D01*
X292288Y334900D02*
Y345900D01*
X268288Y334900D02*
Y345900D01*
Y334900D02*
X292288D01*
X268288Y345900D02*
X292288D01*
X275538Y340400D02*
X285038D01*
X280288Y335650D02*
Y345150D01*
X292288Y368500D02*
Y379500D01*
X268288Y368500D02*
Y379500D01*
Y368500D02*
X292288D01*
X268288Y379500D02*
X292288D01*
X275538Y374000D02*
X285038D01*
X280288Y369250D02*
Y378750D01*
X336000Y306400D02*
Y317400D01*
X360000Y306400D02*
Y317400D01*
X336000D02*
X360000D01*
X336000Y306400D02*
X360000D01*
X343250Y311900D02*
X352750D01*
X348000Y307150D02*
Y316650D01*
X336000Y276900D02*
Y287900D01*
X360000Y276900D02*
Y287900D01*
X336000D02*
X360000D01*
X336000Y276900D02*
X360000D01*
X343250Y282400D02*
X352750D01*
X348000Y277650D02*
Y287150D01*
X336000Y334900D02*
Y345900D01*
X360000Y334900D02*
Y345900D01*
X336000D02*
X360000D01*
X336000Y334900D02*
X360000D01*
X343250Y340400D02*
X352750D01*
X348000Y335650D02*
Y345150D01*
X336000Y368500D02*
Y379500D01*
X360000Y368500D02*
Y379500D01*
X336000D02*
X360000D01*
X336000Y368500D02*
X360000D01*
X343250Y374000D02*
X352750D01*
X348000Y369250D02*
Y378750D01*
D59*
X899500Y829500D02*
Y898500D01*
X954500D01*
Y829500D02*
Y898500D01*
X899500Y829500D02*
X954500D01*
X899500Y32000D02*
Y101000D01*
X954500D01*
Y32000D02*
Y101000D01*
X899500Y32000D02*
X954500D01*
X44500Y102500D02*
Y171500D01*
X99500D01*
Y102500D02*
Y171500D01*
X44500Y102500D02*
X99500D01*
X44500Y829000D02*
Y898000D01*
X99500D01*
Y829000D02*
Y898000D01*
X44500Y829000D02*
X99500D01*
X103500Y31500D02*
Y100500D01*
X158500D01*
Y31500D02*
Y100500D01*
X103500Y31500D02*
X158500D01*
X44500D02*
Y100500D01*
X99500D01*
Y31500D02*
Y100500D01*
X44500Y31500D02*
X99500D01*
X103030Y829000D02*
Y898000D01*
X158030D01*
Y829000D02*
Y898000D01*
X103030Y829000D02*
X158030D01*
X103030Y899063D02*
Y968063D01*
X158030D01*
Y899063D02*
Y968063D01*
X103030Y899063D02*
X158030D01*
X842500Y829500D02*
Y898500D01*
X897500D01*
Y829500D02*
Y898500D01*
X842500Y829500D02*
X897500D01*
X842500Y102500D02*
Y171500D01*
X897500D01*
Y102500D02*
Y171500D01*
X842500Y102500D02*
X897500D01*
X44500Y899063D02*
Y968063D01*
X99500D01*
Y899063D02*
Y968063D01*
X44500Y899063D02*
X99500D01*
X899500Y102500D02*
Y171500D01*
X954500D01*
Y102500D02*
Y171500D01*
X899500Y102500D02*
X954500D01*
X842500Y32000D02*
Y101000D01*
X897500D01*
Y32000D02*
Y101000D01*
X842500Y32000D02*
X897500D01*
X842500Y899500D02*
Y968500D01*
X897500D01*
Y899500D02*
Y968500D01*
X842500Y899500D02*
X897500D01*
X899500D02*
Y968500D01*
X954500D01*
Y899500D02*
Y968500D01*
X899500Y899500D02*
X954500D01*
X103500Y102500D02*
Y171500D01*
X158500D01*
Y102500D02*
Y171500D01*
X103500Y102500D02*
X158500D01*
M02*
