G04*
G04 #@! TF.GenerationSoftware,Altium Limited,Altium Designer,21.0.9 (235)*
G04*
G04 Layer_Color=16711935*
%FSLAX44Y44*%
%MOMM*%
G71*
G04*
G04 #@! TF.SameCoordinates,FCB3D206-118C-4BCE-AE63-394E7735AD57*
G04*
G04*
G04 #@! TF.FilePolarity,Negative*
G04*
G01*
G75*
%ADD44R,3.7032X1.4032*%
G04:AMPARAMS|DCode=45|XSize=1.4032mm|YSize=3.7032mm|CornerRadius=0.4016mm|HoleSize=0mm|Usage=FLASHONLY|Rotation=90.000|XOffset=0mm|YOffset=0mm|HoleType=Round|Shape=RoundedRectangle|*
%AMROUNDEDRECTD45*
21,1,1.4032,2.9000,0,0,90.0*
21,1,0.6000,3.7032,0,0,90.0*
1,1,0.8032,1.4500,0.3000*
1,1,0.8032,1.4500,-0.3000*
1,1,0.8032,-1.4500,-0.3000*
1,1,0.8032,-1.4500,0.3000*
%
%ADD45ROUNDEDRECTD45*%
%ADD49C,4.2032*%
%ADD50C,1.4732*%
%ADD55C,1.1032*%
D44*
X953984Y499598D02*
D03*
Y474198D02*
D03*
X46016Y500401D02*
D03*
Y525801D02*
D03*
D45*
X953984Y524998D02*
D03*
X46016Y475001D02*
D03*
D49*
X498000Y501000D02*
D03*
X500000Y900000D02*
D03*
Y100000D02*
D03*
X900000Y500000D02*
D03*
X100000D02*
D03*
D50*
X953984Y475002D02*
D03*
Y500402D02*
D03*
Y525802D02*
D03*
X46016Y474198D02*
D03*
Y499598D02*
D03*
Y524998D02*
D03*
D55*
X551500Y293150D02*
D03*
Y305650D02*
D03*
Y318150D02*
D03*
Y330650D02*
D03*
M02*
