G04*
G04 #@! TF.GenerationSoftware,Altium Limited,Altium Designer,21.0.9 (235)*
G04*
G04 Layer_Color=16711935*
%FSLAX44Y44*%
%MOMM*%
G71*
G04*
G04 #@! TF.SameCoordinates,FCB3D206-118C-4BCE-AE63-394E7735AD57*
G04*
G04*
G04 #@! TF.FilePolarity,Positive*
G04*
G01*
G75*
%ADD10C,0.1270*%
%ADD58C,0.1000*%
D10*
X902000Y839000D02*
Y889000D01*
X952000D01*
Y839000D02*
Y889000D01*
X902000Y839000D02*
X952000D01*
X902000Y41500D02*
Y91500D01*
X952000D01*
Y41500D02*
Y91500D01*
X902000Y41500D02*
X952000D01*
X47000Y112000D02*
Y162000D01*
X97000D01*
Y112000D02*
Y162000D01*
X47000Y112000D02*
X97000D01*
X47000Y838500D02*
Y888500D01*
X97000D01*
Y838500D02*
Y888500D01*
X47000Y838500D02*
X97000D01*
X106000Y41000D02*
Y91000D01*
X156000D01*
Y41000D02*
Y91000D01*
X106000Y41000D02*
X156000D01*
X47000D02*
Y91000D01*
X97000D01*
Y41000D02*
Y91000D01*
X47000Y41000D02*
X97000D01*
X105530Y838500D02*
Y888500D01*
X155530D01*
Y838500D02*
Y888500D01*
X105530Y838500D02*
X155530D01*
X105530Y908563D02*
Y958563D01*
X155530D01*
Y908563D02*
Y958563D01*
X105530Y908563D02*
X155530D01*
X845000Y839000D02*
Y889000D01*
X895000D01*
Y839000D02*
Y889000D01*
X845000Y839000D02*
X895000D01*
X845000Y112000D02*
Y162000D01*
X895000D01*
Y112000D02*
Y162000D01*
X845000Y112000D02*
X895000D01*
X47000Y908563D02*
Y958563D01*
X97000D01*
Y908563D02*
Y958563D01*
X47000Y908563D02*
X97000D01*
X902000Y112000D02*
Y162000D01*
X952000D01*
Y112000D02*
Y162000D01*
X902000Y112000D02*
X952000D01*
X845000Y41500D02*
Y91500D01*
X895000D01*
Y41500D02*
Y91500D01*
X845000Y41500D02*
X895000D01*
X845000Y909000D02*
Y959000D01*
X895000D01*
Y909000D02*
Y959000D01*
X845000Y909000D02*
X895000D01*
X902000D02*
Y959000D01*
X952000D01*
Y909000D02*
Y959000D01*
X902000Y909000D02*
X952000D01*
X106000Y112000D02*
Y162000D01*
X156000D01*
Y112000D02*
Y162000D01*
X106000Y112000D02*
X156000D01*
D58*
X380500Y335650D02*
Y345150D01*
X397500Y335650D02*
Y345150D01*
X380500D02*
X397500D01*
X380500Y335650D02*
X397500D01*
X339500Y253250D02*
Y262750D01*
X356500Y253250D02*
Y262750D01*
X339500D02*
X356500D01*
X339500Y253250D02*
X356500D01*
X187190Y277650D02*
Y287150D01*
X204190Y277650D02*
Y287150D01*
X187190D02*
X204190D01*
X187190Y277650D02*
X204190D01*
X187190Y335650D02*
Y345150D01*
X204190Y335650D02*
Y345150D01*
X187190D02*
X204190D01*
X187190Y335650D02*
X204190D01*
X288788D02*
Y345150D01*
X271788Y335650D02*
Y345150D01*
Y335650D02*
X288788D01*
X271788Y345150D02*
X288788D01*
X288788Y369250D02*
Y378750D01*
X271788Y369250D02*
Y378750D01*
Y369250D02*
X288788D01*
X271788Y378750D02*
X288788D01*
X339500Y307150D02*
Y316650D01*
X356500Y307150D02*
Y316650D01*
X339500D02*
X356500D01*
X339500Y307150D02*
X356500D01*
X339500Y277650D02*
Y287150D01*
X356500Y277650D02*
Y287150D01*
X339500D02*
X356500D01*
X339500Y277650D02*
X356500D01*
X339500Y335650D02*
Y345150D01*
X356500Y335650D02*
Y345150D01*
X339500D02*
X356500D01*
X339500Y335650D02*
X356500D01*
X339500Y369250D02*
Y378750D01*
X356500Y369250D02*
Y378750D01*
X339500D02*
X356500D01*
X339500Y369250D02*
X356500D01*
M02*
