G04*
G04 #@! TF.GenerationSoftware,Altium Limited,Altium Designer,21.0.9 (235)*
G04*
G04 Layer_Color=16711935*
%FSLAX44Y44*%
%MOMM*%
G71*
G04*
G04 #@! TF.SameCoordinates,AA81A0FA-95E4-4F73-B0ED-74EEBE05634C*
G04*
G04*
G04 #@! TF.FilePolarity,Negative*
G04*
G01*
G75*
G04:AMPARAMS|DCode=39|XSize=1.4032mm|YSize=3.7032mm|CornerRadius=0.4016mm|HoleSize=0mm|Usage=FLASHONLY|Rotation=0.000|XOffset=0mm|YOffset=0mm|HoleType=Round|Shape=RoundedRectangle|*
%AMROUNDEDRECTD39*
21,1,1.4032,2.9000,0,0,0.0*
21,1,0.6000,3.7032,0,0,0.0*
1,1,0.8032,0.3000,-1.4500*
1,1,0.8032,-0.3000,-1.4500*
1,1,0.8032,-0.3000,1.4500*
1,1,0.8032,0.3000,1.4500*
%
%ADD39ROUNDEDRECTD39*%
%ADD40R,1.4032X3.7032*%
G04:AMPARAMS|DCode=42|XSize=1.4032mm|YSize=3.7032mm|CornerRadius=0.4016mm|HoleSize=0mm|Usage=FLASHONLY|Rotation=270.000|XOffset=0mm|YOffset=0mm|HoleType=Round|Shape=RoundedRectangle|*
%AMROUNDEDRECTD42*
21,1,1.4032,2.9000,0,0,270.0*
21,1,0.6000,3.7032,0,0,270.0*
1,1,0.8032,-1.4500,-0.3000*
1,1,0.8032,-1.4500,0.3000*
1,1,0.8032,1.4500,0.3000*
1,1,0.8032,1.4500,-0.3000*
%
%ADD42ROUNDEDRECTD42*%
%ADD43R,3.7032X1.4032*%
%ADD53C,4.2032*%
%ADD62C,1.1032*%
D39*
X524999Y20278D02*
D03*
X475001Y979722D02*
D03*
D40*
X499599Y20278D02*
D03*
X474198D02*
D03*
X500401Y979722D02*
D03*
X525802D02*
D03*
D42*
X20016Y475001D02*
D03*
X979984Y524998D02*
D03*
D43*
X20016Y525801D02*
D03*
Y500401D02*
D03*
X979984Y474198D02*
D03*
Y499598D02*
D03*
D53*
X100000Y500000D02*
D03*
X498000Y501000D02*
D03*
X500000Y900000D02*
D03*
Y100000D02*
D03*
X900000Y500000D02*
D03*
D62*
X706500Y314650D02*
D03*
Y302150D02*
D03*
Y289650D02*
D03*
Y277150D02*
D03*
M02*
