G04*
G04 #@! TF.GenerationSoftware,Altium Limited,Altium Designer,21.0.9 (235)*
G04*
G04 Layer_Color=8388736*
%FSLAX44Y44*%
%MOMM*%
G71*
G04*
G04 #@! TF.SameCoordinates,AA81A0FA-95E4-4F73-B0ED-74EEBE05634C*
G04*
G04*
G04 #@! TF.FilePolarity,Negative*
G04*
G01*
G75*
%ADD37R,1.2032X1.7032*%
G04:AMPARAMS|DCode=38|XSize=1.7032mm|YSize=1.2032mm|CornerRadius=0.3516mm|HoleSize=0mm|Usage=FLASHONLY|Rotation=90.000|XOffset=0mm|YOffset=0mm|HoleType=Round|Shape=RoundedRectangle|*
%AMROUNDEDRECTD38*
21,1,1.7032,0.5000,0,0,90.0*
21,1,1.0000,1.2032,0,0,90.0*
1,1,0.7032,0.2500,0.5000*
1,1,0.7032,0.2500,-0.5000*
1,1,0.7032,-0.2500,-0.5000*
1,1,0.7032,-0.2500,0.5000*
%
%ADD38ROUNDEDRECTD38*%
G04:AMPARAMS|DCode=39|XSize=1.4032mm|YSize=3.7032mm|CornerRadius=0.4016mm|HoleSize=0mm|Usage=FLASHONLY|Rotation=0.000|XOffset=0mm|YOffset=0mm|HoleType=Round|Shape=RoundedRectangle|*
%AMROUNDEDRECTD39*
21,1,1.4032,2.9000,0,0,0.0*
21,1,0.6000,3.7032,0,0,0.0*
1,1,0.8032,0.3000,-1.4500*
1,1,0.8032,-0.3000,-1.4500*
1,1,0.8032,-0.3000,1.4500*
1,1,0.8032,0.3000,1.4500*
%
%ADD39ROUNDEDRECTD39*%
%ADD40R,1.4032X3.7032*%
%ADD41R,1.0032X1.2032*%
G04:AMPARAMS|DCode=42|XSize=1.4032mm|YSize=3.7032mm|CornerRadius=0.4016mm|HoleSize=0mm|Usage=FLASHONLY|Rotation=270.000|XOffset=0mm|YOffset=0mm|HoleType=Round|Shape=RoundedRectangle|*
%AMROUNDEDRECTD42*
21,1,1.4032,2.9000,0,0,270.0*
21,1,0.6000,3.7032,0,0,270.0*
1,1,0.8032,-1.4500,-0.3000*
1,1,0.8032,-1.4500,0.3000*
1,1,0.8032,1.4500,0.3000*
1,1,0.8032,1.4500,-0.3000*
%
%ADD42ROUNDEDRECTD42*%
%ADD43R,3.7032X1.4032*%
%ADD44R,0.9032X1.1032*%
%ADD45R,1.5832X2.0232*%
%ADD46R,1.5240X0.7620*%
%ADD47R,1.0032X1.0032*%
%ADD48R,1.2832X0.4632*%
%ADD49R,0.4632X1.2832*%
%ADD50R,3.2032X3.2032*%
%ADD51R,2.2032X0.6032*%
%ADD52C,2.2032*%
%ADD53C,4.2032*%
%ADD54R,1.9032X0.9032*%
D37*
X88000Y839000D02*
D03*
Y888000D02*
D03*
X56000D02*
D03*
X146530Y839000D02*
D03*
Y888000D02*
D03*
X114530D02*
D03*
X146530Y909063D02*
D03*
Y958063D02*
D03*
X114530D02*
D03*
X88000Y909063D02*
D03*
Y958063D02*
D03*
X56000D02*
D03*
X854000Y958500D02*
D03*
X886000D02*
D03*
Y909500D02*
D03*
X911000Y958500D02*
D03*
X943000D02*
D03*
Y909500D02*
D03*
X56000Y161500D02*
D03*
X88000D02*
D03*
Y112500D02*
D03*
X115000Y161500D02*
D03*
X147000D02*
D03*
Y112500D02*
D03*
X56000Y90500D02*
D03*
X88000D02*
D03*
Y41500D02*
D03*
X115000Y90500D02*
D03*
X147000D02*
D03*
Y41500D02*
D03*
X854000Y161500D02*
D03*
X886000D02*
D03*
Y112500D02*
D03*
X911000Y161500D02*
D03*
X943000D02*
D03*
Y112500D02*
D03*
X854000Y91000D02*
D03*
X886000D02*
D03*
Y42000D02*
D03*
X911000Y91000D02*
D03*
X943000D02*
D03*
Y42000D02*
D03*
X854000Y888500D02*
D03*
X886000D02*
D03*
Y839500D02*
D03*
X911000Y888500D02*
D03*
X943000D02*
D03*
Y839500D02*
D03*
D38*
X56000Y839000D02*
D03*
X114530D02*
D03*
Y909063D02*
D03*
X56000D02*
D03*
X854000Y909500D02*
D03*
X911000D02*
D03*
X56000Y112500D02*
D03*
X115000D02*
D03*
X56000Y41500D02*
D03*
X115000D02*
D03*
X854000Y112500D02*
D03*
X911000D02*
D03*
X854000Y42000D02*
D03*
X911000D02*
D03*
X854000Y839500D02*
D03*
X911000D02*
D03*
D39*
X475002Y20278D02*
D03*
X524998Y979722D02*
D03*
D40*
X525802Y20278D02*
D03*
X500402D02*
D03*
X474198Y979722D02*
D03*
X499598D02*
D03*
D41*
X812500Y864000D02*
D03*
X829500D02*
D03*
X972500D02*
D03*
X989500D02*
D03*
X812500Y934000D02*
D03*
X829500D02*
D03*
X972500D02*
D03*
X989500D02*
D03*
X14500Y137000D02*
D03*
X31500D02*
D03*
X174500D02*
D03*
X191500D02*
D03*
X14500Y66000D02*
D03*
X31500D02*
D03*
X174500D02*
D03*
X191500D02*
D03*
X342190Y295900D02*
D03*
X359190D02*
D03*
X632500Y381000D02*
D03*
X649500D02*
D03*
X632500Y242000D02*
D03*
X649500D02*
D03*
X632500Y218000D02*
D03*
X649500D02*
D03*
X425288Y295900D02*
D03*
X442288D02*
D03*
X632500Y358000D02*
D03*
X649500D02*
D03*
X812500Y137000D02*
D03*
X829500D02*
D03*
X972500D02*
D03*
X989500D02*
D03*
X812500Y66500D02*
D03*
X829500D02*
D03*
X972500D02*
D03*
X989500D02*
D03*
X14500Y863500D02*
D03*
X31500D02*
D03*
X174500D02*
D03*
X191500D02*
D03*
X14500Y933563D02*
D03*
X31500D02*
D03*
X174500D02*
D03*
X191500D02*
D03*
D42*
X20016Y524998D02*
D03*
X979984Y475002D02*
D03*
D43*
X20016Y474198D02*
D03*
Y499598D02*
D03*
X979984Y525802D02*
D03*
Y500402D02*
D03*
D44*
X358190Y324400D02*
D03*
X343190D02*
D03*
X358190Y266400D02*
D03*
X343190D02*
D03*
X510500D02*
D03*
X495500D02*
D03*
X510500Y242000D02*
D03*
X495500D02*
D03*
X510500Y295900D02*
D03*
X495500D02*
D03*
X551500Y324400D02*
D03*
X536500D02*
D03*
X510500D02*
D03*
X495500D02*
D03*
X510500Y358000D02*
D03*
X495500D02*
D03*
X427788Y358000D02*
D03*
X442788D02*
D03*
X427788Y324400D02*
D03*
X442788D02*
D03*
D45*
X337000Y242000D02*
D03*
X364380D02*
D03*
X337000Y358000D02*
D03*
X364380D02*
D03*
D46*
X416316Y264398D02*
D03*
Y255000D02*
D03*
Y245602D02*
D03*
X439684D02*
D03*
Y264398D02*
D03*
D47*
X551500Y242242D02*
D03*
X536500D02*
D03*
D48*
X599850Y315900D02*
D03*
Y310900D02*
D03*
Y305900D02*
D03*
Y300900D02*
D03*
Y295900D02*
D03*
Y290900D02*
D03*
Y285900D02*
D03*
Y280900D02*
D03*
Y275900D02*
D03*
X656150D02*
D03*
Y280900D02*
D03*
Y285900D02*
D03*
Y290900D02*
D03*
Y295900D02*
D03*
Y300900D02*
D03*
Y305900D02*
D03*
Y310900D02*
D03*
Y315900D02*
D03*
D49*
X613000Y267750D02*
D03*
X618000D02*
D03*
X623000D02*
D03*
X628000D02*
D03*
X633000D02*
D03*
X638000D02*
D03*
X643000D02*
D03*
X648000D02*
D03*
Y324050D02*
D03*
X643000D02*
D03*
X638000D02*
D03*
X633000D02*
D03*
X628000D02*
D03*
X623000D02*
D03*
X618000D02*
D03*
X613000D02*
D03*
X608000Y267750D02*
D03*
Y324050D02*
D03*
D50*
X628000Y295900D02*
D03*
D51*
X568000Y282766D02*
D03*
Y294766D02*
D03*
Y306766D02*
D03*
D52*
X403990Y384000D02*
D03*
X354980D02*
D03*
X502100D02*
D03*
X453000D02*
D03*
D53*
X100000Y500000D02*
D03*
X498000Y501000D02*
D03*
X500000Y900000D02*
D03*
Y100000D02*
D03*
X900000Y500000D02*
D03*
D54*
X706500Y314650D02*
D03*
Y302150D02*
D03*
Y289650D02*
D03*
Y277150D02*
D03*
M02*
