G04*
G04 #@! TF.GenerationSoftware,Altium Limited,Altium Designer,21.0.9 (235)*
G04*
G04 Layer_Color=32768*
%FSLAX44Y44*%
%MOMM*%
G71*
G04*
G04 #@! TF.SameCoordinates,AA81A0FA-95E4-4F73-B0ED-74EEBE05634C*
G04*
G04*
G04 #@! TF.FilePolarity,Positive*
G04*
G01*
G75*
%ADD13C,0.5000*%
%ADD65C,0.1000*%
%ADD66C,0.0500*%
D13*
X498000Y104828D02*
G03*
X500000Y100000I6828J0D01*
G01*
D65*
X350690Y319650D02*
Y329150D01*
X345940Y324400D02*
X355440D01*
X338690Y318900D02*
X362690D01*
X338690Y329900D02*
X362690D01*
Y318900D02*
Y329900D01*
X338690Y318900D02*
Y329900D01*
X350690Y261650D02*
Y271150D01*
X345940Y266400D02*
X355440D01*
X338690Y260900D02*
X362690D01*
X338690Y271900D02*
X362690D01*
Y260900D02*
Y271900D01*
X338690Y260900D02*
Y271900D01*
X503000Y261650D02*
Y271150D01*
X498250Y266400D02*
X507750D01*
X491000Y260900D02*
X515000D01*
X491000Y271900D02*
X515000D01*
Y260900D02*
Y271900D01*
X491000Y260900D02*
Y271900D01*
X503000Y237250D02*
Y246750D01*
X498250Y242000D02*
X507750D01*
X491000Y236500D02*
X515000D01*
X491000Y247500D02*
X515000D01*
Y236500D02*
Y247500D01*
X491000Y236500D02*
Y247500D01*
X503000Y291150D02*
Y300650D01*
X498250Y295900D02*
X507750D01*
X491000Y290400D02*
X515000D01*
X491000Y301400D02*
X515000D01*
Y290400D02*
Y301400D01*
X491000Y290400D02*
Y301400D01*
X544000Y319650D02*
Y329150D01*
X539250Y324400D02*
X548750D01*
X532000Y318900D02*
X556000D01*
X532000Y329900D02*
X556000D01*
Y318900D02*
Y329900D01*
X532000Y318900D02*
Y329900D01*
X503000Y319650D02*
Y329150D01*
X498250Y324400D02*
X507750D01*
X491000Y318900D02*
X515000D01*
X491000Y329900D02*
X515000D01*
Y318900D02*
Y329900D01*
X491000Y318900D02*
Y329900D01*
X503000Y353250D02*
Y362750D01*
X498250Y358000D02*
X507750D01*
X491000Y352500D02*
X515000D01*
X491000Y363500D02*
X515000D01*
Y352500D02*
Y363500D01*
X491000Y352500D02*
Y363500D01*
X435288Y353250D02*
Y362750D01*
X430538Y358000D02*
X440038D01*
X423288Y363500D02*
X447288D01*
X423288Y352500D02*
X447288D01*
X423288D02*
Y363500D01*
X447288Y352500D02*
Y363500D01*
X435288Y319650D02*
Y329150D01*
X430538Y324400D02*
X440038D01*
X423288Y329900D02*
X447288D01*
X423288Y318900D02*
X447288D01*
X423288D02*
Y329900D01*
X447288Y318900D02*
Y329900D01*
D66*
X44500Y829000D02*
Y898000D01*
X99500D01*
Y829000D02*
Y898000D01*
X44500Y829000D02*
X99500D01*
X103030D02*
Y898000D01*
X158030D01*
Y829000D02*
Y898000D01*
X103030Y829000D02*
X158030D01*
X103030Y899063D02*
Y968063D01*
X158030D01*
Y899063D02*
Y968063D01*
X103030Y899063D02*
X158030D01*
X44500D02*
Y968063D01*
X99500D01*
Y899063D02*
Y968063D01*
X44500Y899063D02*
X99500D01*
X842500Y899500D02*
X897500D01*
Y968500D01*
X842500D02*
X897500D01*
X842500Y899500D02*
Y968500D01*
X899500Y899500D02*
X954500D01*
Y968500D01*
X899500D02*
X954500D01*
X899500Y899500D02*
Y968500D01*
X44500Y102500D02*
X99500D01*
Y171500D01*
X44500D02*
X99500D01*
X44500Y102500D02*
Y171500D01*
X103500Y102500D02*
X158500D01*
Y171500D01*
X103500D02*
X158500D01*
X103500Y102500D02*
Y171500D01*
X44500Y31500D02*
X99500D01*
Y100500D01*
X44500D02*
X99500D01*
X44500Y31500D02*
Y100500D01*
X103500Y31500D02*
X158500D01*
Y100500D01*
X103500D02*
X158500D01*
X103500Y31500D02*
Y100500D01*
X842500Y102500D02*
X897500D01*
Y171500D01*
X842500D02*
X897500D01*
X842500Y102500D02*
Y171500D01*
X899500Y102500D02*
X954500D01*
Y171500D01*
X899500D02*
X954500D01*
X899500Y102500D02*
Y171500D01*
X842500Y32000D02*
X897500D01*
Y101000D01*
X842500D02*
X897500D01*
X842500Y32000D02*
Y101000D01*
X899500Y32000D02*
X954500D01*
Y101000D01*
X899500D02*
X954500D01*
X899500Y32000D02*
Y101000D01*
X842500Y829500D02*
X897500D01*
Y898500D01*
X842500D02*
X897500D01*
X842500Y829500D02*
Y898500D01*
X899500Y829500D02*
X954500D01*
Y898500D01*
X899500D02*
X954500D01*
X899500Y829500D02*
Y898500D01*
M02*
