G04*
G04 #@! TF.GenerationSoftware,Altium Limited,Altium Designer,21.0.9 (235)*
G04*
G04 Layer_Color=8421504*
%FSLAX44Y44*%
%MOMM*%
G71*
G04*
G04 #@! TF.SameCoordinates,63E583B4-6D5A-4616-B716-78796777933C*
G04*
G04*
G04 #@! TF.FilePolarity,Positive*
G04*
G01*
G75*
%ADD21R,1.0000X2.7000*%
%ADD22R,0.6000X1.7000*%
%ADD23C,2.0000*%
%ADD24R,0.7000X0.9000*%
%ADD25R,0.8000X1.0000*%
%ADD26R,0.2600X1.0800*%
%ADD27R,3.0000X3.0000*%
%ADD28R,1.0800X0.2600*%
%ADD29R,1.0000X0.8000*%
%ADD30R,0.3000X0.5250*%
%ADD31R,1.0000X1.5000*%
G04:AMPARAMS|DCode=32|XSize=1.5mm|YSize=1mm|CornerRadius=0.25mm|HoleSize=0mm|Usage=FLASHONLY|Rotation=90.000|XOffset=0mm|YOffset=0mm|HoleType=Round|Shape=RoundedRectangle|*
%AMROUNDEDRECTD32*
21,1,1.5000,0.5000,0,0,90.0*
21,1,1.0000,1.0000,0,0,90.0*
1,1,0.5000,0.2500,0.5000*
1,1,0.5000,0.2500,-0.5000*
1,1,0.5000,-0.2500,-0.5000*
1,1,0.5000,-0.2500,0.5000*
%
%ADD32ROUNDEDRECTD32*%
G04:AMPARAMS|DCode=33|XSize=1.2mm|YSize=3.5mm|CornerRadius=0.3mm|HoleSize=0mm|Usage=FLASHONLY|Rotation=0.000|XOffset=0mm|YOffset=0mm|HoleType=Round|Shape=RoundedRectangle|*
%AMROUNDEDRECTD33*
21,1,1.2000,2.9000,0,0,0.0*
21,1,0.6000,3.5000,0,0,0.0*
1,1,0.6000,0.3000,-1.4500*
1,1,0.6000,-0.3000,-1.4500*
1,1,0.6000,-0.3000,1.4500*
1,1,0.6000,0.3000,1.4500*
%
%ADD33ROUNDEDRECTD33*%
%ADD34R,1.2000X3.5000*%
G04:AMPARAMS|DCode=35|XSize=1.2mm|YSize=3.5mm|CornerRadius=0.3mm|HoleSize=0mm|Usage=FLASHONLY|Rotation=270.000|XOffset=0mm|YOffset=0mm|HoleType=Round|Shape=RoundedRectangle|*
%AMROUNDEDRECTD35*
21,1,1.2000,2.9000,0,0,270.0*
21,1,0.6000,3.5000,0,0,270.0*
1,1,0.6000,-1.4500,-0.3000*
1,1,0.6000,-1.4500,0.3000*
1,1,0.6000,1.4500,0.3000*
1,1,0.6000,1.4500,-0.3000*
%
%ADD35ROUNDEDRECTD35*%
%ADD36R,3.5000X1.2000*%
%ADD37R,1.3800X1.8200*%
%ADD38R,1.3208X0.5588*%
%ADD39R,0.8000X0.8000*%
%ADD40R,2.0000X0.4000*%
G36*
X615730Y307600D02*
X639700D01*
Y283630D01*
X615730D01*
Y307600D01*
D02*
G37*
G36*
X673700Y256593D02*
X684700D01*
Y250093D01*
X673700D01*
Y256593D01*
D02*
G37*
D21*
X346150Y18950D02*
D03*
X271650D02*
D03*
D22*
X327650Y50950D02*
D03*
X315150D02*
D03*
X290150D02*
D03*
X302650D02*
D03*
D23*
X403990Y171200D02*
D03*
X453000D02*
D03*
X403990Y384000D02*
D03*
X354980D02*
D03*
X502100D02*
D03*
X453000D02*
D03*
D24*
X671868Y218000D02*
D03*
X686868D02*
D03*
X358190Y324400D02*
D03*
X343190D02*
D03*
X358190Y266400D02*
D03*
X343190D02*
D03*
X510500D02*
D03*
X495500D02*
D03*
X510500Y242000D02*
D03*
X495500D02*
D03*
X510500Y295900D02*
D03*
X495500D02*
D03*
X551500Y324400D02*
D03*
X536500D02*
D03*
X510500D02*
D03*
X495500D02*
D03*
X510500Y358000D02*
D03*
X495500D02*
D03*
X427788Y358000D02*
D03*
X442788D02*
D03*
X427788Y324400D02*
D03*
X442788D02*
D03*
D25*
X712318Y218000D02*
D03*
X729318D02*
D03*
X649500D02*
D03*
X632500D02*
D03*
X649500Y242000D02*
D03*
X632500D02*
D03*
X989500Y934000D02*
D03*
X972500D02*
D03*
X989500Y864000D02*
D03*
X972500D02*
D03*
X812500D02*
D03*
X829500D02*
D03*
X812500Y934000D02*
D03*
X829500D02*
D03*
X14500Y137000D02*
D03*
X31500D02*
D03*
X174500D02*
D03*
X191500D02*
D03*
X14500Y66000D02*
D03*
X31500D02*
D03*
X174500D02*
D03*
X191500D02*
D03*
X342190Y295900D02*
D03*
X359190D02*
D03*
X632500Y381000D02*
D03*
X649500D02*
D03*
X425288Y295900D02*
D03*
X442288D02*
D03*
X632500Y358000D02*
D03*
X649500D02*
D03*
X812500Y137000D02*
D03*
X829500D02*
D03*
X972500D02*
D03*
X989500D02*
D03*
X812500Y66500D02*
D03*
X829500D02*
D03*
X972500D02*
D03*
X989500D02*
D03*
X14500Y863500D02*
D03*
X31500D02*
D03*
X174500D02*
D03*
X191500D02*
D03*
X14500Y933563D02*
D03*
X31500D02*
D03*
X174500D02*
D03*
X191500D02*
D03*
D26*
X608000Y324050D02*
D03*
Y267750D02*
D03*
X613000Y324050D02*
D03*
X618000D02*
D03*
X623000D02*
D03*
X628000D02*
D03*
X633000D02*
D03*
X638000D02*
D03*
X643000D02*
D03*
X648000D02*
D03*
Y267750D02*
D03*
X643000D02*
D03*
X638000D02*
D03*
X633000D02*
D03*
X628000D02*
D03*
X623000D02*
D03*
X618000D02*
D03*
X613000D02*
D03*
D27*
X628000Y295900D02*
D03*
D28*
X656150Y315900D02*
D03*
Y310900D02*
D03*
Y305900D02*
D03*
Y300900D02*
D03*
Y295900D02*
D03*
Y290900D02*
D03*
Y285900D02*
D03*
Y280900D02*
D03*
Y275900D02*
D03*
X599850D02*
D03*
Y280900D02*
D03*
Y285900D02*
D03*
Y290900D02*
D03*
Y295900D02*
D03*
Y300900D02*
D03*
Y305900D02*
D03*
Y310900D02*
D03*
Y315900D02*
D03*
D29*
X679368Y277600D02*
D03*
Y294600D02*
D03*
D30*
X669450Y266968D02*
D03*
X675950D02*
D03*
X682450D02*
D03*
X688950D02*
D03*
X669450Y239718D02*
D03*
X688950D02*
D03*
X675950D02*
D03*
X682450D02*
D03*
D31*
X56000Y888000D02*
D03*
X88000D02*
D03*
Y839000D02*
D03*
X114530Y888000D02*
D03*
X146530D02*
D03*
Y839000D02*
D03*
Y909063D02*
D03*
Y958063D02*
D03*
X114530D02*
D03*
X88000Y909063D02*
D03*
Y958063D02*
D03*
X56000D02*
D03*
X854000Y958500D02*
D03*
X886000D02*
D03*
Y909500D02*
D03*
X911000Y958500D02*
D03*
X943000D02*
D03*
Y909500D02*
D03*
X56000Y161500D02*
D03*
X88000D02*
D03*
Y112500D02*
D03*
X115000Y161500D02*
D03*
X147000D02*
D03*
Y112500D02*
D03*
X56000Y90500D02*
D03*
X88000D02*
D03*
Y41500D02*
D03*
X115000Y90500D02*
D03*
X147000D02*
D03*
Y41500D02*
D03*
X854000Y161500D02*
D03*
X886000D02*
D03*
Y112500D02*
D03*
X911000Y161500D02*
D03*
X943000D02*
D03*
Y112500D02*
D03*
X854000Y91000D02*
D03*
X886000D02*
D03*
Y42000D02*
D03*
X911000Y91000D02*
D03*
X943000D02*
D03*
Y42000D02*
D03*
X854000Y888500D02*
D03*
X886000D02*
D03*
Y839500D02*
D03*
X911000Y888500D02*
D03*
X943000D02*
D03*
Y839500D02*
D03*
D32*
X56000Y839000D02*
D03*
X114530D02*
D03*
Y909063D02*
D03*
X56000D02*
D03*
X854000Y909500D02*
D03*
X911000D02*
D03*
X56000Y112500D02*
D03*
X115000D02*
D03*
X56000Y41500D02*
D03*
X115000D02*
D03*
X854000Y112500D02*
D03*
X911000D02*
D03*
X854000Y42000D02*
D03*
X911000D02*
D03*
X854000Y839500D02*
D03*
X911000D02*
D03*
D33*
X475002Y20278D02*
D03*
X524998Y979722D02*
D03*
D34*
X525802Y20278D02*
D03*
X500402D02*
D03*
X474198Y979722D02*
D03*
X499598D02*
D03*
D35*
X20016Y524998D02*
D03*
X979984Y475002D02*
D03*
D36*
X20016Y474198D02*
D03*
Y499598D02*
D03*
X979984Y525802D02*
D03*
Y500402D02*
D03*
D37*
X337000Y242000D02*
D03*
X364380D02*
D03*
X337000Y358000D02*
D03*
X364380D02*
D03*
D38*
X416316Y264398D02*
D03*
Y255000D02*
D03*
Y245602D02*
D03*
X439684D02*
D03*
Y264398D02*
D03*
D39*
X551500Y242242D02*
D03*
X536500D02*
D03*
D40*
X568000Y282766D02*
D03*
Y294766D02*
D03*
Y306766D02*
D03*
M02*
