G04*
G04 #@! TF.GenerationSoftware,Altium Limited,Altium Designer,21.0.9 (235)*
G04*
G04 Layer_Color=16711935*
%FSLAX44Y44*%
%MOMM*%
G71*
G04*
G04 #@! TF.SameCoordinates,63E583B4-6D5A-4616-B716-78796777933C*
G04*
G04*
G04 #@! TF.FilePolarity,Positive*
G04*
G01*
G75*
%ADD10C,0.2000*%
%ADD12C,0.1270*%
%ADD77C,0.1000*%
G36*
X679200Y268343D02*
X694200D01*
Y253343D01*
X679200D01*
Y268343D01*
D02*
G37*
D10*
X291900Y54950D02*
G03*
X291900Y54950I-1000J0D01*
G01*
D12*
X267650Y48450D02*
X350150D01*
X267650Y7950D02*
X350150D01*
Y48450D01*
X267650Y7950D02*
Y48450D01*
X664200Y238343D02*
X694200D01*
X664200Y268343D02*
X694200D01*
X47000Y838500D02*
X97000D01*
Y888500D01*
X47000D02*
X97000D01*
X47000Y838500D02*
Y888500D01*
X105530Y838500D02*
X155530D01*
Y888500D01*
X105530D02*
X155530D01*
X105530Y838500D02*
Y888500D01*
Y908563D02*
Y958563D01*
X155530D01*
Y908563D02*
Y958563D01*
X105530Y908563D02*
X155530D01*
X47000D02*
Y958563D01*
X97000D01*
Y908563D02*
Y958563D01*
X47000Y908563D02*
X97000D01*
X845000Y909000D02*
X895000D01*
Y959000D01*
X845000D02*
X895000D01*
X845000Y909000D02*
Y959000D01*
X902000Y909000D02*
X952000D01*
Y959000D01*
X902000D02*
X952000D01*
X902000Y909000D02*
Y959000D01*
X47000Y112000D02*
X97000D01*
Y162000D01*
X47000D02*
X97000D01*
X47000Y112000D02*
Y162000D01*
X106000Y112000D02*
X156000D01*
Y162000D01*
X106000D02*
X156000D01*
X106000Y112000D02*
Y162000D01*
X47000Y41000D02*
X97000D01*
Y91000D01*
X47000D02*
X97000D01*
X47000Y41000D02*
Y91000D01*
X106000Y41000D02*
X156000D01*
Y91000D01*
X106000D02*
X156000D01*
X106000Y41000D02*
Y91000D01*
X845000Y112000D02*
X895000D01*
Y162000D01*
X845000D02*
X895000D01*
X845000Y112000D02*
Y162000D01*
X902000Y112000D02*
X952000D01*
Y162000D01*
X902000D02*
X952000D01*
X902000Y112000D02*
Y162000D01*
X845000Y41500D02*
X895000D01*
Y91500D01*
X845000D02*
X895000D01*
X845000Y41500D02*
Y91500D01*
X902000Y41500D02*
X952000D01*
Y91500D01*
X902000D02*
X952000D01*
X902000Y41500D02*
Y91500D01*
X845000Y839000D02*
X895000D01*
Y889000D01*
X845000D02*
X895000D01*
X845000Y839000D02*
Y889000D01*
X902000Y839000D02*
X952000D01*
Y889000D01*
X902000D02*
X952000D01*
X902000Y839000D02*
Y889000D01*
D77*
X670867Y213250D02*
Y222750D01*
X687868Y213250D02*
Y222750D01*
X670867D02*
X687868D01*
X670867Y213250D02*
X687868D01*
X342190Y319650D02*
X359190D01*
X342190Y329150D02*
X359190D01*
Y319650D02*
Y329150D01*
X342190Y319650D02*
Y329150D01*
Y261650D02*
X359190D01*
X342190Y271150D02*
X359190D01*
Y261650D02*
Y271150D01*
X342190Y261650D02*
Y271150D01*
X494500Y261650D02*
X511500D01*
X494500Y271150D02*
X511500D01*
Y261650D02*
Y271150D01*
X494500Y261650D02*
Y271150D01*
X494500Y237250D02*
X511500D01*
X494500Y246750D02*
X511500D01*
Y237250D02*
Y246750D01*
X494500Y237250D02*
Y246750D01*
X494500Y291150D02*
X511500D01*
X494500Y300650D02*
X511500D01*
Y291150D02*
Y300650D01*
X494500Y291150D02*
Y300650D01*
X535500Y319650D02*
X552500D01*
X535500Y329150D02*
X552500D01*
Y319650D02*
Y329150D01*
X535500Y319650D02*
Y329150D01*
X494500Y319650D02*
X511500D01*
X494500Y329150D02*
X511500D01*
Y319650D02*
Y329150D01*
X494500Y319650D02*
Y329150D01*
Y353250D02*
X511500D01*
X494500Y362750D02*
X511500D01*
Y353250D02*
Y362750D01*
X494500Y353250D02*
Y362750D01*
X426788Y362750D02*
X443788D01*
X426788Y353250D02*
X443788D01*
X426788D02*
Y362750D01*
X443788Y353250D02*
Y362750D01*
X426788Y329150D02*
X443788D01*
X426788Y319650D02*
X443788D01*
X426788D02*
Y329150D01*
X443788Y319650D02*
Y329150D01*
M02*
