G04*
G04 #@! TF.GenerationSoftware,Altium Limited,Altium Designer,21.0.9 (235)*
G04*
G04 Layer_Color=16711935*
%FSLAX44Y44*%
%MOMM*%
G71*
G04*
G04 #@! TF.SameCoordinates,63E583B4-6D5A-4616-B716-78796777933C*
G04*
G04*
G04 #@! TF.FilePolarity,Negative*
G04*
G01*
G75*
G04:AMPARAMS|DCode=54|XSize=1.4032mm|YSize=3.7032mm|CornerRadius=0.4016mm|HoleSize=0mm|Usage=FLASHONLY|Rotation=0.000|XOffset=0mm|YOffset=0mm|HoleType=Round|Shape=RoundedRectangle|*
%AMROUNDEDRECTD54*
21,1,1.4032,2.9000,0,0,0.0*
21,1,0.6000,3.7032,0,0,0.0*
1,1,0.8032,0.3000,-1.4500*
1,1,0.8032,-0.3000,-1.4500*
1,1,0.8032,-0.3000,1.4500*
1,1,0.8032,0.3000,1.4500*
%
%ADD54ROUNDEDRECTD54*%
%ADD55R,1.4032X3.7032*%
G04:AMPARAMS|DCode=56|XSize=1.4032mm|YSize=3.7032mm|CornerRadius=0.4016mm|HoleSize=0mm|Usage=FLASHONLY|Rotation=270.000|XOffset=0mm|YOffset=0mm|HoleType=Round|Shape=RoundedRectangle|*
%AMROUNDEDRECTD56*
21,1,1.4032,2.9000,0,0,270.0*
21,1,0.6000,3.7032,0,0,270.0*
1,1,0.8032,-1.4500,-0.3000*
1,1,0.8032,-1.4500,0.3000*
1,1,0.8032,1.4500,0.3000*
1,1,0.8032,1.4500,-0.3000*
%
%ADD56ROUNDEDRECTD56*%
%ADD57R,3.7032X1.4032*%
%ADD62C,4.2032*%
%ADD72C,1.1032*%
%ADD73C,0.9032*%
%ADD74C,1.4732*%
D54*
X524999Y20278D02*
D03*
X475001Y979722D02*
D03*
D55*
X499599Y20278D02*
D03*
X474198D02*
D03*
X500401Y979722D02*
D03*
X525802D02*
D03*
D56*
X20016Y475001D02*
D03*
X979984Y524998D02*
D03*
D57*
X20016Y525801D02*
D03*
Y500401D02*
D03*
X979984Y474198D02*
D03*
Y499598D02*
D03*
D62*
X100000Y500000D02*
D03*
X498000Y501000D02*
D03*
X500000Y900000D02*
D03*
Y100000D02*
D03*
X900000Y500000D02*
D03*
D72*
X706500Y314650D02*
D03*
Y302150D02*
D03*
Y289650D02*
D03*
Y277150D02*
D03*
D73*
X428000Y278732D02*
D03*
X342190Y281133D02*
D03*
X310800Y300609D02*
D03*
X308900Y18950D02*
D03*
X729318Y218000D02*
D03*
X679368Y294600D02*
D03*
X338300Y70100D02*
D03*
X500200Y204600D02*
D03*
X679200Y253343D02*
D03*
X527789Y384000D02*
D03*
X642922Y410000D02*
D03*
X591879Y242242D02*
D03*
X812827Y899018D02*
D03*
X174500Y898531D02*
D03*
X146530Y888000D02*
D03*
Y958063D02*
D03*
X14500Y898531D02*
D03*
X499000Y550000D02*
D03*
X500000Y452000D02*
D03*
X449000Y501000D02*
D03*
X547092Y501000D02*
D03*
X638000Y286000D02*
D03*
X628000D02*
D03*
X618000D02*
D03*
Y296000D02*
D03*
X628000Y295900D02*
D03*
X638000Y296000D02*
D03*
X638000Y305900D02*
D03*
X628000Y306000D02*
D03*
X618125Y305775D02*
D03*
X632500Y230000D02*
D03*
X14500Y101500D02*
D03*
X147000Y90500D02*
D03*
X174500Y101500D02*
D03*
X972500Y899000D02*
D03*
X972494Y101868D02*
D03*
X943132Y888765D02*
D03*
X886044Y161764D02*
D03*
X943000Y162000D02*
D03*
X812500Y101750D02*
D03*
X943000Y91000D02*
D03*
X886000D02*
D03*
D74*
X525802Y20278D02*
D03*
X500402D02*
D03*
X20016Y524998D02*
D03*
X979984Y475002D02*
D03*
Y500402D02*
D03*
Y525802D02*
D03*
X475002Y20278D02*
D03*
X20016Y474198D02*
D03*
Y499598D02*
D03*
X474198Y979722D02*
D03*
X499598D02*
D03*
X524998D02*
D03*
M02*
