G04*
G04 #@! TF.GenerationSoftware,Altium Limited,Altium Designer,21.0.9 (235)*
G04*
G04 Layer_Color=32896*
%FSLAX44Y44*%
%MOMM*%
G71*
G04*
G04 #@! TF.SameCoordinates,F2811E86-CD87-417F-9349-FFAEB9FC674C*
G04*
G04*
G04 #@! TF.FilePolarity,Positive*
G04*
G01*
G75*
%ADD20C,0.4000*%
D20*
X519938Y952001D02*
X509941Y937006D01*
Y952001D02*
X519938Y937006D01*
X504943D02*
Y952001D01*
X497445D01*
X494946Y949502D01*
Y944504D01*
X497445Y942004D01*
X504943D01*
X489948Y949502D02*
X487449Y952001D01*
X482450D01*
X479951Y949502D01*
Y947003D01*
X482450Y944504D01*
X479951Y942004D01*
Y939505D01*
X482450Y937006D01*
X487449D01*
X489948Y939505D01*
Y942004D01*
X487449Y944504D01*
X489948Y947003D01*
Y949502D01*
X487449Y944504D02*
X482450D01*
X519938Y62747D02*
X509941Y47752D01*
Y62747D02*
X519938Y47752D01*
X504943D02*
Y62747D01*
X497445D01*
X494946Y60248D01*
Y55250D01*
X497445Y52750D01*
X504943D01*
X489948Y60248D02*
X487449Y62747D01*
X482450D01*
X479951Y60248D01*
Y57749D01*
X482450Y55250D01*
X484949D01*
X482450D01*
X479951Y52750D01*
Y50251D01*
X482450Y47752D01*
X487449D01*
X489948Y50251D01*
X952509Y480060D02*
X937514Y490057D01*
X952509D02*
X937514Y480060D01*
Y495055D02*
X952509D01*
Y502553D01*
X950010Y505052D01*
X945012D01*
X942512Y502553D01*
Y495055D01*
X937514Y517548D02*
X952509D01*
X945012Y510050D01*
Y520047D01*
X62493Y480060D02*
X47498Y490057D01*
X62493D02*
X47498Y480060D01*
Y495055D02*
X62493D01*
Y502553D01*
X59994Y505052D01*
X54996D01*
X52496Y502553D01*
Y495055D01*
X62493Y510050D02*
Y520047D01*
X59994D01*
X49997Y510050D01*
X47498D01*
M02*
