G04*
G04 #@! TF.GenerationSoftware,Altium Limited,Altium Designer,21.0.9 (235)*
G04*
G04 Layer_Color=16711935*
%FSLAX44Y44*%
%MOMM*%
G71*
G04*
G04 #@! TF.SameCoordinates,6A93C8F3-5C18-4511-93CB-E3484D982C44*
G04*
G04*
G04 #@! TF.FilePolarity,Positive*
G04*
G01*
G75*
%ADD11C,0.1270*%
D11*
X902000Y839000D02*
Y889000D01*
X952000D01*
Y839000D02*
Y889000D01*
X902000Y839000D02*
X952000D01*
X902000Y41500D02*
Y91500D01*
X952000D01*
Y41500D02*
Y91500D01*
X902000Y41500D02*
X952000D01*
X47000Y112000D02*
Y162000D01*
X97000D01*
Y112000D02*
Y162000D01*
X47000Y112000D02*
X97000D01*
X47000Y838500D02*
Y888500D01*
X97000D01*
Y838500D02*
Y888500D01*
X47000Y838500D02*
X97000D01*
X106000Y41000D02*
Y91000D01*
X156000D01*
Y41000D02*
Y91000D01*
X106000Y41000D02*
X156000D01*
X47000D02*
Y91000D01*
X97000D01*
Y41000D02*
Y91000D01*
X47000Y41000D02*
X97000D01*
X105530Y838500D02*
Y888500D01*
X155530D01*
Y838500D02*
Y888500D01*
X105530Y838500D02*
X155530D01*
X105530Y908563D02*
Y958563D01*
X155530D01*
Y908563D02*
Y958563D01*
X105530Y908563D02*
X155530D01*
X845000Y839000D02*
Y889000D01*
X895000D01*
Y839000D02*
Y889000D01*
X845000Y839000D02*
X895000D01*
X845000Y112000D02*
Y162000D01*
X895000D01*
Y112000D02*
Y162000D01*
X845000Y112000D02*
X895000D01*
X47000Y908563D02*
Y958563D01*
X97000D01*
Y908563D02*
Y958563D01*
X47000Y908563D02*
X97000D01*
X902000Y112000D02*
Y162000D01*
X952000D01*
Y112000D02*
Y162000D01*
X902000Y112000D02*
X952000D01*
X845000Y41500D02*
Y91500D01*
X895000D01*
Y41500D02*
Y91500D01*
X845000Y41500D02*
X895000D01*
X845000Y909000D02*
Y959000D01*
X895000D01*
Y909000D02*
Y959000D01*
X845000Y909000D02*
X895000D01*
X902000D02*
Y959000D01*
X952000D01*
Y909000D02*
Y959000D01*
X902000Y909000D02*
X952000D01*
X106000Y112000D02*
Y162000D01*
X156000D01*
Y112000D02*
Y162000D01*
X106000Y112000D02*
X156000D01*
M02*
