G04*
G04 #@! TF.GenerationSoftware,Altium Limited,Altium Designer,21.0.9 (235)*
G04*
G04 Layer_Color=8388736*
%FSLAX44Y44*%
%MOMM*%
G71*
G04*
G04 #@! TF.SameCoordinates,44F510CF-A20F-4482-AB1E-84DE8B2B5685*
G04*
G04*
G04 #@! TF.FilePolarity,Negative*
G04*
G01*
G75*
%ADD26R,0.7080X0.2548*%
%ADD27R,0.2548X0.7080*%
%ADD28R,1.7526X1.7526*%
%ADD39R,1.0500X0.8000*%
%ADD40R,0.8000X1.0500*%
%ADD41R,2.1050X2.9940*%
%ADD42C,1.7240*%
%ADD43C,0.9000*%
%ADD44R,0.6000X2.2000*%
%ADD45R,0.4600X1.2800*%
%ADD46R,3.7000X1.4000*%
G04:AMPARAMS|DCode=47|XSize=1.4mm|YSize=3.7mm|CornerRadius=0.4mm|HoleSize=0mm|Usage=FLASHONLY|Rotation=90.000|XOffset=0mm|YOffset=0mm|HoleType=Round|Shape=RoundedRectangle|*
%AMROUNDEDRECTD47*
21,1,1.4000,2.9000,0,0,90.0*
21,1,0.6000,3.7000,0,0,90.0*
1,1,0.8000,1.4500,0.3000*
1,1,0.8000,1.4500,-0.3000*
1,1,0.8000,-1.4500,-0.3000*
1,1,0.8000,-1.4500,0.3000*
%
%ADD47ROUNDEDRECTD47*%
%ADD48R,3.2000X2.3300*%
%ADD49R,0.8000X2.1700*%
%ADD50R,2.4000X2.5000*%
G04:AMPARAMS|DCode=51|XSize=3.6mm|YSize=3.6mm|CornerRadius=0.95mm|HoleSize=0mm|Usage=FLASHONLY|Rotation=0.000|XOffset=0mm|YOffset=0mm|HoleType=Round|Shape=RoundedRectangle|*
%AMROUNDEDRECTD51*
21,1,3.6000,1.7000,0,0,0.0*
21,1,1.7000,3.6000,0,0,0.0*
1,1,1.9000,0.8500,-0.8500*
1,1,1.9000,-0.8500,-0.8500*
1,1,1.9000,-0.8500,0.8500*
1,1,1.9000,0.8500,0.8500*
%
%ADD51ROUNDEDRECTD51*%
%ADD52C,3.6000*%
%ADD53R,1.2800X0.4600*%
%ADD54R,3.9000X3.9000*%
%ADD55R,0.7588X1.5208*%
%ADD56R,1.2000X1.2000*%
%ADD57C,1.2000*%
%ADD58C,1.7000*%
G36*
X633190Y327874D02*
Y348874D01*
X585740D01*
Y327874D01*
X633190D01*
D02*
G37*
D26*
X329845Y345422D02*
D03*
Y340422D02*
D03*
Y335422D02*
D03*
Y330422D02*
D03*
X301429D02*
D03*
Y335422D02*
D03*
Y340422D02*
D03*
Y345422D02*
D03*
D27*
X323137Y323714D02*
D03*
X318137D02*
D03*
X313137D02*
D03*
X308137D02*
D03*
Y352130D02*
D03*
X313137D02*
D03*
X318137D02*
D03*
X323137D02*
D03*
D28*
X315637Y337922D02*
D03*
D39*
X617910Y277556D02*
D03*
Y290000D02*
D03*
X638740Y277556D02*
D03*
Y290000D02*
D03*
X576251Y277556D02*
D03*
Y290000D02*
D03*
X597080D02*
D03*
Y277556D02*
D03*
X617910Y400456D02*
D03*
Y388012D02*
D03*
X638740D02*
D03*
Y400456D02*
D03*
X576251D02*
D03*
Y388012D02*
D03*
X597080D02*
D03*
Y400456D02*
D03*
X336340Y373778D02*
D03*
Y386222D02*
D03*
X317840Y386444D02*
D03*
Y374000D02*
D03*
X299340Y373778D02*
D03*
Y386222D02*
D03*
X492683Y355132D02*
D03*
Y367576D02*
D03*
X476799Y355132D02*
D03*
Y367576D02*
D03*
X443740Y400480D02*
D03*
Y388036D02*
D03*
D40*
X651418Y278806D02*
D03*
X663862D02*
D03*
X651418Y399206D02*
D03*
X663862D02*
D03*
X246720Y294953D02*
D03*
X234276D02*
D03*
Y309850D02*
D03*
X246720D02*
D03*
X234276Y369437D02*
D03*
X246720D02*
D03*
X234276Y339643D02*
D03*
X246720D02*
D03*
Y354540D02*
D03*
X234276D02*
D03*
Y384334D02*
D03*
X246720D02*
D03*
Y399230D02*
D03*
X234276D02*
D03*
X282395Y294953D02*
D03*
X269951D02*
D03*
X282395Y309850D02*
D03*
X269951D02*
D03*
X264808Y323800D02*
D03*
X252364D02*
D03*
X269951Y339643D02*
D03*
X282395D02*
D03*
X269951Y354540D02*
D03*
X282395D02*
D03*
Y369437D02*
D03*
X269951D02*
D03*
Y384334D02*
D03*
X282395D02*
D03*
X364164Y384177D02*
D03*
X351720D02*
D03*
X245940Y279534D02*
D03*
X233496D02*
D03*
X351720Y323965D02*
D03*
X364164D02*
D03*
X490903Y278806D02*
D03*
X478459D02*
D03*
X490903Y293859D02*
D03*
X478459D02*
D03*
X311699Y398347D02*
D03*
X324143D02*
D03*
X364164Y354071D02*
D03*
X351720D02*
D03*
X269951Y399230D02*
D03*
X282395D02*
D03*
X364164Y308912D02*
D03*
X351720D02*
D03*
X364164Y293859D02*
D03*
X351720D02*
D03*
X490904Y384177D02*
D03*
X478460D02*
D03*
X490904Y399230D02*
D03*
X478460D02*
D03*
X364164Y369124D02*
D03*
X351720D02*
D03*
Y399230D02*
D03*
X364164D02*
D03*
X351720Y278806D02*
D03*
X364164D02*
D03*
X351720Y339018D02*
D03*
X364164D02*
D03*
X270731Y278078D02*
D03*
X283175D02*
D03*
D41*
X567540Y319200D02*
D03*
X516740D02*
D03*
D42*
X508140Y281600D02*
D03*
X531640D02*
D03*
X555140D02*
D03*
D43*
X292700Y354770D02*
D03*
X338760Y353740D02*
D03*
X377250Y316200D02*
D03*
X386830D02*
D03*
D44*
X403861Y394123D02*
D03*
X427861D02*
D03*
X415861D02*
D03*
D45*
X418364Y365617D02*
D03*
X413364D02*
D03*
X408364D02*
D03*
X423364D02*
D03*
X428364D02*
D03*
X433364D02*
D03*
X438364D02*
D03*
X443364D02*
D03*
X448364D02*
D03*
Y309317D02*
D03*
X443364D02*
D03*
X438364D02*
D03*
X433364D02*
D03*
X428364D02*
D03*
X423364D02*
D03*
X418364D02*
D03*
X413364D02*
D03*
X408364D02*
D03*
D46*
X207032Y372862D02*
D03*
Y398262D02*
D03*
X205540Y305038D02*
D03*
D47*
X207032Y347462D02*
D03*
X205540Y279638D02*
D03*
D48*
X608740Y338374D02*
D03*
D49*
X627790Y363124D02*
D03*
X615090D02*
D03*
X602390D02*
D03*
X589690D02*
D03*
Y313624D02*
D03*
X602390D02*
D03*
X615090D02*
D03*
X627790D02*
D03*
D50*
X518240Y367200D02*
D03*
X567240D02*
D03*
D51*
X657640Y360249D02*
D03*
D52*
Y311249D02*
D03*
D53*
X456514Y352467D02*
D03*
Y347467D02*
D03*
Y342467D02*
D03*
Y337467D02*
D03*
Y332467D02*
D03*
Y327467D02*
D03*
Y322467D02*
D03*
Y317467D02*
D03*
X400214D02*
D03*
Y322467D02*
D03*
Y327467D02*
D03*
Y332467D02*
D03*
Y337467D02*
D03*
Y342467D02*
D03*
Y347467D02*
D03*
Y352467D02*
D03*
X456514Y357467D02*
D03*
X400214D02*
D03*
D54*
X428364Y337467D02*
D03*
D55*
X494139Y312777D02*
D03*
X484741D02*
D03*
X475343D02*
D03*
Y336145D02*
D03*
X494139D02*
D03*
D56*
X408437Y281737D02*
D03*
D57*
X445937D02*
D03*
X433437D02*
D03*
X420937D02*
D03*
D58*
X341040Y445300D02*
D03*
X639540Y231700D02*
D03*
Y445300D02*
D03*
X341040Y230700D02*
D03*
M02*
