G04*
G04 #@! TF.GenerationSoftware,Altium Limited,Altium Designer,21.0.9 (235)*
G04*
G04 Layer_Color=16711935*
%FSLAX44Y44*%
%MOMM*%
G71*
G04*
G04 #@! TF.SameCoordinates,44F510CF-A20F-4482-AB1E-84DE8B2B5685*
G04*
G04*
G04 #@! TF.FilePolarity,Positive*
G04*
G01*
G75*
%ADD70C,0.6000*%
D70*
X301329Y262411D02*
G03*
X286612Y268507I-14717J-14717D01*
G01*
X304170Y255568D02*
G03*
X301340Y262400I-9662J0D01*
G01*
X293372Y408000D02*
G03*
X301333Y411298I0J11259D01*
G01*
D02*
G03*
X304162Y418127I-6829J6829D01*
G01*
X381440Y412300D02*
G03*
X390855Y408400I9415J9415D01*
G01*
X598840Y264800D02*
G03*
X589908Y268500I-8933J-8933D01*
G01*
X676588Y445049D02*
G03*
X676484Y445300I-355J0D01*
G01*
X602493Y255981D02*
G03*
X598840Y264800I-12471J0D01*
G01*
X390390Y268500D02*
G03*
X381940Y265000I0J-11950D01*
G01*
D02*
G03*
X377911Y255273I9727J-9727D01*
G01*
X600840Y414600D02*
G03*
X602597Y418841I-4241J4241D01*
G01*
X585872Y408400D02*
G03*
X600840Y414600I0J21168D01*
G01*
X377918Y420802D02*
G03*
X381440Y412300I12024J0D01*
G01*
X304170Y230421D02*
G03*
X377911Y230700I36870J279D01*
G01*
X377918Y445300D02*
G03*
X304162Y445300I-36878J0D01*
G01*
X676484Y445300D02*
G03*
X602597Y445300I-36943J0D01*
G01*
X602493Y231700D02*
G03*
X676588Y231700I37047J0D01*
G01*
X190658Y268309D02*
X184431D01*
X286612Y268507D02*
X187682D01*
X301340Y262400D02*
X301329Y262411D01*
X184431Y268309D02*
Y408000D01*
X293372D02*
X184431D01*
X304162Y418127D02*
Y445300D01*
X304170Y230421D02*
Y255568D01*
X377918Y420802D02*
Y445300D01*
X377911Y230700D02*
Y255273D01*
X583140Y268500D02*
X390390D01*
X585872Y408400D02*
X390855D01*
X589908Y268500D02*
X583140D01*
X676588Y231700D02*
Y445049D01*
X602493Y231700D02*
Y255981D01*
X602597Y418841D02*
Y445300D01*
M02*
