G04*
G04 #@! TF.GenerationSoftware,Altium Limited,Altium Designer,21.0.9 (235)*
G04*
G04 Layer_Color=32896*
%FSLAX44Y44*%
%MOMM*%
G71*
G04*
G04 #@! TF.SameCoordinates,08F79265-EF5C-4CE5-BC12-077E6F79E2A6*
G04*
G04*
G04 #@! TF.FilePolarity,Positive*
G04*
G01*
G75*
%ADD10C,0.0100*%
%ADD12C,0.2000*%
%ADD14C,0.0000*%
%ADD15C,0.1270*%
D10*
X506740Y318000D02*
X462740D01*
D12*
X632790Y295174D02*
G03*
X632790Y295174I1000J0D01*
G01*
D02*
G03*
X632790Y295174I1000J0D01*
G01*
X458364Y307467D02*
X398364D01*
X458364D02*
Y367467D01*
X398364D01*
Y307467D02*
Y367467D01*
X458364Y307467D02*
X398364D01*
X458364D02*
Y367467D01*
X398364D01*
Y307467D02*
Y367467D01*
D14*
X499219Y327509D02*
G03*
X499219Y321413I0J-3048D01*
G01*
Y327509D02*
G03*
X499219Y321413I0J-3048D01*
G01*
Y327509D02*
G03*
X499219Y321413I0J-3048D01*
G01*
Y327509D02*
G03*
X499219Y321413I0J-3048D01*
G01*
X472803Y332335D02*
X470263D01*
X499219Y316587D02*
X496679D01*
X491853D02*
X487281D01*
X482201D02*
X477629D01*
X472803D02*
X470263D01*
X499219Y332335D02*
X496679D01*
X470263Y316587D02*
Y332335D01*
X491853D02*
X477629D01*
X499219Y327509D02*
Y332335D01*
Y321413D02*
Y327509D01*
Y316587D02*
Y321413D01*
X496679Y316587D02*
X491853D01*
X496679Y310491D02*
Y316587D01*
Y310491D02*
X491853D01*
Y316587D01*
X487281D02*
X482201D01*
X487281Y310491D02*
Y316587D01*
Y310491D02*
X482201D01*
Y316587D01*
X477629D02*
X472803D01*
X477629Y310491D02*
Y316587D01*
Y310491D02*
X472803D01*
Y316587D01*
X477629Y332335D02*
X472803D01*
Y338431D01*
X477629D02*
X472803D01*
X477629Y332335D02*
Y338431D01*
X496679Y332335D02*
X491853D01*
Y338431D01*
X496679D02*
X491853D01*
X496679Y332335D02*
Y338431D01*
X472803Y332335D02*
X470263D01*
X499219Y316587D02*
X496679D01*
X491853D02*
X487281D01*
X482201D02*
X477629D01*
X472803D02*
X470263D01*
X499219Y332335D02*
X496679D01*
X470263Y316587D02*
Y332335D01*
X491853D02*
X477629D01*
X499219Y327509D02*
Y332335D01*
Y321413D02*
Y327509D01*
Y316587D02*
Y321413D01*
X496679Y316587D02*
X491853D01*
X496679Y310491D02*
Y316587D01*
Y310491D02*
X491853D01*
Y316587D01*
X487281D02*
X482201D01*
X487281Y310491D02*
Y316587D01*
Y310491D02*
X482201D01*
Y316587D01*
X477629D02*
X472803D01*
X477629Y310491D02*
Y316587D01*
Y310491D02*
X472803D01*
Y316587D01*
X477629Y332335D02*
X472803D01*
Y338431D01*
X477629D02*
X472803D01*
X477629Y332335D02*
Y338431D01*
X496679Y332335D02*
X491853D01*
Y338431D01*
X496679D02*
X491853D01*
X496679Y332335D02*
Y338431D01*
D15*
X223340Y311938D02*
X189340D01*
X223340Y293938D02*
X189340D01*
Y311938D01*
X223340Y293938D02*
Y311938D01*
X189340D01*
X223340Y293938D02*
X189340D01*
Y311938D01*
X223340Y293938D02*
Y311938D01*
Y375800D02*
X189340D01*
X223340Y393800D02*
X189340D01*
X223340Y375800D02*
Y393800D01*
X189340Y375800D02*
Y393800D01*
X223340Y375800D02*
X189340D01*
X223340Y393800D02*
X189340D01*
X223340Y375800D02*
Y393800D01*
X189340Y375800D02*
Y393800D01*
X566550Y276300D02*
X532550D01*
X566550Y294300D02*
X532550D01*
X566550Y276300D02*
Y294300D01*
X532550Y276300D02*
Y294300D01*
X566550Y276300D02*
X532550D01*
X566550Y294300D02*
X532550D01*
X566550Y276300D02*
Y294300D01*
X532550Y276300D02*
Y294300D01*
X431861Y400624D02*
X399861D01*
X431861Y387623D02*
X399861D01*
X431861Y400624D02*
X399861D01*
X431861Y387623D02*
X399861D01*
X458364Y367467D02*
X398364D01*
X458364D02*
X398364D01*
M02*
