G04*
G04 #@! TF.GenerationSoftware,Altium Limited,Altium Designer,21.0.9 (235)*
G04*
G04 Layer_Color=8421504*
%FSLAX44Y44*%
%MOMM*%
G71*
G04*
G04 #@! TF.SameCoordinates,FF243E75-1A4C-4666-92C7-23B9F90F277F*
G04*
G04*
G04 #@! TF.FilePolarity,Positive*
G04*
G01*
G75*
%ADD19C,1.5240*%
%ADD20C,0.7000*%
%ADD21R,0.4000X2.0000*%
%ADD22R,0.2600X1.0800*%
%ADD23R,0.6000X0.8500*%
%ADD24R,0.7080X0.2548*%
%ADD25R,0.2548X0.7080*%
%ADD26R,1.7526X1.7526*%
%ADD27R,0.8500X0.6000*%
%ADD28R,3.5000X1.2000*%
G04:AMPARAMS|DCode=29|XSize=1.2mm|YSize=3.5mm|CornerRadius=0.3mm|HoleSize=0mm|Usage=FLASHONLY|Rotation=90.000|XOffset=0mm|YOffset=0mm|HoleType=Round|Shape=RoundedRectangle|*
%AMROUNDEDRECTD29*
21,1,1.2000,2.9000,0,0,90.0*
21,1,0.6000,3.5000,0,0,90.0*
1,1,0.6000,1.4500,0.3000*
1,1,0.6000,1.4500,-0.3000*
1,1,0.6000,-1.4500,-0.3000*
1,1,0.6000,-1.4500,0.3000*
%
%ADD29ROUNDEDRECTD29*%
%ADD30R,1.9050X2.7940*%
%ADD31R,3.0000X2.1300*%
%ADD32R,0.6000X1.9700*%
%ADD33R,2.2000X2.3000*%
G04:AMPARAMS|DCode=34|XSize=3.4mm|YSize=3.4mm|CornerRadius=0.85mm|HoleSize=0mm|Usage=FLASHONLY|Rotation=0.000|XOffset=0mm|YOffset=0mm|HoleType=Round|Shape=RoundedRectangle|*
%AMROUNDEDRECTD34*
21,1,3.4000,1.7000,0,0,0.0*
21,1,1.7000,3.4000,0,0,0.0*
1,1,1.7000,0.8500,-0.8500*
1,1,1.7000,-0.8500,-0.8500*
1,1,1.7000,-0.8500,0.8500*
1,1,1.7000,0.8500,0.8500*
%
%ADD34ROUNDEDRECTD34*%
%ADD35C,3.4000*%
%ADD36R,1.0800X0.2600*%
%ADD37R,3.7000X3.7000*%
%ADD38R,0.5588X1.3208*%
G36*
X621340Y330174D02*
Y337174D01*
X609940D01*
Y330174D01*
X621340D01*
D02*
G37*
G36*
Y339574D02*
Y346574D01*
X609940D01*
Y339574D01*
X621340D01*
D02*
G37*
G36*
X607540Y330174D02*
Y337174D01*
X596140D01*
Y330174D01*
X607540D01*
D02*
G37*
G36*
Y339574D02*
Y346574D01*
X596140D01*
Y339574D01*
X607540D01*
D02*
G37*
G36*
X416664Y349737D02*
Y325767D01*
X440634D01*
Y349737D01*
X416664D01*
D02*
G37*
D19*
X508140Y281600D02*
D03*
X531640D02*
D03*
X555140D02*
D03*
D20*
X292700Y354770D02*
D03*
X338760Y353740D02*
D03*
X377250Y316200D02*
D03*
X386830D02*
D03*
D21*
X403861Y394123D02*
D03*
X427861D02*
D03*
X415861D02*
D03*
D22*
X418364Y365617D02*
D03*
X413364D02*
D03*
X408364D02*
D03*
X423364D02*
D03*
X428364D02*
D03*
X433364D02*
D03*
X438364D02*
D03*
X443364D02*
D03*
X448364D02*
D03*
Y309317D02*
D03*
X443364D02*
D03*
X438364D02*
D03*
X433364D02*
D03*
X428364D02*
D03*
X423364D02*
D03*
X418364D02*
D03*
X413364D02*
D03*
X408364D02*
D03*
D23*
X246720Y294953D02*
D03*
X234276D02*
D03*
Y309850D02*
D03*
X246720D02*
D03*
Y324746D02*
D03*
X234276D02*
D03*
Y369437D02*
D03*
X246720D02*
D03*
X234276Y339643D02*
D03*
X246720D02*
D03*
Y354540D02*
D03*
X234276D02*
D03*
Y384334D02*
D03*
X246720D02*
D03*
Y399230D02*
D03*
X234276D02*
D03*
X282395Y294953D02*
D03*
X269951D02*
D03*
X282395Y309850D02*
D03*
X269951D02*
D03*
Y324746D02*
D03*
X282395D02*
D03*
X269951Y339643D02*
D03*
X282395D02*
D03*
X269951Y354540D02*
D03*
X282395D02*
D03*
Y369437D02*
D03*
X269951D02*
D03*
Y384334D02*
D03*
X282395D02*
D03*
X364164Y384177D02*
D03*
X351720D02*
D03*
X663862Y399206D02*
D03*
X651418D02*
D03*
X245940Y279534D02*
D03*
X233496D02*
D03*
X351720Y323965D02*
D03*
X364164D02*
D03*
X490903Y278806D02*
D03*
X478459D02*
D03*
X490903Y293859D02*
D03*
X478459D02*
D03*
X311699Y398347D02*
D03*
X324143D02*
D03*
X364164Y354071D02*
D03*
X351720D02*
D03*
X269951Y399230D02*
D03*
X282395D02*
D03*
X364164Y308912D02*
D03*
X351720D02*
D03*
X364164Y293859D02*
D03*
X351720D02*
D03*
X490904Y384177D02*
D03*
X478460D02*
D03*
X490904Y399230D02*
D03*
X478460D02*
D03*
X364164Y369124D02*
D03*
X351720D02*
D03*
Y399230D02*
D03*
X364164D02*
D03*
X351720Y278806D02*
D03*
X364164D02*
D03*
X351720Y339018D02*
D03*
X364164D02*
D03*
X270731Y278078D02*
D03*
X283175D02*
D03*
D24*
X329845Y345422D02*
D03*
Y340422D02*
D03*
Y335422D02*
D03*
Y330422D02*
D03*
X301429D02*
D03*
Y335422D02*
D03*
Y340422D02*
D03*
Y345422D02*
D03*
D25*
X323137Y323714D02*
D03*
X318137D02*
D03*
X313137D02*
D03*
X308137D02*
D03*
Y352130D02*
D03*
X313137D02*
D03*
X318137D02*
D03*
X323137D02*
D03*
D26*
X315637Y337922D02*
D03*
D27*
X638740Y400456D02*
D03*
Y388012D02*
D03*
X576209Y388036D02*
D03*
Y400480D02*
D03*
X492683Y355132D02*
D03*
Y367576D02*
D03*
X607495Y290000D02*
D03*
Y277556D02*
D03*
X638740D02*
D03*
Y290000D02*
D03*
X623118D02*
D03*
Y277556D02*
D03*
X591873D02*
D03*
Y290000D02*
D03*
X576251D02*
D03*
Y277556D02*
D03*
X591873Y388012D02*
D03*
Y400456D02*
D03*
X296264Y386418D02*
D03*
Y373974D02*
D03*
X623118Y388012D02*
D03*
Y400456D02*
D03*
X607495D02*
D03*
Y388012D02*
D03*
X476799Y355132D02*
D03*
Y367576D02*
D03*
X310264Y386418D02*
D03*
Y373974D02*
D03*
X338264Y386418D02*
D03*
Y373974D02*
D03*
X324264D02*
D03*
Y386418D02*
D03*
X443740Y400480D02*
D03*
Y388036D02*
D03*
D28*
X207032Y372862D02*
D03*
Y398262D02*
D03*
X205540Y305038D02*
D03*
D29*
X207032Y347462D02*
D03*
X205540Y279638D02*
D03*
D30*
X568140Y319200D02*
D03*
X517340D02*
D03*
D31*
X608740Y338374D02*
D03*
D32*
X627790Y363124D02*
D03*
X615090D02*
D03*
X602390D02*
D03*
X589690D02*
D03*
Y313624D02*
D03*
X602390D02*
D03*
X615090D02*
D03*
X627790D02*
D03*
D33*
X518240Y367200D02*
D03*
X567240D02*
D03*
D34*
X657640Y360249D02*
D03*
D35*
Y311249D02*
D03*
D36*
X456514Y352467D02*
D03*
Y347467D02*
D03*
Y342467D02*
D03*
Y337467D02*
D03*
Y332467D02*
D03*
Y327467D02*
D03*
Y322467D02*
D03*
Y317467D02*
D03*
X400214D02*
D03*
Y322467D02*
D03*
Y327467D02*
D03*
Y332467D02*
D03*
Y337467D02*
D03*
Y342467D02*
D03*
Y347467D02*
D03*
Y352467D02*
D03*
X456514Y357467D02*
D03*
X400214D02*
D03*
D37*
X428364Y337467D02*
D03*
D38*
X494139Y312777D02*
D03*
X484741D02*
D03*
X475343D02*
D03*
Y336145D02*
D03*
X494139D02*
D03*
M02*
