G04*
G04 #@! TF.GenerationSoftware,Altium Limited,Altium Designer,21.0.9 (235)*
G04*
G04 Layer_Color=16711935*
%FSLAX44Y44*%
%MOMM*%
G71*
G04*
G04 #@! TF.SameCoordinates,44F510CF-A20F-4482-AB1E-84DE8B2B5685*
G04*
G04*
G04 #@! TF.FilePolarity,Positive*
G04*
G01*
G75*
%ADD14C,0.0000*%
%ADD15C,0.1270*%
%ADD18C,0.1000*%
%ADD71C,0.3048*%
%ADD72C,0.0254*%
D14*
X191708Y341355D02*
G03*
X191708Y347451I0J3048D01*
G01*
X200361Y332465D02*
G03*
X200361Y332465I381J0D01*
G01*
X233708Y341355D02*
G03*
X233708Y347451I0J3048D01*
G01*
X242361Y332465D02*
G03*
X242361Y332465I381J0D01*
G01*
D15*
X333936Y305371D02*
X333936Y370371D01*
X300336Y305371D02*
X300336Y370371D01*
X333936Y305371D02*
X300336Y305371D01*
X333936Y370371D02*
X300336Y370371D01*
D18*
X622410Y275278D02*
X613410D01*
X622410Y292278D02*
X613410D01*
X622410Y275278D02*
Y292278D01*
X613410Y275278D02*
Y292278D01*
X580751Y275278D02*
X571751D01*
X580751Y292278D02*
X571751D01*
X580751Y275278D02*
Y292278D01*
X571751Y275278D02*
Y292278D01*
X601581D02*
X592580D01*
X601581Y275278D02*
X592580D01*
Y292278D01*
X601581Y275278D02*
Y292278D01*
X622410Y402734D02*
X613410D01*
X622410Y385734D02*
X613410D01*
Y402734D01*
X622410Y385734D02*
Y402734D01*
X643240Y385734D02*
Y402734D01*
X634240Y385734D02*
Y402734D01*
X643240Y385734D02*
X634240D01*
X643240Y402734D02*
X634240D01*
X601581Y385734D02*
X592581D01*
X601581Y402734D02*
X592581D01*
X601581Y385734D02*
Y402734D01*
X592581Y385734D02*
Y402734D01*
X313340Y371722D02*
Y388722D01*
X322340Y371722D02*
Y388722D01*
X313340D01*
X322340Y371722D02*
X313340D01*
X248998Y299453D02*
X231998D01*
X248998Y290453D02*
X231998D01*
X248998D02*
Y299453D01*
X231998Y290453D02*
Y299453D01*
X248998Y305350D02*
X231998D01*
X248998Y314350D02*
X231998D01*
Y305350D02*
Y314350D01*
X248998Y305350D02*
Y314350D01*
Y335143D02*
X231998D01*
X248998Y344143D02*
X231998D01*
Y335143D02*
Y344143D01*
X248998Y335143D02*
Y344143D01*
Y359040D02*
X231998D01*
X248998Y350040D02*
X231998D01*
X248998D02*
Y359040D01*
X231998Y350040D02*
Y359040D01*
X248998Y379834D02*
X231998D01*
X248998Y388834D02*
X231998D01*
Y379834D02*
Y388834D01*
X248998Y379834D02*
Y388834D01*
Y403730D02*
X231998D01*
X248998Y394730D02*
X231998D01*
X248998D02*
Y403730D01*
X231998Y394730D02*
Y403730D01*
X284673Y299453D02*
X267673D01*
X284673Y290453D02*
X267673D01*
X284673D02*
Y299453D01*
X267673Y290453D02*
Y299453D01*
X284673Y305350D02*
Y314350D01*
X267673Y305350D02*
Y314350D01*
X284673D02*
X267673D01*
X284673Y305350D02*
X267673D01*
X284673Y335143D02*
X267673D01*
X284673Y344143D02*
X267673D01*
Y335143D02*
Y344143D01*
X284673Y335143D02*
Y344143D01*
Y350040D02*
X267673D01*
X284673Y359040D02*
X267673D01*
Y350040D02*
Y359040D01*
X284673Y350040D02*
Y359040D01*
Y379834D02*
X267673D01*
X284673Y388834D02*
X267673D01*
Y379834D02*
Y388834D01*
X284673Y379834D02*
Y388834D01*
X366442Y388677D02*
X349442D01*
X366442Y379677D02*
X349442D01*
X366442D02*
Y388677D01*
X349442Y379677D02*
Y388677D01*
X248468Y284034D02*
X231468D01*
X248468Y275034D02*
X231468D01*
X248468D02*
Y284034D01*
X231468Y275034D02*
Y284034D01*
X349442Y319465D02*
Y328465D01*
X366442Y319465D02*
Y328465D01*
Y319465D02*
X349442D01*
X366442Y328465D02*
X349442D01*
X326171Y393847D02*
X309171D01*
X326171Y402847D02*
X309171D01*
Y393847D02*
Y402847D01*
X326171Y393847D02*
Y402847D01*
X366442Y358571D02*
X349442D01*
X366442Y349571D02*
X349442D01*
X366442D02*
Y358571D01*
X349442Y349571D02*
Y358571D01*
X448240Y402758D02*
X439240D01*
X448240Y385759D02*
X439240D01*
Y402758D01*
X448240Y385759D02*
Y402758D01*
X267673Y394730D02*
Y403731D01*
X284673Y394730D02*
Y403731D01*
Y394730D02*
X267673D01*
X284673Y403731D02*
X267673D01*
X366442Y304412D02*
Y313412D01*
X349442Y304412D02*
Y313412D01*
X366442D02*
X349442D01*
X366442Y304412D02*
X349442D01*
X366442Y298359D02*
X349442D01*
X366442Y289359D02*
X349442D01*
X366442D02*
Y298359D01*
X349442Y289359D02*
Y298359D01*
X366442Y373624D02*
X349442D01*
X366442Y364624D02*
X349442D01*
X366442D02*
Y373624D01*
X349442Y364624D02*
Y373624D01*
Y394730D02*
Y403731D01*
X366442Y394730D02*
Y403731D01*
Y394730D02*
X349442D01*
X366442Y403731D02*
X349442D01*
Y334518D02*
Y343518D01*
X366442Y334518D02*
Y343518D01*
Y334518D02*
X349442D01*
X366442Y343518D02*
X349442D01*
X285203Y273578D02*
X268203D01*
X285203Y282578D02*
X268203D01*
Y273578D02*
Y282578D01*
X285203Y273578D02*
Y282578D01*
D71*
X516232Y293292D02*
Y345108D01*
X568048Y293292D02*
Y345108D01*
X516232D01*
X568048Y293292D02*
X516232D01*
D72*
X331385Y340970D02*
X318685Y353670D01*
X331385Y322174D02*
X299889D01*
Y353670D01*
X331385D02*
X299889D01*
X331385Y322174D02*
Y353670D01*
X227776Y329925D02*
X191708D01*
Y358881D01*
X227776D02*
X191708D01*
X227776Y329925D02*
Y358881D01*
X269776Y329925D02*
X233708D01*
Y358881D01*
X269776D02*
X233708D01*
X269776Y329925D02*
Y358881D01*
M02*
