G04*
G04 #@! TF.GenerationSoftware,Altium Limited,Altium Designer,21.0.9 (235)*
G04*
G04 Layer_Physical_Order=1*
G04 Layer_Color=255*
%FSLAX44Y44*%
%MOMM*%
G71*
G04*
G04 #@! TF.SameCoordinates,44F510CF-A20F-4482-AB1E-84DE8B2B5685*
G04*
G04*
G04 #@! TF.FilePolarity,Positive*
G04*
G01*
G75*
%ADD11C,0.4000*%
%ADD12C,0.2000*%
%ADD17C,0.5000*%
%ADD19R,0.8500X0.6000*%
%ADD20R,0.6000X0.8500*%
%ADD21R,1.9050X2.7940*%
%ADD22C,1.5240*%
%ADD23C,0.7000*%
%ADD24R,0.4000X2.0000*%
%ADD25R,0.2600X1.0800*%
%ADD26R,0.7080X0.2548*%
%ADD27R,0.2548X0.7080*%
%ADD28R,1.7526X1.7526*%
%ADD29R,3.5000X1.2000*%
G04:AMPARAMS|DCode=30|XSize=1.2mm|YSize=3.5mm|CornerRadius=0.3mm|HoleSize=0mm|Usage=FLASHONLY|Rotation=90.000|XOffset=0mm|YOffset=0mm|HoleType=Round|Shape=RoundedRectangle|*
%AMROUNDEDRECTD30*
21,1,1.2000,2.9000,0,0,90.0*
21,1,0.6000,3.5000,0,0,90.0*
1,1,0.6000,1.4500,0.3000*
1,1,0.6000,1.4500,-0.3000*
1,1,0.6000,-1.4500,-0.3000*
1,1,0.6000,-1.4500,0.3000*
%
%ADD30ROUNDEDRECTD30*%
%ADD31R,3.0000X2.1300*%
%ADD32R,0.6000X1.9700*%
%ADD33R,2.2000X2.3000*%
G04:AMPARAMS|DCode=34|XSize=3.4mm|YSize=3.4mm|CornerRadius=0.85mm|HoleSize=0mm|Usage=FLASHONLY|Rotation=0.000|XOffset=0mm|YOffset=0mm|HoleType=Round|Shape=RoundedRectangle|*
%AMROUNDEDRECTD34*
21,1,3.4000,1.7000,0,0,0.0*
21,1,1.7000,3.4000,0,0,0.0*
1,1,1.7000,0.8500,-0.8500*
1,1,1.7000,-0.8500,-0.8500*
1,1,1.7000,-0.8500,0.8500*
1,1,1.7000,0.8500,0.8500*
%
%ADD34ROUNDEDRECTD34*%
%ADD35C,3.4000*%
%ADD36R,1.0800X0.2600*%
%ADD37R,3.7000X3.7000*%
%ADD38R,0.5588X1.3208*%
%ADD59C,0.1700*%
%ADD60C,0.3000*%
%ADD61R,1.8800X7.3450*%
%ADD62R,1.0000X1.0000*%
%ADD63C,1.0000*%
%ADD64C,1.5000*%
G36*
X658771Y403425D02*
X659368Y402808D01*
X660308Y401701D01*
X660650Y401212D01*
X660908Y400766D01*
X661081Y400364D01*
X661169Y400004D01*
X661172Y399687D01*
X661090Y399413D01*
X660923Y399183D01*
X665135Y403395D01*
X664905Y403228D01*
X664631Y403147D01*
X664314Y403150D01*
X663955Y403237D01*
X663552Y403410D01*
X663106Y403668D01*
X662617Y404010D01*
X662085Y404438D01*
X660893Y405547D01*
X658771Y403425D01*
D02*
G37*
G36*
X642960Y397486D02*
X643449Y397410D01*
Y396706D01*
X644399Y396689D01*
X645999Y396551D01*
X646649Y396431D01*
X647199Y396276D01*
X647649Y396087D01*
X647999Y395863D01*
X648249Y395606D01*
X648399Y395313D01*
X648449Y394986D01*
Y403425D01*
X648399Y403099D01*
X648249Y402807D01*
X647999Y402548D01*
X647649Y402325D01*
X647199Y402136D01*
X646649Y401981D01*
X645999Y401861D01*
X645746Y401832D01*
X645410Y401861D01*
X644760Y401981D01*
X644210Y402136D01*
X643760Y402325D01*
X643410Y402548D01*
X643160Y402807D01*
X643010Y403099D01*
X642960Y403425D01*
Y397486D01*
D02*
G37*
G36*
X620601Y405281D02*
X620341Y405061D01*
X620080Y404866D01*
X619819Y404697D01*
X619557Y404553D01*
X619295Y404436D01*
X619032Y404344D01*
X618768Y404277D01*
X618503Y404236D01*
X618238Y404221D01*
X621767Y400822D01*
X621773Y401088D01*
X621805Y401353D01*
X621864Y401618D01*
X621950Y401881D01*
X622062Y402145D01*
X622202Y402407D01*
X622368Y402669D01*
X622560Y402930D01*
X622779Y403190D01*
X623025Y403450D01*
X620860Y405527D01*
X620601Y405281D01*
D02*
G37*
G36*
X360488Y404157D02*
X359781Y403450D01*
X360179Y403037D01*
X360808Y402298D01*
X361037Y401972D01*
X361210Y401675D01*
X361326Y401406D01*
X361386Y401167D01*
X361389Y400956D01*
X361335Y400774D01*
X361225Y400622D01*
X362624Y402020D01*
X364164Y400480D01*
Y399230D01*
X366345Y397050D01*
X365555Y395011D01*
X365655Y395180D01*
X365795Y395281D01*
X365976Y395312D01*
X366197Y395274D01*
X366460Y395167D01*
X366763Y394991D01*
X367107Y394746D01*
X367492Y394432D01*
X368384Y393597D01*
X368466Y394929D01*
X384970Y378424D01*
D01*
X396050Y367345D01*
X395362Y366657D01*
X401490Y360530D01*
X408330D01*
X408392Y360592D01*
Y367799D01*
X408420Y369690D01*
X396892Y381218D01*
Y400318D01*
X390075Y407136D01*
X357509D01*
X360488Y404157D01*
D02*
G37*
G36*
X447960Y400230D02*
X443990D01*
X450100Y394120D01*
Y384177D01*
X478460D01*
X478209Y384427D01*
Y388397D01*
X481429D01*
X481340Y388447D01*
X481260Y388597D01*
X481189Y388847D01*
X481129Y389197D01*
X481077Y389647D01*
X480990Y391370D01*
X481189Y394561D01*
X481260Y394811D01*
X481340Y394961D01*
X481429Y395011D01*
X478209D01*
Y400230D01*
X475502D01*
X475490Y403450D01*
X475440Y403361D01*
X475290Y403281D01*
X475040Y403211D01*
X474690Y403149D01*
X474240Y403098D01*
X472290Y402999D01*
X470490Y402980D01*
Y400230D01*
X456200D01*
X452900Y402980D01*
X451962Y402985D01*
X448405Y403211D01*
X448157Y403281D01*
X448009Y403361D01*
X447960Y403450D01*
Y400230D01*
D02*
G37*
G36*
X571981Y403341D02*
X571831Y403265D01*
X571581Y403199D01*
X571231Y403141D01*
X570781Y403092D01*
X568831Y402998D01*
X567031Y402980D01*
Y397980D01*
X567981Y397976D01*
X571581Y397738D01*
X571831Y397664D01*
X571981Y397580D01*
X572031Y397486D01*
Y403425D01*
X571981Y403341D01*
D02*
G37*
G36*
X266992Y401040D02*
X266931Y400871D01*
X266830Y400720D01*
X266688Y400591D01*
X266505Y400480D01*
X266281Y400391D01*
X266017Y400321D01*
X265713Y400271D01*
X265368Y400241D01*
X264982Y400230D01*
Y398231D01*
X265368Y398220D01*
X265713Y398190D01*
X266017Y398140D01*
X266281Y398070D01*
X266505Y397980D01*
X266688Y397870D01*
X266830Y397741D01*
X266931Y397590D01*
X266992Y397421D01*
X267012Y397230D01*
Y401231D01*
X266992Y401040D01*
D02*
G37*
G36*
X593114Y400304D02*
X593239Y400074D01*
X593267Y399789D01*
X593198Y399447D01*
X593031Y399051D01*
X592768Y398599D01*
X592407Y398091D01*
X591948Y397529D01*
X590740Y396236D01*
X594111Y395365D01*
X594673Y395906D01*
X595705Y396771D01*
X596176Y397095D01*
X596615Y397347D01*
X597024Y397525D01*
X597402Y397632D01*
X597750Y397666D01*
X598067Y397628D01*
X598354Y397517D01*
X592892Y400479D01*
X593114Y400304D01*
D02*
G37*
G36*
X234417Y395011D02*
X234573Y395124D01*
X234757Y395181D01*
X234969D01*
X235209Y395124D01*
X235478Y395011D01*
X235775Y394841D01*
X236100Y394615D01*
X236454Y394332D01*
X237246Y393597D01*
X238660Y395011D01*
X238264Y395421D01*
X237642Y396156D01*
X237416Y396482D01*
X237246Y396779D01*
X237133Y397047D01*
X237076Y397288D01*
Y397500D01*
X237133Y397684D01*
X237246Y397839D01*
X234417Y395011D01*
D02*
G37*
G36*
X288639Y391130D02*
X294499Y391130D01*
X309550Y406180D01*
X303121Y406180D01*
X288639Y391130D01*
D02*
G37*
G36*
X335880Y406080D02*
X331922D01*
X332320Y406700D01*
X332130Y406510D01*
X326380D01*
Y406120D01*
X329720Y402780D01*
Y390760D01*
X337530Y398435D01*
X337812Y397891D01*
X345860Y406080D01*
X339181D01*
X337530Y407180D01*
X335880Y406080D01*
D02*
G37*
G36*
X349910Y395021D02*
X350080Y394960D01*
X350230Y394859D01*
X350360Y394717D01*
X350470Y394534D01*
X350560Y394310D01*
X350630Y394047D01*
X350680Y393742D01*
X350699Y393523D01*
X350663Y393537D01*
X350394Y393682D01*
X350136Y393858D01*
X349891Y394067D01*
X349658Y394308D01*
X349437Y394581D01*
X349228Y394886D01*
X348201Y390095D01*
X348556Y390320D01*
X349243Y390699D01*
X349575Y390854D01*
X349900Y390984D01*
X350217Y391091D01*
X350527Y391174D01*
X350829Y391233D01*
X351124Y391269D01*
X351411Y391281D01*
X351800Y393011D01*
X352720D01*
X352730Y393397D01*
X352760Y393742D01*
X352810Y394047D01*
X352880Y394310D01*
X352970Y394534D01*
X353080Y394717D01*
X353210Y394859D01*
X353360Y394960D01*
X353530Y395021D01*
X353720Y395041D01*
X349720D01*
X349910Y395021D01*
D02*
G37*
G36*
X601300Y385042D02*
X601350Y385132D01*
X601500Y385211D01*
X601750Y385282D01*
X602100Y385343D01*
X602550Y385395D01*
X603872Y385462D01*
X604064Y385457D01*
X605362Y385360D01*
X605878Y385294D01*
X606307Y385215D01*
X606648Y385124D01*
X606901Y385021D01*
X607066Y384906D01*
X607495Y388012D01*
Y390512D01*
X606300Y389522D01*
Y390512D01*
X605350Y390517D01*
X601750Y390742D01*
X601500Y390812D01*
X601350Y390892D01*
X601300Y390981D01*
Y385042D01*
D02*
G37*
G36*
X243839Y394979D02*
X243917Y394883D01*
X243986Y394723D01*
X244047Y394498D01*
X244097Y394210D01*
X244139Y393858D01*
X244195Y392961D01*
X244212Y391843D01*
X244208Y391283D01*
X244047Y389092D01*
X243986Y388856D01*
X243917Y388688D01*
X243839Y388587D01*
X243751Y388553D01*
X249690D01*
X249599Y388587D01*
X249518Y388688D01*
X249447Y388856D01*
X249385Y389092D01*
X249332Y389395D01*
X249289Y389766D01*
X249232Y390710D01*
X249214Y391884D01*
X249218Y392416D01*
X249332Y394210D01*
X249385Y394498D01*
X249447Y394723D01*
X249518Y394883D01*
X249599Y394979D01*
X249690Y395011D01*
X243751D01*
X243839Y394979D01*
D02*
G37*
G36*
X573399Y385073D02*
X573814Y385325D01*
X574293Y385441D01*
X574837Y385422D01*
X575447Y385268D01*
X576122Y384979D01*
X576861Y384555D01*
X577666Y383996D01*
X578536Y383301D01*
X580470Y381507D01*
X584006Y385042D01*
X583334Y385738D01*
X582203Y387062D01*
X581743Y387690D01*
X581354Y388295D01*
X581036Y388878D01*
X580788Y389437D01*
X580612Y389975D01*
X580506Y390490D01*
X580470Y390981D01*
X573399Y385073D01*
D02*
G37*
G36*
X439531Y388419D02*
X439473Y388273D01*
X439378Y388144D01*
X439245Y388033D01*
X439075Y387938D01*
X438867Y387861D01*
X438622Y387801D01*
X438340Y387758D01*
X438019Y387732D01*
X437662Y387724D01*
Y385724D01*
X438015Y385717D01*
X438610Y385664D01*
X438852Y385619D01*
X439056Y385560D01*
X439223Y385487D01*
X439353Y385402D01*
X439446Y385303D01*
X439502Y385192D01*
X439521Y385067D01*
X439551Y388582D01*
X439531Y388419D01*
D02*
G37*
G36*
X613641Y390892D02*
X613491Y390812D01*
X613241Y390742D01*
X612891Y390681D01*
X612441Y390629D01*
X610491Y390531D01*
X608691Y390512D01*
Y385512D01*
X609641Y385507D01*
X613241Y385282D01*
X613491Y385211D01*
X613641Y385132D01*
X613691Y385042D01*
Y390981D01*
X613641Y390892D01*
D02*
G37*
G36*
X322029Y384444D02*
X322050Y384634D01*
X322111Y384804D01*
X322212Y384954D01*
X322354Y385084D01*
X322537Y385194D01*
X322760Y385284D01*
X323024Y385354D01*
X323329Y385404D01*
X323674Y385434D01*
X324060Y385444D01*
Y387444D01*
X323674Y387454D01*
X323329Y387484D01*
X323024Y387534D01*
X322760Y387604D01*
X322537Y387694D01*
X322354Y387804D01*
X322212Y387934D01*
X322111Y388084D01*
X322050Y388254D01*
X322029Y388444D01*
Y384444D01*
D02*
G37*
G36*
X403002Y384184D02*
X403155Y384295D01*
X403337Y384348D01*
X403547Y384345D01*
X403787Y384285D01*
X404055Y384169D01*
X404352Y383997D01*
X404679Y383767D01*
X405034Y383481D01*
X405830Y382740D01*
X407245Y384154D01*
X406846Y384567D01*
X406217Y385306D01*
X405988Y385632D01*
X405815Y385929D01*
X405699Y386198D01*
X405639Y386437D01*
X405636Y386648D01*
X405690Y386830D01*
X405800Y386982D01*
X403002Y384184D01*
D02*
G37*
G36*
X426032Y386830D02*
X426086Y386648D01*
X426082Y386437D01*
X426023Y386198D01*
X425907Y385929D01*
X425734Y385632D01*
X425505Y385306D01*
X425219Y384951D01*
X424477Y384154D01*
X425891Y382740D01*
X426304Y383139D01*
X427043Y383767D01*
X427370Y383997D01*
X427667Y384169D01*
X427935Y384285D01*
X428175Y384345D01*
X428385Y384348D01*
X428567Y384295D01*
X428720Y384184D01*
X425922Y386982D01*
X426032Y386830D01*
D02*
G37*
G36*
X367134Y381809D02*
X367152Y381972D01*
X367208Y382118D01*
X367301Y382247D01*
X367431Y382358D01*
X367598Y382453D01*
X367803Y382530D01*
X368045Y382590D01*
X368323Y382633D01*
X368639Y382659D01*
X368993Y382668D01*
Y384668D01*
X368639Y384676D01*
X368323Y384702D01*
X368045Y384745D01*
X367803Y384805D01*
X367598Y384882D01*
X367431Y384977D01*
X367301Y385089D01*
X367208Y385217D01*
X367152Y385363D01*
X367134Y385527D01*
Y381809D01*
D02*
G37*
G36*
X298930Y383232D02*
X299100Y383172D01*
X299250Y383073D01*
X299380Y382933D01*
X299490Y382752D01*
X299580Y382533D01*
X299650Y382272D01*
X299700Y381973D01*
X299730Y381632D01*
X299740Y381253D01*
X301740D01*
X301750Y381632D01*
X301780Y381973D01*
X301830Y382272D01*
X301900Y382533D01*
X301990Y382752D01*
X302100Y382933D01*
X302230Y383073D01*
X302380Y383172D01*
X302550Y383232D01*
X302740Y383252D01*
X298740D01*
X298930Y383232D01*
D02*
G37*
G36*
X295254Y386081D02*
X295302Y385893D01*
X295295Y385679D01*
X295233Y385437D01*
X295116Y385168D01*
X294944Y384871D01*
X294717Y384548D01*
X294435Y384196D01*
X293706Y383412D01*
X294797Y382044D01*
X291971Y380262D01*
X290971Y377848D01*
X291260Y378117D01*
X291560Y378357D01*
X291872Y378569D01*
X292196Y378753D01*
X292532Y378909D01*
X292879Y379036D01*
X293238Y379135D01*
X293608Y379206D01*
X293991Y379248D01*
X294385Y379262D01*
X296385Y381262D01*
X296019Y381276D01*
X295722Y381319D01*
X295492Y381390D01*
X295331Y381488D01*
X295239Y381616D01*
X295214Y381771D01*
X295258Y381955D01*
X295370Y382167D01*
X295511Y382355D01*
X296130Y382882D01*
X296458Y383114D01*
X296756Y383287D01*
X297024Y383403D01*
X297261Y383460D01*
X297468Y383459D01*
X297644Y383400D01*
X297789Y383283D01*
X295151Y386241D01*
X295254Y386081D01*
D02*
G37*
G36*
X251890Y380646D02*
X251843Y380341D01*
X251764Y380045D01*
X251654Y379758D01*
X251513Y379481D01*
X251340Y379212D01*
X251136Y378953D01*
X250900Y378703D01*
X250632Y378462D01*
X250334Y378231D01*
X255179Y377498D01*
X254937Y377834D01*
X254529Y378491D01*
X254364Y378813D01*
X254224Y379130D01*
X254109Y379442D01*
X254020Y379750D01*
X253957Y380053D01*
X253918Y380351D01*
X253906Y380644D01*
X251906Y380960D01*
X251890Y380646D01*
D02*
G37*
G36*
X661337Y381282D02*
X661262Y380410D01*
X661137Y379644D01*
X660962Y378982D01*
X660737Y378427D01*
X660462Y377976D01*
X660137Y377631D01*
X659762Y377392D01*
X659337Y377258D01*
X658862Y377229D01*
X668853Y376745D01*
X668380Y376822D01*
X667957Y377004D01*
X667583Y377290D01*
X667259Y377682D01*
X666985Y378179D01*
X666761Y378781D01*
X666586Y379487D01*
X666462Y380299D01*
X666387Y381216D01*
X666362Y382238D01*
X661362Y382260D01*
X661337Y381282D01*
D02*
G37*
G36*
X454351Y380780D02*
X454052Y380540D01*
X453753Y380329D01*
X453453Y380145D01*
X453153Y379990D01*
X452853Y379863D01*
X452551Y379764D01*
X452249Y379693D01*
X451947Y379651D01*
X451644Y379637D01*
X451568Y377637D01*
X451876Y377622D01*
X452180Y377577D01*
X452481Y377503D01*
X452777Y377399D01*
X453069Y377265D01*
X453357Y377102D01*
X453642Y376909D01*
X453922Y376686D01*
X454199Y376434D01*
X454471Y376152D01*
X454649Y381049D01*
X454351Y380780D01*
D02*
G37*
G36*
X356946Y378694D02*
X356886Y378354D01*
X356786Y378054D01*
X356646Y377794D01*
X356466Y377574D01*
X356246Y377394D01*
X355986Y377254D01*
X355686Y377154D01*
X355346Y377094D01*
X354966Y377074D01*
X357966Y375074D01*
X360966Y377074D01*
X360586Y377094D01*
X360246Y377154D01*
X359946Y377254D01*
X359686Y377394D01*
X359466Y377574D01*
X359286Y377794D01*
X359146Y378054D01*
X359046Y378354D01*
X358986Y378694D01*
X358966Y379074D01*
X356966D01*
X356946Y378694D01*
D02*
G37*
G36*
X313581Y376870D02*
X313491Y376795D01*
X313485Y376791D01*
X313319Y376717D01*
X313084Y376653D01*
X312782Y376598D01*
X312412Y376554D01*
X311472Y376494D01*
X310264Y376474D01*
Y376404D01*
X310059Y376395D01*
X309223Y376389D01*
Y374261D01*
X308560D01*
Y376389D01*
X307610Y376393D01*
X303760Y376618D01*
X303610Y376679D01*
X303560Y376748D01*
Y370808D01*
X303610Y370919D01*
X303760Y371017D01*
X304010Y371105D01*
X304360Y371180D01*
X304810Y371244D01*
X306010Y371337D01*
X307764Y371373D01*
X307764Y357394D01*
X317055Y366685D01*
X332566D01*
Y366922D01*
X325228Y374261D01*
X324504D01*
Y374974D01*
X324014Y374984D01*
X323111Y375061D01*
X322913Y375094D01*
X322760Y375134D01*
X322537Y375224D01*
X322354Y375334D01*
X322212Y375464D01*
X322111Y375614D01*
X322050Y375784D01*
X322029Y375974D01*
Y375299D01*
X321949Y375322D01*
X321613Y375448D01*
X321302Y375593D01*
X321017Y375758D01*
X320757Y375941D01*
Y374261D01*
X313621D01*
Y376969D01*
X313581Y376870D01*
D02*
G37*
G36*
X340560Y376748D02*
X340529Y374074D01*
X340552Y374264D01*
X340614Y374434D01*
X340717Y374584D01*
X340860Y374714D01*
X341043Y374824D01*
X341266Y374914D01*
X341529Y374984D01*
X341833Y375034D01*
X342176Y375064D01*
X342560Y375074D01*
Y377074D01*
X340560Y376748D01*
D02*
G37*
G36*
X267071Y380064D02*
X267151Y379914D01*
X267221Y379664D01*
X267282Y379314D01*
X267334Y378864D01*
X267417Y377228D01*
X267221Y374106D01*
X267151Y373856D01*
X267071Y373706D01*
X266982Y373656D01*
X272921D01*
X272832Y373706D01*
X272752Y373856D01*
X272682Y374106D01*
X272621Y374456D01*
X272569Y374906D01*
X272486Y376542D01*
X272682Y379664D01*
X272752Y379914D01*
X272832Y380064D01*
X272921Y380114D01*
X266982D01*
X267071Y380064D01*
D02*
G37*
G36*
X412361Y372607D02*
X412267Y371307D01*
X412232Y371167D01*
X412191Y371067D01*
X412146Y371007D01*
X412094Y370987D01*
X414633D01*
X414582Y371007D01*
X414536Y371067D01*
X414496Y371167D01*
X414461Y371307D01*
X414431Y371487D01*
X414407Y371707D01*
X414367Y372607D01*
X414364Y372987D01*
X412364D01*
X412361Y372607D01*
D02*
G37*
G36*
X417361D02*
X417267Y371307D01*
X417232Y371167D01*
X417191Y371067D01*
X417146Y371007D01*
X417094Y370987D01*
X419633D01*
X419582Y371007D01*
X419536Y371067D01*
X419496Y371167D01*
X419461Y371307D01*
X419431Y371487D01*
X419407Y371707D01*
X419367Y372607D01*
X419364Y372987D01*
X417364D01*
X417361Y372607D01*
D02*
G37*
G36*
X422428Y372207D02*
X422377Y371529D01*
X422347Y371363D01*
X422310Y371228D01*
X422266Y371122D01*
X422216Y371047D01*
X422158Y371002D01*
X422094Y370987D01*
X424633D01*
X424595Y371002D01*
X424561Y371047D01*
X424530Y371122D01*
X424504Y371228D01*
X424482Y371363D01*
X424463Y371529D01*
X424433Y372207D01*
X424431Y372493D01*
X422431D01*
X422428Y372207D01*
D02*
G37*
G36*
X432361Y372607D02*
X432267Y371307D01*
X432232Y371167D01*
X432191Y371067D01*
X432146Y371007D01*
X432094Y370987D01*
X434633D01*
X434582Y371007D01*
X434536Y371067D01*
X434496Y371167D01*
X434461Y371307D01*
X434431Y371487D01*
X434407Y371707D01*
X434367Y372607D01*
X434364Y372987D01*
X432364D01*
X432361Y372607D01*
D02*
G37*
G36*
X437361D02*
X437267Y371307D01*
X437232Y371167D01*
X437191Y371067D01*
X437146Y371007D01*
X437094Y370987D01*
X439633D01*
X439582Y371007D01*
X439536Y371067D01*
X439496Y371167D01*
X439461Y371307D01*
X439431Y371487D01*
X439407Y371707D01*
X439367Y372607D01*
X439364Y372987D01*
X437364D01*
X437361Y372607D01*
D02*
G37*
G36*
X442439Y372197D02*
X442387Y371525D01*
X442355Y371360D01*
X442317Y371226D01*
X442272Y371121D01*
X442220Y371046D01*
X442160Y371002D01*
X442094Y370987D01*
X444633D01*
X444597Y371002D01*
X444565Y371046D01*
X444536Y371121D01*
X444511Y371226D01*
X444490Y371360D01*
X444459Y371719D01*
X444444Y372197D01*
X444442Y372481D01*
X442442D01*
X442439Y372197D01*
D02*
G37*
G36*
X236836Y374675D02*
X236100Y374052D01*
X235775Y373826D01*
X235478Y373656D01*
X235209Y373543D01*
X234969Y373487D01*
X234757D01*
X234573Y373543D01*
X234417Y373656D01*
X234914Y373160D01*
X234493Y372918D01*
X233808Y372571D01*
X236320Y371754D01*
X237246Y370828D01*
X237133Y370984D01*
X237076Y371167D01*
Y371379D01*
X237104Y371498D01*
X238393Y371079D01*
X238251Y371376D01*
X238149Y371666D01*
X238087Y371951D01*
X238066Y372230D01*
X238085Y372504D01*
X238144Y372771D01*
X238244Y373032D01*
X238384Y373288D01*
X238564Y373537D01*
X238784Y373781D01*
X238442Y373874D01*
X237246Y375070D01*
X236836Y374675D01*
D02*
G37*
G36*
X452630Y372281D02*
X452836Y372055D01*
X453019Y371811D01*
X453182Y371547D01*
X453323Y371264D01*
X453443Y370962D01*
X453542Y370640D01*
X453619Y370299D01*
X453675Y369939D01*
X453710Y369560D01*
X453724Y369162D01*
X457128Y372685D01*
X456734Y372686D01*
X456358Y372709D01*
X456000Y372756D01*
X455662Y372825D01*
X455341Y372917D01*
X455040Y373032D01*
X454757Y373169D01*
X454492Y373330D01*
X454246Y373514D01*
X454019Y373720D01*
X452630Y372281D01*
D02*
G37*
G36*
X249533Y376314D02*
X247294Y374379D01*
X246700Y373967D01*
X246182Y373671D01*
X245741Y373493D01*
X245375Y373431D01*
X245086Y373485D01*
X244872Y373656D01*
X249690Y367356D01*
X249577Y367628D01*
X249591Y367985D01*
X249731Y368429D01*
X249996Y368957D01*
X250388Y369572D01*
X250906Y370272D01*
X252320Y371928D01*
X254237Y373927D01*
X250431Y377192D01*
X249533Y376314D01*
D02*
G37*
G36*
X367134Y367124D02*
X367154Y367314D01*
X367214Y367484D01*
X367314Y367634D01*
X367454Y367764D01*
X367634Y367874D01*
X367854Y367964D01*
X368114Y368034D01*
X368414Y368084D01*
X368754Y368114D01*
X369134Y368124D01*
Y370124D01*
X368754Y370134D01*
X368414Y370164D01*
X368114Y370214D01*
X367854Y370284D01*
X367634Y370374D01*
X367454Y370484D01*
X367314Y370614D01*
X367214Y370764D01*
X367154Y370934D01*
X367134Y371124D01*
Y367124D01*
D02*
G37*
G36*
X595885Y374020D02*
X596876Y372994D01*
X598434Y371155D01*
X599002Y370341D01*
X599430Y369599D01*
X599716Y368927D01*
X599861Y368326D01*
X599865Y367796D01*
X599729Y367337D01*
X599451Y366949D01*
X605360Y372944D01*
X605072Y372979D01*
X604740Y373085D01*
X604364Y373262D01*
X603944Y373510D01*
X603480Y373828D01*
X602419Y374676D01*
X601181Y375808D01*
X600496Y376479D01*
X595885Y374020D01*
D02*
G37*
G36*
X231260Y388226D02*
X231120Y387934D01*
X230886Y387676D01*
X230558Y387453D01*
X230138Y387263D01*
X229623Y387109D01*
X229015Y386988D01*
X228313Y386902D01*
X227518Y386851D01*
X226630Y386834D01*
Y384334D01*
X217014D01*
X215048Y382368D01*
X213481D01*
X212769Y381690D01*
X212057Y381084D01*
X211347Y380549D01*
X210638Y380085D01*
X209931Y379693D01*
X209224Y379372D01*
X208519Y379122D01*
X207815Y378944D01*
X207112Y378837D01*
X206410Y378801D01*
X211482D01*
X205000Y372320D01*
X205010Y371910D01*
X210060Y366860D01*
X227800D01*
Y376630D01*
X231304Y380134D01*
X231307Y380114D01*
Y380136D01*
X235504Y384334D01*
X231307D01*
Y388553D01*
X231260Y388226D01*
D02*
G37*
G36*
X348761Y369460D02*
X348700Y369290D01*
X348599Y369140D01*
X348456Y369010D01*
X348274Y368900D01*
X348050Y368810D01*
X347786Y368740D01*
X347482Y368690D01*
X347136Y368660D01*
X346751Y368650D01*
Y366650D01*
X347136Y366640D01*
X347482Y366610D01*
X347786Y366560D01*
X348050Y366490D01*
X348274Y366400D01*
X348456Y366290D01*
X348599Y366160D01*
X348700Y366010D01*
X348761Y365840D01*
X348781Y365650D01*
Y369650D01*
X348761Y369460D01*
D02*
G37*
G36*
X351861Y364905D02*
X352017Y365018D01*
X352201Y365075D01*
X352413D01*
X352653Y365018D01*
X352922Y364905D01*
X353219Y364735D01*
X353544Y364509D01*
X353898Y364226D01*
X354690Y363491D01*
X356104Y364905D01*
X355708Y365315D01*
X355086Y366050D01*
X354860Y366376D01*
X354690Y366673D01*
X354577Y366941D01*
X354520Y367182D01*
Y367394D01*
X354577Y367578D01*
X354690Y367733D01*
X351861Y364905D01*
D02*
G37*
G36*
X463854Y369364D02*
X463449Y368270D01*
X463299Y367951D01*
X462974Y367381D01*
X462800Y367131D01*
X462618Y366903D01*
X462429Y366698D01*
X463420Y364861D01*
X463658Y365076D01*
X463908Y365257D01*
X464171Y365404D01*
X464446Y365518D01*
X464734Y365598D01*
X465034Y365645D01*
X465347Y365658D01*
X465672Y365637D01*
X466009Y365582D01*
X466359Y365494D01*
X463973Y369774D01*
X463854Y369364D01*
D02*
G37*
G36*
X472656Y367725D02*
X472592Y367468D01*
X472505Y367210D01*
X472395Y366952D01*
X472262Y366695D01*
X472107Y366437D01*
X471928Y366179D01*
X471727Y365921D01*
X471504Y365663D01*
X471257Y365405D01*
X473078Y362984D01*
X473339Y363230D01*
X473601Y363446D01*
X473862Y363633D01*
X474124Y363790D01*
X474386Y363918D01*
X474648Y364015D01*
X474910Y364083D01*
X475172Y364121D01*
X475435Y364130D01*
X475697Y364109D01*
X472698Y367983D01*
X472656Y367725D01*
D02*
G37*
G36*
X507251Y372101D02*
X507100Y371676D01*
X506848Y371301D01*
X506496Y370976D01*
X506044Y370701D01*
X505490Y370476D01*
X504836Y370301D01*
X504082Y370176D01*
X503227Y370101D01*
X502271Y370076D01*
Y365076D01*
X503227Y365051D01*
X504082Y364976D01*
X504836Y364851D01*
X505490Y364676D01*
X506044Y364451D01*
X506496Y364176D01*
X506848Y363851D01*
X507100Y363476D01*
X507251Y363051D01*
X507301Y362576D01*
Y372576D01*
X507251Y372101D01*
D02*
G37*
G36*
X267124Y365218D02*
X267200Y365128D01*
X267266Y364979D01*
X267324Y364771D01*
X267373Y364503D01*
X267412Y364176D01*
X267466Y363344D01*
X267483Y362274D01*
X272483D01*
X272488Y362833D01*
X272593Y364481D01*
X272641Y364746D01*
X272698Y364952D01*
X272763Y365099D01*
X272838Y365188D01*
X272921Y365217D01*
X267040Y365248D01*
X267124Y365218D01*
D02*
G37*
G36*
X449603Y360500D02*
X449623Y360690D01*
X449684Y360860D01*
X449786Y361010D01*
X449928Y361140D01*
X450111Y361250D01*
X450334Y361340D01*
X450598Y361410D01*
X450902Y361460D01*
X451248Y361490D01*
X451633Y361500D01*
Y363500D01*
X451248Y363510D01*
X450902Y363540D01*
X450598Y363590D01*
X450334Y363660D01*
X450111Y363750D01*
X449928Y363860D01*
X449786Y363990D01*
X449684Y364140D01*
X449623Y364310D01*
X449603Y364500D01*
Y360500D01*
D02*
G37*
G36*
X243840Y365167D02*
X243920Y365017D01*
X243990Y364767D01*
X244051Y364417D01*
X244103Y363967D01*
X244186Y362331D01*
X243990Y359210D01*
X243920Y358960D01*
X243840Y358810D01*
X243751Y358759D01*
X249690D01*
X249601Y358810D01*
X249521Y358960D01*
X249450Y359210D01*
X249389Y359560D01*
X249338Y360009D01*
X249255Y361646D01*
X249450Y364767D01*
X249521Y365017D01*
X249601Y365167D01*
X249690Y365217D01*
X243751D01*
X243840Y365167D01*
D02*
G37*
G36*
X267478Y361554D02*
X267358Y359622D01*
X267303Y359312D01*
X267238Y359070D01*
X267162Y358898D01*
X267077Y358794D01*
X266982Y358759D01*
X272921D01*
X272838Y358794D01*
X272763Y358898D01*
X272698Y359070D01*
X272641Y359312D01*
X272593Y359622D01*
X272523Y360450D01*
X272488Y361554D01*
X272483Y362210D01*
X267483D01*
X267478Y361554D01*
D02*
G37*
G36*
X427146Y360228D02*
X427191Y360168D01*
X427232Y360068D01*
X427267Y359928D01*
X427296Y359748D01*
X427321Y359528D01*
X427361Y358628D01*
X427364Y358248D01*
X429364D01*
X429367Y358628D01*
X429461Y359928D01*
X429496Y360068D01*
X429536Y360168D01*
X429582Y360228D01*
X429633Y360248D01*
X427094D01*
X427146Y360228D01*
D02*
G37*
G36*
X337610Y359046D02*
X337601Y358700D01*
X337571Y358375D01*
X337523Y358070D01*
X337455Y357787D01*
X337367Y357524D01*
X337261Y357283D01*
X337134Y357062D01*
X336989Y356862D01*
X336824Y356682D01*
X336639Y356524D01*
X340635Y356695D01*
X340441Y356837D01*
X340266Y357001D01*
X340113Y357188D01*
X339979Y357398D01*
X339866Y357631D01*
X339774Y357886D01*
X339702Y358164D01*
X339651Y358465D01*
X339621Y358789D01*
X339610Y359135D01*
X337610Y359046D01*
D02*
G37*
G36*
X405583Y356198D02*
X405603Y356249D01*
X405663Y356295D01*
X405763Y356335D01*
X405903Y356370D01*
X406083Y356400D01*
X406303Y356424D01*
X407203Y356464D01*
X407583Y356467D01*
Y358467D01*
X407203Y358470D01*
X405903Y358564D01*
X405763Y358599D01*
X405663Y358640D01*
X405603Y358685D01*
X405583Y358737D01*
Y356198D01*
D02*
G37*
G36*
X427354Y357551D02*
X427324Y357206D01*
X427274Y356901D01*
X427204Y356637D01*
X427114Y356414D01*
X427004Y356231D01*
X426874Y356089D01*
X426724Y355987D01*
X426554Y355926D01*
X426364Y355906D01*
X430364D01*
X430174Y355926D01*
X430004Y355987D01*
X429854Y356089D01*
X429724Y356231D01*
X429614Y356414D01*
X429524Y356637D01*
X429454Y356901D01*
X429404Y357206D01*
X429374Y357551D01*
X429364Y357937D01*
X427364D01*
X427354Y357551D01*
D02*
G37*
G36*
X408480Y355937D02*
X408879Y355524D01*
X409508Y354785D01*
X409737Y354459D01*
X409910Y354161D01*
X410026Y353893D01*
X410085Y353653D01*
X410089Y353443D01*
X410035Y353261D01*
X409925Y353108D01*
X412723Y355906D01*
X412570Y355796D01*
X412388Y355742D01*
X412178Y355746D01*
X411938Y355805D01*
X411670Y355921D01*
X411372Y356094D01*
X411046Y356324D01*
X410691Y356609D01*
X409894Y357351D01*
X408480Y355937D01*
D02*
G37*
G36*
X312134Y357259D02*
X312049Y355960D01*
X312018Y355820D01*
X311981Y355720D01*
X311940Y355659D01*
X311894Y355639D01*
X314380D01*
X314334Y355659D01*
X314293Y355720D01*
X314256Y355820D01*
X314225Y355960D01*
X314198Y356139D01*
X314159Y356620D01*
X314137Y357640D01*
X312137D01*
X312134Y357259D01*
D02*
G37*
G36*
X304893Y354193D02*
X305277Y354183D01*
X305620Y354152D01*
X305924Y354103D01*
X306187Y354033D01*
X306410Y353942D01*
X306593Y353833D01*
X306736Y353703D01*
X306839Y353553D01*
X306901Y353382D01*
X306924Y353192D01*
X306893Y355639D01*
X304893Y356193D01*
Y354193D01*
D02*
G37*
G36*
X295793Y353131D02*
X295918Y353333D01*
X296067Y353513D01*
X296241Y353673D01*
X296440Y353811D01*
X296664Y353927D01*
X296912Y354023D01*
X297185Y354097D01*
X297483Y354150D01*
X297805Y354182D01*
X298152Y354193D01*
X297898Y356193D01*
X297553Y356202D01*
X297227Y356229D01*
X296920Y356274D01*
X296632Y356338D01*
X296364Y356420D01*
X296114Y356520D01*
X295884Y356638D01*
X295674Y356775D01*
X295482Y356929D01*
X295310Y357102D01*
X295793Y353131D01*
D02*
G37*
G36*
X279406Y356350D02*
X279346Y356180D01*
X279246Y356030D01*
X279106Y355900D01*
X278926Y355790D01*
X278706Y355700D01*
X278446Y355630D01*
X278146Y355580D01*
X277806Y355550D01*
X277426Y355540D01*
Y353540D01*
X277806Y353530D01*
X278146Y353500D01*
X278446Y353450D01*
X278706Y353380D01*
X278926Y353290D01*
X279106Y353180D01*
X279246Y353050D01*
X279346Y352900D01*
X279406Y352730D01*
X279426Y352540D01*
Y356540D01*
X279406Y356350D01*
D02*
G37*
G36*
X383802Y352500D02*
X384200Y352486D01*
X384580Y352451D01*
X384940Y352394D01*
X385280Y352317D01*
X385602Y352218D01*
X385904Y352098D01*
X386188Y351956D01*
X386451Y351794D01*
X386696Y351610D01*
X386921Y351405D01*
X388362Y352792D01*
X388156Y353020D01*
X387972Y353265D01*
X387811Y353530D01*
X387674Y353813D01*
X387559Y354114D01*
X387467Y354435D01*
X387398Y354773D01*
X387352Y355131D01*
X387329Y355507D01*
X387329Y355901D01*
X383802Y352500D01*
D02*
G37*
G36*
X394829Y353698D02*
X394784Y353664D01*
X394709Y353633D01*
X394603Y353607D01*
X394468Y353584D01*
X394302Y353566D01*
X393624Y353536D01*
X393338Y353534D01*
Y351534D01*
X393624Y351530D01*
X394302Y351480D01*
X394468Y351450D01*
X394603Y351413D01*
X394709Y351369D01*
X394784Y351319D01*
X394829Y351261D01*
X394844Y351198D01*
Y353737D01*
X394829Y353698D01*
D02*
G37*
G36*
X563615Y355681D02*
X564040Y355531D01*
X564415Y355280D01*
X564740Y354930D01*
X565015Y354481D01*
X565240Y353931D01*
X565415Y353280D01*
X565540Y352531D01*
X565615Y351680D01*
X565640Y350731D01*
X570640D01*
X570665Y351680D01*
X570740Y352531D01*
X570865Y353280D01*
X571040Y353931D01*
X571265Y354481D01*
X571540Y354930D01*
X571865Y355280D01*
X572240Y355531D01*
X572665Y355681D01*
X573140Y355731D01*
X563140D01*
X563615Y355681D01*
D02*
G37*
G36*
X234417Y350321D02*
X234573Y350434D01*
X234757Y350490D01*
X234969D01*
X235209Y350434D01*
X235478Y350321D01*
X235775Y350151D01*
X236100Y349925D01*
X236454Y349642D01*
X237246Y348906D01*
X238660Y350321D01*
X238264Y350731D01*
X237642Y351466D01*
X237416Y351791D01*
X237246Y352088D01*
X237133Y352357D01*
X237076Y352597D01*
Y352809D01*
X237133Y352993D01*
X237246Y353149D01*
X234417Y350321D01*
D02*
G37*
G36*
X361335Y352527D02*
X361389Y352346D01*
X361386Y352135D01*
X361326Y351896D01*
X361210Y351627D01*
X361037Y351330D01*
X360808Y351004D01*
X360522Y350649D01*
X359781Y349852D01*
X361195Y348438D01*
X361608Y348837D01*
X362347Y349465D01*
X362673Y349694D01*
X362970Y349867D01*
X363238Y349983D01*
X363478Y350043D01*
X363689Y350046D01*
X363870Y349992D01*
X364023Y349882D01*
X361225Y352680D01*
X361335Y352527D01*
D02*
G37*
G36*
X612572Y353305D02*
X612121D01*
X612210Y353255D01*
X612290Y353105D01*
X612360Y352855D01*
X612421Y352505D01*
X612471Y352069D01*
X612365Y351428D01*
X612190Y350774D01*
X611965Y350221D01*
X611690Y349768D01*
X611365Y349416D01*
X610990Y349165D01*
X610565Y349014D01*
X610090Y348964D01*
X612583D01*
X612590Y348305D01*
X617590D01*
X617593Y348964D01*
X620090D01*
X619615Y349014D01*
X619190Y349165D01*
X618815Y349416D01*
X618490Y349768D01*
X618215Y350221D01*
X617990Y350774D01*
X617815Y351428D01*
X617754Y351797D01*
X617820Y352855D01*
X617891Y353105D01*
X617971Y353255D01*
X618060Y353305D01*
X617608D01*
X617590Y353994D01*
X612590D01*
X612572Y353305D01*
D02*
G37*
G36*
X298353Y346939D02*
X298405Y346881D01*
X298440Y346830D01*
X298456Y346784D01*
X298456Y346745D01*
X298437Y346711D01*
X298401Y346684D01*
X298347Y346662D01*
X298275Y346647D01*
X298186Y346638D01*
X298079Y346635D01*
X303417D01*
X303295Y346659D01*
X303134Y346732D01*
X302935Y346853D01*
X302698Y347023D01*
X302110Y347508D01*
X301369Y348187D01*
X300475Y349061D01*
X298353Y346939D01*
D02*
G37*
G36*
X319122Y349079D02*
X319077Y348564D01*
X319002Y348109D01*
X318897Y347715D01*
X318762Y347382D01*
X318597Y347109D01*
X318402Y346897D01*
X318177Y346745D01*
X317922Y346654D01*
X317637Y346624D01*
X323637D01*
X323352Y346654D01*
X323097Y346745D01*
X322872Y346897D01*
X322677Y347109D01*
X322512Y347382D01*
X322377Y347715D01*
X322272Y348109D01*
X322197Y348564D01*
X322152Y349079D01*
X322137Y349655D01*
X319137D01*
X319122Y349079D01*
D02*
G37*
G36*
X394824Y348685D02*
X394764Y348640D01*
X394664Y348599D01*
X394524Y348564D01*
X394344Y348535D01*
X394124Y348510D01*
X393224Y348470D01*
X392844Y348467D01*
Y346467D01*
X393224Y346464D01*
X394524Y346370D01*
X394664Y346335D01*
X394764Y346295D01*
X394824Y346249D01*
X394844Y346198D01*
Y348737D01*
X394824Y348685D01*
D02*
G37*
G36*
X384555Y343101D02*
X384921Y343164D01*
X385273Y343197D01*
X385610Y343199D01*
X385932Y343171D01*
X386240Y343112D01*
X386533Y343022D01*
X386812Y342901D01*
X387076Y342750D01*
X387326Y342568D01*
X387562Y342355D01*
X388678Y344068D01*
X388482Y344280D01*
X388299Y344515D01*
X388128Y344771D01*
X387969Y345049D01*
X387822Y345350D01*
X387687Y345672D01*
X387564Y346016D01*
X387355Y346770D01*
X387269Y347180D01*
X384555Y343101D01*
D02*
G37*
G36*
X346629Y343238D02*
X347226Y342620D01*
X348166Y341513D01*
X348508Y341024D01*
X348766Y340578D01*
X348939Y340176D01*
X349027Y339816D01*
X349030Y339499D01*
X348948Y339226D01*
X348781Y338995D01*
X352993Y343207D01*
X352763Y343041D01*
X352489Y342959D01*
X352172Y342962D01*
X351813Y343050D01*
X351410Y343223D01*
X350964Y343480D01*
X350475Y343823D01*
X349944Y344250D01*
X348751Y345359D01*
X346629Y343238D01*
D02*
G37*
G36*
X472906Y352112D02*
X473199Y351962D01*
X473456Y351712D01*
X473680Y351362D01*
X473869Y350912D01*
X474024Y350362D01*
X474144Y349712D01*
X474230Y348962D01*
X474282Y348112D01*
X474294Y347440D01*
X474282Y346768D01*
X474144Y345169D01*
X474024Y344519D01*
X473869Y343969D01*
X473680Y343518D01*
X473456Y343168D01*
X473199Y342919D01*
X472906Y342769D01*
X472580Y342719D01*
X478107D01*
X478333Y342769D01*
X478536Y342919D01*
X478715Y343169D01*
X478870Y343518D01*
X479001Y343969D01*
X479108Y344519D01*
X479192Y345168D01*
X479287Y346768D01*
X479292Y347162D01*
X479299D01*
X479316Y348112D01*
X479454Y349712D01*
X479574Y350362D01*
X479729Y350912D01*
X479918Y351362D01*
X480142Y351712D01*
X480400Y351962D01*
X480692Y352112D01*
X481019Y352162D01*
X472580D01*
X472906Y352112D01*
D02*
G37*
G36*
X488790Y352112D02*
X489083Y351962D01*
X489341Y351712D01*
X489564Y351362D01*
X489753Y350912D01*
X489908Y350362D01*
X490028Y349712D01*
X490114Y348962D01*
X490166Y348112D01*
X490183Y347162D01*
X490316D01*
X491376Y342719D01*
X496903D01*
X496576Y342769D01*
X496284Y342919D01*
X496026Y343169D01*
X495802Y343518D01*
X495613Y343969D01*
X495458Y344519D01*
X495338Y345168D01*
X495252Y345919D01*
X495200Y346768D01*
X495188Y347440D01*
X495200Y348112D01*
X495338Y349712D01*
X495458Y350362D01*
X495613Y350912D01*
X495802Y351362D01*
X496026Y351712D01*
X496284Y351962D01*
X496576Y352112D01*
X496903Y352162D01*
X488464D01*
X488790Y352112D01*
D02*
G37*
G36*
X394824Y343685D02*
X394764Y343640D01*
X394664Y343599D01*
X394524Y343564D01*
X394344Y343535D01*
X394124Y343510D01*
X393224Y343470D01*
X392844Y343467D01*
Y341467D01*
X393224Y341464D01*
X394524Y341370D01*
X394664Y341335D01*
X394764Y341295D01*
X394824Y341249D01*
X394844Y341198D01*
Y343737D01*
X394824Y343685D01*
D02*
G37*
G36*
X641078Y350065D02*
X641244Y349633D01*
X641285Y349149D01*
X641203Y348611D01*
X640998Y348019D01*
X640668Y347374D01*
X640216Y346676D01*
X639639Y345924D01*
X638939Y345118D01*
X638115Y344260D01*
X641650Y340724D01*
X642509Y341548D01*
X644067Y342825D01*
X644765Y343278D01*
X645410Y343607D01*
X646002Y343812D01*
X646540Y343894D01*
X647024Y343853D01*
X647455Y343687D01*
X647833Y343398D01*
X640789Y350442D01*
X641078Y350065D01*
D02*
G37*
G36*
X610251Y339904D02*
X610183Y339860D01*
X609951Y339732D01*
X609728Y339622D01*
X609514Y339533D01*
X609307Y339464D01*
X609110Y339414D01*
X608921Y339384D01*
X608740Y339374D01*
Y337374D01*
X608921Y337365D01*
X609110Y337335D01*
X609307Y337285D01*
X609514Y337216D01*
X609728Y337126D01*
X609951Y337017D01*
X610183Y336888D01*
X610251Y336844D01*
Y336382D01*
X610508Y336571D01*
X610590Y336624D01*
X610672Y336571D01*
X610930Y336382D01*
Y336844D01*
X610997Y336888D01*
X611229Y337017D01*
X611452Y337126D01*
X611667Y337216D01*
X611873Y337285D01*
X612071Y337335D01*
X612260Y337365D01*
X612440Y337374D01*
Y339374D01*
X612260Y339384D01*
X612071Y339414D01*
X611873Y339464D01*
X611667Y339533D01*
X611452Y339622D01*
X611229Y339732D01*
X610997Y339860D01*
X610930Y339904D01*
Y340366D01*
X610672Y340178D01*
X610590Y340125D01*
X610508Y340178D01*
X610251Y340366D01*
Y339904D01*
D02*
G37*
G36*
X284747Y345387D02*
X283640Y344448D01*
X283151Y344105D01*
X282706Y343848D01*
X282303Y343675D01*
X281943Y343587D01*
X281626Y343584D01*
X281353Y343666D01*
X281122Y343832D01*
X281706Y343249D01*
X281626Y343229D01*
X281915Y343040D01*
X285334Y339620D01*
X285168Y339851D01*
X285086Y340124D01*
X285089Y340441D01*
X285177Y340801D01*
X285209Y340876D01*
X285722Y340540D01*
X285682Y340796D01*
X285674Y341053D01*
X285698Y341311D01*
X285753Y341569D01*
X285841Y341828D01*
X285960Y342088D01*
X286094Y342318D01*
X286377Y342670D01*
X287486Y343863D01*
X285365Y345984D01*
X284747Y345387D01*
D02*
G37*
G36*
X293957Y338003D02*
X294160Y338172D01*
X294381Y338324D01*
X294619Y338457D01*
X294874Y338573D01*
X295145Y338671D01*
X295434Y338751D01*
X295740Y338814D01*
X296063Y338858D01*
X296403Y338885D01*
X296760Y338894D01*
X296944Y341894D01*
X296586Y341904D01*
X296248Y341934D01*
X295928Y341984D01*
X295628Y342054D01*
X295347Y342144D01*
X295085Y342254D01*
X294842Y342385D01*
X294618Y342535D01*
X294414Y342705D01*
X294229Y342896D01*
X293957Y338003D01*
D02*
G37*
G36*
X318038Y342458D02*
X317778Y342238D01*
X317517Y342044D01*
X317256Y341877D01*
X316993Y341736D01*
X316730Y341621D01*
X316467Y341532D01*
X316203Y341469D01*
X315938Y341432D01*
X315672Y341422D01*
X319137Y337957D01*
X319147Y338223D01*
X319184Y338488D01*
X319247Y338752D01*
X319335Y339016D01*
X319451Y339278D01*
X319592Y339541D01*
X319759Y339802D01*
X319953Y340063D01*
X320173Y340323D01*
X320419Y340582D01*
X318297Y342704D01*
X318038Y342458D01*
D02*
G37*
G36*
X394824Y338685D02*
X394764Y338640D01*
X394664Y338599D01*
X394524Y338564D01*
X394344Y338535D01*
X394124Y338510D01*
X393224Y338470D01*
X392844Y338467D01*
Y336467D01*
X393224Y336464D01*
X394524Y336370D01*
X394664Y336335D01*
X394764Y336295D01*
X394824Y336249D01*
X394844Y336198D01*
Y338737D01*
X394824Y338685D01*
D02*
G37*
G36*
X623679Y333374D02*
X623730Y333849D01*
X623881Y334274D01*
X624132Y334649D01*
X624484Y334974D01*
X624937Y335249D01*
X625490Y335474D01*
X626144Y335649D01*
X626899Y335774D01*
X627754Y335849D01*
X628710Y335874D01*
Y340874D01*
X627754Y340899D01*
X626899Y340974D01*
X626144Y341099D01*
X625490Y341274D01*
X624937Y341499D01*
X624484Y341774D01*
X624132Y342099D01*
X623881Y342474D01*
X623730Y342899D01*
X623679Y343374D01*
Y333374D01*
D02*
G37*
G36*
X565615Y337189D02*
X565540Y336339D01*
X565415Y335589D01*
X565240Y334939D01*
X565015Y334389D01*
X564740Y333940D01*
X564415Y333590D01*
X564040Y333340D01*
X563615Y333190D01*
X563140Y333139D01*
X573140D01*
X572665Y333190D01*
X572240Y333340D01*
X571865Y333590D01*
X571540Y333940D01*
X571265Y334389D01*
X571040Y334939D01*
X570865Y335589D01*
X570740Y336339D01*
X570665Y337189D01*
X570640Y338139D01*
X565640D01*
X565615Y337189D01*
D02*
G37*
G36*
X394824Y333685D02*
X394764Y333640D01*
X394664Y333599D01*
X394524Y333564D01*
X394344Y333535D01*
X394124Y333510D01*
X393224Y333470D01*
X392844Y333467D01*
Y331467D01*
X393224Y331464D01*
X394524Y331370D01*
X394664Y331335D01*
X394764Y331295D01*
X394824Y331249D01*
X394844Y331198D01*
Y333737D01*
X394824Y333685D01*
D02*
G37*
G36*
X593718Y343577D02*
X593559Y342817D01*
X593293Y342021D01*
X592922Y341190D01*
X592445Y340324D01*
X591861Y339422D01*
X591172Y338486D01*
X589475Y336506D01*
X588467Y335463D01*
X590235Y330159D01*
X590907Y330796D01*
X591508Y331291D01*
X592038Y331644D01*
X592498Y331856D01*
X592887Y331927D01*
X593205Y331856D01*
X593452Y331644D01*
X593629Y331291D01*
X593735Y330796D01*
X593771Y330159D01*
Y344301D01*
X593718Y343577D01*
D02*
G37*
G36*
X346629Y328957D02*
X347261Y328305D01*
X348246Y327152D01*
X348600Y326652D01*
X348862Y326202D01*
X349031Y325803D01*
X349107Y325455D01*
X349091Y325157D01*
X348982Y324911D01*
X348781Y324715D01*
X353766Y328154D01*
X353490Y328033D01*
X353158Y328010D01*
X352769Y328085D01*
X352323Y328258D01*
X351821Y328531D01*
X351263Y328901D01*
X350648Y329370D01*
X349247Y330603D01*
X348462Y331367D01*
X346629Y328957D01*
D02*
G37*
G36*
X299627Y329189D02*
X299797Y329128D01*
X299947Y329026D01*
X300077Y328884D01*
X300187Y328701D01*
X300277Y328478D01*
X300347Y328214D01*
X300397Y327910D01*
X300427Y327564D01*
X300437Y327178D01*
X302437D01*
X302447Y327564D01*
X302477Y327910D01*
X302527Y328214D01*
X302597Y328478D01*
X302687Y328701D01*
X302797Y328884D01*
X302927Y329026D01*
X303077Y329128D01*
X303247Y329189D01*
X303437Y329209D01*
X299437D01*
X299627Y329189D01*
D02*
G37*
G36*
X328149D02*
X328319Y329128D01*
X328469Y329026D01*
X328599Y328884D01*
X328709Y328701D01*
X328799Y328478D01*
X328869Y328214D01*
X328919Y327910D01*
X328949Y327564D01*
X328959Y327178D01*
X330959D01*
X330969Y327564D01*
X330999Y327910D01*
X331049Y328214D01*
X331119Y328478D01*
X331209Y328701D01*
X331319Y328884D01*
X331449Y329026D01*
X331599Y329128D01*
X331769Y329189D01*
X331959Y329209D01*
X327959D01*
X328149Y329189D01*
D02*
G37*
G36*
X427296Y329149D02*
X427252Y328845D01*
X427180Y328544D01*
X427078Y328245D01*
X426948Y327949D01*
X426788Y327654D01*
X426600Y327362D01*
X426382Y327072D01*
X426136Y326785D01*
X425860Y326499D01*
X430760D01*
X430485Y326785D01*
X430238Y327072D01*
X430021Y327362D01*
X429832Y327654D01*
X429673Y327949D01*
X429542Y328245D01*
X429441Y328544D01*
X429368Y328845D01*
X429325Y329149D01*
X429310Y329454D01*
X427310D01*
X427296Y329149D01*
D02*
G37*
G36*
X394824Y328685D02*
X394764Y328640D01*
X394664Y328599D01*
X394524Y328564D01*
X394344Y328535D01*
X394124Y328510D01*
X393224Y328470D01*
X392844Y328467D01*
Y326467D01*
X393224Y326464D01*
X394524Y326370D01*
X394664Y326335D01*
X394764Y326295D01*
X394824Y326249D01*
X394844Y326198D01*
Y328737D01*
X394824Y328685D01*
D02*
G37*
G36*
X310422Y329160D02*
X310677Y329070D01*
X310902Y328919D01*
X311097Y328709D01*
X311262Y328439D01*
X311397Y328110D01*
X311502Y327719D01*
X311577Y327270D01*
X311622Y326759D01*
X311637Y326189D01*
X314637D01*
X314652Y326759D01*
X314697Y327270D01*
X314772Y327719D01*
X314877Y328110D01*
X315012Y328439D01*
X315177Y328709D01*
X315372Y328919D01*
X315597Y329070D01*
X315852Y329160D01*
X316137Y329189D01*
X310137D01*
X310422Y329160D01*
D02*
G37*
G36*
X267061Y335374D02*
X267132Y335224D01*
X267194Y334974D01*
X267248Y334624D01*
X267332Y333624D01*
X267394Y331374D01*
X267395Y331176D01*
X267032Y330817D01*
X264059Y328168D01*
X263813Y328023D01*
X263638Y327964D01*
X263535Y327989D01*
X267747Y323777D01*
X267722Y323881D01*
X267781Y324055D01*
X267926Y324301D01*
X268155Y324618D01*
X268469Y325007D01*
X269921Y326600D01*
X271313Y328019D01*
X268909Y330424D01*
X272398D01*
X272404Y331374D01*
X272654Y334974D01*
X272733Y335224D01*
X272822Y335374D01*
X272921Y335424D01*
X266982D01*
X267061Y335374D01*
D02*
G37*
G36*
X203359Y322079D02*
X203545Y322268D01*
X203751Y322437D01*
X203975Y322587D01*
X204219Y322716D01*
X204482Y322826D01*
X204763Y322915D01*
X205064Y322985D01*
X205384Y323035D01*
X205722Y323065D01*
X206080Y323075D01*
X205917Y326075D01*
X205560Y326084D01*
X205220Y326110D01*
X204897Y326155D01*
X204592Y326218D01*
X204303Y326299D01*
X204032Y326398D01*
X203778Y326515D01*
X203541Y326649D01*
X203321Y326802D01*
X203118Y326973D01*
X203359Y322079D01*
D02*
G37*
G36*
X394824Y323685D02*
X394764Y323640D01*
X394664Y323599D01*
X394524Y323564D01*
X394344Y323535D01*
X394124Y323510D01*
X393224Y323470D01*
X392844Y323467D01*
Y321467D01*
X393224Y321464D01*
X394524Y321370D01*
X394664Y321335D01*
X394764Y321295D01*
X394824Y321249D01*
X394844Y321198D01*
Y323737D01*
X394824Y323685D01*
D02*
G37*
G36*
X507226Y328525D02*
X507075Y328100D01*
X506824Y327725D01*
X506471Y327400D01*
X506019Y327125D01*
X505465Y326900D01*
X504811Y326725D01*
X504057Y326600D01*
X503202Y326525D01*
X502246Y326500D01*
Y321500D01*
X503201Y321475D01*
X504057Y321400D01*
X504811Y321275D01*
X505465Y321100D01*
X506019Y320875D01*
X506471Y320600D01*
X506824Y320275D01*
X507075Y319900D01*
X507226Y319475D01*
X507276Y319000D01*
Y329000D01*
X507226Y328525D01*
D02*
G37*
G36*
X444005Y318998D02*
X444161Y319111D01*
X444344Y319167D01*
X444557D01*
X444797Y319111D01*
X445066Y318998D01*
X445363Y318828D01*
X445688Y318602D01*
X446041Y318319D01*
X446833Y317583D01*
X448248Y318998D01*
X447852Y319408D01*
X447229Y320143D01*
X447003Y320468D01*
X446833Y320765D01*
X446720Y321034D01*
X446664Y321274D01*
Y321487D01*
X446720Y321670D01*
X446833Y321826D01*
X444005Y318998D01*
D02*
G37*
G36*
X411554Y319008D02*
X411724Y318947D01*
X411874Y318845D01*
X412004Y318703D01*
X412114Y318521D01*
X412204Y318297D01*
X412274Y318033D01*
X412324Y317729D01*
X412354Y317383D01*
X412364Y316998D01*
X414364D01*
X414374Y317383D01*
X414404Y317729D01*
X414454Y318033D01*
X414524Y318297D01*
X414614Y318521D01*
X414724Y318703D01*
X414854Y318845D01*
X415004Y318947D01*
X415174Y319008D01*
X415364Y319028D01*
X411364D01*
X411554Y319008D01*
D02*
G37*
G36*
X486620Y321500D02*
X487570Y321450D01*
X488420Y321300D01*
X489170Y321050D01*
X489820Y320700D01*
X490370Y320250D01*
X490820Y319700D01*
X491170Y319050D01*
X491420Y318300D01*
X491570Y317450D01*
X491620Y316500D01*
X496620D01*
X496670Y317450D01*
X496820Y318300D01*
X497070Y319050D01*
X497420Y319700D01*
X497870Y320250D01*
X498420Y320700D01*
X499070Y321050D01*
X499820Y321300D01*
X500670Y321450D01*
X501620Y321500D01*
X494120Y326500D01*
X486620Y321500D01*
D02*
G37*
G36*
X451124Y318685D02*
X451064Y318640D01*
X450964Y318599D01*
X450824Y318564D01*
X450644Y318535D01*
X450424Y318510D01*
X449524Y318470D01*
X449144Y318467D01*
Y316467D01*
X449524Y316464D01*
X450824Y316370D01*
X450964Y316335D01*
X451064Y316295D01*
X451124Y316249D01*
X451144Y316198D01*
Y318737D01*
X451124Y318685D01*
D02*
G37*
G36*
X526204Y314851D02*
X526235Y315135D01*
X526325Y315390D01*
X526477Y315616D01*
X526689Y315811D01*
X526962Y315975D01*
X527295Y316110D01*
X527689Y316215D01*
X528144Y316290D01*
X528659Y316336D01*
X529235Y316350D01*
Y319350D01*
X528659Y319366D01*
X528144Y319410D01*
X527689Y319485D01*
X527295Y319590D01*
X526962Y319725D01*
X526689Y319890D01*
X526477Y320085D01*
X526325Y320311D01*
X526235Y320565D01*
X526204Y320850D01*
Y314851D01*
D02*
G37*
G36*
X412361Y316307D02*
X412267Y315007D01*
X412232Y314867D01*
X412191Y314767D01*
X412146Y314707D01*
X412094Y314687D01*
X414633D01*
X414582Y314707D01*
X414536Y314767D01*
X414496Y314867D01*
X414461Y315007D01*
X414431Y315187D01*
X414407Y315407D01*
X414367Y316307D01*
X414364Y316687D01*
X412364D01*
X412361Y316307D01*
D02*
G37*
G36*
X374358Y318210D02*
X374174Y318048D01*
X373971Y317905D01*
X373747Y317782D01*
X373503Y317677D01*
X373238Y317591D01*
X372953Y317524D01*
X372648Y317477D01*
X372323Y317448D01*
X371977Y317439D01*
X371834Y315439D01*
X372181Y315428D01*
X372504Y315397D01*
X372804Y315345D01*
X373080Y315273D01*
X373334Y315179D01*
X373563Y315065D01*
X373770Y314930D01*
X373953Y314774D01*
X374112Y314598D01*
X374248Y314401D01*
X374521Y318391D01*
X374358Y318210D01*
D02*
G37*
G36*
X398404Y316208D02*
X398574Y316147D01*
X398724Y316045D01*
X398854Y315903D01*
X398964Y315721D01*
X399054Y315497D01*
X399124Y315233D01*
X399174Y314929D01*
X399204Y314583D01*
X399214Y314198D01*
X401214D01*
X401224Y314583D01*
X401254Y314929D01*
X401304Y315233D01*
X401374Y315497D01*
X401464Y315721D01*
X401574Y315903D01*
X401704Y316045D01*
X401854Y316147D01*
X402024Y316208D01*
X402214Y316228D01*
X398214D01*
X398404Y316208D01*
D02*
G37*
G36*
X300422Y316419D02*
X300379Y316116D01*
X300306Y315815D01*
X300205Y315516D01*
X300074Y315220D01*
X299915Y314925D01*
X299726Y314633D01*
X299509Y314343D01*
X299262Y314056D01*
X298987Y313770D01*
X303887D01*
X303611Y314056D01*
X303365Y314343D01*
X303148Y314633D01*
X302959Y314925D01*
X302799Y315220D01*
X302669Y315516D01*
X302567Y315815D01*
X302495Y316116D01*
X302451Y316419D01*
X302437Y316725D01*
X300437D01*
X300422Y316419D01*
D02*
G37*
G36*
X328944D02*
X328901Y316116D01*
X328828Y315815D01*
X328727Y315516D01*
X328596Y315220D01*
X328437Y314925D01*
X328248Y314633D01*
X328031Y314343D01*
X327784Y314056D01*
X327509Y313770D01*
X332409D01*
X332133Y314056D01*
X331887Y314343D01*
X331669Y314633D01*
X331481Y314925D01*
X331321Y315220D01*
X331191Y315516D01*
X331089Y315815D01*
X331017Y316116D01*
X330973Y316419D01*
X330959Y316725D01*
X328959D01*
X328944Y316419D01*
D02*
G37*
G36*
X519976Y319615D02*
X519899Y319619D01*
Y319355D01*
X518944Y316117D01*
X514421Y316639D01*
X514672Y316315D01*
X515094Y315675D01*
X515265Y315360D01*
X515410Y315048D01*
X515529Y314739D01*
X515621Y314433D01*
X515687Y314131D01*
X515727Y313831D01*
X515740Y313534D01*
X517740Y313293D01*
X517756Y313605D01*
X517802Y313911D01*
X517880Y314208D01*
X517988Y314498D01*
X518127Y314780D01*
X518298Y315054D01*
X518499Y315322D01*
X518731Y315581D01*
X518995Y315833D01*
X519074Y315899D01*
X519285Y315988D01*
X519529Y316073D01*
X519790Y316147D01*
X519899Y316171D01*
Y316082D01*
X520000Y316133D01*
X520195Y316178D01*
X520483Y316219D01*
X521342Y316283D01*
X525132Y316350D01*
Y319350D01*
X521382Y319543D01*
X521151Y319634D01*
X520917Y319758D01*
X520708Y319906D01*
X520524Y320076D01*
X520365Y320268D01*
X520233Y320484D01*
X519976Y319615D01*
D02*
G37*
G36*
X455664Y317239D02*
X456675Y316228D01*
X452463D01*
X452892Y316196D01*
X453344Y316100D01*
X453818Y315939D01*
X454315Y315714D01*
X454834Y315425D01*
X455376Y315072D01*
X455940Y314654D01*
X457135Y313626D01*
X457766Y313016D01*
X459357Y313546D01*
X464885Y308018D01*
X466165Y304616D01*
X468287Y302495D01*
X470847Y304177D01*
X470444Y304610D01*
X470084Y305061D01*
X469766Y305529D01*
X469490Y306015D01*
X469256Y306518D01*
X469066Y307039D01*
X468917Y307577D01*
X468811Y308134D01*
X468747Y308707D01*
X468726Y309298D01*
X468300Y309724D01*
Y317260D01*
X455686D01*
X455664Y317239D01*
D02*
G37*
G36*
X383496Y315061D02*
X383511Y314825D01*
X383494Y314586D01*
X383446Y314346D01*
X383366Y314104D01*
X383255Y313859D01*
X383112Y313612D01*
X382937Y313364D01*
X382731Y313113D01*
X382493Y312861D01*
X384032Y311571D01*
X384283Y311809D01*
X384533Y312019D01*
X384783Y312202D01*
X385031Y312358D01*
X385279Y312486D01*
X385526Y312586D01*
X385772Y312660D01*
X386017Y312706D01*
X386262Y312724D01*
X386506Y312715D01*
X383449Y315296D01*
X383496Y315061D01*
D02*
G37*
G36*
X364420Y319746D02*
X361195D01*
X361284Y319713D01*
X361364Y319613D01*
X361434Y319448D01*
X361495Y319216D01*
X361547Y318919D01*
X361589Y318555D01*
X361646Y317629D01*
X361664Y316439D01*
X361660Y315810D01*
X361547Y313958D01*
X361495Y313661D01*
X361434Y313429D01*
X361364Y313264D01*
X361284Y313165D01*
X361195Y313132D01*
X364420D01*
X366664Y310439D01*
X366684Y311389D01*
X366744Y312239D01*
X366844Y312989D01*
X366875Y313132D01*
X367134D01*
X367045Y313165D01*
X366965Y313264D01*
X366924Y313359D01*
X366984Y313639D01*
X367164Y314189D01*
X367384Y314639D01*
X367644Y314989D01*
X367944Y315239D01*
X368037Y315280D01*
X368961Y315369D01*
X370544Y315431D01*
X371455Y315439D01*
Y317439D01*
X370544Y317446D01*
X368008Y317611D01*
X367944Y317639D01*
X367644Y317889D01*
X367384Y318239D01*
X367164Y318689D01*
X366984Y319239D01*
X366924Y319518D01*
X366965Y319613D01*
X367045Y319713D01*
X367134Y319746D01*
X366875D01*
X366844Y319889D01*
X366684Y321489D01*
X366664Y322439D01*
X364420Y319746D01*
D02*
G37*
G36*
X374864Y306550D02*
X375149Y306826D01*
X375437Y307072D01*
X375727Y307290D01*
X376019Y307478D01*
X376313Y307638D01*
X376610Y307768D01*
X376908Y307869D01*
X377210Y307942D01*
X377513Y307985D01*
X377818Y308000D01*
Y310000D01*
X377513Y310014D01*
X377210Y310058D01*
X376908Y310131D01*
X376610Y310232D01*
X376313Y310362D01*
X376019Y310522D01*
X375727Y310711D01*
X375437Y310928D01*
X375149Y311175D01*
X374864Y311450D01*
Y306550D01*
D02*
G37*
G36*
X364305Y304723D02*
X364458Y304833D01*
X364640Y304887D01*
X364851Y304884D01*
X365090Y304824D01*
X365358Y304708D01*
X365656Y304535D01*
X365982Y304306D01*
X366337Y304020D01*
X367134Y303278D01*
X368548Y304693D01*
X368149Y305105D01*
X367521Y305844D01*
X367291Y306171D01*
X367118Y306468D01*
X367002Y306736D01*
X366943Y306976D01*
X366940Y307187D01*
X366993Y307368D01*
X367103Y307521D01*
X364305Y304723D01*
D02*
G37*
G36*
X407106Y307884D02*
X407049Y307738D01*
X406955Y307610D01*
X406823Y307498D01*
X406652Y307403D01*
X406445Y307326D01*
X406199Y307266D01*
X405916Y307223D01*
X405594Y307197D01*
X405235Y307189D01*
Y305189D01*
X405594Y305180D01*
X405916Y305154D01*
X406199Y305111D01*
X406445Y305051D01*
X406652Y304974D01*
X406823Y304879D01*
X406955Y304768D01*
X407049Y304639D01*
X407106Y304493D01*
X407125Y304330D01*
Y308048D01*
X407106Y307884D01*
D02*
G37*
G36*
X231467Y307886D02*
X231536Y307720D01*
X231543Y307520D01*
X231490Y307287D01*
X231376Y307021D01*
X231201Y306721D01*
X230965Y306389D01*
X230669Y306023D01*
X229893Y305191D01*
X231039Y303509D01*
X231566Y304023D01*
X232917Y305166D01*
X233290Y305414D01*
X233624Y305596D01*
X233920Y305712D01*
X234177Y305761D01*
X234395Y305744D01*
X234574Y305661D01*
X231337Y308020D01*
X231467Y307886D01*
D02*
G37*
G36*
X514930Y305271D02*
X515100Y305210D01*
X515250Y305108D01*
X515380Y304966D01*
X515490Y304783D01*
X515580Y304560D01*
X515650Y304296D01*
X515700Y303991D01*
X515730Y303646D01*
X515740Y303260D01*
X517740D01*
X517750Y303646D01*
X517780Y303991D01*
X517830Y304296D01*
X517900Y304560D01*
X517990Y304783D01*
X518100Y304966D01*
X518230Y305108D01*
X518380Y305210D01*
X518550Y305271D01*
X518740Y305291D01*
X514740D01*
X514930Y305271D01*
D02*
G37*
G36*
X482028Y306171D02*
X482072Y306074D01*
X482112Y305913D01*
X482146Y305687D01*
X482199Y305040D01*
X482239Y303587D01*
X482241Y302973D01*
X487241D01*
X487244Y303587D01*
X487410Y306074D01*
X487454Y306171D01*
X487505Y306203D01*
X481978D01*
X482028Y306171D01*
D02*
G37*
G36*
X417203Y303928D02*
X417299Y303868D01*
X417385Y303768D01*
X417459Y303628D01*
X417522Y303448D01*
X417573Y303228D01*
X417613Y302968D01*
X417641Y302668D01*
X417664Y301948D01*
X419664D01*
X419633Y303948D01*
X417094D01*
X417203Y303928D01*
D02*
G37*
G36*
X437146D02*
X437191Y303868D01*
X437232Y303768D01*
X437267Y303628D01*
X437296Y303448D01*
X437321Y303228D01*
X437361Y302328D01*
X437364Y301948D01*
X439364D01*
X439367Y302328D01*
X439461Y303628D01*
X439496Y303768D01*
X439536Y303868D01*
X439582Y303928D01*
X439633Y303948D01*
X437094D01*
X437146Y303928D01*
D02*
G37*
G36*
X442146D02*
X442191Y303868D01*
X442232Y303768D01*
X442267Y303628D01*
X442296Y303448D01*
X442321Y303228D01*
X442361Y302328D01*
X442364Y301948D01*
X444364D01*
X444367Y302328D01*
X444461Y303628D01*
X444496Y303768D01*
X444536Y303868D01*
X444582Y303928D01*
X444633Y303948D01*
X442094D01*
X442146Y303928D01*
D02*
G37*
G36*
X447146D02*
X447191Y303868D01*
X447232Y303768D01*
X447267Y303628D01*
X447296Y303448D01*
X447321Y303228D01*
X447361Y302328D01*
X447364Y301948D01*
X449364D01*
X449367Y302328D01*
X449461Y303628D01*
X449496Y303768D01*
X449536Y303868D01*
X449582Y303928D01*
X449633Y303948D01*
X447094D01*
X447146Y303928D01*
D02*
G37*
G36*
X625980Y303815D02*
X626150Y303754D01*
X626300Y303653D01*
X626430Y303510D01*
X626540Y303328D01*
X626630Y303104D01*
X626700Y302840D01*
X626750Y302536D01*
X626780Y302191D01*
X626790Y301805D01*
X628790D01*
X628800Y302191D01*
X628830Y302536D01*
X628880Y302840D01*
X628950Y303104D01*
X629040Y303328D01*
X629150Y303510D01*
X629280Y303653D01*
X629430Y303754D01*
X629600Y303815D01*
X629790Y303835D01*
X625790D01*
X625980Y303815D01*
D02*
G37*
G36*
X586810Y303768D02*
X586890Y303657D01*
X586960Y303472D01*
X587021Y303214D01*
X587073Y302881D01*
X587148Y301994D01*
X587186Y300812D01*
X587190Y300110D01*
X592190D01*
X592195Y300812D01*
X592359Y303214D01*
X592420Y303472D01*
X592491Y303657D01*
X592570Y303768D01*
X592660Y303805D01*
X586721D01*
X586810Y303768D01*
D02*
G37*
G36*
X390701Y303822D02*
X390459Y303638D01*
X390197Y303472D01*
X389914Y303325D01*
X389612Y303196D01*
X389288Y303086D01*
X388945Y302994D01*
X388582Y302921D01*
X388198Y302866D01*
X387795Y302830D01*
X391511Y299636D01*
X391490Y300023D01*
X391494Y300393D01*
X391524Y300745D01*
X391580Y301079D01*
X391660Y301397D01*
X391767Y301696D01*
X391899Y301979D01*
X392057Y302244D01*
X392240Y302491D01*
X392449Y302721D01*
X390923Y304024D01*
X390701Y303822D01*
D02*
G37*
G36*
X281422Y300161D02*
X281367Y299456D01*
X281342Y299343D01*
X281313Y299255D01*
X281279Y299192D01*
X281240Y299154D01*
X281197Y299142D01*
X283651D01*
X283608Y299154D01*
X283570Y299192D01*
X283535Y299255D01*
X283506Y299343D01*
X283481Y299456D01*
X283461Y299595D01*
X283433Y299947D01*
X283424Y300400D01*
X281424D01*
X281422Y300161D01*
D02*
G37*
G36*
X612210Y303755D02*
X612290Y303605D01*
X612360Y303355D01*
X612421Y303005D01*
X612473Y302555D01*
X612571Y300605D01*
X612590Y298805D01*
X617590D01*
X617595Y299755D01*
X617820Y303355D01*
X617891Y303605D01*
X617971Y303755D01*
X618060Y303805D01*
X612121D01*
X612210Y303755D01*
D02*
G37*
G36*
X400913Y303303D02*
X400663Y303121D01*
X400399Y302972D01*
X400122Y302855D01*
X399832Y302771D01*
X399528Y302719D01*
X399210Y302699D01*
X398879Y302711D01*
X398535Y302756D01*
X398177Y302833D01*
X400719Y298643D01*
X400822Y299054D01*
X401059Y299807D01*
X401193Y300151D01*
X401489Y300770D01*
X401652Y301046D01*
X401825Y301299D01*
X402008Y301530D01*
X402200Y301739D01*
X401149Y303517D01*
X400913Y303303D01*
D02*
G37*
G36*
X349216Y300757D02*
X349103Y298905D01*
X349051Y298608D01*
X348990Y298376D01*
X348920Y298211D01*
X348840Y298112D01*
X348751Y298079D01*
X354690D01*
X354601Y298112D01*
X354521Y298211D01*
X354450Y298376D01*
X354389Y298608D01*
X354338Y298905D01*
X354295Y299269D01*
X354239Y300195D01*
X354220Y301386D01*
X349220D01*
X349216Y300757D01*
D02*
G37*
G36*
X280422Y297496D02*
X280632Y297270D01*
X280818Y297031D01*
X280979Y296778D01*
X281115Y296512D01*
X281226Y296233D01*
X281313Y295940D01*
X281375Y295634D01*
X281412Y295314D01*
X281424Y294982D01*
X283424D01*
X283437Y295314D01*
X283474Y295634D01*
X283536Y295940D01*
X283622Y296233D01*
X283734Y296512D01*
X283870Y296778D01*
X284031Y297031D01*
X284216Y297270D01*
X284427Y297496D01*
X284662Y297708D01*
X280187D01*
X280422Y297496D01*
D02*
G37*
G36*
X612601Y297020D02*
X612766Y294769D01*
X612865Y294219D01*
X612986Y293769D01*
X613130Y293419D01*
X613295Y293169D01*
X613482Y293020D01*
X613691Y292969D01*
X620090D01*
X619615Y293020D01*
X619190Y293169D01*
X618815Y293419D01*
X618490Y293769D01*
X618215Y294219D01*
X617990Y294769D01*
X617815Y295420D01*
X617690Y296169D01*
X617615Y297020D01*
X617590Y297969D01*
X612590D01*
X612601Y297020D01*
D02*
G37*
G36*
X236550Y302036D02*
X235226Y300905D01*
X234599Y300445D01*
X233993Y300056D01*
X233411Y299738D01*
X232851Y299491D01*
X232313Y299314D01*
X231799Y299208D01*
X231307Y299172D01*
X237246Y292101D01*
X236991Y292518D01*
X236871Y292999D01*
X236886Y293545D01*
X237037Y294155D01*
X237323Y294830D01*
X237744Y295569D01*
X238300Y296373D01*
X238992Y297242D01*
X239819Y298175D01*
X240781Y299172D01*
X237246Y302708D01*
X236550Y302036D01*
D02*
G37*
G36*
X506153Y291171D02*
X506400Y290884D01*
X506618Y290594D01*
X506806Y290302D01*
X506965Y290007D01*
X507094Y289714D01*
X507076Y289668D01*
X506966Y289467D01*
X506835Y289300D01*
X506684Y289166D01*
X506513Y289066D01*
X506322Y289000D01*
X507289Y288976D01*
X507313Y288807D01*
X507328Y288502D01*
X509328D01*
X509342Y288807D01*
X509359Y288925D01*
X510321Y288901D01*
X510132Y288977D01*
X509963Y289085D01*
X509814Y289226D01*
X509685Y289400D01*
X509576Y289606D01*
X509549Y289678D01*
X509560Y289711D01*
X509691Y290007D01*
X509850Y290302D01*
X510038Y290594D01*
X510256Y290884D01*
X510503Y291171D01*
X510778Y291457D01*
X505878D01*
X506153Y291171D01*
D02*
G37*
G36*
X306625Y292139D02*
X306591Y291803D01*
X306534Y291494D01*
X306454Y291212D01*
X306352Y290956D01*
X306226Y290727D01*
X306077Y290525D01*
X305906Y290349D01*
X305712Y290200D01*
X305495Y290077D01*
X310132Y288493D01*
X310038Y288698D01*
X309954Y288921D01*
X309879Y289161D01*
X309815Y289419D01*
X309716Y289985D01*
X309681Y290295D01*
X309642Y290966D01*
X309637Y291327D01*
X306637Y292501D01*
X306625Y292139D01*
D02*
G37*
G36*
X524177Y287649D02*
X524431Y287381D01*
X524648Y287122D01*
X524827Y286872D01*
X524968Y286632D01*
X525072Y286401D01*
X525138Y286179D01*
X525167Y285966D01*
X525158Y285763D01*
X525111Y285570D01*
X525027Y285385D01*
X527855Y288213D01*
X527671Y288129D01*
X527477Y288083D01*
X527274Y288074D01*
X527061Y288102D01*
X526840Y288168D01*
X526609Y288272D01*
X526368Y288414D01*
X526119Y288592D01*
X525860Y288809D01*
X525592Y289063D01*
X524177Y287649D01*
D02*
G37*
G36*
X243751Y290733D02*
X244243Y290698D01*
X244757Y290592D01*
X245295Y290415D01*
X245855Y290168D01*
X246437Y289849D01*
X247043Y289461D01*
X247670Y289001D01*
X248994Y287869D01*
X249690Y287198D01*
X253225Y290733D01*
X252263Y291731D01*
X250744Y293533D01*
X250188Y294336D01*
X249767Y295076D01*
X249481Y295751D01*
X249330Y296361D01*
X249315Y296907D01*
X249435Y297388D01*
X249690Y297804D01*
X243751Y290733D01*
D02*
G37*
G36*
X581496Y295485D02*
X579618Y293888D01*
X578795Y293311D01*
X578050Y292880D01*
X577381Y292598D01*
X576790Y292462D01*
X576276Y292474D01*
X575839Y292633D01*
X575479Y292939D01*
X580470Y287031D01*
X580523Y287145D01*
X580682Y287359D01*
X580947Y287673D01*
X583069Y289923D01*
X585774Y292657D01*
X582550Y296505D01*
X581496Y295485D01*
D02*
G37*
G36*
X241556Y283754D02*
X241956Y283341D01*
X242584Y282602D01*
X242813Y282275D01*
X242986Y281978D01*
X243102Y281710D01*
X243162Y281470D01*
X243165Y281260D01*
X243111Y281078D01*
X243001Y280925D01*
X245799Y283723D01*
X245646Y283613D01*
X245465Y283559D01*
X245254Y283563D01*
X245014Y283622D01*
X244746Y283738D01*
X244449Y283911D01*
X244123Y284140D01*
X243768Y284426D01*
X242971Y285168D01*
X241556Y283754D01*
D02*
G37*
G36*
X348840Y289590D02*
X348920Y289440D01*
X348990Y289190D01*
X349051Y288840D01*
X349103Y288390D01*
X349190Y286667D01*
X348990Y283475D01*
X348920Y283225D01*
X348840Y283076D01*
X348751Y283025D01*
X354690D01*
X354601Y283076D01*
X354521Y283225D01*
X354450Y283475D01*
X354389Y283825D01*
X354338Y284275D01*
X354250Y285998D01*
X354450Y289190D01*
X354521Y289440D01*
X354601Y289590D01*
X354690Y289640D01*
X348751D01*
X348840Y289590D01*
D02*
G37*
G36*
X475579D02*
X475659Y289440D01*
X475729Y289190D01*
X475790Y288840D01*
X475842Y288390D01*
X475929Y286667D01*
X475729Y283475D01*
X475659Y283225D01*
X475579Y283076D01*
X475490Y283025D01*
X481429D01*
X481340Y283076D01*
X481260Y283225D01*
X481189Y283475D01*
X481129Y283825D01*
X481077Y284275D01*
X480990Y285998D01*
X481189Y289190D01*
X481260Y289440D01*
X481340Y289590D01*
X481429Y289640D01*
X475490D01*
X475579Y289590D01*
D02*
G37*
G36*
X647035Y281775D02*
X647374Y281422D01*
X647922Y280761D01*
X648129Y280455D01*
X648292Y280164D01*
X648412Y279889D01*
X648487Y279630D01*
X648518Y279387D01*
X648506Y279159D01*
X648449Y278947D01*
X650027Y283025D01*
X649931Y282853D01*
X649801Y282743D01*
X649637Y282695D01*
X649438Y282709D01*
X649206Y282786D01*
X648939Y282925D01*
X648639Y283127D01*
X648304Y283391D01*
X647934Y283718D01*
X647531Y284107D01*
X647035Y281775D01*
D02*
G37*
G36*
X290240Y285264D02*
X290232Y284907D01*
X290162Y284244D01*
X290101Y283937D01*
X290023Y283648D01*
X289927Y283375D01*
X289814Y283118D01*
X289684Y282879D01*
X289536Y282656D01*
X289371Y282450D01*
X294258Y282812D01*
X294064Y282994D01*
X293891Y283195D01*
X293739Y283416D01*
X293606Y283657D01*
X293495Y283917D01*
X293403Y284196D01*
X293332Y284496D01*
X293281Y284815D01*
X293251Y285153D01*
X293240Y285511D01*
X290240Y285264D01*
D02*
G37*
G36*
X222184Y274605D02*
X222246Y275076D01*
X222425Y275498D01*
X222719Y275870D01*
X223130Y276193D01*
X223657Y276466D01*
X224300Y276689D01*
X225060Y276863D01*
X225935Y276987D01*
X226727Y277046D01*
X228077Y276927D01*
X228727Y276803D01*
X229277Y276643D01*
X229727Y276448D01*
X230077Y276218D01*
X230327Y275952D01*
X230477Y275651D01*
X230527Y275315D01*
Y283754D01*
X230477Y283437D01*
X230327Y283153D01*
X230077Y282903D01*
X229727Y282686D01*
X229277Y282503D01*
X228727Y282353D01*
X228077Y282236D01*
X227327Y282153D01*
X226692Y282129D01*
X225951Y282185D01*
X225084Y282309D01*
X224332Y282483D01*
X223697Y282707D01*
X223178Y282979D01*
X222775Y283302D01*
X222489Y283674D01*
X222318Y284096D01*
X222264Y284568D01*
X222184Y274605D01*
D02*
G37*
G36*
X305161Y283945D02*
X305372Y283796D01*
X305560Y283623D01*
X305727Y283427D01*
X305871Y283207D01*
X305993Y282964D01*
X306093Y282698D01*
X306171Y282408D01*
X306226Y282095D01*
X306259Y281758D01*
X306271Y281398D01*
X309270Y282152D01*
X309277Y282510D01*
X309331Y283178D01*
X309378Y283488D01*
X309512Y284061D01*
X309600Y284323D01*
X309701Y284570D01*
X309815Y284801D01*
X309942Y285017D01*
X305161Y283945D01*
D02*
G37*
G36*
X341231Y283618D02*
X341202Y283278D01*
X341155Y282957D01*
X341088Y282654D01*
X341003Y282368D01*
X340898Y282101D01*
X340775Y281852D01*
X340632Y281621D01*
X340471Y281407D01*
X340290Y281212D01*
X345190D01*
X345010Y281407D01*
X344848Y281621D01*
X344706Y281852D01*
X344582Y282101D01*
X344478Y282368D01*
X344392Y282654D01*
X344326Y282957D01*
X344278Y283278D01*
X344250Y283618D01*
X344240Y283975D01*
X341240D01*
X341231Y283618D01*
D02*
G37*
G36*
X447336Y289101D02*
X447254Y288702D01*
X447116Y288332D01*
X446923Y287992D01*
X446675Y287680D01*
X446373Y287397D01*
X446015Y287144D01*
X445602Y286919D01*
X445133Y286724D01*
X444610Y286558D01*
X449508Y283962D01*
Y278237D01*
X449722Y278427D01*
X449972Y278597D01*
X450258Y278747D01*
X450580Y278877D01*
X450938Y278987D01*
X451332Y279077D01*
X451762Y279147D01*
X452227Y279197D01*
X453267Y279237D01*
Y284237D01*
X452729Y284247D01*
X451762Y284327D01*
X451332Y284397D01*
X450938Y284487D01*
X450580Y284597D01*
X450258Y284727D01*
X450248Y284732D01*
X449416Y287799D01*
X449377Y288115D01*
X449364Y288378D01*
X447364Y289529D01*
X447336Y289101D01*
D02*
G37*
G36*
X470490Y279237D02*
X471444Y279212D01*
X472297Y279137D01*
X473050Y279012D01*
X473704Y278837D01*
X474257Y278612D01*
X474710Y278337D01*
X475063Y278012D01*
X475315Y277637D01*
X475468Y277212D01*
X475520Y276737D01*
X475490Y283025D01*
X475440Y283256D01*
X475290Y283462D01*
X475040Y283644D01*
X474690Y283801D01*
X474240Y283934D01*
X473690Y284044D01*
X473040Y284128D01*
X471440Y284225D01*
X470490Y284237D01*
Y279237D01*
D02*
G37*
G36*
X601300Y274587D02*
X601350Y274676D01*
X601500Y274755D01*
X601750Y274826D01*
X602100Y274887D01*
X602550Y274939D01*
X604500Y275037D01*
X606300Y275056D01*
Y280056D01*
X605350Y280061D01*
X601750Y280286D01*
X601500Y280357D01*
X601350Y280436D01*
X601300Y280525D01*
Y274587D01*
D02*
G37*
G36*
X613641Y280436D02*
X613491Y280357D01*
X613241Y280286D01*
X612891Y280225D01*
X612441Y280173D01*
X610491Y280075D01*
X608691Y280056D01*
Y275056D01*
X609641Y275051D01*
X613241Y274826D01*
X613491Y274755D01*
X613641Y274676D01*
X613691Y274587D01*
Y280525D01*
X613641Y280436D01*
D02*
G37*
G36*
X267712Y281948D02*
X267562Y281635D01*
X267312Y281358D01*
X266962Y281119D01*
X266512Y280916D01*
X265962Y280751D01*
X265312Y280621D01*
X264562Y280529D01*
X263712Y280474D01*
X262762Y280456D01*
Y275456D01*
X263712Y275440D01*
X265312Y275312D01*
X265962Y275200D01*
X266512Y275056D01*
X266962Y274881D01*
X267312Y274673D01*
X267562Y274433D01*
X267712Y274162D01*
X267762Y273859D01*
Y282298D01*
X267712Y281948D01*
D02*
G37*
D11*
X234276Y399230D02*
X228736Y393690D01*
X239816Y363897D02*
X234276Y369437D01*
X239586Y365142D02*
X235315Y369412D01*
X287935Y374977D02*
X282395Y369437D01*
X207032Y347462D02*
X198492Y356002D01*
X215572D02*
X207032Y347462D01*
X198492Y338922D01*
X215572D02*
X207032Y347462D01*
X252260Y334103D02*
X246720Y339643D01*
X242449Y335372D01*
X250991D02*
X246720Y339643D01*
X241180Y334103D01*
X311699Y398347D02*
X306159Y392807D01*
X304880Y391762D02*
X299340Y386222D01*
X415861Y394123D02*
X411321Y398663D01*
X415861Y394613D02*
X411590Y398884D01*
X415861Y394613D02*
X411590Y390342D01*
X420132D02*
X415861Y394613D01*
X420401Y398663D02*
X415861Y394123D01*
X420132Y398884D02*
X415861Y394613D01*
X420401Y389584D02*
X415861Y394123D01*
X411321Y389584D01*
X326951Y355944D02*
X323137Y352130D01*
X338264Y386418D02*
X333993Y382147D01*
X342535D02*
X338264Y386418D01*
X480445Y371847D02*
X476174Y367576D01*
X480445Y363305D02*
X476174Y367576D01*
X482339Y362036D02*
X476799Y367576D01*
X482339Y373116D02*
X476799Y367576D01*
X246720Y309850D02*
X241180Y315390D01*
X257904Y329340D02*
X252364Y323800D01*
X257904Y318260D02*
X252364Y323800D01*
X252260Y304310D02*
X246720Y309850D01*
X252260Y315390D02*
X246720Y309850D01*
X269951D02*
X264411Y315390D01*
X275491Y304310D02*
X269951Y309850D01*
X264411Y304310D01*
X275491Y315390D02*
X269951Y309850D01*
Y294953D02*
X264411Y300493D01*
X275491Y289413D02*
X269951Y294953D01*
X264411Y289413D01*
X368284Y293799D02*
X364013Y298070D01*
X359743Y293799D01*
X364164Y293859D02*
X358624Y288319D01*
X369704D02*
X364164Y293859D01*
Y278806D02*
X358624Y273266D01*
X364164Y278806D02*
X358624Y284346D01*
X369704D02*
X364164Y278806D01*
X369704Y273266D02*
X364164Y278806D01*
X408437Y281737D02*
X400897Y274197D01*
X415977D02*
X408437Y281737D01*
X490904Y399230D02*
X485364Y393690D01*
X496443D02*
X490904Y399230D01*
Y384177D02*
X485364Y389717D01*
X496443D02*
X490904Y384177D01*
X485364Y378637D01*
X496443D02*
X490904Y384177D01*
X518240Y367200D02*
X504700Y380740D01*
X531780D02*
X518240Y367200D01*
X492683Y367576D02*
X487143Y373116D01*
X498223D02*
X492683Y367576D01*
X487143Y362036D01*
X498223D02*
X492683Y367576D01*
X518240Y367200D02*
X504700Y353660D01*
X531780D02*
X518240Y367200D01*
X617910Y400456D02*
X612370Y405996D01*
X618269Y400722D02*
X613998Y404992D01*
X618269Y400722D02*
X613998Y396451D01*
X622539D02*
X618269Y400722D01*
X617910Y400456D02*
X612370Y394916D01*
X623450D02*
X617910Y400456D01*
X663862Y399206D02*
X658322Y393666D01*
X669402Y404746D02*
X663862Y399206D01*
X669402Y393666D02*
X663862Y399206D01*
X615090Y363124D02*
X609550Y368664D01*
X620630Y357584D02*
X615090Y363124D01*
X620630Y368664D02*
X615090Y363124D01*
X609550Y357584D01*
X496443Y299399D02*
X490903Y293859D01*
X496443Y288319D02*
X490903Y293859D01*
X485363Y288319D01*
X597080Y290000D02*
X592810Y294271D01*
X601352D02*
X597080Y290000D01*
X602621Y295540D02*
X597080Y290000D01*
X490903Y278806D02*
X485363Y284346D01*
X496443D02*
X490903Y278806D01*
X555140Y281600D02*
X547956Y288784D01*
X562324D02*
X555140Y281600D01*
X490903Y278806D02*
X485363Y273266D01*
X496443D02*
X490903Y278806D01*
X555140Y281600D02*
X547956Y274416D01*
X562324D02*
X555140Y281600D01*
X581791Y283096D02*
X576251Y277556D01*
X570711Y283096D01*
X576251Y277511D02*
X571980Y281782D01*
X580522D02*
X576251Y277511D01*
X602621Y284460D02*
X597080Y290000D01*
X601352Y285729D02*
X597080Y290000D01*
X576251Y277511D02*
X571980Y273240D01*
X580522D02*
X576251Y277511D01*
X632869Y272787D02*
X628598Y277058D01*
X638740Y277556D02*
X633200Y272016D01*
X644280D02*
X638740Y277556D01*
D12*
X627790Y287150D02*
Y313624D01*
X631540Y283400D02*
X627790Y287150D01*
X646824Y283400D02*
X631540D01*
X651418Y278806D02*
X646824Y283400D01*
X516740Y296500D02*
Y319200D01*
X357966Y376074D02*
X338344D01*
X338190Y375920D01*
X311579Y399870D02*
X291971Y380262D01*
X300740Y380849D02*
Y386222D01*
X337014Y386418D02*
X335014Y384418D01*
X291971Y380262D02*
X291483D01*
X301327D02*
X291971D01*
X284395Y372687D02*
X282395Y370687D01*
X291971Y380262D02*
X284395Y372687D01*
Y373174D01*
Y371437D02*
Y372687D01*
X282395Y369437D02*
Y370687D01*
X311699Y398347D02*
X311199Y397847D01*
X330858Y380262D02*
X301327D01*
X330828Y367650D02*
X324504Y373974D01*
X351720Y369124D02*
X350246Y367650D01*
X330828D01*
X324504Y373974D02*
X319215D01*
X324971Y386444D02*
X317840D01*
X337530Y399003D02*
Y406180D01*
Y399003D02*
X324971Y386444D01*
X276387Y349396D02*
Y389394D01*
X338264Y386418D02*
X337014D01*
X428310Y337414D02*
X413364Y322467D01*
X301327Y380262D02*
X300740Y380849D01*
X309223Y373889D02*
X308137Y372803D01*
X309308Y373974D02*
X309223Y373889D01*
X308137Y356364D02*
X306965Y355192D01*
X293123D01*
X310264Y373974D02*
X309308D01*
X308137Y356364D02*
Y372803D01*
X508328Y281788D02*
Y293956D01*
Y281788D02*
X508140Y281600D01*
X531640D02*
X516740Y296500D01*
X576251Y277556D02*
X561672D01*
X561318Y277910D01*
X274581Y347590D02*
X239976D01*
X276387Y349396D02*
X274581Y347590D01*
X293123Y355192D02*
X292700Y354770D01*
X338610Y361000D02*
X316348D01*
X338610Y353890D02*
Y361000D01*
X338760Y353740D02*
X338610Y353890D01*
X339717Y354269D02*
X339266Y353818D01*
X308137Y353466D02*
X307863Y353740D01*
X386260Y315214D02*
X380047Y309000D01*
X386260Y315214D02*
Y316200D01*
X380047Y309000D02*
X372364D01*
X378652Y316439D02*
X364164D01*
X379390Y315700D02*
X378652Y316439D01*
X252469Y375480D02*
X252382Y375393D01*
X252906Y375916D02*
X252469Y375480D01*
Y375694D01*
X269951Y399230D02*
X257561D01*
X252906Y394576D01*
Y375916D02*
Y394576D01*
X269951Y397980D02*
X267951Y395980D01*
X269951Y397980D02*
Y399230D01*
X337530Y406180D02*
X303121D01*
X289059Y392118D02*
X279112D01*
X303121Y406180D02*
X289059Y392118D01*
X282424Y294982D02*
X282395Y294953D01*
X282424Y294982D02*
Y300400D01*
X240506Y376917D02*
X234783Y371194D01*
X240506Y376917D02*
Y391751D01*
X234276Y397980D01*
X282587Y385537D02*
X282395D01*
X279112Y392118D02*
X276387Y389394D01*
X282395Y354540D02*
X276510D01*
X239976Y347590D02*
X234276Y353290D01*
X364789Y399855D02*
X364164Y399230D01*
X366035Y401101D02*
X364789Y399855D01*
X354686Y392281D02*
X347004D01*
X351865Y392749D02*
X351720Y392894D01*
Y399230D01*
X335014Y384418D02*
X335014D01*
X330858Y380262D01*
X357966Y376074D02*
Y389000D01*
X354686Y392281D01*
X347004D02*
X346270Y393014D01*
X351623Y384275D02*
X351220D01*
X351720Y384177D02*
X351623Y384275D01*
X368283Y376074D02*
X357966D01*
X369702Y376039D02*
X368318D01*
X368283Y376074D01*
X377631Y368110D02*
X369702Y376039D01*
X291483Y380262D02*
X284395Y373174D01*
Y371437D02*
X282395Y369437D01*
X400214Y311901D02*
X388024Y299711D01*
Y299337D02*
Y299711D01*
X382326Y289500D02*
X365680Y306146D01*
X364848D01*
X383008Y289500D02*
X382326D01*
X383070Y289437D02*
X383008Y289500D01*
X372740Y308624D02*
X372364Y309000D01*
X372740Y305000D02*
Y308624D01*
X428364Y337467D02*
X428310Y337414D01*
Y324000D02*
Y337414D01*
X396892Y366502D02*
X364164Y399230D01*
X448364Y284004D02*
X448120Y283760D01*
X418664Y300274D02*
Y309017D01*
X419601Y299337D02*
X418664Y300274D01*
Y309017D02*
X418364Y309317D01*
X408364Y306489D02*
Y309317D01*
Y306489D02*
X408064Y306189D01*
X405235D02*
X398488Y299442D01*
X408064Y306189D02*
X405235D01*
X398488Y299442D02*
X397311D01*
X396039Y401101D02*
X366035D01*
X396074Y401137D02*
X396039Y401101D01*
X358464Y406180D02*
X337530D01*
X457058Y378510D02*
X456931Y378637D01*
X443492D01*
X457138Y369187D02*
X451878Y374448D01*
X445408D01*
X457224Y369187D02*
X457138D01*
X443442Y365695D02*
X443364Y365617D01*
X465996Y368851D02*
X459645Y362500D01*
X448664D01*
X467349Y368851D02*
X465996D01*
X443442Y365695D02*
Y372481D01*
X445408Y374448D02*
X443442Y372481D01*
X443492Y378637D02*
X438364Y373508D01*
X452900Y386128D02*
Y400480D01*
Y386128D02*
X449109Y382337D01*
X441959D01*
X433364Y373741D01*
X448364Y362800D02*
Y365617D01*
X448664Y362500D02*
X448364Y362800D01*
X423431Y365684D02*
X423364Y365617D01*
X423431Y365684D02*
Y372493D01*
X437662Y386724D02*
X423431Y372493D01*
X443740Y388036D02*
X442427Y386724D01*
X437662D01*
X433364Y365617D02*
Y373741D01*
X438364Y365617D02*
Y373508D01*
X282420Y399700D02*
X282395Y399675D01*
Y399230D02*
Y399675D01*
X408064Y366502D02*
X396892D01*
X364164Y400480D02*
X358464Y406180D01*
X324260Y398464D02*
X324143Y398347D01*
X324260Y398464D02*
Y398790D01*
X282395Y384334D02*
Y385537D01*
X384807Y346525D02*
X383831D01*
X388864Y342467D02*
X384807Y346525D01*
X390505Y362155D02*
X368993Y383668D01*
X364674D01*
X390505Y355366D02*
Y362155D01*
X364674Y383668D02*
X364164Y384177D01*
X612440Y338374D02*
X608740D01*
X456514Y317467D02*
X448364D01*
X433877Y293137D02*
X384603D01*
X443364Y294324D02*
X438478Y289437D01*
X383070D01*
X443364Y294324D02*
Y309317D01*
X384603Y293137D02*
X372740Y305000D01*
X438364Y297624D02*
X433877Y293137D01*
X400214Y311901D02*
Y317467D01*
X207032Y398262D02*
X207003D01*
X206740Y398000D01*
X351720Y354020D02*
Y354071D01*
X351740Y354000D02*
X351720Y354020D01*
X316348Y361000D02*
X313137Y357789D01*
Y352130D02*
Y357789D01*
X400214Y342467D02*
X388864D01*
X392273Y347467D02*
X383831Y355910D01*
Y356000D01*
X393338Y352534D02*
X390505Y355366D01*
X400214Y347467D02*
X392273D01*
X400147Y352534D02*
X393338D01*
X400214Y352467D02*
X400147Y352534D01*
X408364Y366202D02*
X408064Y366502D01*
X408364Y365617D02*
Y366202D01*
X234276Y353290D02*
Y354540D01*
Y397980D02*
Y399230D01*
X369616Y369124D02*
X364164D01*
X373931Y364810D02*
X369616Y369124D01*
X359668Y331342D02*
X357831Y333179D01*
X379378Y327467D02*
X370231Y336615D01*
X380969Y332467D02*
X373931Y339505D01*
X364164Y352821D02*
X357831Y346488D01*
X377631Y341822D02*
Y368110D01*
X381985Y337467D02*
X377631Y341822D01*
X357831Y333179D02*
Y346488D01*
X370231Y336615D02*
Y359073D01*
X373931Y339505D02*
Y364810D01*
X370231Y359073D02*
X367588Y361716D01*
X368966Y331342D02*
X359668D01*
X377841Y322467D02*
X368966Y331342D01*
X400214Y322467D02*
X377841D01*
X400214Y332467D02*
X380969D01*
X400214Y337467D02*
X381985D01*
X400214Y327467D02*
X379378D01*
X367588Y361716D02*
X357879D01*
X364164Y352821D02*
Y354071D01*
X357879Y361716D02*
X351720Y367874D01*
Y369124D01*
X301437Y311271D02*
Y330414D01*
X301429Y330422D01*
X329959Y311434D02*
Y330308D01*
X329845Y330422D01*
X239260Y287464D02*
X229482D01*
X245940Y280784D02*
X239260Y287464D01*
X229482D02*
X226540Y290407D01*
Y300424D01*
X232276Y306161D02*
Y307850D01*
Y306161D02*
X226540Y300424D01*
X234276Y309850D02*
X232276Y307850D01*
X245940Y279534D02*
Y280784D01*
X438364Y297624D02*
Y309317D01*
X448364Y284004D02*
Y309317D01*
X445937Y281737D02*
Y283902D01*
X413364Y309317D02*
Y322467D01*
X448364Y317467D02*
X428364Y337467D01*
X408364Y357467D01*
X400214D01*
X428364Y337467D02*
Y365617D01*
X403861Y386124D02*
Y394123D01*
X413364Y365617D02*
Y376621D01*
X403861Y386124D01*
X427861D02*
X418364Y376626D01*
Y365617D02*
Y376626D01*
X427861Y386124D02*
Y394123D01*
D17*
X576440Y297800D02*
X566082D01*
X555140Y281600D02*
Y286858D01*
X566082Y297800D02*
X555140Y286858D01*
X582340Y303700D02*
X576440Y297800D01*
X582340Y303700D02*
Y325800D01*
X589690Y300110D02*
X579581Y290000D01*
X589690Y300110D02*
Y313624D01*
X579581Y290000D02*
X576251D01*
X594940Y338400D02*
X582340Y325800D01*
X598040Y338400D02*
X594940D01*
X598066Y338374D02*
X598040Y338400D01*
X608740Y338374D02*
X598066D01*
X629984Y277556D02*
X629540Y278000D01*
X628598Y277058D01*
Y277058D02*
Y277058D01*
X638740Y277556D02*
X629984D01*
X577501D02*
X576251D01*
X597080Y290000D02*
X594640D01*
X582151Y277511D01*
X576251D01*
X638740Y290000D02*
X638640Y289900D01*
X638740Y290000D02*
Y290000D01*
X597080Y277556D02*
X597061Y277576D01*
X596982D01*
X617910Y277556D02*
X599684D01*
X597080D01*
X617910Y290000D02*
X615090Y292820D01*
Y313624D01*
X490904Y384177D02*
Y399981D01*
X576226Y400480D02*
X491404D01*
X576156Y400658D02*
Y400912D01*
X576251Y400456D02*
Y400564D01*
X576156Y400658D01*
X608834Y380366D02*
Y386674D01*
X593940Y379500D02*
X586013D01*
X602390Y371050D02*
X593940Y379500D01*
X602390Y363124D02*
Y371050D01*
X607495Y388012D02*
X597080D01*
X617910D02*
X607495D01*
X608834Y386674D02*
X607495Y388012D01*
X234040Y384334D02*
X226630D01*
X519783Y316200D02*
X518133Y317850D01*
X577501Y388012D02*
X576251D01*
X586013Y379500D02*
X577501Y388012D01*
X576251Y277511D02*
X576251Y277511D01*
Y277556D01*
X269951Y336506D02*
Y339643D01*
X269898Y330141D02*
X264808Y325050D01*
X269898Y330141D02*
Y336506D01*
X264808Y323800D02*
Y325050D01*
X246720Y309850D02*
Y339643D01*
X252274Y323710D02*
X246912D01*
X252364Y323800D02*
X252274Y323710D01*
X511940Y324000D02*
X494120D01*
X247220Y309850D02*
X246720Y309350D01*
X319129Y373889D02*
X309223D01*
X319215Y373974D02*
X310264D01*
X657640Y360249D02*
X635765Y338374D01*
X663862Y366471D02*
X657640Y360249D01*
X309223Y373889D02*
X300851D01*
X319215Y373974D02*
X319129Y373889D01*
X300851D02*
X300740Y373778D01*
X364164Y316439D02*
Y323965D01*
Y308912D02*
Y316439D01*
X490403Y294359D02*
Y296977D01*
X484741Y302639D01*
Y302973D02*
Y312777D01*
X490903Y293859D02*
X490403Y294359D01*
X490903Y278806D02*
Y293859D01*
X218983Y384334D02*
X207512Y372862D01*
X226630Y384334D02*
X218983D01*
X207512Y372862D02*
X207032D01*
X252469Y375694D02*
X247962Y371187D01*
X247220D02*
X246720Y370687D01*
X247962Y371187D02*
X247220D01*
X246720Y354540D02*
Y370687D01*
X270015Y362242D02*
X269983Y362210D01*
X270015Y362242D02*
X269983Y362274D01*
Y369405D02*
X269951Y369437D01*
X269983Y362274D02*
Y369405D01*
Y354572D02*
Y362210D01*
Y354572D02*
X269951Y354540D01*
X246713Y391923D02*
X246706Y391930D01*
X246713Y384341D02*
Y391923D01*
X246720Y384334D02*
X246713Y384341D01*
Y391807D02*
Y399223D01*
X246720Y399230D02*
X246713Y399223D01*
X269951Y369437D02*
Y384334D01*
X493951Y331700D02*
Y335957D01*
X494139Y336145D02*
X493951Y335957D01*
X494120Y324000D02*
X478566D01*
X494120Y312796D02*
Y324000D01*
X478566D02*
X475637Y321071D01*
Y313071D02*
X475343Y312777D01*
X475637Y313071D02*
Y321071D01*
X478460Y384177D02*
Y399230D01*
Y399605D01*
X452900Y400480D02*
X443740D01*
X477960D02*
X452900D01*
X494139Y312777D02*
X494120Y312796D01*
X476799Y341411D02*
Y355132D01*
Y341411D02*
X475343Y339955D01*
Y336145D02*
Y339955D01*
X492683Y367576D02*
X476799D01*
X635765Y338374D02*
X612440D01*
X408437Y281737D02*
X365846D01*
X364164Y278806D02*
Y280056D01*
X365846Y281737D02*
X364164Y280056D01*
X663862Y366471D02*
Y399206D01*
X233444Y279586D02*
X194572D01*
X492683Y381148D02*
X490904Y382927D01*
X492683Y367576D02*
Y381148D01*
X490904Y382927D02*
Y384177D01*
X351720Y293859D02*
Y301386D01*
Y278806D02*
Y293859D01*
X270499Y311600D02*
X270451D01*
X269951Y311100D01*
Y309850D02*
Y311100D01*
X246173Y308100D02*
X234276Y296203D01*
X246720Y308600D02*
X246220Y308100D01*
X246173D01*
X476778Y281737D02*
X445937D01*
X478459Y280056D02*
Y293859D01*
Y280056D02*
X476778Y281737D01*
X478459Y278806D02*
Y280056D01*
X364164D02*
Y293859D01*
X478460Y399605D02*
Y399981D01*
X517864Y367576D02*
X492683D01*
Y367576D02*
Y367576D01*
X246720Y309350D02*
Y309850D01*
Y308600D02*
Y309350D01*
X269951Y309850D02*
X247220D01*
X234276Y294953D02*
Y296203D01*
X246720Y293703D02*
Y294953D01*
X262467Y277956D02*
X246720Y293703D01*
X269326Y277956D02*
X262467D01*
X194572Y279586D02*
X194520Y279638D01*
X269951Y294953D02*
Y309850D01*
X627733Y363182D02*
X627699D01*
X627790Y363124D02*
X627733Y363182D01*
X589715Y363130D02*
X589710Y363124D01*
X589690D01*
X657640Y311249D02*
X657491D01*
X656740Y312000D01*
X478460Y399981D02*
X477960Y400480D01*
X491404Y400480D02*
X490904Y399981D01*
X568140Y319200D02*
Y366300D01*
X494139Y336145D02*
Y339955D01*
X492683Y341411D02*
Y355132D01*
X494139Y339955D02*
X492683Y341411D01*
X518240Y367200D02*
X517864Y367576D01*
X615090Y344724D02*
Y363124D01*
Y344724D02*
X608740Y338374D01*
X641240Y399206D02*
X639990Y400456D01*
X638740D01*
X651418Y399206D02*
X641240D01*
D19*
X617910Y277556D02*
D03*
Y290000D02*
D03*
X638740Y277556D02*
D03*
Y290000D02*
D03*
X576251Y277556D02*
D03*
Y290000D02*
D03*
X597080D02*
D03*
Y277556D02*
D03*
X617910Y400456D02*
D03*
Y388012D02*
D03*
X638740D02*
D03*
Y400456D02*
D03*
X576251D02*
D03*
Y388012D02*
D03*
X597080D02*
D03*
Y400456D02*
D03*
X336340Y373778D02*
D03*
Y386222D02*
D03*
X317840Y386444D02*
D03*
Y374000D02*
D03*
X299340Y373778D02*
D03*
Y386222D02*
D03*
X492683Y355132D02*
D03*
Y367576D02*
D03*
X476799Y355132D02*
D03*
Y367576D02*
D03*
X443740Y400480D02*
D03*
Y388036D02*
D03*
D20*
X651418Y278806D02*
D03*
X663862D02*
D03*
X651418Y399206D02*
D03*
X663862D02*
D03*
X246720Y294953D02*
D03*
X234276D02*
D03*
Y309850D02*
D03*
X246720D02*
D03*
X234276Y369437D02*
D03*
X246720D02*
D03*
X234276Y339643D02*
D03*
X246720D02*
D03*
Y354540D02*
D03*
X234276D02*
D03*
Y384334D02*
D03*
X246720D02*
D03*
Y399230D02*
D03*
X234276D02*
D03*
X282395Y294953D02*
D03*
X269951D02*
D03*
X282395Y309850D02*
D03*
X269951D02*
D03*
X264808Y323800D02*
D03*
X252364D02*
D03*
X269951Y339643D02*
D03*
X282395D02*
D03*
X269951Y354540D02*
D03*
X282395D02*
D03*
Y369437D02*
D03*
X269951D02*
D03*
Y384334D02*
D03*
X282395D02*
D03*
X364164Y384177D02*
D03*
X351720D02*
D03*
X245940Y279534D02*
D03*
X233496D02*
D03*
X351720Y323965D02*
D03*
X364164D02*
D03*
X490903Y278806D02*
D03*
X478459D02*
D03*
X490903Y293859D02*
D03*
X478459D02*
D03*
X311699Y398347D02*
D03*
X324143D02*
D03*
X364164Y354071D02*
D03*
X351720D02*
D03*
X269951Y399230D02*
D03*
X282395D02*
D03*
X364164Y308912D02*
D03*
X351720D02*
D03*
X364164Y293859D02*
D03*
X351720D02*
D03*
X490904Y384177D02*
D03*
X478460D02*
D03*
X490904Y399230D02*
D03*
X478460D02*
D03*
X364164Y369124D02*
D03*
X351720D02*
D03*
Y399230D02*
D03*
X364164D02*
D03*
X351720Y278806D02*
D03*
X364164D02*
D03*
X351720Y339018D02*
D03*
X364164D02*
D03*
X270731Y278078D02*
D03*
X283175D02*
D03*
D21*
X567540Y319200D02*
D03*
X516740D02*
D03*
D22*
X508140Y281600D02*
D03*
X531640D02*
D03*
X555140D02*
D03*
D23*
X292700Y354770D02*
D03*
X338760Y353740D02*
D03*
X377250Y316200D02*
D03*
X386830D02*
D03*
X597080Y290000D02*
D03*
X628598Y277058D02*
D03*
X638640Y289900D02*
D03*
X596982Y277576D02*
D03*
X618269Y400722D02*
D03*
X576156Y400912D02*
D03*
X608834Y380366D02*
D03*
X576251Y277511D02*
D03*
X638797Y388066D02*
D03*
X663862Y278806D02*
D03*
X517142Y318841D02*
D03*
X508328Y293956D02*
D03*
X252382Y375393D02*
D03*
X307005Y286920D02*
D03*
X415861Y394613D02*
D03*
X282424Y300400D02*
D03*
X291999Y280138D02*
D03*
X282604Y310058D02*
D03*
X315705Y286920D02*
D03*
X270015Y362242D02*
D03*
X234040Y384230D02*
D03*
X246706Y391930D02*
D03*
X291200Y363600D02*
D03*
X282587Y385537D02*
D03*
X351220Y384275D02*
D03*
X346270Y393014D02*
D03*
X342336Y361200D02*
D03*
X338264Y386418D02*
D03*
X342740Y278713D02*
D03*
X388024Y299337D02*
D03*
X364013Y298070D02*
D03*
X372364Y309000D02*
D03*
X428310Y324000D02*
D03*
X493951Y331700D02*
D03*
X419601Y299337D02*
D03*
X397311Y299442D02*
D03*
X396074Y401137D02*
D03*
X457058Y378510D02*
D03*
X457224Y369187D02*
D03*
X467349Y368851D02*
D03*
X235315Y369412D02*
D03*
X315637Y337922D02*
D03*
X476174Y367576D02*
D03*
X282420Y399700D02*
D03*
X324260Y398790D02*
D03*
X383831Y346525D02*
D03*
X207032Y347462D02*
D03*
X246720Y339643D02*
D03*
X234710D02*
D03*
X200742Y324403D02*
D03*
X492683Y355132D02*
D03*
X206740Y398000D02*
D03*
X351740Y354000D02*
D03*
X383831Y356000D02*
D03*
X364031Y339013D02*
D03*
X205540Y305038D02*
D03*
X233444Y279586D02*
D03*
X589715Y363130D02*
D03*
X615090Y313624D02*
D03*
X568140Y319200D02*
D03*
X656740Y312000D02*
D03*
X627699Y363182D02*
D03*
X478460Y399605D02*
D03*
X291597Y340588D02*
D03*
X282302Y339795D02*
D03*
X329959Y311271D02*
D03*
X301437D02*
D03*
X351720Y301386D02*
D03*
D24*
X403861Y394123D02*
D03*
X427861D02*
D03*
X415861D02*
D03*
D25*
X418364Y365617D02*
D03*
X413364D02*
D03*
X408364D02*
D03*
X423364D02*
D03*
X428364D02*
D03*
X433364D02*
D03*
X438364D02*
D03*
X443364D02*
D03*
X448364D02*
D03*
Y309317D02*
D03*
X443364D02*
D03*
X438364D02*
D03*
X433364D02*
D03*
X428364D02*
D03*
X423364D02*
D03*
X418364D02*
D03*
X413364D02*
D03*
X408364D02*
D03*
D26*
X329845Y345422D02*
D03*
Y340422D02*
D03*
Y335422D02*
D03*
Y330422D02*
D03*
X301429D02*
D03*
Y335422D02*
D03*
Y340422D02*
D03*
Y345422D02*
D03*
D27*
X323137Y323714D02*
D03*
X318137D02*
D03*
X313137D02*
D03*
X308137D02*
D03*
Y352130D02*
D03*
X313137D02*
D03*
X318137D02*
D03*
X323137D02*
D03*
D28*
X315637Y337922D02*
D03*
D29*
X207032Y372862D02*
D03*
Y398262D02*
D03*
X205540Y305038D02*
D03*
D30*
X207032Y347462D02*
D03*
X205540Y279638D02*
D03*
D31*
X608740Y338374D02*
D03*
D32*
X627790Y363124D02*
D03*
X615090D02*
D03*
X602390D02*
D03*
X589690D02*
D03*
Y313624D02*
D03*
X602390D02*
D03*
X615090D02*
D03*
X627790D02*
D03*
D33*
X518240Y367200D02*
D03*
X567240D02*
D03*
D34*
X657640Y360249D02*
D03*
D35*
Y311249D02*
D03*
D36*
X456514Y352467D02*
D03*
Y347467D02*
D03*
Y342467D02*
D03*
Y337467D02*
D03*
Y332467D02*
D03*
Y327467D02*
D03*
Y322467D02*
D03*
Y317467D02*
D03*
X400214D02*
D03*
Y322467D02*
D03*
Y327467D02*
D03*
Y332467D02*
D03*
Y337467D02*
D03*
Y342467D02*
D03*
Y347467D02*
D03*
Y352467D02*
D03*
X456514Y357467D02*
D03*
X400214D02*
D03*
D37*
X428364Y337467D02*
D03*
D38*
X494139Y312777D02*
D03*
X484741D02*
D03*
X475343D02*
D03*
Y336145D02*
D03*
X494139D02*
D03*
D59*
X257561Y402780D02*
G03*
X255047Y401738I0J-3550D01*
G01*
X257561Y402780D02*
G03*
X255051Y401741I0J-3550D01*
G01*
X218983Y389384D02*
G03*
X215405Y387898I0J-5050D01*
G01*
X218983Y389384D02*
G03*
X215412Y387905I0J-5050D01*
G01*
X253645Y369476D02*
G03*
X257399Y378775I-1263J5917D01*
G01*
X276845Y402050D02*
G03*
X276370Y399700I5575J-2350D01*
G01*
D02*
G03*
X276845Y397350I6050J0D01*
G01*
X287945Y397235D02*
G03*
X287945Y402165I-5525J2465D01*
G01*
X273877Y391904D02*
G03*
X273293Y391134I2510J-2510D01*
G01*
X273880Y391907D02*
G03*
X273293Y391134I2507J-2513D01*
G01*
X292540Y369500D02*
G03*
X288785Y369147I-1340J-5900D01*
G01*
X240666Y365073D02*
G03*
X241170Y365781I-5351J4340D01*
G01*
X192532Y356852D02*
G03*
X188106Y355071I0J-6390D01*
G01*
Y339854D02*
G03*
X192532Y338072I4426J4609D01*
G01*
X221532D02*
G03*
X223626Y338425I0J6390D01*
G01*
X223682Y356480D02*
G03*
X221532Y356852I-2150J-6018D01*
G01*
X230540Y330872D02*
G03*
X231627Y332843I-2864J2864D01*
G01*
X230532Y330864D02*
G03*
X231627Y332843I-2855J2872D01*
G01*
X239826Y336414D02*
G03*
X240263Y337240I-5116J3230D01*
G01*
X253110Y337066D02*
G03*
X253110Y342220I-6390J2577D01*
G01*
X263965Y362242D02*
G03*
X264401Y359987I6050J0D01*
G01*
Y364497D02*
G03*
X263965Y362242I5614J-2255D01*
G01*
X275501Y344161D02*
G03*
X276845Y344856I-921J3429D01*
G01*
X275501Y344161D02*
G03*
X276845Y344856I-921J3429D01*
G01*
Y342409D02*
G03*
X276252Y339795I5456J-2614D01*
G01*
D02*
G03*
X276845Y337182I6050J0D01*
G01*
X287945Y335764D02*
G03*
X290566Y334626I3652J4824D01*
G01*
X288876Y332937D02*
G03*
X287690Y330073I2864J-2864D01*
G01*
X288885Y332945D02*
G03*
X287690Y330073I2855J-2872D01*
G01*
X322490Y445300D02*
G03*
X322490Y445300I18550J0D01*
G01*
D02*
G03*
X322490Y445300I18550J0D01*
G01*
X408971Y394613D02*
G03*
X410471Y390321I6890J0D01*
G01*
Y398905D02*
G03*
X408971Y394613I5390J-4292D01*
G01*
X421251Y390321D02*
G03*
X421251Y398905I-5390J4292D01*
G01*
X329845Y349472D02*
G03*
X328511Y349246I0J-4050D01*
G01*
X332710Y353740D02*
G03*
X334472Y349472I6050J0D01*
G01*
X343980Y382572D02*
G03*
X344401Y383287I-5717J3846D01*
G01*
X344401D02*
G03*
X345330Y380700I6819J988D01*
G01*
X336241Y379832D02*
G03*
X337649Y379556I2023J6586D01*
G01*
X333981Y357450D02*
G03*
X332710Y353740I4779J-3710D01*
G01*
X339410Y379624D02*
G03*
X340287Y379832I-1147J6794D01*
G01*
X436940Y390200D02*
G03*
X435149Y389231I722J-3476D01*
G01*
X436940Y390200D02*
G03*
X435152Y389234I722J-3476D01*
G01*
X460996Y373917D02*
G03*
X462272Y381577I-3938J4593D01*
G01*
X462396Y372325D02*
G03*
X460996Y373917I-5172J-3138D01*
G01*
X470580Y373966D02*
G03*
X462396Y372325I-3231J-5115D01*
G01*
X478751Y373966D02*
G03*
X473597Y373966I-2577J-6390D01*
G01*
X474575Y360874D02*
G03*
X478751Y361186I1599J6702D01*
G01*
X480687Y338188D02*
G03*
X481849Y341411I-3888J3223D01*
G01*
X480687Y338188D02*
G03*
X481849Y341411I-3888J3223D01*
G01*
X204583Y329077D02*
G03*
X194692Y324403I-3841J-4674D01*
G01*
D02*
G03*
X205018Y320123I6050J0D01*
G01*
X218515Y320525D02*
G03*
X221387Y321719I0J4050D01*
G01*
X218515Y320525D02*
G03*
X221379Y321711I0J4050D01*
G01*
X273462Y326563D02*
G03*
X274948Y330141I-3564J3578D01*
G01*
X273469Y326570D02*
G03*
X274948Y330141I-3571J3571D01*
G01*
X276845Y311914D02*
G03*
X276554Y310058I5758J-1856D01*
G01*
D02*
G03*
X276845Y308202I6050J0D01*
G01*
X276985Y303050D02*
G03*
X276374Y300400I5439J-2650D01*
G01*
X191040Y288188D02*
G03*
X188106Y287349I0J-5550D01*
G01*
X222990Y290407D02*
G03*
X224030Y287896I3550J0D01*
G01*
X222990Y290407D02*
G03*
X224033Y287893I3550J0D01*
G01*
X225072Y284981D02*
G03*
X220040Y288188I-5031J-2342D01*
G01*
X224022Y272771D02*
G03*
X225019Y274186I-3981J3867D01*
G01*
X223348Y272182D02*
G03*
X223991Y272741I-3308J4457D01*
G01*
X239046Y277302D02*
G03*
X239046Y281871I-5602J2285D01*
G01*
X276374Y300400D02*
G03*
X276845Y298059I6050J0D01*
G01*
X258890Y274392D02*
G03*
X262467Y272906I3578J3564D01*
G01*
X258896Y274385D02*
G03*
X262467Y272906I3571J3571D01*
G01*
X327187Y305893D02*
G03*
X334420Y315358I2772J5378D01*
G01*
X357270Y296655D02*
G03*
X357774Y295147I6743J1415D01*
G01*
X325993Y277985D02*
G03*
X327187Y280857I-2855J2872D01*
G01*
X326001Y277993D02*
G03*
X327187Y280857I-2864J2864D01*
G01*
X336690Y278713D02*
G03*
X346170Y273729I6050J0D01*
G01*
X338258Y282776D02*
G03*
X336690Y278713I4482J-4063D01*
G01*
X427187Y277502D02*
G03*
X439687Y277502I6250J4236D01*
G01*
X416827Y275404D02*
G03*
X427187Y277502I4110J6333D01*
G01*
X439687D02*
G03*
X451060Y276191I6250J4236D01*
G01*
X315719Y269389D02*
G03*
X318582Y270575I0J4050D01*
G01*
X315719Y269389D02*
G03*
X318591Y270583I0J4050D01*
G01*
X322490Y230700D02*
G03*
X322490Y230700I18550J0D01*
G01*
D02*
G03*
X322490Y230700I18550J0D01*
G01*
X484010Y397197D02*
G03*
X484010Y402014I-5550J2408D01*
G01*
X497733Y381148D02*
G03*
X497294Y383209I-5050J0D01*
G01*
X497733Y381148D02*
G03*
X497294Y383209I-5050J0D01*
G01*
X548876Y383004D02*
G03*
X547690Y380140I2864J-2864D01*
G01*
X548885Y383012D02*
G03*
X547690Y380140I2855J-2872D01*
G01*
X495092Y360682D02*
G03*
X490275Y360682I-2408J-5550D01*
G01*
X487633Y341411D02*
G03*
X488795Y338188I5050J0D01*
G01*
X487901Y331700D02*
G03*
X488512Y329050I6050J0D01*
G01*
X488795Y334866D02*
G03*
X487901Y331700I5156J-3166D01*
G01*
X487633Y341411D02*
G03*
X488795Y338188I5050J0D01*
G01*
X499483Y329251D02*
G03*
X499483Y334149I-5532J2449D01*
G01*
X554604Y330836D02*
G03*
X555465Y332110I-2864J2864D01*
G01*
X554596Y330828D02*
G03*
X555465Y332110I-2855J2872D01*
G01*
X619263Y407539D02*
G03*
X615112Y406846I-995J-6818D01*
G01*
X624110Y410706D02*
G03*
X621238Y409511I0J-4050D01*
G01*
X624110Y410706D02*
G03*
X621247Y409520I0J-4050D01*
G01*
X638592Y394906D02*
G03*
X641240Y394156I2648J4300D01*
G01*
X638592Y394906D02*
G03*
X641240Y394156I2648J4300D01*
G01*
X641326Y393562D02*
G03*
X636269Y393562I-2528J-5496D01*
G01*
X620990Y445300D02*
G03*
X620990Y445300I18550J0D01*
G01*
D02*
G03*
X620990Y445300I18550J0D01*
G01*
X660526Y409520D02*
G03*
X657662Y410706I-2864J-2864D01*
G01*
X660534Y409511D02*
G03*
X657662Y410706I-2872J-2855D01*
G01*
X616486Y394066D02*
G03*
X620051Y394066I1782J6655D01*
G01*
X607940Y374382D02*
G03*
X608700Y374317I894J5984D01*
G01*
X613372Y376364D02*
G03*
X614509Y382462I-4538J4001D01*
G01*
X622240Y365791D02*
G03*
X621649Y363182I5458J-2609D01*
G01*
D02*
G03*
X622240Y360573I6050J0D01*
G01*
X633340Y360997D02*
G03*
X633340Y365367I-5641J2185D01*
G01*
X636516Y382462D02*
G03*
X641078Y382462I2281J5604D01*
G01*
X635765Y333324D02*
G03*
X639336Y334804I0J5050D01*
G01*
X649140Y380639D02*
G03*
X637250Y368750I0J-11890D01*
G01*
X672913Y378522D02*
G03*
X669097Y380266I-6773J-9772D01*
G01*
X637250Y351749D02*
G03*
X637887Y347912I11890J0D01*
G01*
X635765Y333324D02*
G03*
X639343Y334810I0J5050D01*
G01*
X535891Y313801D02*
G03*
X538763Y314995I0J4050D01*
G01*
X535891Y313801D02*
G03*
X538755Y314987I0J4050D01*
G01*
X513190Y297556D02*
G03*
X502278Y293956I-4862J-3600D01*
G01*
D02*
G03*
X503323Y290557I6050J0D01*
G01*
X513227Y290406D02*
G03*
X514377Y293843I-4899J3550D01*
G01*
X564513Y302600D02*
G03*
X562511Y301371I1569J-4800D01*
G01*
X564513Y302600D02*
G03*
X562504Y301364I1569J-4800D01*
G01*
X593254Y296532D02*
G03*
X594731Y299805I-3564J3578D01*
G01*
X593261Y296539D02*
G03*
X594731Y299805I-3571J3571D01*
G01*
X599657Y296390D02*
G03*
X594504Y296390I-2577J-6390D01*
G01*
X503323Y290557D02*
G03*
X497970Y281600I4817J-8957D01*
G01*
X553246Y292446D02*
G03*
X544130Y281600I1894J-10846D01*
G01*
X566139Y281106D02*
G03*
X563938Y288220I-10999J494D01*
G01*
X522368Y285778D02*
G03*
X521470Y281600I9272J-4178D01*
G01*
X497970D02*
G03*
X504321Y272174I10170J0D01*
G01*
X521470Y281600D02*
G03*
X527821Y272174I10170J0D01*
G01*
X511960D02*
G03*
X513227Y290406I-3819J9426D01*
G01*
X535460Y272174D02*
G03*
X527462Y290872I-3819J9426D01*
G01*
X544130Y281600D02*
G03*
X549450Y272174I11010J0D01*
G01*
X560831D02*
G03*
X563112Y274006I-5690J9426D01*
G01*
X578713Y283946D02*
G03*
X573790Y283946I-2461J-6435D01*
G01*
X598832Y283336D02*
G03*
X599657Y283610I-1751J6664D01*
G01*
X583891Y272770D02*
G03*
X585729Y273947I-1740J4741D01*
G01*
X583891Y272770D02*
G03*
X585722Y273940I-1740J4741D01*
G01*
X594620Y272006D02*
G03*
X599344Y272006I2362J5570D01*
G01*
X609040Y313624D02*
G03*
X609540Y311216I6050J0D01*
G01*
Y316033D02*
G03*
X609040Y313624I5550J-2408D01*
G01*
X610040Y292820D02*
G03*
X611110Y289712I5050J0D01*
G01*
X610040Y292820D02*
G03*
X611110Y289712I5050J0D01*
G01*
X624710Y285385D02*
G03*
X625283Y284637I3080J1766D01*
G01*
X624710Y285385D02*
G03*
X625280Y284640I3080J1766D01*
G01*
X626349Y283570D02*
G03*
X624710Y282746I2249J-6513D01*
G01*
X638090Y311249D02*
G03*
X666355Y293750I19550J0D01*
G01*
X640140Y319965D02*
G03*
X638090Y311249I17500J-8715D01*
G01*
X640804Y295550D02*
G03*
X636477Y295550I-2163J-5650D01*
G01*
X648848Y286317D02*
G03*
X646824Y286950I-2024J-2917D01*
G01*
X648848Y286317D02*
G03*
X646824Y286950I-2024J-2917D01*
G01*
X657812Y278806D02*
G03*
X658312Y276398I6050J0D01*
G01*
Y281214D02*
G03*
X657812Y278806I5550J-2408D01*
G01*
X669412Y276398D02*
G03*
X669412Y281214I-5550J2408D01*
G01*
X623913Y272006D02*
G03*
X632170Y271166I4685J5052D01*
G01*
X620990Y231700D02*
G03*
X620990Y231700I18550J0D01*
G01*
D02*
G03*
X620990Y231700I18550J0D01*
G01*
X227886Y399775D02*
X227082Y398970D01*
X227886Y397840D02*
X227082Y398644D01*
X227886Y402082D02*
X227082Y402887D01*
Y389712D02*
Y404325D01*
X227886Y395532D02*
X227082Y394728D01*
X227886Y404017D02*
X227082Y403213D01*
X227886Y404325D02*
X227082D01*
X227886Y391590D02*
Y404325D01*
X227082Y389712D02*
X188106D01*
X227082Y390485D02*
X226309Y389712D01*
X226353Y389384D02*
X218983D01*
X227409Y389449D02*
X226579Y389433D01*
X227886Y393597D02*
X227082Y394402D01*
X235641Y391590D02*
X227886D01*
X227768Y389472D02*
X227082Y390159D01*
X228187Y391590D02*
X227082Y390485D01*
X252270Y398960D02*
Y404325D01*
X254367Y401057D02*
X252270Y403154D01*
X253650Y404325D02*
X252270Y402946D01*
X240666Y396611D02*
Y404325D01*
X241170Y396107D02*
Y404325D01*
X261129Y402780D02*
X259584Y404325D01*
X262135D02*
X260590Y402780D01*
X256941Y402726D02*
X255342Y404325D01*
X257893D02*
X255973Y402406D01*
X236103Y391134D02*
X231405D01*
X255047Y401738D02*
X252270Y398960D01*
X228726Y389582D02*
Y391134D01*
X231209D02*
X228726D01*
X261976Y395681D02*
X256456Y390161D01*
X259031Y395681D02*
X256456Y393105D01*
X206130Y381412D02*
X197830Y389712D01*
X205096D02*
X196796Y381412D01*
X209339Y389712D02*
X201039Y381412D01*
X200853Y389712D02*
X192553Y381412D01*
X201887D02*
X193587Y389712D01*
X211743Y384285D02*
X206315Y389712D01*
X213889Y386381D02*
X210558Y389712D01*
X209402Y382383D02*
X202073Y389712D01*
X213581D02*
X205281Y381412D01*
X193402D02*
X188106Y386709D01*
X192368Y389712D02*
X188106Y385450D01*
Y381412D02*
Y389712D01*
X189159Y381412D02*
X188106Y382466D01*
X206561Y381412D02*
X188106D01*
X211028Y383623D02*
X210431Y383114D01*
X196611Y389712D02*
X188311Y381412D01*
X197645D02*
X189345Y389712D01*
X216061Y388452D02*
X214800Y389712D01*
X217824D02*
X217151Y389040D01*
X215405Y387898D02*
X211879Y384371D01*
X264401Y382538D02*
X256456Y390484D01*
Y380951D02*
Y393105D01*
X264401Y380424D02*
Y391134D01*
X211690Y384252D02*
X211028Y383623D01*
X252270Y365528D02*
Y367255D01*
X264401Y369810D02*
X258419Y375792D01*
X253645Y369476D02*
X252942Y368652D01*
X263986Y361740D02*
X255511Y370215D01*
X264401Y403751D02*
X263827Y404325D01*
X264401D02*
X252270D01*
X264401Y402780D02*
Y404325D01*
Y402780D02*
X257561D01*
X275501Y393528D02*
Y404325D01*
X276845Y402065D02*
X275501Y400721D01*
X276845Y404325D02*
X275501D01*
X276714Y397691D02*
X275501Y396478D01*
X276395Y400243D02*
X275501Y401136D01*
X264401Y395681D02*
X259031D01*
X267951Y392430D02*
X264401D01*
Y395681D01*
X268534Y391134D02*
X267237Y392430D01*
X276598Y394626D02*
X275501Y393528D01*
X276845Y395550D02*
X275501Y396894D01*
X274403Y392430D02*
X267951D01*
X275501Y393528D02*
X274403Y392430D01*
X287945Y402165D02*
Y404325D01*
X293372D02*
X287945D01*
X291834D02*
X288360Y400851D01*
X292764Y400844D02*
X289283Y404325D01*
X294885Y402966D02*
X293516Y404335D01*
X294656Y404384D02*
X293552Y404330D01*
X296663Y404743D02*
X287945Y396026D01*
X296452Y404701D02*
X287945Y396194D01*
X276845Y402050D02*
Y404325D01*
Y394851D02*
Y397350D01*
X290643Y398723D02*
X288318Y401047D01*
X287945Y396026D02*
Y397235D01*
X288521Y396602D02*
X287945Y397178D01*
X264401Y389621D02*
X256456Y381675D01*
X264401Y378295D02*
X256456Y386241D01*
X264401Y385378D02*
X257555Y378532D01*
X264401Y374053D02*
X256456Y381998D01*
X264401Y381136D02*
X258428Y375162D01*
X264401Y391023D02*
X259744Y395681D01*
X273293Y391134D02*
X264401D01*
Y393864D02*
X256456Y385918D01*
X264401Y386781D02*
X257266Y393916D01*
X264401Y372650D02*
X252270Y360519D01*
X264401Y365567D02*
X257614Y372355D01*
X264401Y368408D02*
X252270Y356277D01*
X264401Y357082D02*
X252895Y368589D01*
X264401Y373754D02*
Y376237D01*
Y377534D02*
Y380016D01*
X264810Y377301D02*
X252270Y364762D01*
X264401Y364497D02*
Y373345D01*
X267211Y392430D02*
X265914Y391134D01*
X271454Y392430D02*
X270157Y391134D01*
X264798Y377534D02*
X264742Y378650D01*
X264813Y377244D02*
X264750Y376237D01*
X272776Y391134D02*
X271479Y392430D01*
X290115Y369552D02*
X288785Y370882D01*
X292540Y371091D02*
X291099Y369649D01*
X288785Y369147D02*
Y372052D01*
X292540Y375333D02*
X288785Y371579D01*
X292540Y375811D02*
X288793Y372064D01*
X292540Y371370D02*
X290319Y373590D01*
X292540Y369500D02*
Y375811D01*
X205152Y364312D02*
X197692Y356852D01*
X200991D02*
X193531Y364312D01*
X205234Y356852D02*
X197774Y364312D01*
X196749Y356852D02*
X189289Y364312D01*
X200909D02*
X193449Y356852D01*
X209797Y364312D02*
X188106D01*
X213719Y356852D02*
X206259Y364312D01*
X209394D02*
X201934Y356852D01*
X209477D02*
X202017Y364312D01*
X192424D02*
X188106Y359994D01*
X217827Y364260D02*
X210420Y356852D01*
X192506Y356852D02*
X188106Y361253D01*
X213585Y364260D02*
X206177Y356852D01*
X223682Y364260D02*
X210060D01*
X222070D02*
X214662Y356852D01*
X221532D02*
X192532D01*
X217962D02*
X210554Y364260D01*
X240666Y361797D02*
Y365073D01*
X223682Y359618D02*
X219040Y364260D01*
X241170Y362637D02*
Y365119D01*
X222244Y356813D02*
X214797Y364260D01*
X223682Y356480D02*
Y364260D01*
X241567Y362637D02*
X241510Y363753D01*
X241571Y362548D02*
X239826Y360803D01*
X241581Y362347D02*
X241518Y361340D01*
X239826D02*
X231782D01*
X239826Y360444D02*
X238930Y361340D01*
X223682Y361629D02*
X218905Y356852D01*
X223682Y357387D02*
X222981Y356686D01*
X240666Y361797D02*
X231782D01*
X241170Y359100D02*
X239826Y360444D01*
X241170Y357905D02*
X239826Y356561D01*
X241170Y358857D02*
Y361340D01*
X196667Y364312D02*
X188106Y355752D01*
X189201Y355915D02*
X188106Y357010D01*
Y355071D02*
Y364312D01*
X191695Y338128D02*
X188106Y334538D01*
X188685Y339360D02*
X188106Y338781D01*
X195882Y338072D02*
X188106Y330296D01*
X198236Y329909D02*
X189024Y339121D01*
X221532Y338072D02*
X192532D01*
X208610D02*
X200986Y330448D01*
X202087Y330302D02*
X194316Y338072D01*
X212853D02*
X204169Y329389D01*
X223028Y334816D02*
X219771Y338072D01*
X223626Y335414D02*
Y338425D01*
X239826Y353247D02*
Y361340D01*
X241170Y354857D02*
X239826Y356201D01*
X241170Y353662D02*
X240097Y352589D01*
X241170Y351417D02*
Y358449D01*
X220907Y332694D02*
X215529Y338072D01*
X218786Y330573D02*
X211286Y338072D01*
X239826Y332843D02*
Y336414D01*
Y332843D02*
X231627D01*
X240330Y332003D02*
Y337066D01*
X251922Y362637D02*
X251859Y361630D01*
X251930Y360224D02*
X251874Y361340D01*
X252270Y362637D02*
Y365119D01*
Y351140D02*
Y358449D01*
Y358857D02*
Y361340D01*
X264222Y363986D02*
X252270Y352034D01*
X264401Y352839D02*
X252270Y364971D01*
X261858Y351140D02*
X252270Y360728D01*
X264401Y359922D02*
X255619Y351140D01*
X253373D02*
X252270Y352243D01*
X253110Y342220D02*
Y344040D01*
X257004D02*
X253546Y340582D01*
X257616Y351140D02*
X252270Y356485D01*
X264401Y351140D02*
X252270D01*
X261247Y344040D02*
X253110Y335903D01*
X264401Y344040D02*
X253110D01*
X264401Y358946D02*
Y359987D01*
Y355680D02*
X259862Y351140D01*
X264401D02*
Y358662D01*
X276845Y342409D02*
Y344856D01*
X264401Y340112D02*
X260473Y344040D01*
X276351Y340890D02*
X275501Y341739D01*
X264401Y335869D02*
X256230Y344040D01*
X276500Y338080D02*
X275501Y337081D01*
X276845Y342668D02*
X275501Y341324D01*
X276845Y336153D02*
X275501Y337497D01*
X253110Y332003D02*
Y337066D01*
X264401Y342952D02*
X252889Y331440D01*
X264228Y331800D02*
X253110Y342917D01*
X261185Y330600D02*
X253479Y338306D01*
X264401Y338709D02*
X257132Y331440D01*
X241604Y332003D02*
X240330D01*
X253110D02*
X251869D01*
X241620Y330397D02*
X241604Y332003D01*
X256102Y331440D02*
X253110Y334432D01*
X258754Y331440D02*
X251834D01*
X264768Y332282D02*
X262880Y330600D01*
X259258D01*
X264401Y334467D02*
X260535Y330600D01*
X264401Y335522D02*
Y344040D01*
X275501Y335660D02*
Y344161D01*
X264401Y332843D02*
Y335326D01*
X275501Y332843D02*
Y335326D01*
X290566Y334626D02*
X288885Y332945D01*
X276845Y332843D02*
Y337182D01*
X287945Y332843D02*
Y335764D01*
X275112Y332843D02*
X275003Y331276D01*
X276845Y334183D02*
X275083Y332420D01*
X275003Y331276D02*
X274998Y330409D01*
X287690Y329551D02*
X284398Y332843D01*
X287945D02*
X276845D01*
X288716Y332767D02*
X287945Y333538D01*
X321390Y472066D02*
X314274Y464950D01*
X315714Y466931D02*
X312642Y462702D01*
X319409Y470626D02*
X315714Y466931D01*
X326232Y456472D02*
X315743Y466960D01*
X328230Y458717D02*
X317865Y469082D01*
X335916Y478106D02*
X308234Y450424D01*
X330285Y476718D02*
X309622Y456055D01*
X344642Y478347D02*
X307836Y441541D01*
X340556Y478504D02*
X307836Y445784D01*
X310269Y458046D02*
X308654Y453075D01*
X312642Y462702D02*
X310269Y458046D01*
X307836Y445300D02*
Y447913D01*
X308654Y453075D02*
X307836Y447913D01*
X323347Y450872D02*
X312262Y461957D01*
X324589Y453872D02*
X313953Y464508D01*
X322619Y443114D02*
X309636Y456097D01*
X322606Y447370D02*
X310830Y459146D01*
X338427Y478504D02*
X333265Y477686D01*
X328294Y476071D01*
X343653Y478504D02*
X338427D01*
X344668Y463492D02*
X331158Y477002D01*
X348305Y477767D02*
X332081Y461543D01*
X348815Y477686D02*
X343653Y478504D01*
X353786Y476071D02*
X348815Y477686D01*
X352573Y459829D02*
X334518Y477885D01*
X351571Y476791D02*
X338449Y463668D01*
X323638Y473698D02*
X319409Y470626D01*
X328294Y476071D02*
X323638Y473698D01*
X330574Y460615D02*
X320077Y471112D01*
X333282Y462150D02*
X322535Y472897D01*
X340091Y463826D02*
X327997Y475920D01*
X354653Y475630D02*
X342790Y463767D01*
X336411Y463263D02*
X325187Y474488D01*
X357463Y474197D02*
X346342Y463076D01*
X322672Y447891D02*
X307836Y433056D01*
X326081Y434330D02*
X307596Y415845D01*
X324797Y454259D02*
X307836Y437299D01*
X317819Y409730D02*
X307836Y419713D01*
X322062Y409730D02*
X307836Y423956D01*
X330547Y409730D02*
X307836Y432441D01*
X343275Y409730D02*
X307836Y445169D01*
X328051Y432057D02*
X305724Y409730D01*
X326304D02*
X307836Y428198D01*
X307141Y413917D02*
X306416Y412168D01*
X307719Y416463D02*
X307350Y414606D01*
X296663Y404743D02*
X295193Y404450D01*
X306077Y411533D02*
X305025Y409958D01*
X337024Y409730D02*
X304811D01*
X307832Y417946D02*
X307785Y417000D01*
X309334Y409730D02*
X306557Y412507D01*
X313576Y409730D02*
X307574Y415733D01*
X322573Y443550D02*
X307836Y428813D01*
X324411Y437080D02*
X308621Y452869D01*
X307836Y418127D02*
Y445300D01*
X323264Y439998D02*
X307836Y424571D01*
X324470Y436962D02*
X307836Y420328D01*
X347517Y409730D02*
X308041Y449207D01*
X334790Y409730D02*
X307836Y436684D01*
X339032Y409730D02*
X307836Y440926D01*
X336133Y427411D02*
X318452Y409730D01*
X339759Y426794D02*
X322695Y409730D01*
X330365Y430129D02*
X309967Y409730D01*
X333042Y428563D02*
X314209Y409730D01*
X351760D02*
X332820Y428671D01*
X356003Y409730D02*
X338854Y426879D01*
X344234Y427027D02*
X326937Y409730D01*
X351286Y429836D02*
X331180Y409730D01*
X358442Y473698D02*
X353786Y476071D01*
X360044Y472535D02*
X349379Y461870D01*
X362671Y470626D02*
X358442Y473698D01*
X362501Y470750D02*
X352010Y460259D01*
X364645Y468652D02*
X354283Y458289D01*
X373684Y451446D02*
X347186Y477944D01*
X372044Y457329D02*
X353069Y476304D01*
X374244Y442401D02*
X338180Y478465D01*
X374244Y446644D02*
X342384Y478504D01*
X366703Y466467D02*
X356211Y455975D01*
X368489Y464010D02*
X357777Y453298D01*
X374244Y438158D02*
X355569Y456833D01*
X373576Y452127D02*
X356504Y435054D01*
X374981Y416208D02*
X356355Y434834D01*
X374244Y421188D02*
X357890Y437542D01*
X366366Y466931D02*
X362671Y470626D01*
X369438Y462703D02*
X366366Y466931D01*
X370109Y461387D02*
X358929Y450208D01*
X371541Y458577D02*
X359546Y446581D01*
X371811Y458046D02*
X369438Y462703D01*
X373426Y453075D02*
X371811Y458046D01*
X372655Y455448D02*
X359313Y442106D01*
X374244Y447913D02*
X373426Y453075D01*
X374244Y429673D02*
X359566Y444351D01*
X374244Y445300D02*
Y447913D01*
Y425431D02*
X359003Y440671D01*
X374244Y420802D02*
Y445300D01*
Y433916D02*
X359232Y448928D01*
X374306Y419444D02*
X374248Y420622D01*
X374832Y416595D02*
X374372Y418907D01*
X375943Y413728D02*
X375041Y415906D01*
X368726Y409736D02*
X349612Y428849D01*
X364483Y409736D02*
X346612Y427607D01*
X372968Y409736D02*
X352212Y430492D01*
X374156Y448464D02*
X335423Y409730D01*
X374244Y431581D02*
X352393Y409730D01*
X374244Y444309D02*
X339665Y409730D01*
X377211Y409736D02*
X354456Y432490D01*
X374244Y440066D02*
X343908Y409730D01*
X374244Y435824D02*
X348150Y409730D01*
X360240Y409736D02*
X343110Y426866D01*
X374244Y423096D02*
X360883Y409736D01*
X357483Y409730D02*
X338036D01*
X358464D02*
X357483D01*
X378848Y409736D02*
X357509D01*
X375187Y415554D02*
X369369Y409736D01*
X374244Y427338D02*
X356636Y409730D01*
X374372Y418982D02*
X365126Y409736D01*
X377592Y411133D02*
X376283Y413093D01*
X378717Y409832D02*
X377925Y410707D01*
X376558Y412682D02*
X373611Y409736D01*
X432411Y386493D02*
Y404725D01*
X436940D02*
X432411D01*
X484010Y402014D02*
Y404725D01*
X436940Y400918D02*
X433133Y404725D01*
X436940Y394930D02*
Y404725D01*
X410471D02*
X408411D01*
X421251Y398905D02*
Y404725D01*
X408411Y386740D02*
Y404725D01*
X410471Y398905D02*
Y404725D01*
X423311Y404282D02*
X421251Y402222D01*
X423311Y404725D02*
X421251D01*
X423311Y386727D02*
Y404725D01*
X436483D02*
X432411Y400654D01*
X408979Y394938D02*
X408411Y395506D01*
X408984Y394197D02*
X408411Y393624D01*
X409971Y398189D02*
X408411Y399749D01*
X410471Y401931D02*
X408411Y403991D01*
X410471Y404170D02*
X408411Y402110D01*
X410471Y399927D02*
X408411Y397867D01*
X307914Y390707D02*
X306980Y389773D01*
X311040Y386811D02*
X307290Y390561D01*
X311040Y389591D02*
X306980Y385531D01*
X311040Y390707D02*
X307436D01*
X410008Y390979D02*
X408411Y389382D01*
X410471Y384961D02*
X408411Y387021D01*
X410471Y389203D02*
X408411Y391263D01*
X410471Y387199D02*
X409161Y385889D01*
X410471Y384534D02*
X409241Y385764D01*
X410471Y384534D02*
Y390321D01*
X422438Y385721D02*
X421251Y386908D01*
X423252Y386654D02*
X422574Y385925D01*
X421251Y384534D02*
Y390321D01*
X422464Y385747D02*
X421251Y384534D01*
X311040Y385348D02*
X309504Y383812D01*
X311040D02*
X306980D01*
X311040D02*
Y390707D01*
X306980Y383812D02*
Y390251D01*
X309796Y383812D02*
X306980Y386628D01*
X333981Y357450D02*
X327801D01*
X333212Y356153D02*
X331916Y357450D01*
X327801Y349246D02*
Y357450D01*
X329811D02*
X327801Y355440D01*
X332905Y352218D02*
X327801Y357322D01*
X331408Y349472D02*
X327801Y353079D01*
X333783Y357179D02*
X327801Y351197D01*
X334472Y349472D02*
X329845D01*
X332939Y352093D02*
X330318Y349472D01*
X343980Y379832D02*
X340287D01*
X343980D02*
Y382572D01*
X345062Y381186D02*
X343980Y380104D01*
X345330Y379624D02*
Y380700D01*
X336241Y379832D02*
X335448D01*
X336924Y379328D02*
X334944D01*
X342811Y379624D02*
X342043D01*
X345330D02*
X342811D01*
X342043D02*
X339410D01*
X423311Y401819D02*
X421251Y403879D01*
X423311Y397576D02*
X421251Y399636D01*
X423311Y400039D02*
X421639Y398367D01*
X423311Y393334D02*
X422717Y393928D01*
X423311Y395797D02*
X422725Y395211D01*
X436940Y400941D02*
X432411Y396411D01*
X436940Y396675D02*
X432411Y401204D01*
X436940Y396698D02*
X432411Y392169D01*
X436940Y392433D02*
X432411Y396962D01*
X423311Y391554D02*
X421251Y389494D01*
X423311Y389091D02*
X421601Y390802D01*
X423311Y387311D02*
X421251Y385251D01*
X433403Y387485D02*
X432411Y388476D01*
X435552Y389578D02*
X432411Y392719D01*
X435149Y389231D02*
X432411Y386493D01*
X436940Y392455D02*
X432411Y387926D01*
X439416Y394930D02*
X438072Y393587D01*
X440029D02*
X438685Y394930D01*
X436940Y390200D02*
Y393587D01*
X438072D02*
X436940Y392455D01*
X445613Y394930D02*
X436940D01*
X446957Y393587D02*
X445613Y394930D01*
X443658D02*
X442314Y393587D01*
X444272D02*
X442928Y394930D01*
X446957Y393587D02*
X436940D01*
X472910Y381577D02*
X462272D01*
X464246D02*
X462867Y380199D01*
X483661Y392430D02*
X483594Y391354D01*
X483669Y389861D02*
X483613Y390977D01*
X472910Y377677D02*
X469008Y381577D01*
X472910Y377377D02*
Y381577D01*
X468489D02*
X462142Y375230D01*
X467201Y374899D02*
X463087Y379014D01*
X472731Y381577D02*
X465872Y374718D01*
X472377Y373966D02*
X464766Y381577D01*
X484010Y377377D02*
X472910D01*
X476120Y374466D02*
X473209Y377377D01*
X472910Y377513D02*
X469785Y374389D01*
X477017Y377377D02*
X473610Y373971D01*
X463981Y373877D02*
X462325Y375533D01*
X473597Y373966D02*
X470580D01*
X483599Y360682D02*
X474383D01*
X480863Y373966D02*
X477451Y377377D01*
X481259D02*
X478079Y374197D01*
X484010Y377377D02*
Y388087D01*
X483599Y349582D02*
Y352064D01*
Y352260D02*
Y360682D01*
X481849Y341411D02*
Y346053D01*
Y346888D01*
X483162Y349582D02*
X481948Y348367D01*
X483599Y349582D02*
X482074D01*
X481914Y347977D02*
X481899Y347115D01*
X482033Y349364D02*
X481914Y347977D01*
X208006Y328625D02*
X198558Y338072D01*
X195888Y328014D02*
X188106Y335797D01*
X212249Y328625D02*
X202801Y338072D01*
X204368D02*
X188106Y321810D01*
X200125Y338072D02*
X188106Y326053D01*
X221338Y338072D02*
X211890Y328625D01*
X223626Y336118D02*
X216133Y328625D01*
X216491D02*
X207044Y338072D01*
X217096D02*
X207648Y328625D01*
X194716Y324944D02*
X188106Y331554D01*
X194697Y324159D02*
X188106Y317568D01*
X216837Y328625D02*
X206201D01*
X223626Y335414D02*
X216837Y328625D01*
X218515Y320525D02*
X206402D01*
X230532Y330864D02*
X221387Y321719D01*
X240354Y317490D02*
X228756Y329088D01*
X241670Y328706D02*
X229614Y316650D01*
X232709D02*
X224513Y324845D01*
X236952Y316650D02*
X226635Y326967D01*
X241670Y324659D02*
X233486Y332843D01*
X241670Y328902D02*
X237729Y332843D01*
X241670Y320416D02*
X230857Y331229D01*
X241670Y319327D02*
Y330159D01*
X239826Y316650D02*
X228726D01*
Y316390D02*
X222392Y322724D01*
X229614Y316650D02*
X228726Y315762D01*
X241571Y317490D02*
X240330D01*
X241620Y319082D02*
X241616Y318207D01*
X241670Y324463D02*
X233857Y316650D01*
X241670Y320221D02*
X238099Y316650D01*
X201829Y313588D02*
X188106Y327312D01*
X197587Y313588D02*
X188106Y323069D01*
X212276Y320525D02*
X205339Y313588D01*
X188106D02*
Y339854D01*
X195756Y320976D02*
X188369Y313588D01*
X218800D02*
X211863Y320525D01*
X233079Y332843D02*
X213825Y313588D01*
X214557D02*
X207621Y320525D01*
X216518D02*
X209582Y313588D01*
X198022Y318999D02*
X192611Y313588D01*
X201694Y318428D02*
X196854Y313588D01*
X189101D02*
X188106Y314584D01*
X193344Y313588D02*
X188106Y318827D01*
X225590Y313588D02*
X188106D01*
X210315D02*
X204354Y319549D01*
X208033Y320525D02*
X201097Y313588D01*
X206072D02*
X201283Y318377D01*
X223043Y313588D02*
X216106Y320525D01*
X237322Y332843D02*
X218067Y313588D01*
X228726Y312147D02*
X220047Y320826D01*
X228726Y307850D02*
Y316650D01*
X240725Y332003D02*
X222310Y313588D01*
X240330Y309680D02*
Y317490D01*
X239826Y309070D02*
Y316650D01*
X226742Y305646D02*
X225590Y306798D01*
X228706Y307731D02*
X227992Y306965D01*
X225590Y304495D02*
Y313588D01*
X227880Y306785D02*
X225590Y304495D01*
X228726Y311519D02*
X225590Y308384D01*
X228726Y315762D02*
X225590Y312626D01*
X228726Y307904D02*
X225590Y311040D01*
X253110Y302210D02*
X247826D01*
X260535Y330600D02*
X259258Y329323D01*
X258754Y316160D02*
Y331440D01*
X259258Y317000D02*
Y330600D01*
X276341Y317490D02*
X270358D01*
X283991Y332843D02*
X270358Y319210D01*
Y317490D02*
Y323207D01*
X274295Y317490D02*
X270358Y321427D01*
X253110Y315030D02*
Y316160D01*
X258754D02*
X253110D01*
X253875Y314965D02*
X253110Y315030D01*
X254580Y316160D02*
X253424Y315004D01*
X263561Y317000D02*
X259258D01*
X263561Y315496D02*
X262057Y317000D01*
X262829Y314965D02*
X261935Y314949D01*
X263561Y315010D02*
Y317000D01*
X279748Y332843D02*
X273291Y326386D01*
X287690Y316823D02*
X274919Y329594D01*
X287690Y321065D02*
X275501Y333254D01*
X287690Y325308D02*
X280155Y332843D01*
X290113Y334723D02*
X272880Y317490D01*
X287690Y316650D02*
Y330073D01*
X271811Y324814D02*
X270443Y323313D01*
X273169Y326199D02*
X271811Y324814D01*
X279378Y316650D02*
X271526Y324502D01*
X283621Y316650D02*
X273583Y326687D01*
X287690Y328057D02*
X276341Y316708D01*
X287690Y323814D02*
X280525Y316650D01*
X287690D02*
X276845D01*
X287690Y319572D02*
X284768Y316650D01*
X255672Y314900D02*
X254412Y316160D01*
X254737Y314949D02*
X253875Y314965D01*
X259663Y317000D02*
X257562Y314900D01*
X261707D02*
X254964D01*
X263561Y316656D02*
X261832Y314927D01*
X259915Y314900D02*
X258654Y316160D01*
X263561Y302768D02*
X261530Y304800D01*
X253110Y302210D02*
Y304689D01*
X254737Y304750D02*
X253842Y304734D01*
X260190Y304800D02*
X252270Y296880D01*
X255948Y304800D02*
X252270Y301122D01*
X261707Y304800D02*
X254964D01*
X263561Y298525D02*
X257287Y304800D01*
X263561Y294282D02*
X253152Y304692D01*
X263561Y303928D02*
X253697Y294064D01*
X276341Y302593D02*
Y317490D01*
X276845Y311914D02*
Y316650D01*
X262797Y304734D02*
X261935Y304750D01*
X263561Y304669D02*
X262797Y304734D01*
X264778Y302210D02*
X263561D01*
Y302593D02*
Y304669D01*
X276341Y302593D02*
X275125D01*
X276845Y303050D02*
Y308202D01*
X264802Y302593D02*
X263561D01*
X205210Y296488D02*
X196910Y288188D01*
X201773D02*
X193473Y296488D01*
X206016Y288188D02*
X197716Y296488D01*
X197531Y288188D02*
X189231Y296488D01*
X200967D02*
X192667Y288188D01*
X213695Y296488D02*
X205395Y288188D01*
X214501D02*
X206201Y296488D01*
X209452D02*
X201152Y288188D01*
X210259D02*
X201959Y296488D01*
X189319Y287915D02*
X188106Y289128D01*
X192482Y296488D02*
X188106Y292112D01*
Y287349D02*
Y296488D01*
X222990D02*
X188106D01*
X220040Y288188D02*
X191040D01*
X196724Y296488D02*
X188106Y287869D01*
X193288Y288188D02*
X188106Y293371D01*
X222180Y296488D02*
X213880Y288188D01*
X222990Y292427D02*
X218929Y296488D01*
X217938D02*
X209638Y288188D01*
X218744D02*
X210444Y296488D01*
X252270Y301753D02*
X247219D01*
X252270Y298063D02*
Y301753D01*
X222990Y290407D02*
Y296488D01*
X252270Y295934D02*
Y297942D01*
X222990Y293055D02*
X218123Y288188D01*
X223250Y289073D02*
X222006Y287829D01*
X225173Y286753D02*
X224441Y286021D01*
X254195Y293473D02*
X252812Y295114D01*
X226969Y284957D02*
X224033Y287893D01*
X226417Y284757D02*
X214687Y296488D01*
X225428Y274280D02*
X224547Y273399D01*
X226265Y272182D02*
X224748Y273699D01*
X227718Y274348D02*
X226709Y274438D01*
X240390Y275027D02*
X239046Y276371D01*
X227946Y272734D02*
Y274305D01*
X239046Y272734D02*
Y277302D01*
X230429Y272734D02*
X227946D01*
X232367D02*
X231815Y272182D01*
X228125Y272734D02*
X227572Y272182D01*
X230508D02*
X229956Y272734D01*
X239046D02*
X230625D01*
X238993Y272182D02*
X238441Y272734D01*
X234751Y272182D02*
X234198Y272734D01*
X236610D02*
X236057Y272182D01*
X239046Y281871D02*
Y282658D01*
X240390Y280757D02*
X239488Y279855D01*
X240390Y279270D02*
X239463Y280197D01*
X254942Y278339D02*
X251490Y274886D01*
X252821Y280460D02*
X251490Y279129D01*
X240390Y272734D02*
Y281168D01*
X251490Y272734D02*
Y281791D01*
X240390Y276514D02*
X239046Y275170D01*
X245095Y272734D02*
X244543Y272182D01*
X240853Y272734D02*
X240300Y272182D01*
X243236D02*
X242684Y272734D01*
X251490D02*
X240390D01*
X251721Y272182D02*
X251169Y272734D01*
X247479Y272182D02*
X246926Y272734D01*
X249338D02*
X248785Y272182D01*
X263561Y290040D02*
X252270Y301331D01*
X255097Y292538D02*
X254195Y293473D01*
X263561Y299686D02*
X255720Y291845D01*
X263561Y295443D02*
X257842Y289723D01*
X263561Y291200D02*
X259963Y287602D01*
X263561Y287313D02*
Y302210D01*
X263917Y287313D02*
X262084Y285480D01*
X268723Y284878D02*
X266289Y287313D01*
X267664Y284878D02*
X265181D01*
X268159Y287313D02*
X265725Y284878D01*
X276341Y287313D02*
X263561D01*
X276281Y284878D02*
X267860D01*
X272402Y287313D02*
X269967Y284878D01*
X272966D02*
X270531Y287313D01*
X276341Y302210D02*
X275101D01*
X276341Y287313D02*
Y302210D01*
X276845Y288153D02*
Y298059D01*
X278176Y288153D02*
X276845Y289484D01*
X287690Y287124D02*
X286662Y288153D01*
X285970D02*
X282695Y284878D01*
X287690Y285547D02*
Y288153D01*
X281451Y284878D02*
X278176Y288153D01*
X281727D02*
X278452Y284878D01*
X277484Y288153D02*
X274210Y284878D01*
X277625Y284461D02*
X274774Y287313D01*
X287690Y288153D02*
X276845D01*
X287690Y285632D02*
X286937Y284878D01*
X287614D02*
X277625D01*
X285694D02*
X282419Y288153D01*
X258890Y274392D02*
X251490Y281791D01*
X260207Y272182D02*
X251490Y280898D01*
X264432Y283133D02*
X255222Y292342D01*
X255964Y272182D02*
X251490Y276655D01*
X257064Y276217D02*
X253028Y272182D01*
X265181Y284177D02*
X252270Y297088D01*
X265725Y284878D02*
X265181Y284335D01*
X264206Y283359D01*
X265181Y283246D02*
Y284878D01*
X259197Y274108D02*
X257271Y272182D01*
X262243Y272911D02*
X261513Y272182D01*
X263587Y272842D02*
X262718Y272856D01*
X264988Y272730D02*
X263587Y272842D01*
X265181Y272182D02*
X223348D01*
X264449D02*
X263807Y272824D01*
X277625Y275976D02*
X276281Y277320D01*
X277625Y279809D02*
X276281Y278465D01*
Y272182D02*
Y284878D01*
X277625Y275567D02*
X276281Y274223D01*
X277625Y284051D02*
X276281Y282707D01*
X278452Y284878D02*
X277625Y284051D01*
Y280219D02*
X276281Y281562D01*
X277625Y272182D02*
Y284878D01*
X277177Y272182D02*
X276281Y273077D01*
X277625Y272182D02*
X276281D01*
X301857Y266838D02*
X298465Y269105D01*
X301145Y269389D02*
X299902Y268145D01*
X307771Y269389D02*
X297913D01*
X305388D02*
X302400Y266400D01*
X327352Y243220D02*
X301183Y269389D01*
X303797Y265133D02*
X302284Y266505D01*
X337211Y326668D02*
X333509Y322965D01*
Y317037D02*
Y326598D01*
X335935D02*
X333509D01*
X338690Y311176D02*
X327187Y299673D01*
X338690Y323904D02*
X333509Y318722D01*
X338690Y320977D02*
X333509Y326158D01*
X338690Y312492D02*
X333509Y317673D01*
X338690Y316734D02*
X333509Y321916D01*
X338690Y302691D02*
X327187Y291187D01*
X328638Y305367D02*
X327187Y303915D01*
X338690Y298448D02*
X327187Y286945D01*
X338690Y287036D02*
X327187Y298539D01*
X338690Y295521D02*
X328897Y305315D01*
X338690Y299764D02*
X332618Y305836D01*
X338690Y291278D02*
X327187Y302782D01*
X338690Y306933D02*
X327187Y295430D01*
X338690Y319661D02*
X334407Y315378D01*
X338690Y315418D02*
X335863Y312591D01*
X335935Y326598D02*
Y327944D01*
X338690Y304006D02*
X334907Y307790D01*
X338690Y308249D02*
X336000Y310940D01*
X338690Y325189D02*
X335935Y327944D01*
X357270Y289950D02*
Y296655D01*
Y287059D02*
Y289542D01*
X370554Y287886D02*
X369456Y286787D01*
X372616Y294190D02*
X370554Y292128D01*
X371883Y286787D02*
X370554D01*
X372880D02*
X370554Y289113D01*
X327187Y280857D02*
Y305893D01*
X336911Y280330D02*
X327187Y290054D01*
X338441Y283042D02*
X327187Y294296D01*
X338690Y285720D02*
X307845Y254874D01*
X337856Y275142D02*
X327187Y285811D01*
X338690Y284260D02*
Y325189D01*
X356922Y287059D02*
X356855Y285982D01*
X338690Y289963D02*
X307434Y258707D01*
X338690Y294205D02*
X327187Y282702D01*
X336746Y279533D02*
X307845Y250632D01*
X325993Y277985D02*
X318591Y270583D01*
X337374Y275919D02*
X307845Y246389D01*
X373955Y226315D02*
X324139Y276131D01*
X356930Y284490D02*
X356874Y285606D01*
X357774Y286446D02*
Y295147D01*
X357270Y283123D02*
Y285606D01*
X357774Y271166D02*
Y286219D01*
X370554Y286787D02*
X369349D01*
X370554D02*
Y295904D01*
X359001Y286219D02*
X357774D01*
X359015Y286446D02*
X357774D01*
X357270Y272006D02*
Y282715D01*
X370554Y271166D02*
Y276540D01*
X372202Y276638D02*
X371328Y276615D01*
X372030Y276634D02*
X370554Y275158D01*
X379813Y286993D02*
X370636Y296170D01*
X374737Y292069D02*
X370554Y287886D01*
X378980Y287826D02*
X377941Y286787D01*
X377122D02*
X370554Y293356D01*
X376859Y289947D02*
X373699Y286787D01*
X380036D02*
X372586D01*
X398183Y276687D02*
X372419D01*
X399271Y276616D02*
X398400Y276638D01*
X400047Y273347D02*
Y276540D01*
X416827Y274761D02*
X415413Y273347D01*
X416827D02*
Y275404D01*
X429919Y272174D02*
X425977Y276116D01*
X440158Y276879D02*
X435453Y272174D01*
X480687Y329050D02*
Y338188D01*
X483352Y329050D02*
X480687Y331715D01*
X483661Y287059D02*
X483594Y285982D01*
X484009Y287059D02*
Y289542D01*
Y289950D02*
Y296029D01*
X483669Y284490D02*
X483613Y285606D01*
X484009Y283123D02*
Y285606D01*
X442647Y272174D02*
X438596Y276225D01*
X451132Y272174D02*
X448625Y274682D01*
X438404Y272174D02*
X435958Y274621D01*
X442524Y275003D02*
X439696Y272174D01*
X470205Y276687D02*
X453568D01*
X471296Y276615D02*
X470422Y276638D01*
X453367Y276639D02*
X452416Y276603D01*
X472909Y275853D02*
X472254Y276509D01*
X387767Y271900D02*
X382980Y276687D01*
X389054D02*
X382101Y269734D01*
X391735Y272174D02*
X387223Y276687D01*
X374236Y230277D02*
X326249Y278264D01*
X374236Y234519D02*
X327187Y281569D01*
X397540Y276687D02*
X393027Y272174D01*
X400221D02*
X395708Y276687D01*
X393297D02*
X388656Y272046D01*
X395978Y272174D02*
X391465Y276687D01*
X379363Y267576D02*
X370554Y276385D01*
X381710Y269472D02*
X374495Y276687D01*
X376327D02*
X347666Y248026D01*
X380569Y276687D02*
X350524Y246642D01*
X400047Y274952D02*
X397270Y272174D01*
X421434D02*
X419224Y274384D01*
X384812Y276687D02*
X353002Y244878D01*
X384475Y270949D02*
X378737Y276687D01*
X463860Y272174D02*
X459347Y276687D01*
X465422D02*
X460909Y272174D01*
X427555Y277004D02*
X422725Y272174D01*
X461179Y276687D02*
X456666Y272174D01*
X472346D02*
X467833Y276687D01*
X484009Y272174D02*
Y282715D01*
X468103Y272174D02*
X463590Y276687D01*
X469665D02*
X465152Y272174D01*
X452617Y276611D02*
X448181Y272174D01*
X455375D02*
X451246Y276304D01*
X425676Y272174D02*
X423288Y274563D01*
X429874Y275081D02*
X426968Y272174D01*
X472909Y275690D02*
X469394Y272174D01*
X472909D02*
Y276354D01*
X456937Y276687D02*
X452424Y272174D01*
X459618D02*
X455105Y276687D01*
X309631Y269389D02*
X304561Y264318D01*
X304698Y264167D02*
X304050Y264881D01*
X306085Y262164D02*
X305032Y263739D01*
X313873Y269389D02*
X306260Y261775D01*
X307149Y259779D02*
X306424Y261529D01*
X329551Y245264D02*
X305426Y269389D01*
X315719D02*
X307771D01*
X346189Y272006D02*
X307845Y233661D01*
X342605Y272664D02*
X307845Y237904D01*
X307728Y257232D02*
X307358Y259090D01*
X307840Y255748D02*
X307794Y256695D01*
X307864Y227843D02*
X307845Y230436D01*
Y255568D01*
X325500Y240829D02*
X307388Y258942D01*
X322966Y234877D02*
X307845Y249999D01*
X323007Y226352D02*
X307845Y241514D01*
X322495Y231107D02*
X307845Y245757D01*
X342601Y249184D02*
X319896Y271889D01*
X346170Y272006D02*
Y273729D01*
X339380Y273682D02*
X307845Y242147D01*
X348226Y247801D02*
X322018Y274010D01*
X357270Y272006D02*
X346170D01*
X358803Y271166D02*
X357774Y272194D01*
X350432Y272006D02*
X307852Y229426D01*
X354675Y272006D02*
X308241Y225572D01*
X324017Y238070D02*
X307845Y254242D01*
X308717Y222700D02*
X307864Y227843D01*
X338471Y249071D02*
X317659Y269883D01*
X358077Y271166D02*
X335227Y248316D01*
X332102Y246955D02*
X309669Y269389D01*
X335045Y248255D02*
X313911Y269389D01*
X323424Y236513D02*
X308940Y222029D01*
X310361Y217754D02*
X308717Y222700D01*
X322501Y231347D02*
X309999Y218845D01*
X322788Y227391D02*
X311313Y215916D01*
X323714Y224074D02*
X312760Y213121D01*
X347069Y198047D02*
X307845Y237271D01*
X334226Y198162D02*
X308524Y223864D01*
X343361Y197512D02*
X307845Y233029D01*
X339135Y197496D02*
X307857Y228773D01*
X312757Y213125D02*
X310361Y217754D01*
X315847Y208926D02*
X312757Y213125D01*
X319553Y205261D02*
X315847Y208926D01*
X323787Y202220D02*
X319553Y205261D01*
X325098Y221216D02*
X314559Y210677D01*
X326862Y218738D02*
X316452Y208328D01*
X328093Y200052D02*
X310346Y217799D01*
X328976Y216609D02*
X318586Y206218D01*
X331438Y214828D02*
X320902Y204292D01*
X334279Y213426D02*
X323371Y202519D01*
X337572Y212477D02*
X326134Y201039D01*
X341493Y212155D02*
X329027Y199689D01*
X356515Y201329D02*
X345218Y212626D01*
X359218Y202869D02*
X348410Y213677D01*
X346576Y212995D02*
X332241Y198661D01*
X350494Y198864D02*
X336692Y212667D01*
X328443Y199876D02*
X323787Y202220D01*
X333407Y198288D02*
X328443Y199876D01*
X338559Y197494D02*
X333407Y198288D01*
X343772Y197514D02*
X338559Y197494D01*
X353689Y199913D02*
X341447Y212154D01*
X358508Y202351D02*
X353870Y199972D01*
X348917Y198347D02*
X343772Y197514D01*
X353870Y199972D02*
X348917Y198347D01*
X374788Y259423D02*
X363045Y271166D01*
X370554D02*
X357774D01*
X375891Y262563D02*
X367288Y271166D01*
X374236Y251490D02*
X353720Y272006D01*
X374254Y255715D02*
X358803Y271166D01*
X388502Y272046D02*
X386204Y271589D01*
X390209Y272170D02*
X389038Y272113D01*
X377448Y265248D02*
X370554Y272142D01*
X385515Y271380D02*
X383351Y270484D01*
X374899Y259983D02*
X374373Y257338D01*
X376140Y263164D02*
X375108Y260672D01*
X362320Y271166D02*
X340393Y249239D01*
X374307Y256801D02*
X374241Y255453D01*
X380341Y268510D02*
X379472Y267722D01*
X382715Y270144D02*
X380768Y268843D01*
X377978Y266041D02*
X376480Y263799D01*
X379217Y267468D02*
X378311Y266467D01*
X417191Y272174D02*
X416018Y273347D01*
X420508Y274200D02*
X418483Y272174D01*
X412949D02*
X411776Y273347D01*
X415413D02*
X414240Y272174D01*
X445951Y274187D02*
X443939Y272174D01*
X446890D02*
X444789Y274275D01*
X433227Y274190D02*
X431211Y272174D01*
X434162D02*
X432014Y274323D01*
X406928Y273347D02*
X405755Y272174D01*
X408706D02*
X407533Y273347D01*
X402685D02*
X401512Y272174D01*
X404463D02*
X403290Y273347D01*
X472909Y272174D02*
X390390D01*
X416827Y273347D02*
X400047D01*
X411170D02*
X409997Y272174D01*
X484009Y272006D02*
X472909D01*
X366563Y271166D02*
X344349Y248953D01*
X374236Y247247D02*
X349478Y272006D01*
X374236Y236413D02*
X335750Y197927D01*
X374236Y243004D02*
X344358Y272883D01*
X377112Y264745D02*
X355131Y242764D01*
X374236Y238762D02*
X339169Y273829D01*
X374479Y257869D02*
X356912Y240302D01*
X366048Y208767D02*
X355604Y219211D01*
X367885Y211172D02*
X357295Y221762D01*
X361670Y204659D02*
X351170Y215160D01*
X363931Y206641D02*
X353560Y217012D01*
X373388Y222837D02*
X348894Y198343D01*
X370820Y216027D02*
X355709Y200916D01*
X374236Y232171D02*
X339563Y197498D01*
X374205Y227897D02*
X343832Y197523D01*
X374236Y240656D02*
X358745Y225165D01*
X374236Y228094D02*
Y230700D01*
X373340Y222688D02*
X358142Y237886D01*
X372301Y219484D02*
X359524Y232261D01*
X374236Y253384D02*
X358314Y237461D01*
X374236Y249141D02*
X359263Y234168D01*
X374236Y244899D02*
X359585Y230247D01*
X374236Y230700D02*
Y255273D01*
X369625Y213675D02*
X358595Y224705D01*
X369455Y213339D02*
X366397Y209117D01*
X362718Y205424D02*
X358508Y202351D01*
X366397Y209117D02*
X362718Y205424D01*
X373423Y222945D02*
X371816Y217986D01*
X374236Y228094D02*
X373423Y222945D01*
X371055Y216488D02*
X359411Y228131D01*
X371816Y217986D02*
X369455Y213339D01*
X484010Y395321D02*
Y397197D01*
Y392430D02*
Y394913D01*
X484514Y391528D02*
X483658Y392383D01*
X484514Y391817D02*
Y404725D01*
X507798Y395430D02*
X497294Y384926D01*
X503555Y395430D02*
X497294Y389169D01*
X485740Y391590D02*
X484514D01*
X485754Y391817D02*
X484514D01*
X484010Y388495D02*
Y390977D01*
X497294Y391590D02*
X496053D01*
X497294Y391817D02*
X496067D01*
X497294Y383209D02*
Y391590D01*
X552777Y386904D02*
X544251Y395430D01*
X550656Y384783D02*
X540008Y395430D01*
X554898Y389025D02*
X548493Y395430D01*
X537496D02*
X524156Y382090D01*
X548555Y382641D02*
X535766Y395430D01*
X559141Y393268D02*
X556979Y395430D01*
X583891Y398250D02*
Y404725D01*
X561303Y395430D02*
X548885Y383012D01*
X557020Y391147D02*
X552736Y395430D01*
X499312D02*
X497294Y393412D01*
X498941Y395381D02*
X498072Y395359D01*
X497294Y391817D02*
Y395281D01*
X519408Y382090D02*
X506067Y395430D01*
X561303D02*
X499158D01*
X524768D02*
X511428Y382090D01*
X520526Y395430D02*
X507185Y382090D01*
X523650D02*
X510310Y395430D01*
X510922Y382090D02*
X497688Y395325D01*
X506680Y382090D02*
X497294Y391476D01*
X512040Y395430D02*
X497733Y381123D01*
X484514Y376537D02*
Y391590D01*
X503850Y380677D02*
X497294Y387234D01*
X527893Y382090D02*
X514552Y395430D01*
X529011D02*
X515670Y382090D01*
X516283Y395430D02*
X497733Y376881D01*
X515165Y382090D02*
X501824Y395430D01*
X503850Y376434D02*
X497439Y382845D01*
X532630Y382090D02*
X503850D01*
Y372773D02*
Y382090D01*
X541739Y395430D02*
X528398Y382090D01*
X545981Y395430D02*
X532630Y382079D01*
X547690Y375020D02*
X527280Y395430D01*
X547690Y379263D02*
X531523Y395430D01*
X547690Y379263D02*
X531523Y395430D01*
X550224D02*
X532630Y377837D01*
X558709Y395430D02*
X532630Y369352D01*
X554467Y395430D02*
X532630Y373594D01*
X532136Y382090D02*
X518795Y395430D01*
X533254D02*
X519913Y382090D01*
X532630Y352310D02*
Y382090D01*
X547690Y370778D02*
X523038Y395430D01*
X547690Y366535D02*
X532630Y381595D01*
X623963Y435228D02*
X606147Y417413D01*
X620252Y408525D02*
X606272Y422505D01*
X622604Y410415D02*
X606272Y426748D01*
X625807Y432830D02*
X598983Y406006D01*
X617034Y407500D02*
X606249Y418285D01*
X630799Y410706D02*
X606272Y435233D01*
X635041Y410706D02*
X606272Y439476D01*
X627998Y430778D02*
X603226Y406006D01*
X626556Y410706D02*
X606272Y430990D01*
X601343Y410150D02*
X597892Y407844D01*
X603308Y411877D02*
X601769Y410482D01*
X603881Y406006D02*
X593639D01*
X601558D02*
X598988Y408576D01*
X605734Y415694D02*
X605284Y414608D01*
X606172Y417537D02*
X605943Y416383D01*
X604944Y413972D02*
X604291Y412995D01*
X613446Y406846D02*
X605401Y414891D01*
X632692Y477899D02*
X606941Y452148D01*
X608709Y458071D02*
X607091Y453091D01*
X606272Y447918D01*
X621429Y441289D02*
X607713Y455005D01*
X641848Y478569D02*
X606272Y442993D01*
X637605Y478569D02*
X606272Y447235D01*
X645553Y478031D02*
X606272Y438750D01*
X647769Y410706D02*
X606857Y451618D01*
X620993Y444986D02*
X606272Y430265D01*
Y445300D02*
Y447918D01*
Y418841D02*
Y445300D01*
X621449Y441200D02*
X606272Y426022D01*
X622489Y437996D02*
X606272Y421780D01*
X621538Y449774D02*
X606272Y434507D01*
X639284Y410706D02*
X606272Y443718D01*
X643527Y410706D02*
X606277Y447955D01*
X590280Y405220D02*
X588664Y404898D01*
X588127Y404832D02*
X586052Y404730D01*
X590280Y404555D02*
X589726Y405109D01*
X589570Y405078D02*
X583891Y399399D01*
X590280Y400312D02*
X585868Y404725D01*
X597257Y407505D02*
X593639Y406006D01*
X597315D02*
X596238Y407083D01*
X590280Y399598D02*
Y405220D01*
X595520Y406785D02*
X594741Y406006D01*
X584975Y404725D02*
X583891Y403641D01*
X585872Y404725D02*
X583891D01*
X588100Y398250D02*
X583891Y402460D01*
X589063Y398250D02*
X583891D01*
X590280Y401546D02*
X586985Y398250D01*
X589988Y399239D02*
X589063Y398250D01*
X600989Y393562D02*
X595987D01*
X597281Y394700D02*
X596412Y393971D01*
X603881Y394906D02*
Y406006D01*
X610270Y397293D02*
X603881Y403683D01*
X610270Y400322D02*
X603510Y393562D01*
X610193Y393128D02*
X603881Y399440D01*
X610270Y405779D02*
X603731Y412318D01*
X630541Y429079D02*
X603881Y402418D01*
X610270Y401536D02*
X601499Y410307D01*
X610270Y404565D02*
X603881Y398175D01*
Y394906D02*
X597585D01*
X601262Y393574D02*
X599930Y394906D01*
X600611D02*
X599267Y393562D01*
X603881D02*
X601398D01*
X605965Y393114D02*
X603881Y395198D01*
X605438Y393116D02*
X603881Y393214D01*
X606313Y393112D02*
X605438Y393116D01*
X610270Y396080D02*
X607254Y393064D01*
X484662Y376537D02*
X482090Y373966D01*
X484439D02*
X478751D01*
X484439Y372725D02*
Y373966D01*
Y361186D02*
Y362459D01*
X485043Y372692D02*
Y373966D01*
X487497Y376537D02*
X484514D01*
X487502Y373966D02*
X485043D01*
X485105D02*
X481694Y377377D01*
X486333Y373966D02*
X485060Y372693D01*
X484439Y361186D02*
X478751D01*
X485043Y361300D02*
X484439Y361904D01*
X485883Y356218D02*
X483599Y358502D01*
X485043Y361186D02*
Y362427D01*
X500323Y361186D02*
X485043D01*
X490275Y360682D02*
X485883D01*
X486281Y361186D02*
X483599Y358504D01*
X485883Y360460D02*
X485158Y361186D01*
X487564Y375750D02*
X486777Y376537D01*
X487576Y375209D02*
X486333Y373966D01*
X497733Y375820D02*
Y381148D01*
X487568Y374731D02*
X487502Y373966D01*
X497799Y374698D02*
X497783Y375592D01*
X500323Y373966D02*
X497844D01*
X500323Y372725D02*
Y373966D01*
X499483Y360682D02*
X495092D01*
X500323Y361186D02*
Y362459D01*
X501916Y372676D02*
X501040Y372680D01*
X499483Y359588D02*
X498389Y360682D01*
X500282Y362459D02*
X499009Y361186D01*
X485883Y356545D02*
X483599Y354261D01*
X485883Y351975D02*
X483599Y354259D01*
X485883Y352260D02*
Y360682D01*
Y352303D02*
X483599Y350019D01*
X485883Y349582D02*
Y352064D01*
X487633Y345982D02*
X483599Y350016D01*
X487408Y349582D02*
X485883D01*
X487405D02*
X481849Y344026D01*
X487633Y341740D02*
X481905Y347468D01*
X487634Y341325D02*
X480687Y334379D01*
X487633Y345568D02*
X481404Y339339D01*
X487595Y329050D02*
X480687Y335958D01*
X488015Y332872D02*
X481448Y339439D01*
X488770Y338219D02*
X480687Y330136D01*
X488795Y336335D02*
X481849Y343281D01*
X488512Y329050D02*
X480687D01*
X488125Y333331D02*
X483844Y329050D01*
X487584Y347115D02*
X487567Y348010D01*
X497917Y349363D02*
X497798Y347977D01*
X487633Y341411D02*
Y346888D01*
X499483Y345299D02*
X497958D01*
X499483Y349582D02*
Y352064D01*
Y352260D02*
Y360682D01*
Y349582D02*
X497958D01*
X499483Y342817D02*
Y345299D01*
X488795Y334866D02*
Y338188D01*
X499483Y334149D02*
Y342621D01*
X500323Y329050D02*
X499664Y329709D01*
X503322Y372719D02*
X497733Y378309D01*
X503850Y374512D02*
X501997Y372659D01*
X503079Y372698D02*
X502203Y372675D01*
X501930Y362476D02*
X500323Y362459D01*
X503079Y362454D02*
X502203Y362477D01*
X503850Y378755D02*
X499061Y373966D01*
X547690Y371684D02*
X532630Y356623D01*
X503850Y355221D02*
X499483Y359588D01*
X503850Y361785D02*
X499483Y357417D01*
X503850Y353299D02*
X497792Y347241D01*
X503850Y357542D02*
X499483Y353175D01*
X503850Y359464D02*
X500849Y362465D01*
X532630Y352310D02*
X503850D01*
Y362379D01*
X547690Y345322D02*
X532630Y360382D01*
X547690Y362293D02*
X532630Y377353D01*
X547690Y380169D02*
X532630Y365109D01*
X547690Y358050D02*
X532630Y373110D01*
X547690Y375926D02*
X532630Y360866D01*
X608700Y369165D02*
X607940Y369925D01*
X608700Y373297D02*
X607940Y372537D01*
Y352415D02*
Y372627D01*
X608700Y369054D02*
X607940Y368294D01*
X547690Y353807D02*
X532630Y368867D01*
X608480Y352415D02*
X607940Y352954D01*
X547690Y349565D02*
X532630Y364625D01*
X547690Y367441D02*
X532630Y352381D01*
X608700Y360680D02*
X607940Y361440D01*
X608700Y364922D02*
X607940Y365682D01*
X608700Y356437D02*
X607940Y357197D01*
X608700Y360569D02*
X607940Y359809D01*
X511346Y352310D02*
X499483Y340447D01*
X515589Y352310D02*
X499483Y336204D01*
X507104Y352310D02*
X499483Y344690D01*
X514866Y335720D02*
X499483Y351103D01*
X519109Y335720D02*
X499483Y355345D01*
X524074Y352310D02*
X507484Y335720D01*
X527594D02*
X511004Y352310D01*
X519831D02*
X499956Y332435D01*
X523351Y335720D02*
X506761Y352310D01*
X504328Y329287D02*
X499496Y334119D01*
X504665Y329381D02*
Y335720D01*
X501961Y329050D02*
X499483D01*
X503054Y329122D02*
X502178Y329099D01*
X510623Y335720D02*
X497843Y348500D01*
X528815Y335720D02*
X504665D01*
Y333193D02*
X499483Y338375D01*
X506381Y335720D02*
X499483Y342618D01*
X547690Y354713D02*
X528697Y335720D01*
X547690Y336837D02*
X532217Y352310D01*
X544177Y331865D02*
X523732Y352310D01*
X546299Y333986D02*
X527974Y352310D01*
X547690Y363198D02*
X520212Y335720D01*
X547690Y341079D02*
X532630Y356139D01*
X547690Y358956D02*
X524455Y335720D01*
X547690Y335378D02*
Y380140D01*
X528317Y352310D02*
X511727Y335720D01*
X532559Y352310D02*
X515969Y335720D01*
X542056Y329743D02*
X519489Y352310D01*
X528815Y334499D02*
X527594Y335720D01*
X547690Y350470D02*
X528815Y331595D01*
X555465Y329062D02*
X554147Y330380D01*
X617867Y470676D02*
X614164Y466973D01*
X611086Y462737D01*
X622104Y473754D02*
X617867Y470676D01*
X622596Y452850D02*
X611769Y463676D01*
X624103Y455586D02*
X613555Y466134D01*
X628196Y459977D02*
X617682Y470491D01*
X630770Y461646D02*
X620111Y472306D01*
X626591Y476041D02*
X608800Y458249D01*
X625977Y457954D02*
X615561Y468370D01*
X611086Y462737D02*
X608709Y458071D01*
X621002Y445959D02*
X608770Y458190D01*
X621238Y409511D02*
X619272Y407545D01*
X621516Y449687D02*
X610202Y461001D01*
X633475Y427770D02*
X612551Y406846D01*
X636888Y426940D02*
X617518Y407571D01*
X636922Y478569D02*
X631750Y477749D01*
X626770Y476131D01*
X642159Y478569D02*
X636922D01*
X641386Y463758D02*
X628463Y476682D01*
X647186Y462201D02*
X631665Y477722D01*
X647331Y477749D02*
X642159Y478569D01*
X652311Y476131D02*
X647331Y477749D01*
X648978Y477214D02*
X635067Y463302D01*
X652180Y476174D02*
X639854Y463847D01*
X626770Y476131D02*
X622104Y473754D01*
X637200Y463702D02*
X625445Y475457D01*
X633739Y462920D02*
X622635Y474024D01*
X652012Y410706D02*
X635529Y427189D01*
X655007Y474758D02*
X643641Y463391D01*
X640998Y426807D02*
X624897Y410706D01*
X646564Y428131D02*
X629139Y410706D01*
X615112Y406846D02*
X610270D01*
Y394066D02*
Y406846D01*
X629524Y402606D02*
X625550Y398632D01*
X631940Y402606D02*
X625876D01*
X625550Y394066D02*
Y402258D01*
X616486Y394066D02*
X610270D01*
X625550D02*
X620051D01*
X631940Y392594D02*
X625550Y398984D01*
X631940Y400779D02*
X625550Y394389D01*
X631940Y396537D02*
X624710Y389307D01*
X631940Y388351D02*
X625550Y394741D01*
X631940Y396837D02*
X626171Y402606D01*
X631940Y401079D02*
X630413Y402606D01*
X631940Y394906D02*
Y402606D01*
X634552Y394906D02*
X633208Y393562D01*
X635215D02*
X633871Y394906D01*
X638905Y394115D02*
X638113Y394906D01*
X638592D02*
X631940D01*
X638719Y394830D02*
X637944Y394055D01*
X642288Y394156D02*
X641694Y393562D01*
X643174Y394156D02*
X641240D01*
X644264Y394091D02*
X643402Y394106D01*
X643700Y393562D02*
X643106Y394156D01*
X645650Y393972D02*
X644264Y394091D01*
X657712Y473220D02*
X646844Y462352D01*
X660169Y471435D02*
X649612Y460877D01*
X656977Y473754D02*
X652311Y476131D01*
X662433Y469456D02*
X652010Y459033D01*
X664555Y467335D02*
X654062Y456842D01*
X672548Y449567D02*
X643807Y478308D01*
X671375Y454982D02*
X649223Y477135D01*
X672913Y440717D02*
X635315Y478314D01*
X672913Y444959D02*
X639303Y478569D01*
X666397Y464935D02*
X655761Y454299D01*
X672506Y449830D02*
X633382Y410706D01*
X672913Y415261D02*
X654218Y433956D01*
X672913Y419503D02*
X655886Y436530D01*
X672913Y441752D02*
X641867Y410706D01*
X672913Y411018D02*
X652195Y431736D01*
X661213Y470676D02*
X656977Y473754D01*
X664916Y466973D02*
X661213Y470676D01*
X668130Y462470D02*
X656710Y473890D01*
X667994Y462737D02*
X664916Y466973D01*
X670372Y458071D02*
X667994Y462737D01*
X671990Y453091D02*
X670372Y458071D01*
X668145Y462440D02*
X657071Y451365D01*
X669577Y459630D02*
X657900Y447952D01*
X672815Y447879D02*
X671990Y453091D01*
X672873Y445139D02*
X672815Y447879D01*
X671876Y453442D02*
X656709Y438276D01*
X670835Y456645D02*
X658033Y443843D01*
X672913Y436474D02*
X656441Y452945D01*
X672913Y432231D02*
X657998Y447146D01*
X672913Y423746D02*
X657160Y439499D01*
X672913Y427989D02*
X657942Y442960D01*
X672856Y445938D02*
X637624Y410706D01*
X656255D02*
X640199Y426762D01*
X672913Y424781D02*
X658702Y410570D01*
X664357Y406846D02*
X643927Y427276D01*
X668600Y406846D02*
X647090Y428356D01*
X672913Y437509D02*
X646110Y410706D01*
X672913Y433267D02*
X650352Y410706D01*
X672913Y406775D02*
X649826Y429863D01*
X672913Y429024D02*
X654595Y410706D01*
X657662D02*
X624110D01*
X656968Y392406D02*
Y401550D01*
X657472Y391566D02*
Y401024D01*
X672913Y420539D02*
X661210Y408836D01*
X662485Y407561D02*
X660534Y409511D01*
X663314Y406846D02*
X662663Y407451D01*
X670252Y406846D02*
X663314D01*
X670252Y405193D02*
X668600Y406846D01*
X670252Y391566D02*
Y406846D01*
X672913Y416296D02*
X663463Y406846D01*
X672913Y412053D02*
X667706Y406846D01*
X672913Y407811D02*
X670252Y405150D01*
X672913Y378522D02*
Y444960D01*
Y394048D02*
X670252Y396708D01*
X672913Y395083D02*
X670252Y392422D01*
X672913Y403568D02*
X670252Y400908D01*
X672913Y402533D02*
X670252Y405193D01*
X672913Y399326D02*
X670252Y396665D01*
X672913Y398290D02*
X670252Y400951D01*
X613593Y393562D02*
X611110D01*
X612227Y393222D02*
X611110Y393165D01*
X610412Y393130D02*
X608664Y393112D01*
X622108Y382462D02*
X616011Y376364D01*
X624710Y393562D02*
X614001D01*
X631940Y388051D02*
X620253Y376364D01*
X623554Y375524D02*
X616616Y382462D01*
X627797Y375524D02*
X620859Y382462D01*
X607940Y373057D02*
Y374382D01*
X608700Y373408D02*
X607940Y374168D01*
X624710Y382462D02*
X614509D01*
X617866D02*
X614807Y379403D01*
X621480Y376364D02*
X613372D01*
X618471D02*
X614870Y379965D01*
X631940Y384109D02*
X624710Y391338D01*
X631940Y392294D02*
X624710Y385064D01*
X631940Y383809D02*
X623656Y375524D01*
X624710Y382462D02*
Y393562D01*
X633208D02*
X631940Y392294D01*
X636269Y393562D02*
X631940D01*
X632039Y375524D02*
X624710Y382853D01*
X631940Y382462D02*
Y393562D01*
X622240Y372595D02*
X621480Y373355D01*
X622240Y374109D02*
X621480Y373349D01*
X622240Y368353D02*
X621480Y369113D01*
X622240Y369866D02*
X621480Y369106D01*
X633340Y375524D02*
X622240D01*
X634836Y382462D02*
X627899Y375524D01*
X623656D02*
X622240Y374109D01*
X633340Y374223D02*
X632039Y375524D01*
X608700Y364811D02*
X607940Y364051D01*
X608700Y352415D02*
Y374317D01*
X621480Y352415D02*
Y376364D01*
X622106Y365489D02*
X621480Y364863D01*
X622240Y365791D02*
Y375524D01*
Y357138D02*
X621480Y356378D01*
X608700Y356326D02*
X607940Y355566D01*
X622240Y355625D02*
X621480Y356385D01*
X622240Y359868D02*
X621480Y360628D01*
X622240Y352415D02*
Y360573D01*
X633340Y350724D02*
X627130D01*
X633340Y351268D02*
X632797Y350724D01*
X633340D02*
Y360997D01*
X627130Y343572D02*
Y350724D01*
X632797D02*
X627130Y345058D01*
X633340Y365367D02*
Y375524D01*
X634057Y343808D02*
X627141Y350724D01*
X636164Y345943D02*
X631383Y350724D01*
X628554D02*
X627130Y349300D01*
X628778Y343474D02*
X627902Y343496D01*
X628057Y333256D02*
X627130Y332330D01*
X628778Y333275D02*
X627902Y333252D01*
X633674Y343424D02*
X628995D01*
X636115Y345866D02*
X633674Y343424D01*
X630198D02*
X627130Y346492D01*
X635765Y333324D02*
X628995D01*
X645868Y392406D02*
Y393931D01*
X645540Y393562D02*
X641326D01*
X648351Y392406D02*
X645868D01*
X645540Y382462D02*
Y393562D01*
X649023Y392406D02*
X645540Y388923D01*
X656968Y392406D02*
X648547D01*
X658812Y386935D02*
X653341Y392406D01*
X653266D02*
X645540Y384681D01*
X658812Y382692D02*
X649099Y392406D01*
X636516Y382462D02*
X631940D01*
X645540D02*
X641078D01*
X648176Y380600D02*
X645540Y383237D01*
X658665Y380639D02*
X649140D01*
X658812Y389468D02*
X649984Y380639D01*
X652380D02*
X645540Y387479D01*
X656623Y380639D02*
X645540Y391722D01*
X658424Y391566D02*
X657472Y392518D01*
X658746Y391566D02*
X657472D01*
X658762Y389959D02*
X658746Y391566D01*
X668967Y390849D02*
X668962Y389974D01*
X670252Y391566D02*
X669011D01*
X670252Y392422D02*
X669396Y391566D01*
X672913Y390840D02*
X668912Y386840D01*
X672913Y389805D02*
X670252Y392466D01*
X658812Y382544D02*
Y389722D01*
X668912Y382521D02*
Y389729D01*
X658812Y385225D02*
X654227Y380639D01*
X658763Y382326D02*
X658740Y381427D01*
X672913Y386598D02*
X668912Y382597D01*
X672913Y385562D02*
X668912Y389563D01*
X672913Y381320D02*
X668912Y385320D01*
X668985Y381353D02*
X668961Y382301D01*
X637996Y372894D02*
X633340Y368238D01*
X637250Y366071D02*
X633340Y369981D01*
X637342Y370222D02*
X633340Y374223D01*
X637250Y361828D02*
X633340Y365738D01*
X637250Y367906D02*
X633645Y364300D01*
X638635Y382018D02*
X632141Y375524D01*
X639863Y376186D02*
X633587Y382462D01*
X638260Y373546D02*
X624710Y387096D01*
X643322Y382462D02*
X633340Y372481D01*
X637250Y359420D02*
X633340Y355510D01*
X637250Y357585D02*
X633470Y361366D01*
X637250Y355177D02*
X633340Y351268D01*
X637250Y353343D02*
X633340Y357253D01*
X637647Y348703D02*
X633340Y353010D01*
X637250Y363663D02*
X633340Y359753D01*
X637276Y350961D02*
X629740Y343424D01*
X644739Y379795D02*
X642072Y382462D01*
X657472Y392370D02*
X644996Y379894D01*
X642020Y378272D02*
X638251Y382040D01*
X669991Y379999D02*
X669016Y380975D01*
X672913Y382355D02*
X670406Y379848D01*
X673224Y378299D02*
X673224Y386999D01*
X637250Y351749D02*
Y368750D01*
X637018Y346872D02*
X636239Y346059D01*
X637625Y347570D02*
X637018Y346872D01*
X640140Y333482D02*
X639068Y334554D01*
X640140Y335608D02*
X639343Y334810D01*
X640140Y329240D02*
X636048Y333332D01*
X501756Y318904D02*
X500965Y318862D01*
X503344Y318853D02*
X499483Y314991D01*
X503054Y318878D02*
X502178Y318901D01*
X499483Y303623D02*
Y318048D01*
X504665Y315931D02*
X499483Y310749D01*
X504665Y332901D02*
X500814Y329050D01*
X504665Y316222D02*
X501938Y318950D01*
X504665Y311980D02*
X499483Y317162D01*
X504665Y302680D02*
Y318619D01*
X499483Y303623D02*
X491020D01*
X492358D02*
X491710Y302975D01*
X492819Y301934D02*
X491020Y303623D01*
X497293Y301499D02*
X493339D01*
X504665Y311688D02*
X499483Y306506D01*
X504665Y307737D02*
X499483Y312919D01*
X504665Y303494D02*
X499483Y308676D01*
X513190Y302680D02*
X504665D01*
X528815Y321962D02*
Y335720D01*
X535692Y323379D02*
X528815Y330256D01*
X537813Y325501D02*
X528815Y334499D01*
X532928Y321900D02*
X528815Y326013D01*
X534213Y321900D02*
X529520D01*
X539935Y327622D02*
X515247Y352310D01*
X547690Y346228D02*
X528815Y327353D01*
X547690Y341985D02*
X528815Y323110D01*
Y302680D02*
X520290D01*
X528815D02*
Y313739D01*
X505480Y302680D02*
X504665Y303494D01*
X521113Y302680D02*
X520290Y301857D01*
X535891Y313801D02*
X529520D01*
X536526Y313851D02*
X528815Y306140D01*
X532234Y313801D02*
X528815Y310382D01*
X496600Y303623D02*
X494476Y301499D01*
X493933D02*
X491809Y303623D01*
X502949Y296725D02*
X496051Y303623D01*
X497293Y286446D02*
Y301499D01*
X504665Y307445D02*
X497293Y300074D01*
X504945Y298972D02*
X499483Y304434D01*
X508385Y302680D02*
X497293Y291588D01*
X504665Y303203D02*
X497293Y295831D01*
X484513Y295435D02*
X484009Y296029D01*
X484513Y286446D02*
Y295435D01*
X502340Y293092D02*
X497293Y298138D01*
X501710Y289479D02*
X497293Y293896D01*
X513190Y299212D02*
X509722Y302680D01*
X512628D02*
X509778Y299830D01*
X513190Y297556D02*
Y302680D01*
X520290Y297971D02*
Y302680D01*
X525356D02*
X520468Y297792D01*
X533539Y291591D02*
X522450Y302680D01*
X544598Y284775D02*
X526693Y302680D01*
X545951Y287664D02*
X528815Y304800D01*
X508156Y300004D02*
X505480Y302680D01*
X513190Y299000D02*
X512514Y298324D01*
X515448Y292772D02*
X513511Y290835D01*
X527192Y291068D02*
X520290Y297971D01*
X529373Y291514D02*
X520290Y300597D01*
X522275Y285885D02*
X514376Y293784D01*
X522172Y286048D02*
X514377Y293843D01*
X547690Y337742D02*
X531848Y321900D01*
X547690Y335378D02*
X534213Y321900D01*
X554596Y330828D02*
X538763Y314995D01*
X555465Y307849D02*
X543541Y319773D01*
X555465Y312091D02*
X545662Y321894D01*
X555465Y320577D02*
X549905Y326137D01*
X555465Y324819D02*
X552026Y328258D01*
X555465Y316334D02*
X547784Y324016D01*
X555465Y302680D02*
Y332110D01*
Y303606D02*
X541419Y317652D01*
X556471Y302600D02*
X555465Y303606D01*
X557984Y296844D02*
X539298Y315530D01*
X560106Y298965D02*
X556471Y302600D01*
X564513D02*
X555590D01*
X562227Y301087D02*
X560714Y302600D01*
X596840Y317385D02*
X595240Y318985D01*
X596840Y319010D02*
X595240Y317410D01*
Y303903D02*
Y324334D01*
X596840Y314767D02*
X595240Y313167D01*
X596840Y323253D02*
X595240Y321653D01*
X596840Y324334D02*
X595240D01*
X596840Y321628D02*
X595240Y323228D01*
X596840Y301224D02*
Y324334D01*
Y304657D02*
X595240Y306257D01*
X596840Y306282D02*
X595240Y304682D01*
X596840Y302040D02*
X594764Y299963D01*
X595240Y301224D02*
Y303707D01*
X596840Y310525D02*
X595240Y308925D01*
X596840Y313143D02*
X595240Y314743D01*
X596840Y308900D02*
X595240Y310500D01*
X607940Y301224D02*
X596840D01*
X555465Y315819D02*
X531414Y291768D01*
X550511Y291590D02*
X528815Y313285D01*
X553597Y292747D02*
X532543Y313801D01*
X547934Y289924D02*
X528815Y309043D01*
X555465Y311576D02*
X535065Y291176D01*
X555465Y328547D02*
X522590Y295671D01*
X555863Y294723D02*
X536703Y313883D01*
X555465Y324304D02*
X524711Y293550D01*
X555465Y320062D02*
X526832Y291429D01*
X555465Y307334D02*
X537814Y289682D01*
X555050Y293992D02*
X553246Y292446D01*
X555465Y303091D02*
X539903Y287529D01*
X559217Y302600D02*
X541324Y284707D01*
X563460Y302600D02*
X553661Y292801D01*
X562504Y301364D02*
X555778Y294638D01*
X568174Y292750D02*
X565266Y289842D01*
X569451Y292750D02*
X568174D01*
X596181Y296831D02*
X594486Y298527D01*
X600268Y301224D02*
X595816Y296773D01*
X604510Y301224D02*
X599676Y296390D01*
X609540Y302012D02*
X603918Y296390D01*
X600865D02*
X595240Y302015D01*
X610312Y291185D02*
X600273Y301224D01*
X589440Y292718D02*
X587759Y291037D01*
X594504Y296390D02*
X593112D01*
X569451Y284450D02*
Y292750D01*
X604721Y296390D02*
X599657D01*
X484513Y287293D02*
X483620Y286400D01*
X485754Y286446D02*
X484513D01*
X497293Y286219D02*
X496053D01*
X484513Y285462D02*
X483617Y286359D01*
X497293Y285410D02*
X496485Y286219D01*
X499689Y287257D02*
X497293Y289653D01*
X502454Y292506D02*
X497293Y287346D01*
Y286446D02*
X496067D01*
X497293Y287346D02*
X496394Y286446D01*
X485740Y286219D02*
X484513D01*
X498039Y280422D02*
X497293Y281168D01*
X498280Y284089D02*
X497293Y283103D01*
X498350Y284354D02*
X497293Y285410D01*
X499281Y276605D02*
X497293Y274618D01*
X498147Y279714D02*
X497293Y278860D01*
X514016Y289901D02*
X513344Y290573D01*
X517569Y290651D02*
X515518Y288600D01*
X519690Y288529D02*
X517261Y286100D01*
X521503Y282414D02*
X516441Y287476D01*
X521812Y286408D02*
X518235Y282832D01*
X521473Y281826D02*
X517655Y278009D01*
X544148Y280982D02*
X541632Y283499D01*
X568611Y281106D02*
Y283946D01*
X522469Y277206D02*
X518308Y281367D01*
X544282Y283423D02*
X541788Y280929D01*
X497293Y272174D02*
Y286219D01*
X484513Y272174D02*
Y286219D01*
X523257Y272174D02*
X517590Y277841D01*
X522064Y278175D02*
X516063Y272174D01*
X504321D02*
X497293D01*
X514772D02*
X513798Y273149D01*
X502044Y272174D02*
X497293Y276925D01*
X501141Y274222D02*
X499093Y272174D01*
X527821D02*
X511960D01*
X525711Y273337D02*
X524549Y272174D01*
X519015D02*
X516019Y275170D01*
X523558Y275427D02*
X520306Y272174D01*
X544470D02*
X540330Y276315D01*
X545545Y276201D02*
X541519Y272174D01*
X544378Y279276D02*
X537277Y272174D01*
X548713D02*
X541554Y279333D01*
X549450Y272174D02*
X535460D01*
X540228D02*
X538400Y274002D01*
X547379Y273791D02*
X545762Y272174D01*
X568611D02*
X560831D01*
X568611Y273810D02*
X566975Y272174D01*
X564564Y274006D02*
X562733Y272174D01*
X565684D02*
X563852Y274006D01*
X569451Y291621D02*
X564769Y286939D01*
X569451Y285378D02*
X565133Y289696D01*
X569451Y289621D02*
X567248Y291824D01*
X568611Y281975D02*
X565625Y284961D01*
X569451Y287378D02*
X565919Y283846D01*
X570379Y284450D02*
X569451Y285378D01*
X580216Y284450D02*
X569451D01*
X570261Y283946D02*
X568611Y282295D01*
X573790Y283946D02*
X568611D01*
Y281106D02*
X566139D01*
X568611Y282295D02*
X567421Y281106D01*
X581445Y283946D02*
X578713D01*
X584939Y288117D02*
X583051Y286113D01*
X587622Y290829D02*
X584939Y288117D01*
X583051Y285552D02*
X581949Y284450D01*
X587283Y289784D02*
X583051Y285552D01*
X588113Y290697D02*
X587471Y290043D01*
X589162Y291836D02*
X588113Y290697D01*
X581949Y284450D02*
X580474D01*
X590280Y277276D02*
X589669Y277887D01*
X600989Y283106D02*
X599436D01*
X604721Y283610D02*
X599657D01*
X604721Y284464D02*
X603866Y283610D01*
X603881Y283106D02*
X601398D01*
X605438Y282660D02*
X603881Y282758D01*
X568611Y272174D02*
Y274006D01*
X563112D01*
X590280Y278498D02*
X585729Y273947D01*
X590280Y273033D02*
X587548Y275766D01*
X590280Y274267D02*
X588188Y272174D01*
X590280Y272161D02*
Y278498D01*
X589908Y272174D02*
X583891D01*
X585519Y273748D02*
X583946Y272174D01*
X586897D02*
X585414Y273657D01*
X591326Y272109D02*
X590280Y272161D01*
X591198Y272115D02*
X590280Y273033D01*
X592049Y272006D02*
X590280D01*
X594620D02*
X592049D01*
X603881D02*
X601398D01*
X603881Y272403D02*
X602764Y272346D01*
X600748Y272006D02*
X598444Y269703D01*
X600990Y272006D02*
X599344D01*
X605431Y272447D02*
X600888Y267903D01*
X609671Y272444D02*
X602895Y265668D01*
X626706Y245093D02*
X599793Y272006D01*
X629046Y246996D02*
X603881Y272161D01*
X594292Y271560D02*
X592049Y272006D01*
X597269Y270403D02*
X594981Y271351D01*
X597072Y270485D02*
X595940Y271616D01*
X599963Y268688D02*
X597904Y270064D01*
X601308Y267523D02*
X600389Y268355D01*
X602385Y266361D02*
X601563Y267268D01*
X604076Y263902D02*
X602717Y265935D01*
X609540Y318982D02*
X607940Y317382D01*
X609040Y313670D02*
X607940Y314771D01*
X609540Y317413D02*
X607940Y319013D01*
Y301224D02*
Y324334D01*
X609075Y314275D02*
X607940Y313140D01*
X609540Y321656D02*
X607940Y323256D01*
X609540Y324334D02*
X607940D01*
X609540Y317413D02*
X607940Y319013D01*
X609540Y323225D02*
X607940Y321625D01*
X609540Y310497D02*
X607940Y308897D01*
X609540Y308928D02*
X607940Y310528D01*
X609540Y306254D02*
X607940Y304654D01*
X609540Y304685D02*
X607940Y306285D01*
X609978Y300005D02*
X607940Y302043D01*
X610040Y295700D02*
X604516Y301224D01*
X610040Y298269D02*
X604721Y292949D01*
X609540Y304115D02*
Y311216D01*
Y316033D02*
Y324334D01*
Y301224D02*
Y303707D01*
X609937Y301224D02*
X609880Y302341D01*
X630627Y326025D02*
X627130Y329522D01*
X632368Y333324D02*
X627130Y328087D01*
X609990Y298778D02*
X609972Y300526D01*
X627130Y326025D02*
Y333177D01*
X610001Y296989D02*
X609990Y297939D01*
X610040Y296393D02*
Y298221D01*
Y292820D02*
Y296393D01*
X631940Y290771D02*
X631340Y291371D01*
X631940Y295013D02*
X631340Y295613D01*
X631940Y295013D02*
X631340Y295613D01*
X631940Y294713D02*
X631340Y294113D01*
X632777Y295550D02*
X631940Y294713D01*
X604721Y283610D02*
Y296390D01*
X610657Y290401D02*
X604721Y284464D01*
X610040Y294026D02*
X604721Y288707D01*
X610339Y282673D02*
X604721Y288292D01*
X611110Y286611D02*
X607105Y282606D01*
X611110Y286145D02*
X604721Y292534D01*
X611110Y284450D02*
Y289712D01*
X606113Y282657D02*
X604721Y284049D01*
X606313Y282656D02*
X605438Y282660D01*
X608426Y282606D02*
X606558D01*
X610412Y282674D02*
X608664Y282656D01*
X613593Y283106D02*
X611110D01*
X624710Y284450D02*
X611110D01*
X612227Y282766D02*
X611110Y282709D01*
X613192Y284450D02*
X611848Y283106D01*
X624710Y284450D02*
Y285385D01*
X626349Y283570D02*
X625283Y284637D01*
X631340Y288620D02*
Y301224D01*
X631940Y290471D02*
X631340Y289871D01*
X631940Y288020D02*
X631340Y288620D01*
X631940Y288020D02*
Y295550D01*
X618392Y283106D02*
X617048Y284450D01*
X621677D02*
X620333Y283106D01*
X614149D02*
X612805Y284450D01*
X617434D02*
X616090Y283106D01*
X624710D02*
X614001D01*
X625695Y284225D02*
X624576Y283106D01*
X622634D02*
X621290Y284450D01*
X636697Y333411D02*
X629310Y326025D01*
X633340D02*
X627130D01*
X639125Y317526D02*
X633340Y323312D01*
Y301224D02*
Y326025D01*
X640140Y324127D02*
X633340Y317326D01*
X640140Y324997D02*
X631813Y333324D01*
X640140Y332612D02*
X633340Y325812D01*
X640140Y320754D02*
X627663Y333232D01*
X640140Y328369D02*
X633340Y321569D01*
Y301224D02*
X631340D01*
X638301Y314109D02*
X633340Y319069D01*
X635646Y295550D02*
X631340Y299856D01*
X636477Y295550D02*
X631940D01*
X638847Y305863D02*
X631340Y298356D01*
X639559Y295880D02*
X633340Y302099D01*
X640016Y302789D02*
X632777Y295550D01*
X644131D02*
X633340Y306341D01*
X638251Y313752D02*
X633340Y308841D01*
X638128Y310039D02*
X633340Y314826D01*
X638175Y309433D02*
X633340Y304599D01*
X639218Y304706D02*
X633340Y310584D01*
X640062Y319806D02*
X633340Y313084D01*
X640140Y319965D02*
Y335608D01*
X641577Y300107D02*
X637260Y295791D01*
X645540Y295550D02*
X640804D01*
X643481Y297769D02*
X641262Y295550D01*
X645540Y294141D02*
X644131Y295550D01*
X672913Y293750D02*
X666355D01*
X648282Y294085D02*
X645540Y291343D01*
X672913Y292224D02*
X671388Y293750D01*
X645540Y286950D02*
Y295550D01*
X651223Y292783D02*
X645540Y287100D01*
X654617Y291935D02*
X648954Y286271D01*
X649833Y285606D02*
X645540Y289898D01*
X654075Y285606D02*
X645540Y294141D01*
X662561Y285606D02*
X656430Y291737D01*
X663895Y292727D02*
X656774Y285606D01*
X658318D02*
X651097Y292827D01*
X658651Y291726D02*
X652532Y285606D01*
X646824Y286950D02*
X645540D01*
X656968Y285606D02*
X650332D01*
X658312Y281369D02*
X656968Y282713D01*
X658312Y282901D02*
X656968Y281558D01*
Y272006D02*
Y285606D01*
X666803D02*
X660500Y291910D01*
X669160Y293750D02*
X661017Y285606D01*
X672913Y283739D02*
X663917Y292735D01*
X672913Y289017D02*
X669412Y285516D01*
X672913Y287981D02*
X667145Y293750D01*
X673225Y290501D02*
X673225Y293750D01*
X672913Y293260D02*
X665259Y285606D01*
X672913Y231700D02*
Y293750D01*
X669412Y285606D02*
X658312D01*
X669412Y281214D02*
Y285606D01*
X658312Y281214D02*
Y285606D01*
X672913Y279496D02*
X669412Y282997D01*
X672913Y284774D02*
X669412Y281274D01*
X672913Y280532D02*
X669735Y277354D01*
X606327Y272456D02*
X604579Y272438D01*
X613476Y272006D02*
X604509Y263040D01*
X617718Y272006D02*
X605638Y259926D01*
X621961Y272006D02*
X606161Y256206D01*
X625239Y271042D02*
X606167Y251970D01*
X638092Y271166D02*
X606167Y239242D01*
X633849Y271166D02*
X606167Y243485D01*
X647417Y272006D02*
X606167Y230757D01*
X642334Y271166D02*
X606167Y235000D01*
X605351Y261008D02*
X604415Y263267D01*
X606037Y257921D02*
X605560Y260319D01*
X606163Y256162D02*
X606103Y257384D01*
X621101Y233727D02*
X606167Y248661D01*
X624711Y242845D02*
X604504Y263053D01*
X628608Y270168D02*
X606167Y247727D01*
X623073Y240241D02*
X606112Y257202D01*
X621836Y237236D02*
X606167Y252904D01*
X608433Y272506D02*
X606565D01*
X609553Y272452D02*
X608678Y272456D01*
X631750Y248535D02*
X607778Y272506D01*
X611110Y272354D02*
X609553Y272452D01*
X646380Y271166D02*
Y272006D01*
X613593D02*
X611110D01*
X623913D02*
X614001D01*
X606167Y231700D02*
Y255981D01*
X638546Y250223D02*
X616764Y272006D01*
X646380Y271166D02*
X632170D01*
X634874Y249653D02*
X612521Y272006D01*
X643109Y249904D02*
X621006Y272006D01*
X606167Y229074D02*
Y231700D01*
X606989Y223885D02*
X606167Y229074D01*
X621126Y229460D02*
X606167Y244418D01*
X621029Y232890D02*
X608224Y220085D01*
X621213Y228832D02*
X609510Y217128D01*
X622958Y223385D02*
X606167Y240176D01*
X622209Y238313D02*
X607183Y223288D01*
X639531Y198327D02*
X606167Y231691D01*
X643554Y198547D02*
X606167Y235933D01*
X608613Y218889D02*
X606989Y223885D01*
X610997Y214209D02*
X608613Y218889D01*
X614085Y209959D02*
X610997Y214209D01*
X621771Y203359D02*
X611200Y213931D01*
X622075Y225451D02*
X610942Y214318D01*
X623409Y222542D02*
X612713Y211847D01*
X634982Y198633D02*
X606474Y227142D01*
X629501Y199872D02*
X607712Y221661D01*
X625129Y220020D02*
X614577Y209467D01*
X627201Y217849D02*
X616698Y207346D01*
X629620Y216026D02*
X618981Y205386D01*
X632411Y214574D02*
X621438Y203601D01*
X635644Y213564D02*
X624161Y202081D01*
X650436Y200150D02*
X637300Y213286D01*
X644349Y213784D02*
X630207Y199642D01*
X647216Y199127D02*
X631226Y215118D01*
X617799Y206245D02*
X614085Y209959D01*
X622049Y203157D02*
X617799Y206245D01*
X626730Y200772D02*
X622049Y203157D01*
X631726Y199149D02*
X626730Y200772D01*
X639473Y213150D02*
X627005Y200683D01*
X647355Y199149D02*
X642167Y198327D01*
X636914D02*
X631726Y199149D01*
X642167Y198327D02*
X636914D01*
X656968Y272006D02*
X646380D01*
X664387D02*
X642408Y250027D01*
X656968Y273072D02*
X655902Y272006D01*
X668630D02*
X645790Y249166D01*
X672913Y245555D02*
X646462Y272006D01*
X672913Y254040D02*
X654947Y272006D01*
X672913Y254040D02*
X654947Y272006D01*
X672913Y272046D02*
X648698Y247832D01*
X672913Y249798D02*
X650705Y272006D01*
X655902D02*
X632927Y249031D01*
X660145Y272006D02*
X638350Y250212D01*
X650856Y246399D02*
X626866Y270389D01*
X672913Y259319D02*
X655215Y241620D01*
X672913Y267804D02*
X651220Y246111D01*
X672913Y263561D02*
X653391Y244039D01*
X672913Y237070D02*
X638817Y271166D01*
X672913Y241313D02*
X643059Y271166D01*
X657844Y278190D02*
X656968Y277315D01*
X657960Y277479D02*
X656968Y278470D01*
X658312Y274416D02*
X656968Y273072D01*
X658312Y272006D02*
Y276398D01*
X672913Y276289D02*
X669412Y272788D01*
X672913Y275254D02*
X669889Y278277D01*
X672913Y271011D02*
X669412Y274512D01*
Y272006D02*
Y276398D01*
X658312Y272884D02*
X656968Y274228D01*
X669412Y272788D02*
X668630Y272006D01*
X659190D02*
X658312Y272884D01*
X669412Y272006D02*
X658312D01*
X672913Y262526D02*
X663433Y272006D01*
X672913Y266768D02*
X667675Y272006D01*
X672913Y255076D02*
X656666Y238829D01*
X672913Y258283D02*
X659190Y272006D01*
X651659D02*
X606517Y226864D01*
X672846Y228652D02*
X630925Y270573D01*
X672217Y224682D02*
X646558Y199023D01*
X672913Y238105D02*
X633652Y198844D01*
X672913Y232827D02*
X634574Y271166D01*
X672913Y233863D02*
X637378Y198327D01*
X672913Y229620D02*
X641620Y198327D01*
X653481Y201348D02*
X641568Y213261D01*
X656291Y202780D02*
X645076Y213995D01*
X652351Y200772D02*
X647355Y199149D01*
X657031Y203157D02*
X652351Y200772D01*
X661296Y206260D02*
X650685Y216871D01*
X663418Y208381D02*
X652934Y218866D01*
X658842Y204472D02*
X648081Y215233D01*
X670261Y218483D02*
X652758Y200979D01*
X672266Y224989D02*
X654239Y243016D01*
X672913Y229074D02*
X672091Y223885D01*
X671364Y221648D02*
X657744Y235268D01*
X670270Y218500D02*
X658064Y230706D01*
X672913Y250833D02*
X657676Y235597D01*
X672913Y246591D02*
X658090Y231768D01*
X672913Y242348D02*
X657456Y226891D01*
X672913Y229074D02*
Y231700D01*
X665453Y210589D02*
X654836Y221206D01*
X667238Y213046D02*
X656375Y223909D01*
X661281Y206245D02*
X657031Y203157D01*
X664995Y209959D02*
X661281Y206245D01*
X668838Y215690D02*
X657494Y227033D01*
X672091Y223885D02*
X670468Y218889D01*
X668083Y214209D02*
X664995Y209959D01*
X670468Y218889D02*
X668083Y214209D01*
D60*
X617910Y400456D02*
Y402770D01*
X618140Y400686D02*
Y400722D01*
X618269D02*
X618140D01*
Y401843D01*
X624110Y406656D02*
X617910Y400456D01*
Y400456D02*
Y400456D01*
X657662Y406656D02*
X624110D01*
X618140Y403000D02*
X617910Y402770D01*
X618140Y400686D02*
X617910Y400456D01*
X571340Y394200D02*
Y394212D01*
Y394200D02*
X565801D01*
X581826Y394212D02*
X571340D01*
X565801Y394200D02*
X551740Y380140D01*
X590825Y394200D02*
X581838D01*
X581826Y394212D01*
X597080Y400456D02*
X590825Y394200D01*
X518133Y317850D02*
X517142Y318841D01*
X551740Y333700D02*
X535891Y317850D01*
X518133D01*
X551740Y333700D02*
Y380140D01*
X227676Y333736D02*
Y341839D01*
X218515Y324575D02*
X200914D01*
X227676Y333736D02*
X218515Y324575D01*
X320637Y342922D02*
Y352130D01*
X467226Y305677D02*
X455664Y317239D01*
X307771Y273550D02*
Y286155D01*
X307005Y286920D01*
X307771Y273438D02*
X286565D01*
X315719D02*
X307771D01*
X308137Y286460D02*
Y323714D01*
Y286460D02*
X308006Y286329D01*
X299414Y348000D02*
X289502D01*
X301264Y346150D02*
X299414Y348000D01*
X318137Y289927D02*
Y323714D01*
X323137Y280857D02*
X315719Y273438D01*
X342740Y278713D02*
Y326866D01*
X286565Y273438D02*
X283175Y276828D01*
X291999Y280138D02*
X291740Y280398D01*
Y330073D01*
X323137Y280857D02*
Y323714D01*
X467226Y305677D02*
Y359253D01*
X475549Y367576D02*
X467226Y359253D01*
X227732Y383231D02*
X226630Y384334D01*
X227732Y341894D02*
Y383231D01*
Y341894D02*
X227676Y341839D01*
X476174Y367576D02*
X475549D01*
X476799D02*
X476174D01*
X469930Y302973D02*
X467226Y305677D01*
X200914Y324575D02*
X200742Y324403D01*
X482535Y302973D02*
X469930D01*
X663862Y400456D02*
X657662Y406656D01*
X663862Y399206D02*
Y400456D01*
X283175Y276828D02*
Y278078D01*
X297090Y335422D02*
X291740Y330073D01*
X342740Y326866D02*
X334410Y335196D01*
X330071D01*
X329845Y335422D01*
X301429Y340422D02*
X301401Y340394D01*
X291791D02*
X291597Y340588D01*
X301401Y340394D02*
X291791D01*
X301429Y335422D02*
X297090D01*
X289502Y348000D02*
X282302Y340799D01*
Y339795D02*
Y340799D01*
X337286Y340422D02*
X329845D01*
X353029Y324679D02*
X352257D01*
X350220Y327488D02*
X337286Y340422D01*
X320637Y352130D02*
X318137D01*
X323137D02*
X320637D01*
Y342922D02*
X315637Y337922D01*
X313137Y323714D02*
Y335422D01*
X315637Y337922D02*
X313137Y335422D01*
X350220Y326715D02*
Y327488D01*
X352257Y324679D02*
X350220Y326715D01*
X346567Y345422D02*
X329845D01*
X351720Y340268D02*
X346567Y345422D01*
X351720Y339018D02*
Y340268D01*
D61*
X567540Y341875D02*
D03*
D62*
X408437Y281737D02*
D03*
D63*
X445937D02*
D03*
X433437D02*
D03*
X420937D02*
D03*
D64*
X341040Y445300D02*
D03*
X639540Y231700D02*
D03*
Y445300D02*
D03*
X341040Y230700D02*
D03*
M02*
