G04*
G04 #@! TF.GenerationSoftware,Altium Limited,Altium Designer,21.0.9 (235)*
G04*
G04 Layer_Physical_Order=2*
G04 Layer_Color=16711680*
%FSLAX44Y44*%
%MOMM*%
G71*
G04*
G04 #@! TF.SameCoordinates,FF243E75-1A4C-4666-92C7-23B9F90F277F*
G04*
G04*
G04 #@! TF.FilePolarity,Positive*
G04*
G01*
G75*
%ADD11C,0.2000*%
%ADD16C,0.5000*%
%ADD17C,0.4000*%
%ADD20C,0.7000*%
%ADD59C,0.1700*%
%ADD60C,0.3000*%
%ADD62C,1.5000*%
%ADD64C,1.0000*%
G04:AMPARAMS|DCode=65|XSize=2mm|YSize=4mm|CornerRadius=0.07mm|HoleSize=0mm|Usage=FLASHONLY|Rotation=270.000|XOffset=0mm|YOffset=0mm|HoleType=Round|Shape=RoundedRectangle|*
%AMROUNDEDRECTD65*
21,1,2.0000,3.8600,0,0,270.0*
21,1,1.8600,4.0000,0,0,270.0*
1,1,0.1400,-1.9300,-0.9300*
1,1,0.1400,-1.9300,0.9300*
1,1,0.1400,1.9300,0.9300*
1,1,0.1400,1.9300,-0.9300*
%
%ADD65ROUNDEDRECTD65*%
%ADD66R,0.7874X1.6510*%
G36*
X489079Y399664D02*
X478460Y399605D01*
X492740Y385325D01*
Y355189D01*
X537485Y399933D01*
X496341Y399705D01*
X492740Y402105D01*
X489079Y399664D01*
D02*
G37*
G36*
X348968Y390784D02*
X349223Y391074D01*
X349485Y391334D01*
X349752Y391562D01*
X350026Y391761D01*
X350306Y391929D01*
X350592Y392066D01*
X350885Y392173D01*
X351183Y392249D01*
X351488Y392295D01*
X351799Y392310D01*
X351621Y394310D01*
X351322Y394324D01*
X351021Y394364D01*
X350719Y394432D01*
X350415Y394527D01*
X350108Y394649D01*
X349801Y394798D01*
X349492Y394975D01*
X349181Y395178D01*
X348868Y395409D01*
X348554Y395667D01*
X348968Y390784D01*
D02*
G37*
G36*
X249112Y389389D02*
X249411Y389657D01*
X249710Y389897D01*
X250009Y390108D01*
X250309Y390292D01*
X250609Y390447D01*
X250910Y390574D01*
X251211Y390673D01*
X251513Y390743D01*
X251815Y390786D01*
X252118Y390800D01*
X252196Y392800D01*
X251888Y392815D01*
X251584Y392859D01*
X251284Y392934D01*
X250988Y393038D01*
X250696Y393171D01*
X250408Y393335D01*
X250123Y393528D01*
X249843Y393751D01*
X249567Y394003D01*
X249295Y394286D01*
X249112Y389389D01*
D02*
G37*
G36*
X340763Y387380D02*
X310790D01*
X297570Y374160D01*
X304130Y367600D01*
X335250D01*
Y368305D01*
X335708Y368763D01*
X337088Y367382D01*
X336808Y367769D01*
X336670Y368226D01*
X336673Y368755D01*
X336817Y369355D01*
X337103Y370026D01*
X337282Y370336D01*
X351220Y384275D01*
X349493Y386002D01*
X350252Y386762D01*
X349968Y386793D01*
X348931Y386966D01*
X348800Y387004D01*
X348694Y387044D01*
X348614Y387084D01*
X348559Y387125D01*
X348464Y387031D01*
X348115Y387380D01*
X343718D01*
Y387418D01*
X343412Y387433D01*
X343109Y387476D01*
X342808Y387549D01*
X342509Y387650D01*
X342213Y387781D01*
X341918Y387940D01*
X341626Y388129D01*
X341336Y388346D01*
X341049Y388593D01*
X340763Y388868D01*
Y387380D01*
D02*
G37*
G36*
X250224Y378173D02*
X249993Y378055D01*
X249746Y377952D01*
X249484Y377862D01*
X249205Y377785D01*
X248911Y377723D01*
X248601Y377675D01*
X247934Y377619D01*
X247576Y377612D01*
X246870Y374613D01*
X247230Y374602D01*
X247567Y374568D01*
X247881Y374513D01*
X248172Y374436D01*
X248440Y374337D01*
X248684Y374215D01*
X248906Y374072D01*
X249105Y373906D01*
X249280Y373719D01*
X249433Y373509D01*
X250440Y378304D01*
X250224Y378173D01*
D02*
G37*
G36*
X466540Y374050D02*
X466494Y373746D01*
X466419Y373447D01*
X466314Y373152D01*
X466179Y372863D01*
X466013Y372578D01*
X465817Y372299D01*
X465592Y372024D01*
X465336Y371755D01*
X465050Y371490D01*
X469942Y371202D01*
X469678Y371508D01*
X469442Y371813D01*
X469234Y372118D01*
X469054Y372422D01*
X468901Y372726D01*
X468777Y373029D01*
X468680Y373332D01*
X468610Y373634D01*
X468568Y373936D01*
X468555Y374237D01*
X466555Y374360D01*
X466540Y374050D01*
D02*
G37*
G36*
X474665Y372481D02*
X474636Y372141D01*
X474589Y371820D01*
X474522Y371517D01*
X474437Y371232D01*
X474332Y370964D01*
X474209Y370715D01*
X474066Y370484D01*
X473905Y370271D01*
X473724Y370075D01*
X478624D01*
X478444Y370271D01*
X478282Y370484D01*
X478140Y370715D01*
X478016Y370964D01*
X477912Y371232D01*
X477826Y371517D01*
X477760Y371820D01*
X477712Y372141D01*
X477684Y372481D01*
X477674Y372838D01*
X474674D01*
X474665Y372481D01*
D02*
G37*
G36*
X460147Y373545D02*
X459902Y373361D01*
X459637Y373199D01*
X459354Y373060D01*
X459052Y372942D01*
X458731Y372847D01*
X458392Y372774D01*
X458033Y372723D01*
X457655Y372693D01*
X457259Y372687D01*
X460723Y369222D01*
X460730Y369618D01*
X460760Y369996D01*
X460811Y370355D01*
X460884Y370695D01*
X460979Y371016D01*
X461097Y371317D01*
X461236Y371601D01*
X461398Y371865D01*
X461581Y372110D01*
X461787Y372336D01*
X460373Y373750D01*
X460147Y373545D01*
D02*
G37*
G36*
X238800Y372491D02*
X238694Y372370D01*
X238519Y372263D01*
X238272Y372170D01*
X237955Y372091D01*
X237568Y372027D01*
X237110Y371977D01*
X235984Y371920D01*
X235315Y371912D01*
Y366912D01*
X235984Y366902D01*
X237110Y366821D01*
X237568Y366749D01*
X237955Y366657D01*
X238272Y366545D01*
X238519Y366412D01*
X238694Y366259D01*
X238800Y366086D01*
X238835Y365892D01*
Y372627D01*
X238800Y372491D01*
D02*
G37*
G36*
X217675Y367637D02*
X217689Y367532D01*
X217701Y367369D01*
X217739Y365684D01*
X217742Y364603D01*
X219742D01*
X219825Y367683D01*
X217659D01*
X217675Y367637D01*
D02*
G37*
G36*
X264618Y357242D02*
X264668Y357717D01*
X264819Y358142D01*
X265071Y358517D01*
X265423Y358842D01*
X265875Y359117D01*
X266429Y359342D01*
X267083Y359517D01*
X267837Y359642D01*
X268693Y359717D01*
X269648Y359742D01*
Y364742D01*
X268693Y364767D01*
X267837Y364842D01*
X267083Y364967D01*
X266429Y365142D01*
X265875Y365367D01*
X265423Y365642D01*
X265071Y365967D01*
X264819Y366342D01*
X264668Y366767D01*
X264618Y367242D01*
Y357242D01*
D02*
G37*
G36*
X297489Y360625D02*
X297648Y360188D01*
X297659Y359673D01*
X297523Y359082D01*
X297240Y358413D01*
X296810Y357667D01*
X296232Y356845D01*
X295508Y355945D01*
X293618Y353915D01*
X295672Y352434D01*
X292260Y349021D01*
X306500Y334780D01*
X345940D01*
X334636Y346084D01*
Y349488D01*
X337136D01*
X337067Y354910D01*
X334636Y354782D01*
Y356971D01*
X301911D01*
X297184Y360986D01*
X297489Y360625D01*
D02*
G37*
G36*
X355292Y357907D02*
X355042Y357726D01*
X354778Y357575D01*
X354500Y357457D01*
X354208Y357370D01*
X353902Y357314D01*
X353582Y357290D01*
X353249Y357298D01*
X352901Y357337D01*
X352539Y357408D01*
X355163Y353270D01*
X355259Y353680D01*
X355482Y354434D01*
X355611Y354778D01*
X355900Y355399D01*
X356061Y355676D01*
X356233Y355931D01*
X356416Y356164D01*
X356610Y356374D01*
X355528Y358121D01*
X355292Y357907D01*
D02*
G37*
G36*
X199183Y356177D02*
X199287Y356082D01*
X199379Y355924D01*
X199459Y355704D01*
X199526Y355421D01*
X199581Y355076D01*
X199624Y354668D01*
X199673Y353663D01*
X199679Y353066D01*
X204679D01*
X204648Y356178D01*
X199067Y356209D01*
X199183Y356177D01*
D02*
G37*
G36*
X204764Y349057D02*
X205019Y349356D01*
X205305Y349572D01*
X205620Y349705D01*
X205784Y349728D01*
X205520Y348695D01*
X201950Y350392D01*
X201263Y347664D01*
X204261Y347559D01*
X204276Y347649D01*
X204315Y347741D01*
X204379Y347836D01*
X204466Y347934D01*
X204577Y348034D01*
X204712Y348138D01*
X204870Y348245D01*
X205261Y348466D01*
X205491Y348581D01*
X205520Y348695D01*
X205620Y348648D01*
X206239Y348967D01*
X206808Y349211D01*
X207254Y349356D01*
X207654Y349112D01*
X208151Y348742D01*
X208381Y348545D01*
X208523Y348279D01*
X208776Y347714D01*
X208955Y347196D01*
X209058Y346725D01*
X209086Y346302D01*
X209039Y345928D01*
X208916Y345600D01*
X208719Y345320D01*
X208447Y345088D01*
X208099Y344904D01*
X212483Y345563D01*
X211853Y348130D01*
X208679Y348289D01*
X208381Y348545D01*
X208195Y348892D01*
X208296Y349487D01*
X208598Y349445D01*
X208924Y349317D01*
X209200Y349115D01*
X209428Y348839D01*
X209607Y348489D01*
X209017Y352883D01*
X207630Y352565D01*
X206355Y353195D01*
X204764Y349057D01*
D02*
G37*
G36*
X239139Y356128D02*
X239410Y355978D01*
X239650Y355728D01*
X239858Y355378D01*
X240033Y354928D01*
X240177Y354378D01*
X240289Y353728D01*
X240369Y352978D01*
X240433Y351178D01*
X245433D01*
X245445Y352128D01*
X245627Y354378D01*
X245737Y354928D01*
X245870Y355378D01*
X246028Y355728D01*
X246211Y355978D01*
X246417Y356128D01*
X246648Y356178D01*
X238835D01*
X239139Y356128D01*
D02*
G37*
G36*
X379267Y349674D02*
X379473Y349448D01*
X379656Y349203D01*
X379818Y348939D01*
X379958Y348656D01*
X380075Y348354D01*
X380170Y348033D01*
X380244Y347693D01*
X380295Y347334D01*
X380324Y346956D01*
X380331Y346560D01*
X383796Y350025D01*
X383399Y350032D01*
X383021Y350061D01*
X382663Y350112D01*
X382323Y350185D01*
X382002Y350280D01*
X381700Y350398D01*
X381417Y350537D01*
X381153Y350699D01*
X380907Y350883D01*
X380681Y351088D01*
X379267Y349674D01*
D02*
G37*
G36*
X364066Y335513D02*
X364462Y335506D01*
X364840Y335477D01*
X365199Y335426D01*
X365538Y335353D01*
X365859Y335257D01*
X366161Y335140D01*
X366445Y335000D01*
X366709Y334839D01*
X366954Y334655D01*
X367180Y334449D01*
X368594Y335864D01*
X368389Y336090D01*
X368205Y336335D01*
X368043Y336599D01*
X367904Y336882D01*
X367786Y337184D01*
X367691Y337505D01*
X367618Y337845D01*
X367566Y338204D01*
X367537Y338582D01*
X367531Y338978D01*
X364066Y335513D01*
D02*
G37*
G36*
X259732Y324107D02*
X259702Y323815D01*
X259652Y323525D01*
X259582Y323239D01*
X259492Y322956D01*
X259382Y322675D01*
X259252Y322398D01*
X259102Y322124D01*
X258932Y321853D01*
X258743Y321586D01*
X262741D01*
X262551Y321853D01*
X262381Y322124D01*
X262232Y322398D01*
X262102Y322675D01*
X261992Y322956D01*
X261902Y323239D01*
X261832Y323525D01*
X261782Y323815D01*
X261752Y324107D01*
X261742Y324403D01*
X259742D01*
X259732Y324107D01*
D02*
G37*
G36*
X371350Y314149D02*
X371306Y313845D01*
X371234Y313544D01*
X371132Y313245D01*
X371002Y312949D01*
X370842Y312654D01*
X370654Y312362D01*
X370436Y312073D01*
X370190Y311785D01*
X369914Y311500D01*
X374814D01*
X374539Y311785D01*
X374292Y312073D01*
X374075Y312362D01*
X373886Y312654D01*
X373727Y312949D01*
X373596Y313245D01*
X373495Y313544D01*
X373422Y313845D01*
X373379Y314149D01*
X373364Y314454D01*
X371364D01*
X371350Y314149D01*
D02*
G37*
G36*
X568740Y318600D02*
X569340Y318000D01*
X568165Y316825D01*
X589130Y295860D01*
X621900Y295860D01*
X608590Y309170D01*
Y328045D01*
X627699Y347154D01*
Y363182D01*
X613322D01*
X568740Y318600D01*
D02*
G37*
G36*
X418935Y295901D02*
X419053Y295867D01*
X419159Y295811D01*
X419253Y295735D01*
X419334Y295638D01*
X419402Y295520D01*
X419458Y295381D01*
X419502Y295221D01*
X419533Y295041D01*
X419551Y294839D01*
X419558Y294617D01*
X421558D01*
X421562Y294956D01*
X421624Y295807D01*
X421662Y296036D01*
X421707Y296237D01*
X421762Y296410D01*
X421824Y296556D01*
X421895Y296674D01*
X421974Y296765D01*
X418935Y295901D01*
D02*
G37*
G36*
X242742Y319882D02*
X232760Y309900D01*
X211480D01*
Y309346D01*
X227176Y293651D01*
X240492D01*
X242742Y292151D01*
X244992Y293651D01*
X273494D01*
X242742Y324403D01*
Y319882D01*
D02*
G37*
G36*
X405927Y288530D02*
X405847Y287562D01*
X405777Y287132D01*
X405687Y286738D01*
X405577Y286380D01*
X405447Y286058D01*
X405297Y285772D01*
X405127Y285522D01*
X404937Y285308D01*
X411937D01*
X411747Y285522D01*
X411577Y285772D01*
X411427Y286058D01*
X411297Y286380D01*
X411187Y286738D01*
X411097Y287132D01*
X411027Y287562D01*
X410977Y288028D01*
X410937Y289067D01*
X405937D01*
X405927Y288530D01*
D02*
G37*
G36*
X445937Y315333D02*
Y283686D01*
X455860Y293609D01*
X508196D01*
X493951Y331700D01*
X429570D01*
X445937Y315333D01*
D02*
G37*
D11*
X329959Y311271D02*
X317136D01*
X301437D01*
X508328Y293956D02*
X456207D01*
X445937Y281737D02*
Y283686D01*
X456207Y293956D02*
X445937Y283686D01*
X387650Y290051D02*
Y298964D01*
X414468Y274037D02*
X403663D01*
X387650Y290051D01*
X388024Y299337D02*
X387650Y298964D01*
X349554Y361200D02*
X342336D01*
X358720Y370366D02*
Y388084D01*
Y370366D02*
X349554Y361200D01*
X352822Y354000D02*
X351740D01*
X365268Y366446D02*
Y388758D01*
Y366446D02*
X352822Y354000D01*
X463128Y388413D02*
X398352D01*
X367458Y419307D02*
X314795D01*
X398352Y388413D02*
X367458Y419307D01*
X459666Y384713D02*
X393747D01*
X363449Y415010D02*
X318098D01*
X393747Y384713D02*
X363449Y415010D01*
X359693Y410221D02*
X319410D01*
X391434Y378480D02*
X359693Y410221D01*
X457028Y378480D02*
X391434D01*
X357823Y404990D02*
X321060D01*
X375050Y387762D02*
X357823Y404990D01*
X375050Y355305D02*
Y387762D01*
X354812Y399214D02*
X324684D01*
X365268Y388758D02*
X354812Y399214D01*
X353495Y393310D02*
X346566D01*
X358720Y388084D02*
X353495Y393310D01*
X463855Y380525D02*
X459666Y384713D01*
X467555Y383987D02*
X463128Y388413D01*
X260954Y391800D02*
X246836D01*
X291707Y375637D02*
X277118D01*
X260954Y391800D01*
X260912Y398130D02*
X206870D01*
X279705Y379337D02*
X260912Y398130D01*
X288526Y379337D02*
X279705D01*
X288824Y385737D02*
X282787D01*
X318098Y415010D02*
X288824Y385737D01*
X319410Y410221D02*
X288526Y379337D01*
X321060Y404990D02*
X291707Y375637D01*
X246836Y391800D02*
X246706Y391930D01*
X206870Y398130D02*
X206740Y398000D01*
X282787Y385737D02*
X282587Y385537D01*
X351220Y384275D02*
X349995D01*
X346566Y393310D02*
X346270Y393014D01*
X324684Y399214D02*
X324260Y398790D01*
X349995Y384275D02*
X347852Y386418D01*
X338264D01*
X372364Y330680D02*
X364031Y339013D01*
X372364Y309000D02*
Y330680D01*
X433437Y281737D02*
X420558Y294617D01*
Y297164D01*
X419233Y298488D01*
X314795Y419307D02*
X295189Y399700D01*
X467555Y369057D02*
Y383987D01*
X463855Y375818D02*
Y380525D01*
X457058Y378510D02*
X457028Y378480D01*
X463855Y375818D02*
X457224Y369187D01*
X467555Y369057D02*
X467349Y368851D01*
X295189Y399700D02*
X282420D01*
X383831Y346525D02*
X375050Y355305D01*
X218742Y364403D02*
Y368721D01*
X420937Y280507D02*
Y281737D01*
Y280507D02*
X414468Y274037D01*
X260742Y320085D02*
Y324403D01*
D16*
X293376Y350137D02*
X242951D01*
X306464Y286920D02*
X305433Y287951D01*
X307005Y286920D02*
X306464D01*
X305433Y287951D02*
X222627D01*
X351720Y301386D02*
Y316023D01*
X339845Y327898D02*
X304287D01*
X351720Y316023D02*
X339845Y327898D01*
X304287D02*
X291597Y340588D01*
X205108Y350137D02*
X202179Y353066D01*
Y362966D01*
X242951Y350137D02*
X205108D01*
X654575Y313624D02*
X615090D01*
X638884Y277662D02*
X598545Y318000D01*
X656740Y312000D02*
X656199D01*
X654575Y313624D01*
X425315Y399605D02*
X422607Y402313D01*
X492740Y399605D02*
X425315D01*
X396613Y401519D02*
X396071Y402060D01*
X422607Y402313D02*
X397792D01*
X396998Y401519D02*
X396613D01*
X397792Y402313D02*
X396998Y401519D01*
X627699Y347154D02*
Y363182D01*
Y347154D02*
X598545Y318000D01*
X222627Y287951D02*
X205540Y305038D01*
X294332Y279220D02*
X293796Y279756D01*
X340819Y279220D02*
X294332D01*
X293796Y279756D02*
X292382D01*
X291999Y280138D01*
X291643Y279230D02*
X233800D01*
X279662Y301165D02*
X260742Y320085D01*
X282453Y310209D02*
Y339644D01*
X342358Y279095D02*
X340943D01*
X342740Y278713D02*
X342358Y279095D01*
X339974Y286920D02*
X315705D01*
X364209Y286413D02*
X340481D01*
X340943Y279095D02*
X340819Y279220D01*
X340481Y286413D02*
X339974Y286920D01*
X279996Y363793D02*
X259560Y384230D01*
X234040D01*
X291007Y363793D02*
X279996D01*
X262179Y362242D02*
Y362966D01*
X260742Y364403D01*
X270015Y362242D02*
X262179D01*
X291200Y363600D02*
X291007Y363793D01*
X351220Y384275D02*
X347514D01*
X327136Y364471D02*
X327136D01*
X347514Y384275D02*
X341957Y378718D01*
X341384D01*
X327136Y364471D01*
X418507Y340710D02*
X364209Y286413D01*
X495830Y340710D02*
X418507D01*
X363920Y298163D02*
Y317687D01*
X364013Y298070D02*
X363920Y298163D01*
Y317687D02*
X334636Y346971D01*
Y356971D01*
X327136Y364471D02*
X317136D01*
X334636Y356971D02*
X327136Y364471D01*
X428310Y323748D02*
X408437Y303874D01*
X428310Y323748D02*
Y324000D01*
X408437Y281737D02*
Y303874D01*
X397311Y299442D02*
Y307186D01*
X421825Y331700D02*
X397311Y307186D01*
X446940Y331700D02*
X421825D01*
X493951D02*
X446940D01*
X445937Y330697D01*
Y281737D02*
Y330697D01*
X517340Y319200D02*
X495830Y340710D01*
X242742Y364403D02*
Y367976D01*
X241305Y369412D02*
X235315D01*
X242742Y367976D02*
X241305Y369412D01*
X317136Y364471D02*
X315637Y362972D01*
Y337922D02*
Y362972D01*
X317136Y364471D02*
X307136D01*
X246528Y349422D02*
X245813Y350137D01*
X246528Y339835D02*
Y349422D01*
X299636Y356397D02*
X293376Y350137D01*
X307136Y364471D02*
X299636Y356971D01*
X202179Y362966D02*
X200742Y364403D01*
X246720Y339643D02*
X246528Y339835D01*
X242933Y364212D02*
X242742Y364403D01*
X242951Y350137D02*
X242933Y350156D01*
Y364212D01*
X299636Y356397D02*
Y356971D01*
X627257Y399605D02*
X492740D01*
Y355189D02*
X492683Y355132D01*
X492740Y355189D02*
Y399605D01*
X638797Y388066D02*
X627257Y399605D01*
X614952Y388012D02*
X590070Y363130D01*
X615307Y388012D02*
X614952D01*
X590070Y363130D02*
X589715D01*
X610832Y289750D02*
X591623D01*
X623164Y277418D02*
X610832Y289750D01*
X569340Y318000D02*
X568140Y319200D01*
X598545Y318000D02*
X569340D01*
D17*
X200742Y364403D02*
X194265Y370880D01*
X207219D02*
X200742Y364403D01*
X235315Y369412D02*
X231044Y365142D01*
X200742Y364403D02*
X194265Y357926D01*
X207219D02*
X200742Y364403D01*
X207032Y347462D02*
X202761Y343191D01*
X211303D02*
X207032Y347462D01*
X242742Y364403D02*
X236265Y357926D01*
X249219D02*
X242742Y364403D01*
X250991Y343914D02*
X246720Y339643D01*
X242449Y343914D01*
X250991Y335372D02*
X246720Y339643D01*
X338264Y386418D02*
X333993Y390689D01*
X351220Y384275D02*
X346949Y380004D01*
X364013Y298070D02*
X359743Y302341D01*
X368284D02*
X364013Y298070D01*
X359743Y293799D01*
X432581Y319729D02*
X428310Y324000D01*
X480445Y363305D02*
X476174Y367576D01*
X480445Y371847D02*
X476174Y367576D01*
X408437Y281737D02*
X403105Y287069D01*
X413769D02*
X408437Y281737D01*
X591623Y289750D02*
X587352Y285479D01*
X595894D02*
X591623Y289750D01*
X623164Y277418D02*
X618893Y273148D01*
X627435D02*
X623164Y277418D01*
X234710Y339643D02*
X234136Y339069D01*
X229090D01*
X218742Y324403D02*
Y328721D01*
X229090Y339069D02*
X218742Y328721D01*
D20*
X508328Y293956D02*
D03*
X252382Y375393D02*
D03*
X307005Y286920D02*
D03*
X415861Y394613D02*
D03*
X282424Y300400D02*
D03*
X291999Y280138D02*
D03*
X282604Y310058D02*
D03*
X315705Y286920D02*
D03*
X270015Y362242D02*
D03*
X234040Y384230D02*
D03*
X246706Y391930D02*
D03*
X291200Y363600D02*
D03*
X282587Y385537D02*
D03*
X351220Y384275D02*
D03*
X346270Y393014D02*
D03*
X342336Y361200D02*
D03*
X338264Y386418D02*
D03*
X342740Y278713D02*
D03*
X388024Y299337D02*
D03*
X364013Y298070D02*
D03*
X372364Y309000D02*
D03*
X428310Y324000D02*
D03*
X493951Y331700D02*
D03*
X419601Y299337D02*
D03*
X397311Y299442D02*
D03*
X396074Y401137D02*
D03*
X457058Y378510D02*
D03*
X457224Y369187D02*
D03*
X467349Y368851D02*
D03*
X517340Y319200D02*
D03*
X235315Y369412D02*
D03*
X315637Y337922D02*
D03*
X476174Y367576D02*
D03*
X282420Y399700D02*
D03*
X324260Y398790D02*
D03*
X383831Y346525D02*
D03*
X599684Y277556D02*
D03*
X207032Y347462D02*
D03*
X246720Y339643D02*
D03*
X234710D02*
D03*
X200742Y324403D02*
D03*
X492683Y355132D02*
D03*
X206740Y398000D02*
D03*
X351740Y354000D02*
D03*
X383831Y356000D02*
D03*
X364031Y339013D02*
D03*
X205540Y305038D02*
D03*
X233444Y279586D02*
D03*
X589715Y363130D02*
D03*
X638884Y277662D02*
D03*
X615090Y313624D02*
D03*
X568140Y319200D02*
D03*
X656740Y312000D02*
D03*
X627699Y363182D02*
D03*
X478460Y399605D02*
D03*
X623164Y277418D02*
D03*
X638797Y388066D02*
D03*
X615307Y388012D02*
D03*
X591623Y289750D02*
D03*
X291597Y340588D02*
D03*
X282302Y339795D02*
D03*
X329959Y311271D02*
D03*
X301437D02*
D03*
X351720Y301386D02*
D03*
D59*
X211542Y401680D02*
G03*
X200690Y398000I-4802J-3680D01*
G01*
D02*
G03*
X211731Y394580I6050J0D01*
G01*
X226134Y380163D02*
G03*
X223270Y378976I0J-4050D01*
G01*
X241267Y394580D02*
G03*
X240656Y391930I5439J-2650D01*
G01*
X226134Y380163D02*
G03*
X223262Y378968I0J-4050D01*
G01*
X227990Y384230D02*
G03*
X229562Y380163I6050J0D01*
G01*
X237372Y389280D02*
G03*
X227990Y384230I-3332J-5050D01*
G01*
X228955Y372062D02*
G03*
X228425Y369412I6360J-2650D01*
G01*
X240656Y391930D02*
G03*
X241267Y389280I6050J0D01*
G01*
X250069Y369803D02*
G03*
X254255Y369640I2314J5590D01*
G01*
X197138Y352758D02*
G03*
X198608Y349495I5041J309D01*
G01*
X197138Y352758D02*
G03*
X198615Y349488I5041J309D01*
G01*
X198895Y349208D02*
G03*
X198715Y347753I8137J-1746D01*
G01*
X210128Y355187D02*
G03*
X208069Y355720I-3096J-7725D01*
G01*
X199029Y349075D02*
G03*
X198710Y347536I3731J-1575D01*
G01*
X198712Y347612D02*
G03*
X201132Y343904I4050J0D01*
G01*
X198710Y347462D02*
G03*
X215008Y345087I8322J0D01*
G01*
X228425Y369412D02*
G03*
X235415Y362523I6890J0D01*
G01*
X232071Y345087D02*
G03*
X230150Y343619I2639J-5444D01*
G01*
X240263Y342046D02*
G03*
X237349Y345087I-5552J-2403D01*
G01*
X229090Y343619D02*
G03*
X225873Y342286I0J-4550D01*
G01*
X229090Y343619D02*
G03*
X225873Y342286I0J-4550D01*
G01*
X241479Y344115D02*
G03*
X240263Y342046I5242J-4472D01*
G01*
X231494Y334519D02*
G03*
X236255Y333794I3217J5124D01*
G01*
X322490Y445300D02*
G03*
X322490Y445300I18550J0D01*
G01*
D02*
G03*
X322490Y445300I18550J0D01*
G01*
X287319Y403250D02*
G03*
X286320Y404325I-4899J-3550D01*
G01*
X278521D02*
G03*
X276370Y399700I3900J-4626D01*
G01*
X263422Y400640D02*
G03*
X260912Y401680I-2510J-2510D01*
G01*
X263425Y400637D02*
G03*
X260912Y401680I-2513J-2507D01*
G01*
X314795Y422857D02*
G03*
X312282Y421814I0J-3550D01*
G01*
X314795Y422857D02*
G03*
X312285Y421817I0J-3550D01*
G01*
X276252Y339795D02*
G03*
X277403Y336245I6050J0D01*
G01*
X279369Y345087D02*
G03*
X276252Y339795I2932J-5292D01*
G01*
X276370Y399700D02*
G03*
X287319Y396150I6050J0D01*
G01*
X287335Y389287D02*
G03*
X276791Y387271I-4748J-3750D01*
G01*
X287503Y336134D02*
G03*
X290382Y334661I4094J4454D01*
G01*
X318395Y397305D02*
G03*
X329440Y395664I5865J1485D01*
G01*
X369971Y421814D02*
G03*
X367458Y422857I-2513J-2507D01*
G01*
X369968Y421817D02*
G03*
X367458Y422857I-2510J-2510D01*
G01*
X340831Y395664D02*
G03*
X340220Y393025I5439J-2650D01*
G01*
D02*
G03*
X332366Y389980I-1956J-6606D01*
G01*
X347235Y364750D02*
G03*
X340526Y366973I-4899J-3550D01*
G01*
X348547Y377925D02*
G03*
X355170Y378630I2673J6350D01*
G01*
X249229Y333226D02*
G03*
X251579Y344529I-2509J6417D01*
G01*
X297836Y323821D02*
G03*
X294586Y320571I0J-3250D01*
G01*
X286157Y305161D02*
G03*
X287503Y313608I-3553J4897D01*
G01*
X204168Y310931D02*
G03*
X199490Y305038I1372J-5892D01*
G01*
D02*
G03*
X204325Y299111I6050J0D01*
G01*
X219050Y284387D02*
G03*
X222627Y282901I3578J3564D01*
G01*
X219056Y284380D02*
G03*
X222627Y282901I3571J3571D01*
G01*
X228383D02*
G03*
X227394Y279586I5061J-3315D01*
G01*
D02*
G03*
X236161Y274180I6050J0D01*
G01*
X277403Y313149D02*
G03*
X276680Y311288I5201J-3091D01*
G01*
X287839Y297701D02*
G03*
X286157Y305161I-5415J2698D01*
G01*
X294586Y301971D02*
G03*
X297836Y298721I3250J0D01*
G01*
X293409Y274255D02*
G03*
X294332Y274170I923J4965D01*
G01*
X293409Y274255D02*
G03*
X294332Y274170I923J4965D01*
G01*
X290950Y274180D02*
G03*
X293409Y274255I1050J5958D01*
G01*
X300709Y324334D02*
G03*
X301307Y323821I3578J3564D01*
G01*
X300716Y324327D02*
G03*
X301307Y323821I3571J3571D01*
G01*
X336436Y298721D02*
G03*
X339686Y301971I0J3250D01*
G01*
X314459Y296515D02*
G03*
X311595Y297701I-2864J-2864D01*
G01*
X314467Y296507D02*
G03*
X311595Y297701I-2872J-2855D01*
G01*
X346670Y304717D02*
G03*
X345670Y301386I5050J-3332D01*
G01*
X318462Y292306D02*
G03*
X317795Y293178I-3522J-1999D01*
G01*
X318462Y292306D02*
G03*
X317803Y293170I-3522J-1999D01*
G01*
X342180Y291463D02*
G03*
X339974Y291970I-2206J-4543D01*
G01*
X342180Y291463D02*
G03*
X339974Y291970I-2206J-4543D01*
G01*
X338744Y274170D02*
G03*
X348179Y281363I3996J4543D01*
G01*
X356770Y316023D02*
G03*
X356287Y318178I-5050J0D01*
G01*
X356770Y316023D02*
G03*
X356287Y318178I-5050J0D01*
G01*
X357755Y300951D02*
G03*
X356770Y304717I-6034J435D01*
G01*
X345670Y301386D02*
G03*
X357155Y298727I6050J0D01*
G01*
X368970Y303992D02*
G03*
X373771Y303116I3394J5008D01*
G01*
X358870Y302655D02*
G03*
X357755Y300951I5143J-4585D01*
G01*
X370634Y299979D02*
G03*
X368970Y302855I-6620J-1909D01*
G01*
X357123Y298070D02*
G03*
X362060Y291463I6890J0D01*
G01*
X364209Y281363D02*
G03*
X367780Y282842I0J5050D01*
G01*
X364209Y281363D02*
G03*
X367787Y282849I0J5050D01*
G01*
X322490Y230700D02*
G03*
X322490Y230700I18550J0D01*
G01*
D02*
G03*
X322490Y230700I18550J0D01*
G01*
X391204Y404725D02*
G03*
X390053Y401732I4870J-3589D01*
G01*
X475128Y394556D02*
G03*
X480484Y393904I3332J5050D01*
G01*
X480224Y381506D02*
G03*
X479030Y384378I-4050J0D01*
G01*
X480224Y381506D02*
G03*
X479038Y384370I-4050J0D01*
G01*
X388921Y375973D02*
G03*
X391434Y374930I2513J2507D01*
G01*
X388924Y375970D02*
G03*
X391434Y374930I2510J2510D01*
G01*
X452181D02*
G03*
X453286Y373780I4877J3580D01*
G01*
X389873Y355686D02*
G03*
X378600Y359041I-6042J314D01*
G01*
X451174Y369187D02*
G03*
X462177Y365713I6050J0D01*
G01*
X453286Y373780D02*
G03*
X451174Y369187I3938J-4593D01*
G01*
X462177Y365713D02*
G03*
X470491Y363681I5172J3138D01*
G01*
X428834Y317130D02*
G03*
X435046Y322548I-524J6870D01*
G01*
X470491Y363681D02*
G03*
X480224Y373150I5683J3895D01*
G01*
X588926Y369128D02*
G03*
X583665Y363130I789J-5998D01*
G01*
D02*
G03*
X595526Y361444I6050J0D01*
G01*
X486633Y355132D02*
G03*
X488051Y351240I6050J0D01*
G01*
X487690Y358549D02*
G03*
X486633Y355132I4993J-3417D01*
G01*
X497315Y351240D02*
G03*
X498384Y357156I-4632J3892D01*
G01*
X503142Y350046D02*
G03*
X500270Y351240I-2872J-2855D01*
G01*
X503134Y350054D02*
G03*
X500270Y351240I-2864J-2864D01*
G01*
X498300Y327494D02*
G03*
X499670Y329728I-4349J4206D01*
G01*
X562090Y319200D02*
G03*
X567919Y313154I6050J0D01*
G01*
X511413Y317985D02*
G03*
X523337Y318396I5927J1215D01*
G01*
X570997Y324533D02*
G03*
X562090Y319200I-2856J-5333D01*
G01*
X620990Y445300D02*
G03*
X620990Y445300I18550J0D01*
G01*
D02*
G03*
X620990Y445300I18550J0D01*
G01*
X630835Y403170D02*
G03*
X627257Y404655I-3578J-3564D01*
G01*
X630828Y403176D02*
G03*
X627257Y404655I-3571J-3571D01*
G01*
X616095Y382014D02*
G03*
X609496Y389698I-789J5998D01*
G01*
X618422Y318674D02*
G03*
X611190Y318250I-3332J-5050D01*
G01*
X631270Y343583D02*
G03*
X632749Y347154I-3571J3571D01*
G01*
X631263Y343576D02*
G03*
X632749Y347154I-3564J3578D01*
G01*
Y359850D02*
G03*
X622236Y365782I-5050J3332D01*
G01*
X632870Y386851D02*
G03*
X640012Y393992I5927J1215D01*
G01*
X657019Y318044D02*
G03*
X654575Y318674I-2444J-4419D01*
G01*
X657019Y318044D02*
G03*
X654575Y318674I-2444J-4419D01*
G01*
X404866Y307445D02*
G03*
X403387Y303874I3571J-3571D01*
G01*
X404873Y307452D02*
G03*
X403387Y303874I3564J-3578D01*
G01*
X382304Y297365D02*
G03*
X384100Y294732I5720J1972D01*
G01*
X391200Y294188D02*
G03*
X392711Y295512I-3177J5149D01*
G01*
X392711D02*
G03*
X402361Y302773I4600J3929D01*
G01*
X413551Y299337D02*
G03*
X417096Y293830I6050J0D01*
G01*
X424461Y295734D02*
G03*
X413551Y299337I-4860J3603D01*
G01*
X417096Y293830D02*
G03*
X418047Y292107I3462J786D01*
G01*
X417096Y293830D02*
G03*
X418050Y292104I3462J786D01*
G01*
X503429Y290406D02*
G03*
X508582Y300001I4899J3550D01*
G01*
X384100Y290051D02*
G03*
X385143Y287537I3550J0D01*
G01*
X384100Y290051D02*
G03*
X385140Y287540I3550J0D01*
G01*
X420867Y289287D02*
G03*
X415223Y286672I70J-7550D01*
G01*
X403387Y288437D02*
G03*
X400094Y282627I5050J-6700D01*
G01*
X415223Y286672D02*
G03*
X413487Y288437I-6786J-4934D01*
G01*
X427187Y277502D02*
G03*
X439687Y277502I6250J4236D01*
G01*
X419734Y274284D02*
G03*
X427187Y277502I1203J7454D01*
G01*
X440887Y287350D02*
G03*
X439687Y285973I5050J-5612D01*
G01*
D02*
G03*
X431236Y288959I-6250J-4236D01*
G01*
X439687Y277502D02*
G03*
X452586Y285315I6250J4236D01*
G01*
X567032Y274701D02*
G03*
X569904Y273506I2872J2855D01*
G01*
X586721Y294592D02*
G03*
X584733Y289750I4902J-4842D01*
G01*
D02*
G03*
X596310Y284700I6890J0D01*
G01*
X616038Y307649D02*
G03*
X618422Y308574I-948J5975D01*
G01*
X567040Y274692D02*
G03*
X569904Y273506I2864J2864D01*
G01*
X595190D02*
G03*
X595190Y281606I4494J4050D01*
G01*
X651753Y308574D02*
G03*
X657019Y318044I4987J3426D01*
G01*
X616278Y277162D02*
G03*
X629644Y279760I6885J257D01*
G01*
X632957Y276447D02*
G03*
X640099Y283588I5927J1215D01*
G01*
X620990Y231700D02*
G03*
X620990Y231700I18550J0D01*
G01*
D02*
G03*
X620990Y231700I18550J0D01*
G01*
X190011Y404325D02*
X188106Y402421D01*
X200858Y399413D02*
X195945Y404325D01*
X198496D02*
X188106Y393935D01*
X194253Y404325D02*
X188106Y398178D01*
X202350Y402163D02*
X200187Y404325D01*
X202738D02*
X188106Y389693D01*
X201642Y394743D02*
X188106Y381207D01*
X200690Y398035D02*
X188106Y385450D01*
X203834Y392693D02*
X188106Y376965D01*
X222691Y394580D02*
X204159Y376048D01*
X208069D02*
X193415D01*
X215561Y401680D02*
X212915Y404325D01*
X219709D02*
X217064Y401680D01*
X215466Y404325D02*
X212821Y401680D01*
X223952Y404325D02*
X221306Y401680D01*
X224046D02*
X221401Y404325D01*
X219804Y401680D02*
X217158Y404325D01*
X204970Y403785D02*
X204430Y404325D01*
X209750Y403248D02*
X208673Y404325D01*
X211224D02*
X209997Y403099D01*
X224637Y379876D02*
X210903Y393610D01*
X222282Y377988D02*
X208153Y392117D01*
X203009Y376048D02*
X188106Y390951D01*
X207252Y376048D02*
X188106Y395194D01*
X207366Y391982D02*
X188106Y372722D01*
X198767Y376048D02*
X188106Y386709D01*
X216577Y375208D02*
X188106Y403679D01*
X220161Y375867D02*
X191702Y404325D01*
X212335Y375208D02*
X188106Y399437D01*
X193415Y373789D02*
X188106Y368479D01*
X193415Y368672D02*
X188106Y373981D01*
X193415Y364429D02*
X188106Y369738D01*
X193415Y372914D02*
X188106Y378224D01*
X194524Y376048D02*
X188106Y382466D01*
X208069Y375231D02*
X207252Y376048D01*
X208069Y355720D02*
Y376048D01*
X193415Y352758D02*
Y376048D01*
X214206Y394580D02*
X195674Y376048D01*
X218449Y394580D02*
X199917Y376048D01*
X223262Y378968D02*
X219501Y375208D01*
X212255Y366802D02*
X208069Y370988D01*
X212255Y371415D02*
X208069Y367229D01*
X212255Y371045D02*
X208069Y375231D01*
X219501Y375208D02*
X212255D01*
Y355187D02*
Y375208D01*
X232437Y404325D02*
X229792Y401680D01*
X232532D02*
X229886Y404325D01*
X228194D02*
X225549Y401680D01*
X228289D02*
X225643Y404325D01*
X278521D02*
X188106D01*
X236774Y401680D02*
X234129Y404325D01*
X236680D02*
X234034Y401680D01*
X235670Y390056D02*
X231146Y394580D01*
X239662D02*
X235242Y390159D01*
X231682Y389801D02*
X226904Y394580D01*
X260912Y401680D02*
X211542D01*
X241267Y394580D02*
X211731D01*
X241267Y389280D02*
X237372D01*
X249502Y401680D02*
X246856Y404325D01*
X253650D02*
X251005Y401680D01*
X249408Y404325D02*
X246762Y401680D01*
X257893Y404325D02*
X255247Y401680D01*
X257987D02*
X255342Y404325D01*
X253745Y401680D02*
X251099Y404325D01*
X240922D02*
X238277Y401680D01*
X241017D02*
X238371Y404325D01*
X240832Y393380D02*
X239632Y394580D01*
X245165Y404325D02*
X242519Y401680D01*
X245259D02*
X242614Y404325D01*
X228593Y380163D02*
X214176Y394580D01*
X228035Y384963D02*
X218418Y394580D01*
X226934D02*
X208069Y375715D01*
X235419Y394580D02*
X216047Y375208D01*
X229279Y387962D02*
X222661Y394580D01*
X231177D02*
X208069Y371472D01*
X228111Y383029D02*
X225114Y380032D01*
X227811Y372062D02*
X225229Y369480D01*
X228555Y370745D02*
X225229Y367419D01*
X229562Y380163D02*
X226134D01*
X228771Y367257D02*
X225888Y370140D01*
X240689Y389280D02*
X235389Y394580D01*
X240683Y391358D02*
X238605Y389280D01*
X228955Y372062D02*
X227811D01*
X228754Y371516D02*
X228208Y372062D01*
X254255Y355187D02*
Y369640D01*
X250069Y355187D02*
Y369803D01*
X193415Y365303D02*
X188106Y359994D01*
X193415Y360186D02*
X188106Y365496D01*
X193415Y361061D02*
X188106Y355751D01*
X193415Y355944D02*
X188106Y361253D01*
X193415Y369546D02*
X188106Y364237D01*
X198787Y346329D02*
X188106Y357010D01*
X193415Y356818D02*
X188106Y351509D01*
X197138Y352758D02*
X193415D01*
X193597D02*
X188106Y347266D01*
X197214Y352145D02*
X196601Y352758D01*
X212255Y358317D02*
X208069Y362503D01*
X212255Y362930D02*
X208069Y358744D01*
X212255Y362560D02*
X208069Y366746D01*
X212255Y367173D02*
X208069Y362987D01*
X225229Y355187D02*
Y369480D01*
X212255Y358688D02*
X209093Y355525D01*
X212255Y355187D02*
X210128D01*
X211142D02*
X208069Y358260D01*
X197216Y352134D02*
X188106Y343024D01*
X201423Y335208D02*
X188106Y348525D01*
X198714Y349389D02*
X188106Y338781D01*
X205666Y335208D02*
X188106Y352768D01*
X198969Y345402D02*
X188106Y334538D01*
X197180Y335208D02*
X188106Y344282D01*
X194255Y333891D02*
X188106Y340040D01*
X207229Y335208D02*
X194255D01*
X205566Y339270D02*
X201503Y335208D01*
X202521Y340469D02*
X197260Y335208D01*
X215625Y345087D02*
X214650Y344112D01*
X222837Y339250D02*
X216999Y345087D01*
X224958Y341371D02*
X221242Y345087D01*
X227314Y343258D02*
X225485Y345087D01*
X224111D02*
X214231Y335208D01*
X214151D02*
X209759Y339600D01*
X218394Y335208D02*
X212453Y341148D01*
X210382Y339844D02*
X205746Y335208D01*
X220715Y337129D02*
X214348Y343496D01*
X225873Y342286D02*
X218794Y335208D01*
X212255D01*
X228914Y366862D02*
X225229Y363176D01*
X235415Y360613D02*
X233160Y362868D01*
X230643Y364348D02*
X225229Y358934D01*
X233347Y362809D02*
X225725Y355187D01*
X235415Y356370D02*
X225229Y366556D01*
X232355Y355187D02*
X225229Y362313D01*
X235415Y355187D02*
X225229D01*
X228113D02*
X225229Y358071D01*
X235415Y360634D02*
X229968Y355187D01*
X235415D02*
Y362523D01*
Y356392D02*
X234210Y355187D01*
X254255Y358743D02*
X250069Y362929D01*
X252613Y369347D02*
X250069Y366803D01*
X254255Y362986D02*
X250069Y367172D01*
X254255Y367229D02*
X252136Y369348D01*
X254255Y366746D02*
X250069Y362560D01*
X253568Y355187D02*
X250069Y358687D01*
X254255Y355187D02*
X250069D01*
X241479Y345087D02*
X237349D01*
X254255Y362504D02*
X250069Y358318D01*
X254255Y358261D02*
X251181Y355187D01*
X279369Y345087D02*
X251579D01*
X230669Y344146D02*
X229727Y345087D01*
X228353D02*
X218474Y335208D01*
X240564Y342736D02*
X238213Y345087D01*
X241081D02*
X239426Y343433D01*
X230150Y343619D02*
X229090D01*
X232071Y345087D02*
X215008D01*
X241479Y344115D02*
Y345087D01*
X253809D02*
X252345Y343623D01*
X258052Y345087D02*
X253546Y340582D01*
X266537Y345087D02*
X256657Y335208D01*
X265063D02*
X255183Y345087D01*
X254255Y333288D02*
X252146Y335396D01*
X260820Y335208D02*
X252174Y343853D01*
X267229Y335208D02*
X254255D01*
X256577D02*
X253479Y338306D01*
X321390Y472066D02*
X314274Y464949D01*
X319409Y470626D02*
X315714Y466931D01*
X312642Y462702D01*
X324589Y453872D02*
X313953Y464508D01*
X335916Y478106D02*
X308234Y450424D01*
X330285Y476718D02*
X309622Y456055D01*
X340556Y478504D02*
X307836Y445784D01*
X308654Y453075D02*
X307836Y447913D01*
X310269Y458046D02*
X308654Y453075D01*
X307836Y445300D02*
Y447913D01*
X312642Y462702D02*
X310269Y458046D01*
X323347Y450872D02*
X312262Y461957D01*
X322606Y447370D02*
X310830Y459146D01*
X333265Y477686D02*
X328294Y476071D01*
X338427Y478504D02*
X333265Y477686D01*
X328294Y476071D02*
X323638Y473698D01*
X340091Y463826D02*
X327997Y475920D01*
X343653Y478504D02*
X338427D01*
X344668Y463492D02*
X331158Y477002D01*
X328230Y458717D02*
X317865Y469082D01*
X323638Y473698D02*
X319409Y470626D01*
X326232Y456472D02*
X315743Y466960D01*
X333282Y462150D02*
X322535Y472897D01*
X336411Y463263D02*
X325187Y474488D01*
X330574Y460615D02*
X320077Y471112D01*
X322672Y447891D02*
X307836Y433056D01*
X324797Y454259D02*
X307836Y437299D01*
Y418127D02*
Y445300D01*
X322573Y443550D02*
X307836Y428813D01*
X330149Y422857D02*
X307836Y445169D01*
X344642Y478347D02*
X307836Y441541D01*
X325906Y422857D02*
X307836Y440926D01*
X313445Y422590D02*
X307836Y428199D01*
X317421Y422857D02*
X307836Y432441D01*
X311130Y420662D02*
X307836Y423956D01*
X321663Y422857D02*
X307836Y436684D01*
X323264Y439998D02*
X307836Y424571D01*
X324470Y436961D02*
X307836Y420328D01*
X324411Y437080D02*
X308621Y452869D01*
X322619Y443114D02*
X309636Y456097D01*
X326081Y434330D02*
X314603Y422852D01*
X334391Y422857D02*
X308041Y449207D01*
X330365Y430129D02*
X323093Y422857D01*
X328051Y432057D02*
X318850Y422857D01*
X336133Y427411D02*
X331578Y422857D01*
X338634D02*
X332820Y428671D01*
X333042Y428563D02*
X327336Y422857D01*
X342877D02*
X338854Y426879D01*
X344234Y427027D02*
X340064Y422857D01*
X339759Y426794D02*
X335821Y422857D01*
X351571Y476791D02*
X338449Y463668D01*
X348815Y477686D02*
X343653Y478504D01*
X348305Y477767D02*
X332081Y461543D01*
X352574Y459828D02*
X334518Y477885D01*
X373684Y451446D02*
X347186Y477944D01*
X353786Y476071D02*
X348815Y477686D01*
X374244Y446644D02*
X342384Y478504D01*
X354653Y475630D02*
X342790Y463767D01*
X358442Y473698D02*
X353786Y476071D01*
X357463Y474197D02*
X346342Y463076D01*
X360044Y472535D02*
X349379Y461870D01*
X362501Y470750D02*
X352010Y460259D01*
X372044Y457329D02*
X353069Y476304D01*
X362671Y470626D02*
X358442Y473698D01*
X366366Y466931D02*
X362671Y470626D01*
X364645Y468652D02*
X354283Y458289D01*
X366703Y466467D02*
X356211Y455975D01*
X369438Y462703D02*
X366366Y466931D01*
X368489Y464010D02*
X357777Y453298D01*
X370109Y461387D02*
X358929Y450207D01*
X371811Y458046D02*
X369438Y462703D01*
X371541Y458577D02*
X359546Y446581D01*
X373426Y453075D02*
X371811Y458046D01*
X374244Y447913D02*
X373426Y453075D01*
X374244Y445300D02*
Y447913D01*
X374156Y448464D02*
X348549Y422857D01*
X374244Y442401D02*
X338180Y478465D01*
X374244Y438159D02*
X355569Y456834D01*
X374244Y444309D02*
X352792Y422857D01*
X351286Y429836D02*
X344306Y422857D01*
X351362D02*
X346612Y427607D01*
X347119Y422857D02*
X343110Y426866D01*
X359847Y422857D02*
X352212Y430492D01*
X364090Y422857D02*
X354457Y432490D01*
X355604Y422857D02*
X349612Y428849D01*
X373576Y452127D02*
X356504Y435054D01*
X372655Y455448D02*
X359313Y442106D01*
X374244Y425431D02*
X359003Y440671D01*
X374244Y433916D02*
X359232Y448928D01*
X374244Y429673D02*
X359566Y444351D01*
X374244Y420802D02*
Y445300D01*
X368484Y422705D02*
X356355Y434834D01*
X374244Y431581D02*
X365519Y422857D01*
X374244Y427338D02*
X369267Y422361D01*
X374244Y440066D02*
X357034Y422857D01*
X374244Y435824D02*
X361277Y422857D01*
X374244Y421188D02*
X357890Y437542D01*
X276395Y400243D02*
X272312Y404325D01*
X277568Y403313D02*
X276555Y404325D01*
X270621D02*
X265179Y398884D01*
X274863Y404325D02*
X267300Y396762D01*
X293372Y404325D02*
X286320D01*
X262136D02*
X259490Y401680D01*
X262732Y401178D02*
X259584Y404325D01*
X266378D02*
X263031Y400978D01*
X276856Y402076D02*
X269421Y394641D01*
X294656Y404384D02*
X293552Y404330D01*
X309009Y418541D02*
X307836Y419713D01*
X294918Y404450D02*
X293718Y403250D01*
X312282Y421814D02*
X307802Y417334D01*
X287591Y404325D02*
X286962Y403697D01*
X291834Y404325D02*
X290758Y403250D01*
X290358D02*
X289283Y404325D01*
X293718Y403250D02*
X287319D01*
X294160Y403691D02*
X293516Y404335D01*
X294217Y396150D02*
X287319D01*
X278323Y389829D02*
X263827Y404325D01*
X276714Y397691D02*
X271543Y392520D01*
X276791Y387271D02*
X263425Y400637D01*
X281016Y391379D02*
X268070Y404325D01*
X278424Y395158D02*
X273664Y390398D01*
X281269Y393760D02*
X275785Y388277D01*
X275022Y345087D02*
X265143Y335208D01*
X276351Y340890D02*
X272154Y345087D01*
X270779D02*
X260900Y335208D01*
X277403Y335596D02*
X267911Y345087D01*
X291595Y393528D02*
X288973Y396150D01*
X287901D02*
X283296Y391545D01*
X292144Y396150D02*
X286304Y390310D01*
X318395Y397305D02*
X311071Y389980D01*
X294217Y396150D02*
X287354Y389287D01*
X286420Y390218D02*
X282964Y393674D01*
X277728Y343756D02*
X276396Y345087D01*
X289474Y391407D02*
X286033Y394847D01*
X316356Y389980D02*
X313713Y392623D01*
X318974Y395848D02*
X317956Y396865D01*
X318474Y397024D02*
X311430Y389980D01*
X320599D02*
X315835Y394744D01*
X367458Y422857D02*
X314795D01*
X334084Y395664D02*
X328400Y389980D01*
X329841Y395664D02*
X324157Y389980D01*
X322843Y392908D02*
X319915Y389980D01*
X324842D02*
X321318Y393504D01*
X320095Y394403D02*
X315672Y389980D01*
X332366D02*
X311071D01*
X332753Y390554D02*
X328665Y394642D01*
X329084Y389980D02*
X326053Y393012D01*
X374244Y423096D02*
X371467Y420319D01*
X374372Y418982D02*
X373588Y418197D01*
X374306Y419444D02*
X374248Y420622D01*
X374743Y417042D02*
X369971Y421814D01*
X338327Y395664D02*
X335302Y392639D01*
X338487Y393305D02*
X336128Y395664D01*
X335041Y392508D02*
X331885Y395664D01*
X340831D02*
X329440D01*
X374743Y417042D02*
X374372Y418907D01*
X348547Y377925D02*
X340526Y369904D01*
X349877Y377517D02*
X340526Y368166D01*
X355170Y378567D02*
X343698Y367095D01*
X340526Y366973D02*
Y369904D01*
X343428Y367151D02*
X340601Y369978D01*
X349078Y365744D02*
X342722Y372100D01*
X351199Y367865D02*
X344843Y374221D01*
X355170Y374325D02*
X346466Y365621D01*
X355170Y376622D02*
X353875Y377917D01*
X355170Y371837D02*
Y378630D01*
X381355Y383539D02*
X378600Y380784D01*
X379234Y385660D02*
X378600Y385027D01*
Y359041D02*
Y386293D01*
X353320Y369986D02*
X346964Y376342D01*
X355170Y371837D02*
X348084Y364750D01*
X347235D01*
X355170Y372379D02*
X350067Y377482D01*
X382597Y361923D02*
X378600Y365920D01*
X379782Y360496D02*
X378600Y361677D01*
X194255Y332202D02*
X188106Y326053D01*
X194255Y329648D02*
X188106Y335797D01*
X194255Y327960D02*
X188106Y321810D01*
X194255Y325405D02*
X188106Y331555D01*
X200334Y342524D02*
X188106Y330296D01*
X212255Y332861D02*
X205898Y339218D01*
X207229Y319325D02*
Y335208D01*
X194255Y323717D02*
X188106Y317568D01*
X194255Y321163D02*
X188106Y327312D01*
X194255Y316920D02*
X188106Y323069D01*
X212255Y324747D02*
X207229Y319720D01*
X212255Y320133D02*
X207229Y325159D01*
X212255Y315891D02*
X207229Y320917D01*
X212255Y328619D02*
X207229Y333644D01*
X219868Y345087D02*
X207229Y332448D01*
X212255Y333232D02*
X207229Y328206D01*
X233886Y333650D02*
X225229Y324993D01*
X230975Y334519D02*
X225229Y328773D01*
X236255Y317071D02*
Y333794D01*
X212255Y328989D02*
X207229Y323963D01*
X212255Y320504D02*
X209153Y317402D01*
X212255Y316261D02*
X211274Y315280D01*
X212255Y324376D02*
X207229Y329402D01*
X236255Y321589D02*
X227150Y330694D01*
X236255Y317346D02*
X225229Y328372D01*
X194255Y319474D02*
X188106Y313325D01*
X194255Y313598D02*
Y335208D01*
X188106Y272182D02*
Y404325D01*
X194255Y315232D02*
X188106Y309083D01*
X212255Y314299D02*
X207229Y319325D01*
X212255Y314299D02*
Y335208D01*
X199847Y307085D02*
X188106Y318827D01*
X199940Y302750D02*
X188106Y314584D01*
X201501Y313598D02*
X194255D01*
X201106D02*
X188106Y300597D01*
X204168Y310931D02*
X201501Y313598D01*
X212957D02*
X212255Y314299D01*
X201571Y309604D02*
X197577Y313598D01*
X225229D02*
Y328773D01*
X234271Y315088D02*
X225229Y324130D01*
X232150Y312966D02*
X225229Y319887D01*
X236255Y323291D02*
X225464Y312500D01*
X236255Y319048D02*
X229707Y312500D01*
X236255Y317071D02*
X231683Y312500D01*
X215646D02*
X214548Y313598D01*
X218077D02*
X216979Y312500D01*
X214054D02*
X212957Y313598D01*
X225229D02*
X212957D01*
X228374Y312500D02*
X225229Y315644D01*
X219888Y312500D02*
X218790Y313598D01*
X262294Y345087D02*
X249229Y332022D01*
X236255Y330074D02*
X232183Y334146D01*
X254255Y329045D02*
X249813Y333487D01*
X277403Y327110D02*
X259426Y345087D01*
X277403Y331353D02*
X263668Y345087D01*
X267229Y320740D02*
Y335208D01*
X236255Y325832D02*
X229271Y332815D01*
X249229Y321593D02*
Y333226D01*
X236255Y331776D02*
X225229Y320750D01*
X254255Y324802D02*
X249229Y329828D01*
X254255Y332805D02*
X249229Y327779D01*
X254255Y328563D02*
X249229Y323537D01*
X276500Y338080D02*
X267229Y328809D01*
X277158Y342980D02*
X267229Y333051D01*
X277403Y334740D02*
X267229Y324566D01*
X290113Y334723D02*
X287503Y332112D01*
X300709Y324334D02*
X290382Y334661D01*
X297667Y323816D02*
X287503Y333981D01*
X294460Y330584D02*
X287503Y323627D01*
X292338Y332705D02*
X287503Y327869D01*
X277403Y322868D02*
X267229Y333041D01*
X295030Y322211D02*
X287503Y329738D01*
X301307Y323821D02*
X297836D01*
X254255Y320560D02*
X249229Y325586D01*
X254255Y316567D02*
Y335208D01*
X236255Y327533D02*
X225229Y316507D01*
X277403Y318625D02*
X267229Y328799D01*
X277403Y330497D02*
X267437Y320532D01*
X277403Y326255D02*
X269558Y318410D01*
X254255Y324320D02*
X250378Y320443D01*
X254255Y320077D02*
X252500Y318322D01*
X254255Y316567D02*
X249229Y321593D01*
X277403Y314382D02*
X267229Y324556D01*
X277403Y322012D02*
X271679Y316289D01*
X276680Y311288D02*
X267229Y320740D01*
X287503Y313608D02*
Y336134D01*
X294586Y314170D02*
X287503Y321253D01*
X277403Y313149D02*
Y336245D01*
X294586Y318412D02*
X287503Y325495D01*
X296581Y328462D02*
X287503Y319384D01*
X298702Y326341D02*
X287503Y315142D01*
X277403Y317770D02*
X273801Y314168D01*
X294586Y313740D02*
X287793Y306947D01*
X294586Y309927D02*
X287503Y317010D01*
X294586Y317983D02*
X288399Y311796D01*
X294586Y301971D02*
Y320571D01*
X196864Y313598D02*
X188106Y304840D01*
X199650Y303656D02*
X188106Y292112D01*
X203425Y311674D02*
X188106Y296355D01*
X231683Y312500D02*
X214054D01*
X226265Y272182D02*
X188106Y310341D01*
X203741Y299262D02*
X188106Y283627D01*
X201131Y300895D02*
X188106Y287869D01*
X206079Y297358D02*
X188106Y279384D01*
X208200Y295236D02*
X188106Y275141D01*
X219050Y284387D02*
X204325Y299111D01*
X230508Y272182D02*
X203252Y299438D01*
X222319Y313598D02*
X221222Y312500D01*
X224131D02*
X223033Y313598D01*
X227394Y279538D02*
X224031Y282901D01*
X228383D02*
X222627D01*
X228031Y276883D02*
X223330Y272182D01*
X225564Y282901D02*
X214844Y272182D01*
X255026Y274180D02*
X253027Y272182D01*
X230002Y274611D02*
X227572Y272182D01*
X210322Y293115D02*
X189389Y272182D01*
X212443Y290994D02*
X193631Y272182D01*
X205052D02*
X188106Y289128D01*
X209295Y272182D02*
X188106Y293371D01*
X217780Y272182D02*
X188106Y301856D01*
X222023Y272182D02*
X188106Y306099D01*
X213538Y272182D02*
X188106Y297614D01*
X196567Y272182D02*
X188106Y280643D01*
X200810Y272182D02*
X188106Y284886D01*
X192324Y272182D02*
X188106Y276400D01*
X216686Y286751D02*
X202116Y272182D01*
X218807Y284630D02*
X206359Y272182D01*
X214564Y288872D02*
X197874Y272182D01*
X227474Y280569D02*
X219087Y272182D01*
X246541Y274180D02*
X244542Y272182D01*
X221458Y283038D02*
X210602Y272182D01*
X250783Y274180D02*
X248785Y272182D01*
X251721D02*
X249723Y274180D01*
X247479Y272182D02*
X245480Y274180D01*
X234751Y272182D02*
X233396Y273536D01*
X238056Y274180D02*
X236057Y272182D01*
X233175Y273542D02*
X231815Y272182D01*
X242299Y274180D02*
X240300Y272182D01*
X243236D02*
X241237Y274180D01*
X238993Y272182D02*
X236995Y274180D01*
X277403Y313527D02*
X275922Y312046D01*
X294084Y297701D02*
X286421Y305364D01*
X294586Y309498D02*
X287950Y302862D01*
X294638Y301389D02*
X288220Y307808D01*
X294586Y305255D02*
X288304Y298973D01*
X284724Y274180D02*
X282726Y272182D01*
X285662D02*
X283664Y274180D01*
X281420Y272182D02*
X279421Y274180D01*
X290950D02*
X236161D01*
X311595Y297701D02*
X287839D01*
X286612Y272182D02*
X188106D01*
X294586Y305684D02*
X288365Y311905D01*
X294698Y301124D02*
X291275Y297701D01*
X289841D02*
X288352Y299190D01*
X298327Y297701D02*
X297255Y298773D01*
X296731Y298915D02*
X295517Y297701D01*
X336436Y298721D02*
X297836D01*
X300780D02*
X299760Y297701D01*
X338744Y274170D02*
X294332D01*
X271996Y274180D02*
X269998Y272182D01*
X272934D02*
X270936Y274180D01*
X268692Y272182D02*
X266693Y274180D01*
X277177Y272182D02*
X275179Y274180D01*
X280482D02*
X278483Y272182D01*
X276239Y274180D02*
X274240Y272182D01*
X259268Y274180D02*
X257270Y272182D01*
X260207D02*
X258208Y274180D01*
X255964Y272182D02*
X253965Y274180D01*
X264449Y272182D02*
X262451Y274180D01*
X267754D02*
X265755Y272182D01*
X263511Y274180D02*
X261513Y272182D01*
X288967Y274180D02*
X286956Y272169D01*
X290251Y271835D02*
X287906Y274180D01*
X293248Y274219D02*
X290763Y271733D01*
X301685Y274170D02*
X297214Y269699D01*
X305927Y274170D02*
X299902Y268144D01*
X327352Y243220D02*
X296402Y274170D01*
X288832Y272077D02*
X286792Y272177D01*
X293371Y271215D02*
X289369Y272011D01*
X296217Y270112D02*
X292236Y274093D01*
X297829Y269444D02*
X294060Y271006D01*
X297442Y274170D02*
X294214Y270942D01*
X301857Y266838D02*
X298465Y269105D01*
X311055Y297701D02*
X310035Y298721D01*
X313508D02*
X312406Y297619D01*
X317750Y298721D02*
X315001Y295972D01*
X321993Y298721D02*
X317123Y293851D01*
X305022Y298721D02*
X304003Y297701D01*
X306812D02*
X305792Y298721D01*
X302569Y297701D02*
X301550Y298721D01*
X309265D02*
X308245Y297701D01*
X344058Y316543D02*
X339686Y312171D01*
X341937Y318665D02*
X339686Y316414D01*
Y301971D02*
Y320571D01*
X346670Y313931D02*
X339665Y320936D01*
X346670Y312997D02*
X339686Y319981D01*
X346670Y308754D02*
X339686Y315739D01*
X346590Y304592D02*
X339686Y311496D01*
X346179Y314422D02*
X339686Y307929D01*
X345671Y301268D02*
X339686Y307253D01*
X346670Y310670D02*
X339686Y303686D01*
X346670Y304717D02*
Y313931D01*
X317795Y293178D02*
X314467Y296507D01*
X321028Y291970D02*
X314277Y298721D01*
X326236D02*
X319485Y291970D01*
X329514D02*
X322763Y298721D01*
X325271Y291970D02*
X318520Y298721D01*
X310170Y274170D02*
X302400Y266400D01*
X314413Y274170D02*
X304561Y264318D01*
X318655Y274170D02*
X306260Y261775D01*
X339974Y291970D02*
X319037D01*
X348226Y247801D02*
X321858Y274170D01*
X332102Y246955D02*
X304887Y274170D01*
X334721Y298721D02*
X327970Y291970D01*
X337999D02*
X331248Y298721D01*
X342749Y291463D02*
X335491Y298721D01*
X346670Y306428D02*
X332213Y291970D01*
X345673Y301188D02*
X336455Y291970D01*
X346992Y291463D02*
X338758Y299697D01*
X330478Y298721D02*
X323727Y291970D01*
X333756D02*
X327005Y298721D01*
X346715Y297987D02*
X340652Y291924D01*
X357354Y317111D02*
X356747Y316505D01*
X356770Y304717D02*
Y316023D01*
X358870Y315595D02*
X356287Y318178D01*
X358870Y313525D02*
X356770Y315625D01*
X358870Y314385D02*
X356770Y312285D01*
X358870Y305040D02*
X356770Y307140D01*
X358870Y310142D02*
X356770Y308042D01*
X358870Y309282D02*
X356770Y311382D01*
X359719Y291463D02*
X354927Y296255D01*
X358870Y305900D02*
X357108Y304138D01*
X358870Y302655D02*
Y315595D01*
X368970Y302855D02*
Y303992D01*
X371525Y300870D02*
X368970Y303425D01*
X372916Y302975D02*
X370455Y300514D01*
X373771Y303116D02*
X370634Y299979D01*
X351234Y291463D02*
X339686Y303011D01*
X348968Y295998D02*
X344433Y291463D01*
X351304Y281363D02*
X348789Y278848D01*
X362060Y291463D02*
X342180D01*
X352615Y295402D02*
X348676Y291463D01*
X374254Y255715D02*
X348606Y281363D01*
X355546D02*
X307845Y233661D01*
X359789Y281363D02*
X307852Y229426D01*
X364032Y281363D02*
X308241Y225572D01*
X364209Y281363D02*
X348179D01*
X374236Y251490D02*
X348583Y277143D01*
X374236Y247247D02*
X347034Y274450D01*
X357445Y295989D02*
X352918Y291463D01*
X359020Y293322D02*
X357161Y291463D01*
X355477D02*
X351603Y295337D01*
X382304Y297365D02*
X367787Y282849D01*
X381710Y269472D02*
X368060Y283122D01*
X374788Y259423D02*
X352849Y281363D01*
X377448Y265248D02*
X361334Y281363D01*
X379364Y267576D02*
X365428Y281512D01*
X375891Y262563D02*
X357091Y281363D01*
X303797Y265133D02*
X302284Y266505D01*
X304698Y264167D02*
X304050Y264881D01*
X306085Y262164D02*
X305032Y263739D01*
X307149Y259779D02*
X306424Y261529D01*
X307728Y257232D02*
X307358Y259090D01*
X322898Y274170D02*
X307434Y258706D01*
X329551Y245264D02*
X300645Y274170D01*
X307840Y255748D02*
X307794Y256695D01*
X307845Y230436D02*
Y255568D01*
X307864Y227843D02*
X307845Y230436D01*
X325500Y240829D02*
X307388Y258942D01*
X322495Y231107D02*
X307845Y245757D01*
X323007Y226352D02*
X307845Y241514D01*
X331383Y274170D02*
X307845Y250632D01*
X327141Y274170D02*
X307845Y254874D01*
X335045Y248255D02*
X309130Y274170D01*
X338471Y249071D02*
X313372Y274170D01*
X342601Y249184D02*
X317615Y274170D01*
X335626D02*
X307845Y246389D01*
X322966Y234877D02*
X307845Y249999D01*
X308717Y222700D02*
X307864Y227843D01*
X323424Y236513D02*
X308940Y222029D01*
X324017Y238070D02*
X307845Y254242D01*
X339380Y273682D02*
X307845Y242146D01*
X342605Y272664D02*
X307845Y237904D01*
X322501Y231347D02*
X309999Y218844D01*
X322788Y227391D02*
X311313Y215916D01*
X323714Y224074D02*
X312760Y213121D01*
X343361Y197512D02*
X307845Y233029D01*
X334226Y198162D02*
X308524Y223864D01*
X339135Y197496D02*
X307857Y228773D01*
X310361Y217754D02*
X308717Y222700D01*
X312757Y213125D02*
X310361Y217754D01*
X315847Y208926D02*
X312757Y213125D01*
X325098Y221216D02*
X314559Y210677D01*
X319553Y205261D02*
X315847Y208926D01*
X328093Y200052D02*
X310346Y217799D01*
X326862Y218738D02*
X316452Y208328D01*
X328976Y216609D02*
X318586Y206218D01*
X331438Y214828D02*
X320902Y204292D01*
X334279Y213426D02*
X323371Y202519D01*
X337572Y212477D02*
X326134Y201038D01*
X346576Y212995D02*
X332242Y198661D01*
X323787Y202220D02*
X319553Y205261D01*
X328443Y199876D02*
X323787Y202220D01*
X333407Y198288D02*
X328443Y199876D01*
X341493Y212155D02*
X329027Y199689D01*
X343772Y197514D02*
X338559Y197494D01*
X333407Y198288D01*
X374236Y238762D02*
X339170Y273829D01*
X374236Y243004D02*
X344358Y272883D01*
X373955Y226315D02*
X326100Y274170D01*
X374236Y230277D02*
X330343Y274170D01*
X377112Y264744D02*
X355131Y242764D01*
X374479Y257869D02*
X356912Y240302D01*
X374236Y234519D02*
X334586Y274170D01*
X373340Y222688D02*
X358142Y237886D01*
X372301Y219484D02*
X359524Y232261D01*
X371055Y216488D02*
X359411Y228131D01*
X374236Y253384D02*
X358314Y237461D01*
X374236Y249141D02*
X359263Y234168D01*
X374236Y240656D02*
X358745Y225164D01*
X376140Y263164D02*
X375108Y260672D01*
X377978Y266041D02*
X376480Y263799D01*
X374899Y259983D02*
X374373Y257338D01*
X380341Y268510D02*
X379472Y267722D01*
X382715Y270144D02*
X380768Y268843D01*
X379217Y267468D02*
X378311Y266467D01*
X374236Y228094D02*
X373423Y222945D01*
X374236Y228094D02*
Y230700D01*
X373423Y222945D02*
X371816Y217986D01*
X374236Y230700D02*
Y255273D01*
X374307Y256801D02*
X374241Y255453D01*
X374236Y244898D02*
X359585Y230247D01*
X347069Y198047D02*
X307845Y237271D01*
X374236Y236413D02*
X335750Y197927D01*
X374205Y227897D02*
X343832Y197523D01*
X374236Y232171D02*
X339564Y197498D01*
X350494Y198864D02*
X336692Y212667D01*
X353689Y199913D02*
X341447Y212154D01*
X348917Y198347D02*
X343772Y197514D01*
X356515Y201329D02*
X345218Y212626D01*
X359218Y202869D02*
X348410Y213677D01*
X373388Y222837D02*
X348894Y198343D01*
X366048Y208767D02*
X355604Y219211D01*
X367885Y211172D02*
X357295Y221762D01*
X363931Y206641D02*
X353560Y217012D01*
X369625Y213675D02*
X358595Y224705D01*
X371816Y217986D02*
X369455Y213339D01*
X370820Y216026D02*
X355710Y200916D01*
X361670Y204659D02*
X351170Y215160D01*
X358508Y202351D02*
X353870Y199972D01*
X348917Y198347D01*
X366397Y209117D02*
X362718Y205424D01*
X369455Y213339D02*
X366397Y209117D01*
X362718Y205424D02*
X358508Y202351D01*
X388834Y404860D02*
X386451Y405334D01*
X390675Y404730D02*
X389370Y404794D01*
X390053Y401732D02*
X386451Y405334D01*
X389858Y404770D02*
X388437Y403349D01*
X475236Y404725D02*
X427337D01*
X475128Y404655D02*
X427407D01*
X383476Y381417D02*
X378600Y376541D01*
X472982Y394556D02*
X470917Y392491D01*
X388921Y375973D02*
X378600Y386293D01*
X479030Y384378D02*
X468852Y394556D01*
X475128D02*
X468852D01*
X487690Y379866D02*
X473001Y394556D01*
X476538Y393869D02*
X473038Y390369D01*
X480650Y393738D02*
X475160Y388248D01*
X487690Y386698D02*
X480484Y393904D01*
X492740Y404655D02*
X481791D01*
X487690Y384109D02*
X478240Y393559D01*
X482771Y391617D02*
X477281Y386127D01*
X484893Y389496D02*
X479379Y383982D01*
X487014Y387374D02*
X480224Y380585D01*
X487690Y383808D02*
X480224Y376342D01*
X387719Y377175D02*
X378600Y368056D01*
X385598Y379296D02*
X378600Y372299D01*
X410251Y351240D02*
X378600Y382890D01*
X487690Y375624D02*
X479507Y383807D01*
X406008Y351240D02*
X378600Y378648D01*
X390013Y375227D02*
X378600Y363814D01*
X431464Y351240D02*
X407774Y374930D01*
X414493Y351240D02*
X390733Y375000D01*
X461162Y351240D02*
X437472Y374930D01*
X456920Y351240D02*
X433230Y374930D01*
X535784Y394556D02*
X498384Y357156D01*
X536621Y394556D02*
X498574Y356508D01*
X545107Y394556D02*
X501575Y351024D01*
X549349Y394556D02*
X503991Y349197D01*
X553592Y394556D02*
X506112Y347076D01*
X557835Y394556D02*
X508233Y344954D01*
X487690Y371381D02*
X480224Y378847D01*
Y373150D02*
Y381506D01*
X487690Y375323D02*
X482551Y370184D01*
X487690Y379566D02*
X480804Y372679D01*
X487690Y358549D02*
Y386698D01*
X540864Y394556D02*
X497549Y351240D01*
X585872Y404725D02*
X481683D01*
X592468Y372669D02*
X570582Y394556D01*
X587788Y368864D02*
X562096Y394556D01*
X590346Y370548D02*
X566339Y394556D01*
X627257Y404655D02*
X492740D01*
X596710Y376912D02*
X579067Y394556D01*
X594589Y374791D02*
X574824Y394556D01*
X583794Y364372D02*
X553611Y394556D01*
X585225Y367184D02*
X557854Y394556D01*
X590951Y344488D02*
X540883Y394556D01*
X625166D02*
X535784D01*
X595194Y348730D02*
X549369Y394556D01*
X593072Y346609D02*
X545126Y394556D01*
X588127Y404832D02*
X586052Y404730D01*
X592734Y405708D02*
X588664Y404898D01*
X594423Y404655D02*
X593205Y405873D01*
X595520Y406785D02*
X593390Y404655D01*
X597257Y407505D02*
X593423Y405917D01*
X605196Y385397D02*
X596038Y394556D01*
X600953Y381155D02*
X587552Y394556D01*
X603074Y383276D02*
X591795Y394556D01*
X598832Y379033D02*
X583310Y394556D01*
X612989D02*
X586938Y368505D01*
X609496Y389698D02*
X588926Y369128D01*
X616095Y382014D02*
X595526Y361444D01*
X570563Y394556D02*
X514597Y338590D01*
X574805Y394556D02*
X516719Y336469D01*
X579048Y394556D02*
X518840Y334348D01*
X583290Y394556D02*
X520961Y332226D01*
X587533Y394556D02*
X523083Y330105D01*
X591776Y394556D02*
X525204Y327984D01*
X562077Y394556D02*
X510355Y342833D01*
X566320Y394556D02*
X512476Y340712D01*
X567774Y325239D02*
X517120Y375892D01*
X573980Y327517D02*
X521363Y380135D01*
X576102Y329638D02*
X523484Y382256D01*
X571859Y325396D02*
X519242Y378013D01*
X586708Y340245D02*
X534091Y392863D01*
X588830Y342366D02*
X536641Y394556D01*
X596018D02*
X527325Y325863D01*
X600261Y394556D02*
X529447Y323741D01*
X604504Y394556D02*
X531568Y321620D01*
X608746Y394556D02*
X533689Y319499D01*
X580345Y333881D02*
X527727Y386499D01*
X582466Y336003D02*
X529848Y388620D01*
X578223Y331760D02*
X525606Y384377D01*
X584587Y338124D02*
X531969Y390741D01*
X631805Y387916D02*
X569068Y325178D01*
X617997Y382593D02*
X544296Y308892D01*
X415173Y374930D02*
X392900Y352658D01*
X448434Y351240D02*
X424744Y374930D01*
X444192Y351240D02*
X420502Y374930D01*
X444871D02*
X421181Y351240D01*
X452181Y374930D02*
X391434D01*
X452677Y351240D02*
X428987Y374930D01*
X449114D02*
X425424Y351240D01*
X393959Y374930D02*
X378600Y359571D01*
X398202Y374930D02*
X385172Y361900D01*
X402445Y374930D02*
X387948Y360433D01*
X406687Y374930D02*
X389595Y357838D01*
X410930Y374930D02*
X390779Y354779D01*
X451195Y369693D02*
X445958Y374930D01*
X452354Y372776D02*
X450200Y374930D01*
X451208Y368539D02*
X433909Y351240D01*
X452719Y374293D02*
X429666Y351240D01*
X454798Y363644D02*
X442394Y351240D01*
X458722Y363325D02*
X446637Y351240D01*
X452420Y365508D02*
X438152Y351240D01*
X477407Y360797D02*
X467850Y351240D01*
X466716Y362834D02*
X455122Y351240D01*
X427901Y374930D02*
X404211Y351240D01*
X432143Y374930D02*
X408453Y351240D01*
X423658Y374930D02*
X399968Y351240D01*
X427221D02*
X403531Y374930D01*
X436386D02*
X412696Y351240D01*
X439949D02*
X416259Y374930D01*
X435706Y351240D02*
X412016Y374930D01*
X397523Y351240D02*
X378600Y370162D01*
X401765Y351240D02*
X378600Y374405D01*
X394318Y351240D02*
X389873Y355686D01*
X419415Y374930D02*
X395725Y351240D01*
X422979D02*
X399289Y374930D01*
X418736Y351240D02*
X395046Y374930D01*
X465405Y351240D02*
X441715Y374930D01*
X463680Y364041D02*
X450880Y351240D01*
X440628Y374930D02*
X416938Y351240D01*
X471071Y362946D02*
X459365Y351240D01*
X473890D02*
X460813Y364317D01*
X469647Y351240D02*
X457730Y363158D01*
X440887Y312118D02*
X433517Y319488D01*
X440887Y316706D02*
X435046Y322548D01*
X473566Y361199D02*
X463607Y351240D01*
X440887Y316361D02*
X434979Y322269D01*
X482375Y351240D02*
X470135Y363481D01*
X487690Y367138D02*
X480224Y374605D01*
X487690Y358653D02*
X482167Y364176D01*
X487690Y366838D02*
X472093Y351240D01*
X486618D02*
X477109Y360750D01*
X486642Y355459D02*
X480151Y361950D01*
X478133Y351240D02*
X466514Y362859D01*
X488051Y351240D02*
X394318D01*
X487690Y362595D02*
X476335Y351240D01*
X487378Y358040D02*
X480578Y351240D01*
X487690Y371080D02*
X482953Y366343D01*
X487690Y362896D02*
X483064Y367522D01*
X601558Y355094D02*
X595450Y361202D01*
X599436Y352973D02*
X593770Y358639D01*
X486908Y353328D02*
X484821Y351240D01*
X500270D02*
X497315D01*
X499346D02*
X498116Y352470D01*
X511413Y317985D02*
X499670Y329728D01*
X562193Y318092D02*
X510756Y369528D01*
X511420Y317953D02*
X499664Y329709D01*
X500581Y328817D02*
X498561Y326796D01*
X502703Y326696D02*
X499715Y323708D01*
X504824Y324574D02*
X500870Y320621D01*
X506945Y322453D02*
X502025Y317533D01*
X509067Y320332D02*
X503180Y314445D01*
X511188Y318211D02*
X504335Y311357D01*
X562693Y321834D02*
X512878Y371650D01*
X564637Y324133D02*
X514999Y373771D01*
X583955Y361279D02*
X537932Y315256D01*
X584340Y365907D02*
X535811Y317377D01*
X611484Y365020D02*
X570997Y324533D01*
X585607Y358688D02*
X540053Y313135D01*
X523719Y318014D02*
X523121Y317416D01*
X597315Y350852D02*
X590958Y357209D01*
X588388Y357227D02*
X542175Y311013D01*
X622104Y473754D02*
X617867Y470676D01*
X626770Y476131D02*
X622104Y473754D01*
X626592Y476041D02*
X608799Y458248D01*
X617867Y470676D02*
X614164Y466973D01*
X630770Y461646D02*
X620111Y472306D01*
X633739Y462920D02*
X622635Y474025D01*
X628196Y459977D02*
X617682Y470491D01*
X611086Y462737D02*
X608709Y458071D01*
X614164Y466973D02*
X611086Y462737D01*
X608709Y458071D02*
X607091Y453091D01*
X624103Y455586D02*
X613555Y466134D01*
X625977Y457954D02*
X615561Y468370D01*
X622596Y452850D02*
X611769Y463677D01*
X636922Y478569D02*
X631750Y477749D01*
X642159Y478569D02*
X636922D01*
X631750Y477749D02*
X626770Y476131D01*
X647331Y477749D02*
X642159Y478569D01*
X652311Y476131D02*
X647331Y477749D01*
X647186Y462201D02*
X631665Y477722D01*
X637200Y463702D02*
X625445Y475457D01*
X641386Y463758D02*
X628463Y476682D01*
X648979Y477214D02*
X635067Y463303D01*
X652181Y476174D02*
X639854Y463847D01*
X656977Y473754D02*
X652311Y476131D01*
X655007Y474757D02*
X643641Y463391D01*
X620993Y444986D02*
X606272Y430265D01*
X621538Y449773D02*
X606272Y434507D01*
Y418841D02*
Y445300D01*
X621449Y441199D02*
X606272Y426022D01*
X622489Y437996D02*
X606272Y421779D01*
X645553Y478031D02*
X606272Y438750D01*
X623963Y435228D02*
X606147Y417412D01*
X625807Y432830D02*
X597633Y404655D01*
X624121D02*
X606272Y422505D01*
X619879Y404655D02*
X606249Y418285D01*
X627998Y430778D02*
X601876Y404655D01*
X630542Y429079D02*
X606118Y404655D01*
X628526Y404494D02*
X606272Y426748D01*
X621002Y445959D02*
X608770Y458191D01*
X621516Y449687D02*
X610202Y461001D01*
X621429Y441289D02*
X607713Y455005D01*
X637605Y478569D02*
X606272Y447235D01*
X632693Y477899D02*
X606941Y452148D01*
X641848Y478569D02*
X606272Y442993D01*
Y445300D02*
Y447918D01*
X607091Y453091D02*
X606272Y447918D01*
X633475Y427770D02*
X610361Y404655D01*
X640998Y426807D02*
X618846Y404655D01*
X646565Y428131D02*
X623089Y404655D01*
X636889Y426940D02*
X614604Y404655D01*
X657712Y473220D02*
X646844Y462352D01*
X668130Y462470D02*
X656710Y473890D01*
X671375Y454982D02*
X649223Y477135D01*
X660169Y471435D02*
X649612Y460877D01*
X672913Y444959D02*
X639304Y478569D01*
X672548Y449567D02*
X643807Y478308D01*
X672913Y440717D02*
X635315Y478314D01*
X662433Y469456D02*
X652011Y459033D01*
X664555Y467335D02*
X654062Y456842D01*
X666397Y464935D02*
X655761Y454299D01*
X671876Y453442D02*
X656709Y438275D01*
X672913Y436474D02*
X656441Y452946D01*
X661213Y470676D02*
X656977Y473754D01*
X664916Y466973D02*
X661213Y470676D01*
X667994Y462737D02*
X664916Y466973D01*
X668145Y462440D02*
X657071Y451365D01*
X670372Y458071D02*
X667994Y462737D01*
X669577Y459629D02*
X657900Y447952D01*
X671990Y453091D02*
X670372Y458071D01*
X672815Y447879D02*
X671990Y453091D01*
X670835Y456644D02*
X658033Y443842D01*
X672913Y432231D02*
X657998Y447146D01*
X672873Y445139D02*
X672815Y447879D01*
X672913Y427989D02*
X657942Y442960D01*
X672506Y449830D02*
X627331Y404655D01*
X672856Y445938D02*
X630443Y403524D01*
X672913Y381320D02*
X606277Y447955D01*
X672913Y385562D02*
X606857Y451618D01*
X672913Y377077D02*
X606272Y443718D01*
X672913Y368592D02*
X606272Y435233D01*
X672913Y389805D02*
X635529Y427189D01*
X672913Y364349D02*
X606272Y430991D01*
X672913Y441752D02*
X632583Y401422D01*
X672913Y437509D02*
X634704Y399300D01*
X672913Y372834D02*
X606272Y439476D01*
X672913Y406776D02*
X649826Y429863D01*
X672913Y411018D02*
X652195Y431736D01*
X672913Y433266D02*
X636826Y397179D01*
X672913Y419503D02*
X655886Y436530D01*
X672913Y423746D02*
X657160Y439499D01*
X672913Y415261D02*
X654218Y433956D01*
X672913Y394048D02*
X640199Y426762D01*
X672913Y424781D02*
X641573Y393441D01*
X672913Y420538D02*
X643817Y391443D01*
X672913Y398290D02*
X643927Y427276D01*
X672913Y402533D02*
X647090Y428356D01*
X672913Y429024D02*
X638947Y395058D01*
X605734Y415694D02*
X605284Y414608D01*
X606172Y417537D02*
X605943Y416383D01*
X603308Y411877D02*
X601769Y410482D01*
X604944Y413972D02*
X604291Y412995D01*
X611393Y404655D02*
X603731Y412318D01*
X615636Y404655D02*
X605401Y414891D01*
X607151Y404655D02*
X601500Y410307D01*
X601343Y410150D02*
X597892Y407844D01*
X602908Y404655D02*
X598988Y408576D01*
X598666Y404655D02*
X596238Y407083D01*
X609438Y389640D02*
X604523Y394556D01*
X611030Y392291D02*
X608765Y394556D01*
X607317Y387519D02*
X600280Y394556D01*
X617231D02*
X616599Y393923D01*
X619011Y392796D02*
X617251Y394556D01*
X621474D02*
X619393Y392474D01*
X632870Y386851D02*
X625166Y394556D01*
X613715Y393849D02*
X613008Y394556D01*
X625441Y394280D02*
X621056Y389895D01*
X625883Y368953D02*
X614459Y380377D01*
X627562Y392159D02*
X620726Y385322D01*
X630572Y368506D02*
X616902Y382176D01*
X610043Y363580D02*
X603852Y369770D01*
X612300Y365566D02*
X605974Y371892D01*
X607922Y361458D02*
X601731Y367649D01*
X616326Y365782D02*
X608095Y374013D01*
X620569Y365782D02*
X610216Y376134D01*
X612327Y365584D02*
X611484Y365020D01*
X603679Y357216D02*
X597488Y363406D01*
X605800Y359337D02*
X599609Y365528D01*
X611190Y318250D02*
Y323503D01*
X612237Y318959D02*
X611190Y320006D01*
X631263Y343576D02*
X611190Y323503D01*
X623279Y367314D02*
X612337Y378256D01*
X622236Y365782D02*
X613322D01*
X612327Y365584D01*
X633422Y385290D02*
X613914Y365782D01*
X632749Y347154D02*
Y359850D01*
X615807Y319632D02*
X611563Y323876D01*
X625250Y318674D02*
X615806Y328119D01*
X621007Y318674D02*
X613684Y325997D01*
X633735Y318674D02*
X620048Y332361D01*
X629492Y318674D02*
X617927Y330240D01*
X640012Y393992D02*
X630835Y403170D01*
X672913Y386597D02*
X632688Y346372D01*
X672913Y338893D02*
X620090Y391716D01*
X672913Y334651D02*
X621143Y386420D01*
X672913Y412053D02*
X629738Y368878D01*
X672913Y407811D02*
X632260Y367157D01*
X672913Y343136D02*
X621493Y394556D01*
X635420Y383046D02*
X618157Y365782D01*
X638635Y382018D02*
X625392Y368775D01*
X672913Y382355D02*
X611190Y320632D01*
X672913Y330408D02*
X619586Y383735D01*
X672913Y378112D02*
X614440Y319639D01*
X672913Y395083D02*
X632749Y354918D01*
X672913Y390840D02*
X632749Y350676D01*
X672913Y403568D02*
X633645Y364300D01*
X672913Y416296D02*
X644845Y388228D01*
X672913Y399325D02*
X632749Y359161D01*
X672913Y326165D02*
X633023Y366056D01*
X672913Y347379D02*
X638251Y382040D01*
X672913Y321923D02*
X633470Y361366D01*
X672913Y355864D02*
X643924Y384853D01*
X672913Y360107D02*
X644846Y388173D01*
X672913Y351621D02*
X641749Y382785D01*
X672913Y361142D02*
X630446Y318674D01*
X672913Y313437D02*
X632749Y353602D01*
X672913Y309195D02*
X632749Y349359D01*
X672913Y373870D02*
X617982Y318939D01*
X672913Y369627D02*
X621961Y318674D01*
X672913Y365384D02*
X626203Y318674D01*
X642220D02*
X624291Y336604D01*
X646463Y318674D02*
X626412Y338725D01*
X637977Y318674D02*
X622169Y334482D01*
X654575Y318674D02*
X618422D01*
X650705D02*
X628534Y340846D01*
X654963Y318659D02*
X630655Y342968D01*
X672913Y348414D02*
X643174Y318674D01*
X672913Y344171D02*
X647416Y318674D01*
X672913Y339928D02*
X651659Y318674D01*
X672913Y356899D02*
X634688Y318674D01*
X672913Y352656D02*
X638931Y318674D01*
X672913Y317680D02*
X632749Y357844D01*
X672913Y322958D02*
X662739Y312784D01*
X672913Y335686D02*
X655760Y318533D01*
X672913Y331443D02*
X659058Y317588D01*
X672913Y327201D02*
X661477Y315764D01*
X403387Y302949D02*
X402361Y303975D01*
Y302773D02*
Y305094D01*
X403387Y303748D02*
X402382Y302742D01*
X421422Y324155D02*
X402361Y305094D01*
X421420Y323999D02*
X404873Y307452D01*
X403387Y294464D02*
X402103Y295748D01*
X414509Y296070D02*
X413487Y297092D01*
X415628Y294775D02*
X413487Y292634D01*
X429599Y317232D02*
X417300Y304933D01*
X437102Y320492D02*
X421643Y305033D01*
X428834Y317130D02*
X413487Y301782D01*
X440887Y303633D02*
X428112Y316408D01*
X440887Y307876D02*
X431074Y317689D01*
X439223Y318370D02*
X424163Y303311D01*
X418107Y305200D02*
X417506Y305801D01*
X417249Y293330D02*
X416333Y294246D01*
X440887Y315792D02*
X425547Y300452D01*
X440887Y307306D02*
X426888Y293307D01*
X384100Y292538D02*
X380788Y295850D01*
X391200Y291521D02*
Y294188D01*
X382951Y296040D02*
X335227Y248316D01*
X384100Y290051D02*
Y294732D01*
X394011Y294371D02*
X391200Y291561D01*
X403387Y288437D02*
Y303874D01*
Y295262D02*
X395423Y287298D01*
X400221Y272174D02*
X378667Y293728D01*
X397274Y293392D02*
X393302Y289419D01*
X384100Y292946D02*
X340393Y249239D01*
X402114Y287252D02*
X395776Y293589D01*
X403387Y290221D02*
X399718Y293891D01*
X400543Y284580D02*
X391200Y293923D01*
X413487Y288437D02*
Y301782D01*
X434044Y289263D02*
X425464Y297843D01*
X440536Y287013D02*
X419627Y307922D01*
X440887Y303064D02*
X429009Y291186D01*
X440887Y298821D02*
X431130Y289065D01*
X440887Y287350D02*
Y316706D01*
X417753Y288583D02*
X413487Y292849D01*
X417660Y292565D02*
X413513Y288418D01*
X440887Y294578D02*
X435350Y289041D01*
X431236Y288959D02*
X424461Y295734D01*
X508582Y300001D02*
X498300Y327494D01*
X512627Y315407D02*
X505490Y308269D01*
X440887Y299390D02*
X425991Y314286D01*
X525840Y315892D02*
X509778Y299830D01*
X584879Y291162D02*
X508635Y367407D01*
X527962Y313771D02*
X512514Y298324D01*
X584879Y291162D02*
X508635Y367407D01*
X440887Y295148D02*
X423870Y312165D01*
X440887Y311549D02*
X424766Y295428D01*
X440887Y290905D02*
X421748Y310044D01*
X515059Y313596D02*
X506644Y305181D01*
X519125Y313419D02*
X507799Y302094D01*
X562162Y318272D02*
X548539Y304649D01*
X563477Y315345D02*
X550660Y302528D01*
X565939Y313565D02*
X552781Y300407D01*
X629684Y390037D02*
X546417Y306771D01*
X568965Y312348D02*
X554902Y298285D01*
X586237Y294047D02*
X567032Y313252D01*
X530083Y311650D02*
X514124Y295691D01*
X571087Y310227D02*
X557024Y296164D01*
X532204Y309528D02*
X513511Y290835D01*
X573208Y308106D02*
X559145Y294043D01*
X575329Y305984D02*
X561266Y291921D01*
X577450Y303863D02*
X563388Y289800D01*
X573223Y281606D02*
X498640Y356189D01*
X577465Y281606D02*
X500150Y358922D01*
X571582Y281606D02*
X503142Y350046D01*
X585951Y281606D02*
X504392Y363164D01*
X585930Y285870D02*
X506514Y365285D01*
X581708Y281606D02*
X502271Y361043D01*
X536447Y305286D02*
X503336Y272174D01*
X540228D02*
X506300Y306103D01*
X534326Y307407D02*
X499093Y272174D01*
X552956D02*
X498696Y326434D01*
X548713Y272174D02*
X501231Y319657D01*
X544470Y272174D02*
X503765Y312880D01*
X557198Y272174D02*
X516093Y313280D01*
X561441Y272174D02*
X519898Y313717D01*
X538568Y303164D02*
X507578Y272174D01*
X567032Y274701D02*
X523337Y318396D01*
X579572Y301742D02*
X565509Y287679D01*
X565684Y272174D02*
X522226Y315632D01*
X540690Y301043D02*
X511821Y272174D01*
X542811Y298922D02*
X516064Y272174D01*
X535985D02*
X514376Y293784D01*
X547054Y294679D02*
X524549Y272174D01*
X549175Y292558D02*
X528792Y272174D01*
X544932Y296800D02*
X520306Y272174D01*
X400094Y282627D02*
X391200Y291521D01*
X403387Y291020D02*
X397544Y285177D01*
X415316Y286778D02*
X413487Y288607D01*
X420867Y289287D02*
X418050Y292104D01*
X400270Y283660D02*
X399666Y283056D01*
X419734Y274284D02*
X417625Y272174D01*
X419746Y290408D02*
X418053Y288715D01*
X440887Y290336D02*
X438171Y287619D01*
X421434Y272174D02*
X419530Y274079D01*
X425677Y272174D02*
X423288Y274563D01*
X420508Y274200D02*
X418483Y272174D01*
X429874Y275081D02*
X426968Y272174D01*
X445952Y274187D02*
X443939Y272174D01*
X427555Y277004D02*
X422726Y272174D01*
X384293Y288896D02*
X344349Y248952D01*
X387767Y271900D02*
X372303Y287364D01*
X386160Y286520D02*
X347666Y248026D01*
X395978Y272174D02*
X376546Y291607D01*
X400506Y272174D02*
X385143Y287537D01*
X391735Y272174D02*
X374424Y289486D01*
X384475Y270950D02*
X370182Y285243D01*
X385515Y271380D02*
X383351Y270484D01*
X388281Y284399D02*
X350524Y246642D01*
X392524Y280156D02*
X382102Y269734D01*
X388502Y272046D02*
X386204Y271589D01*
X390402Y282278D02*
X353002Y244878D01*
X396767Y275914D02*
X393027Y272174D01*
X429919D02*
X425977Y276116D01*
X394645Y278035D02*
X388656Y272046D01*
X442647Y272174D02*
X438596Y276225D01*
X442524Y275003D02*
X439696Y272174D01*
X440158Y276879D02*
X435454Y272174D01*
X400506D02*
X390390D01*
X398888Y273792D02*
X397270Y272174D01*
X390209Y272170D02*
X389038Y272113D01*
X434162Y272174D02*
X432014Y274323D01*
X438405Y272174D02*
X435958Y274621D01*
X433227Y274190D02*
X431211Y272174D01*
X462170Y290406D02*
X453487Y281723D01*
X502044Y272174D02*
X483812Y290406D01*
X497801Y272174D02*
X479570Y290406D01*
X500354D02*
X482123Y272174D01*
X503429Y290406D02*
X457677D01*
X510529Y272174D02*
X492298Y290406D01*
X506287Y272174D02*
X488055Y290406D01*
X457677D02*
X452586Y285315D01*
X457928Y290406D02*
X452672Y285150D01*
X506593Y288160D02*
X490608Y272174D01*
X511449Y288773D02*
X494851Y272174D01*
X503960Y289770D02*
X486365Y272174D01*
X519015D02*
X500783Y290406D01*
X527500Y272174D02*
X511097Y288577D01*
X514772Y272174D02*
X496540Y290406D01*
X551296Y290436D02*
X533034Y272174D01*
X553418Y288315D02*
X537277Y272174D01*
X531743D02*
X513344Y290573D01*
X555539Y286194D02*
X541520Y272174D01*
X557660Y284072D02*
X545762Y272174D01*
X523257D02*
X507464Y287968D01*
X561903Y279830D02*
X554248Y272174D01*
X559781Y281951D02*
X550005Y272174D01*
X470656Y290406D02*
X452424Y272174D01*
X468103D02*
X453774Y286503D01*
X466413Y290406D02*
X448181Y272174D01*
X474898Y290406D02*
X456667Y272174D01*
X476588D02*
X458357Y290406D01*
X472346Y272174D02*
X455896Y288624D01*
X451132Y272174D02*
X448625Y274682D01*
X455375Y272174D02*
X451213Y276337D01*
X446890Y272174D02*
X444789Y274275D01*
X589908Y272174D02*
X417625D01*
X463860D02*
X453438Y282597D01*
X459618Y272174D02*
X452922Y278871D01*
X487626Y290406D02*
X469395Y272174D01*
X489316D02*
X471085Y290406D01*
X485074Y272174D02*
X466842Y290406D01*
X493559Y272174D02*
X475327Y290406D01*
X496111D02*
X477880Y272174D01*
X491869Y290406D02*
X473637Y272174D01*
X480831D02*
X462599Y290406D01*
X483384D02*
X465152Y272174D01*
X479141Y290406D02*
X460909Y272174D01*
X566146Y275587D02*
X562733Y272174D01*
X568543Y273742D02*
X566975Y272174D01*
X564024Y277709D02*
X558490Y272174D01*
X581693Y299620D02*
X567630Y285557D01*
X583815Y297499D02*
X569752Y283436D01*
X585936Y295378D02*
X572164Y281606D01*
X584735Y289935D02*
X576407Y281606D01*
X586721Y294592D02*
X568243Y313071D01*
X587509Y284223D02*
X584892Y281606D01*
X590193D02*
X587743Y284057D01*
X585546Y286503D02*
X580649Y281606D01*
X595190D02*
X571582D01*
X590484Y282955D02*
X589135Y281606D01*
X601086Y283442D02*
X599827Y284700D01*
X604957D02*
X602923Y282666D01*
X620346Y308574D02*
X617729Y305958D01*
X624589Y308574D02*
X619851Y303836D01*
X594436Y281606D02*
X593036Y283006D01*
X596471Y284700D02*
X593377Y281606D01*
X594436D02*
X593036Y283006D01*
X608741Y284700D02*
X596310D01*
X600714D02*
X599620Y283606D01*
X597208Y283076D02*
X595920Y284364D01*
X585277Y273506D02*
X583946Y272174D01*
X569926D02*
X568234Y273866D01*
X582654Y272174D02*
X581323Y273506D01*
X586897Y272174D02*
X585565Y273506D01*
X589520D02*
X588189Y272174D01*
X591198Y272115D02*
X589808Y273506D01*
X574169Y272174D02*
X572837Y273506D01*
X576792D02*
X575461Y272174D01*
X572550Y273506D02*
X571218Y272174D01*
X595190Y273506D02*
X569904D01*
X581035D02*
X579703Y272174D01*
X578411D02*
X577080Y273506D01*
X608970Y284471D02*
X604980Y280481D01*
X611091Y282349D02*
X605705Y276963D01*
X616311Y276701D02*
X608312Y284700D01*
X616278Y277162D02*
X608741Y284700D01*
X613213Y280228D02*
X600888Y267903D01*
X593763Y273506D02*
X592227Y271971D01*
X597072Y270485D02*
X594051Y273506D01*
X615334Y278107D02*
X602895Y265668D01*
X616648Y275178D02*
X604509Y263039D01*
X628831Y308574D02*
X621972Y301715D01*
X633074Y308574D02*
X624093Y299594D01*
X637316Y308574D02*
X626214Y297472D01*
X641559Y308574D02*
X628336Y295351D01*
X645802Y308574D02*
X630457Y293230D01*
X672913Y304952D02*
X632443Y345422D01*
X650044Y308574D02*
X632579Y291109D01*
X640099Y283588D02*
X616038Y307649D01*
X632957Y276447D02*
X629644Y279760D01*
X631801Y277603D02*
X629814Y275616D01*
X651753Y308574D02*
X618422D01*
X652976Y307264D02*
X634700Y288987D01*
X655956Y306001D02*
X636821Y286866D01*
X672913Y300709D02*
X662695Y310928D01*
X672913Y310230D02*
X643829Y281146D01*
X672913Y318715D02*
X638942Y284745D01*
X673225Y290501D02*
X673224Y386999D01*
X672913Y314473D02*
X641538Y283098D01*
X672913Y287982D02*
X654524Y306371D01*
X672913Y292224D02*
X658819Y306318D01*
X672913Y305987D02*
X644924Y277999D01*
X672913Y283739D02*
X648077Y308574D01*
X672913Y296467D02*
X661326Y308054D01*
X672913Y279496D02*
X643835Y308574D01*
X672913Y297502D02*
X606167Y230756D01*
X672913Y301745D02*
X606167Y234999D01*
X672913Y293259D02*
X606517Y226864D01*
X672913Y258283D02*
X622622Y308574D01*
X672913Y262526D02*
X626864Y308574D01*
X672913Y254041D02*
X618396Y308557D01*
X631750Y248535D02*
X605204Y275080D01*
X633447Y275007D02*
X606167Y247727D01*
X638546Y250223D02*
X604070Y284700D01*
X634874Y249653D02*
X605570Y278957D01*
X672846Y228652D02*
X628472Y273026D01*
X672913Y266768D02*
X631107Y308574D01*
X672913Y284774D02*
X638351Y250212D01*
X672913Y289017D02*
X632928Y249031D01*
X672913Y271011D02*
X635350Y308574D01*
X672913Y275254D02*
X639592Y308574D01*
X672913Y231700D02*
Y444960D01*
Y245555D02*
X644014Y274455D01*
X672913Y232827D02*
X629876Y275864D01*
X672913Y280531D02*
X642409Y250027D01*
X672913Y249798D02*
X644932Y277778D01*
X672913Y276289D02*
X645790Y249166D01*
X591326Y272109D02*
X590088Y272170D01*
X594292Y271560D02*
X591863Y272043D01*
X596759Y272260D02*
X595596Y271096D01*
X600277Y271535D02*
X598445Y269702D01*
X629046Y246996D02*
X603321Y272721D01*
X629046Y246996D02*
X603321Y272721D01*
X626706Y245093D02*
X600265Y271534D01*
X597269Y270403D02*
X594981Y271351D01*
X599963Y268688D02*
X597904Y270064D01*
X601308Y267523D02*
X600389Y268355D01*
X602385Y266361D02*
X601563Y267268D01*
X604076Y263902D02*
X602717Y265935D01*
X605351Y261008D02*
X604415Y263267D01*
X606037Y257921D02*
X605560Y260319D01*
X618275Y272563D02*
X605638Y259925D01*
X620875Y270920D02*
X606161Y256206D01*
X635399Y272716D02*
X606167Y243484D01*
X624966Y270768D02*
X606167Y251970D01*
X624712Y242845D02*
X604504Y263053D01*
X606163Y256162D02*
X606103Y257384D01*
X621101Y233727D02*
X606167Y248661D01*
Y231700D02*
Y255981D01*
X623073Y240241D02*
X606112Y257202D01*
X621836Y237236D02*
X606167Y252904D01*
X621126Y229460D02*
X606167Y244419D01*
X606989Y223885D02*
X606167Y229074D01*
Y231700D01*
X621028Y232889D02*
X608224Y220085D01*
X622958Y223385D02*
X606167Y240176D01*
X622209Y238313D02*
X607183Y223287D01*
X621213Y228832D02*
X609510Y217128D01*
X608613Y218889D02*
X606989Y223885D01*
X610997Y214209D02*
X608613Y218889D01*
X614085Y209959D02*
X610997Y214209D01*
X629501Y199872D02*
X607712Y221661D01*
X622075Y225450D02*
X610942Y214318D01*
X634982Y198633D02*
X606474Y227142D01*
X623409Y222542D02*
X612714Y211847D01*
X625129Y220020D02*
X614577Y209467D01*
X621771Y203359D02*
X611199Y213931D01*
X627201Y217849D02*
X616698Y207346D01*
X629620Y216025D02*
X618981Y205386D01*
X632412Y214574D02*
X621438Y203601D01*
X617799Y206245D02*
X614085Y209959D01*
X622049Y203157D02*
X617799Y206245D01*
X626730Y200772D02*
X622049Y203157D01*
X635644Y213564D02*
X624161Y202081D01*
X631726Y199149D02*
X626730Y200772D01*
X636914Y198327D02*
X631726Y199149D01*
X643109Y249904D02*
X622447Y270566D01*
X650857Y246398D02*
X626079Y271176D01*
X638547Y271621D02*
X606167Y239242D01*
X672913Y267803D02*
X651220Y246111D01*
X672913Y241313D02*
X641842Y272384D01*
X672913Y272046D02*
X648699Y247832D01*
X672913Y237070D02*
X638348Y271635D01*
X665453Y210589D02*
X654836Y221206D01*
X672913Y263561D02*
X653391Y244039D01*
X672913Y259318D02*
X655215Y241620D01*
X672266Y224989D02*
X654239Y243016D01*
X672913Y242348D02*
X657456Y226891D01*
X672913Y229074D02*
Y231700D01*
X671364Y221648D02*
X657744Y235269D01*
X672913Y255076D02*
X656666Y238829D01*
X672913Y250833D02*
X657676Y235596D01*
X672913Y246590D02*
X658090Y231768D01*
X668838Y215690D02*
X657494Y227033D01*
X670270Y218500D02*
X658064Y230706D01*
X667238Y213046D02*
X656375Y223909D01*
X672091Y223885D02*
X670468Y218889D01*
X672913Y229074D02*
X672091Y223885D01*
X670468Y218889D02*
X668083Y214209D01*
X643554Y198547D02*
X606167Y235933D01*
X647216Y199127D02*
X631226Y215118D01*
X639531Y198327D02*
X606167Y231691D01*
X672913Y238105D02*
X633652Y198844D01*
X672913Y233862D02*
X637378Y198327D01*
X672913Y229620D02*
X641620Y198327D01*
X639473Y213150D02*
X627005Y200683D01*
X644350Y213784D02*
X630207Y199642D01*
X642167Y198327D02*
X636914D01*
X650436Y200150D02*
X637300Y213286D01*
X653481Y201348D02*
X641568Y213261D01*
X647355Y199149D02*
X642167Y198327D01*
X661296Y206260D02*
X650685Y216871D01*
X663418Y208381D02*
X652934Y218866D01*
X658842Y204472D02*
X648081Y215233D01*
X670260Y218482D02*
X652758Y200980D01*
X665453Y210589D02*
X654836Y221206D01*
X672217Y224681D02*
X646559Y199023D01*
X656291Y202780D02*
X645076Y213995D01*
X657031Y203157D02*
X652351Y200772D01*
X647355Y199149D01*
X664995Y209959D02*
X661281Y206245D01*
X668083Y214209D02*
X664995Y209959D01*
X661281Y206245D02*
X657031Y203157D01*
D60*
X202760Y347500D02*
G03*
X202762Y347612I4272J-38D01*
G01*
X252382Y375393D02*
X251663Y376113D01*
X226134D01*
X311595Y293651D02*
X242742D01*
X315705Y286920D02*
X314940Y287685D01*
Y290306D02*
X311595Y293651D01*
X314940Y287685D02*
Y290306D01*
X500270Y347190D02*
X392641D01*
X599684Y277556D02*
X569904D01*
X500270Y347190D01*
X476174Y367576D02*
Y381506D01*
X416626Y393848D02*
X415861Y394613D01*
X419253Y393848D02*
X416626D01*
X419618Y393483D02*
X419253Y393848D01*
X476174Y381506D02*
X464197Y393483D01*
X419618D01*
X226134Y376113D02*
X218742Y368721D01*
X242742Y293651D02*
Y324403D01*
Y293651D02*
X227176D01*
X200742Y320085D01*
X282424Y300400D02*
X281659Y301165D01*
X292712Y279426D02*
X291999Y280138D01*
X281659Y301165D02*
X279662D01*
X282604Y310058D02*
X282453Y310209D01*
Y339644D02*
X282302Y339795D01*
X200742Y320085D02*
Y324403D01*
X392641Y347190D02*
X383831Y356000D01*
X233800Y279230D02*
X233444Y279586D01*
D62*
X341040Y445300D02*
D03*
X639540Y231700D02*
D03*
Y445300D02*
D03*
X341040Y230700D02*
D03*
D64*
X408437Y281737D02*
D03*
X445937D02*
D03*
X433437D02*
D03*
X420937D02*
D03*
D65*
X317136Y364471D02*
D03*
Y311271D02*
D03*
D66*
X200742Y364403D02*
D03*
X218742D02*
D03*
Y324403D02*
D03*
X200742D02*
D03*
X242742Y364403D02*
D03*
X260742D02*
D03*
Y324403D02*
D03*
X242742D02*
D03*
M02*
