G04*
G04 #@! TF.GenerationSoftware,Altium Limited,Altium Designer,19.1.8 (144)*
G04*
G04 Layer_Color=65535*
%FSLAX44Y44*%
%MOMM*%
G71*
G01*
G75*
%ADD10C,0.0100*%
%ADD11C,0.4000*%
%ADD12C,0.2000*%
%ADD13C,0.2540*%
%ADD14C,0.0000*%
%ADD15C,0.1270*%
%ADD16C,0.1524*%
%ADD17C,0.5000*%
%ADD18C,0.1000*%
G36*
X569325Y360902D02*
X573295D01*
Y357092D01*
X569325D01*
Y360902D01*
D02*
G37*
G36*
X618755Y342537D02*
X617599D01*
Y348303D01*
X614625D01*
Y342904D01*
X613469D01*
Y348303D01*
X610156D01*
Y342312D01*
X609000D01*
Y349600D01*
X618755D01*
Y342537D01*
D02*
G37*
G36*
Y339211D02*
X611086Y334093D01*
X618755D01*
Y332853D01*
X609000D01*
Y334192D01*
X616655Y339295D01*
X609000D01*
Y340536D01*
X618755D01*
Y339211D01*
D02*
G37*
G36*
X568924Y344675D02*
X568910Y344562D01*
Y344435D01*
X568896Y344139D01*
X568854Y343829D01*
X568811Y343491D01*
X568741Y343181D01*
X568699Y343026D01*
X568656Y342899D01*
Y342884D01*
X568642Y342870D01*
X568600Y342786D01*
X568544Y342659D01*
X568445Y342504D01*
X568318Y342335D01*
X568149Y342151D01*
X567952Y341982D01*
X567726Y341813D01*
X567712D01*
X567698Y341799D01*
X567613Y341743D01*
X567472Y341686D01*
X567289Y341602D01*
X567078Y341531D01*
X566824Y341461D01*
X566556Y341418D01*
X566260Y341404D01*
X566246D01*
X566218D01*
X566161D01*
X566091Y341418D01*
X565992D01*
X565893Y341432D01*
X565654Y341489D01*
X565372Y341573D01*
X565076Y341686D01*
X564780Y341855D01*
X564639Y341968D01*
X564498Y342081D01*
X564484Y342095D01*
X564470Y342109D01*
X564427Y342151D01*
X564385Y342208D01*
X564329Y342278D01*
X564272Y342363D01*
X564202Y342476D01*
X564117Y342589D01*
X564047Y342729D01*
X563976Y342884D01*
X563892Y343054D01*
X563821Y343237D01*
X563765Y343448D01*
X563694Y343660D01*
X563652Y343899D01*
X563610Y344153D01*
X563596Y344125D01*
X563567Y344069D01*
X563511Y343984D01*
X563455Y343871D01*
X563300Y343618D01*
X563201Y343491D01*
X563116Y343378D01*
X563088Y343350D01*
X563018Y343279D01*
X562905Y343166D01*
X562764Y343026D01*
X562566Y342870D01*
X562355Y342687D01*
X562101Y342504D01*
X561819Y342307D01*
X559169Y340629D01*
Y342236D01*
X561199Y343519D01*
X561213D01*
X561241Y343547D01*
X561284Y343575D01*
X561340Y343618D01*
X561495Y343716D01*
X561693Y343843D01*
X561904Y343998D01*
X562130Y344153D01*
X562341Y344308D01*
X562538Y344449D01*
X562552Y344463D01*
X562609Y344506D01*
X562693Y344576D01*
X562792Y344675D01*
X563004Y344886D01*
X563102Y344999D01*
X563187Y345112D01*
X563201Y345126D01*
X563215Y345154D01*
X563243Y345210D01*
X563285Y345295D01*
X563328Y345380D01*
X563370Y345478D01*
X563441Y345704D01*
Y345718D01*
X563455Y345746D01*
Y345803D01*
X563469Y345873D01*
X563483Y345972D01*
Y346085D01*
X563497Y346240D01*
Y347903D01*
X559169D01*
Y349200D01*
X568924D01*
Y344675D01*
D02*
G37*
G36*
X562411Y338599D02*
X562397D01*
X562383D01*
X562341Y338585D01*
X562285D01*
X562158Y338557D01*
X561974Y338514D01*
X561791Y338458D01*
X561580Y338402D01*
X561382Y338303D01*
X561199Y338204D01*
X561185Y338190D01*
X561129Y338148D01*
X561030Y338077D01*
X560931Y337965D01*
X560804Y337824D01*
X560677Y337669D01*
X560551Y337457D01*
X560438Y337232D01*
Y337217D01*
X560424Y337203D01*
X560410Y337161D01*
X560396Y337119D01*
X560353Y336978D01*
X560297Y336795D01*
X560241Y336569D01*
X560198Y336315D01*
X560170Y336033D01*
X560156Y335723D01*
Y335596D01*
X560170Y335455D01*
X560184Y335286D01*
X560212Y335089D01*
X560241Y334863D01*
X560297Y334638D01*
X560367Y334426D01*
X560382Y334398D01*
X560410Y334328D01*
X560466Y334229D01*
X560522Y334102D01*
X560621Y333975D01*
X560720Y333834D01*
X560833Y333693D01*
X560974Y333581D01*
X560988Y333566D01*
X561044Y333538D01*
X561115Y333496D01*
X561227Y333439D01*
X561340Y333383D01*
X561481Y333341D01*
X561636Y333313D01*
X561805Y333298D01*
X561819D01*
X561890D01*
X561974Y333313D01*
X562087Y333327D01*
X562200Y333369D01*
X562341Y333411D01*
X562482Y333482D01*
X562609Y333581D01*
X562623Y333595D01*
X562665Y333637D01*
X562722Y333693D01*
X562806Y333792D01*
X562891Y333905D01*
X562989Y334060D01*
X563088Y334243D01*
X563173Y334454D01*
X563187Y334469D01*
X563201Y334539D01*
X563243Y334652D01*
X563257Y334722D01*
X563285Y334821D01*
X563328Y334920D01*
X563356Y335047D01*
X563398Y335187D01*
X563441Y335357D01*
X563483Y335526D01*
X563539Y335723D01*
X563596Y335949D01*
X563652Y336188D01*
Y336203D01*
X563666Y336245D01*
X563680Y336315D01*
X563708Y336400D01*
X563737Y336513D01*
X563765Y336640D01*
X563849Y336922D01*
X563948Y337232D01*
X564047Y337556D01*
X564145Y337838D01*
X564202Y337965D01*
X564258Y338077D01*
Y338092D01*
X564272Y338106D01*
X564329Y338190D01*
X564399Y338317D01*
X564512Y338458D01*
X564639Y338627D01*
X564794Y338796D01*
X564977Y338965D01*
X565174Y339106D01*
X565203Y339121D01*
X565273Y339163D01*
X565386Y339219D01*
X565527Y339276D01*
X565710Y339332D01*
X565922Y339389D01*
X566147Y339431D01*
X566387Y339445D01*
X566401D01*
X566415D01*
X566457D01*
X566514D01*
X566655Y339417D01*
X566838Y339389D01*
X567049Y339346D01*
X567289Y339276D01*
X567529Y339177D01*
X567768Y339036D01*
X567782D01*
X567797Y339022D01*
X567881Y338951D01*
X567994Y338853D01*
X568135Y338726D01*
X568290Y338557D01*
X568459Y338345D01*
X568614Y338092D01*
X568755Y337810D01*
Y337795D01*
X568769Y337767D01*
X568783Y337725D01*
X568811Y337669D01*
X568840Y337598D01*
X568868Y337500D01*
X568924Y337288D01*
X568981Y337020D01*
X569037Y336710D01*
X569079Y336386D01*
X569093Y336019D01*
Y335836D01*
X569079Y335737D01*
Y335639D01*
X569051Y335371D01*
X569009Y335075D01*
X568938Y334765D01*
X568854Y334426D01*
X568741Y334116D01*
Y334102D01*
X568727Y334074D01*
X568699Y334032D01*
X568671Y333975D01*
X568600Y333834D01*
X568473Y333651D01*
X568332Y333439D01*
X568149Y333228D01*
X567938Y333031D01*
X567698Y332847D01*
X567684D01*
X567670Y332833D01*
X567627Y332805D01*
X567585Y332777D01*
X567444Y332706D01*
X567261Y332622D01*
X567035Y332523D01*
X566767Y332453D01*
X566485Y332382D01*
X566175Y332354D01*
X566077Y333595D01*
X566091D01*
X566119D01*
X566161Y333609D01*
X566232Y333623D01*
X566387Y333665D01*
X566598Y333722D01*
X566824Y333806D01*
X567049Y333933D01*
X567261Y334088D01*
X567458Y334285D01*
X567472Y334314D01*
X567529Y334384D01*
X567613Y334525D01*
X567698Y334708D01*
X567782Y334948D01*
X567867Y335230D01*
X567923Y335582D01*
X567938Y335977D01*
Y336174D01*
X567923Y336259D01*
X567909Y336372D01*
X567881Y336625D01*
X567825Y336907D01*
X567754Y337189D01*
X567641Y337457D01*
X567571Y337570D01*
X567500Y337683D01*
X567486Y337711D01*
X567430Y337767D01*
X567331Y337852D01*
X567219Y337937D01*
X567063Y338035D01*
X566894Y338120D01*
X566697Y338176D01*
X566471Y338204D01*
X566443D01*
X566387D01*
X566288Y338190D01*
X566175Y338162D01*
X566034Y338120D01*
X565893Y338049D01*
X565752Y337965D01*
X565611Y337838D01*
X565597Y337824D01*
X565555Y337753D01*
X565513Y337697D01*
X565485Y337640D01*
X565442Y337556D01*
X565386Y337457D01*
X565344Y337330D01*
X565287Y337189D01*
X565231Y337034D01*
X565160Y336851D01*
X565104Y336654D01*
X565033Y336428D01*
X564977Y336174D01*
X564907Y335892D01*
Y335878D01*
X564893Y335822D01*
X564878Y335737D01*
X564850Y335639D01*
X564822Y335512D01*
X564780Y335357D01*
X564738Y335202D01*
X564695Y335033D01*
X564596Y334666D01*
X564498Y334314D01*
X564441Y334144D01*
X564385Y333989D01*
X564343Y333848D01*
X564286Y333736D01*
Y333722D01*
X564272Y333693D01*
X564244Y333651D01*
X564216Y333595D01*
X564131Y333439D01*
X564019Y333256D01*
X563863Y333045D01*
X563694Y332833D01*
X563497Y332636D01*
X563285Y332467D01*
X563257Y332453D01*
X563187Y332396D01*
X563060Y332340D01*
X562891Y332255D01*
X562693Y332185D01*
X562454Y332114D01*
X562186Y332072D01*
X561904Y332058D01*
X561890D01*
X561876D01*
X561833D01*
X561777D01*
X561622Y332086D01*
X561425Y332114D01*
X561199Y332171D01*
X560960Y332241D01*
X560706Y332354D01*
X560438Y332509D01*
X560424D01*
X560410Y332523D01*
X560325Y332594D01*
X560198Y332692D01*
X560057Y332833D01*
X559888Y333017D01*
X559705Y333242D01*
X559536Y333496D01*
X559381Y333792D01*
Y333806D01*
X559366Y333834D01*
X559352Y333876D01*
X559324Y333933D01*
X559296Y334017D01*
X559254Y334116D01*
X559197Y334342D01*
X559127Y334610D01*
X559056Y334934D01*
X559014Y335286D01*
X559000Y335667D01*
Y335892D01*
X559014Y336005D01*
Y336132D01*
X559028Y336273D01*
X559042Y336442D01*
X559099Y336795D01*
X559155Y337161D01*
X559254Y337528D01*
X559381Y337880D01*
Y337894D01*
X559395Y337922D01*
X559423Y337965D01*
X559451Y338021D01*
X559536Y338190D01*
X559663Y338388D01*
X559832Y338613D01*
X560029Y338853D01*
X560269Y339078D01*
X560536Y339290D01*
X560551D01*
X560579Y339318D01*
X560621Y339332D01*
X560677Y339374D01*
X560748Y339403D01*
X560833Y339445D01*
X561044Y339543D01*
X561312Y339642D01*
X561608Y339727D01*
X561946Y339783D01*
X562299Y339811D01*
X562411Y338599D01*
D02*
G37*
G36*
X568924Y323290D02*
X567768D01*
Y326504D01*
X559169D01*
Y327801D01*
X567768D01*
Y331015D01*
X568924D01*
Y323290D01*
D02*
G37*
G36*
X533768Y307637D02*
X533754Y307425D01*
X533739Y307185D01*
X533725Y306932D01*
X533697Y306692D01*
X533669Y306481D01*
Y306452D01*
X533641Y306354D01*
X533613Y306227D01*
X533570Y306058D01*
X533500Y305874D01*
X533415Y305677D01*
X533316Y305466D01*
X533204Y305282D01*
X533190Y305254D01*
X533147Y305198D01*
X533063Y305113D01*
X532964Y305000D01*
X532837Y304874D01*
X532668Y304747D01*
X532485Y304606D01*
X532273Y304493D01*
X532245Y304479D01*
X532175Y304451D01*
X532048Y304394D01*
X531879Y304338D01*
X531681Y304296D01*
X531456Y304239D01*
X531202Y304211D01*
X530934Y304197D01*
X530920D01*
X530878D01*
X530821D01*
X530723Y304211D01*
X530624Y304225D01*
X530497Y304239D01*
X530356Y304267D01*
X530201Y304296D01*
X529877Y304394D01*
X529708Y304451D01*
X529524Y304535D01*
X529341Y304634D01*
X529172Y304732D01*
X529003Y304859D01*
X528834Y305000D01*
X528820Y305014D01*
X528791Y305043D01*
X528749Y305085D01*
X528707Y305155D01*
X528636Y305240D01*
X528566Y305353D01*
X528481Y305494D01*
X528411Y305649D01*
X528326Y305832D01*
X528242Y306043D01*
X528171Y306269D01*
X528115Y306537D01*
X528058Y306819D01*
X528016Y307129D01*
X527988Y307481D01*
X527974Y307848D01*
Y310343D01*
X524012D01*
Y311640D01*
X533768D01*
Y307637D01*
D02*
G37*
G36*
Y302111D02*
X527368Y300658D01*
X527354D01*
X527325Y300644D01*
X527269Y300630D01*
X527198Y300616D01*
X527100Y300602D01*
X527001Y300574D01*
X526874Y300546D01*
X526733Y300518D01*
X526437Y300447D01*
X526099Y300376D01*
X525732Y300306D01*
X525366Y300236D01*
X525380D01*
X525436Y300222D01*
X525507Y300193D01*
X525620Y300179D01*
X525732Y300151D01*
X525873Y300109D01*
X526183Y300038D01*
X526493Y299954D01*
X526649Y299925D01*
X526790Y299883D01*
X526916Y299855D01*
X527029Y299827D01*
X527114Y299799D01*
X527170Y299785D01*
X533768Y297938D01*
Y296373D01*
X528820Y294991D01*
X528805D01*
X528735Y294963D01*
X528636Y294935D01*
X528509Y294907D01*
X528340Y294865D01*
X528157Y294808D01*
X527946Y294752D01*
X527706Y294695D01*
X527438Y294625D01*
X527170Y294569D01*
X526592Y294442D01*
X525986Y294315D01*
X525366Y294216D01*
X525380D01*
X525408Y294202D01*
X525465D01*
X525535Y294174D01*
X525620Y294160D01*
X525718Y294132D01*
X525845Y294118D01*
X525986Y294075D01*
X526296Y294005D01*
X526663Y293920D01*
X527057Y293836D01*
X527494Y293723D01*
X533768Y292200D01*
Y290889D01*
X524012Y293568D01*
Y294836D01*
X531442Y296880D01*
X531456D01*
X531484Y296895D01*
X531526Y296909D01*
X531597Y296923D01*
X531752Y296965D01*
X531935Y297007D01*
X532132Y297064D01*
X532316Y297120D01*
X532471Y297162D01*
X532541Y297176D01*
X532583Y297191D01*
X532569D01*
X532555Y297205D01*
X532471Y297219D01*
X532344Y297247D01*
X532189Y297289D01*
X532020Y297332D01*
X531822Y297388D01*
X531625Y297430D01*
X531442Y297487D01*
X524012Y299545D01*
Y300898D01*
X533768Y303450D01*
Y302111D01*
D02*
G37*
G36*
Y287788D02*
X526846Y285476D01*
X526832D01*
X526804Y285462D01*
X526761Y285448D01*
X526691Y285420D01*
X526522Y285363D01*
X526310Y285293D01*
X526071Y285222D01*
X525831Y285138D01*
X525605Y285067D01*
X525408Y285011D01*
X525436Y284997D01*
X525507Y284983D01*
X525634Y284940D01*
X525803Y284884D01*
X526028Y284813D01*
X526296Y284715D01*
X526606Y284616D01*
X526973Y284489D01*
X533768Y282149D01*
Y280415D01*
X524012D01*
Y281656D01*
X532175D01*
X524012Y284503D01*
Y285659D01*
X532316Y288479D01*
X524012D01*
Y289719D01*
X533768D01*
Y287788D01*
D02*
G37*
G36*
X523387Y307636D02*
X523373Y307425D01*
X523359Y307185D01*
X523345Y306932D01*
X523317Y306692D01*
X523289Y306481D01*
Y306452D01*
X523261Y306354D01*
X523232Y306227D01*
X523190Y306058D01*
X523120Y305874D01*
X523035Y305677D01*
X522936Y305466D01*
X522824Y305282D01*
X522809Y305254D01*
X522767Y305198D01*
X522683Y305113D01*
X522584Y305000D01*
X522457Y304873D01*
X522288Y304747D01*
X522105Y304606D01*
X521893Y304493D01*
X521865Y304479D01*
X521795Y304450D01*
X521668Y304394D01*
X521498Y304338D01*
X521301Y304296D01*
X521076Y304239D01*
X520822Y304211D01*
X520554Y304197D01*
X520540D01*
X520498D01*
X520441D01*
X520342Y304211D01*
X520244Y304225D01*
X520117Y304239D01*
X519976Y304267D01*
X519821Y304296D01*
X519497Y304394D01*
X519328Y304450D01*
X519144Y304535D01*
X518961Y304634D01*
X518792Y304732D01*
X518623Y304859D01*
X518453Y305000D01*
X518439Y305014D01*
X518411Y305043D01*
X518369Y305085D01*
X518327Y305155D01*
X518256Y305240D01*
X518186Y305353D01*
X518101Y305494D01*
X518031Y305649D01*
X517946Y305832D01*
X517862Y306043D01*
X517791Y306269D01*
X517735Y306537D01*
X517678Y306819D01*
X517636Y307129D01*
X517608Y307481D01*
X517594Y307848D01*
Y310343D01*
X513632D01*
Y311640D01*
X523387D01*
Y307636D01*
D02*
G37*
G36*
Y301208D02*
X519384D01*
Y296161D01*
X523387D01*
Y294865D01*
X513632D01*
Y296161D01*
X518228D01*
Y301208D01*
X513632D01*
Y302505D01*
X523387D01*
Y301208D01*
D02*
G37*
G36*
X257432Y407469D02*
X256093D01*
X250990Y415124D01*
Y407469D01*
X249749D01*
Y417224D01*
X251075D01*
X256192Y409556D01*
Y417224D01*
X257432D01*
Y407469D01*
D02*
G37*
G36*
X243659Y417379D02*
X243786D01*
X243913Y417365D01*
X244082Y417337D01*
X244251Y417309D01*
X244618Y417238D01*
X245041Y417126D01*
X245450Y416956D01*
X245661Y416858D01*
X245873Y416745D01*
X245887Y416731D01*
X245915Y416717D01*
X245971Y416674D01*
X246056Y416632D01*
X246140Y416562D01*
X246253Y416477D01*
X246493Y416280D01*
X246747Y416026D01*
X247029Y415716D01*
X247297Y415349D01*
X247522Y414941D01*
Y414926D01*
X247550Y414884D01*
X247578Y414828D01*
X247607Y414743D01*
X247663Y414630D01*
X247705Y414504D01*
X247762Y414348D01*
X247818Y414179D01*
X247860Y413996D01*
X247917Y413799D01*
X247973Y413573D01*
X248015Y413348D01*
X248072Y412854D01*
X248100Y412318D01*
Y412304D01*
Y412248D01*
Y412178D01*
X248086Y412065D01*
Y411938D01*
X248072Y411783D01*
X248044Y411614D01*
X248029Y411430D01*
X247959Y411022D01*
X247846Y410570D01*
X247691Y410119D01*
X247607Y409894D01*
X247494Y409668D01*
Y409654D01*
X247466Y409612D01*
X247437Y409556D01*
X247381Y409471D01*
X247325Y409372D01*
X247254Y409274D01*
X247057Y409006D01*
X246817Y408724D01*
X246535Y408428D01*
X246197Y408146D01*
X245802Y407892D01*
X245788D01*
X245760Y407864D01*
X245689Y407836D01*
X245605Y407793D01*
X245506Y407751D01*
X245393Y407709D01*
X245252Y407652D01*
X245097Y407596D01*
X244928Y407540D01*
X244745Y407483D01*
X244336Y407399D01*
X243899Y407328D01*
X243434Y407300D01*
X243293D01*
X243208Y407314D01*
X243081D01*
X242941Y407342D01*
X242785Y407356D01*
X242602Y407385D01*
X242222Y407469D01*
X241813Y407582D01*
X241390Y407751D01*
X241178Y407850D01*
X240967Y407963D01*
X240953Y407977D01*
X240925Y407991D01*
X240868Y408033D01*
X240784Y408089D01*
X240699Y408146D01*
X240600Y408230D01*
X240361Y408442D01*
X240093Y408696D01*
X239811Y409006D01*
X239557Y409358D01*
X239318Y409767D01*
Y409781D01*
X239289Y409823D01*
X239261Y409880D01*
X239233Y409964D01*
X239191Y410077D01*
X239148Y410204D01*
X239092Y410345D01*
X239050Y410500D01*
X238993Y410683D01*
X238937Y410867D01*
X238852Y411289D01*
X238796Y411726D01*
X238768Y412206D01*
Y412220D01*
Y412234D01*
Y412318D01*
X238782Y412445D01*
Y412615D01*
X238810Y412812D01*
X238838Y413052D01*
X238881Y413319D01*
X238937Y413601D01*
X238993Y413897D01*
X239078Y414207D01*
X239191Y414518D01*
X239318Y414842D01*
X239459Y415152D01*
X239642Y415462D01*
X239839Y415744D01*
X240065Y416012D01*
X240079Y416026D01*
X240121Y416068D01*
X240206Y416139D01*
X240304Y416223D01*
X240431Y416336D01*
X240586Y416449D01*
X240770Y416576D01*
X240981Y416703D01*
X241207Y416830D01*
X241460Y416956D01*
X241742Y417069D01*
X242038Y417182D01*
X242362Y417267D01*
X242701Y417337D01*
X243053Y417379D01*
X243434Y417393D01*
X243561D01*
X243659Y417379D01*
D02*
G37*
%LPC*%
G36*
X567839Y347903D02*
X564611D01*
Y344999D01*
X564625Y344830D01*
X564639Y344632D01*
X564653Y344407D01*
X564681Y344181D01*
X564723Y343956D01*
X564780Y343759D01*
X564794Y343730D01*
X564822Y343674D01*
X564864Y343589D01*
X564921Y343477D01*
X565005Y343350D01*
X565104Y343223D01*
X565231Y343096D01*
X565372Y342997D01*
X565386Y342983D01*
X565442Y342955D01*
X565527Y342913D01*
X565640Y342856D01*
X565766Y342814D01*
X565908Y342772D01*
X566077Y342743D01*
X566246Y342729D01*
X566260D01*
X566274D01*
X566359Y342743D01*
X566485Y342758D01*
X566655Y342786D01*
X566824Y342856D01*
X567021Y342941D01*
X567204Y343068D01*
X567388Y343237D01*
X567402Y343265D01*
X567458Y343336D01*
X567529Y343448D01*
X567613Y343632D01*
X567698Y343843D01*
X567768Y344125D01*
X567825Y344449D01*
X567839Y344830D01*
Y347903D01*
D02*
G37*
G36*
X532612Y310343D02*
X529130D01*
Y307721D01*
X529144Y307622D01*
Y307524D01*
X529158Y307411D01*
X529186Y307143D01*
X529243Y306847D01*
X529327Y306551D01*
X529440Y306283D01*
X529510Y306156D01*
X529595Y306058D01*
X529623Y306029D01*
X529679Y305973D01*
X529792Y305889D01*
X529933Y305790D01*
X530117Y305691D01*
X530342Y305606D01*
X530596Y305550D01*
X530892Y305522D01*
X530906D01*
X530920D01*
X530990D01*
X531117Y305536D01*
X531258Y305564D01*
X531413Y305592D01*
X531597Y305649D01*
X531766Y305733D01*
X531935Y305832D01*
X531949Y305846D01*
X532006Y305889D01*
X532076Y305959D01*
X532175Y306043D01*
X532273Y306170D01*
X532358Y306311D01*
X532443Y306466D01*
X532513Y306650D01*
Y306664D01*
X532527Y306720D01*
X532541Y306805D01*
X532569Y306917D01*
X532583Y307087D01*
X532598Y307298D01*
X532612Y307552D01*
Y310343D01*
D02*
G37*
G36*
X522231Y310343D02*
X518750D01*
Y307721D01*
X518764Y307622D01*
Y307524D01*
X518778Y307411D01*
X518806Y307143D01*
X518862Y306847D01*
X518947Y306551D01*
X519060Y306283D01*
X519130Y306156D01*
X519215Y306058D01*
X519243Y306029D01*
X519299Y305973D01*
X519412Y305888D01*
X519553Y305790D01*
X519736Y305691D01*
X519962Y305606D01*
X520216Y305550D01*
X520512Y305522D01*
X520526D01*
X520540D01*
X520610D01*
X520737Y305536D01*
X520878Y305564D01*
X521033Y305592D01*
X521217Y305649D01*
X521386Y305733D01*
X521555Y305832D01*
X521569Y305846D01*
X521625Y305888D01*
X521696Y305959D01*
X521795Y306043D01*
X521893Y306170D01*
X521978Y306311D01*
X522062Y306466D01*
X522133Y306650D01*
Y306664D01*
X522147Y306720D01*
X522161Y306805D01*
X522189Y306917D01*
X522203Y307087D01*
X522217Y307298D01*
X522231Y307552D01*
Y310343D01*
D02*
G37*
G36*
X243434Y416280D02*
X243307D01*
X243208Y416266D01*
X243081Y416252D01*
X242955Y416223D01*
X242799Y416195D01*
X242630Y416167D01*
X242264Y416054D01*
X242066Y415970D01*
X241869Y415885D01*
X241658Y415772D01*
X241460Y415645D01*
X241263Y415504D01*
X241080Y415335D01*
X241066Y415321D01*
X241037Y415293D01*
X240995Y415237D01*
X240925Y415152D01*
X240854Y415053D01*
X240770Y414926D01*
X240685Y414771D01*
X240586Y414588D01*
X240502Y414391D01*
X240403Y414151D01*
X240319Y413897D01*
X240248Y413615D01*
X240177Y413305D01*
X240135Y412953D01*
X240107Y412586D01*
X240093Y412192D01*
Y412178D01*
Y412121D01*
Y412023D01*
X240107Y411896D01*
X240121Y411755D01*
X240149Y411586D01*
X240177Y411388D01*
X240206Y411191D01*
X240319Y410740D01*
X240403Y410514D01*
X240488Y410275D01*
X240600Y410049D01*
X240727Y409823D01*
X240868Y409612D01*
X241037Y409414D01*
X241052Y409400D01*
X241080Y409372D01*
X241136Y409316D01*
X241207Y409259D01*
X241305Y409175D01*
X241418Y409090D01*
X241545Y409006D01*
X241686Y408907D01*
X241855Y408808D01*
X242038Y408724D01*
X242236Y408639D01*
X242447Y408555D01*
X242673Y408498D01*
X242898Y408442D01*
X243152Y408414D01*
X243420Y408400D01*
X243490D01*
X243561Y408414D01*
X243659D01*
X243786Y408428D01*
X243927Y408456D01*
X244097Y408484D01*
X244266Y408526D01*
X244463Y408583D01*
X244646Y408653D01*
X244858Y408724D01*
X245055Y408823D01*
X245252Y408949D01*
X245450Y409076D01*
X245647Y409231D01*
X245830Y409414D01*
X245844Y409429D01*
X245873Y409457D01*
X245915Y409527D01*
X245986Y409612D01*
X246056Y409711D01*
X246126Y409837D01*
X246211Y409992D01*
X246310Y410162D01*
X246394Y410359D01*
X246479Y410585D01*
X246549Y410824D01*
X246634Y411078D01*
X246690Y411360D01*
X246733Y411670D01*
X246761Y411994D01*
X246775Y412333D01*
Y412347D01*
Y412389D01*
Y412445D01*
Y412530D01*
X246761Y412629D01*
Y412756D01*
X246747Y412882D01*
X246719Y413037D01*
X246676Y413362D01*
X246606Y413700D01*
X246507Y414067D01*
X246366Y414405D01*
Y414419D01*
X246352Y414447D01*
X246324Y414490D01*
X246296Y414546D01*
X246197Y414715D01*
X246070Y414912D01*
X245901Y415138D01*
X245689Y415364D01*
X245450Y415589D01*
X245182Y415786D01*
X245168D01*
X245154Y415815D01*
X245111Y415829D01*
X245041Y415871D01*
X244970Y415899D01*
X244886Y415942D01*
X244674Y416040D01*
X244421Y416125D01*
X244125Y416209D01*
X243786Y416266D01*
X243434Y416280D01*
D02*
G37*
%LPD*%
D10*
X502688Y295229D02*
G03*
X502683Y295227I0J-7D01*
G01*
D11*
X459503D02*
G03*
X459498Y295229I-5J-5D01*
G01*
X485865D02*
X512843D01*
X445107Y277457D02*
Y295239D01*
X512843Y277447D02*
Y295229D01*
X445225D02*
X472203D01*
D12*
X512573Y301577D02*
G03*
X512573Y301577I-1000J0D01*
G01*
X268281Y321307D02*
G03*
X268281Y321307I-1000J0D01*
G01*
X284580Y282778D02*
Y284778D01*
X291080Y282778D02*
Y284778D01*
X263750Y282778D02*
Y284778D01*
X270250Y282778D02*
Y284778D01*
X326240Y282778D02*
Y284778D01*
X332740Y282778D02*
Y284778D01*
X311910Y282778D02*
Y284778D01*
X305410Y282778D02*
Y284778D01*
X291080Y393234D02*
Y395234D01*
X284580Y393234D02*
Y395234D01*
X263750Y393234D02*
Y395234D01*
X270250Y393234D02*
Y395234D01*
X332740Y393234D02*
Y395234D01*
X326240Y393234D02*
Y395234D01*
X305410Y393234D02*
Y395234D01*
X311910Y393234D02*
Y395234D01*
X247100Y275556D02*
X249100D01*
X247100Y282056D02*
X249100D01*
X566150Y379000D02*
Y381000D01*
X572650Y379000D02*
Y381000D01*
X591150Y379222D02*
Y381222D01*
X584650Y379222D02*
Y381222D01*
X603150Y379000D02*
Y381000D01*
X609650Y379000D02*
Y381000D01*
X664242Y298203D02*
X666242D01*
X664242Y291703D02*
X666242D01*
X664242Y306600D02*
X666242D01*
X664242Y313100D02*
X666242D01*
X664242Y366187D02*
X666242D01*
X664242Y372687D02*
X666242D01*
X664242Y336393D02*
X666242D01*
X664242Y342893D02*
X666242D01*
X664242Y357790D02*
X666242D01*
X664242Y351290D02*
X666242D01*
X664242Y381084D02*
X666242D01*
X664242Y387584D02*
X666242D01*
X664242Y402480D02*
X666242D01*
X664242Y395980D02*
X666242D01*
X628567Y298203D02*
X630567D01*
X628567Y291703D02*
X630567D01*
X628567Y313100D02*
X630567D01*
X628567Y306600D02*
X630567D01*
X646154Y327050D02*
X648155D01*
X646154Y320550D02*
X648155D01*
X628567Y336393D02*
X630567D01*
X628567Y342893D02*
X630567D01*
X628567Y351290D02*
X630567D01*
X628567Y357790D02*
X630567D01*
X628567Y372687D02*
X630567D01*
X628567Y366187D02*
X630567D01*
X628567Y381084D02*
X630567D01*
X628567Y387584D02*
X630567D01*
X546798Y387427D02*
X548798D01*
X546798Y380927D02*
X548798D01*
X409807Y360354D02*
Y362354D01*
X416307Y360354D02*
Y362354D01*
X229100Y286249D02*
Y390499D01*
X501376Y367467D02*
X507376D01*
Y361467D02*
Y367467D01*
Y307467D02*
Y313467D01*
X501376Y307467D02*
X507376D01*
X447376Y367467D02*
X453376D01*
X447376Y361467D02*
Y367467D01*
Y307467D02*
Y313467D01*
Y307467D02*
X453376D01*
X665022Y282784D02*
X667022D01*
X665022Y276284D02*
X667022D01*
X546798Y320715D02*
X548798D01*
X546798Y327215D02*
X548798D01*
X425691Y360354D02*
Y362354D01*
X432191Y360354D02*
Y362354D01*
X420059Y282056D02*
X422059D01*
X420059Y275556D02*
X422059D01*
X420059Y297109D02*
X422059D01*
X420059Y290609D02*
X422059D01*
X586819Y395097D02*
X588819D01*
X586819Y401597D02*
X588819D01*
X546798Y357321D02*
X548798D01*
X546798Y350821D02*
X548798D01*
X465250Y393259D02*
Y395258D01*
X458750Y393259D02*
Y395258D01*
X628567Y395980D02*
X630567D01*
X628567Y402481D02*
X630567D01*
X546798Y312162D02*
X548798D01*
X546798Y305662D02*
X548798D01*
X546798Y297109D02*
X548798D01*
X546798Y290609D02*
X548798D01*
X420059Y387427D02*
X422059D01*
X420059Y380927D02*
X422059D01*
X420059Y402481D02*
X422059D01*
X420059Y395980D02*
X422059D01*
X546798Y372374D02*
X548798D01*
X546798Y365874D02*
X548798D01*
X546798Y395980D02*
X548798D01*
X546798Y402481D02*
X548798D01*
X546798Y275556D02*
X548798D01*
X546798Y282056D02*
X548798D01*
X546798Y335768D02*
X548798D01*
X546798Y342268D02*
X548798D01*
X627787Y274828D02*
X629787D01*
X627787Y281328D02*
X629787D01*
D13*
X360034Y282000D02*
G03*
X360034Y282000I-9434J0D01*
G01*
X330254Y369565D02*
Y354330D01*
X340411D01*
X345489D02*
X350567D01*
X348028D01*
Y369565D01*
X345489Y367026D01*
D14*
X508149Y404123D02*
G03*
X508149Y404123I-1270J0D01*
G01*
D15*
X506546Y371927D02*
G03*
X506546Y371927I-1270J0D01*
G01*
X271750Y318374D02*
Y358374D01*
D16*
X408807Y322683D02*
G03*
X408807Y326239I-2276J1778D01*
G01*
Y322683D02*
G03*
X408807Y326239I-2276J1778D01*
G01*
X573085Y354940D02*
X578002D01*
X573085Y320904D02*
X578002D01*
X607121D02*
Y325821D01*
X602205Y354940D02*
X607121D01*
X573085Y350023D02*
Y354940D01*
Y320904D02*
Y325821D01*
X602205Y320904D02*
X607121D01*
Y350023D02*
Y354940D01*
D17*
X325000Y357000D02*
Y377000D01*
D18*
X654740Y273328D02*
Y276078D01*
Y273328D02*
X657490D01*
X599101Y401803D02*
Y404553D01*
X596351D02*
X599101D01*
X640069Y281534D02*
Y284284D01*
X637319D02*
X640069D01*
M02*
