G04*
G04 #@! TF.GenerationSoftware,Altium Limited,Altium Designer,19.1.8 (144)*
G04*
G04 Layer_Color=8421504*
%FSLAX44Y44*%
%MOMM*%
G71*
G01*
G75*
%ADD19R,0.8500X0.6000*%
%ADD20R,0.6000X0.8500*%
%ADD21R,1.9050X2.7940*%
%ADD22C,1.5240*%
%ADD23C,0.7000*%
%ADD24R,0.4000X2.0000*%
%ADD25R,0.2600X1.0800*%
%ADD26R,0.7080X0.2548*%
%ADD27R,0.2548X0.7080*%
%ADD28R,1.7526X1.7526*%
%ADD29R,3.5000X1.2000*%
G04:AMPARAMS|DCode=30|XSize=1.2mm|YSize=3.5mm|CornerRadius=0.3mm|HoleSize=0mm|Usage=FLASHONLY|Rotation=90.000|XOffset=0mm|YOffset=0mm|HoleType=Round|Shape=RoundedRectangle|*
%AMROUNDEDRECTD30*
21,1,1.2000,2.9000,0,0,90.0*
21,1,0.6000,3.5000,0,0,90.0*
1,1,0.6000,1.4500,0.3000*
1,1,0.6000,1.4500,-0.3000*
1,1,0.6000,-1.4500,-0.3000*
1,1,0.6000,-1.4500,0.3000*
%
%ADD30ROUNDEDRECTD30*%
%ADD31R,3.0000X2.1300*%
%ADD32R,0.6000X1.9700*%
%ADD33R,2.2000X2.3000*%
G04:AMPARAMS|DCode=34|XSize=3.4mm|YSize=3.4mm|CornerRadius=0.85mm|HoleSize=0mm|Usage=FLASHONLY|Rotation=180.000|XOffset=0mm|YOffset=0mm|HoleType=Round|Shape=RoundedRectangle|*
%AMROUNDEDRECTD34*
21,1,3.4000,1.7000,0,0,180.0*
21,1,1.7000,3.4000,0,0,180.0*
1,1,1.7000,-0.8500,0.8500*
1,1,1.7000,0.8500,0.8500*
1,1,1.7000,0.8500,-0.8500*
1,1,1.7000,-0.8500,-0.8500*
%
%ADD34ROUNDEDRECTD34*%
%ADD35C,3.4000*%
%ADD36R,1.0800X0.2600*%
%ADD37R,3.7000X3.7000*%
%ADD38R,0.5588X1.3208*%
G36*
X284400Y330174D02*
Y337174D01*
X295800D01*
Y330174D01*
X284400D01*
D02*
G37*
G36*
Y339574D02*
Y346574D01*
X295800D01*
Y339574D01*
X284400D01*
D02*
G37*
G36*
X298200Y330174D02*
Y337174D01*
X309600D01*
Y330174D01*
X298200D01*
D02*
G37*
G36*
Y339574D02*
Y346574D01*
X309600D01*
Y339574D01*
X298200D01*
D02*
G37*
G36*
X489076Y349737D02*
Y325767D01*
X465107D01*
Y349737D01*
X489076D01*
D02*
G37*
D19*
X287830Y277556D02*
D03*
Y290000D02*
D03*
X267000Y277556D02*
D03*
Y290000D02*
D03*
X329490Y277556D02*
D03*
Y290000D02*
D03*
X308660D02*
D03*
Y277556D02*
D03*
X287830Y400456D02*
D03*
Y388012D02*
D03*
X267000D02*
D03*
Y400456D02*
D03*
X329490D02*
D03*
Y388012D02*
D03*
X308660D02*
D03*
Y400456D02*
D03*
X569400Y373778D02*
D03*
Y386222D02*
D03*
X587900Y386444D02*
D03*
Y374000D02*
D03*
X606400Y373778D02*
D03*
Y386222D02*
D03*
X413057Y355132D02*
D03*
Y367576D02*
D03*
X428941Y355132D02*
D03*
Y367576D02*
D03*
X462000Y400480D02*
D03*
Y388036D02*
D03*
D20*
X254322Y278806D02*
D03*
X241878D02*
D03*
X254322Y399206D02*
D03*
X241878D02*
D03*
X659020Y294953D02*
D03*
X671464D02*
D03*
Y309850D02*
D03*
X659020D02*
D03*
X671464Y369437D02*
D03*
X659020D02*
D03*
X671464Y339643D02*
D03*
X659020D02*
D03*
Y354540D02*
D03*
X671464D02*
D03*
Y384334D02*
D03*
X659020D02*
D03*
Y399230D02*
D03*
X671464D02*
D03*
X623345Y294953D02*
D03*
X635789D02*
D03*
X623345Y309850D02*
D03*
X635789D02*
D03*
X640932Y323800D02*
D03*
X653376D02*
D03*
X635789Y339643D02*
D03*
X623345D02*
D03*
X635789Y354540D02*
D03*
X623345D02*
D03*
Y369437D02*
D03*
X635789D02*
D03*
Y384334D02*
D03*
X623345D02*
D03*
X541576Y384177D02*
D03*
X554020D02*
D03*
X659800Y279534D02*
D03*
X672244D02*
D03*
X554020Y323965D02*
D03*
X541576D02*
D03*
X414837Y278806D02*
D03*
X427281D02*
D03*
X414837Y293859D02*
D03*
X427281D02*
D03*
X594041Y398347D02*
D03*
X581597D02*
D03*
X541576Y354071D02*
D03*
X554020D02*
D03*
X635789Y399230D02*
D03*
X623345D02*
D03*
X541576Y308912D02*
D03*
X554020D02*
D03*
X541576Y293859D02*
D03*
X554020D02*
D03*
X414837Y384177D02*
D03*
X427281D02*
D03*
X414837Y399230D02*
D03*
X427281D02*
D03*
X541576Y369124D02*
D03*
X554020D02*
D03*
Y399230D02*
D03*
X541576D02*
D03*
X554020Y278806D02*
D03*
X541576D02*
D03*
X554020Y339018D02*
D03*
X541576D02*
D03*
X635009Y278078D02*
D03*
X622565D02*
D03*
D21*
X338200Y319200D02*
D03*
X389000D02*
D03*
D22*
X397600Y281600D02*
D03*
X374100D02*
D03*
X350600D02*
D03*
D23*
X613040Y354770D02*
D03*
X566980Y353740D02*
D03*
X528490Y316200D02*
D03*
X518910D02*
D03*
D24*
X501879Y394123D02*
D03*
X477879D02*
D03*
X489879D02*
D03*
D25*
X487376Y365617D02*
D03*
X492376D02*
D03*
X497376D02*
D03*
X482376D02*
D03*
X477376D02*
D03*
X472376D02*
D03*
X467376D02*
D03*
X462376D02*
D03*
X457376D02*
D03*
Y309317D02*
D03*
X462376D02*
D03*
X467376D02*
D03*
X472376D02*
D03*
X477376D02*
D03*
X482376D02*
D03*
X487376D02*
D03*
X492376D02*
D03*
X497376D02*
D03*
D26*
X575895Y345422D02*
D03*
Y340422D02*
D03*
Y335422D02*
D03*
Y330422D02*
D03*
X604311D02*
D03*
Y335422D02*
D03*
Y340422D02*
D03*
Y345422D02*
D03*
D27*
X582603Y323714D02*
D03*
X587603D02*
D03*
X592603D02*
D03*
X597603D02*
D03*
Y352130D02*
D03*
X592603D02*
D03*
X587603D02*
D03*
X582603D02*
D03*
D28*
X590103Y337922D02*
D03*
D29*
X698708Y372862D02*
D03*
Y398262D02*
D03*
X700200Y305038D02*
D03*
D30*
X698708Y347462D02*
D03*
X700200Y279638D02*
D03*
D31*
X297000Y338374D02*
D03*
D32*
X277950Y363124D02*
D03*
X290650D02*
D03*
X303350D02*
D03*
X316050D02*
D03*
Y313624D02*
D03*
X303350D02*
D03*
X290650D02*
D03*
X277950D02*
D03*
D33*
X387500Y367200D02*
D03*
X338500D02*
D03*
D34*
X248100Y360249D02*
D03*
D35*
Y311249D02*
D03*
D36*
X449226Y352467D02*
D03*
Y347467D02*
D03*
Y342467D02*
D03*
Y337467D02*
D03*
Y332467D02*
D03*
Y327467D02*
D03*
Y322467D02*
D03*
Y317467D02*
D03*
X505526D02*
D03*
Y322467D02*
D03*
Y327467D02*
D03*
Y332467D02*
D03*
Y337467D02*
D03*
Y342467D02*
D03*
Y347467D02*
D03*
Y352467D02*
D03*
X449226Y357467D02*
D03*
X505526D02*
D03*
D37*
X477376Y337467D02*
D03*
D38*
X411601Y312777D02*
D03*
X420999D02*
D03*
X430397D02*
D03*
Y336145D02*
D03*
X411601D02*
D03*
M02*
