G04*
G04 #@! TF.GenerationSoftware,Altium Limited,Altium Designer,21.0.9 (235)*
G04*
G04 Layer_Physical_Order=1*
G04 Layer_Color=255*
%FSLAX44Y44*%
%MOMM*%
G71*
G04*
G04 #@! TF.SameCoordinates,08F79265-EF5C-4CE5-BC12-077E6F79E2A6*
G04*
G04*
G04 #@! TF.FilePolarity,Positive*
G04*
G01*
G75*
%ADD11C,0.4000*%
%ADD12C,0.2000*%
%ADD17C,0.5000*%
%ADD19R,0.8500X0.6000*%
%ADD20R,0.6000X0.8500*%
%ADD21R,1.9050X2.7940*%
%ADD22C,1.5240*%
%ADD23C,0.7000*%
%ADD24R,0.4000X2.0000*%
%ADD25R,0.2600X1.0800*%
%ADD26R,0.7080X0.2548*%
%ADD27R,0.2548X0.7080*%
%ADD28R,1.7526X1.7526*%
%ADD29R,3.5000X1.2000*%
G04:AMPARAMS|DCode=30|XSize=1.2mm|YSize=3.5mm|CornerRadius=0.3mm|HoleSize=0mm|Usage=FLASHONLY|Rotation=90.000|XOffset=0mm|YOffset=0mm|HoleType=Round|Shape=RoundedRectangle|*
%AMROUNDEDRECTD30*
21,1,1.2000,2.9000,0,0,90.0*
21,1,0.6000,3.5000,0,0,90.0*
1,1,0.6000,1.4500,0.3000*
1,1,0.6000,1.4500,-0.3000*
1,1,0.6000,-1.4500,-0.3000*
1,1,0.6000,-1.4500,0.3000*
%
%ADD30ROUNDEDRECTD30*%
%ADD31R,3.0000X2.1300*%
%ADD32R,0.6000X1.9700*%
%ADD33R,2.2000X2.3000*%
G04:AMPARAMS|DCode=34|XSize=3.4mm|YSize=3.4mm|CornerRadius=0.85mm|HoleSize=0mm|Usage=FLASHONLY|Rotation=0.000|XOffset=0mm|YOffset=0mm|HoleType=Round|Shape=RoundedRectangle|*
%AMROUNDEDRECTD34*
21,1,3.4000,1.7000,0,0,0.0*
21,1,1.7000,3.4000,0,0,0.0*
1,1,1.7000,0.8500,-0.8500*
1,1,1.7000,-0.8500,-0.8500*
1,1,1.7000,-0.8500,0.8500*
1,1,1.7000,0.8500,0.8500*
%
%ADD34ROUNDEDRECTD34*%
%ADD35C,3.4000*%
%ADD36R,1.0800X0.2600*%
%ADD37R,3.7000X3.7000*%
%ADD38R,0.5588X1.3208*%
%ADD59C,0.1700*%
%ADD60C,0.3000*%
%ADD61R,1.8800X7.3450*%
%ADD62R,1.0000X1.0000*%
%ADD63C,1.0000*%
%ADD64C,1.5000*%
G36*
X455664Y317239D02*
X455686Y317260D01*
X468300D01*
Y306751D01*
X467226Y305677D01*
X455664Y317239D01*
D02*
G37*
G36*
X478460Y384177D02*
X478209Y384427D01*
Y400230D01*
X443990D01*
X450100Y394120D01*
Y384177D01*
X478460D01*
D02*
G37*
G36*
X364164Y400480D02*
Y399230D01*
X384970Y378424D01*
D01*
X396050Y367345D01*
X395362Y366657D01*
X401490Y360530D01*
X408330D01*
X408392Y360592D01*
Y367799D01*
X408420Y369690D01*
X396892Y381218D01*
Y400318D01*
X390075Y407136D01*
X357509D01*
X364164Y400480D01*
D02*
G37*
G36*
X288639Y391130D02*
X294499Y391130D01*
X309550Y406180D01*
X303121Y406180D01*
X288639Y391130D01*
D02*
G37*
G36*
X332130Y406510D02*
X326380D01*
Y406120D01*
X329720Y402780D01*
Y390760D01*
X337530Y398435D01*
X337812Y397891D01*
X345860Y406080D01*
X331922Y406080D01*
X332320Y406700D01*
X332130Y406510D01*
D02*
G37*
G36*
X205000Y372320D02*
X205010Y371910D01*
X210060Y366860D01*
X227800D01*
Y376630D01*
X235504Y384334D01*
X217014D01*
X205000Y372320D01*
D02*
G37*
G36*
X307764Y357394D02*
X317055Y366685D01*
X332566D01*
Y366922D01*
X325228Y374261D01*
X307764D01*
X307764Y357394D01*
D02*
G37*
D11*
X234276Y399230D02*
X228736Y393690D01*
X239816Y363897D02*
X234276Y369437D01*
X239586Y365142D02*
X235315Y369412D01*
X304880Y391762D02*
X299340Y386222D01*
X287935Y374977D02*
X282395Y369437D01*
X207032Y347462D02*
X198492Y356002D01*
X215572D02*
X207032Y347462D01*
X198492Y338922D01*
X215572D02*
X207032Y347462D01*
X246720Y339643D02*
X242449Y335372D01*
X250991D02*
X246720Y339643D01*
X241180Y334103D01*
X252260D02*
X246720Y339643D01*
X311699Y398347D02*
X306159Y392807D01*
X415861Y394613D02*
X411590Y398884D01*
X415861Y394123D02*
X411321Y398663D01*
X415861Y394613D02*
X411590Y390342D01*
X420401Y398663D02*
X415861Y394123D01*
X420132Y398884D02*
X415861Y394613D01*
X420132Y390342D02*
X415861Y394613D01*
Y394123D02*
X411321Y389584D01*
X420401D02*
X415861Y394123D01*
X326951Y355944D02*
X323137Y352130D01*
X338264Y386418D02*
X333993Y382147D01*
X342535D02*
X338264Y386418D01*
X480445Y371847D02*
X476174Y367576D01*
X482339Y373116D02*
X476799Y367576D01*
X480445Y363305D02*
X476174Y367576D01*
X482339Y362036D02*
X476799Y367576D01*
X257904Y318260D02*
X252364Y323800D01*
X257904Y329340D02*
X252364Y323800D01*
X246720Y309850D02*
X241180Y315390D01*
X252260D02*
X246720Y309850D01*
X252260Y304310D02*
X246720Y309850D01*
X269951D02*
X264411Y304310D01*
X269951Y309850D02*
X264411Y315390D01*
X275491D02*
X269951Y309850D01*
X275491Y304310D02*
X269951Y309850D01*
Y294953D02*
X264411Y300493D01*
X275491Y289413D02*
X269951Y294953D01*
X264411Y289413D01*
X368284Y293799D02*
X364013Y298070D01*
X359743Y293799D01*
X364164Y293859D02*
X358624Y288319D01*
X369704D02*
X364164Y293859D01*
Y278806D02*
X358624Y284346D01*
X364164Y278806D02*
X358624Y273266D01*
X369704Y284346D02*
X364164Y278806D01*
X369704Y273266D02*
X364164Y278806D01*
X408437Y281737D02*
X400897Y274197D01*
X415977D02*
X408437Y281737D01*
X490904Y399230D02*
X485364Y393690D01*
X496443D02*
X490904Y399230D01*
Y384177D02*
X485364Y389717D01*
X496443D02*
X490904Y384177D01*
X485364Y378637D01*
X496443D02*
X490904Y384177D01*
X531780Y380740D02*
X518240Y367200D01*
X492683Y367576D02*
X487143Y373116D01*
X498223D02*
X492683Y367576D01*
X487143Y362036D01*
X498223D02*
X492683Y367576D01*
X518240Y367200D02*
X504700Y380740D01*
X531780Y353660D02*
X518240Y367200D01*
X504700Y353660D01*
X617910Y400456D02*
X612370Y405996D01*
X618269Y400722D02*
X613998Y404992D01*
X618269Y400722D02*
X613998Y396451D01*
X622539D02*
X618269Y400722D01*
X617910Y400456D02*
X612370Y394916D01*
X623450D02*
X617910Y400456D01*
X663862Y399206D02*
X658322Y393666D01*
X669402Y404746D02*
X663862Y399206D01*
X669402Y393666D02*
X663862Y399206D01*
X615090Y363124D02*
X609550Y357584D01*
X615090Y363124D02*
X609550Y368664D01*
X620630Y357584D02*
X615090Y363124D01*
X620630Y368664D02*
X615090Y363124D01*
X496443Y288319D02*
X490903Y293859D01*
X496443Y299399D02*
X490903Y293859D01*
X485363Y288319D01*
X597080Y290000D02*
X592810Y294271D01*
X602621Y295540D02*
X597080Y290000D01*
X601352Y294271D02*
X597080Y290000D01*
X490903Y278806D02*
X485363Y284346D01*
X496443D02*
X490903Y278806D01*
X555140Y281600D02*
X547956Y288784D01*
X562324D02*
X555140Y281600D01*
X490903Y278806D02*
X485363Y273266D01*
X496443D02*
X490903Y278806D01*
X555140Y281600D02*
X547956Y274416D01*
X562324D02*
X555140Y281600D01*
X576251Y277556D02*
X570711Y283096D01*
X602621Y284460D02*
X597080Y290000D01*
X601352Y285729D02*
X597080Y290000D01*
X581791Y283096D02*
X576251Y277556D01*
X576251Y277511D02*
X571980Y281782D01*
X580522D02*
X576251Y277511D01*
X571980Y273240D01*
X580522D02*
X576251Y277511D01*
X638740Y277556D02*
X633200Y272016D01*
X644280D02*
X638740Y277556D01*
X632869Y272787D02*
X628598Y277058D01*
D12*
X627790Y287150D02*
Y313624D01*
X631540Y283400D02*
X627790Y287150D01*
X646824Y283400D02*
X631540D01*
X651418Y278806D02*
X646824Y283400D01*
X516740Y296500D02*
Y319200D01*
X357966Y376074D02*
X338344D01*
X338190Y375920D01*
X311579Y399870D02*
X291971Y380262D01*
X300740Y380849D02*
Y386222D01*
X337014Y386418D02*
X335014Y384418D01*
X291971Y380262D02*
X291483D01*
X301327D02*
X291971D01*
X284395Y372687D02*
X282395Y370687D01*
X291971Y380262D02*
X284395Y372687D01*
Y373174D01*
Y371437D02*
Y372687D01*
X282395Y369437D02*
Y370687D01*
X311699Y398347D02*
X311199Y397847D01*
X330858Y380262D02*
X301327D01*
X330828Y367650D02*
X324504Y373974D01*
X351720Y369124D02*
X350246Y367650D01*
X330828D01*
X324504Y373974D02*
X319215D01*
X324971Y386444D02*
X317840D01*
X337530Y399003D02*
Y406180D01*
Y399003D02*
X324971Y386444D01*
X276387Y349396D02*
Y389394D01*
X338264Y386418D02*
X337014D01*
X428310Y337414D02*
X413364Y322467D01*
X301327Y380262D02*
X300740Y380849D01*
X309223Y373889D02*
X308137Y372803D01*
X309308Y373974D02*
X309223Y373889D01*
X308137Y356364D02*
X306965Y355192D01*
X293123D01*
X310264Y373974D02*
X309308D01*
X308137Y356364D02*
Y372803D01*
X508328Y281788D02*
Y293956D01*
Y281788D02*
X508140Y281600D01*
X531640D02*
X516740Y296500D01*
X576251Y277556D02*
X561672D01*
X561318Y277910D01*
X274581Y347590D02*
X239976D01*
X276387Y349396D02*
X274581Y347590D01*
X293123Y355192D02*
X292700Y354770D01*
X338610Y361000D02*
X316348D01*
X338610Y353890D02*
Y361000D01*
X338760Y353740D02*
X338610Y353890D01*
X339717Y354269D02*
X339266Y353818D01*
X308137Y353466D02*
X307863Y353740D01*
X386260Y315214D02*
X380047Y309000D01*
X386260Y315214D02*
Y316200D01*
X380047Y309000D02*
X372364D01*
X378652Y316439D02*
X364164D01*
X379390Y315700D02*
X378652Y316439D01*
X252469Y375480D02*
X252382Y375393D01*
X252906Y375916D02*
X252469Y375480D01*
Y375694D01*
X269951Y399230D02*
X257561D01*
X252906Y394576D01*
Y375916D02*
Y394576D01*
X269951Y397980D02*
X267951Y395980D01*
X269951Y397980D02*
Y399230D01*
X337530Y406180D02*
X303121D01*
X289059Y392118D02*
X279112D01*
X303121Y406180D02*
X289059Y392118D01*
X282424Y294982D02*
X282395Y294953D01*
X282424Y294982D02*
Y300400D01*
X240506Y376917D02*
X234783Y371194D01*
X240506Y376917D02*
Y391751D01*
X234276Y397980D01*
X282587Y385537D02*
X282395D01*
X279112Y392118D02*
X276387Y389394D01*
X282395Y354540D02*
X276510D01*
X239976Y347590D02*
X234276Y353290D01*
X364789Y399855D02*
X364164Y399230D01*
X366035Y401101D02*
X364789Y399855D01*
X354686Y392281D02*
X347004D01*
X351865Y392749D02*
X351720Y392894D01*
Y399230D01*
X335014Y384418D02*
X335014D01*
X330858Y380262D01*
X357966Y376074D02*
Y389000D01*
X354686Y392281D01*
X347004D02*
X346270Y393014D01*
X351623Y384275D02*
X351220D01*
X351720Y384177D02*
X351623Y384275D01*
X368283Y376074D02*
X357966D01*
X369702Y376039D02*
X368318D01*
X368283Y376074D01*
X377631Y368110D02*
X369702Y376039D01*
X291483Y380262D02*
X284395Y373174D01*
Y371437D02*
X282395Y369437D01*
X400214Y311901D02*
X388024Y299711D01*
Y299337D02*
Y299711D01*
X382326Y289500D02*
X365680Y306146D01*
X364848D01*
X383008Y289500D02*
X382326D01*
X383070Y289437D02*
X383008Y289500D01*
X372740Y308624D02*
X372364Y309000D01*
X372740Y305000D02*
Y308624D01*
X428364Y337467D02*
X428310Y337414D01*
Y324000D02*
Y337414D01*
X396892Y366502D02*
X364164Y399230D01*
X448364Y284004D02*
X448120Y283760D01*
X418664Y300274D02*
Y309017D01*
X419601Y299337D02*
X418664Y300274D01*
Y309017D02*
X418364Y309317D01*
X408364Y306489D02*
Y309317D01*
Y306489D02*
X408064Y306189D01*
X405235D02*
X398488Y299442D01*
X408064Y306189D02*
X405235D01*
X398488Y299442D02*
X397311D01*
X396039Y401101D02*
X366035D01*
X396074Y401137D02*
X396039Y401101D01*
X358464Y406180D02*
X337530D01*
X457058Y378510D02*
X456931Y378637D01*
X443492D01*
X457138Y369187D02*
X451878Y374448D01*
X445408D01*
X457224Y369187D02*
X457138D01*
X443442Y365695D02*
X443364Y365617D01*
X465996Y368851D02*
X459645Y362500D01*
X448664D01*
X467349Y368851D02*
X465996D01*
X443442Y365695D02*
Y372481D01*
X445408Y374448D02*
X443442Y372481D01*
X443492Y378637D02*
X438364Y373508D01*
X452900Y386128D02*
Y400480D01*
Y386128D02*
X449109Y382337D01*
X441959D01*
X433364Y373741D01*
X448364Y362800D02*
Y365617D01*
X448664Y362500D02*
X448364Y362800D01*
X423431Y365684D02*
X423364Y365617D01*
X423431Y365684D02*
Y372493D01*
X437662Y386724D02*
X423431Y372493D01*
X443740Y388036D02*
X442427Y386724D01*
X437662D01*
X433364Y365617D02*
Y373741D01*
X438364Y365617D02*
Y373508D01*
X282420Y399700D02*
X282395Y399675D01*
Y399230D02*
Y399675D01*
X408064Y366502D02*
X396892D01*
X364164Y400480D02*
X358464Y406180D01*
X324260Y398464D02*
X324143Y398347D01*
X324260Y398464D02*
Y398790D01*
X282395Y384334D02*
Y385537D01*
X384807Y346525D02*
X383831D01*
X388864Y342467D02*
X384807Y346525D01*
X390505Y362155D02*
X368993Y383668D01*
X364674D01*
X390505Y355366D02*
Y362155D01*
X364674Y383668D02*
X364164Y384177D01*
X612440Y338374D02*
X608740D01*
X456514Y317467D02*
X448364D01*
X433877Y293137D02*
X384603D01*
X443364Y294324D02*
X438478Y289437D01*
X383070D01*
X443364Y294324D02*
Y309317D01*
X384603Y293137D02*
X372740Y305000D01*
X438364Y297624D02*
X433877Y293137D01*
X400214Y311901D02*
Y317467D01*
X207032Y398262D02*
X207003D01*
X206740Y398000D01*
X351720Y354020D02*
Y354071D01*
X351740Y354000D02*
X351720Y354020D01*
X316348Y361000D02*
X313137Y357789D01*
Y352130D02*
Y357789D01*
X400214Y342467D02*
X388864D01*
X392273Y347467D02*
X383831Y355910D01*
Y356000D01*
X393338Y352534D02*
X390505Y355366D01*
X400214Y347467D02*
X392273D01*
X400147Y352534D02*
X393338D01*
X400214Y352467D02*
X400147Y352534D01*
X408364Y366202D02*
X408064Y366502D01*
X408364Y365617D02*
Y366202D01*
X234276Y353290D02*
Y354540D01*
Y397980D02*
Y399230D01*
X369616Y369124D02*
X364164D01*
X373931Y364810D02*
X369616Y369124D01*
X359668Y331342D02*
X357831Y333179D01*
X379378Y327467D02*
X370231Y336615D01*
X380969Y332467D02*
X373931Y339505D01*
X364164Y352821D02*
X357831Y346488D01*
X377631Y341822D02*
Y368110D01*
X381985Y337467D02*
X377631Y341822D01*
X357831Y333179D02*
Y346488D01*
X370231Y336615D02*
Y359073D01*
X373931Y339505D02*
Y364810D01*
X370231Y359073D02*
X367588Y361716D01*
X368966Y331342D02*
X359668D01*
X377841Y322467D02*
X368966Y331342D01*
X400214Y322467D02*
X377841D01*
X400214Y332467D02*
X380969D01*
X400214Y337467D02*
X381985D01*
X400214Y327467D02*
X379378D01*
X367588Y361716D02*
X357879D01*
X364164Y352821D02*
Y354071D01*
X357879Y361716D02*
X351720Y367874D01*
Y369124D01*
X301437Y311271D02*
Y330414D01*
X301429Y330422D01*
X329959Y311434D02*
Y330308D01*
X329845Y330422D01*
X239260Y287464D02*
X229482D01*
X245940Y280784D02*
X239260Y287464D01*
X229482D02*
X226540Y290407D01*
Y300424D01*
X232276Y306161D02*
Y307850D01*
Y306161D02*
X226540Y300424D01*
X234276Y309850D02*
X232276Y307850D01*
X245940Y279534D02*
Y280784D01*
X438364Y297624D02*
Y309317D01*
X448364Y284004D02*
Y309317D01*
X445937Y281737D02*
Y283902D01*
X413364Y309317D02*
Y322467D01*
X448364Y317467D02*
X428364Y337467D01*
X408364Y357467D01*
X400214D01*
X428364Y337467D02*
Y365617D01*
X403861Y386124D02*
Y394123D01*
X413364Y365617D02*
Y376621D01*
X403861Y386124D01*
X427861D02*
X418364Y376626D01*
Y365617D02*
Y376626D01*
X427861Y386124D02*
Y394123D01*
D17*
X576440Y297800D02*
X566082D01*
X555140Y281600D02*
Y286858D01*
X566082Y297800D02*
X555140Y286858D01*
X582340Y303700D02*
X576440Y297800D01*
X582340Y303700D02*
Y325800D01*
X589690Y300110D02*
X579581Y290000D01*
X589690Y300110D02*
Y313624D01*
X579581Y290000D02*
X576251D01*
X594940Y338400D02*
X582340Y325800D01*
X598040Y338400D02*
X594940D01*
X598066Y338374D02*
X598040Y338400D01*
X608740Y338374D02*
X598066D01*
X629984Y277556D02*
X629540Y278000D01*
X628598Y277058D01*
Y277058D02*
Y277058D01*
X638740Y277556D02*
X629984D01*
X577501D02*
X576251D01*
X597080Y290000D02*
X594640D01*
X582151Y277511D01*
X576251D01*
X638740Y290000D02*
X638640Y289900D01*
X638740Y290000D02*
Y290000D01*
X597080Y277556D02*
X597061Y277576D01*
X596982D01*
X617910Y277556D02*
X599684D01*
X597080D01*
X617910Y290000D02*
X615090Y292820D01*
Y313624D01*
X490904Y384177D02*
Y399981D01*
X576226Y400480D02*
X491404D01*
X576156Y400658D02*
Y400912D01*
X576251Y400456D02*
Y400564D01*
X576156Y400658D01*
X608834Y380366D02*
Y386674D01*
X593940Y379500D02*
X586013D01*
X602390Y371050D02*
X593940Y379500D01*
X602390Y363124D02*
Y371050D01*
X607495Y388012D02*
X597080D01*
X617910D02*
X607495D01*
X608834Y386674D02*
X607495Y388012D01*
X234040Y384334D02*
X226630D01*
X519783Y316200D02*
X518133Y317850D01*
X577501Y388012D02*
X576251D01*
X586013Y379500D02*
X577501Y388012D01*
X576251Y277511D02*
X576251Y277511D01*
Y277556D01*
X269951Y336506D02*
Y339643D01*
X269898Y330141D02*
X264808Y325050D01*
X269898Y330141D02*
Y336506D01*
X264808Y323800D02*
Y325050D01*
X246720Y309850D02*
Y339643D01*
X252274Y323710D02*
X246912D01*
X252364Y323800D02*
X252274Y323710D01*
X511940Y324000D02*
X494120D01*
X247220Y309850D02*
X246720Y309350D01*
X319129Y373889D02*
X309223D01*
X319215Y373974D02*
X310264D01*
X657640Y360249D02*
X635765Y338374D01*
X663862Y366471D02*
X657640Y360249D01*
X309223Y373889D02*
X300851D01*
X319215Y373974D02*
X319129Y373889D01*
X300851D02*
X300740Y373778D01*
X364164Y316439D02*
Y323965D01*
Y308912D02*
Y316439D01*
X490403Y294359D02*
Y296977D01*
X484741Y302639D01*
Y302973D02*
Y312777D01*
X490903Y293859D02*
X490403Y294359D01*
X490903Y278806D02*
Y293859D01*
X218983Y384334D02*
X207512Y372862D01*
X226630Y384334D02*
X218983D01*
X207512Y372862D02*
X207032D01*
X252469Y375694D02*
X247962Y371187D01*
X247220D02*
X246720Y370687D01*
X247962Y371187D02*
X247220D01*
X246720Y354540D02*
Y370687D01*
X270015Y362242D02*
X269983Y362210D01*
X270015Y362242D02*
X269983Y362274D01*
Y369405D02*
X269951Y369437D01*
X269983Y362274D02*
Y369405D01*
Y354572D02*
Y362210D01*
Y354572D02*
X269951Y354540D01*
X246713Y391923D02*
X246706Y391930D01*
X246713Y384341D02*
Y391923D01*
X246720Y384334D02*
X246713Y384341D01*
Y391807D02*
Y399223D01*
X246720Y399230D02*
X246713Y399223D01*
X269951Y369437D02*
Y384334D01*
X493951Y331700D02*
Y335957D01*
X494139Y336145D02*
X493951Y335957D01*
X494120Y324000D02*
X478566D01*
X494120Y312796D02*
Y324000D01*
X478566D02*
X475637Y321071D01*
Y313071D02*
X475343Y312777D01*
X475637Y313071D02*
Y321071D01*
X478460Y384177D02*
Y399230D01*
Y399605D01*
X452900Y400480D02*
X443740D01*
X477960D02*
X452900D01*
X494139Y312777D02*
X494120Y312796D01*
X476799Y341411D02*
Y355132D01*
Y341411D02*
X475343Y339955D01*
Y336145D02*
Y339955D01*
X492683Y367576D02*
X476799D01*
X635765Y338374D02*
X612440D01*
X408437Y281737D02*
X365846D01*
X364164Y278806D02*
Y280056D01*
X365846Y281737D02*
X364164Y280056D01*
X663862Y366471D02*
Y399206D01*
X233444Y279586D02*
X194572D01*
X492683Y381148D02*
X490904Y382927D01*
X492683Y367576D02*
Y381148D01*
X490904Y382927D02*
Y384177D01*
X351720Y293859D02*
Y301386D01*
Y278806D02*
Y293859D01*
X270499Y311600D02*
X270451D01*
X269951Y311100D01*
Y309850D02*
Y311100D01*
X246173Y308100D02*
X234276Y296203D01*
X246720Y308600D02*
X246220Y308100D01*
X246173D01*
X476778Y281737D02*
X445937D01*
X478459Y280056D02*
Y293859D01*
Y280056D02*
X476778Y281737D01*
X478459Y278806D02*
Y280056D01*
X364164D02*
Y293859D01*
X478460Y399605D02*
Y399981D01*
X517864Y367576D02*
X492683D01*
Y367576D02*
Y367576D01*
X246720Y309350D02*
Y309850D01*
Y308600D02*
Y309350D01*
X269951Y309850D02*
X247220D01*
X234276Y294953D02*
Y296203D01*
X246720Y293703D02*
Y294953D01*
X262467Y277956D02*
X246720Y293703D01*
X269326Y277956D02*
X262467D01*
X194572Y279586D02*
X194520Y279638D01*
X269951Y294953D02*
Y309850D01*
X627733Y363182D02*
X627699D01*
X627790Y363124D02*
X627733Y363182D01*
X589715Y363130D02*
X589710Y363124D01*
X589690D01*
X657640Y311249D02*
X657491D01*
X656740Y312000D01*
X478460Y399981D02*
X477960Y400480D01*
X491404Y400480D02*
X490904Y399981D01*
X568140Y319200D02*
Y366300D01*
X494139Y336145D02*
Y339955D01*
X492683Y341411D02*
Y355132D01*
X494139Y339955D02*
X492683Y341411D01*
X518240Y367200D02*
X517864Y367576D01*
X615090Y344724D02*
Y363124D01*
Y344724D02*
X608740Y338374D01*
X641240Y399206D02*
X639990Y400456D01*
X638740D01*
X651418Y399206D02*
X641240D01*
D19*
X617910Y277556D02*
D03*
Y290000D02*
D03*
X638740Y277556D02*
D03*
Y290000D02*
D03*
X576251Y277556D02*
D03*
Y290000D02*
D03*
X597080D02*
D03*
Y277556D02*
D03*
X617910Y400456D02*
D03*
Y388012D02*
D03*
X638740D02*
D03*
Y400456D02*
D03*
X576251D02*
D03*
Y388012D02*
D03*
X597080D02*
D03*
Y400456D02*
D03*
X336340Y373778D02*
D03*
Y386222D02*
D03*
X317840Y386444D02*
D03*
Y374000D02*
D03*
X299340Y373778D02*
D03*
Y386222D02*
D03*
X492683Y355132D02*
D03*
Y367576D02*
D03*
X476799Y355132D02*
D03*
Y367576D02*
D03*
X443740Y400480D02*
D03*
Y388036D02*
D03*
D20*
X651418Y278806D02*
D03*
X663862D02*
D03*
X651418Y399206D02*
D03*
X663862D02*
D03*
X246720Y294953D02*
D03*
X234276D02*
D03*
Y309850D02*
D03*
X246720D02*
D03*
X234276Y369437D02*
D03*
X246720D02*
D03*
X234276Y339643D02*
D03*
X246720D02*
D03*
Y354540D02*
D03*
X234276D02*
D03*
Y384334D02*
D03*
X246720D02*
D03*
Y399230D02*
D03*
X234276D02*
D03*
X282395Y294953D02*
D03*
X269951D02*
D03*
X282395Y309850D02*
D03*
X269951D02*
D03*
X264808Y323800D02*
D03*
X252364D02*
D03*
X269951Y339643D02*
D03*
X282395D02*
D03*
X269951Y354540D02*
D03*
X282395D02*
D03*
Y369437D02*
D03*
X269951D02*
D03*
Y384334D02*
D03*
X282395D02*
D03*
X364164Y384177D02*
D03*
X351720D02*
D03*
X245940Y279534D02*
D03*
X233496D02*
D03*
X351720Y323965D02*
D03*
X364164D02*
D03*
X490903Y278806D02*
D03*
X478459D02*
D03*
X490903Y293859D02*
D03*
X478459D02*
D03*
X311699Y398347D02*
D03*
X324143D02*
D03*
X364164Y354071D02*
D03*
X351720D02*
D03*
X269951Y399230D02*
D03*
X282395D02*
D03*
X364164Y308912D02*
D03*
X351720D02*
D03*
X364164Y293859D02*
D03*
X351720D02*
D03*
X490904Y384177D02*
D03*
X478460D02*
D03*
X490904Y399230D02*
D03*
X478460D02*
D03*
X364164Y369124D02*
D03*
X351720D02*
D03*
Y399230D02*
D03*
X364164D02*
D03*
X351720Y278806D02*
D03*
X364164D02*
D03*
X351720Y339018D02*
D03*
X364164D02*
D03*
X270731Y278078D02*
D03*
X283175D02*
D03*
D21*
X567540Y319200D02*
D03*
X516740D02*
D03*
D22*
X508140Y281600D02*
D03*
X531640D02*
D03*
X555140D02*
D03*
D23*
X292700Y354770D02*
D03*
X338760Y353740D02*
D03*
X377250Y316200D02*
D03*
X386830D02*
D03*
X597080Y290000D02*
D03*
X628598Y277058D02*
D03*
X638640Y289900D02*
D03*
X596982Y277576D02*
D03*
X618269Y400722D02*
D03*
X576156Y400912D02*
D03*
X608834Y380366D02*
D03*
X576251Y277511D02*
D03*
X638797Y388066D02*
D03*
X663862Y278806D02*
D03*
X517142Y318841D02*
D03*
X508328Y293956D02*
D03*
X252382Y375393D02*
D03*
X307005Y286920D02*
D03*
X415861Y394613D02*
D03*
X282424Y300400D02*
D03*
X291999Y280138D02*
D03*
X282604Y310058D02*
D03*
X315705Y286920D02*
D03*
X270015Y362242D02*
D03*
X234040Y384230D02*
D03*
X246706Y391930D02*
D03*
X291200Y363600D02*
D03*
X282587Y385537D02*
D03*
X351220Y384275D02*
D03*
X346270Y393014D02*
D03*
X342336Y361200D02*
D03*
X338264Y386418D02*
D03*
X342740Y278713D02*
D03*
X388024Y299337D02*
D03*
X364013Y298070D02*
D03*
X372364Y309000D02*
D03*
X428310Y324000D02*
D03*
X493951Y331700D02*
D03*
X419601Y299337D02*
D03*
X397311Y299442D02*
D03*
X396074Y401137D02*
D03*
X457058Y378510D02*
D03*
X457224Y369187D02*
D03*
X467349Y368851D02*
D03*
X235315Y369412D02*
D03*
X315637Y337922D02*
D03*
X476174Y367576D02*
D03*
X282420Y399700D02*
D03*
X324260Y398790D02*
D03*
X383831Y346525D02*
D03*
X207032Y347462D02*
D03*
X246720Y339643D02*
D03*
X234710D02*
D03*
X200742Y324403D02*
D03*
X492683Y355132D02*
D03*
X206740Y398000D02*
D03*
X351740Y354000D02*
D03*
X383831Y356000D02*
D03*
X364031Y339013D02*
D03*
X205540Y305038D02*
D03*
X233444Y279586D02*
D03*
X589715Y363130D02*
D03*
X615090Y313624D02*
D03*
X568140Y319200D02*
D03*
X656740Y312000D02*
D03*
X627699Y363182D02*
D03*
X478460Y399605D02*
D03*
X291597Y340588D02*
D03*
X282302Y339795D02*
D03*
X329959Y311271D02*
D03*
X301437D02*
D03*
X351720Y301386D02*
D03*
D24*
X403861Y394123D02*
D03*
X427861D02*
D03*
X415861D02*
D03*
D25*
X418364Y365617D02*
D03*
X413364D02*
D03*
X408364D02*
D03*
X423364D02*
D03*
X428364D02*
D03*
X433364D02*
D03*
X438364D02*
D03*
X443364D02*
D03*
X448364D02*
D03*
Y309317D02*
D03*
X443364D02*
D03*
X438364D02*
D03*
X433364D02*
D03*
X428364D02*
D03*
X423364D02*
D03*
X418364D02*
D03*
X413364D02*
D03*
X408364D02*
D03*
D26*
X329845Y345422D02*
D03*
Y340422D02*
D03*
Y335422D02*
D03*
Y330422D02*
D03*
X301429D02*
D03*
Y335422D02*
D03*
Y340422D02*
D03*
Y345422D02*
D03*
D27*
X323137Y323714D02*
D03*
X318137D02*
D03*
X313137D02*
D03*
X308137D02*
D03*
Y352130D02*
D03*
X313137D02*
D03*
X318137D02*
D03*
X323137D02*
D03*
D28*
X315637Y337922D02*
D03*
D29*
X207032Y372862D02*
D03*
Y398262D02*
D03*
X205540Y305038D02*
D03*
D30*
X207032Y347462D02*
D03*
X205540Y279638D02*
D03*
D31*
X608740Y338374D02*
D03*
D32*
X627790Y363124D02*
D03*
X615090D02*
D03*
X602390D02*
D03*
X589690D02*
D03*
Y313624D02*
D03*
X602390D02*
D03*
X615090D02*
D03*
X627790D02*
D03*
D33*
X518240Y367200D02*
D03*
X567240D02*
D03*
D34*
X657640Y360249D02*
D03*
D35*
Y311249D02*
D03*
D36*
X456514Y352467D02*
D03*
Y347467D02*
D03*
Y342467D02*
D03*
Y337467D02*
D03*
Y332467D02*
D03*
Y327467D02*
D03*
Y322467D02*
D03*
Y317467D02*
D03*
X400214D02*
D03*
Y322467D02*
D03*
Y327467D02*
D03*
Y332467D02*
D03*
Y337467D02*
D03*
Y342467D02*
D03*
Y347467D02*
D03*
Y352467D02*
D03*
X456514Y357467D02*
D03*
X400214D02*
D03*
D37*
X428364Y337467D02*
D03*
D38*
X494139Y312777D02*
D03*
X484741D02*
D03*
X475343D02*
D03*
Y336145D02*
D03*
X494139D02*
D03*
D59*
X257561Y402780D02*
G03*
X255047Y401738I0J-3550D01*
G01*
X257561Y402780D02*
G03*
X255051Y401741I0J-3550D01*
G01*
X218983Y389384D02*
G03*
X215405Y387898I0J-5050D01*
G01*
X218983Y389384D02*
G03*
X215412Y387905I0J-5050D01*
G01*
X253335Y369418D02*
G03*
X256456Y379866I-953J5975D01*
G01*
X276845Y402050D02*
G03*
X276370Y399700I5575J-2350D01*
G01*
D02*
G03*
X276845Y397350I6050J0D01*
G01*
X287945Y397235D02*
G03*
X287945Y402165I-5525J2465D01*
G01*
X273877Y391904D02*
G03*
X273293Y391134I2510J-2510D01*
G01*
X273880Y391907D02*
G03*
X273293Y391134I2507J-2513D01*
G01*
X292540Y369500D02*
G03*
X288785Y369147I-1340J-5900D01*
G01*
X240666Y365073D02*
G03*
X241170Y365781I-5351J4340D01*
G01*
X223682Y356480D02*
G03*
X221532Y356852I-2150J-6018D01*
G01*
X192532D02*
G03*
X188106Y355071I0J-6390D01*
G01*
Y339854D02*
G03*
X192532Y338072I4426J4609D01*
G01*
X221532D02*
G03*
X223626Y338425I0J6390D01*
G01*
X230532Y330864D02*
G03*
X231627Y332843I-2855J2872D01*
G01*
X230540Y330872D02*
G03*
X231627Y332843I-2864J2864D01*
G01*
X239826Y336414D02*
G03*
X240263Y337240I-5116J3230D01*
G01*
X253110Y337066D02*
G03*
X253110Y342220I-6390J2577D01*
G01*
X263965Y362242D02*
G03*
X264401Y359987I6050J0D01*
G01*
Y364497D02*
G03*
X263965Y362242I5614J-2255D01*
G01*
X275501Y344161D02*
G03*
X276845Y344856I-921J3429D01*
G01*
X275501Y344161D02*
G03*
X276845Y344856I-921J3429D01*
G01*
Y342409D02*
G03*
X276252Y339795I5456J-2614D01*
G01*
D02*
G03*
X276845Y337182I6050J0D01*
G01*
X287945Y335764D02*
G03*
X290566Y334626I3652J4824D01*
G01*
X288885Y332945D02*
G03*
X287690Y330073I2855J-2872D01*
G01*
X288876Y332937D02*
G03*
X287690Y330073I2864J-2864D01*
G01*
X322490Y445300D02*
G03*
X322490Y445300I18550J0D01*
G01*
D02*
G03*
X322490Y445300I18550J0D01*
G01*
X410471Y398905D02*
G03*
X408971Y394613I5390J-4292D01*
G01*
X421251Y390321D02*
G03*
X421251Y398905I-5390J4292D01*
G01*
X408971Y394613D02*
G03*
X410471Y390321I6890J0D01*
G01*
X329845Y349472D02*
G03*
X328511Y349246I0J-4050D01*
G01*
X343980Y382572D02*
G03*
X344401Y383287I-5717J3846D01*
G01*
X344401D02*
G03*
X345330Y380700I6819J988D01*
G01*
X332710Y353740D02*
G03*
X334472Y349472I6050J0D01*
G01*
X333981Y357450D02*
G03*
X332710Y353740I4779J-3710D01*
G01*
X339410Y379624D02*
G03*
X340287Y379832I-1147J6794D01*
G01*
X336241D02*
G03*
X337649Y379556I2023J6586D01*
G01*
X436940Y390200D02*
G03*
X435149Y389231I722J-3476D01*
G01*
X436940Y390200D02*
G03*
X435152Y389234I722J-3476D01*
G01*
X460996Y373917D02*
G03*
X462272Y381577I-3938J4593D01*
G01*
X462396Y372325D02*
G03*
X460996Y373917I-5172J-3138D01*
G01*
X470580Y373966D02*
G03*
X462396Y372325I-3231J-5115D01*
G01*
X478751Y373966D02*
G03*
X473597Y373966I-2577J-6390D01*
G01*
X474575Y360874D02*
G03*
X478751Y361186I1599J6702D01*
G01*
X480687Y338188D02*
G03*
X481849Y341411I-3888J3223D01*
G01*
X480687Y338188D02*
G03*
X481849Y341411I-3888J3223D01*
G01*
X205075Y328625D02*
G03*
X194692Y324403I-4333J-4222D01*
G01*
D02*
G03*
X205385Y320525I6050J0D01*
G01*
X218515D02*
G03*
X221379Y321711I0J4050D01*
G01*
X218515Y320525D02*
G03*
X221387Y321719I0J4050D01*
G01*
X273462Y326563D02*
G03*
X274948Y330141I-3564J3578D01*
G01*
X273469Y326570D02*
G03*
X274948Y330141I-3571J3571D01*
G01*
X276845Y311914D02*
G03*
X276554Y310058I5758J-1856D01*
G01*
D02*
G03*
X276845Y308202I6050J0D01*
G01*
X276985Y303050D02*
G03*
X276374Y300400I5439J-2650D01*
G01*
X191040Y288188D02*
G03*
X188106Y287349I0J-5550D01*
G01*
X222990Y290407D02*
G03*
X224030Y287896I3550J0D01*
G01*
X222990Y290407D02*
G03*
X224033Y287893I3550J0D01*
G01*
X225218Y284636D02*
G03*
X220040Y288188I-5178J-1998D01*
G01*
X223348Y272182D02*
G03*
X225177Y274536I-3308J4457D01*
G01*
X239046Y277302D02*
G03*
X239046Y281871I-5602J2285D01*
G01*
X276374Y300400D02*
G03*
X276845Y298059I6050J0D01*
G01*
X258896Y274385D02*
G03*
X262467Y272906I3571J3571D01*
G01*
X258890Y274392D02*
G03*
X262467Y272906I3578J3564D01*
G01*
X327187Y305893D02*
G03*
X333509Y316170I2772J5378D01*
G01*
X357270Y296655D02*
G03*
X357774Y295147I6743J1415D01*
G01*
X325993Y277985D02*
G03*
X327187Y280857I-2855J2872D01*
G01*
X326001Y277993D02*
G03*
X327187Y280857I-2864J2864D01*
G01*
X336690Y278713D02*
G03*
X346170Y273729I6050J0D01*
G01*
X338690Y283207D02*
G03*
X336690Y278713I4050J-4494D01*
G01*
X416827Y275404D02*
G03*
X427187Y277502I4110J6333D01*
G01*
D02*
G03*
X439687Y277502I6250J4236D01*
G01*
D02*
G03*
X451549Y276687I6250J4236D01*
G01*
X315719Y269389D02*
G03*
X318582Y270575I0J4050D01*
G01*
X315719Y269389D02*
G03*
X318591Y270583I0J4050D01*
G01*
X322490Y230700D02*
G03*
X322490Y230700I18550J0D01*
G01*
D02*
G03*
X322490Y230700I18550J0D01*
G01*
X484010Y397197D02*
G03*
X484010Y402014I-5550J2408D01*
G01*
X497733Y381148D02*
G03*
X497294Y383209I-5050J0D01*
G01*
X497733Y381148D02*
G03*
X497294Y383209I-5050J0D01*
G01*
X548885Y383012D02*
G03*
X547690Y380140I2855J-2872D01*
G01*
X548876Y383004D02*
G03*
X547690Y380140I2864J-2864D01*
G01*
X495092Y360682D02*
G03*
X490275Y360682I-2408J-5550D01*
G01*
X487633Y341411D02*
G03*
X488795Y338188I5050J0D01*
G01*
X487901Y331700D02*
G03*
X488512Y329050I6050J0D01*
G01*
X488795Y334866D02*
G03*
X487901Y331700I5156J-3166D01*
G01*
X487633Y341411D02*
G03*
X488795Y338188I5050J0D01*
G01*
X499483Y329251D02*
G03*
X499483Y334149I-5532J2449D01*
G01*
X554596Y330828D02*
G03*
X555465Y332110I-2855J2872D01*
G01*
X554604Y330836D02*
G03*
X555465Y332110I-2864J2864D01*
G01*
X624110Y410706D02*
G03*
X621247Y409520I0J-4050D01*
G01*
X624110Y410706D02*
G03*
X621238Y409511I0J-4050D01*
G01*
X619266Y407539D02*
G03*
X615112Y406846I-997J-6817D01*
G01*
X638592Y394906D02*
G03*
X641240Y394156I2648J4300D01*
G01*
X638592Y394906D02*
G03*
X641240Y394156I2648J4300D01*
G01*
X620990Y445300D02*
G03*
X620990Y445300I18550J0D01*
G01*
D02*
G03*
X620990Y445300I18550J0D01*
G01*
X660526Y409520D02*
G03*
X657662Y410706I-2864J-2864D01*
G01*
X660534Y409511D02*
G03*
X657662Y410706I-2872J-2855D01*
G01*
X616486Y394066D02*
G03*
X620051Y394066I1782J6655D01*
G01*
X607940Y374382D02*
G03*
X608700Y374317I894J5984D01*
G01*
X613372Y376364D02*
G03*
X614509Y382462I-4538J4001D01*
G01*
X622240Y365791D02*
G03*
X621649Y363182I5458J-2609D01*
G01*
D02*
G03*
X622240Y360573I6050J0D01*
G01*
X633340Y360997D02*
G03*
X633340Y365367I-5641J2185D01*
G01*
X641326Y393562D02*
G03*
X636269Y393562I-2528J-5496D01*
G01*
X636516Y382462D02*
G03*
X641078Y382462I2281J5604D01*
G01*
X637250Y351749D02*
G03*
X637958Y347709I11890J0D01*
G01*
X672913Y378522D02*
G03*
X668912Y380312I-6773J-9772D01*
G01*
X649140Y380639D02*
G03*
X637250Y368750I0J-11890D01*
G01*
X635765Y333324D02*
G03*
X639343Y334810I0J5050D01*
G01*
X635765Y333324D02*
G03*
X639336Y334804I0J5050D01*
G01*
X535891Y313801D02*
G03*
X538755Y314987I0J4050D01*
G01*
X535891Y313801D02*
G03*
X538763Y314995I0J4050D01*
G01*
X513190Y297556D02*
G03*
X502278Y293956I-4862J-3600D01*
G01*
D02*
G03*
X503323Y290557I6050J0D01*
G01*
X513227Y290406D02*
G03*
X514377Y293843I-4899J3550D01*
G01*
X564513Y302600D02*
G03*
X562504Y301364I1569J-4800D01*
G01*
X564513Y302600D02*
G03*
X562511Y301371I1569J-4800D01*
G01*
X593254Y296532D02*
G03*
X594740Y300110I-3564J3578D01*
G01*
X593261Y296539D02*
G03*
X594740Y300110I-3571J3571D01*
G01*
X599657Y296390D02*
G03*
X594504Y296390I-2577J-6390D01*
G01*
X503323Y290557D02*
G03*
X497970Y281600I4817J-8957D01*
G01*
X553649Y292509D02*
G03*
X544130Y281600I1492J-10908D01*
G01*
X522391Y285829D02*
G03*
X521470Y281600I9249J-4229D01*
G01*
X566139Y281106D02*
G03*
X563810Y288386I-10999J494D01*
G01*
X521470Y281600D02*
G03*
X527821Y272174I10170J0D01*
G01*
X497970Y281600D02*
G03*
X504321Y272174I10170J0D01*
G01*
X511960D02*
G03*
X513227Y290406I-3819J9426D01*
G01*
X535460Y272174D02*
G03*
X527412Y290849I-3819J9426D01*
G01*
X544130Y281600D02*
G03*
X549450Y272174I11010J0D01*
G01*
X560831D02*
G03*
X563112Y274006I-5690J9426D01*
G01*
X578713Y283946D02*
G03*
X573790Y283946I-2461J-6435D01*
G01*
X598832Y283336D02*
G03*
X599657Y283610I-1751J6664D01*
G01*
X583891Y272770D02*
G03*
X585722Y273940I-1740J4741D01*
G01*
X583891Y272770D02*
G03*
X585729Y273947I-1740J4741D01*
G01*
X594620Y272006D02*
G03*
X599344Y272006I2362J5570D01*
G01*
X609040Y313624D02*
G03*
X609540Y311216I6050J0D01*
G01*
Y316033D02*
G03*
X609040Y313624I5550J-2408D01*
G01*
X610040Y292820D02*
G03*
X611110Y289712I5050J0D01*
G01*
X610040Y292820D02*
G03*
X611110Y289712I5050J0D01*
G01*
X624710Y285385D02*
G03*
X625280Y284640I3080J1766D01*
G01*
X624710Y285385D02*
G03*
X625283Y284637I3080J1766D01*
G01*
X626349Y283570D02*
G03*
X624710Y282746I2249J-6513D01*
G01*
X640804Y295550D02*
G03*
X636477Y295550I-2163J-5650D01*
G01*
X640140Y319965D02*
G03*
X638090Y311249I17500J-8715D01*
G01*
D02*
G03*
X666355Y293750I19550J0D01*
G01*
X649334Y285910D02*
G03*
X646824Y286950I-2510J-2510D01*
G01*
X649337Y285907D02*
G03*
X646824Y286950I-2513J-2507D01*
G01*
X658312Y281214D02*
G03*
X657812Y278806I5550J-2408D01*
G01*
D02*
G03*
X658312Y276398I6050J0D01*
G01*
X669412D02*
G03*
X669412Y281214I-5550J2408D01*
G01*
X623913Y272006D02*
G03*
X632170Y271166I4685J5052D01*
G01*
X620990Y231700D02*
G03*
X620990Y231700I18550J0D01*
G01*
D02*
G03*
X620990Y231700I18550J0D01*
G01*
X227886Y399775D02*
X227082Y398970D01*
X227886Y402082D02*
X227082Y402887D01*
Y389712D02*
Y404325D01*
X227886Y397840D02*
X227082Y398644D01*
X227886Y404017D02*
X227082Y403213D01*
X227886Y404325D02*
X227082D01*
X227886Y391590D02*
Y404325D01*
X227082Y390485D02*
X226309Y389712D01*
X227886Y393597D02*
X227082Y394402D01*
Y389712D02*
X188106D01*
X226630Y389384D02*
X218983D01*
X227886Y395532D02*
X227082Y394728D01*
X235646Y391590D02*
X227886D01*
X228187D02*
X227082Y390485D01*
X228726Y389384D02*
Y391134D01*
X252270Y398960D02*
Y404325D01*
X253650D02*
X252270Y402946D01*
X240666Y396611D02*
Y404325D01*
X241170Y396107D02*
Y404325D01*
X261129Y402780D02*
X259584Y404325D01*
X262136D02*
X260590Y402780D01*
X256941Y402726D02*
X255342Y404325D01*
X257893D02*
X255973Y402406D01*
X254367Y401057D02*
X252270Y403154D01*
X236103Y391134D02*
X228726D01*
X255047Y401738D02*
X252270Y398960D01*
X259031Y395681D02*
X256456Y393105D01*
X261976Y395681D02*
X256456Y390160D01*
X264401Y391023D02*
X259744Y395681D01*
X205096Y389712D02*
X196796Y381412D01*
X206130D02*
X197830Y389712D01*
X200853D02*
X192553Y381412D01*
X201887D02*
X193587Y389712D01*
X209646Y382139D02*
X202073Y389712D01*
X211768Y384260D02*
X206315Y389712D01*
X209339D02*
X201039Y381412D01*
X213581Y389712D02*
X205281Y381412D01*
X193402D02*
X188106Y386709D01*
X192368Y389712D02*
X188106Y385450D01*
Y381412D02*
Y389712D01*
X189159Y381412D02*
X188106Y382466D01*
X208920Y381412D02*
X188106D01*
X215405Y387898D02*
X208920Y381412D01*
X196611Y389712D02*
X188311Y381412D01*
X197645D02*
X189345Y389712D01*
X216061Y388452D02*
X214800Y389712D01*
X217824D02*
X217151Y389040D01*
X213889Y386381D02*
X210558Y389712D01*
X228726Y389384D02*
X226630D01*
X227857D02*
X227082Y390159D01*
X256456Y379866D02*
Y393105D01*
X253335Y369418D02*
X252270Y368354D01*
X264401Y365567D02*
X257614Y372355D01*
X264401Y369810D02*
X258419Y375792D01*
X264401Y372650D02*
X252270Y360519D01*
X263986Y361740D02*
X255511Y370215D01*
X264401Y404325D02*
X252270D01*
X264401Y403751D02*
X263827Y404325D01*
X264401Y402780D02*
X257561D01*
X264401D02*
Y404325D01*
X276845Y402065D02*
X275501Y400721D01*
X276845Y404325D02*
X275501D01*
Y393528D02*
Y404325D01*
X264401Y395681D02*
X259031D01*
X276395Y400243D02*
X275501Y401136D01*
X264401Y392430D02*
Y395681D01*
X267951Y392430D02*
X264401D01*
X276714Y397691D02*
X275501Y396478D01*
X276598Y394626D02*
X275501Y393528D01*
X276845Y395550D02*
X275501Y396894D01*
X294885Y402966D02*
X293515Y404335D01*
X294656Y404384D02*
X293552Y404330D01*
X291834Y404325D02*
X288360Y400851D01*
X292764Y400844D02*
X289283Y404325D01*
X296663Y404743D02*
X295193Y404450D01*
X337530Y409730D02*
X304811D01*
X296663Y404743D02*
X287945Y396026D01*
X296452Y404701D02*
X287945Y396194D01*
X276845Y402050D02*
Y404325D01*
X287945Y402165D02*
Y404325D01*
X276845Y394851D02*
Y397350D01*
X287945Y396026D02*
Y397235D01*
X293372Y404325D02*
X287945D01*
X290643Y398723D02*
X288318Y401047D01*
X288521Y396602D02*
X287945Y397178D01*
X264401Y393863D02*
X256456Y385918D01*
X264401Y386781D02*
X257266Y393916D01*
X264401Y382538D02*
X256456Y390483D01*
X264401Y377534D02*
Y391134D01*
X273293D02*
X264401D01*
X274403Y392430D02*
X267951D01*
X267211D02*
X265914Y391134D01*
X268533D02*
X267237Y392430D01*
X264401Y385378D02*
X257555Y378531D01*
X264401Y381136D02*
X258428Y375162D01*
X264401Y374053D02*
X256456Y381998D01*
X264401Y364497D02*
Y376237D01*
Y378295D02*
X256456Y386241D01*
X264401Y389621D02*
X256456Y381675D01*
X264901Y377393D02*
X252270Y364762D01*
X264901Y376237D02*
Y377534D01*
X271454Y392430D02*
X270157Y391134D01*
X272776D02*
X271479Y392430D01*
X275501Y393528D02*
X274403Y392430D01*
X292540Y369500D02*
Y375811D01*
X290115Y369552D02*
X288785Y370882D01*
X292540Y371091D02*
X291099Y369649D01*
X288785Y369147D02*
Y372056D01*
X292540Y375333D02*
X288785Y371578D01*
X292540Y375811D02*
X288785Y372056D01*
X292540Y371370D02*
X290319Y373590D01*
X200991Y356852D02*
X193531Y364312D01*
X205152D02*
X197692Y356852D01*
X196749D02*
X189289Y364312D01*
X200909D02*
X193449Y356852D01*
X209477D02*
X202017Y364312D01*
X213719Y356852D02*
X206259Y364312D01*
X205234Y356852D02*
X197774Y364312D01*
X209394D02*
X201935Y356852D01*
X192424Y364312D02*
X188106Y359994D01*
X209797Y364312D02*
X188106D01*
X189201Y355915D02*
X188106Y357010D01*
X192506Y356852D02*
X188106Y361253D01*
X221532Y356852D02*
X192532D01*
X223682Y364260D02*
X210060D01*
X213585D02*
X206177Y356852D01*
X217827Y364260D02*
X210420Y356852D01*
X222070Y364260D02*
X214662Y356852D01*
X223682Y359618D02*
X219040Y364260D01*
X217962Y356852D02*
X210554Y364260D01*
X222244Y356813D02*
X214797Y364260D01*
X241170Y362637D02*
Y365781D01*
X223682Y356480D02*
Y364260D01*
X240666Y361797D02*
Y365073D01*
X223682Y361629D02*
X218905Y356852D01*
X239826Y361340D02*
X231782D01*
X223682Y357387D02*
X222981Y356686D01*
X240666Y361797D02*
X231782D01*
X239826Y360444D02*
X238930Y361340D01*
X241170Y357904D02*
X239826Y356560D01*
X241170Y359100D02*
X239826Y360444D01*
X196667Y364312D02*
X188106Y355751D01*
Y355071D02*
Y364312D01*
X191695Y338128D02*
X188106Y334538D01*
X188685Y339360D02*
X188106Y338781D01*
X195882Y338072D02*
X188106Y330296D01*
X198236Y329909D02*
X189024Y339121D01*
X221532Y338072D02*
X192532D01*
X218786Y330573D02*
X211286Y338072D01*
X202087Y330302D02*
X194316Y338072D01*
X208610D02*
X200986Y330448D01*
X239826Y352761D02*
Y361340D01*
X223028Y334816D02*
X219771Y338072D01*
X223626Y335414D02*
Y338425D01*
X241170Y354857D02*
X239826Y356201D01*
X241170Y353662D02*
X240048Y352539D01*
X241170Y351417D02*
X239826Y352761D01*
X241170Y351417D02*
Y361340D01*
X220907Y332694D02*
X215529Y338072D01*
X239826Y332843D02*
X231627D01*
X239826D02*
Y336414D01*
X240330Y332003D02*
Y337066D01*
X251770Y361340D02*
Y362637D01*
X252270D02*
Y368354D01*
X241660Y362637D02*
X239826Y360803D01*
X241670Y361340D02*
Y362637D01*
X264401Y368408D02*
X252270Y356277D01*
X264401Y357082D02*
X252700Y368783D01*
X264222Y363986D02*
X252270Y352034D01*
X264401Y352839D02*
X252270Y364971D01*
Y351140D02*
Y361340D01*
X253373Y351140D02*
X252270Y352243D01*
X253110Y342220D02*
Y344040D01*
X261858Y351140D02*
X252270Y360728D01*
X264401Y351140D02*
X252270D01*
X257616D02*
X252270Y356485D01*
X264401Y344040D02*
X253110D01*
X264401Y351140D02*
Y359987D01*
Y359922D02*
X255619Y351140D01*
X264401Y355680D02*
X259862Y351140D01*
X276845Y342409D02*
Y344856D01*
X257004Y344040D02*
X253546Y340582D01*
X276351Y340889D02*
X275501Y341739D01*
X264401Y340111D02*
X260473Y344040D01*
X276500Y338081D02*
X275501Y337082D01*
X276845Y342669D02*
X275501Y341325D01*
X276845Y336153D02*
X275501Y337497D01*
X261247Y344040D02*
X253110Y335903D01*
X264401Y335869D02*
X256230Y344040D01*
X264401Y342952D02*
X252890Y331440D01*
X264322Y331706D02*
X253110Y342917D01*
Y332003D02*
X251770D01*
X253110D02*
Y337066D01*
X241670Y332003D02*
X240330D01*
X256102Y331440D02*
X253110Y334432D01*
X258754Y331440D02*
X251770D01*
X264401Y338709D02*
X257132Y331440D01*
X261185Y330600D02*
X253479Y338306D01*
X263216Y330600D02*
X259258D01*
X264401Y332843D02*
Y344040D01*
X275501Y332843D02*
Y344161D01*
X264401Y334467D02*
X260535Y330600D01*
X276845Y334184D02*
X274948Y332287D01*
X290566Y334626D02*
X288885Y332945D01*
X276845Y332843D02*
Y337182D01*
X287945Y332843D02*
Y335764D01*
X264848Y332232D02*
X263216Y330600D01*
X287945Y332843D02*
X276845D01*
X274948Y330141D02*
Y332843D01*
X287690Y329551D02*
X284398Y332843D01*
X288716Y332767D02*
X287945Y333538D01*
X321391Y472066D02*
X314274Y464949D01*
X319409Y470626D02*
X315714Y466931D01*
X312642Y462702D01*
X326232Y456472D02*
X315743Y466960D01*
X330285Y476718D02*
X309622Y456055D01*
X328230Y458717D02*
X317865Y469082D01*
X340556Y478504D02*
X307836Y445784D01*
X335916Y478106D02*
X308234Y450424D01*
X310269Y458046D02*
X308654Y453075D01*
X312642Y462702D02*
X310269Y458046D01*
X307836Y445300D02*
Y447913D01*
X308654Y453075D02*
X307836Y447913D01*
X323347Y450872D02*
X312262Y461957D01*
X324589Y453872D02*
X313953Y464508D01*
X322619Y443114D02*
X309636Y456097D01*
X322606Y447370D02*
X310830Y459146D01*
X338427Y478504D02*
X333265Y477686D01*
X343653Y478504D02*
X338427D01*
X333265Y477686D02*
X328294Y476071D01*
X344668Y463492D02*
X331158Y477002D01*
X348815Y477686D02*
X343653Y478504D01*
X353786Y476071D02*
X348815Y477686D01*
X348305Y477767D02*
X332081Y461543D01*
X352573Y459829D02*
X334518Y477885D01*
X323638Y473698D02*
X319409Y470626D01*
X328294Y476071D02*
X323638Y473698D01*
X330574Y460615D02*
X320077Y471112D01*
X333282Y462150D02*
X322535Y472897D01*
X340091Y463826D02*
X327997Y475920D01*
X354653Y475630D02*
X342790Y463767D01*
X336411Y463263D02*
X325187Y474488D01*
X351571Y476791D02*
X338449Y463668D01*
X326081Y434330D02*
X307596Y415845D01*
X307836Y418127D02*
Y445300D01*
X328051Y432057D02*
X305724Y409730D01*
X326304D02*
X307836Y428198D01*
X339032Y409730D02*
X307836Y440926D01*
X343275Y409730D02*
X307836Y445169D01*
X330547Y409730D02*
X307836Y432441D01*
X334789Y409730D02*
X307836Y436684D01*
X307719Y416463D02*
X307350Y414606D01*
X307832Y417946D02*
X307785Y417000D01*
X306077Y411533D02*
X305025Y409958D01*
X307141Y413917D02*
X306416Y412168D01*
X317819Y409730D02*
X307836Y419713D01*
X322062Y409730D02*
X307836Y423956D01*
X309334Y409730D02*
X306557Y412507D01*
X313576Y409730D02*
X307574Y415733D01*
X322672Y447891D02*
X307836Y433056D01*
X324411Y437080D02*
X308621Y452869D01*
X323264Y439998D02*
X307836Y424571D01*
X322573Y443550D02*
X307836Y428813D01*
X324797Y454259D02*
X307836Y437298D01*
X344642Y478347D02*
X307836Y441541D01*
X324470Y436961D02*
X307836Y420328D01*
X347517Y409730D02*
X308041Y449207D01*
X336133Y427411D02*
X318452Y409730D01*
X339759Y426794D02*
X322695Y409730D01*
X330365Y430129D02*
X309967Y409730D01*
X333042Y428563D02*
X314209Y409730D01*
X351760D02*
X332820Y428671D01*
X356003Y409730D02*
X338854Y426879D01*
X344234Y427027D02*
X326937Y409730D01*
X351286Y429837D02*
X331180Y409730D01*
X357463Y474197D02*
X346342Y463076D01*
X358442Y473698D02*
X353786Y476071D01*
X360044Y472535D02*
X349379Y461870D01*
X362501Y470750D02*
X352010Y460259D01*
X373684Y451446D02*
X347186Y477944D01*
X372044Y457328D02*
X353069Y476304D01*
X374244Y442401D02*
X338180Y478465D01*
X374244Y446644D02*
X342384Y478504D01*
X364646Y468652D02*
X354283Y458289D01*
X366703Y466467D02*
X356211Y455975D01*
X374244Y438158D02*
X355569Y456833D01*
X368489Y464010D02*
X357777Y453298D01*
X373576Y452127D02*
X356504Y435054D01*
X374244Y421188D02*
X357890Y437542D01*
X362671Y470626D02*
X358442Y473698D01*
X366366Y466931D02*
X362671Y470626D01*
X370109Y461387D02*
X358929Y450207D01*
X369438Y462703D02*
X366366Y466931D01*
X371811Y458046D02*
X369438Y462703D01*
X373426Y453075D02*
X371811Y458046D01*
X372655Y455448D02*
X359313Y442106D01*
X371541Y458577D02*
X359546Y446581D01*
X374244Y429673D02*
X359566Y444351D01*
X374244Y445300D02*
Y447913D01*
Y425430D02*
X359003Y440671D01*
X374244Y420802D02*
Y445300D01*
Y433916D02*
X359232Y448928D01*
X374244Y447913D02*
X373426Y453075D01*
X374306Y419444D02*
X374248Y420622D01*
X374832Y416595D02*
X374372Y418907D01*
X374244Y435825D02*
X348149Y409730D01*
X372968Y409736D02*
X352212Y430492D01*
X374156Y448464D02*
X335423Y409730D01*
X374244Y431582D02*
X352392Y409730D01*
X377211Y409736D02*
X354456Y432490D01*
X374981Y416208D02*
X356355Y434834D01*
X374244Y444309D02*
X339665Y409730D01*
X374244Y440067D02*
X343907Y409730D01*
X360240Y409736D02*
X343110Y426866D01*
X364483Y409736D02*
X346612Y427607D01*
X357483Y409730D02*
X337530D01*
X358464D02*
X357483D01*
X378848Y409736D02*
X357509D01*
X374244Y423097D02*
X360883Y409736D01*
X368726D02*
X349612Y428849D01*
X374244Y427339D02*
X356635Y409730D01*
X376557Y412682D02*
X373610Y409736D01*
X375943Y413728D02*
X375041Y415906D01*
X374372Y418983D02*
X365125Y409736D01*
X375187Y415555D02*
X369368Y409736D01*
X377592Y411133D02*
X376283Y413093D01*
X378717Y409832D02*
X377925Y410707D01*
X436940Y394930D02*
Y404725D01*
X484010Y402014D02*
Y404725D01*
X421251Y398905D02*
Y404725D01*
X423311D02*
X421251D01*
X408411Y386594D02*
Y404725D01*
X410471Y398905D02*
Y404725D01*
X436483D02*
X432411Y400654D01*
X436940Y400918D02*
X433133Y404725D01*
X423311Y386594D02*
Y404725D01*
X408979Y394938D02*
X408411Y395506D01*
X409971Y398188D02*
X408411Y399748D01*
X408984Y394197D02*
X408411Y393624D01*
X410471Y404170D02*
X408411Y402110D01*
X410471Y404725D02*
X408411D01*
X410471Y399927D02*
X408411Y397867D01*
X410471Y401931D02*
X408411Y403991D01*
X307914Y390707D02*
X306980Y389773D01*
X311040Y390707D02*
X307436D01*
X311040Y389591D02*
X306980Y385531D01*
X311040Y386811D02*
X307290Y390561D01*
X410471Y389203D02*
X408411Y391263D01*
X410008Y390979D02*
X408411Y389382D01*
X410471Y384534D02*
X408411Y386594D01*
X410471Y384961D02*
X408411Y387021D01*
X410471Y387199D02*
X409138Y385867D01*
X410471Y384534D02*
Y390321D01*
X422438Y385721D02*
X421251Y386908D01*
Y384534D02*
Y390321D01*
X423311Y387311D02*
X421251Y385251D01*
X311040Y383812D02*
X306980D01*
X311040Y385348D02*
X309505Y383812D01*
X306980D02*
Y390251D01*
X309796Y383812D02*
X306980Y386628D01*
X311040Y383812D02*
Y390707D01*
X333981Y357450D02*
X327801D01*
X329810D02*
X327801Y355441D01*
X333212Y356153D02*
X331916Y357450D01*
X331408Y349472D02*
X327801Y353079D01*
Y349246D02*
Y357450D01*
X333785Y357182D02*
X327801Y351198D01*
X332905Y352218D02*
X327801Y357322D01*
X334472Y349472D02*
X329845D01*
X332939Y352093D02*
X330317Y349472D01*
X343980Y379832D02*
X340287D01*
X343980D02*
Y382572D01*
X345061Y381186D02*
X343980Y380105D01*
X345330Y379624D02*
Y380700D01*
X336924Y379328D02*
X334944D01*
X336241Y379832D02*
X335448D01*
X345330Y379624D02*
X339410D01*
X423311Y401819D02*
X421251Y403879D01*
X423311Y400039D02*
X421639Y398367D01*
X423311Y397576D02*
X421251Y399636D01*
X423311Y395797D02*
X422725Y395211D01*
X423311Y404282D02*
X421251Y402222D01*
X436940Y392432D02*
X432411Y396962D01*
Y386493D02*
Y404725D01*
X436940Y396698D02*
X432411Y392169D01*
X423311Y391554D02*
X421251Y389494D01*
X423311Y393334D02*
X422717Y393928D01*
X423311Y386594D02*
X421251Y384534D01*
X423311Y389091D02*
X421601Y390802D01*
X436940Y392455D02*
X432411Y387926D01*
X435552Y389578D02*
X432411Y392719D01*
X435149Y389231D02*
X432411Y386493D01*
X433403Y387485D02*
X432411Y388476D01*
X436940Y396675D02*
X432411Y401204D01*
X436940Y404725D02*
X432411D01*
X436940Y400941D02*
X432411Y396411D01*
X440029Y393587D02*
X438685Y394930D01*
X444271Y393587D02*
X442927Y394930D01*
X446957Y393587D02*
X445613Y394930D01*
X443658D02*
X442314Y393587D01*
X484010Y392430D02*
Y397197D01*
X436940Y390200D02*
Y393587D01*
X438072D02*
X436940Y392455D01*
X446957Y393587D02*
X436940D01*
X445613Y394930D02*
X436940D01*
X439416D02*
X438072Y393587D01*
X483509Y390977D02*
Y392430D01*
X468489Y381577D02*
X462142Y375230D01*
X464246Y381577D02*
X462867Y380199D01*
X472377Y373966D02*
X464766Y381577D01*
X472910D02*
X462272D01*
X472910Y377676D02*
X469008Y381577D01*
X472732D02*
X465872Y374718D01*
X472910Y377377D02*
Y381577D01*
X463981Y373877D02*
X462325Y375533D01*
X467201Y374899D02*
X463087Y379014D01*
X472910Y377513D02*
X469785Y374389D01*
X476120Y374466D02*
X473209Y377377D01*
X473597Y373966D02*
X470580D01*
X477017Y377377D02*
X473611Y373971D01*
X481259Y377377D02*
X478079Y374197D01*
X480863Y373966D02*
X477451Y377377D01*
X481849Y341411D02*
Y349582D01*
X483162D02*
X481849Y348269D01*
X483599Y360682D02*
X474383D01*
X483599Y349582D02*
Y360682D01*
Y349582D02*
X481849D01*
X208006Y328625D02*
X198558Y338072D01*
X212249Y328625D02*
X202801Y338072D01*
X204368D02*
X188106Y321810D01*
X200125Y338072D02*
X188106Y326053D01*
X212853Y338072D02*
X204169Y329389D01*
X221338Y338072D02*
X211891Y328625D01*
X216491D02*
X207043Y338072D01*
X217096D02*
X207648Y328625D01*
X194716Y324944D02*
X188106Y331554D01*
X195888Y328014D02*
X188106Y335797D01*
X194697Y324159D02*
X188106Y317568D01*
X216837Y328625D02*
X205075D01*
X223626Y336118D02*
X216133Y328625D01*
X218515Y320525D02*
X205385D01*
X223626Y335414D02*
X216837Y328625D01*
X230532Y330864D02*
X221387Y321719D01*
X240354Y317490D02*
X228756Y329088D01*
X241670Y328706D02*
X229614Y316650D01*
X241670Y324659D02*
X233486Y332843D01*
X241670Y328901D02*
X237729Y332843D01*
X241670Y320416D02*
X230857Y331229D01*
X241670Y317490D02*
Y332003D01*
X232709Y316650D02*
X224513Y324845D01*
X236952Y316650D02*
X226635Y326967D01*
X241670Y324463D02*
X233857Y316650D01*
X241670Y317490D02*
X240330D01*
X239826Y316650D02*
X228726D01*
X241670Y320221D02*
X238099Y316650D01*
X197587Y313588D02*
X188106Y323069D01*
X201829Y313588D02*
X188106Y327312D01*
Y313588D02*
Y339854D01*
X195756Y320976D02*
X188369Y313588D01*
X216518Y320525D02*
X209582Y313588D01*
X218800D02*
X211863Y320525D01*
X212276D02*
X205339Y313588D01*
X214557D02*
X207621Y320525D01*
X198022Y318999D02*
X192612Y313588D01*
X201694Y318428D02*
X196854Y313588D01*
X189101D02*
X188106Y314584D01*
X193344Y313588D02*
X188106Y318827D01*
X225590Y313588D02*
X188106D01*
X210315D02*
X204354Y319549D01*
X208033Y320525D02*
X201097Y313588D01*
X206072D02*
X201283Y318377D01*
X233080Y332843D02*
X213825Y313588D01*
X228726Y316390D02*
X222392Y322724D01*
X223042Y313588D02*
X216106Y320525D01*
X228726Y312147D02*
X220047Y320826D01*
X237322Y332843D02*
X218067Y313588D01*
X240725Y332003D02*
X222310Y313588D01*
X239826Y308895D02*
Y316650D01*
X240330Y309399D02*
Y317490D01*
X226742Y305646D02*
X225590Y306798D01*
X228726Y307904D02*
X225590Y311040D01*
Y304495D02*
Y313588D01*
X228726Y307631D02*
X225590Y304495D01*
X228726Y315762D02*
X225590Y312626D01*
X229614Y316650D02*
X228726Y315762D01*
Y311519D02*
X225590Y308383D01*
X228726Y307850D02*
Y316650D01*
X258754Y316160D02*
Y331440D01*
X259258Y317000D02*
Y330600D01*
X260535D02*
X259258Y329323D01*
X276341Y317490D02*
X270358D01*
Y323458D01*
X274295Y317490D02*
X270358Y321427D01*
X258754Y316160D02*
X253110D01*
X255672Y314900D02*
X254412Y316160D01*
X253110Y314900D02*
Y316160D01*
X254579D02*
X253319Y314900D01*
X263561Y317000D02*
X259258D01*
X263561Y315496D02*
X262057Y317000D01*
X259662D02*
X257561Y314900D01*
X259915D02*
X258654Y316160D01*
X283990Y332843D02*
X270358Y319211D01*
X279748Y332843D02*
X270358Y323453D01*
X287690Y321065D02*
X275501Y333254D01*
X287690Y325308D02*
X280155Y332843D01*
X290112Y334723D02*
X272879Y317490D01*
X287690Y316650D02*
Y330073D01*
X273462Y326563D02*
X270358Y323458D01*
X287690Y316650D02*
X276845D01*
X279378D02*
X271464Y324564D01*
X283621Y316650D02*
X273583Y326687D01*
X287690Y316823D02*
X274919Y329594D01*
X287690Y328058D02*
X276341Y316709D01*
X287690Y323815D02*
X280525Y316650D01*
X287690Y319573D02*
X284767Y316650D01*
X263561Y302768D02*
X261530Y304800D01*
X263561Y314900D02*
X253110D01*
X263561Y316657D02*
X261804Y314900D01*
X253110Y302210D02*
X247425D01*
X253110D02*
Y304800D01*
X260189D02*
X252270Y296881D01*
X255947Y304800D02*
X252270Y301123D01*
X263561Y304800D02*
X253110D01*
X263561Y298525D02*
X257287Y304800D01*
X263561Y294282D02*
X253110Y304734D01*
X263561Y303929D02*
X253599Y293966D01*
X263561Y314900D02*
Y317000D01*
X276341Y302593D02*
Y317490D01*
X276845Y311914D02*
Y316650D01*
Y303050D02*
Y308202D01*
X263561Y302593D02*
Y304800D01*
X264901Y302593D02*
X263561D01*
Y287313D02*
Y302210D01*
X264901D02*
X263561D01*
X276341D02*
X275001D01*
X276341Y302593D02*
X275001D01*
X201773Y288188D02*
X193473Y296488D01*
X205210D02*
X196910Y288188D01*
X197531D02*
X189231Y296488D01*
X200967D02*
X192667Y288188D01*
X210259D02*
X201959Y296488D01*
X213695D02*
X205395Y288188D01*
X206016D02*
X197716Y296488D01*
X209452D02*
X201153Y288188D01*
X189319Y287915D02*
X188106Y289128D01*
X192482Y296488D02*
X188106Y292112D01*
Y287349D02*
Y296488D01*
X222990D02*
X188106D01*
X220040Y288188D02*
X191040D01*
X196725Y296488D02*
X188106Y287869D01*
X193288Y288188D02*
X188106Y293371D01*
X222180Y296488D02*
X213881Y288188D01*
X222990Y292427D02*
X218929Y296488D01*
X217938D02*
X209638Y288188D01*
X218744D02*
X210444Y296488D01*
X252270Y301753D02*
X246968D01*
X252270Y295295D02*
Y301753D01*
X226539Y284636D02*
X214687Y296488D01*
X222990Y290407D02*
Y296488D01*
X214501Y288188D02*
X206201Y296488D01*
X222990Y293055D02*
X218123Y288188D01*
X223250Y289074D02*
X222005Y287829D01*
X225173Y286754D02*
X224440Y286021D01*
X226969Y284957D02*
X224033Y287893D01*
X227337Y284636D02*
X225218D01*
X227946Y274536D02*
X225177D01*
X225683D02*
X224550Y273403D01*
X240390Y275027D02*
X239046Y276371D01*
X240390Y276515D02*
X239046Y275171D01*
X227946Y272734D02*
Y274536D01*
X239046Y272734D02*
Y277302D01*
X230508Y272182D02*
X229956Y272734D01*
X232366D02*
X231814Y272182D01*
X226265D02*
X224748Y273699D01*
X228124Y272734D02*
X227571Y272182D01*
X239046Y272734D02*
X227946D01*
X238993Y272182D02*
X238441Y272734D01*
X234751Y272182D02*
X234198Y272734D01*
X236609D02*
X236056Y272182D01*
X239046Y281871D02*
Y282658D01*
X240390Y280758D02*
X239488Y279856D01*
X240390Y279270D02*
X239463Y280197D01*
X240390Y281314D02*
X239046Y282658D01*
X252821Y280461D02*
X251490Y279130D01*
X240390Y272734D02*
Y281314D01*
X251490Y272734D02*
Y281791D01*
X245094Y272734D02*
X244542Y272182D01*
X247479D02*
X246926Y272734D01*
X240851D02*
X240299Y272182D01*
X243236D02*
X242684Y272734D01*
X251490D02*
X240390D01*
X251721Y272182D02*
X251169Y272734D01*
X249337D02*
X248784Y272182D01*
X263561Y290040D02*
X252270Y301331D01*
X263561Y299687D02*
X255720Y291845D01*
X263561Y295444D02*
X257841Y289724D01*
X263561Y291201D02*
X259963Y287602D01*
X265181Y284177D02*
X252270Y297088D01*
X263916Y287313D02*
X262084Y285481D01*
X268723Y284878D02*
X266288Y287313D01*
X265723Y284878D02*
X265181Y284336D01*
X268158Y287313D02*
X265723Y284878D01*
X276341Y287313D02*
X263561D01*
X276281Y284878D02*
X265181D01*
X272401Y287313D02*
X269966Y284878D01*
X272966D02*
X270531Y287313D01*
X278176Y288153D02*
X276845Y289484D01*
X276341Y287313D02*
Y302210D01*
X276845Y288153D02*
Y298059D01*
X287690Y287124D02*
X286662Y288153D01*
X287690Y284878D02*
Y288153D01*
X285694Y284878D02*
X282419Y288153D01*
X285969D02*
X282694Y284878D01*
X277484Y288153D02*
X274209Y284878D01*
X281451D02*
X278176Y288153D01*
X277625Y284461D02*
X274774Y287313D01*
X278451Y284878D02*
X277625Y284052D01*
X287690Y288153D02*
X276845D01*
X287690Y285632D02*
X286937Y284878D01*
X287690D02*
X277625D01*
X281726Y288153D02*
X278451Y284878D01*
X258890Y274392D02*
X251490Y281791D01*
X254942Y278339D02*
X251490Y274887D01*
X255964Y272182D02*
X251490Y276655D01*
X260206Y272182D02*
X251490Y280898D01*
X265181Y284336D02*
X264205Y283360D01*
X265181Y283006D02*
Y284878D01*
X264559Y283006D02*
X252270Y295295D01*
X276281Y272182D02*
Y284878D01*
X262242Y272911D02*
X261512Y272182D01*
X257063Y276218D02*
X253027Y272182D01*
X259196Y274108D02*
X257270Y272182D01*
X265181Y272906D02*
X262467D01*
X265181Y272182D02*
X223348D01*
X264449D02*
X263725Y272906D01*
X277625Y275567D02*
X276281Y274223D01*
X277625Y275976D02*
X276281Y277320D01*
X277177Y272182D02*
X276281Y273077D01*
X277625Y272182D02*
X276281D01*
X277625Y280218D02*
X276281Y281562D01*
X277625Y284052D02*
X276281Y282708D01*
X277625Y279809D02*
X276281Y278465D01*
X277625Y272182D02*
Y284878D01*
X301857Y266838D02*
X298465Y269105D01*
X301146Y269389D02*
X299902Y268145D01*
X303797Y265133D02*
X302284Y266505D01*
X304698Y264167D02*
X304050Y264881D01*
X307771Y269389D02*
X297913D01*
X305388D02*
X302400Y266400D01*
X327352Y243220D02*
X301183Y269389D01*
X333509Y316170D02*
Y326598D01*
X337211Y326668D02*
X333509Y322965D01*
X338690Y311176D02*
X327187Y299673D01*
X338690Y323904D02*
X333509Y318722D01*
X338690Y320977D02*
X333509Y326158D01*
X338690Y312492D02*
X333509Y317673D01*
X338690Y316734D02*
X333509Y321916D01*
X338690Y302691D02*
X327187Y291187D01*
X328638Y305367D02*
X327187Y303915D01*
X338690Y298448D02*
X327187Y286945D01*
X338690Y287036D02*
X327187Y298539D01*
X338690Y295521D02*
X328896Y305315D01*
X338690Y299764D02*
X332618Y305836D01*
X338690Y291278D02*
X327187Y302782D01*
X338690Y306933D02*
X327187Y295430D01*
X335935Y326598D02*
X333509D01*
X335935D02*
Y327944D01*
X338690Y304006D02*
X334907Y307790D01*
X338690Y308249D02*
X336000Y310939D01*
X338690Y319661D02*
X334404Y315375D01*
X338690Y325189D02*
X335935Y327944D01*
X338690Y315418D02*
X335863Y312591D01*
X357270Y287059D02*
Y296655D01*
X372616Y294190D02*
X370554Y292128D01*
Y286787D02*
Y295904D01*
X372880Y286787D02*
X370554Y289113D01*
X327187Y280857D02*
Y305893D01*
X338478Y283006D02*
X327187Y294296D01*
X337857Y275142D02*
X327187Y285811D01*
X336911Y280330D02*
X327187Y290054D01*
X338690Y289963D02*
X307434Y258707D01*
X338690Y294205D02*
X327187Y282702D01*
X338690Y285720D02*
X307845Y254874D01*
X374236Y234519D02*
X327187Y281569D01*
X336746Y279533D02*
X307845Y250632D01*
X325993Y277985D02*
X318591Y270583D01*
X337374Y275919D02*
X307845Y246389D01*
X373955Y226315D02*
X324139Y276131D01*
X374236Y230277D02*
X326249Y278264D01*
X356770Y285606D02*
Y287059D01*
X357774Y286446D02*
Y295147D01*
X338690Y283207D02*
Y325189D01*
X357774Y271166D02*
Y286219D01*
X370554Y286787D02*
X369214D01*
X370554Y287885D02*
X369456Y286787D01*
X359114Y286219D02*
X357774D01*
X359114Y286446D02*
X357774D01*
X357270Y272006D02*
Y285606D01*
X372084Y276687D02*
X370554Y275158D01*
Y271166D02*
Y276687D01*
X374737Y292069D02*
X370554Y287885D01*
X378980Y287826D02*
X377941Y286787D01*
X377122D02*
X370554Y293356D01*
X376859Y289947D02*
X373699Y286787D01*
X380036D02*
X370554D01*
X379813Y286993D02*
X370636Y296170D01*
X400047Y276687D02*
X370554D01*
X416827Y273347D02*
Y275404D01*
X400047Y273347D02*
Y276687D01*
X416827Y274761D02*
X415413Y273347D01*
X429919Y272174D02*
X425977Y276116D01*
X433227Y274190D02*
X431211Y272174D01*
X472909Y275853D02*
X472075Y276687D01*
X440158Y276879D02*
X435453Y272174D01*
X472909D02*
Y276687D01*
X480687Y329050D02*
Y338188D01*
X483352Y329050D02*
X480687Y331715D01*
X483509Y285606D02*
Y287059D01*
X484009D02*
Y296229D01*
X442647Y272174D02*
X438596Y276225D01*
X445952Y274187D02*
X443939Y272174D01*
X434162D02*
X432013Y274323D01*
X438404Y272174D02*
X435958Y274621D01*
X452694Y276687D02*
X448181Y272174D01*
X472909Y276687D02*
X451549D01*
X446890Y272174D02*
X444789Y274275D01*
X451132Y272174D02*
X448625Y274682D01*
X387767Y271900D02*
X382980Y276687D01*
X391735Y272174D02*
X387222Y276687D01*
X384475Y270949D02*
X378737Y276687D01*
X389055D02*
X382101Y269734D01*
X397540Y276687D02*
X393027Y272174D01*
X400221D02*
X395708Y276687D01*
X393297D02*
X388656Y272046D01*
X395978Y272174D02*
X391465Y276687D01*
X379363Y267576D02*
X370554Y276385D01*
X381710Y269472D02*
X374495Y276687D01*
X376327D02*
X347666Y248026D01*
X380569Y276687D02*
X350524Y246642D01*
X420508Y274200D02*
X418483Y272174D01*
X421434D02*
X419224Y274384D01*
X384812Y276687D02*
X353002Y244878D01*
X400047Y274952D02*
X397270Y272174D01*
X463860D02*
X459347Y276687D01*
X465422D02*
X460909Y272174D01*
X427555Y277004D02*
X422725Y272174D01*
X461180Y276687D02*
X456667Y272174D01*
X472345D02*
X467832Y276687D01*
X484009Y272174D02*
Y285606D01*
X468103Y272174D02*
X463590Y276687D01*
X469665D02*
X465152Y272174D01*
X442524Y275003D02*
X439696Y272174D01*
X455375D02*
X451213Y276337D01*
X425676Y272174D02*
X423288Y274563D01*
X429874Y275081D02*
X426968Y272174D01*
X459618D02*
X455105Y276687D01*
X472909Y275689D02*
X469394Y272174D01*
X456937Y276687D02*
X452424Y272174D01*
X309631Y269389D02*
X304561Y264318D01*
X306085Y262164D02*
X305032Y263739D01*
X313874Y269389D02*
X306260Y261775D01*
X307149Y259779D02*
X306424Y261529D01*
X329551Y245264D02*
X305426Y269389D01*
X315719D02*
X307771D01*
X346189Y272006D02*
X307845Y233661D01*
X342605Y272664D02*
X307845Y237904D01*
X307728Y257232D02*
X307358Y259090D01*
X307840Y255748D02*
X307794Y256695D01*
X307864Y227843D02*
X307845Y230436D01*
Y255568D01*
X325500Y240829D02*
X307388Y258942D01*
X322966Y234877D02*
X307845Y249999D01*
X323007Y226352D02*
X307845Y241514D01*
X322495Y231107D02*
X307845Y245756D01*
X342601Y249184D02*
X319896Y271889D01*
X346170Y272006D02*
Y273729D01*
X339380Y273682D02*
X307845Y242146D01*
X348226Y247802D02*
X322018Y274010D01*
X358077Y271166D02*
X335227Y248316D01*
X357270Y272006D02*
X346170D01*
X350432D02*
X307852Y229426D01*
X354675Y272006D02*
X308241Y225572D01*
X308717Y222700D02*
X307864Y227843D01*
X323424Y236513D02*
X308940Y222029D01*
X335045Y248255D02*
X313911Y269389D01*
X338471Y249071D02*
X317659Y269883D01*
X324017Y238070D02*
X307845Y254242D01*
X332102Y246955D02*
X309669Y269389D01*
X310361Y217754D02*
X308717Y222700D01*
X322501Y231347D02*
X309999Y218845D01*
X322788Y227391D02*
X311313Y215916D01*
X323714Y224074D02*
X312760Y213121D01*
X347069Y198047D02*
X307845Y237271D01*
X334226Y198162D02*
X308524Y223864D01*
X343361Y197512D02*
X307845Y233029D01*
X339134Y197496D02*
X307857Y228773D01*
X312757Y213125D02*
X310361Y217754D01*
X315847Y208926D02*
X312757Y213125D01*
X319553Y205261D02*
X315847Y208926D01*
X323787Y202220D02*
X319553Y205261D01*
X325098Y221216D02*
X314559Y210677D01*
X326862Y218738D02*
X316452Y208328D01*
X328093Y200052D02*
X310346Y217799D01*
X328976Y216609D02*
X318586Y206218D01*
X331438Y214828D02*
X320902Y204292D01*
X334279Y213426D02*
X323371Y202519D01*
X337572Y212477D02*
X326134Y201038D01*
X341493Y212155D02*
X329027Y199689D01*
X353688Y199913D02*
X341447Y212154D01*
X356515Y201329D02*
X345217Y212626D01*
X346576Y212995D02*
X332241Y198661D01*
X350494Y198864D02*
X336692Y212667D01*
X328443Y199876D02*
X323787Y202220D01*
X333407Y198288D02*
X328443Y199876D01*
X338559Y197494D02*
X333407Y198288D01*
X343772Y197514D02*
X338559Y197494D01*
X353870Y199972D02*
X348917Y198347D01*
X358508Y202351D02*
X353870Y199972D01*
X348917Y198347D02*
X343772Y197514D01*
X374236Y251490D02*
X353720Y272006D01*
X358803Y271166D02*
X357774Y272194D01*
X374236Y243004D02*
X344358Y272883D01*
X374236Y247247D02*
X349477Y272006D01*
X375891Y262563D02*
X367288Y271166D01*
X377448Y265248D02*
X370554Y272142D01*
X374254Y255715D02*
X358803Y271166D01*
X374788Y259423D02*
X363045Y271166D01*
X370554D02*
X357774D01*
X374307Y256801D02*
X374241Y255453D01*
X362320Y271166D02*
X340393Y249239D01*
X366563Y271166D02*
X344349Y248953D01*
X377978Y266041D02*
X376480Y263799D01*
X379217Y267468D02*
X378311Y266467D01*
X374899Y259983D02*
X374373Y257338D01*
X376140Y263164D02*
X375108Y260672D01*
X406928Y273347D02*
X405755Y272174D01*
X408706D02*
X407533Y273347D01*
X402685D02*
X401512Y272174D01*
X404463D02*
X403290Y273347D01*
X415413D02*
X414240Y272174D01*
X417191D02*
X416018Y273347D01*
X411170D02*
X409998Y272174D01*
X412948D02*
X411776Y273347D01*
X385515Y271380D02*
X383351Y270484D01*
X388502Y272046D02*
X386204Y271589D01*
X380341Y268510D02*
X379472Y267722D01*
X382715Y270144D02*
X380768Y268843D01*
X472909Y272174D02*
X390390D01*
X416827Y273347D02*
X400047D01*
X390209Y272170D02*
X389038Y272113D01*
X484009Y272006D02*
X472909D01*
X373340Y222688D02*
X358142Y237886D01*
X374236Y232171D02*
X339563Y197498D01*
X377112Y264745D02*
X355131Y242764D01*
X374479Y257869D02*
X356912Y240302D01*
X374236Y236413D02*
X335750Y197927D01*
X374236Y238762D02*
X339169Y273829D01*
X363930Y206641D02*
X353560Y217012D01*
X366048Y208767D02*
X355604Y219211D01*
X359217Y202869D02*
X348410Y213677D01*
X361670Y204659D02*
X351169Y215160D01*
X370820Y216026D02*
X355709Y200916D01*
X367885Y211172D02*
X357295Y221762D01*
X374205Y227897D02*
X343832Y197523D01*
X373388Y222837D02*
X348894Y198343D01*
X374236Y240656D02*
X358745Y225164D01*
X374236Y228094D02*
Y230700D01*
X371054Y216488D02*
X359411Y228131D01*
X372301Y219484D02*
X359524Y232261D01*
X374236Y253384D02*
X358314Y237461D01*
X374236Y249141D02*
X359263Y234168D01*
X374236Y244899D02*
X359585Y230247D01*
X374236Y230700D02*
Y255273D01*
X369625Y213675D02*
X358595Y224705D01*
X369455Y213339D02*
X366397Y209117D01*
X362718Y205424D02*
X358508Y202351D01*
X366397Y209117D02*
X362718Y205424D01*
X373423Y222945D02*
X371816Y217986D01*
X374236Y228094D02*
X373423Y222945D01*
X371816Y217986D02*
X369455Y213339D01*
X484514Y391817D02*
Y404725D01*
X497294Y391817D02*
Y395430D01*
X499313D02*
X497294Y393411D01*
X507798Y395430D02*
X497294Y384926D01*
X503555Y395430D02*
X497294Y389169D01*
X485854Y391590D02*
X484514D01*
X485854Y391817D02*
X484514D01*
Y391528D02*
X483611Y392430D01*
X497294Y391590D02*
X495953D01*
X497294Y391817D02*
X495953D01*
X497294Y383209D02*
Y391590D01*
X557020Y391147D02*
X552736Y395430D01*
X559141Y393268D02*
X556979Y395430D01*
X554898Y389025D02*
X548493Y395430D01*
X561303D02*
X548885Y383012D01*
X584975Y404725D02*
X583891Y403641D01*
X585872Y404725D02*
X583891D01*
Y398250D02*
Y404725D01*
X588100Y398250D02*
X583891Y402460D01*
X527893Y382090D02*
X514552Y395430D01*
X529011D02*
X515670Y382090D01*
X523650D02*
X510310Y395430D01*
X524768D02*
X511428Y382090D01*
X561303Y395430D02*
X497294D01*
X552777Y386904D02*
X544251Y395430D01*
X548555Y382641D02*
X535765Y395430D01*
X550656Y384783D02*
X540008Y395430D01*
X506680Y382090D02*
X497294Y391476D01*
X510922Y382090D02*
X497582Y395430D01*
X484010Y377377D02*
Y390977D01*
X484514Y376537D02*
Y391590D01*
X515165Y382090D02*
X501824Y395430D01*
X519408Y382090D02*
X506067Y395430D01*
X516283D02*
X497733Y376881D01*
X512040Y395430D02*
X497733Y381123D01*
X503850Y380677D02*
X497294Y387234D01*
X532630Y382090D02*
X503850D01*
Y376434D02*
X497439Y382845D01*
X503850Y372626D02*
Y382090D01*
X537496Y395430D02*
X524156Y382090D01*
X541739Y395430D02*
X528398Y382090D01*
X547690Y375020D02*
X527280Y395430D01*
X545981D02*
X532630Y382079D01*
X547690Y379263D02*
X531523Y395430D01*
X550224D02*
X532630Y377837D01*
X558709Y395430D02*
X532630Y369351D01*
X554467Y395430D02*
X532630Y373594D01*
X520526Y395430D02*
X507185Y382090D01*
X532135D02*
X518795Y395430D01*
X532630Y352310D02*
Y382090D01*
X533254Y395430D02*
X519913Y382090D01*
X547690Y370778D02*
X523038Y395430D01*
X623963Y435228D02*
X606147Y417413D01*
X622604Y410415D02*
X606272Y426748D01*
X625807Y432830D02*
X598983Y406006D01*
X620252Y408525D02*
X606272Y422505D01*
X630799Y410706D02*
X606272Y435233D01*
X635041Y410706D02*
X606272Y439476D01*
X627998Y430778D02*
X603226Y406006D01*
X626556Y410706D02*
X606272Y430990D01*
X603308Y411877D02*
X601769Y410482D01*
X604944Y413972D02*
X604291Y412995D01*
X601343Y410150D02*
X597892Y407844D01*
X601558Y406006D02*
X598987Y408576D01*
X605734Y415694D02*
X605284Y414608D01*
X606172Y417537D02*
X605943Y416383D01*
X613445Y406846D02*
X605401Y414891D01*
X617034Y407500D02*
X606249Y418285D01*
X632692Y477899D02*
X606941Y452148D01*
X608709Y458071D02*
X607091Y453091D01*
X606272Y447918D01*
X621429Y441289D02*
X607713Y455005D01*
X641848Y478569D02*
X606272Y442993D01*
X637605Y478569D02*
X606272Y447235D01*
X645553Y478031D02*
X606272Y438750D01*
X647769Y410706D02*
X606857Y451618D01*
X620993Y444986D02*
X606272Y430265D01*
Y445300D02*
Y447918D01*
Y418841D02*
Y445300D01*
X621449Y441200D02*
X606272Y426022D01*
X622489Y437996D02*
X606272Y421780D01*
X621538Y449774D02*
X606272Y434507D01*
X639284Y410706D02*
X606272Y443718D01*
X643527Y410706D02*
X606277Y447955D01*
X590280Y405220D02*
X588664Y404898D01*
X590280Y404555D02*
X589726Y405109D01*
X589571Y405078D02*
X583891Y399399D01*
X590280Y399384D02*
Y405220D01*
X603881Y406006D02*
X593639D01*
X597315D02*
X596238Y407083D01*
X597257Y407505D02*
X593639Y406006D01*
X595520Y406785D02*
X594741Y406006D01*
X588127Y404832D02*
X586052Y404730D01*
X590280Y401546D02*
X586985Y398250D01*
X589147D02*
X583891D01*
X590280Y399384D02*
X589147Y398250D01*
X590280Y400312D02*
X585867Y404725D01*
X603881Y393562D02*
X595914D01*
X597258Y394906D02*
X595914Y393562D01*
X597031D02*
X596473Y394120D01*
X603881Y394906D02*
Y406006D01*
X610270Y397293D02*
X603881Y403683D01*
X610270Y400322D02*
X603510Y393562D01*
X610259Y393062D02*
X603881Y399440D01*
X610270Y405778D02*
X603731Y412318D01*
X630541Y429079D02*
X603881Y402418D01*
X610270Y401536D02*
X601499Y410307D01*
X610270Y404565D02*
X603881Y398175D01*
Y394906D02*
X597258D01*
X601274Y393562D02*
X599930Y394906D01*
X600611D02*
X599267Y393562D01*
X606016Y393062D02*
X603881Y395198D01*
X610270Y396080D02*
X607253Y393062D01*
X611110D02*
X607495D01*
X603881D01*
X484010Y377377D02*
X472910D01*
X484662Y376537D02*
X482090Y373966D01*
X484439D02*
X478751D01*
X484439Y372626D02*
Y373966D01*
X487633Y376537D02*
X484514D01*
X487633Y373966D02*
X485043D01*
X485105D02*
X481694Y377377D01*
X486333Y373966D02*
X485043Y372676D01*
X484439Y361186D02*
Y362526D01*
X485043Y361300D02*
X484439Y361904D01*
Y361186D02*
X478751D01*
X485043Y361186D02*
Y362526D01*
X500323Y361186D02*
X485043D01*
Y372626D02*
Y373966D01*
X485883Y360460D02*
X485157Y361186D01*
X490275Y360682D02*
X485883D01*
X487633Y375681D02*
X486776Y376537D01*
X487633Y373966D02*
Y376537D01*
Y375266D02*
X486333Y373966D01*
X503416Y372626D02*
X497733Y378309D01*
Y373966D02*
Y381148D01*
X500323Y372626D02*
Y373966D01*
X499483Y360682D02*
X495092D01*
X500323Y373966D02*
X497733D01*
X503850Y372626D02*
X500323D01*
Y362500D02*
X499009Y361186D01*
X500323D02*
Y362526D01*
X485883Y356545D02*
X483599Y354261D01*
X485883Y356217D02*
X483599Y358502D01*
X485883Y352303D02*
X483599Y350019D01*
X485883Y351975D02*
X483599Y354259D01*
X486281Y361186D02*
X483599Y358504D01*
X487633Y349582D02*
X485883D01*
X487633Y345982D02*
X483599Y350016D01*
X485883Y349582D02*
Y360682D01*
X487633Y341740D02*
X481849Y347524D01*
X487405Y349582D02*
X481849Y344026D01*
X487634Y341325D02*
X480687Y334379D01*
X487633Y345567D02*
X481404Y339338D01*
X488015Y332872D02*
X481448Y339439D01*
X488795Y336335D02*
X481849Y343281D01*
X488512Y329050D02*
X480687D01*
X488770Y338219D02*
X480687Y330136D01*
X497733Y345299D02*
Y349582D01*
X499483Y345299D02*
X497733D01*
X487633Y341411D02*
Y349582D01*
X499483Y334149D02*
Y345299D01*
Y359588D02*
X498389Y360682D01*
X503850Y355221D02*
X499483Y359588D01*
Y349582D02*
X497733D01*
X499483D02*
Y360682D01*
X488795Y334866D02*
Y338188D01*
X500323Y329050D02*
X499664Y329709D01*
X503850Y378755D02*
X499061Y373966D01*
X503850Y374512D02*
X501964Y372626D01*
X503850Y359464D02*
X500788Y362526D01*
X503850Y352310D02*
Y362526D01*
X547690Y349565D02*
X532630Y364625D01*
X503850Y361785D02*
X499483Y357417D01*
X503850Y362526D02*
X500323D01*
X503850Y353299D02*
X497733Y347182D01*
X503850Y357542D02*
X499483Y353175D01*
X532630Y352310D02*
X503850D01*
X547690Y345322D02*
X532630Y360382D01*
X507104Y352310D02*
X499483Y344689D01*
X547690Y341079D02*
X532630Y356139D01*
X547690Y362293D02*
X532630Y377352D01*
X547690Y366535D02*
X532630Y381595D01*
X547690Y358050D02*
X532630Y373110D01*
X547690Y375926D02*
X532630Y360866D01*
X608700Y373297D02*
X607940Y372537D01*
X608700Y373407D02*
X607940Y374167D01*
X547690Y380169D02*
X532630Y365109D01*
X607940Y352415D02*
Y374382D01*
X547690Y353807D02*
X532630Y368867D01*
X547690Y371684D02*
X532630Y356623D01*
X547690Y367441D02*
X532630Y352381D01*
X608480Y352415D02*
X607940Y352954D01*
X608700Y364922D02*
X607940Y365682D01*
X608700Y364922D02*
X607940Y365682D01*
X608700Y360569D02*
X607940Y359809D01*
X608700Y364811D02*
X607940Y364051D01*
X515589Y352310D02*
X499483Y336204D01*
X511346Y352310D02*
X499483Y340447D01*
X514866Y335720D02*
X499483Y351103D01*
X519109Y335720D02*
X499483Y355345D01*
X524074Y352310D02*
X507484Y335720D01*
X527594D02*
X511004Y352310D01*
X519832D02*
X499956Y332435D01*
X523351Y335720D02*
X506761Y352310D01*
X504665Y332901D02*
X500814Y329050D01*
X504665D02*
Y335720D01*
Y329050D02*
X499483D01*
X504565D02*
X499496Y334119D01*
X510623Y335720D02*
X497733Y348610D01*
X528815Y335720D02*
X504665D01*
Y333193D02*
X499483Y338375D01*
X506381Y335720D02*
X499483Y342617D01*
X546299Y333986D02*
X527974Y352310D01*
X547690Y336837D02*
X532217Y352310D01*
X542056Y329743D02*
X519489Y352310D01*
X544177Y331865D02*
X523732Y352310D01*
X547690Y363198D02*
X520212Y335720D01*
X547690Y358955D02*
X524455Y335720D01*
X547690Y354713D02*
X528697Y335720D01*
X547690Y335378D02*
Y380140D01*
X528317Y352310D02*
X511727Y335720D01*
X532559Y352310D02*
X515970Y335720D01*
X528815Y334498D02*
X527594Y335720D01*
X547690Y350470D02*
X528815Y331595D01*
X555465Y329062D02*
X554147Y330380D01*
X617867Y470676D02*
X614164Y466973D01*
X622104Y473754D02*
X617867Y470676D01*
X614164Y466973D02*
X611086Y462737D01*
X625977Y457954D02*
X615561Y468370D01*
X630770Y461646D02*
X620110Y472306D01*
X626770Y476131D02*
X622104Y473754D01*
X626592Y476041D02*
X608800Y458249D01*
X628196Y459977D02*
X617682Y470491D01*
X611086Y462737D02*
X608709Y458071D01*
X622596Y452850D02*
X611769Y463676D01*
X621002Y445959D02*
X608770Y458190D01*
X621516Y449687D02*
X610202Y461001D01*
X624103Y455585D02*
X613554Y466134D01*
X636888Y426940D02*
X617519Y407571D01*
X636922Y478569D02*
X631750Y477749D01*
X642159Y478569D02*
X636922D01*
X631750Y477749D02*
X626770Y476131D01*
X641386Y463758D02*
X628463Y476682D01*
X647331Y477749D02*
X642159Y478569D01*
X652311Y476131D02*
X647331Y477749D01*
X647186Y462201D02*
X631665Y477722D01*
X648978Y477214D02*
X635067Y463302D01*
X633739Y462920D02*
X622635Y474024D01*
X637200Y463702D02*
X625445Y475457D01*
X640998Y426807D02*
X624897Y410706D01*
X646564Y428131D02*
X629139Y410706D01*
X652181Y476174D02*
X639854Y463847D01*
X655007Y474758D02*
X643641Y463391D01*
X652012Y410706D02*
X635529Y427189D01*
X656254Y410706D02*
X640199Y426762D01*
X615112Y406846D02*
X610270D01*
Y394066D02*
Y406846D01*
X633475Y427770D02*
X612551Y406846D01*
X621238Y409511D02*
X619266Y407539D01*
X625550Y394066D02*
Y402369D01*
X631940Y392594D02*
X625550Y398984D01*
X631940Y400779D02*
X625550Y394389D01*
X631940Y396536D02*
X624710Y389307D01*
X631940Y388351D02*
X625550Y394741D01*
X631940Y402606D02*
X625788D01*
X631940Y401079D02*
X630413Y402606D01*
X629524D02*
X625550Y398632D01*
X631940Y396836D02*
X626171Y402606D01*
X631940Y394906D02*
Y402606D01*
X656968Y392406D02*
Y401622D01*
X638592Y394906D02*
X631940D01*
X638719Y394830D02*
X637944Y394055D01*
X634552Y394906D02*
X633208Y393562D01*
X635215D02*
X633871Y394906D01*
X638905Y394115D02*
X638113Y394906D01*
X645868Y394156D02*
X641240D01*
X642288D02*
X641694Y393562D01*
X643700D02*
X643106Y394156D01*
X657712Y473220D02*
X646844Y462352D01*
X656977Y473754D02*
X652311Y476131D01*
X660169Y471435D02*
X649612Y460877D01*
X662433Y469456D02*
X652010Y459033D01*
X672548Y449567D02*
X643807Y478308D01*
X671375Y454982D02*
X649222Y477135D01*
X672913Y440716D02*
X635315Y478314D01*
X672913Y444959D02*
X639303Y478569D01*
X664555Y467335D02*
X654062Y456842D01*
X666397Y464935D02*
X655761Y454299D01*
X672913Y415261D02*
X654218Y433956D01*
X672913Y419503D02*
X655886Y436530D01*
X672913Y441752D02*
X641867Y410706D01*
X672913Y411018D02*
X652195Y431736D01*
X661213Y470676D02*
X656977Y473754D01*
X664916Y466973D02*
X661213Y470676D01*
X668130Y462470D02*
X656710Y473890D01*
X667994Y462737D02*
X664916Y466973D01*
X670372Y458071D02*
X667994Y462737D01*
X671990Y453091D02*
X670372Y458071D01*
X668145Y462440D02*
X657071Y451365D01*
X669577Y459630D02*
X657900Y447952D01*
X672815Y447879D02*
X671990Y453091D01*
X672873Y445139D02*
X672815Y447879D01*
X671876Y453442D02*
X656709Y438276D01*
X670835Y456645D02*
X658033Y443842D01*
X672913Y436474D02*
X656442Y452945D01*
X672913Y432231D02*
X657998Y447146D01*
X672913Y423746D02*
X657160Y439499D01*
X672913Y427989D02*
X657942Y442960D01*
X672506Y449830D02*
X633382Y410706D01*
X672856Y445938D02*
X637625Y410706D01*
X664357Y406846D02*
X643927Y427276D01*
X668600Y406846D02*
X647090Y428356D01*
X672913Y437509D02*
X646110Y410706D01*
X672913Y433267D02*
X650352Y410706D01*
X672913Y406775D02*
X649826Y429863D01*
X672913Y429024D02*
X654595Y410706D01*
X657662D02*
X624110D01*
X657472Y391566D02*
Y401119D01*
X672913Y424781D02*
X658702Y410570D01*
X672913Y420539D02*
X661210Y408836D01*
X663200Y406846D02*
X660534Y409511D01*
X670252Y406846D02*
X663200D01*
X670252Y405193D02*
X668600Y406846D01*
X670252Y391566D02*
Y406846D01*
X672913Y416296D02*
X663463Y406846D01*
X672913Y412053D02*
X667706Y406846D01*
X672913Y407811D02*
X670252Y405150D01*
X672913Y378522D02*
Y444960D01*
Y394047D02*
X670252Y396708D01*
X672913Y399325D02*
X670252Y396665D01*
X672913Y395083D02*
X670252Y392422D01*
X672913Y403568D02*
X670252Y400907D01*
X672913Y402533D02*
X670252Y405193D01*
X672913Y398290D02*
X670252Y400951D01*
X616486Y394066D02*
X610270D01*
X622108Y382462D02*
X616011Y376364D01*
X623554Y375524D02*
X616616Y382462D01*
X624710Y393562D02*
X611110D01*
X625550Y394066D02*
X620051D01*
X631940Y388051D02*
X620253Y376364D01*
X627796Y375524D02*
X620859Y382462D01*
X608700Y369054D02*
X607940Y368294D01*
X608700Y369165D02*
X607940Y369925D01*
X624710Y382462D02*
X614509D01*
X617866D02*
X614807Y379403D01*
X621480Y376364D02*
X613372D01*
X618471D02*
X614870Y379965D01*
X631940Y384109D02*
X624710Y391338D01*
X631940Y392294D02*
X624710Y385064D01*
X631940Y383809D02*
X623656Y375524D01*
X624710Y382462D02*
Y393562D01*
X631940Y382462D02*
Y393562D01*
X633208D02*
X631940Y392294D01*
X632039Y375524D02*
X624710Y382853D01*
X634836Y382462D02*
X627899Y375524D01*
X622240Y372595D02*
X621480Y373355D01*
X622240Y374109D02*
X621480Y373349D01*
X622240Y368353D02*
X621480Y369113D01*
X622240Y369866D02*
X621480Y369106D01*
X633340Y375524D02*
X622240D01*
X633340Y374223D02*
X632039Y375524D01*
X622240Y365791D02*
Y375524D01*
X623656D02*
X622240Y374109D01*
X608700Y352415D02*
Y374317D01*
X621480Y352415D02*
Y376364D01*
X622106Y365489D02*
X621480Y364863D01*
X608700Y356437D02*
X607940Y357197D01*
X608700Y360680D02*
X607940Y361440D01*
X608700Y356326D02*
X607940Y355566D01*
X622240Y355625D02*
X621480Y356385D01*
X622240Y359867D02*
X621480Y360627D01*
X622240Y357138D02*
X621480Y356378D01*
X622240Y352415D02*
Y360573D01*
X633340Y351268D02*
X632797Y350724D01*
X633340D02*
Y360997D01*
X628554Y350724D02*
X627130Y349300D01*
X633340Y350724D02*
X627130D01*
X633340Y365367D02*
Y375524D01*
X634057Y343808D02*
X627141Y350724D01*
X636178Y345929D02*
X631383Y350724D01*
X630198Y343424D02*
X627130Y346492D01*
X630198Y343424D02*
X627130Y346492D01*
X628125Y333324D02*
X627130Y332330D01*
Y343424D02*
Y350724D01*
X633674Y343424D02*
X627130D01*
X632797Y350724D02*
X627130Y345057D01*
X635765Y333324D02*
X627130D01*
X645540Y393562D02*
X641326D01*
X636269D02*
X631940D01*
X645540Y382462D02*
Y393562D01*
X645868Y392406D02*
Y394156D01*
X656968Y392406D02*
X645868D01*
X649023D02*
X645540Y388923D01*
X658812Y382692D02*
X649099Y392406D01*
X636516Y382462D02*
X631940D01*
X645540D02*
X641078D01*
X648176Y380600D02*
X645540Y383236D01*
X656622Y380639D02*
X645540Y391722D01*
X653266Y392406D02*
X645540Y384681D01*
X657472Y392370D02*
X644996Y379894D01*
X652380Y380639D02*
X645540Y387479D01*
X658424Y391566D02*
X657472Y392518D01*
X658812Y391566D02*
X657472D01*
X658812Y386935D02*
X653341Y392406D01*
X658812Y380639D02*
Y391566D01*
X670252D02*
X668912D01*
X670252Y392422D02*
X669396Y391566D01*
X668912Y380312D02*
Y391566D01*
X672913Y389805D02*
X670252Y392466D01*
X658812Y389467D02*
X649984Y380639D01*
X658812Y385225D02*
X654227Y380639D01*
X658812D02*
X649140D01*
X669991Y379999D02*
X668912Y381078D01*
X672913Y385562D02*
X668912Y389563D01*
X672913Y390840D02*
X668912Y386839D01*
X672913Y381320D02*
X668912Y385320D01*
X672913Y386598D02*
X668912Y382597D01*
X637996Y372894D02*
X633340Y368238D01*
X637342Y370222D02*
X633340Y374223D01*
X637250Y366071D02*
X633340Y369981D01*
X637250Y367905D02*
X633645Y364300D01*
X638635Y382018D02*
X632141Y375524D01*
X639863Y376186D02*
X633587Y382462D01*
X638260Y373546D02*
X624710Y387096D01*
X643322Y382462D02*
X633340Y372481D01*
X637250Y359420D02*
X633340Y355510D01*
X637250Y357585D02*
X633470Y361366D01*
X637250Y355177D02*
X633340Y351268D01*
X637250Y353343D02*
X633340Y357253D01*
X637250Y363663D02*
X633340Y359753D01*
X637250Y361828D02*
X633340Y365738D01*
X637276Y350961D02*
X629740Y343424D01*
X637647Y348703D02*
X633340Y353010D01*
X642020Y378272D02*
X638251Y382040D01*
X644739Y379795D02*
X642072Y382462D01*
X637250Y351749D02*
Y368750D01*
X672913Y382355D02*
X670406Y379848D01*
X673224Y378299D02*
X673224Y386999D01*
X637958Y347709D02*
X633674Y343424D01*
X640140Y329240D02*
X636047Y333332D01*
X640140Y333482D02*
X639068Y334554D01*
X640140Y335608D02*
X639343Y334810D01*
X640140Y333482D02*
X639068Y334554D01*
X487595Y329050D02*
X480687Y335958D01*
X488125Y333331D02*
X483844Y329050D01*
X499483Y303623D02*
Y318950D01*
X503442D02*
X499483Y314991D01*
X504665Y318950D02*
X499483D01*
X504665Y316222D02*
X501937Y318950D01*
X504665Y311980D02*
X499483Y317162D01*
X504665Y302680D02*
Y318950D01*
X499483Y303623D02*
X490925D01*
X492358D02*
X491628Y302894D01*
X493932Y301499D02*
X491809Y303623D01*
X497293Y301499D02*
X493023D01*
X504665Y307737D02*
X499483Y312919D01*
X504665Y315931D02*
X499483Y310748D01*
X504665Y303494D02*
X499483Y308676D01*
X504665Y311688D02*
X499483Y306506D01*
X534213Y321900D02*
X528815D01*
X535692Y323379D02*
X528815Y330256D01*
Y321900D02*
Y335720D01*
X532928Y321900D02*
X528815Y326013D01*
X539935Y327622D02*
X515246Y352310D01*
X537813Y325500D02*
X528815Y334498D01*
X513190Y302680D02*
X504665D01*
X528815D02*
X520290D01*
X505480D02*
X504665Y303494D01*
X521113Y302680D02*
X520290Y301857D01*
X532234Y313801D02*
X528815Y310382D01*
X535891Y313801D02*
X528815D01*
Y302680D02*
Y313801D01*
X536527Y313851D02*
X528815Y306139D01*
X493023Y301499D02*
X490925Y303597D01*
X496600Y303623D02*
X494477Y301499D01*
X502949Y296725D02*
X496051Y303623D01*
X497293Y286446D02*
Y301499D01*
X504665Y307445D02*
X497293Y300073D01*
X504945Y298972D02*
X499483Y304434D01*
X508385Y302680D02*
X497293Y291588D01*
X504665Y303203D02*
X497293Y295831D01*
X484513Y286446D02*
Y295725D01*
X502340Y293092D02*
X497293Y298138D01*
X501710Y289479D02*
X497293Y293895D01*
X513190Y299212D02*
X509722Y302680D01*
X512628D02*
X509778Y299830D01*
X513190Y297556D02*
Y302680D01*
X520290Y297971D02*
Y302680D01*
X525356D02*
X520468Y297792D01*
X533539Y291591D02*
X522450Y302680D01*
X544598Y284775D02*
X526693Y302680D01*
X545951Y287664D02*
X528815Y304800D01*
X508156Y300004D02*
X505480Y302680D01*
X513190Y299000D02*
X512514Y298324D01*
X515448Y292772D02*
X513511Y290835D01*
X527412Y290849D02*
X520290Y297971D01*
X529373Y291514D02*
X520290Y300597D01*
X522372Y285787D02*
X514376Y293784D01*
X522391Y285829D02*
X514377Y293843D01*
X547690Y341985D02*
X528815Y323110D01*
X547690Y346228D02*
X528815Y327353D01*
X547690Y337742D02*
X531848Y321900D01*
X547690Y335378D02*
X534213Y321900D01*
X555465Y320576D02*
X549905Y326137D01*
X555465Y324819D02*
X552026Y328258D01*
X554596Y330828D02*
X538763Y314995D01*
X555465Y302680D02*
Y332110D01*
Y312091D02*
X545662Y321894D01*
X555465Y316334D02*
X547784Y324016D01*
X555465Y303606D02*
X541419Y317652D01*
X555465Y307848D02*
X543541Y319773D01*
X556471Y302600D02*
X555465Y303606D01*
X564513Y302600D02*
X555590D01*
X562227Y301087D02*
X560714Y302600D01*
X596840Y317385D02*
X595240Y318985D01*
X596840Y319010D02*
X595240Y317410D01*
Y301224D02*
Y324334D01*
X596840Y314767D02*
X595240Y313167D01*
X596840Y323253D02*
X595240Y321653D01*
X596840Y324334D02*
X595240D01*
X596840Y321628D02*
X595240Y323228D01*
X596840Y301224D02*
Y324334D01*
Y304657D02*
X595240Y306257D01*
X596840Y306282D02*
X595240Y304682D01*
X594740Y300110D02*
Y301224D01*
X596840Y310525D02*
X595240Y308925D01*
X596840Y313143D02*
X595240Y314743D01*
X596840Y308900D02*
X595240Y310500D01*
X607940Y301224D02*
X596840D01*
X555465Y315819D02*
X531414Y291768D01*
X553742Y292602D02*
X532543Y313801D01*
X555465Y320061D02*
X526832Y291429D01*
X550511Y291590D02*
X528815Y313285D01*
X555465Y328547D02*
X522590Y295671D01*
X557984Y296844D02*
X539298Y315530D01*
X555465Y324304D02*
X524711Y293550D01*
X555863Y294723D02*
X536703Y313883D01*
X547934Y289924D02*
X528815Y309043D01*
X555465Y311576D02*
X535065Y291176D01*
X555465Y307334D02*
X537814Y289682D01*
X555465Y303091D02*
X539903Y287529D01*
X562504Y301364D02*
X553649Y292509D01*
X560106Y298965D02*
X556471Y302600D01*
X559217D02*
X541324Y284707D01*
X563460Y302600D02*
X553318Y292458D01*
X596181Y296831D02*
X594486Y298526D01*
X596840Y302040D02*
X594737Y299937D01*
X600268Y301224D02*
X595816Y296773D01*
X604510Y301224D02*
X599676Y296390D01*
X600865D02*
X595240Y302015D01*
X610312Y291185D02*
X600273Y301224D01*
X594504Y296390D02*
X593112D01*
X569451Y284450D02*
Y292750D01*
X604721Y296390D02*
X599657D01*
X484513Y287293D02*
X483509Y286289D01*
X485853Y286446D02*
X484513D01*
Y285462D02*
X483509Y286466D01*
X497293Y286219D02*
X495953D01*
X497293Y287346D02*
X496394Y286446D01*
X499689Y287257D02*
X497293Y289653D01*
Y286446D02*
X495953D01*
X497293Y285410D02*
X496485Y286219D01*
X485853D02*
X484513D01*
X498039Y280422D02*
X497293Y281168D01*
X498280Y284089D02*
X497293Y283103D01*
X498350Y284354D02*
X497293Y285410D01*
X499281Y276605D02*
X497293Y274618D01*
X498147Y279714D02*
X497293Y278860D01*
X514016Y289901D02*
X513344Y290573D01*
X517569Y290651D02*
X515518Y288600D01*
X502454Y292506D02*
X497293Y287346D01*
X519691Y288529D02*
X517261Y286100D01*
X521503Y282414D02*
X516441Y287476D01*
X521812Y286408D02*
X518235Y282832D01*
X521473Y281826D02*
X517655Y278009D01*
X544148Y280982D02*
X541632Y283498D01*
X522469Y277206D02*
X518308Y281367D01*
X544282Y283423D02*
X541788Y280928D01*
X484513Y272174D02*
Y286219D01*
X497293Y272174D02*
Y286219D01*
X522064Y278175D02*
X516063Y272174D01*
X504321D02*
X497293D01*
X514772D02*
X513798Y273149D01*
X502044Y272174D02*
X497293Y276925D01*
X501141Y274222D02*
X499093Y272174D01*
X527821D02*
X511960D01*
X523558Y275427D02*
X520306Y272174D01*
X519015D02*
X516019Y275170D01*
X523257Y272174D02*
X517590Y277841D01*
X544470Y272174D02*
X540330Y276315D01*
X545545Y276200D02*
X541519Y272174D01*
X544378Y279276D02*
X537277Y272174D01*
X548713D02*
X541554Y279333D01*
X549450Y272174D02*
X535460D01*
X547379Y273791D02*
X545762Y272174D01*
X525711Y273337D02*
X524549Y272174D01*
X540228D02*
X538400Y274002D01*
X564564Y274006D02*
X562733Y272174D01*
X565684D02*
X563852Y274006D01*
X568174Y292750D02*
X563810Y288386D01*
X569451Y285378D02*
X565126Y289702D01*
X568611Y281975D02*
X565625Y284961D01*
X569451Y287378D02*
X565919Y283846D01*
X569451Y289620D02*
X567247Y291824D01*
X569451Y292750D02*
X568174D01*
X569451Y291621D02*
X564769Y286939D01*
X570378Y284450D02*
X569451Y285378D01*
X568611Y282295D02*
X567421Y281106D01*
X568611D02*
Y283946D01*
Y274006D02*
X563112D01*
X568611Y281106D02*
X566139D01*
X573790Y283946D02*
X568611D01*
X581949Y284450D02*
X569451D01*
X570261Y283946D02*
X568611Y282295D01*
X583051Y285552D02*
Y286331D01*
X589440Y291942D02*
X583051Y285552D01*
X581949Y284450D01*
X589440Y292718D02*
X583158Y286436D01*
X589440Y291942D02*
Y292718D01*
X581445Y283946D02*
X578713D01*
X604721Y283610D02*
X599657D01*
X590280Y277276D02*
X589669Y277887D01*
X603881Y283106D02*
X599436D01*
X568611Y272174D02*
Y274006D01*
X590280Y278498D02*
X585729Y273947D01*
X590280Y273033D02*
X587548Y275766D01*
X590280Y274267D02*
X588188Y272174D01*
X585520Y273749D02*
X583946Y272174D01*
X586897D02*
X585414Y273657D01*
X568611Y272174D02*
X560831D01*
X568611Y273810D02*
X566975Y272174D01*
X589908D02*
X583891D01*
X591198Y272115D02*
X590280Y273033D01*
X592049Y272006D02*
X590280D01*
X591326Y272109D02*
X590280Y272161D01*
Y278498D01*
X594620Y272006D02*
X592049D01*
X600748D02*
X598444Y269703D01*
X603881Y272006D02*
X599344D01*
X605490Y272506D02*
X600888Y267903D01*
X626706Y245093D02*
X599793Y272006D01*
X609733Y272506D02*
X602895Y265668D01*
X594292Y271560D02*
X592049Y272006D01*
X597072Y270485D02*
X595940Y271616D01*
X597269Y270403D02*
X594981Y271351D01*
X599963Y268688D02*
X597904Y270064D01*
X601308Y267523D02*
X600389Y268355D01*
X602385Y266361D02*
X601563Y267268D01*
X604076Y263902D02*
X602717Y265935D01*
X609040Y313670D02*
X607940Y314771D01*
X609540Y318982D02*
X607940Y317382D01*
Y301224D02*
Y324334D01*
X609075Y314275D02*
X607940Y313140D01*
X609540Y321656D02*
X607940Y323256D01*
X609540Y324334D02*
X607940D01*
X609540Y317413D02*
X607940Y319013D01*
X609540Y323225D02*
X607940Y321625D01*
X609540Y304685D02*
X607940Y306285D01*
X609540Y310497D02*
X607940Y308897D01*
X609540Y302012D02*
X603919Y296390D01*
X609540Y306254D02*
X607940Y304654D01*
X610040Y299943D02*
X607940Y302043D01*
X609540Y308928D02*
X607940Y310528D01*
X610040Y295700D02*
X604516Y301224D01*
X610040Y298269D02*
X604721Y292949D01*
X609540Y316033D02*
Y324334D01*
X627130Y326025D02*
Y333324D01*
X633340Y326025D02*
X627130D01*
X632368Y333324D02*
X627130Y328087D01*
X630627Y326025D02*
X627130Y329522D01*
X633340Y301224D02*
Y326025D01*
X609540Y301224D02*
Y311216D01*
X631940Y295013D02*
X631340Y295613D01*
X610040Y292820D02*
Y301224D01*
X631940Y294713D02*
X631340Y294113D01*
X633340Y301224D02*
X631340D01*
X636477Y295550D02*
X631940D01*
X635646D02*
X631340Y299856D01*
X632777Y295550D02*
X631940Y294713D01*
X610657Y290401D02*
X604721Y284464D01*
X610040Y294026D02*
X604721Y288707D01*
X610406Y282606D02*
X604721Y288292D01*
Y283610D02*
Y296390D01*
X611110Y286145D02*
X604721Y292534D01*
X611110Y284450D02*
Y289712D01*
X604721Y284464D02*
X603867Y283610D01*
X611110Y286611D02*
X607105Y282606D01*
X611110D02*
X603881D01*
X606164D02*
X604721Y284049D01*
X624710Y283106D02*
X611110D01*
X624710Y284450D02*
X611110D01*
X613192D02*
X611848Y283106D01*
X614149D02*
X612805Y284450D01*
X631340Y288620D02*
Y301224D01*
X624710Y284450D02*
Y285385D01*
X631940Y290471D02*
X631340Y289870D01*
X631940Y290770D02*
X631340Y291371D01*
X631940Y288020D02*
X631340Y288620D01*
X631940Y288020D02*
Y295550D01*
X621677Y284450D02*
X620333Y283106D01*
X622634D02*
X621290Y284450D01*
X617434D02*
X616090Y283106D01*
X618391D02*
X617048Y284450D01*
X625695Y284225D02*
X624576Y283106D01*
X626349Y283570D02*
X625283Y284637D01*
X636697Y333411D02*
X629310Y326025D01*
X639125Y317526D02*
X633340Y323312D01*
X640062Y319805D02*
X633340Y313084D01*
X638301Y314109D02*
X633340Y319069D01*
X640140Y324997D02*
X631813Y333324D01*
X640140Y328369D02*
X633340Y321569D01*
X640140Y320754D02*
X627570Y333324D01*
X640140Y324126D02*
X633340Y317326D01*
X638251Y313752D02*
X633340Y308841D01*
X638128Y310039D02*
X633340Y314826D01*
X638847Y305863D02*
X631340Y298356D01*
X638175Y309433D02*
X633340Y304599D01*
X639559Y295880D02*
X633340Y302098D01*
X639218Y304706D02*
X633340Y310584D01*
X640016Y302789D02*
X632777Y295550D01*
X644131D02*
X633340Y306341D01*
X640140Y332612D02*
X633340Y325812D01*
X640140Y319965D02*
Y335608D01*
X641577Y300107D02*
X637260Y295791D01*
X643481Y297769D02*
X641262Y295550D01*
X645540Y286950D02*
Y295550D01*
X640804D01*
X645540Y294141D02*
X644131Y295550D01*
X651223Y292783D02*
X645540Y287100D01*
X648282Y294085D02*
X645540Y291343D01*
X672913Y293750D02*
X666355D01*
X672913Y292224D02*
X671388Y293750D01*
X672913Y287981D02*
X667145Y293750D01*
X673225Y290501D02*
X673225Y293750D01*
X654617Y291935D02*
X648936Y286253D01*
X649833Y285606D02*
X645540Y289898D01*
X654075Y285606D02*
X645540Y294141D01*
X662561Y285606D02*
X656430Y291737D01*
X663895Y292727D02*
X656774Y285606D01*
X658318D02*
X651097Y292827D01*
X658651Y291726D02*
X652532Y285606D01*
X646824Y286950D02*
X645540D01*
X656968Y285606D02*
X649639D01*
X658312Y282901D02*
X656968Y281558D01*
Y272006D02*
Y285606D01*
X658312Y281369D02*
X656968Y282713D01*
X669412Y285606D02*
X658312D01*
X669160Y293750D02*
X661017Y285606D01*
X666803D02*
X660499Y291910D01*
X669412Y281214D02*
Y285606D01*
X672913Y293260D02*
X665259Y285606D01*
X672913Y289017D02*
X669412Y285516D01*
X672913Y283739D02*
X663917Y292735D01*
X672913Y231700D02*
Y293750D01*
X658312Y281214D02*
Y285606D01*
X672913Y279496D02*
X669412Y282997D01*
X672913Y284774D02*
X669412Y281273D01*
X672913Y280532D02*
X669735Y277354D01*
X611110Y272506D02*
X603881D01*
X613476Y272006D02*
X604509Y263040D01*
X605351Y261008D02*
X604415Y263267D01*
X617718Y272006D02*
X605638Y259926D01*
X629046Y246996D02*
X603881Y272161D01*
X621961Y272006D02*
X606161Y256206D01*
X647417Y272006D02*
X606167Y230757D01*
X642334Y271166D02*
X606167Y234999D01*
X606037Y257921D02*
X605560Y260319D01*
X606163Y256162D02*
X606103Y257384D01*
X606167Y229074D02*
Y231700D01*
Y255981D01*
X624711Y242845D02*
X604504Y263053D01*
X623073Y240240D02*
X606112Y257202D01*
X621126Y229460D02*
X606167Y244418D01*
X621101Y233727D02*
X606167Y248661D01*
X623913Y272006D02*
X611110D01*
X631750Y248535D02*
X607778Y272506D01*
X638546Y250223D02*
X616764Y272006D01*
X646380Y271166D02*
Y272006D01*
X634874Y249653D02*
X612521Y272006D01*
X643109Y249904D02*
X621006Y272006D01*
X628608Y270168D02*
X606167Y247727D01*
X625239Y271042D02*
X606167Y251970D01*
X621836Y237236D02*
X606167Y252904D01*
X633849Y271166D02*
X606167Y243485D01*
X650856Y246399D02*
X626866Y270389D01*
X646380Y271166D02*
X632170D01*
X638092D02*
X606167Y239242D01*
X651659Y272006D02*
X606517Y226864D01*
X606989Y223885D02*
X606167Y229074D01*
X622209Y238313D02*
X607183Y223287D01*
X621029Y232890D02*
X608224Y220085D01*
X621213Y228832D02*
X609510Y217128D01*
X622958Y223385D02*
X606167Y240176D01*
X634982Y198633D02*
X606474Y227142D01*
X639531Y198327D02*
X606167Y231690D01*
X643554Y198547D02*
X606167Y235933D01*
X608613Y218889D02*
X606989Y223885D01*
X610997Y214209D02*
X608613Y218889D01*
X614085Y209959D02*
X610997Y214209D01*
X617799Y206245D02*
X614085Y209959D01*
X622075Y225451D02*
X610942Y214318D01*
X623409Y222542D02*
X612714Y211847D01*
X629501Y199872D02*
X607712Y221661D01*
X621771Y203360D02*
X611200Y213930D01*
X625129Y220020D02*
X614577Y209467D01*
X627201Y217849D02*
X616698Y207346D01*
X629620Y216025D02*
X618981Y205386D01*
X632412Y214574D02*
X621438Y203601D01*
X635644Y213564D02*
X624161Y202081D01*
X650436Y200150D02*
X637300Y213286D01*
X644349Y213784D02*
X630207Y199642D01*
X647216Y199127D02*
X631225Y215118D01*
X622049Y203157D02*
X617799Y206245D01*
X626730Y200772D02*
X622049Y203157D01*
X631726Y199149D02*
X626730Y200772D01*
X636914Y198327D02*
X631726Y199149D01*
X639473Y213150D02*
X627005Y200683D01*
X647355Y199149D02*
X642167Y198327D01*
X636914D01*
X656968Y272006D02*
X646380D01*
X656968Y273072D02*
X655902Y272006D01*
X664387D02*
X642408Y250027D01*
X668630Y272006D02*
X645790Y249166D01*
X672913Y249798D02*
X650705Y272006D01*
X672913Y254040D02*
X654947Y272006D01*
X672913Y245555D02*
X646462Y272006D01*
X672913Y272046D02*
X648698Y247832D01*
X655902Y272006D02*
X632927Y249031D01*
X660145Y272006D02*
X638350Y250212D01*
X672913Y259319D02*
X655215Y241620D01*
X672913Y255076D02*
X656666Y238829D01*
X672913Y267804D02*
X651220Y246111D01*
X672913Y263561D02*
X653391Y244039D01*
X672913Y237070D02*
X638817Y271166D01*
X672913Y241312D02*
X643059Y271166D01*
X657844Y278190D02*
X656968Y277315D01*
X657960Y277479D02*
X656968Y278470D01*
X658312Y274416D02*
X656968Y273072D01*
X658312Y272006D02*
Y276398D01*
X672913Y276289D02*
X669412Y272788D01*
X672913Y275254D02*
X669889Y278277D01*
X672913Y271011D02*
X669412Y274512D01*
Y272006D02*
Y276398D01*
X658312Y272884D02*
X656968Y274228D01*
X669412Y272788D02*
X668630Y272006D01*
X659190D02*
X658312Y272884D01*
X669412Y272006D02*
X658312D01*
X672913Y262526D02*
X663433Y272006D01*
X672913Y266768D02*
X667675Y272006D01*
X672913Y250833D02*
X657676Y235597D01*
X672913Y258283D02*
X659190Y272006D01*
X672846Y228651D02*
X630925Y270573D01*
X672217Y224682D02*
X646558Y199023D01*
X672913Y238105D02*
X633652Y198844D01*
X672913Y232827D02*
X634574Y271166D01*
X672913Y233863D02*
X637378Y198327D01*
X672913Y229620D02*
X641620Y198327D01*
X653481Y201348D02*
X641568Y213261D01*
X656291Y202780D02*
X645076Y213995D01*
X652351Y200772D02*
X647355Y199149D01*
X657031Y203157D02*
X652351Y200772D01*
X661296Y206260D02*
X650685Y216871D01*
X663418Y208381D02*
X652934Y218866D01*
X658842Y204472D02*
X648081Y215233D01*
X670261Y218482D02*
X652758Y200979D01*
X672266Y224989D02*
X654239Y243016D01*
X671364Y221648D02*
X657744Y235268D01*
X668838Y215689D02*
X657494Y227033D01*
X670270Y218500D02*
X658064Y230706D01*
X672913Y246590D02*
X658090Y231768D01*
X672913Y229074D02*
Y231700D01*
Y242348D02*
X657456Y226891D01*
X672913Y229074D02*
X672091Y223885D01*
X665453Y210589D02*
X654836Y221205D01*
X667238Y213046D02*
X656375Y223909D01*
X661281Y206245D02*
X657031Y203157D01*
X664995Y209959D02*
X661281Y206245D01*
X670468Y218889D02*
X668083Y214209D01*
X672091Y223885D02*
X670468Y218889D01*
X668083Y214209D02*
X664995Y209959D01*
D60*
X617910Y400456D02*
Y402770D01*
X618140Y400686D02*
Y400722D01*
X618269D02*
X618140D01*
Y401843D01*
X624110Y406656D02*
X617910Y400456D01*
Y400456D02*
Y400456D01*
X657662Y406656D02*
X624110D01*
X618140Y403000D02*
X617910Y402770D01*
X618140Y400686D02*
X617910Y400456D01*
X571340Y394200D02*
Y394212D01*
Y394200D02*
X565801D01*
X581826Y394212D02*
X571340D01*
X565801Y394200D02*
X551740Y380140D01*
X590825Y394200D02*
X581838D01*
X581826Y394212D01*
X597080Y400456D02*
X590825Y394200D01*
X518133Y317850D02*
X517142Y318841D01*
X551740Y333700D02*
X535891Y317850D01*
X518133D01*
X551740Y333700D02*
Y380140D01*
X227676Y333736D02*
Y341839D01*
X218515Y324575D02*
X200914D01*
X227676Y333736D02*
X218515Y324575D01*
X320637Y342922D02*
Y352130D01*
X467226Y305677D02*
X455664Y317239D01*
X307771Y273550D02*
Y286155D01*
X307005Y286920D01*
X307771Y273438D02*
X286565D01*
X315719D02*
X307771D01*
X308137Y286460D02*
Y323714D01*
Y286460D02*
X308006Y286329D01*
X299414Y348000D02*
X289502D01*
X301264Y346150D02*
X299414Y348000D01*
X318137Y289927D02*
Y323714D01*
X323137Y280857D02*
X315719Y273438D01*
X342740Y278713D02*
Y326866D01*
X286565Y273438D02*
X283175Y276828D01*
X291999Y280138D02*
X291740Y280398D01*
Y330073D01*
X323137Y280857D02*
Y323714D01*
X467226Y305677D02*
Y359253D01*
X475549Y367576D02*
X467226Y359253D01*
X227732Y383231D02*
X226630Y384334D01*
X227732Y341894D02*
Y383231D01*
Y341894D02*
X227676Y341839D01*
X476174Y367576D02*
X475549D01*
X476799D02*
X476174D01*
X469930Y302973D02*
X467226Y305677D01*
X200914Y324575D02*
X200742Y324403D01*
X482535Y302973D02*
X469930D01*
X663862Y400456D02*
X657662Y406656D01*
X663862Y399206D02*
Y400456D01*
X283175Y276828D02*
Y278078D01*
X297090Y335422D02*
X291740Y330073D01*
X342740Y326866D02*
X334410Y335196D01*
X330071D01*
X329845Y335422D01*
X301429Y340422D02*
X301401Y340394D01*
X291791D02*
X291597Y340588D01*
X301401Y340394D02*
X291791D01*
X301429Y335422D02*
X297090D01*
X289502Y348000D02*
X282302Y340799D01*
Y339795D02*
Y340799D01*
X337286Y340422D02*
X329845D01*
X353029Y324679D02*
X352257D01*
X350220Y327488D02*
X337286Y340422D01*
X320637Y352130D02*
X318137D01*
X323137D02*
X320637D01*
Y342922D02*
X315637Y337922D01*
X313137Y323714D02*
Y335422D01*
X315637Y337922D02*
X313137Y335422D01*
X350220Y326715D02*
Y327488D01*
X352257Y324679D02*
X350220Y326715D01*
X346567Y345422D02*
X329845D01*
X351720Y340268D02*
X346567Y345422D01*
X351720Y339018D02*
Y340268D01*
D61*
X567540Y341875D02*
D03*
D62*
X408437Y281737D02*
D03*
D63*
X445937D02*
D03*
X433437D02*
D03*
X420937D02*
D03*
D64*
X341040Y445300D02*
D03*
X639540Y231700D02*
D03*
Y445300D02*
D03*
X341040Y230700D02*
D03*
M02*
