G04*
G04 #@! TF.GenerationSoftware,Altium Limited,Altium Designer,19.1.8 (144)*
G04*
G04 Layer_Physical_Order=1*
G04 Layer_Color=255*
%FSLAX44Y44*%
%MOMM*%
G71*
G01*
G75*
%ADD11C,0.4000*%
%ADD12C,0.2000*%
%ADD17C,0.5000*%
%ADD19R,0.8500X0.6000*%
%ADD20R,0.6000X0.8500*%
%ADD21R,1.9050X2.7940*%
%ADD22C,1.5240*%
%ADD23C,0.7000*%
%ADD24R,0.4000X2.0000*%
%ADD25R,0.2600X1.0800*%
%ADD26R,0.7080X0.2548*%
%ADD27R,0.2548X0.7080*%
%ADD28R,1.7526X1.7526*%
%ADD29R,3.5000X1.2000*%
G04:AMPARAMS|DCode=30|XSize=1.2mm|YSize=3.5mm|CornerRadius=0.3mm|HoleSize=0mm|Usage=FLASHONLY|Rotation=90.000|XOffset=0mm|YOffset=0mm|HoleType=Round|Shape=RoundedRectangle|*
%AMROUNDEDRECTD30*
21,1,1.2000,2.9000,0,0,90.0*
21,1,0.6000,3.5000,0,0,90.0*
1,1,0.6000,1.4500,0.3000*
1,1,0.6000,1.4500,-0.3000*
1,1,0.6000,-1.4500,-0.3000*
1,1,0.6000,-1.4500,0.3000*
%
%ADD30ROUNDEDRECTD30*%
%ADD31R,3.0000X2.1300*%
%ADD32R,0.6000X1.9700*%
%ADD33R,2.2000X2.3000*%
G04:AMPARAMS|DCode=34|XSize=3.4mm|YSize=3.4mm|CornerRadius=0.85mm|HoleSize=0mm|Usage=FLASHONLY|Rotation=180.000|XOffset=0mm|YOffset=0mm|HoleType=Round|Shape=RoundedRectangle|*
%AMROUNDEDRECTD34*
21,1,3.4000,1.7000,0,0,180.0*
21,1,1.7000,3.4000,0,0,180.0*
1,1,1.7000,-0.8500,0.8500*
1,1,1.7000,0.8500,0.8500*
1,1,1.7000,0.8500,-0.8500*
1,1,1.7000,-0.8500,-0.8500*
%
%ADD34ROUNDEDRECTD34*%
%ADD35C,3.4000*%
%ADD36R,1.0800X0.2600*%
%ADD37R,3.7000X3.7000*%
%ADD38R,0.5588X1.3208*%
%ADD59C,0.1700*%
%ADD60C,0.3000*%
%ADD61R,1.8800X7.3450*%
%ADD62R,1.0000X1.0000*%
%ADD63C,1.0000*%
%ADD64C,1.5000*%
G36*
X246969Y403425D02*
X246372Y402808D01*
X245432Y401701D01*
X245090Y401212D01*
X244832Y400766D01*
X244660Y400364D01*
X244572Y400004D01*
X244569Y399687D01*
X244650Y399413D01*
X244817Y399183D01*
X240605Y403395D01*
X240835Y403228D01*
X241109Y403147D01*
X241426Y403150D01*
X241786Y403237D01*
X242188Y403410D01*
X242634Y403668D01*
X243123Y404010D01*
X243655Y404438D01*
X244848Y405547D01*
X246969Y403425D01*
D02*
G37*
G36*
X262780Y397486D02*
X262292Y397410D01*
Y396706D01*
X261341Y396689D01*
X259741Y396551D01*
X259091Y396431D01*
X258542Y396276D01*
X258092Y396087D01*
X257742Y395863D01*
X257491Y395606D01*
X257341Y395313D01*
X257292Y394986D01*
Y403425D01*
X257341Y403099D01*
X257491Y402807D01*
X257742Y402548D01*
X258092Y402325D01*
X258542Y402136D01*
X259091Y401981D01*
X259741Y401861D01*
X259994Y401832D01*
X260331Y401861D01*
X260980Y401981D01*
X261530Y402136D01*
X261980Y402325D01*
X262330Y402548D01*
X262581Y402807D01*
X262731Y403099D01*
X262780Y403425D01*
Y397486D01*
D02*
G37*
G36*
X285139Y405281D02*
X285399Y405061D01*
X285660Y404866D01*
X285921Y404697D01*
X286183Y404553D01*
X286445Y404436D01*
X286709Y404344D01*
X286972Y404277D01*
X287237Y404236D01*
X287502Y404221D01*
X283973Y400822D01*
X283967Y401088D01*
X283935Y401353D01*
X283876Y401618D01*
X283790Y401881D01*
X283678Y402145D01*
X283539Y402407D01*
X283373Y402669D01*
X283180Y402930D01*
X282961Y403190D01*
X282715Y403450D01*
X284880Y405527D01*
X285139Y405281D01*
D02*
G37*
G36*
X545253Y404157D02*
X545960Y403450D01*
X545561Y403037D01*
X544932Y402298D01*
X544703Y401972D01*
X544530Y401675D01*
X544414Y401406D01*
X544355Y401167D01*
X544352Y400956D01*
X544405Y400774D01*
X544515Y400622D01*
X543116Y402020D01*
X541576Y400480D01*
Y399230D01*
X539396Y397050D01*
X540185Y395011D01*
X540086Y395180D01*
X539945Y395281D01*
X539765Y395312D01*
X539543Y395274D01*
X539281Y395167D01*
X538977Y394991D01*
X538633Y394746D01*
X538248Y394432D01*
X537356Y393597D01*
X537274Y394929D01*
X520770Y378424D01*
D01*
X509690Y367345D01*
X510378Y366657D01*
X504251Y360530D01*
X497410D01*
X497348Y360592D01*
Y367799D01*
X497320Y369690D01*
X508848Y381218D01*
Y400318D01*
X515665Y407136D01*
X548231D01*
X545253Y404157D01*
D02*
G37*
G36*
X457780Y400230D02*
X461750D01*
X455640Y394120D01*
Y384177D01*
X427281D01*
X427531Y384427D01*
Y388397D01*
X424311D01*
X424400Y388447D01*
X424480Y388597D01*
X424551Y388847D01*
X424612Y389197D01*
X424663Y389647D01*
X424751Y391370D01*
X424551Y394561D01*
X424480Y394811D01*
X424400Y394961D01*
X424311Y395011D01*
X427531D01*
Y400230D01*
X430238D01*
X430250Y403450D01*
X430300Y403361D01*
X430450Y403281D01*
X430700Y403211D01*
X431050Y403149D01*
X431500Y403098D01*
X433450Y402999D01*
X435250Y402980D01*
Y400230D01*
X449540D01*
X452840Y402980D01*
X453779Y402985D01*
X457336Y403211D01*
X457583Y403281D01*
X457731Y403361D01*
X457780Y403450D01*
Y400230D01*
D02*
G37*
G36*
X333759Y403341D02*
X333909Y403265D01*
X334159Y403199D01*
X334509Y403141D01*
X334959Y403092D01*
X336909Y402998D01*
X338709Y402980D01*
Y397980D01*
X337759Y397976D01*
X334159Y397738D01*
X333909Y397664D01*
X333759Y397580D01*
X333709Y397486D01*
Y403425D01*
X333759Y403341D01*
D02*
G37*
G36*
X638748Y401040D02*
X638809Y400871D01*
X638911Y400720D01*
X639053Y400591D01*
X639235Y400480D01*
X639459Y400391D01*
X639723Y400321D01*
X640027Y400271D01*
X640373Y400241D01*
X640758Y400230D01*
Y398231D01*
X640373Y398220D01*
X640027Y398190D01*
X639723Y398140D01*
X639459Y398070D01*
X639235Y397980D01*
X639053Y397870D01*
X638911Y397741D01*
X638809Y397590D01*
X638748Y397421D01*
X638728Y397230D01*
Y401231D01*
X638748Y401040D01*
D02*
G37*
G36*
X312626Y400304D02*
X312501Y400074D01*
X312473Y399789D01*
X312542Y399447D01*
X312709Y399051D01*
X312973Y398599D01*
X313334Y398091D01*
X313792Y397529D01*
X315001Y396236D01*
X311629Y395365D01*
X311067Y395906D01*
X310035Y396771D01*
X309565Y397095D01*
X309125Y397347D01*
X308716Y397525D01*
X308338Y397632D01*
X307990Y397666D01*
X307673Y397628D01*
X307387Y397517D01*
X312849Y400479D01*
X312626Y400304D01*
D02*
G37*
G36*
X671323Y395011D02*
X671167Y395124D01*
X670984Y395181D01*
X670771D01*
X670531Y395124D01*
X670262Y395011D01*
X669965Y394841D01*
X669640Y394615D01*
X669286Y394332D01*
X668494Y393597D01*
X667080Y395011D01*
X667476Y395421D01*
X668099Y396156D01*
X668325Y396482D01*
X668494Y396779D01*
X668608Y397047D01*
X668664Y397288D01*
Y397500D01*
X668608Y397684D01*
X668494Y397839D01*
X671323Y395011D01*
D02*
G37*
G36*
X617101Y391130D02*
X611241Y391130D01*
X596190Y406180D01*
X602620Y406180D01*
X617101Y391130D01*
D02*
G37*
G36*
X569861Y406080D02*
X573818D01*
X573420Y406700D01*
X573610Y406510D01*
X579360D01*
Y406120D01*
X576020Y402780D01*
Y390760D01*
X568210Y398435D01*
X567928Y397891D01*
X559880Y406080D01*
X566559D01*
X568210Y407180D01*
X569861Y406080D01*
D02*
G37*
G36*
X555830Y395021D02*
X555660Y394960D01*
X555510Y394859D01*
X555380Y394717D01*
X555270Y394534D01*
X555180Y394310D01*
X555110Y394047D01*
X555060Y393742D01*
X555041Y393523D01*
X555077Y393537D01*
X555346Y393682D01*
X555604Y393858D01*
X555849Y394067D01*
X556082Y394308D01*
X556303Y394581D01*
X556513Y394886D01*
X557540Y390095D01*
X557185Y390320D01*
X556497Y390699D01*
X556165Y390854D01*
X555840Y390984D01*
X555523Y391091D01*
X555213Y391174D01*
X554911Y391233D01*
X554617Y391269D01*
X554329Y391281D01*
X553941Y393011D01*
X553020D01*
X553010Y393397D01*
X552980Y393742D01*
X552930Y394047D01*
X552860Y394310D01*
X552770Y394534D01*
X552660Y394717D01*
X552530Y394859D01*
X552380Y394960D01*
X552210Y395021D01*
X552020Y395041D01*
X556020D01*
X555830Y395021D01*
D02*
G37*
G36*
X304440Y385042D02*
X304390Y385132D01*
X304240Y385211D01*
X303990Y385282D01*
X303640Y385343D01*
X303190Y385395D01*
X301868Y385462D01*
X301676Y385457D01*
X300379Y385360D01*
X299862Y385294D01*
X299433Y385215D01*
X299093Y385124D01*
X298839Y385021D01*
X298674Y384906D01*
X298245Y388012D01*
Y390512D01*
X299440Y389522D01*
Y390512D01*
X300390Y390517D01*
X303990Y390742D01*
X304240Y390812D01*
X304390Y390892D01*
X304440Y390981D01*
Y385042D01*
D02*
G37*
G36*
X661902Y394979D02*
X661823Y394883D01*
X661754Y394723D01*
X661694Y394498D01*
X661643Y394210D01*
X661601Y393858D01*
X661546Y392961D01*
X661528Y391843D01*
X661532Y391283D01*
X661694Y389092D01*
X661754Y388856D01*
X661823Y388688D01*
X661902Y388587D01*
X661990Y388553D01*
X656050D01*
X656141Y388587D01*
X656222Y388688D01*
X656294Y388856D01*
X656356Y389092D01*
X656408Y389395D01*
X656451Y389766D01*
X656508Y390710D01*
X656527Y391884D01*
X656523Y392416D01*
X656408Y394210D01*
X656356Y394498D01*
X656294Y394723D01*
X656222Y394883D01*
X656141Y394979D01*
X656050Y395011D01*
X661990D01*
X661902Y394979D01*
D02*
G37*
G36*
X332341Y385073D02*
X331927Y385325D01*
X331447Y385441D01*
X330903Y385422D01*
X330293Y385268D01*
X329619Y384979D01*
X328879Y384555D01*
X328074Y383996D01*
X327205Y383301D01*
X325270Y381507D01*
X321735Y385042D01*
X322406Y385738D01*
X323538Y387062D01*
X323997Y387690D01*
X324386Y388295D01*
X324704Y388878D01*
X324952Y389437D01*
X325129Y389975D01*
X325235Y390490D01*
X325270Y390981D01*
X332341Y385073D01*
D02*
G37*
G36*
X466209Y388419D02*
X466267Y388273D01*
X466362Y388144D01*
X466495Y388033D01*
X466665Y387938D01*
X466873Y387861D01*
X467118Y387801D01*
X467401Y387758D01*
X467721Y387732D01*
X468078Y387724D01*
Y385724D01*
X467725Y385717D01*
X467130Y385664D01*
X466889Y385619D01*
X466684Y385560D01*
X466517Y385487D01*
X466387Y385402D01*
X466294Y385303D01*
X466238Y385192D01*
X466219Y385067D01*
X466189Y388582D01*
X466209Y388419D01*
D02*
G37*
G36*
X292099Y390892D02*
X292249Y390812D01*
X292499Y390742D01*
X292849Y390681D01*
X293299Y390629D01*
X295249Y390531D01*
X297049Y390512D01*
Y385512D01*
X296099Y385507D01*
X292499Y385282D01*
X292249Y385211D01*
X292099Y385132D01*
X292049Y385042D01*
Y390981D01*
X292099Y390892D01*
D02*
G37*
G36*
X583711Y384444D02*
X583691Y384634D01*
X583630Y384804D01*
X583528Y384954D01*
X583386Y385084D01*
X583203Y385194D01*
X582980Y385284D01*
X582716Y385354D01*
X582411Y385404D01*
X582066Y385434D01*
X581680Y385444D01*
Y387444D01*
X582066Y387454D01*
X582411Y387484D01*
X582716Y387534D01*
X582980Y387604D01*
X583203Y387694D01*
X583386Y387804D01*
X583528Y387934D01*
X583630Y388084D01*
X583691Y388254D01*
X583711Y388444D01*
Y384444D01*
D02*
G37*
G36*
X502738Y384184D02*
X502585Y384295D01*
X502404Y384348D01*
X502193Y384345D01*
X501954Y384285D01*
X501685Y384169D01*
X501388Y383997D01*
X501062Y383767D01*
X500707Y383481D01*
X499910Y382740D01*
X498495Y384154D01*
X498895Y384567D01*
X499523Y385306D01*
X499752Y385632D01*
X499925Y385929D01*
X500041Y386198D01*
X500101Y386437D01*
X500104Y386648D01*
X500050Y386830D01*
X499940Y386982D01*
X502738Y384184D01*
D02*
G37*
G36*
X479708Y386830D02*
X479655Y386648D01*
X479658Y386437D01*
X479717Y386198D01*
X479833Y385929D01*
X480006Y385632D01*
X480236Y385306D01*
X480522Y384951D01*
X481263Y384154D01*
X479849Y382740D01*
X479436Y383139D01*
X478697Y383767D01*
X478371Y383997D01*
X478073Y384169D01*
X477805Y384285D01*
X477565Y384345D01*
X477355Y384348D01*
X477173Y384295D01*
X477020Y384184D01*
X479818Y386982D01*
X479708Y386830D01*
D02*
G37*
G36*
X538606Y381809D02*
X538588Y381972D01*
X538532Y382118D01*
X538439Y382247D01*
X538309Y382358D01*
X538142Y382453D01*
X537937Y382530D01*
X537696Y382590D01*
X537417Y382633D01*
X537101Y382659D01*
X536748Y382668D01*
Y384668D01*
X537101Y384676D01*
X537417Y384702D01*
X537696Y384745D01*
X537937Y384805D01*
X538142Y384882D01*
X538309Y384977D01*
X538439Y385089D01*
X538532Y385217D01*
X538588Y385363D01*
X538606Y385527D01*
Y381809D01*
D02*
G37*
G36*
X606810Y383232D02*
X606640Y383172D01*
X606490Y383073D01*
X606360Y382933D01*
X606250Y382752D01*
X606160Y382533D01*
X606090Y382272D01*
X606040Y381973D01*
X606010Y381632D01*
X606000Y381253D01*
X604000D01*
X603990Y381632D01*
X603960Y381973D01*
X603910Y382272D01*
X603840Y382533D01*
X603750Y382752D01*
X603640Y382933D01*
X603510Y383073D01*
X603360Y383172D01*
X603190Y383232D01*
X603000Y383252D01*
X607000D01*
X606810Y383232D01*
D02*
G37*
G36*
X610486Y386081D02*
X610438Y385893D01*
X610445Y385679D01*
X610507Y385437D01*
X610624Y385168D01*
X610796Y384871D01*
X611023Y384548D01*
X611305Y384196D01*
X612034Y383412D01*
X610943Y382044D01*
X613769Y380262D01*
X614769Y377848D01*
X614481Y378117D01*
X614180Y378357D01*
X613868Y378569D01*
X613544Y378753D01*
X613209Y378909D01*
X612861Y379036D01*
X612503Y379135D01*
X612132Y379206D01*
X611749Y379248D01*
X611355Y379262D01*
X609355Y381262D01*
X609721Y381276D01*
X610019Y381319D01*
X610248Y381390D01*
X610409Y381488D01*
X610502Y381616D01*
X610526Y381771D01*
X610482Y381955D01*
X610370Y382167D01*
X610229Y382355D01*
X609611Y382882D01*
X609282Y383114D01*
X608984Y383287D01*
X608717Y383403D01*
X608479Y383460D01*
X608273Y383459D01*
X608097Y383400D01*
X607951Y383283D01*
X610589Y386241D01*
X610486Y386081D01*
D02*
G37*
G36*
X653850Y380646D02*
X653897Y380341D01*
X653976Y380045D01*
X654086Y379758D01*
X654228Y379481D01*
X654400Y379212D01*
X654605Y378953D01*
X654841Y378703D01*
X655108Y378462D01*
X655407Y378231D01*
X650562Y377498D01*
X650804Y377834D01*
X651211Y378491D01*
X651376Y378813D01*
X651516Y379130D01*
X651631Y379442D01*
X651720Y379750D01*
X651784Y380053D01*
X651822Y380351D01*
X651834Y380644D01*
X653835Y380960D01*
X653850Y380646D01*
D02*
G37*
G36*
X244403Y381282D02*
X244478Y380410D01*
X244603Y379644D01*
X244778Y378982D01*
X245003Y378427D01*
X245278Y377976D01*
X245603Y377631D01*
X245978Y377392D01*
X246403Y377258D01*
X246878Y377229D01*
X236887Y376745D01*
X237360Y376822D01*
X237784Y377004D01*
X238157Y377290D01*
X238481Y377682D01*
X238755Y378179D01*
X238979Y378781D01*
X239154Y379487D01*
X239278Y380299D01*
X239353Y381216D01*
X239378Y382238D01*
X244378Y382260D01*
X244403Y381282D01*
D02*
G37*
G36*
X451390Y380780D02*
X451688Y380540D01*
X451987Y380329D01*
X452287Y380145D01*
X452587Y379990D01*
X452888Y379863D01*
X453189Y379764D01*
X453491Y379693D01*
X453793Y379651D01*
X454096Y379637D01*
X454172Y377637D01*
X453864Y377622D01*
X453560Y377577D01*
X453260Y377503D01*
X452964Y377399D01*
X452671Y377265D01*
X452383Y377102D01*
X452099Y376909D01*
X451818Y376686D01*
X451542Y376434D01*
X451269Y376152D01*
X451092Y381049D01*
X451390Y380780D01*
D02*
G37*
G36*
X548794Y378694D02*
X548854Y378354D01*
X548954Y378054D01*
X549094Y377794D01*
X549274Y377574D01*
X549494Y377394D01*
X549754Y377254D01*
X550054Y377154D01*
X550394Y377094D01*
X550774Y377074D01*
X547774Y375074D01*
X544774Y377074D01*
X545154Y377094D01*
X545494Y377154D01*
X545794Y377254D01*
X546054Y377394D01*
X546274Y377574D01*
X546454Y377794D01*
X546594Y378054D01*
X546694Y378354D01*
X546754Y378694D01*
X546774Y379074D01*
X548774D01*
X548794Y378694D01*
D02*
G37*
G36*
X592159Y376870D02*
X592249Y376795D01*
X592255Y376791D01*
X592422Y376717D01*
X592657Y376653D01*
X592959Y376598D01*
X593328Y376554D01*
X594268Y376494D01*
X595476Y376474D01*
Y376404D01*
X595682Y376395D01*
X596517Y376389D01*
Y374261D01*
X597180D01*
Y376389D01*
X598130Y376393D01*
X601981Y376618D01*
X602131Y376679D01*
X602180Y376748D01*
Y370808D01*
X602131Y370919D01*
X601981Y371017D01*
X601730Y371105D01*
X601381Y371180D01*
X600930Y371244D01*
X599730Y371337D01*
X597976Y371373D01*
X597976Y357394D01*
X588685Y366685D01*
X573174D01*
Y366922D01*
X580513Y374261D01*
X581236D01*
Y374974D01*
X581726Y374984D01*
X582629Y375061D01*
X582827Y375094D01*
X582980Y375134D01*
X583203Y375224D01*
X583386Y375334D01*
X583528Y375464D01*
X583630Y375614D01*
X583691Y375784D01*
X583711Y375974D01*
Y375299D01*
X583792Y375322D01*
X584128Y375448D01*
X584438Y375593D01*
X584723Y375758D01*
X584983Y375941D01*
Y374261D01*
X592119D01*
Y376969D01*
X592159Y376870D01*
D02*
G37*
G36*
X565181Y376748D02*
X565211Y374074D01*
X565189Y374264D01*
X565126Y374434D01*
X565023Y374584D01*
X564881Y374714D01*
X564698Y374824D01*
X564474Y374914D01*
X564211Y374984D01*
X563908Y375034D01*
X563564Y375064D01*
X563181Y375074D01*
Y377074D01*
X565181Y376748D01*
D02*
G37*
G36*
X638669Y380064D02*
X638589Y379914D01*
X638519Y379664D01*
X638458Y379314D01*
X638406Y378864D01*
X638324Y377228D01*
X638519Y374106D01*
X638589Y373856D01*
X638669Y373706D01*
X638758Y373656D01*
X632819D01*
X632909Y373706D01*
X632988Y373856D01*
X633059Y374106D01*
X633120Y374456D01*
X633172Y374906D01*
X633254Y376542D01*
X633059Y379664D01*
X632988Y379914D01*
X632909Y380064D01*
X632819Y380114D01*
X638758D01*
X638669Y380064D01*
D02*
G37*
G36*
X493379Y372607D02*
X493473Y371307D01*
X493508Y371167D01*
X493549Y371067D01*
X493595Y371007D01*
X493646Y370987D01*
X491107D01*
X491158Y371007D01*
X491204Y371067D01*
X491244Y371167D01*
X491279Y371307D01*
X491309Y371487D01*
X491333Y371707D01*
X491374Y372607D01*
X491376Y372987D01*
X493376D01*
X493379Y372607D01*
D02*
G37*
G36*
X488379D02*
X488473Y371307D01*
X488508Y371167D01*
X488549Y371067D01*
X488595Y371007D01*
X488646Y370987D01*
X486107D01*
X486158Y371007D01*
X486204Y371067D01*
X486244Y371167D01*
X486279Y371307D01*
X486309Y371487D01*
X486333Y371707D01*
X486374Y372607D01*
X486376Y372987D01*
X488376D01*
X488379Y372607D01*
D02*
G37*
G36*
X483313Y372207D02*
X483363Y371529D01*
X483393Y371363D01*
X483430Y371228D01*
X483474Y371122D01*
X483525Y371047D01*
X483582Y371002D01*
X483646Y370987D01*
X481107D01*
X481145Y371002D01*
X481180Y371047D01*
X481210Y371122D01*
X481236Y371228D01*
X481259Y371363D01*
X481277Y371529D01*
X481307Y372207D01*
X481309Y372493D01*
X483309D01*
X483313Y372207D01*
D02*
G37*
G36*
X473379Y372607D02*
X473473Y371307D01*
X473508Y371167D01*
X473549Y371067D01*
X473595Y371007D01*
X473646Y370987D01*
X471107D01*
X471158Y371007D01*
X471204Y371067D01*
X471244Y371167D01*
X471279Y371307D01*
X471309Y371487D01*
X471333Y371707D01*
X471374Y372607D01*
X471376Y372987D01*
X473376D01*
X473379Y372607D01*
D02*
G37*
G36*
X468379D02*
X468473Y371307D01*
X468508Y371167D01*
X468549Y371067D01*
X468595Y371007D01*
X468646Y370987D01*
X466107D01*
X466158Y371007D01*
X466204Y371067D01*
X466244Y371167D01*
X466279Y371307D01*
X466309Y371487D01*
X466333Y371707D01*
X466374Y372607D01*
X466376Y372987D01*
X468376D01*
X468379Y372607D01*
D02*
G37*
G36*
X463302Y372197D02*
X463354Y371525D01*
X463385Y371360D01*
X463423Y371226D01*
X463469Y371121D01*
X463521Y371046D01*
X463580Y371002D01*
X463646Y370987D01*
X461107D01*
X461143Y371002D01*
X461176Y371046D01*
X461204Y371121D01*
X461229Y371226D01*
X461250Y371360D01*
X461281Y371719D01*
X461296Y372197D01*
X461298Y372481D01*
X463298D01*
X463302Y372197D01*
D02*
G37*
G36*
X668905Y374675D02*
X669640Y374052D01*
X669965Y373826D01*
X670262Y373656D01*
X670531Y373543D01*
X670771Y373487D01*
X670984D01*
X671167Y373543D01*
X671323Y373656D01*
X670827Y373160D01*
X671248Y372918D01*
X671933Y372571D01*
X669420Y371754D01*
X668494Y370828D01*
X668608Y370984D01*
X668664Y371167D01*
Y371379D01*
X668636Y371498D01*
X667348Y371079D01*
X667490Y371376D01*
X667592Y371666D01*
X667653Y371951D01*
X667674Y372230D01*
X667655Y372504D01*
X667596Y372771D01*
X667497Y373032D01*
X667357Y373288D01*
X667177Y373537D01*
X666956Y373781D01*
X667298Y373874D01*
X668494Y375070D01*
X668905Y374675D01*
D02*
G37*
G36*
X453110Y372281D02*
X452905Y372055D01*
X452721Y371811D01*
X452559Y371547D01*
X452417Y371264D01*
X452297Y370962D01*
X452199Y370640D01*
X452121Y370299D01*
X452065Y369939D01*
X452030Y369560D01*
X452017Y369162D01*
X448612Y372685D01*
X449006Y372686D01*
X449383Y372709D01*
X449740Y372756D01*
X450079Y372825D01*
X450399Y372917D01*
X450700Y373032D01*
X450984Y373169D01*
X451248Y373330D01*
X451494Y373514D01*
X451721Y373720D01*
X453110Y372281D01*
D02*
G37*
G36*
X656207Y376314D02*
X658446Y374379D01*
X659040Y373967D01*
X659558Y373671D01*
X660000Y373493D01*
X660365Y373431D01*
X660655Y373485D01*
X660868Y373656D01*
X656050Y367356D01*
X656163Y367628D01*
X656149Y367985D01*
X656010Y368429D01*
X655744Y368957D01*
X655352Y369572D01*
X654834Y370272D01*
X653421Y371928D01*
X651503Y373927D01*
X655309Y377192D01*
X656207Y376314D01*
D02*
G37*
G36*
X538606Y367124D02*
X538587Y367314D01*
X538526Y367484D01*
X538427Y367634D01*
X538287Y367764D01*
X538106Y367874D01*
X537887Y367964D01*
X537626Y368034D01*
X537327Y368084D01*
X536987Y368114D01*
X536606Y368124D01*
Y370124D01*
X536987Y370134D01*
X537327Y370164D01*
X537626Y370214D01*
X537887Y370284D01*
X538106Y370374D01*
X538287Y370484D01*
X538427Y370614D01*
X538526Y370764D01*
X538587Y370934D01*
X538606Y371124D01*
Y367124D01*
D02*
G37*
G36*
X309855Y374020D02*
X308864Y372994D01*
X307306Y371155D01*
X306738Y370341D01*
X306311Y369599D01*
X306025Y368927D01*
X305879Y368326D01*
X305875Y367796D01*
X306012Y367337D01*
X306289Y366949D01*
X300380Y372944D01*
X300668Y372979D01*
X301000Y373085D01*
X301376Y373262D01*
X301796Y373510D01*
X302260Y373828D01*
X303321Y374676D01*
X304559Y375808D01*
X305244Y376479D01*
X309855Y374020D01*
D02*
G37*
G36*
X674480Y388226D02*
X674621Y387934D01*
X674855Y387676D01*
X675182Y387453D01*
X675603Y387263D01*
X676117Y387109D01*
X676725Y386988D01*
X677427Y386902D01*
X678222Y386851D01*
X679111Y386834D01*
Y384334D01*
X688726D01*
X690693Y382368D01*
X692259D01*
X692971Y381690D01*
X693683Y381084D01*
X694393Y380549D01*
X695102Y380085D01*
X695810Y379693D01*
X696516Y379372D01*
X697221Y379122D01*
X697925Y378944D01*
X698628Y378837D01*
X699330Y378801D01*
X694259D01*
X700740Y372320D01*
X700730Y371910D01*
X695680Y366860D01*
X677940D01*
Y376630D01*
X674436Y380134D01*
X674434Y380114D01*
Y380136D01*
X670236Y384334D01*
X674434D01*
Y388553D01*
X674480Y388226D01*
D02*
G37*
G36*
X556979Y369460D02*
X557040Y369290D01*
X557142Y369140D01*
X557284Y369010D01*
X557467Y368900D01*
X557690Y368810D01*
X557954Y368740D01*
X558259Y368690D01*
X558604Y368660D01*
X558989Y368650D01*
Y366650D01*
X558604Y366640D01*
X558259Y366610D01*
X557954Y366560D01*
X557690Y366490D01*
X557467Y366400D01*
X557284Y366290D01*
X557142Y366160D01*
X557040Y366010D01*
X556979Y365840D01*
X556959Y365650D01*
Y369650D01*
X556979Y369460D01*
D02*
G37*
G36*
X553879Y364905D02*
X553723Y365018D01*
X553540Y365075D01*
X553327D01*
X553087Y365018D01*
X552818Y364905D01*
X552521Y364735D01*
X552196Y364509D01*
X551842Y364226D01*
X551050Y363491D01*
X549636Y364905D01*
X550032Y365315D01*
X550654Y366050D01*
X550881Y366376D01*
X551050Y366673D01*
X551164Y366941D01*
X551220Y367182D01*
Y367394D01*
X551164Y367578D01*
X551050Y367733D01*
X553879Y364905D01*
D02*
G37*
G36*
X441886Y369364D02*
X442291Y368270D01*
X442442Y367951D01*
X442766Y367381D01*
X442940Y367131D01*
X443122Y366903D01*
X443312Y366698D01*
X442320Y364861D01*
X442082Y365076D01*
X441832Y365257D01*
X441569Y365404D01*
X441294Y365518D01*
X441006Y365598D01*
X440706Y365645D01*
X440394Y365658D01*
X440069Y365637D01*
X439731Y365582D01*
X439381Y365494D01*
X441767Y369774D01*
X441886Y369364D01*
D02*
G37*
G36*
X433084Y367725D02*
X433148Y367468D01*
X433236Y367210D01*
X433345Y366952D01*
X433478Y366695D01*
X433633Y366437D01*
X433812Y366179D01*
X434013Y365921D01*
X434237Y365663D01*
X434483Y365405D01*
X432662Y362984D01*
X432401Y363230D01*
X432140Y363446D01*
X431878Y363633D01*
X431616Y363790D01*
X431355Y363918D01*
X431093Y364015D01*
X430830Y364083D01*
X430568Y364121D01*
X430305Y364130D01*
X430043Y364109D01*
X433042Y367983D01*
X433084Y367725D01*
D02*
G37*
G36*
X398489Y372101D02*
X398640Y371676D01*
X398892Y371301D01*
X399244Y370976D01*
X399697Y370701D01*
X400250Y370476D01*
X400904Y370301D01*
X401659Y370176D01*
X402514Y370101D01*
X403470Y370076D01*
Y365076D01*
X402514Y365051D01*
X401659Y364976D01*
X400904Y364851D01*
X400250Y364676D01*
X399697Y364451D01*
X399244Y364176D01*
X398892Y363851D01*
X398640Y363476D01*
X398489Y363051D01*
X398439Y362576D01*
Y372576D01*
X398489Y372101D01*
D02*
G37*
G36*
X638616Y365218D02*
X638541Y365128D01*
X638474Y364979D01*
X638416Y364771D01*
X638368Y364503D01*
X638328Y364176D01*
X638275Y363344D01*
X638257Y362274D01*
X633257D01*
X633252Y362833D01*
X633148Y364481D01*
X633099Y364746D01*
X633042Y364952D01*
X632977Y365099D01*
X632902Y365188D01*
X632819Y365217D01*
X638700Y365248D01*
X638616Y365218D01*
D02*
G37*
G36*
X456137Y360500D02*
X456117Y360690D01*
X456056Y360860D01*
X455955Y361010D01*
X455812Y361140D01*
X455630Y361250D01*
X455406Y361340D01*
X455142Y361410D01*
X454838Y361460D01*
X454493Y361490D01*
X454107Y361500D01*
Y363500D01*
X454493Y363510D01*
X454838Y363540D01*
X455142Y363590D01*
X455406Y363660D01*
X455630Y363750D01*
X455812Y363860D01*
X455955Y363990D01*
X456056Y364140D01*
X456117Y364310D01*
X456137Y364500D01*
Y360500D01*
D02*
G37*
G36*
X661900Y365167D02*
X661821Y365017D01*
X661750Y364767D01*
X661689Y364417D01*
X661637Y363967D01*
X661555Y362331D01*
X661750Y359210D01*
X661821Y358960D01*
X661900Y358810D01*
X661990Y358759D01*
X656050D01*
X656140Y358810D01*
X656219Y358960D01*
X656290Y359210D01*
X656351Y359560D01*
X656403Y360009D01*
X656485Y361646D01*
X656290Y364767D01*
X656219Y365017D01*
X656140Y365167D01*
X656050Y365217D01*
X661990D01*
X661900Y365167D01*
D02*
G37*
G36*
X638262Y361554D02*
X638382Y359622D01*
X638437Y359312D01*
X638503Y359070D01*
X638578Y358898D01*
X638663Y358794D01*
X638758Y358759D01*
X632819D01*
X632902Y358794D01*
X632977Y358898D01*
X633042Y359070D01*
X633099Y359312D01*
X633148Y359622D01*
X633218Y360450D01*
X633252Y361554D01*
X633257Y362210D01*
X638257D01*
X638262Y361554D01*
D02*
G37*
G36*
X478595Y360228D02*
X478549Y360168D01*
X478508Y360068D01*
X478473Y359928D01*
X478444Y359748D01*
X478419Y359528D01*
X478379Y358628D01*
X478376Y358248D01*
X476376D01*
X476374Y358628D01*
X476279Y359928D01*
X476244Y360068D01*
X476204Y360168D01*
X476158Y360228D01*
X476107Y360248D01*
X478646D01*
X478595Y360228D01*
D02*
G37*
G36*
X568130Y359046D02*
X568140Y358700D01*
X568169Y358375D01*
X568217Y358070D01*
X568285Y357787D01*
X568373Y357524D01*
X568480Y357283D01*
X568606Y357062D01*
X568752Y356862D01*
X568917Y356682D01*
X569101Y356524D01*
X565105Y356695D01*
X565300Y356837D01*
X565474Y357001D01*
X565628Y357188D01*
X565761Y357398D01*
X565874Y357631D01*
X565966Y357886D01*
X566038Y358164D01*
X566089Y358465D01*
X566120Y358789D01*
X566130Y359135D01*
X568130Y359046D01*
D02*
G37*
G36*
X500157Y356198D02*
X500137Y356249D01*
X500077Y356295D01*
X499977Y356335D01*
X499837Y356370D01*
X499657Y356400D01*
X499437Y356424D01*
X498537Y356464D01*
X498157Y356467D01*
Y358467D01*
X498537Y358470D01*
X499837Y358564D01*
X499977Y358599D01*
X500077Y358640D01*
X500137Y358685D01*
X500157Y358737D01*
Y356198D01*
D02*
G37*
G36*
X478386Y357551D02*
X478416Y357206D01*
X478466Y356901D01*
X478536Y356637D01*
X478626Y356414D01*
X478736Y356231D01*
X478866Y356089D01*
X479016Y355987D01*
X479186Y355926D01*
X479376Y355906D01*
X475376D01*
X475566Y355926D01*
X475736Y355987D01*
X475886Y356089D01*
X476016Y356231D01*
X476126Y356414D01*
X476216Y356637D01*
X476286Y356901D01*
X476336Y357206D01*
X476366Y357551D01*
X476376Y357937D01*
X478376D01*
X478386Y357551D01*
D02*
G37*
G36*
X497260Y355937D02*
X496861Y355524D01*
X496233Y354785D01*
X496003Y354459D01*
X495831Y354161D01*
X495714Y353893D01*
X495655Y353653D01*
X495652Y353443D01*
X495705Y353261D01*
X495815Y353108D01*
X493018Y355906D01*
X493170Y355796D01*
X493352Y355742D01*
X493563Y355746D01*
X493802Y355805D01*
X494071Y355921D01*
X494368Y356094D01*
X494694Y356324D01*
X495049Y356609D01*
X495846Y357351D01*
X497260Y355937D01*
D02*
G37*
G36*
X593606Y357259D02*
X593691Y355960D01*
X593723Y355820D01*
X593759Y355720D01*
X593801Y355659D01*
X593847Y355639D01*
X591360D01*
X591406Y355659D01*
X591447Y355720D01*
X591484Y355820D01*
X591516Y355960D01*
X591542Y356139D01*
X591581Y356620D01*
X591603Y357640D01*
X593603D01*
X593606Y357259D01*
D02*
G37*
G36*
X600847Y354193D02*
X600463Y354183D01*
X600120Y354152D01*
X599817Y354103D01*
X599553Y354033D01*
X599330Y353942D01*
X599147Y353833D01*
X599004Y353703D01*
X598902Y353553D01*
X598839Y353382D01*
X598816Y353192D01*
X598847Y355639D01*
X600847Y356193D01*
Y354193D01*
D02*
G37*
G36*
X609947Y353131D02*
X609823Y353333D01*
X609673Y353513D01*
X609499Y353673D01*
X609300Y353811D01*
X609076Y353927D01*
X608828Y354023D01*
X608555Y354097D01*
X608257Y354150D01*
X607935Y354182D01*
X607588Y354193D01*
X607842Y356193D01*
X608187Y356202D01*
X608514Y356229D01*
X608821Y356274D01*
X609108Y356338D01*
X609377Y356420D01*
X609626Y356520D01*
X609856Y356638D01*
X610066Y356775D01*
X610258Y356929D01*
X610430Y357102D01*
X609947Y353131D01*
D02*
G37*
G36*
X626334Y356350D02*
X626394Y356180D01*
X626494Y356030D01*
X626634Y355900D01*
X626814Y355790D01*
X627034Y355700D01*
X627294Y355630D01*
X627594Y355580D01*
X627934Y355550D01*
X628314Y355540D01*
Y353540D01*
X627934Y353530D01*
X627594Y353500D01*
X627294Y353450D01*
X627034Y353380D01*
X626814Y353290D01*
X626634Y353180D01*
X626494Y353050D01*
X626394Y352900D01*
X626334Y352730D01*
X626314Y352540D01*
Y356540D01*
X626334Y356350D01*
D02*
G37*
G36*
X521939Y352500D02*
X521540Y352486D01*
X521161Y352451D01*
X520801Y352394D01*
X520460Y352317D01*
X520138Y352218D01*
X519836Y352098D01*
X519553Y351956D01*
X519289Y351794D01*
X519044Y351610D01*
X518819Y351405D01*
X517378Y352792D01*
X517585Y353020D01*
X517768Y353265D01*
X517929Y353530D01*
X518067Y353813D01*
X518181Y354114D01*
X518273Y354435D01*
X518342Y354773D01*
X518388Y355131D01*
X518411Y355507D01*
X518411Y355901D01*
X521939Y352500D01*
D02*
G37*
G36*
X510911Y353698D02*
X510956Y353664D01*
X511031Y353633D01*
X511137Y353607D01*
X511273Y353584D01*
X511438Y353566D01*
X512116Y353536D01*
X512402Y353534D01*
Y351534D01*
X512116Y351530D01*
X511438Y351480D01*
X511273Y351450D01*
X511137Y351413D01*
X511031Y351369D01*
X510956Y351319D01*
X510911Y351261D01*
X510896Y351198D01*
Y353737D01*
X510911Y353698D01*
D02*
G37*
G36*
X342125Y355681D02*
X341700Y355531D01*
X341325Y355280D01*
X341000Y354930D01*
X340725Y354481D01*
X340500Y353931D01*
X340325Y353280D01*
X340200Y352531D01*
X340125Y351680D01*
X340100Y350731D01*
X335100D01*
X335075Y351680D01*
X335000Y352531D01*
X334875Y353280D01*
X334700Y353931D01*
X334475Y354481D01*
X334200Y354930D01*
X333875Y355280D01*
X333500Y355531D01*
X333075Y355681D01*
X332600Y355731D01*
X342600D01*
X342125Y355681D01*
D02*
G37*
G36*
X671323Y350321D02*
X671167Y350434D01*
X670984Y350490D01*
X670771D01*
X670531Y350434D01*
X670262Y350321D01*
X669965Y350151D01*
X669640Y349925D01*
X669286Y349642D01*
X668494Y348906D01*
X667080Y350321D01*
X667476Y350731D01*
X668099Y351466D01*
X668325Y351791D01*
X668494Y352088D01*
X668608Y352357D01*
X668664Y352597D01*
Y352809D01*
X668608Y352993D01*
X668494Y353149D01*
X671323Y350321D01*
D02*
G37*
G36*
X544405Y352527D02*
X544352Y352346D01*
X544355Y352135D01*
X544414Y351896D01*
X544530Y351627D01*
X544703Y351330D01*
X544932Y351004D01*
X545218Y350649D01*
X545960Y349852D01*
X544546Y348438D01*
X544133Y348837D01*
X543394Y349465D01*
X543067Y349694D01*
X542770Y349867D01*
X542502Y349983D01*
X542262Y350043D01*
X542052Y350046D01*
X541870Y349992D01*
X541717Y349882D01*
X544515Y352680D01*
X544405Y352527D01*
D02*
G37*
G36*
X293168Y353305D02*
X293620D01*
X293530Y353255D01*
X293451Y353105D01*
X293380Y352855D01*
X293319Y352505D01*
X293269Y352069D01*
X293375Y351428D01*
X293550Y350774D01*
X293775Y350221D01*
X294050Y349768D01*
X294375Y349416D01*
X294750Y349165D01*
X295175Y349014D01*
X295650Y348964D01*
X293157D01*
X293150Y348305D01*
X288150D01*
X288147Y348964D01*
X285650D01*
X286125Y349014D01*
X286550Y349165D01*
X286925Y349416D01*
X287250Y349768D01*
X287525Y350221D01*
X287750Y350774D01*
X287925Y351428D01*
X287986Y351797D01*
X287920Y352855D01*
X287850Y353105D01*
X287770Y353255D01*
X287680Y353305D01*
X288132D01*
X288150Y353994D01*
X293150D01*
X293168Y353305D01*
D02*
G37*
G36*
X607387Y346939D02*
X607335Y346881D01*
X607301Y346830D01*
X607284Y346784D01*
X607285Y346745D01*
X607303Y346711D01*
X607340Y346684D01*
X607393Y346662D01*
X607465Y346647D01*
X607554Y346638D01*
X607661Y346635D01*
X602323D01*
X602445Y346659D01*
X602606Y346732D01*
X602805Y346853D01*
X603042Y347023D01*
X603631Y347508D01*
X604372Y348187D01*
X605266Y349061D01*
X607387Y346939D01*
D02*
G37*
G36*
X586618Y349079D02*
X586663Y348564D01*
X586738Y348109D01*
X586843Y347715D01*
X586978Y347382D01*
X587143Y347109D01*
X587338Y346897D01*
X587563Y346745D01*
X587818Y346654D01*
X588103Y346624D01*
X582103D01*
X582388Y346654D01*
X582643Y346745D01*
X582868Y346897D01*
X583063Y347109D01*
X583228Y347382D01*
X583363Y347715D01*
X583468Y348109D01*
X583543Y348564D01*
X583588Y349079D01*
X583603Y349655D01*
X586603D01*
X586618Y349079D01*
D02*
G37*
G36*
X510916Y348685D02*
X510976Y348640D01*
X511076Y348599D01*
X511216Y348564D01*
X511396Y348535D01*
X511616Y348510D01*
X512516Y348470D01*
X512896Y348467D01*
Y346467D01*
X512516Y346464D01*
X511216Y346370D01*
X511076Y346335D01*
X510976Y346295D01*
X510916Y346249D01*
X510896Y346198D01*
Y348737D01*
X510916Y348685D01*
D02*
G37*
G36*
X521185Y343101D02*
X520819Y343164D01*
X520468Y343197D01*
X520131Y343199D01*
X519808Y343171D01*
X519500Y343112D01*
X519207Y343022D01*
X518928Y342901D01*
X518664Y342750D01*
X518414Y342568D01*
X518179Y342355D01*
X517062Y344068D01*
X517258Y344280D01*
X517441Y344515D01*
X517612Y344771D01*
X517772Y345049D01*
X517919Y345350D01*
X518053Y345672D01*
X518176Y346016D01*
X518385Y346770D01*
X518472Y347180D01*
X521185Y343101D01*
D02*
G37*
G36*
X559111Y343238D02*
X558514Y342620D01*
X557574Y341513D01*
X557232Y341024D01*
X556974Y340578D01*
X556802Y340176D01*
X556714Y339816D01*
X556711Y339499D01*
X556792Y339226D01*
X556959Y338995D01*
X552747Y343207D01*
X552977Y343041D01*
X553251Y342959D01*
X553568Y342962D01*
X553927Y343050D01*
X554330Y343223D01*
X554776Y343480D01*
X555265Y343823D01*
X555797Y344250D01*
X556990Y345359D01*
X559111Y343238D01*
D02*
G37*
G36*
X432834Y352112D02*
X432542Y351962D01*
X432284Y351712D01*
X432060Y351362D01*
X431871Y350912D01*
X431716Y350362D01*
X431596Y349712D01*
X431510Y348962D01*
X431458Y348112D01*
X431446Y347440D01*
X431458Y346768D01*
X431596Y345169D01*
X431716Y344519D01*
X431871Y343969D01*
X432060Y343518D01*
X432284Y343168D01*
X432542Y342919D01*
X432834Y342769D01*
X433161Y342719D01*
X427634D01*
X427407Y342769D01*
X427204Y342919D01*
X427025Y343169D01*
X426870Y343518D01*
X426739Y343969D01*
X426632Y344519D01*
X426549Y345168D01*
X426453Y346768D01*
X426448Y347162D01*
X426441D01*
X426424Y348112D01*
X426286Y349712D01*
X426166Y350362D01*
X426011Y350912D01*
X425822Y351362D01*
X425599Y351712D01*
X425341Y351962D01*
X425048Y352112D01*
X424722Y352162D01*
X433161D01*
X432834Y352112D01*
D02*
G37*
G36*
X416950Y352112D02*
X416658Y351962D01*
X416400Y351712D01*
X416176Y351362D01*
X415987Y350912D01*
X415832Y350362D01*
X415712Y349712D01*
X415626Y348962D01*
X415574Y348112D01*
X415557Y347162D01*
X415424D01*
X414365Y342719D01*
X408838D01*
X409164Y342769D01*
X409457Y342919D01*
X409715Y343169D01*
X409938Y343518D01*
X410127Y343969D01*
X410282Y344519D01*
X410402Y345168D01*
X410488Y345919D01*
X410540Y346768D01*
X410552Y347440D01*
X410540Y348112D01*
X410402Y349712D01*
X410282Y350362D01*
X410127Y350912D01*
X409938Y351362D01*
X409715Y351712D01*
X409457Y351962D01*
X409164Y352112D01*
X408838Y352162D01*
X417277D01*
X416950Y352112D01*
D02*
G37*
G36*
X510916Y343685D02*
X510976Y343640D01*
X511076Y343599D01*
X511216Y343564D01*
X511396Y343535D01*
X511616Y343510D01*
X512516Y343470D01*
X512896Y343467D01*
Y341467D01*
X512516Y341464D01*
X511216Y341370D01*
X511076Y341335D01*
X510976Y341295D01*
X510916Y341249D01*
X510896Y341198D01*
Y343737D01*
X510916Y343685D01*
D02*
G37*
G36*
X264662Y350065D02*
X264497Y349633D01*
X264455Y349149D01*
X264537Y348611D01*
X264743Y348019D01*
X265072Y347374D01*
X265525Y346676D01*
X266101Y345924D01*
X266801Y345118D01*
X267625Y344260D01*
X264090Y340724D01*
X263231Y341548D01*
X261674Y342825D01*
X260975Y343278D01*
X260330Y343607D01*
X259739Y343812D01*
X259200Y343894D01*
X258716Y343853D01*
X258285Y343687D01*
X257907Y343398D01*
X264951Y350442D01*
X264662Y350065D01*
D02*
G37*
G36*
X295490Y339904D02*
X295557Y339860D01*
X295789Y339732D01*
X296012Y339622D01*
X296227Y339533D01*
X296433Y339464D01*
X296630Y339414D01*
X296819Y339384D01*
X297000Y339374D01*
Y337374D01*
X296819Y337365D01*
X296630Y337335D01*
X296433Y337285D01*
X296227Y337216D01*
X296012Y337126D01*
X295789Y337017D01*
X295557Y336888D01*
X295490Y336844D01*
Y336382D01*
X295232Y336571D01*
X295150Y336624D01*
X295068Y336571D01*
X294811Y336382D01*
Y336844D01*
X294743Y336888D01*
X294511Y337017D01*
X294288Y337126D01*
X294073Y337216D01*
X293867Y337285D01*
X293670Y337335D01*
X293481Y337365D01*
X293300Y337374D01*
Y339374D01*
X293481Y339384D01*
X293670Y339414D01*
X293867Y339464D01*
X294073Y339533D01*
X294288Y339622D01*
X294511Y339732D01*
X294743Y339860D01*
X294811Y339904D01*
Y340366D01*
X295068Y340178D01*
X295150Y340125D01*
X295232Y340178D01*
X295490Y340366D01*
Y339904D01*
D02*
G37*
G36*
X620993Y345387D02*
X622100Y344448D01*
X622589Y344105D01*
X623035Y343848D01*
X623437Y343675D01*
X623797Y343587D01*
X624114Y343584D01*
X624387Y343666D01*
X624618Y343832D01*
X624034Y343249D01*
X624114Y343229D01*
X623826Y343040D01*
X620406Y339620D01*
X620573Y339851D01*
X620654Y340124D01*
X620651Y340441D01*
X620563Y340801D01*
X620531Y340876D01*
X620019Y340540D01*
X620058Y340796D01*
X620066Y341053D01*
X620042Y341311D01*
X619987Y341569D01*
X619899Y341828D01*
X619780Y342088D01*
X619646Y342318D01*
X619363Y342670D01*
X618254Y343863D01*
X620375Y345984D01*
X620993Y345387D01*
D02*
G37*
G36*
X611784Y338003D02*
X611580Y338172D01*
X611359Y338324D01*
X611121Y338457D01*
X610867Y338573D01*
X610595Y338671D01*
X610306Y338751D01*
X610000Y338814D01*
X609678Y338858D01*
X609338Y338885D01*
X608981Y338894D01*
X608796Y341894D01*
X609154Y341904D01*
X609492Y341934D01*
X609812Y341984D01*
X610112Y342054D01*
X610393Y342144D01*
X610656Y342254D01*
X610898Y342385D01*
X611122Y342535D01*
X611326Y342705D01*
X611512Y342896D01*
X611784Y338003D01*
D02*
G37*
G36*
X587702Y342458D02*
X587962Y342238D01*
X588223Y342044D01*
X588485Y341877D01*
X588747Y341736D01*
X589010Y341621D01*
X589273Y341532D01*
X589538Y341469D01*
X589803Y341432D01*
X590068Y341422D01*
X586604Y337957D01*
X586593Y338223D01*
X586557Y338488D01*
X586494Y338752D01*
X586405Y339016D01*
X586290Y339278D01*
X586148Y339541D01*
X585981Y339802D01*
X585787Y340063D01*
X585568Y340323D01*
X585322Y340582D01*
X587443Y342704D01*
X587702Y342458D01*
D02*
G37*
G36*
X510916Y338685D02*
X510976Y338640D01*
X511076Y338599D01*
X511216Y338564D01*
X511396Y338535D01*
X511616Y338510D01*
X512516Y338470D01*
X512896Y338467D01*
Y336467D01*
X512516Y336464D01*
X511216Y336370D01*
X511076Y336335D01*
X510976Y336295D01*
X510916Y336249D01*
X510896Y336198D01*
Y338737D01*
X510916Y338685D01*
D02*
G37*
G36*
X282061Y333374D02*
X282011Y333849D01*
X281860Y334274D01*
X281608Y334649D01*
X281256Y334974D01*
X280803Y335249D01*
X280250Y335474D01*
X279596Y335649D01*
X278841Y335774D01*
X277986Y335849D01*
X277031Y335874D01*
Y340874D01*
X277986Y340899D01*
X278841Y340974D01*
X279596Y341099D01*
X280250Y341274D01*
X280803Y341499D01*
X281256Y341774D01*
X281608Y342099D01*
X281860Y342474D01*
X282011Y342899D01*
X282061Y343374D01*
Y333374D01*
D02*
G37*
G36*
X340125Y337189D02*
X340200Y336339D01*
X340325Y335589D01*
X340500Y334939D01*
X340725Y334389D01*
X341000Y333940D01*
X341325Y333590D01*
X341700Y333340D01*
X342125Y333190D01*
X342600Y333139D01*
X332600D01*
X333075Y333190D01*
X333500Y333340D01*
X333875Y333590D01*
X334200Y333940D01*
X334475Y334389D01*
X334700Y334939D01*
X334875Y335589D01*
X335000Y336339D01*
X335075Y337189D01*
X335100Y338139D01*
X340100D01*
X340125Y337189D01*
D02*
G37*
G36*
X510916Y333685D02*
X510976Y333640D01*
X511076Y333599D01*
X511216Y333564D01*
X511396Y333535D01*
X511616Y333510D01*
X512516Y333470D01*
X512896Y333467D01*
Y331467D01*
X512516Y331464D01*
X511216Y331370D01*
X511076Y331335D01*
X510976Y331295D01*
X510916Y331249D01*
X510896Y331198D01*
Y333737D01*
X510916Y333685D01*
D02*
G37*
G36*
X312023Y343577D02*
X312182Y342817D01*
X312447Y342021D01*
X312818Y341190D01*
X313295Y340324D01*
X313879Y339422D01*
X314568Y338486D01*
X316265Y336506D01*
X317273Y335463D01*
X315505Y330159D01*
X314833Y330796D01*
X314232Y331291D01*
X313702Y331644D01*
X313242Y331856D01*
X312853Y331927D01*
X312535Y331856D01*
X312288Y331644D01*
X312111Y331291D01*
X312005Y330796D01*
X311970Y330159D01*
Y344301D01*
X312023Y343577D01*
D02*
G37*
G36*
X559111Y328957D02*
X558479Y328305D01*
X557494Y327152D01*
X557140Y326652D01*
X556878Y326202D01*
X556710Y325803D01*
X556633Y325455D01*
X556649Y325157D01*
X556758Y324911D01*
X556959Y324715D01*
X551974Y328154D01*
X552250Y328033D01*
X552583Y328010D01*
X552971Y328085D01*
X553417Y328258D01*
X553919Y328531D01*
X554478Y328901D01*
X555093Y329370D01*
X556493Y330603D01*
X557278Y331367D01*
X559111Y328957D01*
D02*
G37*
G36*
X606113Y329189D02*
X605943Y329128D01*
X605793Y329026D01*
X605663Y328884D01*
X605553Y328701D01*
X605463Y328478D01*
X605393Y328214D01*
X605343Y327910D01*
X605313Y327564D01*
X605303Y327178D01*
X603303D01*
X603293Y327564D01*
X603263Y327910D01*
X603213Y328214D01*
X603143Y328478D01*
X603053Y328701D01*
X602943Y328884D01*
X602813Y329026D01*
X602663Y329128D01*
X602493Y329189D01*
X602303Y329209D01*
X606303D01*
X606113Y329189D01*
D02*
G37*
G36*
X577591D02*
X577421Y329128D01*
X577271Y329026D01*
X577141Y328884D01*
X577031Y328701D01*
X576941Y328478D01*
X576871Y328214D01*
X576821Y327910D01*
X576791Y327564D01*
X576781Y327178D01*
X574781D01*
X574771Y327564D01*
X574741Y327910D01*
X574691Y328214D01*
X574621Y328478D01*
X574531Y328701D01*
X574421Y328884D01*
X574291Y329026D01*
X574141Y329128D01*
X573971Y329189D01*
X573781Y329209D01*
X577781D01*
X577591Y329189D01*
D02*
G37*
G36*
X478444Y329149D02*
X478488Y328845D01*
X478560Y328544D01*
X478662Y328245D01*
X478792Y327949D01*
X478952Y327654D01*
X479140Y327362D01*
X479358Y327072D01*
X479604Y326785D01*
X479880Y326499D01*
X474980D01*
X475255Y326785D01*
X475502Y327072D01*
X475719Y327362D01*
X475908Y327654D01*
X476067Y327949D01*
X476198Y328245D01*
X476299Y328544D01*
X476372Y328845D01*
X476415Y329149D01*
X476430Y329454D01*
X478430D01*
X478444Y329149D01*
D02*
G37*
G36*
X510916Y328685D02*
X510976Y328640D01*
X511076Y328599D01*
X511216Y328564D01*
X511396Y328535D01*
X511616Y328510D01*
X512516Y328470D01*
X512896Y328467D01*
Y326467D01*
X512516Y326464D01*
X511216Y326370D01*
X511076Y326335D01*
X510976Y326295D01*
X510916Y326249D01*
X510896Y326198D01*
Y328737D01*
X510916Y328685D01*
D02*
G37*
G36*
X595318Y329160D02*
X595063Y329070D01*
X594838Y328919D01*
X594643Y328709D01*
X594478Y328439D01*
X594343Y328110D01*
X594238Y327719D01*
X594163Y327270D01*
X594118Y326759D01*
X594103Y326189D01*
X591103D01*
X591088Y326759D01*
X591043Y327270D01*
X590968Y327719D01*
X590863Y328110D01*
X590728Y328439D01*
X590563Y328709D01*
X590368Y328919D01*
X590143Y329070D01*
X589888Y329160D01*
X589603Y329189D01*
X595603D01*
X595318Y329160D01*
D02*
G37*
G36*
X638679Y335374D02*
X638608Y335224D01*
X638546Y334974D01*
X638492Y334624D01*
X638409Y333624D01*
X638346Y331374D01*
X638345Y331176D01*
X638708Y330817D01*
X641681Y328168D01*
X641927Y328023D01*
X642102Y327964D01*
X642205Y327989D01*
X637993Y323777D01*
X638019Y323881D01*
X637959Y324055D01*
X637814Y324301D01*
X637585Y324618D01*
X637271Y325007D01*
X635819Y326600D01*
X634427Y328019D01*
X636832Y330424D01*
X633342D01*
X633337Y331374D01*
X633086Y334974D01*
X633007Y335224D01*
X632919Y335374D01*
X632819Y335424D01*
X638758D01*
X638679Y335374D01*
D02*
G37*
G36*
X702382Y322079D02*
X702195Y322268D01*
X701990Y322437D01*
X701765Y322587D01*
X701521Y322716D01*
X701259Y322826D01*
X700977Y322915D01*
X700676Y322985D01*
X700357Y323035D01*
X700018Y323065D01*
X699660Y323075D01*
X699823Y326075D01*
X700180Y326084D01*
X700520Y326110D01*
X700843Y326155D01*
X701149Y326218D01*
X701437Y326299D01*
X701708Y326398D01*
X701962Y326515D01*
X702199Y326649D01*
X702419Y326802D01*
X702622Y326973D01*
X702382Y322079D01*
D02*
G37*
G36*
X510916Y323685D02*
X510976Y323640D01*
X511076Y323599D01*
X511216Y323564D01*
X511396Y323535D01*
X511616Y323510D01*
X512516Y323470D01*
X512896Y323467D01*
Y321467D01*
X512516Y321464D01*
X511216Y321370D01*
X511076Y321335D01*
X510976Y321295D01*
X510916Y321249D01*
X510896Y321198D01*
Y323737D01*
X510916Y323685D01*
D02*
G37*
G36*
X398514Y328525D02*
X398665Y328100D01*
X398917Y327725D01*
X399269Y327400D01*
X399722Y327125D01*
X400275Y326900D01*
X400929Y326725D01*
X401684Y326600D01*
X402539Y326525D01*
X403494Y326500D01*
Y321500D01*
X402539Y321475D01*
X401684Y321400D01*
X400929Y321275D01*
X400275Y321100D01*
X399722Y320875D01*
X399269Y320600D01*
X398917Y320275D01*
X398665Y319900D01*
X398514Y319475D01*
X398464Y319000D01*
Y329000D01*
X398514Y328525D01*
D02*
G37*
G36*
X461735Y318998D02*
X461580Y319111D01*
X461396Y319167D01*
X461184D01*
X460943Y319111D01*
X460675Y318998D01*
X460378Y318828D01*
X460052Y318602D01*
X459699Y318319D01*
X458907Y317583D01*
X457493Y318998D01*
X457889Y319408D01*
X458511Y320143D01*
X458737Y320468D01*
X458907Y320765D01*
X459020Y321034D01*
X459077Y321274D01*
Y321487D01*
X459020Y321670D01*
X458907Y321826D01*
X461735Y318998D01*
D02*
G37*
G36*
X494186Y319008D02*
X494016Y318947D01*
X493866Y318845D01*
X493736Y318703D01*
X493626Y318521D01*
X493536Y318297D01*
X493466Y318033D01*
X493416Y317729D01*
X493386Y317383D01*
X493376Y316998D01*
X491376D01*
X491366Y317383D01*
X491336Y317729D01*
X491286Y318033D01*
X491216Y318297D01*
X491126Y318521D01*
X491016Y318703D01*
X490886Y318845D01*
X490736Y318947D01*
X490566Y319008D01*
X490376Y319028D01*
X494376D01*
X494186Y319008D01*
D02*
G37*
G36*
X419120Y321500D02*
X418171Y321450D01*
X417321Y321300D01*
X416571Y321050D01*
X415920Y320700D01*
X415370Y320250D01*
X414921Y319700D01*
X414571Y319050D01*
X414320Y318300D01*
X414170Y317450D01*
X414120Y316500D01*
X409120D01*
X409071Y317450D01*
X408921Y318300D01*
X408671Y319050D01*
X408321Y319700D01*
X407870Y320250D01*
X407321Y320700D01*
X406670Y321050D01*
X405920Y321300D01*
X405070Y321450D01*
X404120Y321500D01*
X411620Y326500D01*
X419120Y321500D01*
D02*
G37*
G36*
X454616Y318685D02*
X454676Y318640D01*
X454776Y318599D01*
X454916Y318564D01*
X455096Y318535D01*
X455316Y318510D01*
X456216Y318470D01*
X456596Y318467D01*
Y316467D01*
X456216Y316464D01*
X454916Y316370D01*
X454776Y316335D01*
X454676Y316295D01*
X454616Y316249D01*
X454596Y316198D01*
Y318737D01*
X454616Y318685D01*
D02*
G37*
G36*
X379536Y314851D02*
X379506Y315135D01*
X379415Y315390D01*
X379263Y315616D01*
X379051Y315811D01*
X378778Y315975D01*
X378445Y316110D01*
X378051Y316215D01*
X377597Y316290D01*
X377081Y316336D01*
X376506Y316350D01*
Y319350D01*
X377081Y319366D01*
X377597Y319410D01*
X378051Y319485D01*
X378445Y319590D01*
X378778Y319725D01*
X379051Y319890D01*
X379263Y320085D01*
X379415Y320311D01*
X379506Y320565D01*
X379536Y320850D01*
Y314851D01*
D02*
G37*
G36*
X493379Y316307D02*
X493473Y315007D01*
X493508Y314867D01*
X493549Y314767D01*
X493595Y314707D01*
X493646Y314687D01*
X491107D01*
X491158Y314707D01*
X491204Y314767D01*
X491244Y314867D01*
X491279Y315007D01*
X491309Y315187D01*
X491333Y315407D01*
X491374Y316307D01*
X491376Y316687D01*
X493376D01*
X493379Y316307D01*
D02*
G37*
G36*
X531382Y318210D02*
X531566Y318048D01*
X531769Y317905D01*
X531993Y317782D01*
X532238Y317677D01*
X532502Y317591D01*
X532787Y317524D01*
X533092Y317477D01*
X533418Y317448D01*
X533764Y317439D01*
X533906Y315439D01*
X533559Y315428D01*
X533236Y315397D01*
X532936Y315345D01*
X532660Y315273D01*
X532407Y315179D01*
X532177Y315065D01*
X531971Y314930D01*
X531788Y314774D01*
X531628Y314598D01*
X531492Y314401D01*
X531219Y318391D01*
X531382Y318210D01*
D02*
G37*
G36*
X507336Y316208D02*
X507166Y316147D01*
X507016Y316045D01*
X506886Y315903D01*
X506776Y315721D01*
X506686Y315497D01*
X506616Y315233D01*
X506566Y314929D01*
X506536Y314583D01*
X506526Y314198D01*
X504526D01*
X504516Y314583D01*
X504486Y314929D01*
X504436Y315233D01*
X504366Y315497D01*
X504276Y315721D01*
X504166Y315903D01*
X504036Y316045D01*
X503886Y316147D01*
X503716Y316208D01*
X503526Y316228D01*
X507526D01*
X507336Y316208D01*
D02*
G37*
G36*
X605318Y316419D02*
X605361Y316116D01*
X605434Y315815D01*
X605535Y315516D01*
X605666Y315220D01*
X605825Y314925D01*
X606014Y314633D01*
X606231Y314343D01*
X606478Y314056D01*
X606753Y313770D01*
X601853D01*
X602129Y314056D01*
X602375Y314343D01*
X602593Y314633D01*
X602781Y314925D01*
X602941Y315220D01*
X603071Y315516D01*
X603173Y315815D01*
X603245Y316116D01*
X603289Y316419D01*
X603303Y316725D01*
X605303D01*
X605318Y316419D01*
D02*
G37*
G36*
X576796D02*
X576839Y316116D01*
X576912Y315815D01*
X577013Y315516D01*
X577144Y315220D01*
X577303Y314925D01*
X577492Y314633D01*
X577709Y314343D01*
X577956Y314056D01*
X578231Y313770D01*
X573331D01*
X573607Y314056D01*
X573853Y314343D01*
X574071Y314633D01*
X574259Y314925D01*
X574419Y315220D01*
X574549Y315516D01*
X574651Y315815D01*
X574723Y316116D01*
X574767Y316419D01*
X574781Y316725D01*
X576781D01*
X576796Y316419D01*
D02*
G37*
G36*
X385764Y319615D02*
X385841Y319619D01*
Y319355D01*
X386797Y316117D01*
X391319Y316639D01*
X391068Y316315D01*
X390646Y315675D01*
X390475Y315360D01*
X390330Y315048D01*
X390211Y314739D01*
X390119Y314433D01*
X390053Y314131D01*
X390013Y313831D01*
X390000Y313534D01*
X388000Y313293D01*
X387985Y313605D01*
X387938Y313911D01*
X387861Y314208D01*
X387752Y314498D01*
X387613Y314780D01*
X387443Y315054D01*
X387241Y315322D01*
X387009Y315581D01*
X386746Y315833D01*
X386666Y315899D01*
X386456Y315988D01*
X386211Y316073D01*
X385950Y316147D01*
X385841Y316171D01*
Y316082D01*
X385740Y316133D01*
X385546Y316178D01*
X385257Y316219D01*
X384398Y316283D01*
X380608Y316350D01*
Y319350D01*
X384358Y319543D01*
X384589Y319634D01*
X384823Y319758D01*
X385033Y319906D01*
X385216Y320076D01*
X385375Y320268D01*
X385508Y320484D01*
X385764Y319615D01*
D02*
G37*
G36*
X450076Y317239D02*
X449065Y316228D01*
X453277D01*
X452848Y316196D01*
X452396Y316100D01*
X451922Y315939D01*
X451425Y315714D01*
X450906Y315425D01*
X450365Y315072D01*
X449801Y314654D01*
X448605Y313626D01*
X447974Y313016D01*
X446383Y313546D01*
X440855Y308018D01*
X439575Y304616D01*
X437453Y302495D01*
X434893Y304177D01*
X435296Y304610D01*
X435657Y305061D01*
X435975Y305529D01*
X436250Y306015D01*
X436484Y306518D01*
X436675Y307039D01*
X436823Y307577D01*
X436929Y308134D01*
X436993Y308707D01*
X437014Y309298D01*
X437440Y309724D01*
Y317260D01*
X450055D01*
X450076Y317239D01*
D02*
G37*
G36*
X522244Y315061D02*
X522229Y314825D01*
X522246Y314586D01*
X522294Y314346D01*
X522374Y314104D01*
X522485Y313859D01*
X522628Y313612D01*
X522803Y313364D01*
X523009Y313113D01*
X523247Y312861D01*
X521708Y311571D01*
X521457Y311809D01*
X521207Y312019D01*
X520958Y312202D01*
X520709Y312358D01*
X520461Y312486D01*
X520214Y312586D01*
X519968Y312660D01*
X519723Y312706D01*
X519478Y312724D01*
X519235Y312715D01*
X522291Y315296D01*
X522244Y315061D01*
D02*
G37*
G36*
X541320Y319746D02*
X544546D01*
X544456Y319713D01*
X544376Y319613D01*
X544306Y319448D01*
X544245Y319216D01*
X544193Y318919D01*
X544151Y318555D01*
X544095Y317629D01*
X544076Y316439D01*
X544081Y315810D01*
X544193Y313958D01*
X544245Y313661D01*
X544306Y313429D01*
X544376Y313264D01*
X544456Y313165D01*
X544546Y313132D01*
X541320D01*
X539076Y310439D01*
X539056Y311389D01*
X538996Y312239D01*
X538896Y312989D01*
X538865Y313132D01*
X538606D01*
X538696Y313165D01*
X538776Y313264D01*
X538816Y313359D01*
X538756Y313639D01*
X538576Y314189D01*
X538356Y314639D01*
X538096Y314989D01*
X537796Y315239D01*
X537703Y315280D01*
X536779Y315369D01*
X535196Y315431D01*
X534285Y315439D01*
Y317439D01*
X535196Y317446D01*
X537733Y317611D01*
X537796Y317639D01*
X538096Y317889D01*
X538356Y318239D01*
X538576Y318689D01*
X538756Y319239D01*
X538816Y319518D01*
X538776Y319613D01*
X538696Y319713D01*
X538606Y319746D01*
X538865D01*
X538896Y319889D01*
X539056Y321489D01*
X539076Y322439D01*
X541320Y319746D01*
D02*
G37*
G36*
X530877Y306550D02*
X530591Y306826D01*
X530303Y307072D01*
X530014Y307290D01*
X529722Y307478D01*
X529427Y307638D01*
X529131Y307768D01*
X528832Y307869D01*
X528531Y307942D01*
X528227Y307985D01*
X527922Y308000D01*
Y310000D01*
X528227Y310014D01*
X528531Y310058D01*
X528832Y310131D01*
X529131Y310232D01*
X529427Y310362D01*
X529722Y310522D01*
X530014Y310711D01*
X530303Y310928D01*
X530591Y311175D01*
X530877Y311450D01*
Y306550D01*
D02*
G37*
G36*
X541435Y304723D02*
X541282Y304833D01*
X541100Y304887D01*
X540890Y304884D01*
X540650Y304824D01*
X540382Y304708D01*
X540085Y304535D01*
X539758Y304306D01*
X539403Y304020D01*
X538606Y303278D01*
X537192Y304693D01*
X537591Y305105D01*
X538220Y305844D01*
X538449Y306171D01*
X538622Y306468D01*
X538738Y306736D01*
X538798Y306976D01*
X538801Y307187D01*
X538747Y307368D01*
X538637Y307521D01*
X541435Y304723D01*
D02*
G37*
G36*
X498634Y307884D02*
X498691Y307738D01*
X498786Y307610D01*
X498918Y307498D01*
X499088Y307403D01*
X499296Y307326D01*
X499541Y307266D01*
X499825Y307223D01*
X500146Y307197D01*
X500505Y307189D01*
Y305189D01*
X500146Y305180D01*
X499825Y305154D01*
X499541Y305111D01*
X499296Y305051D01*
X499088Y304974D01*
X498918Y304879D01*
X498786Y304768D01*
X498691Y304639D01*
X498634Y304493D01*
X498615Y304330D01*
Y308048D01*
X498634Y307884D01*
D02*
G37*
G36*
X674273Y307886D02*
X674205Y307720D01*
X674197Y307520D01*
X674250Y307287D01*
X674364Y307021D01*
X674539Y306721D01*
X674775Y306389D01*
X675071Y306023D01*
X675848Y305191D01*
X674702Y303509D01*
X674174Y304023D01*
X672823Y305166D01*
X672450Y305414D01*
X672116Y305596D01*
X671821Y305712D01*
X671564Y305761D01*
X671346Y305744D01*
X671166Y305661D01*
X674403Y308020D01*
X674273Y307886D01*
D02*
G37*
G36*
X390810Y305271D02*
X390640Y305210D01*
X390490Y305108D01*
X390360Y304966D01*
X390250Y304783D01*
X390160Y304560D01*
X390090Y304296D01*
X390040Y303991D01*
X390010Y303646D01*
X390000Y303260D01*
X388000D01*
X387990Y303646D01*
X387960Y303991D01*
X387910Y304296D01*
X387840Y304560D01*
X387750Y304783D01*
X387640Y304966D01*
X387510Y305108D01*
X387360Y305210D01*
X387190Y305271D01*
X387000Y305291D01*
X391000D01*
X390810Y305271D01*
D02*
G37*
G36*
X423713Y306171D02*
X423668Y306074D01*
X423628Y305913D01*
X423594Y305687D01*
X423541Y305040D01*
X423502Y303587D01*
X423499Y302973D01*
X418499D01*
X418497Y303587D01*
X418330Y306074D01*
X418286Y306171D01*
X418236Y306203D01*
X423763D01*
X423713Y306171D01*
D02*
G37*
G36*
X488538Y303928D02*
X488441Y303868D01*
X488355Y303768D01*
X488281Y303628D01*
X488219Y303448D01*
X488167Y303228D01*
X488128Y302968D01*
X488099Y302668D01*
X488076Y301948D01*
X486076D01*
X486107Y303948D01*
X488646D01*
X488538Y303928D01*
D02*
G37*
G36*
X468595D02*
X468549Y303868D01*
X468508Y303768D01*
X468473Y303628D01*
X468444Y303448D01*
X468419Y303228D01*
X468379Y302328D01*
X468376Y301948D01*
X466376D01*
X466374Y302328D01*
X466279Y303628D01*
X466244Y303768D01*
X466204Y303868D01*
X466158Y303928D01*
X466107Y303948D01*
X468646D01*
X468595Y303928D01*
D02*
G37*
G36*
X463595D02*
X463549Y303868D01*
X463508Y303768D01*
X463473Y303628D01*
X463444Y303448D01*
X463419Y303228D01*
X463379Y302328D01*
X463376Y301948D01*
X461376D01*
X461374Y302328D01*
X461279Y303628D01*
X461244Y303768D01*
X461204Y303868D01*
X461158Y303928D01*
X461107Y303948D01*
X463646D01*
X463595Y303928D01*
D02*
G37*
G36*
X458595D02*
X458549Y303868D01*
X458508Y303768D01*
X458473Y303628D01*
X458444Y303448D01*
X458419Y303228D01*
X458379Y302328D01*
X458376Y301948D01*
X456376D01*
X456374Y302328D01*
X456279Y303628D01*
X456244Y303768D01*
X456204Y303868D01*
X456158Y303928D01*
X456107Y303948D01*
X458646D01*
X458595Y303928D01*
D02*
G37*
G36*
X279760Y303815D02*
X279590Y303754D01*
X279440Y303653D01*
X279310Y303510D01*
X279200Y303328D01*
X279110Y303104D01*
X279040Y302840D01*
X278990Y302536D01*
X278960Y302191D01*
X278950Y301805D01*
X276950D01*
X276940Y302191D01*
X276910Y302536D01*
X276860Y302840D01*
X276790Y303104D01*
X276700Y303328D01*
X276590Y303510D01*
X276460Y303653D01*
X276310Y303754D01*
X276140Y303815D01*
X275950Y303835D01*
X279950D01*
X279760Y303815D01*
D02*
G37*
G36*
X318930Y303768D02*
X318850Y303657D01*
X318780Y303472D01*
X318719Y303214D01*
X318667Y302881D01*
X318592Y301994D01*
X318555Y300812D01*
X318550Y300110D01*
X313550D01*
X313545Y300812D01*
X313381Y303214D01*
X313320Y303472D01*
X313250Y303657D01*
X313170Y303768D01*
X313081Y303805D01*
X319020D01*
X318930Y303768D01*
D02*
G37*
G36*
X515039Y303822D02*
X515281Y303638D01*
X515544Y303472D01*
X515826Y303325D01*
X516129Y303196D01*
X516452Y303086D01*
X516795Y302994D01*
X517158Y302921D01*
X517542Y302866D01*
X517946Y302830D01*
X514230Y299636D01*
X514251Y300023D01*
X514246Y300393D01*
X514216Y300745D01*
X514161Y301079D01*
X514080Y301397D01*
X513973Y301696D01*
X513841Y301979D01*
X513684Y302244D01*
X513500Y302491D01*
X513292Y302721D01*
X514818Y304024D01*
X515039Y303822D01*
D02*
G37*
G36*
X624318Y300161D02*
X624373Y299456D01*
X624398Y299343D01*
X624427Y299255D01*
X624462Y299192D01*
X624500Y299154D01*
X624543Y299142D01*
X622089D01*
X622132Y299154D01*
X622171Y299192D01*
X622205Y299255D01*
X622234Y299343D01*
X622259Y299456D01*
X622280Y299595D01*
X622307Y299947D01*
X622316Y300400D01*
X624316D01*
X624318Y300161D01*
D02*
G37*
G36*
X293530Y303755D02*
X293451Y303605D01*
X293380Y303355D01*
X293319Y303005D01*
X293267Y302555D01*
X293169Y300605D01*
X293150Y298805D01*
X288150D01*
X288145Y299755D01*
X287920Y303355D01*
X287850Y303605D01*
X287770Y303755D01*
X287680Y303805D01*
X293620D01*
X293530Y303755D01*
D02*
G37*
G36*
X504827Y303303D02*
X505078Y303121D01*
X505341Y302972D01*
X505618Y302855D01*
X505909Y302771D01*
X506213Y302719D01*
X506530Y302699D01*
X506861Y302711D01*
X507205Y302756D01*
X507563Y302833D01*
X505022Y298643D01*
X504918Y299054D01*
X504681Y299807D01*
X504547Y300151D01*
X504251Y300770D01*
X504088Y301046D01*
X503915Y301299D01*
X503733Y301530D01*
X503540Y301739D01*
X504591Y303517D01*
X504827Y303303D01*
D02*
G37*
G36*
X556525Y300757D02*
X556637Y298905D01*
X556689Y298608D01*
X556750Y298376D01*
X556820Y298211D01*
X556900Y298112D01*
X556990Y298079D01*
X551050D01*
X551140Y298112D01*
X551219Y298211D01*
X551290Y298376D01*
X551351Y298608D01*
X551403Y298905D01*
X551445Y299269D01*
X551501Y300195D01*
X551520Y301386D01*
X556520D01*
X556525Y300757D01*
D02*
G37*
G36*
X625319Y297496D02*
X625108Y297270D01*
X624923Y297031D01*
X624762Y296778D01*
X624626Y296512D01*
X624514Y296233D01*
X624427Y295940D01*
X624366Y295634D01*
X624328Y295314D01*
X624316Y294982D01*
X622316D01*
X622304Y295314D01*
X622267Y295634D01*
X622205Y295940D01*
X622118Y296233D01*
X622007Y296512D01*
X621870Y296778D01*
X621710Y297031D01*
X621524Y297270D01*
X621314Y297496D01*
X621078Y297708D01*
X625554D01*
X625319Y297496D01*
D02*
G37*
G36*
X293139Y297020D02*
X292974Y294769D01*
X292875Y294219D01*
X292754Y293769D01*
X292611Y293419D01*
X292446Y293169D01*
X292258Y293020D01*
X292049Y292969D01*
X285650D01*
X286125Y293020D01*
X286550Y293169D01*
X286925Y293419D01*
X287250Y293769D01*
X287525Y294219D01*
X287750Y294769D01*
X287925Y295420D01*
X288050Y296169D01*
X288125Y297020D01*
X288150Y297969D01*
X293150D01*
X293139Y297020D01*
D02*
G37*
G36*
X669190Y302036D02*
X670514Y300905D01*
X671142Y300445D01*
X671747Y300056D01*
X672330Y299738D01*
X672889Y299491D01*
X673427Y299314D01*
X673941Y299208D01*
X674434Y299172D01*
X668494Y292101D01*
X668750Y292518D01*
X668869Y292999D01*
X668854Y293545D01*
X668704Y294155D01*
X668418Y294830D01*
X667996Y295569D01*
X667440Y296373D01*
X666748Y297242D01*
X665921Y298175D01*
X664959Y299172D01*
X668494Y302708D01*
X669190Y302036D01*
D02*
G37*
G36*
X399587Y291171D02*
X399340Y290884D01*
X399123Y290594D01*
X398934Y290302D01*
X398775Y290007D01*
X398646Y289714D01*
X398664Y289668D01*
X398774Y289467D01*
X398905Y289300D01*
X399056Y289166D01*
X399227Y289066D01*
X399418Y289000D01*
X398451Y288976D01*
X398427Y288807D01*
X398412Y288502D01*
X396412D01*
X396398Y288807D01*
X396381Y288925D01*
X395420Y288901D01*
X395608Y288977D01*
X395777Y289085D01*
X395926Y289226D01*
X396055Y289400D01*
X396164Y289606D01*
X396191Y289678D01*
X396180Y289711D01*
X396050Y290007D01*
X395890Y290302D01*
X395702Y290594D01*
X395484Y290884D01*
X395238Y291171D01*
X394962Y291457D01*
X399862D01*
X399587Y291171D01*
D02*
G37*
G36*
X599115Y292139D02*
X599149Y291803D01*
X599206Y291494D01*
X599286Y291212D01*
X599389Y290956D01*
X599514Y290727D01*
X599663Y290525D01*
X599834Y290349D01*
X600028Y290200D01*
X600245Y290077D01*
X595608Y288493D01*
X595703Y288698D01*
X595787Y288921D01*
X595861Y289161D01*
X595925Y289419D01*
X596024Y289985D01*
X596059Y290295D01*
X596098Y290966D01*
X596103Y291327D01*
X599103Y292501D01*
X599115Y292139D01*
D02*
G37*
G36*
X381563Y287649D02*
X381309Y287381D01*
X381092Y287122D01*
X380914Y286872D01*
X380772Y286632D01*
X380668Y286401D01*
X380602Y286179D01*
X380574Y285966D01*
X380583Y285763D01*
X380629Y285570D01*
X380713Y285385D01*
X377885Y288213D01*
X378070Y288129D01*
X378263Y288083D01*
X378466Y288074D01*
X378679Y288102D01*
X378901Y288168D01*
X379132Y288272D01*
X379372Y288414D01*
X379622Y288592D01*
X379880Y288809D01*
X380149Y289063D01*
X381563Y287649D01*
D02*
G37*
G36*
X661990Y290733D02*
X661497Y290698D01*
X660983Y290592D01*
X660445Y290415D01*
X659886Y290168D01*
X659303Y289849D01*
X658698Y289461D01*
X658070Y289001D01*
X656746Y287869D01*
X656050Y287198D01*
X652515Y290733D01*
X653477Y291731D01*
X654996Y293533D01*
X655552Y294336D01*
X655974Y295076D01*
X656260Y295751D01*
X656410Y296361D01*
X656425Y296907D01*
X656306Y297388D01*
X656050Y297804D01*
X661990Y290733D01*
D02*
G37*
G36*
X324245Y295485D02*
X326122Y293888D01*
X326945Y293311D01*
X327691Y292880D01*
X328359Y292598D01*
X328951Y292462D01*
X329465Y292474D01*
X329901Y292633D01*
X330261Y292939D01*
X325270Y287031D01*
X325217Y287145D01*
X325058Y287359D01*
X324793Y287673D01*
X322671Y289923D01*
X319967Y292657D01*
X323190Y296505D01*
X324245Y295485D01*
D02*
G37*
G36*
X664184Y283754D02*
X663785Y283341D01*
X663156Y282602D01*
X662927Y282275D01*
X662754Y281978D01*
X662638Y281710D01*
X662579Y281470D01*
X662576Y281260D01*
X662629Y281078D01*
X662739Y280925D01*
X659941Y283723D01*
X660094Y283613D01*
X660276Y283559D01*
X660486Y283563D01*
X660726Y283622D01*
X660994Y283738D01*
X661291Y283911D01*
X661618Y284140D01*
X661973Y284426D01*
X662769Y285168D01*
X664184Y283754D01*
D02*
G37*
G36*
X556900Y289590D02*
X556820Y289440D01*
X556750Y289190D01*
X556689Y288840D01*
X556637Y288390D01*
X556550Y286667D01*
X556750Y283475D01*
X556820Y283225D01*
X556900Y283076D01*
X556990Y283025D01*
X551050D01*
X551140Y283076D01*
X551219Y283225D01*
X551290Y283475D01*
X551351Y283825D01*
X551403Y284275D01*
X551490Y285998D01*
X551290Y289190D01*
X551219Y289440D01*
X551140Y289590D01*
X551050Y289640D01*
X556990D01*
X556900Y289590D01*
D02*
G37*
G36*
X430161D02*
X430081Y289440D01*
X430011Y289190D01*
X429950Y288840D01*
X429898Y288390D01*
X429811Y286667D01*
X430011Y283475D01*
X430081Y283225D01*
X430161Y283076D01*
X430250Y283025D01*
X424311D01*
X424400Y283076D01*
X424480Y283225D01*
X424551Y283475D01*
X424612Y283825D01*
X424664Y284275D01*
X424751Y285998D01*
X424551Y289190D01*
X424480Y289440D01*
X424400Y289590D01*
X424311Y289640D01*
X430250D01*
X430161Y289590D01*
D02*
G37*
G36*
X258706Y281775D02*
X258366Y281422D01*
X257819Y280761D01*
X257611Y280455D01*
X257448Y280164D01*
X257328Y279889D01*
X257253Y279630D01*
X257222Y279387D01*
X257235Y279159D01*
X257292Y278947D01*
X255713Y283025D01*
X255809Y282853D01*
X255939Y282743D01*
X256103Y282695D01*
X256302Y282709D01*
X256534Y282786D01*
X256801Y282925D01*
X257102Y283127D01*
X257437Y283391D01*
X257806Y283718D01*
X258209Y284107D01*
X258706Y281775D01*
D02*
G37*
G36*
X615500Y285264D02*
X615509Y284907D01*
X615578Y284244D01*
X615639Y283937D01*
X615717Y283648D01*
X615813Y283375D01*
X615926Y283118D01*
X616056Y282879D01*
X616204Y282656D01*
X616369Y282450D01*
X611483Y282812D01*
X611676Y282994D01*
X611849Y283195D01*
X612001Y283416D01*
X612134Y283657D01*
X612246Y283917D01*
X612337Y284196D01*
X612408Y284496D01*
X612459Y284815D01*
X612490Y285153D01*
X612500Y285511D01*
X615500Y285264D01*
D02*
G37*
G36*
X683556Y274605D02*
X683494Y275076D01*
X683315Y275498D01*
X683021Y275870D01*
X682610Y276193D01*
X682083Y276466D01*
X681440Y276689D01*
X680680Y276863D01*
X679805Y276987D01*
X679013Y277046D01*
X677663Y276927D01*
X677013Y276803D01*
X676463Y276643D01*
X676013Y276448D01*
X675664Y276218D01*
X675414Y275952D01*
X675264Y275651D01*
X675213Y275315D01*
Y283754D01*
X675264Y283437D01*
X675414Y283153D01*
X675664Y282903D01*
X676013Y282686D01*
X676463Y282503D01*
X677013Y282353D01*
X677663Y282236D01*
X678413Y282153D01*
X679048Y282129D01*
X679789Y282185D01*
X680656Y282309D01*
X681408Y282483D01*
X682043Y282707D01*
X682562Y282979D01*
X682965Y283302D01*
X683251Y283674D01*
X683422Y284096D01*
X683476Y284568D01*
X683556Y274605D01*
D02*
G37*
G36*
X600579Y283945D02*
X600368Y283796D01*
X600180Y283623D01*
X600014Y283427D01*
X599869Y283207D01*
X599747Y282964D01*
X599647Y282698D01*
X599570Y282408D01*
X599514Y282095D01*
X599481Y281758D01*
X599470Y281398D01*
X596470Y282152D01*
X596463Y282510D01*
X596409Y283178D01*
X596362Y283488D01*
X596228Y284061D01*
X596141Y284323D01*
X596040Y284570D01*
X595926Y284801D01*
X595798Y285017D01*
X600579Y283945D01*
D02*
G37*
G36*
X564510Y283618D02*
X564538Y283278D01*
X564585Y282957D01*
X564652Y282654D01*
X564738Y282368D01*
X564842Y282101D01*
X564966Y281852D01*
X565108Y281621D01*
X565270Y281407D01*
X565450Y281212D01*
X560550D01*
X560731Y281407D01*
X560892Y281621D01*
X561035Y281852D01*
X561158Y282101D01*
X561263Y282368D01*
X561348Y282654D01*
X561414Y282957D01*
X561462Y283278D01*
X561491Y283618D01*
X561500Y283975D01*
X564500D01*
X564510Y283618D01*
D02*
G37*
G36*
X458404Y289101D02*
X458487Y288702D01*
X458624Y288332D01*
X458817Y287992D01*
X459065Y287680D01*
X459368Y287397D01*
X459726Y287144D01*
X460139Y286919D01*
X460607Y286724D01*
X461130Y286558D01*
X456233Y283962D01*
Y278237D01*
X456018Y278427D01*
X455769Y278597D01*
X455482Y278747D01*
X455161Y278877D01*
X454803Y278987D01*
X454409Y279077D01*
X453979Y279147D01*
X453513Y279197D01*
X452473Y279237D01*
Y284237D01*
X453011Y284247D01*
X453979Y284327D01*
X454409Y284397D01*
X454803Y284487D01*
X455161Y284597D01*
X455482Y284727D01*
X455492Y284732D01*
X456324Y287799D01*
X456363Y288115D01*
X456376Y288378D01*
X458376Y289529D01*
X458404Y289101D01*
D02*
G37*
G36*
X435250Y279237D02*
X434297Y279212D01*
X433443Y279137D01*
X432690Y279012D01*
X432037Y278837D01*
X431483Y278612D01*
X431031Y278337D01*
X430678Y278012D01*
X430425Y277637D01*
X430272Y277212D01*
X430220Y276737D01*
X430250Y283025D01*
X430300Y283256D01*
X430450Y283462D01*
X430700Y283644D01*
X431050Y283801D01*
X431500Y283934D01*
X432050Y284044D01*
X432700Y284128D01*
X434300Y284225D01*
X435250Y284237D01*
Y279237D01*
D02*
G37*
G36*
X304440Y274587D02*
X304390Y274676D01*
X304240Y274755D01*
X303990Y274826D01*
X303640Y274887D01*
X303190Y274939D01*
X301240Y275037D01*
X299440Y275056D01*
Y280056D01*
X300390Y280061D01*
X303990Y280286D01*
X304240Y280357D01*
X304390Y280436D01*
X304440Y280525D01*
Y274587D01*
D02*
G37*
G36*
X292099Y280436D02*
X292249Y280357D01*
X292499Y280286D01*
X292849Y280225D01*
X293299Y280173D01*
X295249Y280075D01*
X297049Y280056D01*
Y275056D01*
X296099Y275051D01*
X292499Y274826D01*
X292249Y274755D01*
X292099Y274676D01*
X292049Y274587D01*
Y280525D01*
X292099Y280436D01*
D02*
G37*
G36*
X638028Y281948D02*
X638178Y281635D01*
X638428Y281358D01*
X638778Y281119D01*
X639228Y280916D01*
X639778Y280751D01*
X640428Y280621D01*
X641178Y280529D01*
X642028Y280474D01*
X642978Y280456D01*
Y275456D01*
X642028Y275440D01*
X640428Y275312D01*
X639778Y275200D01*
X639228Y275056D01*
X638778Y274881D01*
X638428Y274673D01*
X638178Y274433D01*
X638028Y274162D01*
X637978Y273859D01*
Y282298D01*
X638028Y281948D01*
D02*
G37*
D11*
X671464Y399230D02*
X677004Y393690D01*
X665924Y363897D02*
X671464Y369437D01*
X666155Y365142D02*
X670425Y369412D01*
X617805Y374977D02*
X623345Y369437D01*
X698708Y347462D02*
X707248Y356002D01*
X690168D02*
X698708Y347462D01*
X707248Y338922D01*
X690168D02*
X698708Y347462D01*
X653480Y334103D02*
X659020Y339643D01*
X663291Y335372D01*
X654749D02*
X659020Y339643D01*
X664560Y334103D01*
X594041Y398347D02*
X599581Y392807D01*
X600860Y391762D02*
X606400Y386222D01*
X489879Y394123D02*
X494419Y398663D01*
X489879Y394613D02*
X494150Y398884D01*
X489879Y394613D02*
X494150Y390342D01*
X485608D02*
X489879Y394613D01*
X485339Y398663D02*
X489879Y394123D01*
X485608Y398884D02*
X489879Y394613D01*
X485339Y389584D02*
X489879Y394123D01*
X494419Y389584D01*
X578789Y355944D02*
X582603Y352130D01*
X567477Y386418D02*
X571747Y382147D01*
X563206D02*
X567477Y386418D01*
X425295Y371847D02*
X429566Y367576D01*
X425295Y363305D02*
X429566Y367576D01*
X423401Y362036D02*
X428941Y367576D01*
X423401Y373116D02*
X428941Y367576D01*
X659020Y309850D02*
X664560Y315390D01*
X647836Y329340D02*
X653376Y323800D01*
X647836Y318260D02*
X653376Y323800D01*
X653480Y304310D02*
X659020Y309850D01*
X653480Y315390D02*
X659020Y309850D01*
X635789D02*
X641329Y315390D01*
X630249Y304310D02*
X635789Y309850D01*
X641329Y304310D01*
X630249Y315390D02*
X635789Y309850D01*
Y294953D02*
X641329Y300493D01*
X630249Y289413D02*
X635789Y294953D01*
X641329Y289413D01*
X537456Y293799D02*
X541727Y298070D01*
X545998Y293799D01*
X541576Y293859D02*
X547116Y288319D01*
X536036D02*
X541576Y293859D01*
Y278806D02*
X547116Y273266D01*
X541576Y278806D02*
X547116Y284346D01*
X536036D02*
X541576Y278806D01*
X536036Y273266D02*
X541576Y278806D01*
X497303Y281737D02*
X504843Y274197D01*
X489763D02*
X497303Y281737D01*
X414837Y399230D02*
X420377Y393690D01*
X409297D02*
X414837Y399230D01*
Y384177D02*
X420377Y389717D01*
X409297D02*
X414837Y384177D01*
X420377Y378637D01*
X409297D02*
X414837Y384177D01*
X387500Y367200D02*
X401040Y380740D01*
X373960D02*
X387500Y367200D01*
X413057Y367576D02*
X418597Y373116D01*
X407517D02*
X413057Y367576D01*
X418597Y362036D01*
X407517D02*
X413057Y367576D01*
X387500Y367200D02*
X401040Y353660D01*
X373960D02*
X387500Y367200D01*
X287830Y400456D02*
X293370Y405996D01*
X287472Y400722D02*
X291743Y404992D01*
X287472Y400722D02*
X291743Y396451D01*
X283201D02*
X287472Y400722D01*
X287830Y400456D02*
X293370Y394916D01*
X282290D02*
X287830Y400456D01*
X241878Y399206D02*
X247418Y393666D01*
X236338Y404746D02*
X241878Y399206D01*
X236338Y393666D02*
X241878Y399206D01*
X290650Y363124D02*
X296190Y368664D01*
X285110Y357584D02*
X290650Y363124D01*
X285110Y368664D02*
X290650Y363124D01*
X296190Y357584D01*
X409297Y299399D02*
X414837Y293859D01*
X409297Y288319D02*
X414837Y293859D01*
X420377Y288319D01*
X308660Y290000D02*
X312931Y294271D01*
X304389D02*
X308660Y290000D01*
X303120Y295540D02*
X308660Y290000D01*
X414837Y278806D02*
X420377Y284346D01*
X409297D02*
X414837Y278806D01*
X350600Y281600D02*
X357784Y288784D01*
X343416D02*
X350600Y281600D01*
X414837Y278806D02*
X420377Y273266D01*
X409297D02*
X414837Y278806D01*
X350600Y281600D02*
X357784Y274416D01*
X343416D02*
X350600Y281600D01*
X323950Y283096D02*
X329490Y277556D01*
X335030Y283096D01*
X329489Y277511D02*
X333760Y281782D01*
X325218D02*
X329489Y277511D01*
X303120Y284460D02*
X308660Y290000D01*
X304389Y285729D02*
X308660Y290000D01*
X329489Y277511D02*
X333760Y273240D01*
X325218D02*
X329489Y277511D01*
X272871Y272787D02*
X277142Y277058D01*
X267000Y277556D02*
X272540Y272016D01*
X261460D02*
X267000Y277556D01*
D12*
X277950Y287150D02*
Y313624D01*
X274200Y283400D02*
X277950Y287150D01*
X258916Y283400D02*
X274200D01*
X254322Y278806D02*
X258916Y283400D01*
X389000Y296500D02*
Y319200D01*
X547774Y376074D02*
X567396D01*
X567550Y375920D01*
X594162Y399870D02*
X613769Y380262D01*
X605000Y380849D02*
Y386222D01*
X568727Y386418D02*
X570727Y384418D01*
X613769Y380262D02*
X614257D01*
X604413D02*
X613769D01*
X621345Y372687D02*
X623345Y370687D01*
X613769Y380262D02*
X621345Y372687D01*
Y373174D01*
Y371437D02*
Y372687D01*
X623345Y369437D02*
Y370687D01*
X594041Y398347D02*
X594541Y397847D01*
X574883Y380262D02*
X604413D01*
X574912Y367650D02*
X581236Y373974D01*
X554020Y369124D02*
X555494Y367650D01*
X574912D01*
X581236Y373974D02*
X586526D01*
X580769Y386444D02*
X587900D01*
X568210Y399003D02*
Y406180D01*
Y399003D02*
X580769Y386444D01*
X629353Y349396D02*
Y389394D01*
X567477Y386418D02*
X568727D01*
X477430Y337414D02*
X492376Y322467D01*
X604413Y380262D02*
X605000Y380849D01*
X596517Y373889D02*
X597603Y372803D01*
X596432Y373974D02*
X596517Y373889D01*
X597603Y356364D02*
X598775Y355192D01*
X612617D01*
X595476Y373974D02*
X596432D01*
X597603Y356364D02*
Y372803D01*
X397412Y281788D02*
Y293956D01*
Y281788D02*
X397600Y281600D01*
X374100D02*
X389000Y296500D01*
X329490Y277556D02*
X344069D01*
X344422Y277910D01*
X631159Y347590D02*
X665764D01*
X629353Y349396D02*
X631159Y347590D01*
X612617Y355192D02*
X613040Y354770D01*
X567130Y361000D02*
X589392D01*
X567130Y353890D02*
Y361000D01*
X566980Y353740D02*
X567130Y353890D01*
X566023Y354269D02*
X566475Y353818D01*
X597603Y353466D02*
X597877Y353740D01*
X519480Y315214D02*
X525694Y309000D01*
X519480Y315214D02*
Y316200D01*
X525694Y309000D02*
X533376D01*
X527089Y316439D02*
X541576D01*
X526350Y315700D02*
X527089Y316439D01*
X653271Y375480D02*
X653358Y375393D01*
X652834Y375916D02*
X653271Y375480D01*
Y375694D01*
X635789Y399230D02*
X648179D01*
X652834Y394576D01*
Y375916D02*
Y394576D01*
X635789Y397980D02*
X637789Y395980D01*
X635789Y397980D02*
Y399230D01*
X568210Y406180D02*
X602620D01*
X616682Y392118D02*
X626628D01*
X602620Y406180D02*
X616682Y392118D01*
X623316Y294982D02*
X623345Y294953D01*
X623316Y294982D02*
Y300400D01*
X665234Y376917D02*
X670957Y371194D01*
X665234Y376917D02*
Y391751D01*
X671464Y397980D01*
X623153Y385537D02*
X623345D01*
X626628Y392118D02*
X629353Y389394D01*
X623345Y354540D02*
X629230D01*
X665764Y347590D02*
X671464Y353290D01*
X540951Y399855D02*
X541576Y399230D01*
X539705Y401101D02*
X540951Y399855D01*
X551055Y392281D02*
X558736D01*
X553876Y392749D02*
X554020Y392894D01*
Y399230D01*
X570727Y384418D02*
X570727D01*
X574883Y380262D01*
X547774Y376074D02*
Y389000D01*
X551055Y392281D01*
X558736D02*
X559470Y393014D01*
X554118Y384275D02*
X554520D01*
X554020Y384177D02*
X554118Y384275D01*
X537458Y376074D02*
X547774D01*
X536039Y376039D02*
X537422D01*
X537458Y376074D01*
X528110Y368110D02*
X536039Y376039D01*
X614257Y380262D02*
X621345Y373174D01*
Y371437D02*
X623345Y369437D01*
X505526Y311901D02*
X517717Y299711D01*
Y299337D02*
Y299711D01*
X523414Y289500D02*
X540060Y306146D01*
X540893D01*
X522733Y289500D02*
X523414D01*
X522670Y289437D02*
X522733Y289500D01*
X533000Y308624D02*
X533376Y309000D01*
X533000Y305000D02*
Y308624D01*
X477376Y337467D02*
X477430Y337414D01*
Y324000D02*
Y337414D01*
X508848Y366502D02*
X541576Y399230D01*
X457376Y284004D02*
X457620Y283760D01*
X487076Y300274D02*
Y309017D01*
X486139Y299337D02*
X487076Y300274D01*
Y309017D02*
X487376Y309317D01*
X497376Y306489D02*
Y309317D01*
Y306489D02*
X497676Y306189D01*
X500505D02*
X507252Y299442D01*
X497676Y306189D02*
X500505D01*
X507252Y299442D02*
X508429D01*
X509701Y401101D02*
X539705D01*
X509666Y401137D02*
X509701Y401101D01*
X547276Y406180D02*
X568210D01*
X448683Y378510D02*
X448809Y378637D01*
X462248D01*
X448602Y369187D02*
X453863Y374448D01*
X460332D01*
X448517Y369187D02*
X448602D01*
X462298Y365695D02*
X462376Y365617D01*
X439744Y368851D02*
X446095Y362500D01*
X457076D01*
X438391Y368851D02*
X439744D01*
X462298Y365695D02*
Y372481D01*
X460332Y374448D02*
X462298Y372481D01*
X462248Y378637D02*
X467376Y373508D01*
X452840Y386128D02*
Y400480D01*
Y386128D02*
X456632Y382337D01*
X463781D01*
X472376Y373741D01*
X457376Y362800D02*
Y365617D01*
X457076Y362500D02*
X457376Y362800D01*
X482309Y365684D02*
X482376Y365617D01*
X482309Y365684D02*
Y372493D01*
X468078Y386724D02*
X482309Y372493D01*
X462000Y388036D02*
X463313Y386724D01*
X468078D01*
X472376Y365617D02*
Y373741D01*
X467376Y365617D02*
Y373508D01*
X623320Y399700D02*
X623345Y399675D01*
Y399230D02*
Y399675D01*
X497676Y366502D02*
X508848D01*
X541576Y400480D02*
X547276Y406180D01*
X581480Y398464D02*
X581597Y398347D01*
X581480Y398464D02*
Y398790D01*
X623345Y384334D02*
Y385537D01*
X520934Y346525D02*
X521910D01*
X516876Y342467D02*
X520934Y346525D01*
X515235Y362155D02*
X536748Y383668D01*
X541066D01*
X515235Y355366D02*
Y362155D01*
X541066Y383668D02*
X541576Y384177D01*
X293300Y338374D02*
X297000D01*
X449226Y317467D02*
X457376D01*
X471863Y293137D02*
X521137D01*
X462376Y294324D02*
X467263Y289437D01*
X522670D01*
X462376Y294324D02*
Y309317D01*
X521137Y293137D02*
X533000Y305000D01*
X467376Y297624D02*
X471863Y293137D01*
X505526Y311901D02*
Y317467D01*
X698708Y398262D02*
X698738D01*
X699000Y398000D01*
X554020Y354020D02*
Y354071D01*
X554000Y354000D02*
X554020Y354020D01*
X589392Y361000D02*
X592603Y357789D01*
Y352130D02*
Y357789D01*
X505526Y342467D02*
X516876D01*
X513467Y347467D02*
X521910Y355910D01*
Y356000D01*
X512402Y352534D02*
X515235Y355366D01*
X505526Y347467D02*
X513467D01*
X505593Y352534D02*
X512402D01*
X505526Y352467D02*
X505593Y352534D01*
X497376Y366202D02*
X497676Y366502D01*
X497376Y365617D02*
Y366202D01*
X671464Y353290D02*
Y354540D01*
Y397980D02*
Y399230D01*
X536124Y369124D02*
X541576D01*
X531810Y364810D02*
X536124Y369124D01*
X546073Y331342D02*
X547910Y333179D01*
X526362Y327467D02*
X535510Y336615D01*
X524772Y332467D02*
X531810Y339505D01*
X541576Y352821D02*
X547910Y346488D01*
X528110Y341822D02*
Y368110D01*
X523755Y337467D02*
X528110Y341822D01*
X547910Y333179D02*
Y346488D01*
X535510Y336615D02*
Y359073D01*
X531810Y339505D02*
Y364810D01*
X535510Y359073D02*
X538152Y361716D01*
X536774Y331342D02*
X546073D01*
X527899Y322467D02*
X536774Y331342D01*
X505526Y322467D02*
X527899D01*
X505526Y332467D02*
X524772D01*
X505526Y337467D02*
X523755D01*
X505526Y327467D02*
X526362D01*
X538152Y361716D02*
X547862D01*
X541576Y352821D02*
Y354071D01*
X547862Y361716D02*
X554020Y367874D01*
Y369124D01*
X604303Y311271D02*
Y330414D01*
X604311Y330422D01*
X575781Y311434D02*
Y330308D01*
X575895Y330422D01*
X666480Y287464D02*
X676258D01*
X659800Y280784D02*
X666480Y287464D01*
X676258D02*
X679200Y290407D01*
Y300424D01*
X673464Y306161D02*
Y307850D01*
Y306161D02*
X679200Y300424D01*
X671464Y309850D02*
X673464Y307850D01*
X659800Y279534D02*
Y280784D01*
X467376Y297624D02*
Y309317D01*
X457376Y284004D02*
Y309317D01*
X459803Y281737D02*
Y283902D01*
X492376Y309317D02*
Y322467D01*
X457376Y317467D02*
X477376Y337467D01*
X497376Y357467D01*
X505526D01*
X477376Y337467D02*
Y365617D01*
X501879Y386124D02*
Y394123D01*
X492376Y365617D02*
Y376621D01*
X501879Y386124D01*
X477879D02*
X487376Y376626D01*
Y365617D02*
Y376626D01*
X477879Y386124D02*
Y394123D01*
D17*
X329300Y297800D02*
X339658D01*
X350600Y281600D02*
Y286858D01*
X339658Y297800D02*
X350600Y286858D01*
X323400Y303700D02*
X329300Y297800D01*
X323400Y303700D02*
Y325800D01*
X316050Y300110D02*
X326160Y290000D01*
X316050Y300110D02*
Y313624D01*
X326160Y290000D02*
X329490D01*
X310800Y338400D02*
X323400Y325800D01*
X307700Y338400D02*
X310800D01*
X307674Y338374D02*
X307700Y338400D01*
X297000Y338374D02*
X307674D01*
X275756Y277556D02*
X276200Y278000D01*
X277142Y277058D01*
Y277058D02*
Y277058D01*
X267000Y277556D02*
X275756D01*
X328240D02*
X329490D01*
X308660Y290000D02*
X311100D01*
X323589Y277511D01*
X329489D01*
X267000Y290000D02*
X267100Y289900D01*
X267000Y290000D02*
Y290000D01*
X308660Y277556D02*
X308680Y277576D01*
X308758D01*
X287830Y277556D02*
X306056D01*
X308660D01*
X287830Y290000D02*
X290650Y292820D01*
Y313624D01*
X414837Y384177D02*
Y399981D01*
X329514Y400480D02*
X414337D01*
X329584Y400658D02*
Y400912D01*
X329490Y400456D02*
Y400564D01*
X329584Y400658D01*
X296907Y380366D02*
Y386674D01*
X311800Y379500D02*
X319728D01*
X303350Y371050D02*
X311800Y379500D01*
X303350Y363124D02*
Y371050D01*
X298245Y388012D02*
X308660D01*
X287830D02*
X298245D01*
X296907Y386674D02*
X298245Y388012D01*
X671700Y384334D02*
X679111D01*
X385957Y316200D02*
X387608Y317850D01*
X328240Y388012D02*
X329490D01*
X319728Y379500D02*
X328240Y388012D01*
X329489Y277511D02*
X329490Y277511D01*
Y277556D01*
X635789Y336506D02*
Y339643D01*
X635842Y330141D02*
X640932Y325050D01*
X635842Y330141D02*
Y336506D01*
X640932Y323800D02*
Y325050D01*
X659020Y309850D02*
Y339643D01*
X653466Y323710D02*
X658828D01*
X653376Y323800D02*
X653466Y323710D01*
X393800Y324000D02*
X411620D01*
X658520Y309850D02*
X659020Y309350D01*
X586611Y373889D02*
X596517D01*
X586526Y373974D02*
X595476D01*
X248100Y360249D02*
X269975Y338374D01*
X241878Y366471D02*
X248100Y360249D01*
X596517Y373889D02*
X604889D01*
X586526Y373974D02*
X586611Y373889D01*
X604889D02*
X605000Y373778D01*
X541576Y316439D02*
Y323965D01*
Y308912D02*
Y316439D01*
X415337Y294359D02*
Y296977D01*
X420999Y302639D01*
Y302973D02*
Y312777D01*
X414837Y293859D02*
X415337Y294359D01*
X414837Y278806D02*
Y293859D01*
X686757Y384334D02*
X698228Y372862D01*
X679111Y384334D02*
X686757D01*
X698228Y372862D02*
X698708D01*
X653271Y375694D02*
X657778Y371187D01*
X658520D02*
X659020Y370687D01*
X657778Y371187D02*
X658520D01*
X659020Y354540D02*
Y370687D01*
X635725Y362242D02*
X635757Y362210D01*
X635725Y362242D02*
X635757Y362274D01*
Y369405D02*
X635789Y369437D01*
X635757Y362274D02*
Y369405D01*
Y354572D02*
Y362210D01*
Y354572D02*
X635789Y354540D01*
X659027Y391923D02*
X659035Y391930D01*
X659027Y384341D02*
Y391923D01*
X659020Y384334D02*
X659027Y384341D01*
Y391807D02*
Y399223D01*
X659020Y399230D02*
X659027Y399223D01*
X635789Y369437D02*
Y384334D01*
X411789Y331700D02*
Y335957D01*
X411601Y336145D02*
X411789Y335957D01*
X411620Y324000D02*
X427174D01*
X411620Y312796D02*
Y324000D01*
X427174D02*
X430103Y321071D01*
Y313071D02*
X430397Y312777D01*
X430103Y313071D02*
Y321071D01*
X427281Y384177D02*
Y399230D01*
Y399605D01*
X452840Y400480D02*
X462000D01*
X427781D02*
X452840D01*
X411601Y312777D02*
X411620Y312796D01*
X428941Y341411D02*
Y355132D01*
Y341411D02*
X430397Y339955D01*
Y336145D02*
Y339955D01*
X413057Y367576D02*
X428941D01*
X269975Y338374D02*
X293300D01*
X497303Y281737D02*
X539895D01*
X541576Y278806D02*
Y280056D01*
X539895Y281737D02*
X541576Y280056D01*
X241878Y366471D02*
Y399206D01*
X672296Y279586D02*
X711168D01*
X413057Y381148D02*
X414837Y382927D01*
X413057Y367576D02*
Y381148D01*
X414837Y382927D02*
Y384177D01*
X554020Y293859D02*
Y301386D01*
Y278806D02*
Y293859D01*
X635242Y311600D02*
X635289D01*
X635789Y311100D01*
Y309850D02*
Y311100D01*
X659567Y308100D02*
X671464Y296203D01*
X659020Y308600D02*
X659520Y308100D01*
X659567D01*
X428962Y281737D02*
X459803D01*
X427281Y280056D02*
Y293859D01*
Y280056D02*
X428962Y281737D01*
X427281Y278806D02*
Y280056D01*
X541576D02*
Y293859D01*
X427281Y399605D02*
Y399981D01*
X387876Y367576D02*
X413057D01*
Y367576D02*
Y367576D01*
X659020Y309350D02*
Y309850D01*
Y308600D02*
Y309350D01*
X635789Y309850D02*
X658520D01*
X671464Y294953D02*
Y296203D01*
X659020Y293703D02*
Y294953D01*
X643273Y277956D02*
X659020Y293703D01*
X636414Y277956D02*
X643273D01*
X711168Y279586D02*
X711220Y279638D01*
X635789Y294953D02*
Y309850D01*
X278008Y363182D02*
X278042D01*
X277950Y363124D02*
X278008Y363182D01*
X316025Y363130D02*
X316030Y363124D01*
X316050D01*
X248100Y311249D02*
X248249D01*
X249000Y312000D01*
X427281Y399981D02*
X427781Y400480D01*
X414337Y400480D02*
X414837Y399981D01*
X337600Y319200D02*
Y366300D01*
X411601Y336145D02*
Y339955D01*
X413057Y341411D02*
Y355132D01*
X411601Y339955D02*
X413057Y341411D01*
X387500Y367200D02*
X387876Y367576D01*
X290650Y344724D02*
Y363124D01*
Y344724D02*
X297000Y338374D01*
X264500Y399206D02*
X265750Y400456D01*
X267000D01*
X254322Y399206D02*
X264500D01*
D19*
X287830Y277556D02*
D03*
Y290000D02*
D03*
X267000Y277556D02*
D03*
Y290000D02*
D03*
X329490Y277556D02*
D03*
Y290000D02*
D03*
X308660D02*
D03*
Y277556D02*
D03*
X287830Y400456D02*
D03*
Y388012D02*
D03*
X267000D02*
D03*
Y400456D02*
D03*
X329490D02*
D03*
Y388012D02*
D03*
X308660D02*
D03*
Y400456D02*
D03*
X569400Y373778D02*
D03*
Y386222D02*
D03*
X587900Y386444D02*
D03*
Y374000D02*
D03*
X606400Y373778D02*
D03*
Y386222D02*
D03*
X413057Y355132D02*
D03*
Y367576D02*
D03*
X428941Y355132D02*
D03*
Y367576D02*
D03*
X462000Y400480D02*
D03*
Y388036D02*
D03*
D20*
X254322Y278806D02*
D03*
X241878D02*
D03*
X254322Y399206D02*
D03*
X241878D02*
D03*
X659020Y294953D02*
D03*
X671464D02*
D03*
Y309850D02*
D03*
X659020D02*
D03*
X671464Y369437D02*
D03*
X659020D02*
D03*
X671464Y339643D02*
D03*
X659020D02*
D03*
Y354540D02*
D03*
X671464D02*
D03*
Y384334D02*
D03*
X659020D02*
D03*
Y399230D02*
D03*
X671464D02*
D03*
X623345Y294953D02*
D03*
X635789D02*
D03*
X623345Y309850D02*
D03*
X635789D02*
D03*
X640932Y323800D02*
D03*
X653376D02*
D03*
X635789Y339643D02*
D03*
X623345D02*
D03*
X635789Y354540D02*
D03*
X623345D02*
D03*
Y369437D02*
D03*
X635789D02*
D03*
Y384334D02*
D03*
X623345D02*
D03*
X541576Y384177D02*
D03*
X554020D02*
D03*
X659800Y279534D02*
D03*
X672244D02*
D03*
X554020Y323965D02*
D03*
X541576D02*
D03*
X414837Y278806D02*
D03*
X427281D02*
D03*
X414837Y293859D02*
D03*
X427281D02*
D03*
X594041Y398347D02*
D03*
X581597D02*
D03*
X541576Y354071D02*
D03*
X554020D02*
D03*
X635789Y399230D02*
D03*
X623345D02*
D03*
X541576Y308912D02*
D03*
X554020D02*
D03*
X541576Y293859D02*
D03*
X554020D02*
D03*
X414837Y384177D02*
D03*
X427281D02*
D03*
X414837Y399230D02*
D03*
X427281D02*
D03*
X541576Y369124D02*
D03*
X554020D02*
D03*
Y399230D02*
D03*
X541576D02*
D03*
X554020Y278806D02*
D03*
X541576D02*
D03*
X554020Y339018D02*
D03*
X541576D02*
D03*
X635009Y278078D02*
D03*
X622565D02*
D03*
D21*
X338200Y319200D02*
D03*
X389000D02*
D03*
D22*
X397600Y281600D02*
D03*
X374100D02*
D03*
X350600D02*
D03*
D23*
X613040Y354770D02*
D03*
X566980Y353740D02*
D03*
X528490Y316200D02*
D03*
X518910D02*
D03*
X308660Y290000D02*
D03*
X277142Y277058D02*
D03*
X267100Y289900D02*
D03*
X308758Y277576D02*
D03*
X287472Y400722D02*
D03*
X329584Y400912D02*
D03*
X296907Y380366D02*
D03*
X329489Y277511D02*
D03*
X266943Y388066D02*
D03*
X241878Y278806D02*
D03*
X388599Y318841D02*
D03*
X397412Y293956D02*
D03*
X653358Y375393D02*
D03*
X598735Y286920D02*
D03*
X489879Y394613D02*
D03*
X623316Y300400D02*
D03*
X613741Y280138D02*
D03*
X623136Y310058D02*
D03*
X590035Y286920D02*
D03*
X635725Y362242D02*
D03*
X671700Y384230D02*
D03*
X659035Y391930D02*
D03*
X614540Y363600D02*
D03*
X623153Y385537D02*
D03*
X554520Y384275D02*
D03*
X559470Y393014D02*
D03*
X563404Y361200D02*
D03*
X567477Y386418D02*
D03*
X563000Y278713D02*
D03*
X517717Y299337D02*
D03*
X541727Y298070D02*
D03*
X533376Y309000D02*
D03*
X477430Y324000D02*
D03*
X411789Y331700D02*
D03*
X486139Y299337D02*
D03*
X508429Y299442D02*
D03*
X509666Y401137D02*
D03*
X448683Y378510D02*
D03*
X448517Y369187D02*
D03*
X438391Y368851D02*
D03*
X670425Y369412D02*
D03*
X590103Y337922D02*
D03*
X429566Y367576D02*
D03*
X623320Y399700D02*
D03*
X581480Y398790D02*
D03*
X521910Y346525D02*
D03*
X698708Y347462D02*
D03*
X659020Y339643D02*
D03*
X671030D02*
D03*
X704998Y324403D02*
D03*
X413057Y355132D02*
D03*
X699000Y398000D02*
D03*
X554000Y354000D02*
D03*
X521910Y356000D02*
D03*
X541710Y339013D02*
D03*
X700200Y305038D02*
D03*
X672296Y279586D02*
D03*
X316025Y363130D02*
D03*
X290650Y313624D02*
D03*
X337600Y319200D02*
D03*
X249000Y312000D02*
D03*
X278042Y363182D02*
D03*
X427281Y399605D02*
D03*
X614143Y340588D02*
D03*
X623439Y339795D02*
D03*
X575781Y311271D02*
D03*
X604303D02*
D03*
X554020Y301386D02*
D03*
D24*
X501879Y394123D02*
D03*
X477879D02*
D03*
X489879D02*
D03*
D25*
X487376Y365617D02*
D03*
X492376D02*
D03*
X497376D02*
D03*
X482376D02*
D03*
X477376D02*
D03*
X472376D02*
D03*
X467376D02*
D03*
X462376D02*
D03*
X457376D02*
D03*
Y309317D02*
D03*
X462376D02*
D03*
X467376D02*
D03*
X472376D02*
D03*
X477376D02*
D03*
X482376D02*
D03*
X487376D02*
D03*
X492376D02*
D03*
X497376D02*
D03*
D26*
X575895Y345422D02*
D03*
Y340422D02*
D03*
Y335422D02*
D03*
Y330422D02*
D03*
X604311D02*
D03*
Y335422D02*
D03*
Y340422D02*
D03*
Y345422D02*
D03*
D27*
X582603Y323714D02*
D03*
X587603D02*
D03*
X592603D02*
D03*
X597603D02*
D03*
Y352130D02*
D03*
X592603D02*
D03*
X587603D02*
D03*
X582603D02*
D03*
D28*
X590103Y337922D02*
D03*
D29*
X698708Y372862D02*
D03*
Y398262D02*
D03*
X700200Y305038D02*
D03*
D30*
X698708Y347462D02*
D03*
X700200Y279638D02*
D03*
D31*
X297000Y338374D02*
D03*
D32*
X277950Y363124D02*
D03*
X290650D02*
D03*
X303350D02*
D03*
X316050D02*
D03*
Y313624D02*
D03*
X303350D02*
D03*
X290650D02*
D03*
X277950D02*
D03*
D33*
X387500Y367200D02*
D03*
X338500D02*
D03*
D34*
X248100Y360249D02*
D03*
D35*
Y311249D02*
D03*
D36*
X449226Y352467D02*
D03*
Y347467D02*
D03*
Y342467D02*
D03*
Y337467D02*
D03*
Y332467D02*
D03*
Y327467D02*
D03*
Y322467D02*
D03*
Y317467D02*
D03*
X505526D02*
D03*
Y322467D02*
D03*
Y327467D02*
D03*
Y332467D02*
D03*
Y337467D02*
D03*
Y342467D02*
D03*
Y347467D02*
D03*
Y352467D02*
D03*
X449226Y357467D02*
D03*
X505526D02*
D03*
D37*
X477376Y337467D02*
D03*
D38*
X411601Y312777D02*
D03*
X420999D02*
D03*
X430397D02*
D03*
Y336145D02*
D03*
X411601D02*
D03*
D59*
X650693Y401738D02*
G03*
X648179Y402780I-2513J-2507D01*
G01*
X650690Y401741D02*
G03*
X648179Y402780I-2510J-2510D01*
G01*
X690335Y387898D02*
G03*
X686757Y389384I-3578J-3564D01*
G01*
X690328Y387905D02*
G03*
X686757Y389384I-3571J-3571D01*
G01*
X648341Y378775D02*
G03*
X652095Y369476I5017J-3382D01*
G01*
X629370Y399700D02*
G03*
X628895Y402050I-6050J0D01*
G01*
Y397350D02*
G03*
X629370Y399700I-5575J2350D01*
G01*
X617795Y402165D02*
G03*
X617795Y397235I5525J-2465D01*
G01*
X632448Y391134D02*
G03*
X631863Y391904I-3094J-1740D01*
G01*
X632448Y391134D02*
G03*
X631860Y391907I-3094J-1740D01*
G01*
X616955Y369147D02*
G03*
X613200Y369500I-2415J-5547D01*
G01*
X664570Y365781D02*
G03*
X665074Y365073I5856J3631D01*
G01*
X717635Y355071D02*
G03*
X713208Y356852I-4426J-4609D01*
G01*
Y338072D02*
G03*
X717635Y339854I0J6390D01*
G01*
X682114Y338425D02*
G03*
X684208Y338072I2094J6037D01*
G01*
Y356852D02*
G03*
X682058Y356480I0J-6390D01*
G01*
X674114Y332843D02*
G03*
X675200Y330872I3950J893D01*
G01*
X674114Y332843D02*
G03*
X675209Y330864I3950J893D01*
G01*
X665478Y337240D02*
G03*
X665914Y336414I5552J2403D01*
G01*
X652630Y342220D02*
G03*
X652630Y337066I6390J-2577D01*
G01*
X641339Y359987D02*
G03*
X641775Y362242I-5614J2255D01*
G01*
D02*
G03*
X641339Y364497I-6050J0D01*
G01*
X628895Y344856D02*
G03*
X630239Y344161I2264J2734D01*
G01*
X628895Y344856D02*
G03*
X630239Y344161I2264J2734D01*
G01*
X629489Y339795D02*
G03*
X628895Y342409I-6050J0D01*
G01*
Y337182D02*
G03*
X629489Y339795I-5456J2614D01*
G01*
X615174Y334626D02*
G03*
X617795Y335764I-1031J5962D01*
G01*
X618050Y330073D02*
G03*
X616864Y332937I-4050J0D01*
G01*
X618050Y330073D02*
G03*
X616856Y332945I-4050J0D01*
G01*
X583250Y445300D02*
G03*
X583250Y445300I-18550J0D01*
G01*
D02*
G03*
X583250Y445300I-18550J0D01*
G01*
X495269Y390321D02*
G03*
X496769Y394613I-5390J4292D01*
G01*
D02*
G03*
X495269Y398905I-6890J0D01*
G01*
X484489D02*
G03*
X484489Y390321I5390J-4292D01*
G01*
X577229Y349246D02*
G03*
X575895Y349472I-1334J-3824D01*
G01*
X571268D02*
G03*
X573030Y353740I-4288J4268D01*
G01*
X561339Y383287D02*
G03*
X561760Y382572I6138J3131D01*
G01*
X560410Y380700D02*
G03*
X561339Y383287I-5890J3575D01*
G01*
X568091Y379556D02*
G03*
X569500Y379832I-614J6863D01*
G01*
X573030Y353740D02*
G03*
X571759Y357450I-6050J0D01*
G01*
X565453Y379832D02*
G03*
X566330Y379624I2023J6586D01*
G01*
X470592Y389231D02*
G03*
X468800Y390200I-2513J-2507D01*
G01*
X470589Y389234D02*
G03*
X468800Y390200I-2510J-2510D01*
G01*
X443468Y381577D02*
G03*
X444745Y373917I5215J-3067D01*
G01*
D02*
G03*
X443344Y372325I3772J-4730D01*
G01*
X443344D02*
G03*
X435160Y373966I-4953J-3474D01*
G01*
X432143D02*
G03*
X426989Y373966I-2577J-6390D01*
G01*
Y361186D02*
G03*
X431165Y360874I2577J6390D01*
G01*
X423891Y341411D02*
G03*
X425053Y338188I5050J0D01*
G01*
X423891Y341411D02*
G03*
X425053Y338188I5050J0D01*
G01*
X711048Y324403D02*
G03*
X701157Y329077I-6050J0D01*
G01*
X700722Y320123D02*
G03*
X711048Y324403I4276J4280D01*
G01*
X684353Y321719D02*
G03*
X687225Y320525I2872J2855D01*
G01*
X684362Y321711D02*
G03*
X687225Y320525I2864J2864D01*
G01*
X630792Y330141D02*
G03*
X632278Y326563I5050J0D01*
G01*
X630792Y330141D02*
G03*
X632271Y326570I5050J0D01*
G01*
X629187Y310058D02*
G03*
X628895Y311914I-6050J0D01*
G01*
Y308202D02*
G03*
X629187Y310058I-5758J1856D01*
G01*
X629366Y300400D02*
G03*
X628755Y303050I-6050J0D01*
G01*
X717635Y287349D02*
G03*
X714700Y288188I-2935J-4711D01*
G01*
X681710Y287896D02*
G03*
X682750Y290407I-2510J2510D01*
G01*
X681707Y287893D02*
G03*
X682750Y290407I-2507J2513D01*
G01*
X685700Y288188D02*
G03*
X680669Y284981I0J-5550D01*
G01*
X680721Y274186D02*
G03*
X681719Y272771I4979J2452D01*
G01*
X681749Y272741D02*
G03*
X682392Y272182I3951J3898D01*
G01*
X666694Y281871D02*
G03*
X666694Y277302I5602J-2285D01*
G01*
X628895Y298059D02*
G03*
X629366Y300400I-5579J2341D01*
G01*
X643273Y272906D02*
G03*
X646851Y274392I0J5050D01*
G01*
X643273Y272906D02*
G03*
X646844Y274385I0J5050D01*
G01*
X571320Y315358D02*
G03*
X578553Y305893I4461J-4087D01*
G01*
X547966Y295147D02*
G03*
X548470Y296655I-6239J2923D01*
G01*
X578553Y280857D02*
G03*
X579748Y277985I4050J0D01*
G01*
X578553Y280857D02*
G03*
X579739Y277993I4050J0D01*
G01*
X559570Y273729D02*
G03*
X569050Y278713I3430J4984D01*
G01*
D02*
G03*
X567482Y282776I-6050J0D01*
G01*
X466053Y277502D02*
G03*
X478553Y277502I6250J4236D01*
G01*
D02*
G03*
X488913Y275404I6250J4236D01*
G01*
X454681Y276191D02*
G03*
X466053Y277502I5123J5546D01*
G01*
X587158Y270575D02*
G03*
X590022Y269389I2864J2864D01*
G01*
X587150Y270583D02*
G03*
X590022Y269389I2872J2855D01*
G01*
X583250Y230700D02*
G03*
X583250Y230700I-18550J0D01*
G01*
D02*
G03*
X583250Y230700I-18550J0D01*
G01*
X421731Y402014D02*
G03*
X421731Y397197I5550J-2408D01*
G01*
X408447Y383209D02*
G03*
X408007Y381148I4610J-2061D01*
G01*
X408447Y383209D02*
G03*
X408007Y381148I4610J-2061D01*
G01*
X358050Y380140D02*
G03*
X356864Y383004I-4050J0D01*
G01*
X358050Y380140D02*
G03*
X356856Y383012I-4050J0D01*
G01*
X415466Y360682D02*
G03*
X410649Y360682I-2408J-5550D01*
G01*
X416945Y338188D02*
G03*
X418107Y341411I-3888J3223D01*
G01*
X417228Y329050D02*
G03*
X417840Y331700I-5439J2650D01*
G01*
D02*
G03*
X416945Y334866I-6050J0D01*
G01*
Y338188D02*
G03*
X418107Y341411I-3888J3223D01*
G01*
X406257Y334149D02*
G03*
X406257Y329251I5532J-2449D01*
G01*
X350275Y332110D02*
G03*
X351136Y330836I3725J1590D01*
G01*
X350275Y332110D02*
G03*
X351144Y330828I3725J1590D01*
G01*
X290628Y406846D02*
G03*
X286477Y407539I-3156J-6125D01*
G01*
X284502Y409511D02*
G03*
X281630Y410706I-2872J-2855D01*
G01*
X284494Y409520D02*
G03*
X281630Y410706I-2864J-2864D01*
G01*
X264500Y394156D02*
G03*
X267148Y394906I0J5050D01*
G01*
X264500Y394156D02*
G03*
X267148Y394906I0J5050D01*
G01*
X269472Y393562D02*
G03*
X264415Y393562I-2528J-5496D01*
G01*
X284750Y445300D02*
G03*
X284750Y445300I-18550J0D01*
G01*
D02*
G03*
X284750Y445300I-18550J0D01*
G01*
X248078Y410706D02*
G03*
X245214Y409520I0J-4050D01*
G01*
X248078Y410706D02*
G03*
X245206Y409511I0J-4050D01*
G01*
X285689Y394066D02*
G03*
X289254Y394066I1782J6655D01*
G01*
X297040Y374317D02*
G03*
X297800Y374382I-133J6049D01*
G01*
X291231Y382462D02*
G03*
X292369Y376364I5675J-2096D01*
G01*
X284092Y363182D02*
G03*
X283500Y365791I-6050J0D01*
G01*
Y360573D02*
G03*
X284092Y363182I-5458J2609D01*
G01*
X272400Y365367D02*
G03*
X272400Y360997I5641J-2185D01*
G01*
X264662Y382462D02*
G03*
X269224Y382462I2281J5604D01*
G01*
X266404Y334804D02*
G03*
X269975Y333324I3571J3571D01*
G01*
X268490Y368750D02*
G03*
X256600Y380639I-11890J0D01*
G01*
X236643Y380266D02*
G03*
X232827Y378522I2957J-11516D01*
G01*
X267854Y347912D02*
G03*
X268490Y351749I-11254J3838D01*
G01*
X266397Y334810D02*
G03*
X269975Y333324I3578J3564D01*
G01*
X366977Y314995D02*
G03*
X369850Y313801I2872J2855D01*
G01*
X366986Y314987D02*
G03*
X369850Y313801I2864J2864D01*
G01*
X403462Y293956D02*
G03*
X392550Y297556I-6050J0D01*
G01*
X402417Y290557D02*
G03*
X403462Y293956I-5005J3399D01*
G01*
X391363Y293843D02*
G03*
X392513Y290406I6049J113D01*
G01*
X343229Y301371D02*
G03*
X341228Y302600I-3571J-3571D01*
G01*
X343236Y301364D02*
G03*
X341228Y302600I-3578J-3564D01*
G01*
X311009Y299805D02*
G03*
X312486Y296532I5041J304D01*
G01*
X311009Y299805D02*
G03*
X312479Y296539I5041J304D01*
G01*
X311237Y296390D02*
G03*
X306083Y296390I-2577J-6390D01*
G01*
X407770Y281600D02*
G03*
X402417Y290557I-10170J0D01*
G01*
X361610Y281600D02*
G03*
X352494Y292446I-11010J0D01*
G01*
X341802Y288220D02*
G03*
X339601Y281106I8798J-6620D01*
G01*
X384270Y281600D02*
G03*
X383372Y285778I-10170J0D01*
G01*
X401419Y272174D02*
G03*
X407770Y281600I-3819J9426D01*
G01*
X377920Y272174D02*
G03*
X384270Y281600I-3819J9426D01*
G01*
X392513Y290406D02*
G03*
X393781Y272174I5087J-8806D01*
G01*
X378278Y290872D02*
G03*
X370280Y272174I-4178J-9272D01*
G01*
X356290D02*
G03*
X361610Y281600I-5690J9426D01*
G01*
X342628Y274006D02*
G03*
X344910Y272174I7972J7594D01*
G01*
X331950Y283946D02*
G03*
X327028Y283946I-2461J-6435D01*
G01*
X306083Y283610D02*
G03*
X306908Y283336I2577J6390D01*
G01*
X320012Y273947D02*
G03*
X321850Y272770I3578J3564D01*
G01*
X320019Y273940D02*
G03*
X321850Y272770I3571J3571D01*
G01*
X306396Y272006D02*
G03*
X311120Y272006I2362J5570D01*
G01*
X296200Y311216D02*
G03*
X296700Y313624I-5550J2408D01*
G01*
D02*
G03*
X296200Y316033I-6050J0D01*
G01*
X294630Y289712D02*
G03*
X295700Y292820I-3980J3109D01*
G01*
X294630Y289712D02*
G03*
X295700Y292820I-3980J3109D01*
G01*
X280457Y284637D02*
G03*
X281030Y285385I-2507J2513D01*
G01*
X280460Y284640D02*
G03*
X281030Y285385I-2510J2510D01*
G01*
Y282746D02*
G03*
X279391Y283570I-3888J-5688D01*
G01*
X239385Y293750D02*
G03*
X267650Y311249I8715J17500D01*
G01*
D02*
G03*
X265600Y319965I-19550J0D01*
G01*
X269263Y295550D02*
G03*
X264937Y295550I-2163J-5650D01*
G01*
X258916Y286950D02*
G03*
X256892Y286317I0J-3550D01*
G01*
X258916Y286950D02*
G03*
X256892Y286317I0J-3550D01*
G01*
X247428Y276398D02*
G03*
X247928Y278806I-5550J2408D01*
G01*
D02*
G03*
X247428Y281214I-6050J0D01*
G01*
X236328D02*
G03*
X236328Y276398I5550J-2408D01*
G01*
X273570Y271166D02*
G03*
X281828Y272006I3572J5892D01*
G01*
X284750Y231700D02*
G03*
X284750Y231700I-18550J0D01*
G01*
D02*
G03*
X284750Y231700I-18550J0D01*
G01*
X677854Y399775D02*
X678658Y398970D01*
X677854Y397840D02*
X678658Y398644D01*
X677854Y402082D02*
X678658Y402887D01*
Y389712D02*
Y404325D01*
X677854Y395532D02*
X678658Y394728D01*
X677854Y404017D02*
X678658Y403213D01*
X677854Y404325D02*
X678658D01*
X677854Y391590D02*
Y404325D01*
X678658Y389712D02*
X717635D01*
X678658Y390485D02*
X679431Y389712D01*
X679387Y389384D02*
X686757D01*
X678331Y389449D02*
X679161Y389433D01*
X677854Y393597D02*
X678658Y394402D01*
X670100Y391590D02*
X677854D01*
X677972Y389472D02*
X678658Y390159D01*
X677553Y391590D02*
X678658Y390485D01*
X653470Y398960D02*
Y404325D01*
X651373Y401057D02*
X653470Y403154D01*
X652090Y404325D02*
X653470Y402946D01*
X665074Y396611D02*
Y404325D01*
X664570Y396107D02*
Y404325D01*
X644611Y402780D02*
X646156Y404325D01*
X643605D02*
X645150Y402780D01*
X648799Y402726D02*
X650398Y404325D01*
X647848D02*
X649768Y402406D01*
X669638Y391134D02*
X674336D01*
X650693Y401738D02*
X653470Y398960D01*
X677014Y389582D02*
Y391134D01*
X674531D02*
X677014D01*
X643765Y395681D02*
X649285Y390161D01*
X646709Y395681D02*
X649285Y393105D01*
X699610Y381412D02*
X707910Y389712D01*
X700644D02*
X708944Y381412D01*
X696402Y389712D02*
X704702Y381412D01*
X704887Y389712D02*
X713187Y381412D01*
X703853D02*
X712153Y389712D01*
X693998Y384285D02*
X699425Y389712D01*
X691851Y386381D02*
X695182Y389712D01*
X696338Y382383D02*
X703668Y389712D01*
X692159D02*
X700459Y381412D01*
X712338D02*
X717635Y386709D01*
X713372Y389712D02*
X717635Y385450D01*
Y381412D02*
Y389712D01*
X716581Y381412D02*
X717635Y382466D01*
X699179Y381412D02*
X717635D01*
X694712Y383623D02*
X695309Y383114D01*
X709130Y389712D02*
X717430Y381412D01*
X708096D02*
X716396Y389712D01*
X689679Y388452D02*
X690940Y389712D01*
X687916D02*
X688589Y389040D01*
X690335Y387898D02*
X693861Y384371D01*
X641339Y382538D02*
X649285Y390484D01*
Y380951D02*
Y393105D01*
X641339Y380424D02*
Y391134D01*
X694050Y384252D02*
X694712Y383623D01*
X653470Y365528D02*
Y367255D01*
X641339Y369810D02*
X647321Y375792D01*
X652095Y369476D02*
X652798Y368652D01*
X641754Y361740D02*
X650229Y370215D01*
X641339Y403751D02*
X641913Y404325D01*
X641339D02*
X653470D01*
X641339Y402780D02*
Y404325D01*
Y402780D02*
X648179D01*
X630239Y393528D02*
Y404325D01*
X628895Y402065D02*
X630239Y400721D01*
X628895Y404325D02*
X630239D01*
X629027Y397691D02*
X630239Y396478D01*
X629346Y400243D02*
X630239Y401136D01*
X641339Y395681D02*
X646709D01*
X637789Y392430D02*
X641339D01*
Y395681D01*
X637207Y391134D02*
X638503Y392430D01*
X629142Y394626D02*
X630239Y393528D01*
X628895Y395550D02*
X630239Y396894D01*
X631337Y392430D02*
X637789D01*
X630239Y393528D02*
X631337Y392430D01*
X617795Y402165D02*
Y404325D01*
X612368D02*
X617795D01*
X613906D02*
X617380Y400851D01*
X612976Y400844D02*
X616457Y404325D01*
X610855Y402966D02*
X612225Y404335D01*
X611084Y404384D02*
X612188Y404330D01*
X609078Y404743D02*
X617795Y396026D01*
X609288Y404701D02*
X617795Y396194D01*
X628895Y402050D02*
Y404325D01*
Y394851D02*
Y397350D01*
X615098Y398723D02*
X617422Y401047D01*
X617795Y396026D02*
Y397235D01*
X617219Y396602D02*
X617795Y397178D01*
X641339Y389621D02*
X649285Y381675D01*
X641339Y378295D02*
X649285Y386241D01*
X641339Y385378D02*
X648186Y378532D01*
X641339Y374053D02*
X649285Y381998D01*
X641339Y381136D02*
X647312Y375162D01*
X641339Y391023D02*
X645996Y395681D01*
X632448Y391134D02*
X641339D01*
Y393864D02*
X649285Y385918D01*
X641339Y386781D02*
X648474Y393916D01*
X641339Y372650D02*
X653470Y360519D01*
X641339Y365567D02*
X648126Y372355D01*
X641339Y368408D02*
X653470Y356277D01*
X641339Y357082D02*
X652845Y368589D01*
X641339Y373754D02*
Y376237D01*
Y377534D02*
Y380016D01*
X640930Y377301D02*
X653470Y364762D01*
X641339Y364497D02*
Y373345D01*
X638529Y392430D02*
X639826Y391134D01*
X634287Y392430D02*
X635584Y391134D01*
X640942Y377534D02*
X640999Y378650D01*
X640928Y377244D02*
X640991Y376237D01*
X632964Y391134D02*
X634261Y392430D01*
X615625Y369552D02*
X616955Y370882D01*
X613200Y371091D02*
X614642Y369649D01*
X616955Y369147D02*
Y372052D01*
X613200Y375333D02*
X616955Y371579D01*
X613200Y375811D02*
X616948Y372064D01*
X613200Y371370D02*
X615421Y373590D01*
X613200Y369500D02*
Y375811D01*
X700589Y364312D02*
X708048Y356852D01*
X704749D02*
X712209Y364312D01*
X700506Y356852D02*
X707966Y364312D01*
X708991Y356852D02*
X716451Y364312D01*
X704831D02*
X712291Y356852D01*
X695943Y364312D02*
X717635D01*
X692021Y356852D02*
X699481Y364312D01*
X696346D02*
X703806Y356852D01*
X696264D02*
X703724Y364312D01*
X713316D02*
X717635Y359994D01*
X687913Y364260D02*
X695321Y356852D01*
X713234Y356852D02*
X717635Y361253D01*
X692156Y364260D02*
X699563Y356852D01*
X682058Y364260D02*
X695680D01*
X683670D02*
X691078Y356852D01*
X684208D02*
X713208D01*
X687778D02*
X695186Y364260D01*
X665074Y361797D02*
Y365073D01*
X682058Y359618D02*
X686701Y364260D01*
X664570Y362637D02*
Y365119D01*
X683496Y356813D02*
X690943Y364260D01*
X682058Y356480D02*
Y364260D01*
X664173Y362637D02*
X664230Y363753D01*
X664169Y362548D02*
X665914Y360803D01*
X664159Y362347D02*
X664222Y361340D01*
X665914D02*
X673958D01*
X665914Y360444D02*
X666810Y361340D01*
X682058Y361629D02*
X686835Y356852D01*
X682058Y357387D02*
X682759Y356686D01*
X665074Y361797D02*
X673958D01*
X664570Y359100D02*
X665914Y360444D01*
X664570Y357905D02*
X665914Y356561D01*
X664570Y358857D02*
Y361340D01*
X709074Y364312D02*
X717635Y355752D01*
X716540Y355915D02*
X717635Y357010D01*
Y355071D02*
Y364312D01*
X714045Y338128D02*
X717635Y334538D01*
X717055Y339360D02*
X717635Y338781D01*
X709858Y338072D02*
X717635Y330296D01*
X707504Y329909D02*
X716716Y339121D01*
X684208Y338072D02*
X713208D01*
X697130D02*
X704754Y330448D01*
X703654Y330302D02*
X711425Y338072D01*
X692887D02*
X701571Y329389D01*
X682712Y334816D02*
X685969Y338072D01*
X682114Y335414D02*
Y338425D01*
X665914Y353247D02*
Y361340D01*
X664570Y354857D02*
X665914Y356201D01*
X664570Y353662D02*
X665643Y352589D01*
X664570Y351417D02*
Y358449D01*
X684833Y332694D02*
X690211Y338072D01*
X686955Y330573D02*
X694454Y338072D01*
X665914Y332843D02*
Y336414D01*
Y332843D02*
X674114D01*
X665410Y332003D02*
Y337066D01*
X653818Y362637D02*
X653881Y361630D01*
X653810Y360224D02*
X653867Y361340D01*
X653470Y362637D02*
Y365119D01*
Y351140D02*
Y358449D01*
Y358857D02*
Y361340D01*
X641518Y363986D02*
X653470Y352034D01*
X641339Y352839D02*
X653470Y364971D01*
X643882Y351140D02*
X653470Y360728D01*
X641339Y359922D02*
X650121Y351140D01*
X652367D02*
X653470Y352243D01*
X652630Y342220D02*
Y344040D01*
X648736D02*
X652194Y340582D01*
X648125Y351140D02*
X653470Y356485D01*
X641339Y351140D02*
X653470D01*
X644493Y344040D02*
X652630Y335903D01*
X641339Y344040D02*
X652630D01*
X641339Y358946D02*
Y359987D01*
Y355680D02*
X645879Y351140D01*
X641339D02*
Y358662D01*
X628895Y342409D02*
Y344856D01*
X641339Y340112D02*
X645267Y344040D01*
X629389Y340890D02*
X630239Y341739D01*
X641339Y335869D02*
X649510Y344040D01*
X629240Y338080D02*
X630239Y337081D01*
X628895Y342668D02*
X630239Y341324D01*
X628895Y336153D02*
X630239Y337497D01*
X652630Y332003D02*
Y337066D01*
X641339Y342952D02*
X652851Y331440D01*
X641513Y331800D02*
X652630Y342917D01*
X644555Y330600D02*
X652261Y338306D01*
X641339Y338709D02*
X648608Y331440D01*
X664137Y332003D02*
X665410D01*
X652630D02*
X653871D01*
X664120Y330397D02*
X664137Y332003D01*
X649638Y331440D02*
X652630Y334432D01*
X646986Y331440D02*
X653906D01*
X640972Y332282D02*
X642860Y330600D01*
X646482D01*
X641339Y334467D02*
X645206Y330600D01*
X641339Y335522D02*
Y344040D01*
X630239Y335660D02*
Y344161D01*
X641339Y332843D02*
Y335326D01*
X630239Y332843D02*
Y335326D01*
X615174Y334626D02*
X616856Y332945D01*
X628895Y332843D02*
Y337182D01*
X617795Y332843D02*
Y335764D01*
X630628Y332843D02*
X630737Y331276D01*
X628895Y334183D02*
X630658Y332420D01*
X630737Y331276D02*
X630742Y330409D01*
X618050Y329551D02*
X621343Y332843D01*
X617795D02*
X628895D01*
X617024Y332767D02*
X617795Y333538D01*
X584350Y472066D02*
X591466Y464950D01*
X590027Y466931D02*
X593099Y462702D01*
X586331Y470626D02*
X590027Y466931D01*
X579509Y456472D02*
X589997Y466960D01*
X577510Y458717D02*
X587876Y469082D01*
X569824Y478106D02*
X597506Y450424D01*
X575455Y476718D02*
X596118Y456055D01*
X561098Y478347D02*
X597904Y441541D01*
X565184Y478504D02*
X597904Y445784D01*
X595471Y458046D02*
X597086Y453075D01*
X593099Y462702D02*
X595471Y458046D01*
X597904Y445300D02*
Y447913D01*
X597086Y453075D02*
X597904Y447913D01*
X582394Y450872D02*
X593479Y461957D01*
X581151Y453872D02*
X591787Y464508D01*
X583121Y443114D02*
X596104Y456097D01*
X583134Y447370D02*
X594911Y459146D01*
X567313Y478504D02*
X572476Y477686D01*
X577446Y476071D01*
X562087Y478504D02*
X567313D01*
X561073Y463492D02*
X574582Y477002D01*
X557435Y477767D02*
X573659Y461543D01*
X556925Y477686D02*
X562087Y478504D01*
X551954Y476071D02*
X556925Y477686D01*
X553167Y459829D02*
X571223Y477885D01*
X554169Y476791D02*
X567292Y463668D01*
X582103Y473698D02*
X586331Y470626D01*
X577446Y476071D02*
X582103Y473698D01*
X575167Y460615D02*
X585663Y471112D01*
X572458Y462150D02*
X583206Y472897D01*
X565649Y463826D02*
X577743Y475920D01*
X551088Y475630D02*
X562950Y463767D01*
X569329Y463263D02*
X580554Y474488D01*
X548277Y474197D02*
X559398Y463076D01*
X583068Y447891D02*
X597904Y433056D01*
X579659Y434330D02*
X598144Y415845D01*
X580943Y454259D02*
X597904Y437299D01*
X587921Y409730D02*
X597904Y419713D01*
X583679Y409730D02*
X597904Y423956D01*
X575193Y409730D02*
X597904Y432441D01*
X562466Y409730D02*
X597904Y445169D01*
X577690Y432057D02*
X600016Y409730D01*
X579436D02*
X597904Y428198D01*
X598600Y413917D02*
X599324Y412168D01*
X598021Y416463D02*
X598390Y414606D01*
X609078Y404743D02*
X610548Y404450D01*
X599664Y411533D02*
X600715Y409958D01*
X568716Y409730D02*
X600929D01*
X597908Y417946D02*
X597955Y417000D01*
X596407Y409730D02*
X599183Y412507D01*
X592164Y409730D02*
X598166Y415733D01*
X583167Y443550D02*
X597904Y428813D01*
X581329Y437080D02*
X597119Y452869D01*
X597904Y418127D02*
Y445300D01*
X582476Y439998D02*
X597904Y424571D01*
X581270Y436962D02*
X597904Y420328D01*
X558223Y409730D02*
X597699Y449207D01*
X570951Y409730D02*
X597904Y436684D01*
X566708Y409730D02*
X597904Y440926D01*
X569608Y427411D02*
X587288Y409730D01*
X565982Y426794D02*
X583046Y409730D01*
X575375Y430129D02*
X595774Y409730D01*
X572698Y428563D02*
X591531Y409730D01*
X553980D02*
X572921Y428671D01*
X549738Y409730D02*
X566886Y426879D01*
X561506Y427027D02*
X578803Y409730D01*
X554454Y429836D02*
X574560Y409730D01*
X547298Y473698D02*
X551954Y476071D01*
X545697Y472535D02*
X556362Y461870D01*
X543069Y470626D02*
X547298Y473698D01*
X543239Y470750D02*
X553730Y460259D01*
X541095Y468652D02*
X551457Y458289D01*
X532056Y451446D02*
X558554Y477944D01*
X533696Y457329D02*
X552672Y476304D01*
X531497Y442401D02*
X567560Y478465D01*
X531497Y446644D02*
X563357Y478504D01*
X539037Y466467D02*
X549529Y455975D01*
X537252Y464010D02*
X547963Y453298D01*
X531497Y438158D02*
X550172Y456833D01*
X532164Y452127D02*
X549236Y435054D01*
X530759Y416208D02*
X549385Y434834D01*
X531497Y421188D02*
X547850Y437542D01*
X539374Y466931D02*
X543069Y470626D01*
X536302Y462703D02*
X539374Y466931D01*
X535632Y461387D02*
X546811Y450208D01*
X534199Y458577D02*
X546194Y446581D01*
X533929Y458046D02*
X536302Y462703D01*
X532314Y453075D02*
X533929Y458046D01*
X533085Y455448D02*
X546427Y442106D01*
X531497Y447913D02*
X532314Y453075D01*
X531497Y429673D02*
X546175Y444351D01*
X531497Y445300D02*
Y447913D01*
Y425431D02*
X546737Y440671D01*
X531497Y420802D02*
Y445300D01*
Y433916D02*
X546508Y448928D01*
X531434Y419444D02*
X531492Y420622D01*
X530908Y416595D02*
X531368Y418907D01*
X529797Y413728D02*
X530699Y415906D01*
X537015Y409736D02*
X556129Y428849D01*
X541257Y409736D02*
X559128Y427607D01*
X532772Y409736D02*
X553528Y430492D01*
X531584Y448464D02*
X570318Y409730D01*
X531497Y431581D02*
X553347Y409730D01*
X531497Y444309D02*
X566075Y409730D01*
X528530Y409736D02*
X551284Y432490D01*
X531497Y440066D02*
X561832Y409730D01*
X531497Y435824D02*
X557590Y409730D01*
X545500Y409736D02*
X562630Y426866D01*
X531497Y423096D02*
X544857Y409736D01*
X548257Y409730D02*
X567704D01*
X547276D02*
X548257D01*
X526892Y409736D02*
X548231D01*
X530553Y415554D02*
X536371Y409736D01*
X531497Y427338D02*
X549104Y409730D01*
X531368Y418982D02*
X540614Y409736D01*
X528148Y411133D02*
X529458Y413093D01*
X527023Y409832D02*
X527815Y410707D01*
X529183Y412682D02*
X532129Y409736D01*
X473329Y386493D02*
Y404725D01*
X468800D02*
X473329D01*
X421731Y402014D02*
Y404725D01*
X468800Y400918D02*
X472608Y404725D01*
X468800Y394930D02*
Y404725D01*
X495269D02*
X497329D01*
X484489Y398905D02*
Y404725D01*
X497329Y386740D02*
Y404725D01*
X495269Y398905D02*
Y404725D01*
X482429Y404282D02*
X484489Y402222D01*
X482429Y404725D02*
X484489D01*
X482429Y386727D02*
Y404725D01*
X469258D02*
X473329Y400654D01*
X496762Y394938D02*
X497329Y395506D01*
X496757Y394197D02*
X497329Y393624D01*
X495769Y398189D02*
X497329Y399749D01*
X495269Y401931D02*
X497329Y403991D01*
X495269Y404170D02*
X497329Y402110D01*
X495269Y399927D02*
X497329Y397867D01*
X597826Y390707D02*
X598760Y389773D01*
X594700Y386811D02*
X598450Y390561D01*
X594700Y389591D02*
X598760Y385531D01*
X594700Y390707D02*
X598304D01*
X495733Y390979D02*
X497329Y389382D01*
X495269Y384961D02*
X497329Y387021D01*
X495269Y389203D02*
X497329Y391263D01*
X495269Y387199D02*
X496580Y385889D01*
X495269Y384534D02*
X496499Y385764D01*
X495269Y384534D02*
Y390321D01*
X483302Y385721D02*
X484489Y386908D01*
X482488Y386654D02*
X483166Y385925D01*
X484489Y384534D02*
Y390321D01*
X483276Y385747D02*
X484489Y384534D01*
X594700Y385348D02*
X596236Y383812D01*
X594700D02*
X598760D01*
X594700D02*
Y390707D01*
X598760Y383812D02*
Y390251D01*
X595944Y383812D02*
X598760Y386628D01*
X571759Y357450D02*
X577939D01*
X572528Y356153D02*
X573825Y357450D01*
X577939Y349246D02*
Y357450D01*
X575929D02*
X577939Y355440D01*
X572836Y352218D02*
X577939Y357322D01*
X574332Y349472D02*
X577939Y353079D01*
X571958Y357179D02*
X577939Y351197D01*
X571268Y349472D02*
X575895D01*
X572801Y352093D02*
X575422Y349472D01*
X561760Y379832D02*
X565453D01*
X561760D02*
Y382572D01*
X560679Y381186D02*
X561760Y380104D01*
X560410Y379624D02*
Y380700D01*
X569500Y379832D02*
X570292D01*
X568816Y379328D02*
X570796D01*
X562929Y379624D02*
X563697D01*
X560410D02*
X562929D01*
X563697D02*
X566330D01*
X482429Y401819D02*
X484489Y403879D01*
X482429Y397576D02*
X484489Y399636D01*
X482429Y400039D02*
X484101Y398367D01*
X482429Y393334D02*
X483023Y393928D01*
X482429Y395797D02*
X483015Y395211D01*
X468800Y400941D02*
X473329Y396411D01*
X468800Y396675D02*
X473329Y401204D01*
X468800Y396698D02*
X473329Y392169D01*
X468800Y392433D02*
X473329Y396962D01*
X482429Y391554D02*
X484489Y389494D01*
X482429Y389091D02*
X484140Y390802D01*
X482429Y387311D02*
X484489Y385251D01*
X472338Y387485D02*
X473329Y388476D01*
X470189Y389578D02*
X473329Y392719D01*
X470592Y389231D02*
X473329Y386493D01*
X468800Y392455D02*
X473329Y387926D01*
X466325Y394930D02*
X467669Y393587D01*
X465711D02*
X467055Y394930D01*
X468800Y390200D02*
Y393587D01*
X467669D02*
X468800Y392455D01*
X460127Y394930D02*
X468800D01*
X458783Y393587D02*
X460127Y394930D01*
X462082D02*
X463426Y393587D01*
X461469D02*
X462813Y394930D01*
X458783Y393587D02*
X468800D01*
X432831Y381577D02*
X443468D01*
X441494D02*
X442873Y380199D01*
X422079Y392430D02*
X422146Y391354D01*
X422071Y389861D02*
X422127Y390977D01*
X432831Y377677D02*
X436732Y381577D01*
X432831Y377377D02*
Y381577D01*
X437252D02*
X443599Y375230D01*
X438539Y374899D02*
X442654Y379014D01*
X433009Y381577D02*
X439868Y374718D01*
X433363Y373966D02*
X440974Y381577D01*
X421731Y377377D02*
X432831D01*
X429620Y374466D02*
X432532Y377377D01*
X432831Y377513D02*
X435955Y374389D01*
X428724Y377377D02*
X432130Y373971D01*
X441759Y373877D02*
X443415Y375533D01*
X432143Y373966D02*
X435160D01*
X422141Y360682D02*
X431358D01*
X424878Y373966D02*
X428289Y377377D01*
X424481D02*
X427661Y374197D01*
X421731Y377377D02*
Y388087D01*
X422141Y349582D02*
Y352064D01*
Y352260D02*
Y360682D01*
X423891Y341411D02*
Y346053D01*
Y346888D01*
X422578Y349582D02*
X423792Y348367D01*
X422141Y349582D02*
X423666D01*
X423826Y347977D02*
X423842Y347115D01*
X423707Y349364D02*
X423826Y347977D01*
X697734Y328625D02*
X707182Y338072D01*
X709852Y328014D02*
X717635Y335797D01*
X693492Y328625D02*
X702939Y338072D01*
X701373D02*
X717635Y321810D01*
X705615Y338072D02*
X717635Y326053D01*
X684402Y338072D02*
X693850Y328625D01*
X682114Y336118D02*
X689607Y328625D01*
X689249D02*
X698697Y338072D01*
X688645D02*
X698093Y328625D01*
X711024Y324944D02*
X717635Y331554D01*
X711043Y324159D02*
X717635Y317568D01*
X688903Y328625D02*
X699540D01*
X682114Y335414D02*
X688903Y328625D01*
X687225Y320525D02*
X699339D01*
X675209Y330864D02*
X684353Y321719D01*
X665386Y317490D02*
X676984Y329088D01*
X664070Y328706D02*
X676126Y316650D01*
X673031D02*
X681227Y324845D01*
X668789Y316650D02*
X679106Y326967D01*
X664070Y324659D02*
X672254Y332843D01*
X664070Y328902D02*
X668012Y332843D01*
X664070Y320416D02*
X674883Y331229D01*
X664070Y319327D02*
Y330159D01*
X665914Y316650D02*
X677014D01*
Y316390D02*
X683348Y322724D01*
X676126Y316650D02*
X677014Y315762D01*
X664169Y317490D02*
X665410D01*
X664120Y319082D02*
X664124Y318207D01*
X664070Y324463D02*
X671884Y316650D01*
X664070Y320221D02*
X667641Y316650D01*
X703911Y313588D02*
X717635Y327312D01*
X708154Y313588D02*
X717635Y323069D01*
X693465Y320525D02*
X700401Y313588D01*
X717635D02*
Y339854D01*
X709984Y320976D02*
X717372Y313588D01*
X686940D02*
X693877Y320525D01*
X672661Y332843D02*
X691916Y313588D01*
X691183D02*
X698119Y320525D01*
X689222D02*
X696158Y313588D01*
X707718Y318999D02*
X713129Y313588D01*
X704046Y318428D02*
X708886Y313588D01*
X716639D02*
X717635Y314584D01*
X712396Y313588D02*
X717635Y318827D01*
X680150Y313588D02*
X717635D01*
X695426D02*
X701387Y319549D01*
X697707Y320525D02*
X704644Y313588D01*
X699668D02*
X704457Y318377D01*
X682698Y313588D02*
X689634Y320525D01*
X668418Y332843D02*
X687673Y313588D01*
X677014Y312147D02*
X685693Y320826D01*
X677014Y307850D02*
Y316650D01*
X665015Y332003D02*
X683430Y313588D01*
X665410Y309680D02*
Y317490D01*
X665914Y309070D02*
Y316650D01*
X678999Y305646D02*
X680150Y306798D01*
X677034Y307731D02*
X677748Y306965D01*
X680150Y304495D02*
Y313588D01*
X677860Y306785D02*
X680150Y304495D01*
X677014Y311519D02*
X680150Y308384D01*
X677014Y315762D02*
X680150Y312626D01*
X677014Y307904D02*
X680150Y311040D01*
X652630Y302210D02*
X657914D01*
X645206Y330600D02*
X646482Y329323D01*
X646986Y316160D02*
Y331440D01*
X646482Y317000D02*
Y330600D01*
X629399Y317490D02*
X635382D01*
X621749Y332843D02*
X635382Y319210D01*
Y317490D02*
Y323207D01*
X631445Y317490D02*
X635382Y321427D01*
X652630Y315030D02*
Y316160D01*
X646986D02*
X652630D01*
X651865Y314965D02*
X652630Y315030D01*
X651160Y316160D02*
X652317Y315004D01*
X642179Y317000D02*
X646482D01*
X642179Y315496D02*
X643683Y317000D01*
X642911Y314965D02*
X643805Y314949D01*
X642179Y315010D02*
Y317000D01*
X625992Y332843D02*
X632449Y326386D01*
X618050Y316823D02*
X630821Y329594D01*
X618050Y321065D02*
X630239Y333254D01*
X618050Y325308D02*
X625585Y332843D01*
X615627Y334723D02*
X632860Y317490D01*
X618050Y316650D02*
Y330073D01*
X633929Y324814D02*
X635297Y323313D01*
X632571Y326199D02*
X633929Y324814D01*
X626362Y316650D02*
X634214Y324502D01*
X622120Y316650D02*
X632157Y326687D01*
X618050Y328057D02*
X629399Y316708D01*
X618050Y323814D02*
X625215Y316650D01*
X618050D02*
X628895D01*
X618050Y319572D02*
X620972Y316650D01*
X650068Y314900D02*
X651328Y316160D01*
X651003Y314949D02*
X651865Y314965D01*
X646078Y317000D02*
X648178Y314900D01*
X644033D02*
X650776D01*
X642179Y316656D02*
X643908Y314927D01*
X645825Y314900D02*
X647086Y316160D01*
X642179Y302768D02*
X644211Y304800D01*
X652630Y302210D02*
Y304689D01*
X651003Y304750D02*
X651898Y304734D01*
X645550Y304800D02*
X653470Y296880D01*
X649793Y304800D02*
X653470Y301122D01*
X644033Y304800D02*
X650776D01*
X642179Y298525D02*
X648453Y304800D01*
X642179Y294282D02*
X652588Y304692D01*
X642179Y303928D02*
X652043Y294064D01*
X629399Y302593D02*
Y317490D01*
X628895Y311914D02*
Y316650D01*
X642944Y304734D02*
X643805Y304750D01*
X642179Y304669D02*
X642944Y304734D01*
X640962Y302210D02*
X642179D01*
Y302593D02*
Y304669D01*
X629399Y302593D02*
X630616D01*
X628895Y303050D02*
Y308202D01*
X640938Y302593D02*
X642179D01*
X700530Y296488D02*
X708830Y288188D01*
X703967D02*
X712267Y296488D01*
X699724Y288188D02*
X708024Y296488D01*
X708210Y288188D02*
X716509Y296488D01*
X704773D02*
X713073Y288188D01*
X692045Y296488D02*
X700345Y288188D01*
X691239D02*
X699539Y296488D01*
X696288D02*
X704588Y288188D01*
X695481D02*
X703782Y296488D01*
X716421Y287915D02*
X717635Y289128D01*
X713258Y296488D02*
X717635Y292112D01*
Y287349D02*
Y296488D01*
X682750D02*
X717635D01*
X685700Y288188D02*
X714700D01*
X709016Y296488D02*
X717635Y287869D01*
X712452Y288188D02*
X717635Y293371D01*
X683560Y296488D02*
X691860Y288188D01*
X682750Y292427D02*
X686811Y296488D01*
X687803D02*
X696103Y288188D01*
X686996D02*
X695296Y296488D01*
X653470Y301753D02*
X658521D01*
X653470Y298063D02*
Y301753D01*
X682750Y290407D02*
Y296488D01*
X653470Y295934D02*
Y297942D01*
X682750Y293055D02*
X687617Y288188D01*
X682490Y289073D02*
X683734Y287829D01*
X680567Y286753D02*
X681300Y286021D01*
X651545Y293473D02*
X652928Y295114D01*
X678771Y284957D02*
X681707Y287893D01*
X679323Y284757D02*
X691054Y296488D01*
X680312Y274280D02*
X681193Y273399D01*
X679475Y272182D02*
X680992Y273699D01*
X678023Y274348D02*
X679031Y274438D01*
X665350Y275027D02*
X666694Y276371D01*
X677794Y272734D02*
Y274305D01*
X666694Y272734D02*
Y277302D01*
X675312Y272734D02*
X677794D01*
X673373D02*
X673925Y272182D01*
X677616Y272734D02*
X678168Y272182D01*
X675232D02*
X675785Y272734D01*
X666694D02*
X675116D01*
X666747Y272182D02*
X667299Y272734D01*
X670990Y272182D02*
X671542Y272734D01*
X669130D02*
X669683Y272182D01*
X666694Y281871D02*
Y282658D01*
X665350Y280757D02*
X666252Y279855D01*
X665350Y279270D02*
X666277Y280197D01*
X650798Y278339D02*
X654250Y274886D01*
X652919Y280460D02*
X654250Y279129D01*
X665350Y272734D02*
Y281168D01*
X654250Y272734D02*
Y281791D01*
X665350Y276514D02*
X666694Y275170D01*
X660645Y272734D02*
X661198Y272182D01*
X664888Y272734D02*
X665440Y272182D01*
X662504D02*
X663057Y272734D01*
X654250D02*
X665350D01*
X654019Y272182D02*
X654572Y272734D01*
X658262Y272182D02*
X658814Y272734D01*
X656403D02*
X656955Y272182D01*
X642179Y290040D02*
X653470Y301331D01*
X650644Y292538D02*
X651545Y293473D01*
X642179Y299686D02*
X650020Y291845D01*
X642179Y295443D02*
X647899Y289723D01*
X642179Y291200D02*
X645777Y287602D01*
X642179Y287313D02*
Y302210D01*
X641824Y287313D02*
X643656Y285480D01*
X637017Y284878D02*
X639452Y287313D01*
X638076Y284878D02*
X640559D01*
X637581Y287313D02*
X640016Y284878D01*
X629399Y287313D02*
X642179D01*
X629459Y284878D02*
X637880D01*
X633338Y287313D02*
X635773Y284878D01*
X632774D02*
X635209Y287313D01*
X629399Y302210D02*
X630640D01*
X629399Y287313D02*
Y302210D01*
X628895Y288153D02*
Y298059D01*
X627564Y288153D02*
X628895Y289484D01*
X618050Y287124D02*
X619079Y288153D01*
X619771D02*
X623045Y284878D01*
X618050Y285547D02*
Y288153D01*
X624289Y284878D02*
X627564Y288153D01*
X624013D02*
X627288Y284878D01*
X628256Y288153D02*
X631530Y284878D01*
X628115Y284461D02*
X630966Y287313D01*
X618050Y288153D02*
X628895D01*
X618050Y285632D02*
X618804Y284878D01*
X618126D02*
X628115D01*
X620047D02*
X623321Y288153D01*
X646851Y274392D02*
X654250Y281791D01*
X645534Y272182D02*
X654250Y280898D01*
X641308Y283133D02*
X650518Y292342D01*
X649776Y272182D02*
X654250Y276655D01*
X648676Y276217D02*
X652712Y272182D01*
X640559Y284177D02*
X653470Y297088D01*
X640016Y284878D02*
X640559Y284335D01*
X641535Y283359D01*
X640559Y283246D02*
Y284878D01*
X646543Y274108D02*
X648470Y272182D01*
X643498Y272911D02*
X644227Y272182D01*
X642154Y272842D02*
X643022Y272856D01*
X640753Y272730D02*
X642154Y272842D01*
X640559Y272182D02*
X682392D01*
X641291D02*
X641934Y272824D01*
X628115Y275976D02*
X629459Y277320D01*
X628115Y279809D02*
X629459Y278465D01*
Y272182D02*
Y284878D01*
X628115Y275567D02*
X629459Y274223D01*
X628115Y284051D02*
X629459Y282707D01*
X627288Y284878D02*
X628115Y284051D01*
Y280219D02*
X629459Y281562D01*
X628115Y272182D02*
Y284878D01*
X628563Y272182D02*
X629459Y273077D01*
X628115Y272182D02*
X629459D01*
X603883Y266838D02*
X607276Y269105D01*
X604595Y269389D02*
X605839Y268145D01*
X597970Y269389D02*
X607827D01*
X600352D02*
X603341Y266400D01*
X578388Y243220D02*
X604557Y269389D01*
X601943Y265133D02*
X603457Y266505D01*
X568529Y326668D02*
X572231Y322965D01*
Y317037D02*
Y326598D01*
X569805D02*
X572231D01*
X567050Y311176D02*
X578553Y299673D01*
X567050Y323904D02*
X572231Y318722D01*
X567050Y320977D02*
X572231Y326158D01*
X567050Y312492D02*
X572231Y317673D01*
X567050Y316734D02*
X572231Y321916D01*
X567050Y302691D02*
X578553Y291187D01*
X577102Y305367D02*
X578553Y303915D01*
X567050Y298448D02*
X578553Y286945D01*
X567050Y287036D02*
X578553Y298539D01*
X567050Y295521D02*
X576844Y305315D01*
X567050Y299764D02*
X573123Y305836D01*
X567050Y291278D02*
X578553Y302782D01*
X567050Y306933D02*
X578553Y295430D01*
X567050Y319661D02*
X571333Y315378D01*
X567050Y315418D02*
X569877Y312591D01*
X569805Y326598D02*
Y327944D01*
X567050Y304006D02*
X570833Y307790D01*
X567050Y308249D02*
X569740Y310940D01*
X567050Y325189D02*
X569805Y327944D01*
X548470Y289950D02*
Y296655D01*
Y287059D02*
Y289542D01*
X535186Y287886D02*
X536284Y286787D01*
X533124Y294190D02*
X535186Y292128D01*
X533858Y286787D02*
X535186D01*
X532860D02*
X535186Y289113D01*
X578553Y280857D02*
Y305893D01*
X568830Y280330D02*
X578553Y290054D01*
X567299Y283042D02*
X578553Y294296D01*
X567050Y285720D02*
X597896Y254874D01*
X567884Y275142D02*
X578553Y285811D01*
X567050Y284260D02*
Y325189D01*
X548818Y287059D02*
X548886Y285982D01*
X567050Y289963D02*
X598306Y258707D01*
X567050Y294205D02*
X578553Y282702D01*
X568994Y279533D02*
X597896Y250632D01*
X579748Y277985D02*
X587150Y270583D01*
X568366Y275919D02*
X597896Y246389D01*
X531785Y226315D02*
X581601Y276131D01*
X548810Y284490D02*
X548867Y285606D01*
X547966Y286446D02*
Y295147D01*
X548470Y283123D02*
Y285606D01*
X547966Y271166D02*
Y286219D01*
X535186Y286787D02*
X536391D01*
X535186D02*
Y295904D01*
X546739Y286219D02*
X547966D01*
X546725Y286446D02*
X547966D01*
X548470Y272006D02*
Y282715D01*
X535186Y271166D02*
Y276540D01*
X533538Y276638D02*
X534412Y276615D01*
X533710Y276634D02*
X535186Y275158D01*
X525927Y286993D02*
X535104Y296170D01*
X531003Y292069D02*
X535186Y287886D01*
X526760Y287826D02*
X527799Y286787D01*
X528618D02*
X535186Y293356D01*
X528882Y289947D02*
X532042Y286787D01*
X525704D02*
X533154D01*
X507557Y276687D02*
X533322D01*
X506470Y276616D02*
X507340Y276638D01*
X505693Y273347D02*
Y276540D01*
X488913Y274761D02*
X490327Y273347D01*
X488913D02*
Y275404D01*
X475821Y272174D02*
X479763Y276116D01*
X465583Y276879D02*
X470287Y272174D01*
X425053Y329050D02*
Y338188D01*
X422388Y329050D02*
X425053Y331715D01*
X422079Y287059D02*
X422146Y285982D01*
X421731Y287059D02*
Y289542D01*
Y289950D02*
Y296029D01*
X422071Y284490D02*
X422127Y285606D01*
X421731Y283123D02*
Y285606D01*
X463093Y272174D02*
X467144Y276225D01*
X454608Y272174D02*
X457116Y274682D01*
X467336Y272174D02*
X469782Y274621D01*
X463216Y275003D02*
X466044Y272174D01*
X435535Y276687D02*
X452172D01*
X434445Y276615D02*
X435318Y276638D01*
X452373Y276639D02*
X453324Y276603D01*
X432831Y275853D02*
X433487Y276509D01*
X517973Y271900D02*
X522760Y276687D01*
X516686D02*
X523639Y269734D01*
X514005Y272174D02*
X518518Y276687D01*
X531504Y230277D02*
X579492Y278264D01*
X531504Y234519D02*
X578553Y281569D01*
X508200Y276687D02*
X512713Y272174D01*
X505520D02*
X510033Y276687D01*
X512443D02*
X517084Y272046D01*
X509762Y272174D02*
X514275Y276687D01*
X526377Y267576D02*
X535186Y276385D01*
X524031Y269472D02*
X531246Y276687D01*
X529414D02*
X558075Y248026D01*
X525171Y276687D02*
X555216Y246642D01*
X505693Y274952D02*
X508471Y272174D01*
X484306D02*
X486516Y274384D01*
X520928Y276687D02*
X552738Y244878D01*
X521265Y270949D02*
X527003Y276687D01*
X441880Y272174D02*
X446393Y276687D01*
X440318D02*
X444831Y272174D01*
X478185Y277004D02*
X483015Y272174D01*
X444561Y276687D02*
X449074Y272174D01*
X433395D02*
X437908Y276687D01*
X421731Y272174D02*
Y282715D01*
X437637Y272174D02*
X442150Y276687D01*
X436076D02*
X440588Y272174D01*
X453123Y276611D02*
X457559Y272174D01*
X450365D02*
X454495Y276304D01*
X480064Y272174D02*
X482452Y274563D01*
X475866Y275081D02*
X478772Y272174D01*
X432831Y275690D02*
X436346Y272174D01*
X432831D02*
Y276354D01*
X448803Y276687D02*
X453316Y272174D01*
X446123D02*
X450636Y276687D01*
X596110Y269389D02*
X601180Y264318D01*
X601043Y264167D02*
X601690Y264881D01*
X599656Y262164D02*
X600708Y263739D01*
X591867Y269389D02*
X599481Y261775D01*
X598591Y259779D02*
X599316Y261529D01*
X576189Y245264D02*
X600314Y269389D01*
X590022D02*
X597970D01*
X559551Y272006D02*
X597896Y233661D01*
X563135Y272664D02*
X597896Y237904D01*
X598013Y257232D02*
X598382Y259090D01*
X597900Y255748D02*
X597947Y256695D01*
X597876Y227843D02*
X597896Y230436D01*
Y255568D01*
X580241Y240829D02*
X598353Y258942D01*
X582774Y234877D02*
X597896Y249999D01*
X582733Y226352D02*
X597896Y241514D01*
X583246Y231107D02*
X597896Y245757D01*
X563139Y249184D02*
X585844Y271889D01*
X559570Y272006D02*
Y273729D01*
X566360Y273682D02*
X597896Y242147D01*
X557514Y247801D02*
X583722Y274010D01*
X548470Y272006D02*
X559570D01*
X546937Y271166D02*
X547966Y272194D01*
X555308Y272006D02*
X597888Y229426D01*
X551066Y272006D02*
X597500Y225572D01*
X581723Y238070D02*
X597896Y254242D01*
X597024Y222700D02*
X597876Y227843D01*
X567269Y249071D02*
X588081Y269883D01*
X547663Y271166D02*
X570513Y248316D01*
X573638Y246955D02*
X596072Y269389D01*
X570695Y248255D02*
X591829Y269389D01*
X582316Y236513D02*
X596800Y222029D01*
X595379Y217754D02*
X597024Y222700D01*
X583239Y231347D02*
X595742Y218845D01*
X582953Y227391D02*
X594428Y215916D01*
X582027Y224074D02*
X592980Y213121D01*
X558672Y198047D02*
X597896Y237271D01*
X571514Y198162D02*
X597216Y223864D01*
X562379Y197512D02*
X597896Y233029D01*
X566606Y197496D02*
X597883Y228773D01*
X592983Y213125D02*
X595379Y217754D01*
X589893Y208926D02*
X592983Y213125D01*
X586187Y205261D02*
X589893Y208926D01*
X581954Y202220D02*
X586187Y205261D01*
X580643Y221216D02*
X591181Y210677D01*
X578878Y218738D02*
X589288Y208328D01*
X577647Y200052D02*
X595394Y217799D01*
X576764Y216609D02*
X587155Y206218D01*
X574302Y214828D02*
X584838Y204292D01*
X571462Y213426D02*
X582369Y202519D01*
X568168Y212477D02*
X579607Y201039D01*
X564247Y212155D02*
X576713Y199689D01*
X549225Y201329D02*
X560523Y212626D01*
X546523Y202869D02*
X557331Y213677D01*
X559165Y212995D02*
X573499Y198661D01*
X555246Y198864D02*
X569048Y212667D01*
X577298Y199876D02*
X581954Y202220D01*
X572333Y198288D02*
X577298Y199876D01*
X567181Y197494D02*
X572333Y198288D01*
X561968Y197514D02*
X567181Y197494D01*
X552052Y199913D02*
X564293Y212154D01*
X547232Y202351D02*
X551870Y199972D01*
X556823Y198347D02*
X561968Y197514D01*
X551870Y199972D02*
X556823Y198347D01*
X530952Y259423D02*
X542695Y271166D01*
X535186D02*
X547966D01*
X529849Y262563D02*
X538452Y271166D01*
X531504Y251490D02*
X552020Y272006D01*
X531487Y255715D02*
X546937Y271166D01*
X517239Y272046D02*
X519536Y271589D01*
X515531Y272170D02*
X516702Y272113D01*
X528292Y265248D02*
X535186Y272142D01*
X520225Y271380D02*
X522390Y270484D01*
X530841Y259983D02*
X531367Y257338D01*
X529600Y263164D02*
X530632Y260672D01*
X543420Y271166D02*
X565348Y249239D01*
X531433Y256801D02*
X531499Y255453D01*
X525399Y268510D02*
X526268Y267722D01*
X523025Y270144D02*
X524973Y268843D01*
X527762Y266041D02*
X529260Y263799D01*
X526523Y267468D02*
X527429Y266467D01*
X488549Y272174D02*
X489722Y273347D01*
X485232Y274200D02*
X487257Y272174D01*
X492792D02*
X493965Y273347D01*
X490327D02*
X491500Y272174D01*
X459789Y274187D02*
X461802Y272174D01*
X458851D02*
X460951Y274275D01*
X472514Y274190D02*
X474530Y272174D01*
X471578D02*
X473727Y274323D01*
X498813Y273347D02*
X499985Y272174D01*
X497034D02*
X498207Y273347D01*
X503055D02*
X504228Y272174D01*
X501277D02*
X502450Y273347D01*
X432831Y272174D02*
X515350D01*
X488913Y273347D02*
X505693D01*
X494570D02*
X495743Y272174D01*
X421731Y272006D02*
X432831D01*
X539178Y271166D02*
X561391Y248953D01*
X531504Y247247D02*
X556263Y272006D01*
X531504Y236413D02*
X569990Y197927D01*
X531504Y243004D02*
X561382Y272883D01*
X528628Y264745D02*
X550609Y242764D01*
X531504Y238762D02*
X566571Y273829D01*
X531261Y257869D02*
X548829Y240302D01*
X539692Y208767D02*
X550136Y219211D01*
X537855Y211172D02*
X548445Y221762D01*
X544070Y204659D02*
X554571Y215160D01*
X541810Y206641D02*
X552180Y217012D01*
X532352Y222837D02*
X556847Y198343D01*
X534920Y216027D02*
X550031Y200916D01*
X531504Y232171D02*
X566177Y197498D01*
X531535Y227897D02*
X561909Y197523D01*
X531504Y240656D02*
X546995Y225165D01*
X531504Y228094D02*
Y230700D01*
X532401Y222688D02*
X547599Y237886D01*
X533439Y219484D02*
X546216Y232261D01*
X531504Y253384D02*
X547426Y237461D01*
X531504Y249141D02*
X546477Y234168D01*
X531504Y244899D02*
X546156Y230247D01*
X531504Y230700D02*
Y255273D01*
X536115Y213675D02*
X547146Y224705D01*
X536286Y213339D02*
X539343Y209117D01*
X543022Y205424D02*
X547232Y202351D01*
X539343Y209117D02*
X543022Y205424D01*
X532317Y222945D02*
X533924Y217986D01*
X531504Y228094D02*
X532317Y222945D01*
X534686Y216488D02*
X546329Y228131D01*
X533924Y217986D02*
X536286Y213339D01*
X421731Y395321D02*
Y397197D01*
Y392430D02*
Y394913D01*
X421227Y391528D02*
X422082Y392383D01*
X421227Y391817D02*
Y404725D01*
X397943Y395430D02*
X408447Y384926D01*
X402185Y395430D02*
X408447Y389169D01*
X420000Y391590D02*
X421227D01*
X419986Y391817D02*
X421227D01*
X421731Y388495D02*
Y390977D01*
X408447Y391590D02*
X409688D01*
X408447Y391817D02*
X409674D01*
X408447Y383209D02*
Y391590D01*
X352963Y386904D02*
X361489Y395430D01*
X355084Y384783D02*
X365732Y395430D01*
X350842Y389025D02*
X357247Y395430D01*
X368244D02*
X381585Y382090D01*
X357185Y382641D02*
X369975Y395430D01*
X346599Y393268D02*
X348761Y395430D01*
X321850Y398250D02*
Y404725D01*
X344437Y395430D02*
X356856Y383012D01*
X348720Y391147D02*
X353004Y395430D01*
X406428D02*
X408447Y393412D01*
X406799Y395381D02*
X407669Y395359D01*
X408447Y391817D02*
Y395281D01*
X386333Y382090D02*
X399673Y395430D01*
X344437D02*
X406582D01*
X380972D02*
X394313Y382090D01*
X385215Y395430D02*
X398555Y382090D01*
X382090D02*
X395430Y395430D01*
X394818Y382090D02*
X408053Y395325D01*
X399061Y382090D02*
X408447Y391476D01*
X393700Y395430D02*
X408007Y381123D01*
X421227Y376537D02*
Y391590D01*
X401890Y380677D02*
X408447Y387234D01*
X377847Y382090D02*
X391188Y395430D01*
X376729D02*
X390070Y382090D01*
X389457Y395430D02*
X408007Y376881D01*
X390575Y382090D02*
X403916Y395430D01*
X401890Y376434D02*
X408301Y382845D01*
X373110Y382090D02*
X401890D01*
Y372773D02*
Y382090D01*
X364002Y395430D02*
X377342Y382090D01*
X359759Y395430D02*
X373110Y382079D01*
X358050Y375020D02*
X378460Y395430D01*
X358050Y379263D02*
X374217Y395430D01*
X358050Y379263D02*
X374217Y395430D01*
X355516D02*
X373110Y377837D01*
X347031Y395430D02*
X373110Y369352D01*
X351274Y395430D02*
X373110Y373594D01*
X373605Y382090D02*
X386945Y395430D01*
X372487D02*
X385827Y382090D01*
X373110Y352310D02*
Y382090D01*
X358050Y370778D02*
X382703Y395430D01*
X358050Y366535D02*
X373110Y381595D01*
X281777Y435228D02*
X299593Y417413D01*
X285488Y408525D02*
X299469Y422505D01*
X283136Y410415D02*
X299469Y426748D01*
X279933Y432830D02*
X306757Y406006D01*
X288706Y407500D02*
X299492Y418285D01*
X274942Y410706D02*
X299469Y435233D01*
X270699Y410706D02*
X299469Y439476D01*
X277742Y430778D02*
X302514Y406006D01*
X279184Y410706D02*
X299469Y430990D01*
X304398Y410150D02*
X307848Y407844D01*
X302432Y411877D02*
X303972Y410482D01*
X301860Y406006D02*
X312102D01*
X304183D02*
X306753Y408576D01*
X300007Y415694D02*
X300457Y414608D01*
X299568Y417537D02*
X299798Y416383D01*
X300796Y413972D02*
X301450Y412995D01*
X292295Y406846D02*
X300339Y414891D01*
X273048Y477899D02*
X298799Y452148D01*
X297031Y458071D02*
X298650Y453091D01*
X299469Y447918D01*
X284311Y441289D02*
X298027Y455005D01*
X263893Y478569D02*
X299469Y442993D01*
X268135Y478569D02*
X299469Y447235D01*
X260188Y478031D02*
X299469Y438750D01*
X257971Y410706D02*
X298883Y451618D01*
X284747Y444986D02*
X299469Y430265D01*
Y445300D02*
Y447918D01*
Y418841D02*
Y445300D01*
X284291Y441200D02*
X299469Y426022D01*
X283252Y437996D02*
X299469Y421780D01*
X284202Y449774D02*
X299469Y434507D01*
X266456Y410706D02*
X299469Y443718D01*
X262214Y410706D02*
X299463Y447955D01*
X315460Y405220D02*
X317076Y404898D01*
X317613Y404832D02*
X319688Y404730D01*
X315460Y404555D02*
X316014Y405109D01*
X316170Y405078D02*
X321850Y399399D01*
X315460Y400312D02*
X319873Y404725D01*
X308483Y407505D02*
X312102Y406006D01*
X308425D02*
X309502Y407083D01*
X315460Y399598D02*
Y405220D01*
X310221Y406785D02*
X311000Y406006D01*
X320765Y404725D02*
X321850Y403641D01*
X319868Y404725D02*
X321850D01*
X317640Y398250D02*
X321850Y402460D01*
X316677Y398250D02*
X321850D01*
X315460Y401546D02*
X318756Y398250D01*
X315752Y399239D02*
X316677Y398250D01*
X304751Y393562D02*
X309753D01*
X308459Y394700D02*
X309329Y393971D01*
X301860Y394906D02*
Y406006D01*
X295470Y397293D02*
X301860Y403683D01*
X295470Y400322D02*
X302230Y393562D01*
X295547Y393128D02*
X301860Y399440D01*
X295470Y405779D02*
X302009Y412318D01*
X275199Y429079D02*
X301860Y402418D01*
X295470Y401536D02*
X304241Y410307D01*
X295470Y404565D02*
X301860Y398175D01*
Y394906D02*
X308155D01*
X304478Y393574D02*
X305811Y394906D01*
X305129D02*
X306473Y393562D01*
X301860D02*
X304342D01*
X299776Y393114D02*
X301860Y395198D01*
X300303Y393116D02*
X301860Y393214D01*
X299427Y393112D02*
X300303Y393116D01*
X295470Y396080D02*
X298486Y393064D01*
X421078Y376537D02*
X423650Y373966D01*
X421301D02*
X426989D01*
X421301Y372725D02*
Y373966D01*
Y361186D02*
Y362459D01*
X420697Y372692D02*
Y373966D01*
X418243Y376537D02*
X421227D01*
X418238Y373966D02*
X420697D01*
X420635D02*
X424046Y377377D01*
X419407Y373966D02*
X420681Y372693D01*
X421301Y361186D02*
X426989D01*
X420697Y361300D02*
X421301Y361904D01*
X419857Y356218D02*
X422141Y358502D01*
X420697Y361186D02*
Y362427D01*
X405417Y361186D02*
X420697D01*
X415466Y360682D02*
X419857D01*
X419459Y361186D02*
X422141Y358504D01*
X419857Y360460D02*
X420583Y361186D01*
X418177Y375750D02*
X418964Y376537D01*
X418164Y375209D02*
X419407Y373966D01*
X408007Y375820D02*
Y381148D01*
X418172Y374731D02*
X418238Y373966D01*
X407942Y374698D02*
X407958Y375592D01*
X405417Y373966D02*
X407897D01*
X405417Y372725D02*
Y373966D01*
X406257Y360682D02*
X410649D01*
X405417Y361186D02*
Y362459D01*
X403825Y372676D02*
X404700Y372680D01*
X406257Y359588D02*
X407351Y360682D01*
X405458Y362459D02*
X406731Y361186D01*
X419857Y356545D02*
X422141Y354261D01*
X419857Y351975D02*
X422141Y354259D01*
X419857Y352260D02*
Y360682D01*
Y352303D02*
X422141Y350019D01*
X419857Y349582D02*
Y352064D01*
X418107Y345982D02*
X422141Y350016D01*
X418332Y349582D02*
X419857D01*
X418335D02*
X423891Y344026D01*
X418107Y341740D02*
X423835Y347468D01*
X418106Y341325D02*
X425053Y334379D01*
X418107Y345568D02*
X424336Y339339D01*
X418145Y329050D02*
X425053Y335958D01*
X417725Y332872D02*
X424292Y339439D01*
X416970Y338219D02*
X425053Y330136D01*
X416945Y336335D02*
X423891Y343281D01*
X417228Y329050D02*
X425053D01*
X417615Y333331D02*
X421897Y329050D01*
X418157Y347115D02*
X418173Y348010D01*
X407823Y349363D02*
X407942Y347977D01*
X418107Y341411D02*
Y346888D01*
X406257Y345299D02*
X407782D01*
X406257Y349582D02*
Y352064D01*
Y352260D02*
Y360682D01*
Y349582D02*
X407782D01*
X406257Y342817D02*
Y345299D01*
X416945Y334866D02*
Y338188D01*
X406257Y334149D02*
Y342621D01*
X405418Y329050D02*
X406077Y329709D01*
X402418Y372719D02*
X408007Y378309D01*
X401890Y374512D02*
X403743Y372659D01*
X402662Y372698D02*
X403537Y372675D01*
X403811Y362476D02*
X405417Y362459D01*
X402662Y362454D02*
X403537Y362477D01*
X401890Y378755D02*
X406679Y373966D01*
X358050Y371684D02*
X373110Y356623D01*
X401890Y355221D02*
X406257Y359588D01*
X401890Y361785D02*
X406257Y357417D01*
X401890Y353299D02*
X407948Y347241D01*
X401890Y357542D02*
X406257Y353175D01*
X401890Y359464D02*
X404891Y362465D01*
X373110Y352310D02*
X401890D01*
Y362379D01*
X358050Y345322D02*
X373110Y360382D01*
X358050Y362293D02*
X373110Y377353D01*
X358050Y380169D02*
X373110Y365109D01*
X358050Y358050D02*
X373110Y373110D01*
X358050Y375926D02*
X373110Y360866D01*
X297040Y369165D02*
X297800Y369925D01*
X297040Y373297D02*
X297800Y372537D01*
Y352415D02*
Y372627D01*
X297040Y369054D02*
X297800Y368294D01*
X358050Y353807D02*
X373110Y368867D01*
X297260Y352415D02*
X297800Y352954D01*
X358050Y349565D02*
X373110Y364625D01*
X358050Y367441D02*
X373110Y352381D01*
X297040Y360680D02*
X297800Y361440D01*
X297040Y364922D02*
X297800Y365682D01*
X297040Y356437D02*
X297800Y357197D01*
X297040Y360569D02*
X297800Y359809D01*
X394394Y352310D02*
X406257Y340447D01*
X390151Y352310D02*
X406257Y336204D01*
X398637Y352310D02*
X406257Y344690D01*
X390874Y335720D02*
X406257Y351103D01*
X386632Y335720D02*
X406257Y355345D01*
X381666Y352310D02*
X398256Y335720D01*
X378146D02*
X394736Y352310D01*
X385909D02*
X405784Y332435D01*
X382389Y335720D02*
X398979Y352310D01*
X401412Y329287D02*
X406244Y334119D01*
X401075Y329381D02*
Y335720D01*
X403779Y329050D02*
X406257D01*
X402687Y329122D02*
X403563Y329099D01*
X395117Y335720D02*
X407897Y348500D01*
X376925Y335720D02*
X401075D01*
Y333193D02*
X406257Y338375D01*
X399360Y335720D02*
X406257Y342618D01*
X358050Y354713D02*
X377043Y335720D01*
X358050Y336837D02*
X373523Y352310D01*
X361563Y331865D02*
X382009Y352310D01*
X359442Y333986D02*
X377766Y352310D01*
X358050Y363198D02*
X385528Y335720D01*
X358050Y341079D02*
X373110Y356139D01*
X358050Y358956D02*
X381286Y335720D01*
X358050Y335378D02*
Y380140D01*
X377424Y352310D02*
X394013Y335720D01*
X373181Y352310D02*
X389771Y335720D01*
X363684Y329743D02*
X386251Y352310D01*
X376925Y334499D02*
X378146Y335720D01*
X358050Y350470D02*
X376925Y331595D01*
X350275Y329062D02*
X351593Y330380D01*
X287873Y470676D02*
X291576Y466973D01*
X294654Y462737D01*
X283637Y473754D02*
X287873Y470676D01*
X283144Y452850D02*
X293971Y463676D01*
X281637Y455586D02*
X292186Y466134D01*
X277544Y459977D02*
X288058Y470491D01*
X274970Y461646D02*
X285630Y472306D01*
X279149Y476041D02*
X296941Y458249D01*
X279764Y457954D02*
X290179Y468370D01*
X294654Y462737D02*
X297031Y458071D01*
X284738Y445959D02*
X296970Y458190D01*
X284502Y409511D02*
X286469Y407545D01*
X284224Y449687D02*
X295538Y461001D01*
X272265Y427770D02*
X293189Y406846D01*
X268852Y426940D02*
X288222Y407571D01*
X268818Y478569D02*
X273990Y477749D01*
X278971Y476131D01*
X263582Y478569D02*
X268818D01*
X264354Y463758D02*
X277278Y476682D01*
X258555Y462201D02*
X274075Y477722D01*
X258409Y477749D02*
X263582Y478569D01*
X253429Y476131D02*
X258409Y477749D01*
X256762Y477214D02*
X270674Y463302D01*
X253560Y476174D02*
X265886Y463847D01*
X278971Y476131D02*
X283637Y473754D01*
X268540Y463702D02*
X280295Y475457D01*
X272001Y462920D02*
X283106Y474024D01*
X253728Y410706D02*
X270211Y427189D01*
X250733Y474758D02*
X262100Y463391D01*
X264743Y426807D02*
X280844Y410706D01*
X259176Y428131D02*
X276601Y410706D01*
X290628Y406846D02*
X295470D01*
Y394066D02*
Y406846D01*
X276216Y402606D02*
X280190Y398632D01*
X273800Y402606D02*
X279865D01*
X280190Y394066D02*
Y402258D01*
X289254Y394066D02*
X295470D01*
X280190D02*
X285689D01*
X273800Y392594D02*
X280190Y398984D01*
X273800Y400779D02*
X280190Y394389D01*
X273800Y396537D02*
X281030Y389307D01*
X273800Y388351D02*
X280190Y394741D01*
X273800Y396837D02*
X279569Y402606D01*
X273800Y401079D02*
X275327Y402606D01*
X273800Y394906D02*
Y402606D01*
X271188Y394906D02*
X272532Y393562D01*
X270525D02*
X271870Y394906D01*
X266836Y394115D02*
X267627Y394906D01*
X267148D02*
X273800D01*
X267021Y394830D02*
X267796Y394055D01*
X263453Y394156D02*
X264047Y393562D01*
X262566Y394156D02*
X264500D01*
X261477Y394091D02*
X262339Y394106D01*
X262040Y393562D02*
X262634Y394156D01*
X260090Y393972D02*
X261477Y394091D01*
X248028Y473220D02*
X258897Y462352D01*
X245571Y471435D02*
X256128Y460877D01*
X248763Y473754D02*
X253429Y476131D01*
X243307Y469456D02*
X253730Y459033D01*
X241186Y467335D02*
X251678Y456842D01*
X233192Y449567D02*
X261933Y478308D01*
X234365Y454982D02*
X256518Y477135D01*
X232827Y440717D02*
X270425Y478314D01*
X232827Y444959D02*
X266437Y478569D01*
X239343Y464935D02*
X249979Y454299D01*
X233234Y449830D02*
X272358Y410706D01*
X232827Y415261D02*
X251523Y433956D01*
X232827Y419503D02*
X249854Y436530D01*
X232827Y441752D02*
X263873Y410706D01*
X232827Y411018D02*
X253546Y431736D01*
X244527Y470676D02*
X248763Y473754D01*
X240824Y466973D02*
X244527Y470676D01*
X237610Y462470D02*
X249030Y473890D01*
X237746Y462737D02*
X240824Y466973D01*
X235369Y458071D02*
X237746Y462737D01*
X233750Y453091D02*
X235369Y458071D01*
X237595Y462440D02*
X248670Y451365D01*
X236163Y459630D02*
X247840Y447952D01*
X232925Y447879D02*
X233750Y453091D01*
X232867Y445139D02*
X232925Y447879D01*
X233865Y453442D02*
X249031Y438276D01*
X234905Y456645D02*
X247707Y443843D01*
X232827Y436474D02*
X249299Y452945D01*
X232827Y432231D02*
X247742Y447146D01*
X232827Y423746D02*
X248580Y439499D01*
X232827Y427989D02*
X247798Y442960D01*
X232884Y445938D02*
X268116Y410706D01*
X249486D02*
X265541Y426762D01*
X232827Y424781D02*
X247038Y410570D01*
X241383Y406846D02*
X261813Y427276D01*
X237141Y406846D02*
X258650Y428356D01*
X232827Y437509D02*
X259631Y410706D01*
X232827Y433267D02*
X255388Y410706D01*
X232827Y406775D02*
X255914Y429863D01*
X232827Y429024D02*
X251145Y410706D01*
X248078D02*
X281630D01*
X248772Y392406D02*
Y401550D01*
X248268Y391566D02*
Y401024D01*
X232827Y420539D02*
X244530Y408836D01*
X243255Y407561D02*
X245206Y409511D01*
X242427Y406846D02*
X243077Y407451D01*
X235488Y406846D02*
X242427D01*
X235488Y405193D02*
X237141Y406846D01*
X235488Y391566D02*
Y406846D01*
X232827Y416296D02*
X242277Y406846D01*
X232827Y412053D02*
X238035Y406846D01*
X232827Y407811D02*
X235488Y405150D01*
X232827Y378522D02*
Y444960D01*
Y394048D02*
X235488Y396708D01*
X232827Y395083D02*
X235488Y392422D01*
X232827Y403568D02*
X235488Y400908D01*
X232827Y402533D02*
X235488Y405193D01*
X232827Y399326D02*
X235488Y396665D01*
X232827Y398290D02*
X235488Y400951D01*
X292147Y393562D02*
X294630D01*
X293514Y393222D02*
X294630Y393165D01*
X295329Y393130D02*
X297076Y393112D01*
X283632Y382462D02*
X289729Y376364D01*
X281030Y393562D02*
X291739D01*
X273800Y388051D02*
X285487Y376364D01*
X282186Y375524D02*
X289124Y382462D01*
X277944Y375524D02*
X284881Y382462D01*
X297800Y373057D02*
Y374382D01*
X297040Y373408D02*
X297800Y374168D01*
X281030Y382462D02*
X291231D01*
X287875D02*
X290934Y379403D01*
X284260Y376364D02*
X292369D01*
X287269D02*
X290870Y379965D01*
X273800Y384109D02*
X281030Y391338D01*
X273800Y392294D02*
X281030Y385064D01*
X273800Y383809D02*
X282084Y375524D01*
X281030Y382462D02*
Y393562D01*
X272532D02*
X273800Y392294D01*
X269472Y393562D02*
X273800D01*
X273701Y375524D02*
X281030Y382853D01*
X273800Y382462D02*
Y393562D01*
X283500Y372595D02*
X284260Y373355D01*
X283500Y374109D02*
X284260Y373349D01*
X283500Y368353D02*
X284260Y369113D01*
X283500Y369866D02*
X284260Y369106D01*
X272400Y375524D02*
X283500D01*
X270904Y382462D02*
X277842Y375524D01*
X282084D02*
X283500Y374109D01*
X272400Y374223D02*
X273701Y375524D01*
X297040Y364811D02*
X297800Y364051D01*
X297040Y352415D02*
Y374317D01*
X284260Y352415D02*
Y376364D01*
X283634Y365489D02*
X284260Y364863D01*
X283500Y365791D02*
Y375524D01*
Y357138D02*
X284260Y356378D01*
X297040Y356326D02*
X297800Y355566D01*
X283500Y355625D02*
X284260Y356385D01*
X283500Y359868D02*
X284260Y360628D01*
X283500Y352415D02*
Y360573D01*
X272400Y350724D02*
X278610D01*
X272400Y351268D02*
X272943Y350724D01*
X272400D02*
Y360997D01*
X278610Y343572D02*
Y350724D01*
X272943D02*
X278610Y345058D01*
X272400Y365367D02*
Y375524D01*
X271683Y343808D02*
X278600Y350724D01*
X269576Y345943D02*
X274357Y350724D01*
X277186D02*
X278610Y349300D01*
X276963Y343474D02*
X277838Y343496D01*
X277683Y333256D02*
X278610Y332330D01*
X276963Y333275D02*
X277838Y333252D01*
X272067Y343424D02*
X276746D01*
X269625Y345866D02*
X272067Y343424D01*
X275542D02*
X278610Y346492D01*
X269975Y333324D02*
X276746D01*
X259872Y392406D02*
Y393931D01*
X260200Y393562D02*
X264415D01*
X257390Y392406D02*
X259872D01*
X260200Y382462D02*
Y393562D01*
X256717Y392406D02*
X260200Y388923D01*
X248772Y392406D02*
X257194D01*
X246928Y386935D02*
X252399Y392406D01*
X252475D02*
X260200Y384681D01*
X246928Y382692D02*
X256642Y392406D01*
X269224Y382462D02*
X273800D01*
X260200D02*
X264662D01*
X257564Y380600D02*
X260200Y383237D01*
X247075Y380639D02*
X256600D01*
X246928Y389468D02*
X255756Y380639D01*
X253360D02*
X260200Y387479D01*
X249118Y380639D02*
X260200Y391722D01*
X247316Y391566D02*
X248268Y392518D01*
X246995Y391566D02*
X248268D01*
X246978Y389959D02*
X246995Y391566D01*
X236774Y390849D02*
X236778Y389974D01*
X235488Y391566D02*
X236729D01*
X235488Y392422D02*
X236344Y391566D01*
X232827Y390840D02*
X236828Y386840D01*
X232827Y389805D02*
X235488Y392466D01*
X246928Y382544D02*
Y389722D01*
X236828Y382521D02*
Y389729D01*
X246928Y385225D02*
X251513Y380639D01*
X246977Y382326D02*
X247000Y381427D01*
X232827Y386598D02*
X236828Y382597D01*
X232827Y385562D02*
X236828Y389563D01*
X232827Y381320D02*
X236828Y385320D01*
X236756Y381353D02*
X236779Y382301D01*
X267744Y372894D02*
X272400Y368238D01*
X268490Y366071D02*
X272400Y369981D01*
X268398Y370222D02*
X272400Y374223D01*
X268490Y361828D02*
X272400Y365738D01*
X268490Y367906D02*
X272096Y364300D01*
X267106Y382018D02*
X273599Y375524D01*
X265877Y376186D02*
X272153Y382462D01*
X267480Y373546D02*
X281030Y387096D01*
X262419Y382462D02*
X272400Y372481D01*
X268490Y359420D02*
X272400Y355510D01*
X268490Y357585D02*
X272271Y361366D01*
X268490Y355177D02*
X272400Y351268D01*
X268490Y353343D02*
X272400Y357253D01*
X268093Y348703D02*
X272400Y353010D01*
X268490Y363663D02*
X272400Y359753D01*
X268464Y350961D02*
X276000Y343424D01*
X261001Y379795D02*
X263668Y382462D01*
X248268Y392370D02*
X260744Y379894D01*
X263720Y378272D02*
X267489Y382040D01*
X235749Y379999D02*
X236725Y380975D01*
X232827Y382355D02*
X235334Y379848D01*
X232516Y378299D02*
X232516Y386999D01*
X268490Y351749D02*
Y368750D01*
X268722Y346872D02*
X269502Y346059D01*
X268116Y347570D02*
X268722Y346872D01*
X265600Y333482D02*
X266672Y334554D01*
X265600Y335608D02*
X266397Y334810D01*
X265600Y329240D02*
X269693Y333332D01*
X403984Y318904D02*
X404775Y318862D01*
X402396Y318853D02*
X406257Y314991D01*
X402687Y318878D02*
X403563Y318901D01*
X406257Y303623D02*
Y318048D01*
X401075Y315931D02*
X406257Y310749D01*
X401075Y332901D02*
X404926Y329050D01*
X401075Y316222D02*
X403802Y318950D01*
X401075Y311980D02*
X406257Y317162D01*
X401075Y302680D02*
Y318619D01*
X406257Y303623D02*
X414720D01*
X413383D02*
X414030Y302975D01*
X412921Y301934D02*
X414720Y303623D01*
X408447Y301499D02*
X412401D01*
X401075Y311688D02*
X406257Y306506D01*
X401075Y307737D02*
X406257Y312919D01*
X401075Y303494D02*
X406257Y308676D01*
X392550Y302680D02*
X401075D01*
X376925Y321962D02*
Y335720D01*
X370048Y323379D02*
X376925Y330256D01*
X367927Y325501D02*
X376925Y334499D01*
X372812Y321900D02*
X376925Y326013D01*
X371527Y321900D02*
X376221D01*
X365806Y327622D02*
X390494Y352310D01*
X358050Y346228D02*
X376925Y327353D01*
X358050Y341985D02*
X376925Y323110D01*
Y302680D02*
X385450D01*
X376925D02*
Y313739D01*
X400261Y302680D02*
X401075Y303494D01*
X384627Y302680D02*
X385450Y301857D01*
X369850Y313801D02*
X376221D01*
X369214Y313851D02*
X376925Y306140D01*
X373507Y313801D02*
X376925Y310382D01*
X409140Y303623D02*
X411264Y301499D01*
X411808D02*
X413932Y303623D01*
X402791Y296725D02*
X409689Y303623D01*
X408447Y286446D02*
Y301499D01*
X401075Y307445D02*
X408447Y300074D01*
X400795Y298972D02*
X406257Y304434D01*
X397355Y302680D02*
X408447Y291588D01*
X401075Y303203D02*
X408447Y295831D01*
X421227Y295435D02*
X421731Y296029D01*
X421227Y286446D02*
Y295435D01*
X403400Y293092D02*
X408447Y298138D01*
X404030Y289479D02*
X408447Y293896D01*
X392550Y299212D02*
X396018Y302680D01*
X393112D02*
X395963Y299830D01*
X392550Y297556D02*
Y302680D01*
X385450Y297971D02*
Y302680D01*
X380384D02*
X385272Y297792D01*
X372201Y291591D02*
X383290Y302680D01*
X361142Y284775D02*
X379048Y302680D01*
X359789Y287664D02*
X376925Y304800D01*
X397584Y300004D02*
X400261Y302680D01*
X392550Y299000D02*
X393226Y298324D01*
X390293Y292772D02*
X392229Y290835D01*
X378548Y291068D02*
X385450Y297971D01*
X376367Y291514D02*
X385450Y300597D01*
X383466Y285885D02*
X391365Y293784D01*
X383568Y286048D02*
X391363Y293843D01*
X358050Y337742D02*
X373892Y321900D01*
X358050Y335378D02*
X371527Y321900D01*
X351144Y330828D02*
X366977Y314995D01*
X350275Y307849D02*
X362199Y319773D01*
X350275Y312091D02*
X360078Y321894D01*
X350275Y320577D02*
X355835Y326137D01*
X350275Y324819D02*
X353714Y328258D01*
X350275Y316334D02*
X357957Y324016D01*
X350275Y302680D02*
Y332110D01*
Y303606D02*
X364321Y317652D01*
X349269Y302600D02*
X350275Y303606D01*
X347756Y296844D02*
X366442Y315530D01*
X345635Y298965D02*
X349269Y302600D01*
X341228D02*
X350150D01*
X343513Y301087D02*
X345026Y302600D01*
X308900Y317385D02*
X310500Y318985D01*
X308900Y319010D02*
X310500Y317410D01*
Y303903D02*
Y324334D01*
X308900Y314767D02*
X310500Y313167D01*
X308900Y323253D02*
X310500Y321653D01*
X308900Y324334D02*
X310500D01*
X308900Y321628D02*
X310500Y323228D01*
X308900Y301224D02*
Y324334D01*
Y304657D02*
X310500Y306257D01*
X308900Y306282D02*
X310500Y304682D01*
X308900Y302040D02*
X310977Y299963D01*
X310500Y301224D02*
Y303707D01*
X308900Y310525D02*
X310500Y308925D01*
X308900Y313143D02*
X310500Y314743D01*
X308900Y308900D02*
X310500Y310500D01*
X297800Y301224D02*
X308900D01*
X350275Y315819D02*
X374327Y291768D01*
X355229Y291590D02*
X376925Y313285D01*
X352143Y292747D02*
X373198Y313801D01*
X357806Y289924D02*
X376925Y309043D01*
X350275Y311576D02*
X370675Y291176D01*
X350275Y328547D02*
X383151Y295671D01*
X349877Y294723D02*
X369037Y313883D01*
X350275Y324304D02*
X381029Y293550D01*
X350275Y320062D02*
X378908Y291429D01*
X350275Y307334D02*
X367927Y289682D01*
X350690Y293992D02*
X352494Y292446D01*
X350275Y303091D02*
X365837Y287529D01*
X346523Y302600D02*
X364416Y284707D01*
X342281Y302600D02*
X352080Y292801D01*
X343236Y301364D02*
X349962Y294638D01*
X337567Y292750D02*
X340475Y289842D01*
X336290Y292750D02*
X337567D01*
X309559Y296831D02*
X311255Y298527D01*
X305473Y301224D02*
X309924Y296773D01*
X301230Y301224D02*
X306064Y296390D01*
X296200Y302012D02*
X301822Y296390D01*
X304875D02*
X310500Y302015D01*
X295428Y291185D02*
X305467Y301224D01*
X316300Y292718D02*
X317981Y291037D01*
X311237Y296390D02*
X312628D01*
X336290Y284450D02*
Y292750D01*
X301020Y296390D02*
X306083D01*
X421227Y287293D02*
X422120Y286400D01*
X419986Y286446D02*
X421227D01*
X408447Y286219D02*
X409688D01*
X421227Y285462D02*
X422123Y286359D01*
X408447Y285410D02*
X409256Y286219D01*
X406051Y287257D02*
X408447Y289653D01*
X403286Y292506D02*
X408447Y287346D01*
Y286446D02*
X409674D01*
X408447Y287346D02*
X409346Y286446D01*
X420000Y286219D02*
X421227D01*
X407702Y280422D02*
X408447Y281168D01*
X407461Y284089D02*
X408447Y283103D01*
X407390Y284354D02*
X408447Y285410D01*
X406459Y276605D02*
X408447Y274618D01*
X407593Y279714D02*
X408447Y278860D01*
X391724Y289901D02*
X392396Y290573D01*
X388171Y290651D02*
X390222Y288600D01*
X386050Y288529D02*
X388480Y286100D01*
X384237Y282414D02*
X389299Y287476D01*
X383928Y286408D02*
X387505Y282832D01*
X384268Y281826D02*
X388085Y278009D01*
X361593Y280982D02*
X364109Y283499D01*
X337130Y281106D02*
Y283946D01*
X383272Y277206D02*
X387433Y281367D01*
X361458Y283423D02*
X363952Y280929D01*
X408447Y272174D02*
Y286219D01*
X421227Y272174D02*
Y286219D01*
X382483Y272174D02*
X388150Y277841D01*
X383676Y278175D02*
X389677Y272174D01*
X401419D02*
X408447D01*
X390968D02*
X391943Y273149D01*
X403696Y272174D02*
X408447Y276925D01*
X404600Y274222D02*
X406647Y272174D01*
X377920D02*
X393781D01*
X380029Y273337D02*
X381192Y272174D01*
X386726D02*
X389721Y275170D01*
X382182Y275427D02*
X385434Y272174D01*
X361270D02*
X365411Y276315D01*
X360195Y276201D02*
X364221Y272174D01*
X361362Y279276D02*
X368464Y272174D01*
X357027D02*
X364186Y279333D01*
X356290Y272174D02*
X370280D01*
X365513D02*
X367340Y274002D01*
X358362Y273791D02*
X359978Y272174D01*
X337130D02*
X344910D01*
X337130Y273810D02*
X338765Y272174D01*
X341176Y274006D02*
X343008Y272174D01*
X340057D02*
X341888Y274006D01*
X336290Y291621D02*
X340971Y286939D01*
X336290Y285378D02*
X340607Y289696D01*
X336290Y289621D02*
X338493Y291824D01*
X337130Y281975D02*
X340116Y284961D01*
X336290Y287378D02*
X339822Y283846D01*
X335362Y284450D02*
X336290Y285378D01*
X325524Y284450D02*
X336290D01*
X335479Y283946D02*
X337130Y282295D01*
X331950Y283946D02*
X337130D01*
Y281106D02*
X339601D01*
X337130Y282295D02*
X338319Y281106D01*
X324296Y283946D02*
X327028D01*
X320801Y288117D02*
X322690Y286113D01*
X318118Y290829D02*
X320801Y288117D01*
X322690Y285552D02*
X323792Y284450D01*
X318458Y289784D02*
X322690Y285552D01*
X317627Y290697D02*
X318270Y290043D01*
X316578Y291836D02*
X317627Y290697D01*
X323792Y284450D02*
X325267D01*
X315460Y277276D02*
X316071Y277887D01*
X304751Y283106D02*
X306304D01*
X301020Y283610D02*
X306083D01*
X301020Y284464D02*
X301874Y283610D01*
X301860Y283106D02*
X304342D01*
X300303Y282660D02*
X301860Y282758D01*
X337130Y272174D02*
Y274006D01*
X342628D01*
X315460Y278498D02*
X320012Y273947D01*
X315460Y273033D02*
X318192Y275766D01*
X315460Y274267D02*
X317552Y272174D01*
X315460Y272161D02*
Y278498D01*
X315833Y272174D02*
X321850D01*
X320221Y273748D02*
X321795Y272174D01*
X318843D02*
X320326Y273657D01*
X314414Y272109D02*
X315460Y272161D01*
X314542Y272115D02*
X315460Y273033D01*
X313691Y272006D02*
X315460D01*
X311120D02*
X313691D01*
X301860D02*
X304342D01*
X301860Y272403D02*
X302976Y272346D01*
X304993Y272006D02*
X307296Y269703D01*
X304751Y272006D02*
X306396D01*
X300309Y272447D02*
X304853Y267903D01*
X296069Y272444D02*
X302845Y265668D01*
X279034Y245093D02*
X305947Y272006D01*
X276695Y246996D02*
X301860Y272161D01*
X311449Y271560D02*
X313691Y272006D01*
X308472Y270403D02*
X310759Y271351D01*
X308669Y270485D02*
X309800Y271616D01*
X305777Y268688D02*
X307836Y270064D01*
X304432Y267523D02*
X305351Y268355D01*
X303356Y266361D02*
X304177Y267268D01*
X301665Y263902D02*
X303023Y265935D01*
X296200Y318982D02*
X297800Y317382D01*
X296700Y313670D02*
X297800Y314771D01*
X296200Y317413D02*
X297800Y319013D01*
Y301224D02*
Y324334D01*
X296665Y314275D02*
X297800Y313140D01*
X296200Y321656D02*
X297800Y323256D01*
X296200Y324334D02*
X297800D01*
X296200Y317413D02*
X297800Y319013D01*
X296200Y323225D02*
X297800Y321625D01*
X296200Y310497D02*
X297800Y308897D01*
X296200Y308928D02*
X297800Y310528D01*
X296200Y306254D02*
X297800Y304654D01*
X296200Y304685D02*
X297800Y306285D01*
X295763Y300005D02*
X297800Y302043D01*
X295700Y295700D02*
X301224Y301224D01*
X295700Y298269D02*
X301020Y292949D01*
X296200Y304115D02*
Y311216D01*
Y316033D02*
Y324334D01*
Y301224D02*
Y303707D01*
X295803Y301224D02*
X295860Y302341D01*
X275113Y326025D02*
X278610Y329522D01*
X273373Y333324D02*
X278610Y328087D01*
X295750Y298778D02*
X295768Y300526D01*
X278610Y326025D02*
Y333177D01*
X295739Y296989D02*
X295750Y297939D01*
X295700Y296393D02*
Y298221D01*
Y292820D02*
Y296393D01*
X273800Y290771D02*
X274400Y291371D01*
X273800Y295013D02*
X274400Y295613D01*
X273800Y295013D02*
X274400Y295613D01*
X273800Y294713D02*
X274400Y294113D01*
X272963Y295550D02*
X273800Y294713D01*
X301020Y283610D02*
Y296390D01*
X295083Y290401D02*
X301020Y284464D01*
X295700Y294026D02*
X301020Y288707D01*
X295401Y282673D02*
X301020Y288292D01*
X294630Y286611D02*
X298635Y282606D01*
X294630Y286145D02*
X301020Y292534D01*
X294630Y284450D02*
Y289712D01*
X299627Y282657D02*
X301020Y284049D01*
X299427Y282656D02*
X300303Y282660D01*
X297314Y282606D02*
X299183D01*
X295329Y282674D02*
X297076Y282656D01*
X292147Y283106D02*
X294630D01*
X281030Y284450D02*
X294630D01*
X293514Y282766D02*
X294630Y282709D01*
X292549Y284450D02*
X293893Y283106D01*
X281030Y284450D02*
Y285385D01*
X279391Y283570D02*
X280457Y284637D01*
X274400Y288620D02*
Y301224D01*
X273800Y290471D02*
X274400Y289871D01*
X273800Y288020D02*
X274400Y288620D01*
X273800Y288020D02*
Y295550D01*
X287349Y283106D02*
X288693Y284450D01*
X284063D02*
X285407Y283106D01*
X291591D02*
X292935Y284450D01*
X288306D02*
X289650Y283106D01*
X281030D02*
X291739D01*
X280046Y284225D02*
X281165Y283106D01*
X283106D02*
X284450Y284450D01*
X269043Y333411D02*
X276430Y326025D01*
X272400D02*
X278610D01*
X266615Y317526D02*
X272400Y323312D01*
Y301224D02*
Y326025D01*
X265600Y324127D02*
X272400Y317326D01*
X265600Y324997D02*
X273927Y333324D01*
X265600Y332612D02*
X272400Y325812D01*
X265600Y320754D02*
X278077Y333232D01*
X265600Y328369D02*
X272400Y321569D01*
Y301224D02*
X274400D01*
X267440Y314109D02*
X272400Y319069D01*
X270094Y295550D02*
X274400Y299856D01*
X269263Y295550D02*
X273800D01*
X266893Y305863D02*
X274400Y298356D01*
X266182Y295880D02*
X272400Y302099D01*
X265725Y302789D02*
X272963Y295550D01*
X261609D02*
X272400Y306341D01*
X267489Y313752D02*
X272400Y308841D01*
X267612Y310039D02*
X272400Y314826D01*
X267565Y309433D02*
X272400Y304599D01*
X266523Y304706D02*
X272400Y310584D01*
X265678Y319806D02*
X272400Y313084D01*
X265600Y319965D02*
Y335608D01*
X264164Y300107D02*
X268480Y295791D01*
X260200Y295550D02*
X264937D01*
X262259Y297769D02*
X264478Y295550D01*
X260200Y294141D02*
X261609Y295550D01*
X232827Y293750D02*
X239385D01*
X257458Y294085D02*
X260200Y291343D01*
X232827Y292224D02*
X234352Y293750D01*
X260200Y286950D02*
Y295550D01*
X254517Y292783D02*
X260200Y287100D01*
X251123Y291935D02*
X256786Y286271D01*
X255908Y285606D02*
X260200Y289898D01*
X251665Y285606D02*
X260200Y294141D01*
X243180Y285606D02*
X249311Y291737D01*
X241845Y292727D02*
X248966Y285606D01*
X247422D02*
X254643Y292827D01*
X247089Y291726D02*
X253209Y285606D01*
X258916Y286950D02*
X260200D01*
X248772Y285606D02*
X255408D01*
X247428Y281369D02*
X248772Y282713D01*
X247428Y282901D02*
X248772Y281558D01*
Y272006D02*
Y285606D01*
X238937D02*
X245241Y291910D01*
X236580Y293750D02*
X244723Y285606D01*
X232827Y283739D02*
X241823Y292735D01*
X232827Y289017D02*
X236328Y285516D01*
X232827Y287981D02*
X238595Y293750D01*
X232515Y290501D02*
X232515Y293750D01*
X232827Y293260D02*
X240481Y285606D01*
X232827Y231700D02*
Y293750D01*
X236328Y285606D02*
X247428D01*
X236328Y281214D02*
Y285606D01*
X247428Y281214D02*
Y285606D01*
X232827Y279496D02*
X236328Y282997D01*
X232827Y284774D02*
X236328Y281274D01*
X232827Y280532D02*
X236005Y277354D01*
X299413Y272456D02*
X301161Y272438D01*
X292265Y272006D02*
X301231Y263040D01*
X288022Y272006D02*
X300102Y259926D01*
X283779Y272006D02*
X299579Y256206D01*
X280501Y271042D02*
X299573Y251970D01*
X267649Y271166D02*
X299573Y239242D01*
X271891Y271166D02*
X299573Y243485D01*
X258323Y272006D02*
X299573Y230757D01*
X263406Y271166D02*
X299573Y235000D01*
X300389Y261008D02*
X301325Y263267D01*
X299703Y257921D02*
X300180Y260319D01*
X299577Y256162D02*
X299637Y257384D01*
X284639Y233727D02*
X299573Y248661D01*
X281029Y242845D02*
X301236Y263053D01*
X277132Y270168D02*
X299573Y247727D01*
X282667Y240241D02*
X299628Y257202D01*
X283905Y237236D02*
X299573Y252904D01*
X297307Y272506D02*
X299176D01*
X296187Y272452D02*
X297062Y272456D01*
X273991Y248535D02*
X297962Y272506D01*
X294630Y272354D02*
X296187Y272452D01*
X259360Y271166D02*
Y272006D01*
X292147D02*
X294630D01*
X281828D02*
X291739D01*
X299573Y231700D02*
Y255981D01*
X267194Y250223D02*
X288977Y272006D01*
X259360Y271166D02*
X273570D01*
X270867Y249653D02*
X293219Y272006D01*
X262631Y249904D02*
X284734Y272006D01*
X299573Y229074D02*
Y231700D01*
X298751Y223885D02*
X299573Y229074D01*
X284614Y229460D02*
X299573Y244418D01*
X284712Y232890D02*
X297516Y220085D01*
X284527Y228832D02*
X296231Y217128D01*
X282782Y223385D02*
X299573Y240176D01*
X283531Y238313D02*
X298557Y223288D01*
X266210Y198327D02*
X299573Y231691D01*
X262187Y198547D02*
X299573Y235933D01*
X297128Y218889D02*
X298751Y223885D01*
X294743Y214209D02*
X297128Y218889D01*
X291655Y209959D02*
X294743Y214209D01*
X283969Y203359D02*
X294541Y213931D01*
X283666Y225451D02*
X294799Y214318D01*
X282332Y222542D02*
X293027Y211847D01*
X270758Y198633D02*
X299267Y227142D01*
X276239Y199872D02*
X298028Y221661D01*
X280611Y220020D02*
X291164Y209467D01*
X278539Y217849D02*
X289042Y207346D01*
X276120Y216026D02*
X286759Y205386D01*
X273329Y214574D02*
X284302Y203601D01*
X270097Y213564D02*
X281579Y202081D01*
X255304Y200150D02*
X268440Y213286D01*
X261391Y213784D02*
X275533Y199642D01*
X258524Y199127D02*
X274515Y215118D01*
X287941Y206245D02*
X291655Y209959D01*
X283691Y203157D02*
X287941Y206245D01*
X279011Y200772D02*
X283691Y203157D01*
X274015Y199149D02*
X279011Y200772D01*
X266268Y213150D02*
X278735Y200683D01*
X258385Y199149D02*
X263573Y198327D01*
X268827D02*
X274015Y199149D01*
X263573Y198327D02*
X268827D01*
X248772Y272006D02*
X259360D01*
X241353D02*
X263332Y250027D01*
X248772Y273072D02*
X249838Y272006D01*
X237110D02*
X259951Y249166D01*
X232827Y245555D02*
X259278Y272006D01*
X232827Y254040D02*
X250793Y272006D01*
X232827Y254040D02*
X250793Y272006D01*
X232827Y272046D02*
X257042Y247832D01*
X232827Y249798D02*
X255035Y272006D01*
X249838D02*
X272813Y249031D01*
X245596Y272006D02*
X267390Y250212D01*
X254884Y246399D02*
X278874Y270389D01*
X232827Y259319D02*
X250525Y241620D01*
X232827Y267804D02*
X254520Y246111D01*
X232827Y263561D02*
X252349Y244039D01*
X232827Y237070D02*
X266923Y271166D01*
X232827Y241313D02*
X262681Y271166D01*
X247897Y278190D02*
X248772Y277315D01*
X247781Y277479D02*
X248772Y278470D01*
X247428Y274416D02*
X248772Y273072D01*
X247428Y272006D02*
Y276398D01*
X232827Y276289D02*
X236328Y272788D01*
X232827Y275254D02*
X235851Y278277D01*
X232827Y271011D02*
X236328Y274512D01*
Y272006D02*
Y276398D01*
X247428Y272884D02*
X248772Y274228D01*
X236328Y272788D02*
X237110Y272006D01*
X246550D02*
X247428Y272884D01*
X236328Y272006D02*
X247428D01*
X232827Y262526D02*
X242308Y272006D01*
X232827Y266768D02*
X238065Y272006D01*
X232827Y255076D02*
X249074Y238829D01*
X232827Y258283D02*
X246550Y272006D01*
X254081D02*
X299223Y226864D01*
X232894Y228652D02*
X274815Y270573D01*
X233523Y224682D02*
X259182Y199023D01*
X232827Y238105D02*
X272089Y198844D01*
X232827Y232827D02*
X271166Y271166D01*
X232827Y233863D02*
X268363Y198327D01*
X232827Y229620D02*
X264120Y198327D01*
X252260Y201348D02*
X264173Y213261D01*
X249449Y202780D02*
X260664Y213995D01*
X253389Y200772D02*
X258385Y199149D01*
X248709Y203157D02*
X253389Y200772D01*
X244444Y206260D02*
X255055Y216871D01*
X242323Y208381D02*
X252807Y218866D01*
X246899Y204472D02*
X257659Y215233D01*
X235480Y218483D02*
X252983Y200979D01*
X233474Y224989D02*
X251501Y243016D01*
X232827Y229074D02*
X233649Y223885D01*
X234376Y221648D02*
X247997Y235268D01*
X235471Y218500D02*
X247677Y230706D01*
X232827Y250833D02*
X248064Y235597D01*
X232827Y246591D02*
X247650Y231768D01*
X232827Y242348D02*
X248284Y226891D01*
X232827Y229074D02*
Y231700D01*
X240287Y210589D02*
X250904Y221206D01*
X238502Y213046D02*
X249365Y223909D01*
X244459Y206245D02*
X248709Y203157D01*
X240745Y209959D02*
X244459Y206245D01*
X236903Y215690D02*
X248247Y227033D01*
X233649Y223885D02*
X235272Y218889D01*
X237657Y214209D02*
X240745Y209959D01*
X235272Y218889D02*
X237657Y214209D01*
D60*
X287830Y400456D02*
Y402770D01*
X287600Y400686D02*
Y400722D01*
X287472D02*
X287600D01*
Y401843D01*
X281630Y406656D02*
X287830Y400456D01*
Y400456D02*
Y400456D01*
X248078Y406656D02*
X281630D01*
X287600Y403000D02*
X287830Y402770D01*
X287600Y400686D02*
X287830Y400456D01*
X334400Y394200D02*
Y394212D01*
Y394200D02*
X339940D01*
X323914Y394212D02*
X334400D01*
X339940Y394200D02*
X354000Y380140D01*
X314916Y394200D02*
X323902D01*
X323914Y394212D01*
X308660Y400456D02*
X314916Y394200D01*
X387608Y317850D02*
X388599Y318841D01*
X354000Y333700D02*
X369850Y317850D01*
X387608D01*
X354000Y333700D02*
Y380140D01*
X678064Y333736D02*
Y341839D01*
X687225Y324575D02*
X704827D01*
X678064Y333736D02*
X687225Y324575D01*
X585103Y342922D02*
Y352130D01*
X438514Y305677D02*
X450076Y317239D01*
X597970Y273550D02*
Y286155D01*
X598735Y286920D01*
X597970Y273438D02*
X619175D01*
X590022D02*
X597970D01*
X597603Y286460D02*
Y323714D01*
Y286460D02*
X597734Y286329D01*
X606326Y348000D02*
X616238D01*
X604477Y346150D02*
X606326Y348000D01*
X587603Y289927D02*
Y323714D01*
X582603Y280857D02*
X590022Y273438D01*
X563000Y278713D02*
Y326866D01*
X619175Y273438D02*
X622565Y276828D01*
X613741Y280138D02*
X614000Y280398D01*
Y330073D01*
X582603Y280857D02*
Y323714D01*
X438514Y305677D02*
Y359253D01*
X430191Y367576D02*
X438514Y359253D01*
X678008Y383231D02*
X679111Y384334D01*
X678008Y341894D02*
Y383231D01*
Y341894D02*
X678064Y341839D01*
X429566Y367576D02*
X430191D01*
X428941D02*
X429566D01*
X435810Y302973D02*
X438514Y305677D01*
X704827Y324575D02*
X704998Y324403D01*
X423205Y302973D02*
X435810D01*
X241878Y400456D02*
X248078Y406656D01*
X241878Y399206D02*
Y400456D01*
X622565Y276828D02*
Y278078D01*
X608651Y335422D02*
X614000Y330073D01*
X563000Y326866D02*
X571330Y335196D01*
X575669D01*
X575895Y335422D01*
X604311Y340422D02*
X604340Y340394D01*
X613949D02*
X614143Y340588D01*
X604340Y340394D02*
X613949D01*
X604311Y335422D02*
X608651D01*
X616238Y348000D02*
X623439Y340799D01*
Y339795D02*
Y340799D01*
X568454Y340422D02*
X575895D01*
X552711Y324679D02*
X553484D01*
X555520Y327488D02*
X568454Y340422D01*
X585103Y352130D02*
X587603D01*
X582603D02*
X585103D01*
Y342922D02*
X590103Y337922D01*
X592603Y323714D02*
Y335422D01*
X590103Y337922D02*
X592603Y335422D01*
X555520Y326715D02*
Y327488D01*
X553484Y324679D02*
X555520Y326715D01*
X559174Y345422D02*
X575895D01*
X554020Y340268D02*
X559174Y345422D01*
X554020Y339018D02*
Y340268D01*
D61*
X338200Y341875D02*
D03*
D62*
X497303Y281737D02*
D03*
D63*
X459803D02*
D03*
X472303D02*
D03*
X484803D02*
D03*
D64*
X564700Y445300D02*
D03*
X266200Y231700D02*
D03*
Y445300D02*
D03*
X564700Y230700D02*
D03*
M02*
