G04*
G04 #@! TF.GenerationSoftware,Altium Limited,Altium Designer,21.0.9 (235)*
G04*
G04 Layer_Color=16711935*
%FSLAX44Y44*%
%MOMM*%
G71*
G04*
G04 #@! TF.SameCoordinates,08F79265-EF5C-4CE5-BC12-077E6F79E2A6*
G04*
G04*
G04 #@! TF.FilePolarity,Negative*
G04*
G01*
G75*
%ADD57C,1.2000*%
%ADD58C,1.7000*%
%ADD67R,0.7874X1.6510*%
%ADD68R,1.5800X2.0200*%
G04:AMPARAMS|DCode=69|XSize=2.2mm|YSize=4.2mm|CornerRadius=0.17mm|HoleSize=0mm|Usage=FLASHONLY|Rotation=270.000|XOffset=0mm|YOffset=0mm|HoleType=Round|Shape=RoundedRectangle|*
%AMROUNDEDRECTD69*
21,1,2.2000,3.8600,0,0,270.0*
21,1,1.8600,4.2000,0,0,270.0*
1,1,0.3400,-1.9300,-0.9300*
1,1,0.3400,-1.9300,0.9300*
1,1,0.3400,1.9300,0.9300*
1,1,0.3400,1.9300,-0.9300*
%
%ADD69ROUNDEDRECTD69*%
D57*
X408437Y281737D02*
D03*
X445937D02*
D03*
X433437D02*
D03*
X420937D02*
D03*
D58*
X341040Y445300D02*
D03*
X639540Y231700D02*
D03*
Y445300D02*
D03*
X341040Y230700D02*
D03*
D67*
X200742Y364403D02*
D03*
X218742D02*
D03*
Y324403D02*
D03*
X200742D02*
D03*
X242742Y364403D02*
D03*
X260742D02*
D03*
Y324403D02*
D03*
X242742D02*
D03*
D68*
X220030Y302938D02*
D03*
X192650D02*
D03*
Y384800D02*
D03*
X220030D02*
D03*
X535860Y285300D02*
D03*
X563240D02*
D03*
D69*
X317136Y364471D02*
D03*
Y311271D02*
D03*
M02*
