G04*
G04 #@! TF.GenerationSoftware,Altium Limited,Altium Designer,19.1.8 (144)*
G04*
G04 Layer_Color=794757*
%FSLAX44Y44*%
%MOMM*%
G71*
G01*
G75*
%ADD70C,0.6000*%
D70*
X619128Y268507D02*
G03*
X604411Y262411I0J-20814D01*
G01*
X604400Y262400D02*
G03*
X601570Y255568I6832J-6832D01*
G01*
X604407Y411298D02*
G03*
X612368Y408000I7961J7961D01*
G01*
X601578Y418127D02*
G03*
X604407Y411298I9658J0D01*
G01*
X514885Y408400D02*
G03*
X524300Y412300I0J13315D01*
G01*
X315833Y268500D02*
G03*
X306900Y264800I0J-12633D01*
G01*
X229257Y445300D02*
G03*
X229153Y445049I251J-251D01*
G01*
X306900Y264800D02*
G03*
X303247Y255981I8819J-8819D01*
G01*
X523800Y265000D02*
G03*
X515350Y268500I-8450J-8450D01*
G01*
X527829Y255273D02*
G03*
X523800Y265000I-13756J0D01*
G01*
X303143Y418841D02*
G03*
X304900Y414600I5998J0D01*
G01*
D02*
G03*
X319868Y408400I14968J14968D01*
G01*
X524300Y412300D02*
G03*
X527822Y420802I-8502J8502D01*
G01*
X527829Y230700D02*
G03*
X601570Y230421I36871J0D01*
G01*
X601578Y445300D02*
G03*
X527822Y445300I-36878J0D01*
G01*
X303143Y445300D02*
G03*
X229257Y445300I-36943J0D01*
G01*
X229153Y231700D02*
G03*
X303247Y231700I37047J0D01*
G01*
X715082Y268309D02*
X721309D01*
X619128Y268507D02*
X718058D01*
X604400Y262400D02*
X604411Y262411D01*
X721309Y268309D02*
Y408000D01*
X612368D02*
X721309D01*
X601578Y418127D02*
Y445300D01*
X601570Y230421D02*
Y255568D01*
X527822Y420802D02*
Y445300D01*
X527829Y230700D02*
Y255273D01*
X322600Y268500D02*
X515350D01*
X319868Y408400D02*
X514885D01*
X315833Y268500D02*
X322600D01*
X229153Y231700D02*
Y445049D01*
X303247Y231700D02*
Y255981D01*
X303143Y418841D02*
Y445300D01*
M02*
