G04*
G04 #@! TF.GenerationSoftware,Altium Limited,Altium Designer,19.1.8 (144)*
G04*
G04 Layer_Color=16711935*
%FSLAX44Y44*%
%MOMM*%
G71*
G01*
G75*
%ADD57C,1.2000*%
%ADD58C,1.7000*%
%ADD67R,0.7874X1.6510*%
%ADD68R,1.5800X2.0200*%
G04:AMPARAMS|DCode=69|XSize=2.2mm|YSize=4.2mm|CornerRadius=0.17mm|HoleSize=0mm|Usage=FLASHONLY|Rotation=270.000|XOffset=0mm|YOffset=0mm|HoleType=Round|Shape=RoundedRectangle|*
%AMROUNDEDRECTD69*
21,1,2.2000,3.8600,0,0,270.0*
21,1,1.8600,4.2000,0,0,270.0*
1,1,0.3400,-1.9300,-0.9300*
1,1,0.3400,-1.9300,0.9300*
1,1,0.3400,1.9300,0.9300*
1,1,0.3400,1.9300,-0.9300*
%
%ADD69ROUNDEDRECTD69*%
D57*
X497303Y281737D02*
D03*
X459803D02*
D03*
X472303D02*
D03*
X484803D02*
D03*
D58*
X564700Y445300D02*
D03*
X266200Y231700D02*
D03*
Y445300D02*
D03*
X564700Y230700D02*
D03*
D67*
X704998Y364403D02*
D03*
X686998D02*
D03*
Y324403D02*
D03*
X704998D02*
D03*
X662998Y364403D02*
D03*
X644998D02*
D03*
Y324403D02*
D03*
X662998D02*
D03*
D68*
X685710Y302938D02*
D03*
X713090D02*
D03*
Y384800D02*
D03*
X685710D02*
D03*
X369880Y285300D02*
D03*
X342500D02*
D03*
D69*
X588604Y364471D02*
D03*
Y311271D02*
D03*
M02*
